<?xml version="1.0" standalone="no"?>
 <!DOCTYPE svg PUBLIC "-//W3C//DTD SVG 1.1//EN" 
 "http://www.w3.org/Graphics/SVG/1.1/DTD/svg11.dtd"> 
<svg xmlns="http://www.w3.org/2000/svg" version="1.1" 
    width="8.70966cm" height="11.3487cm" viewBox="0 0 34290 44680 ">
<title>SVG Picture created as teensy_beats-brd.svg date 2018/10/22 10:31:55 </title>
  <desc>Picture generated by PCBNEW </desc>
<g style="fill:#000000; fill-opacity:1;stroke:#000000; stroke-opacity:1;
stroke-linecap:round; stroke-linejoin:round; "
 transform="translate(0 0) scale(1 1)">
</g>
<g style="fill:#000000; fill-opacity:0.0; 
stroke:#000000; stroke-width:-0.000393701; stroke-opacity:1; 
stroke-linecap:round; stroke-linejoin:round;">
</g>
<g style="fill:#008484; fill-opacity:0.0; 
stroke:#008484; stroke-width:-0.000393701; stroke-opacity:1; 
stroke-linecap:round; stroke-linejoin:round;">
</g>
<g style="fill:#008484; fill-opacity:0.0; 
stroke:#008484; stroke-width:47.2441; stroke-opacity:1; 
stroke-linecap:round; stroke-linejoin:round;">
<path d="M25444 4127
L25444 3690
" />
<path d="M25744 4127
L25444 4127
" />
<path d="M26043 3469
L26043 3253
" />
<path d="M26043 4127
L26043 3912
" />
<path d="M26043 3253
L26517 3253
" />
<path d="M26043 4127
L26517 4127
" />
<path d="M26517 3569
L26517 3253
" />
<path d="M26517 4127
L26517 3812
" />
</g>
<g style="fill:#008484; fill-opacity:0.0; 
stroke:#008484; stroke-width:59.0551; stroke-opacity:1; 
stroke-linecap:round; stroke-linejoin:round;">
<path d="M33767 6293
L33767 13293
" />
<path d="M9767 13293
L9767 6293
" />
<path d="M17267 10793
L16267 10793
" />
<path d="M17267 8793
L17267 10793
" />
<path d="M16267 8793
L17267 8793
" />
<path d="M16267 10793
L16267 8793
" />
<path d="M31767 8293
L33767 8293
" />
<path d="M31767 11293
L33767 11293
" />
<path d="M31767 8293
L31767 11293
" />
<path d="M34267 11293
L33767 11293
" />
<path d="M34267 8293
L34267 11293
" />
<path d="M33767 8293
L34267 8293
" />
<path d="M33767 6293
L9767 6293
" />
<path d="M9767 13293
L33767 13293
" />
<path d="M14767 7293
L9767 7293
" />
<path d="M14767 12293
L14767 7293
" />
<path d="M9767 12293
L14767 12293
" />
<path d="M10267 11793
L9767 12293
" />
<path d="M10267 7793
L10267 11793
" />
<path d="M9767 7293
L10267 7793
" />
<path d="M10267 11793
L9767 11793
" />
<path d="M10267 11293
L9767 11293
" />
<path d="M10267 10793
L9767 10793
" />
<path d="M10267 10293
L9767 10293
" />
<path d="M10267 9793
L9767 9793
" />
<path d="M10267 9293
L9767 9293
" />
<path d="M10267 8793
L9767 8793
" />
<path d="M10267 8293
L9767 8293
" />
<path d="M10267 7793
L9767 7793
" />
<path d="M23767 12293
L18767 12293
" />
<path d="M23767 7293
L18767 7293
" />
<path d="M23767 12293
L23767 7293
" />
<path d="M18767 7293
L18767 12293
" />
<path d="M24267 8793
L24267 7793
" />
<path d="M25767 8793
L24267 8793
" />
<path d="M25767 7793
L25767 8793
" />
<path d="M24267 7793
L25767 7793
" />
<path d="M26267 11293
L27267 11293
" />
<path d="M26267 10293
L26267 11293
" />
<path d="M27267 10293
L26267 10293
" />
<path d="M27267 11293
L27267 10293
" />
</g>
<g style="fill:#008484; fill-opacity:0.0; 
stroke:#008484; stroke-width:47.2441; stroke-opacity:1; 
stroke-linecap:round; stroke-linejoin:round;">
<path d="M27722 18129
L27722 17736
" />
<path d="M27053 17736
L27053 18129
" />
<path d="M26826 13543
L26433 13543
" />
<path d="M26433 14212
L26826 14212
" />
<path d="M21728 18102
L22515 18102
" />
<path d="M22515 16937
L21728 16937
" />
<path d="M24842 13533
L25314 13533
" />
<path d="M25314 14226
L24842 14226
" />
<path d="M6100 17283
L6100 17755
" />
<path d="M5407 17755
L5407 17283
" />
<path d="M8511 17253
L8511 17726
" />
<path d="M7818 17726
L7818 17253
" />
<path d="M6736 16220
L6736 15748
" />
<path d="M7429 15748
L7429 16220
" />
<path d="M10017 15728
L10017 16200
" />
<path d="M9324 16200
L9324 15728
" />
</g>
<g style="fill:#008484; fill-opacity:0.0; 
stroke:#008484; stroke-width:39.3701; stroke-opacity:1; 
stroke-linecap:round; stroke-linejoin:round;">
<path d="M6846 16870
L6738 16870
" />
<path d="M6738 16870
L6590 16978
" />
<path d="M6590 16978
L6590 16998
" />
<path d="M6590 16998
L6285 16998
" />
<path d="M6777 18169
L6590 18169
" />
<path d="M6590 18169
L6590 18031
" />
<path d="M7240 18080
L7240 18031
" />
<path d="M7240 18051
L7240 18169
" />
<path d="M7240 18169
L7062 18169
" />
<path d="M7092 16870
L7240 16870
" />
<path d="M7240 16870
L7240 16988
" />
<path d="M8775 15354
L8775 15472
" />
<path d="M8627 15354
L8775 15354
" />
<path d="M8775 16653
L8598 16653
" />
<path d="M8775 16535
L8775 16653
" />
<path d="M8775 16564
L8775 16515
" />
<path d="M8125 16653
L8125 16515
" />
<path d="M8312 16653
L8125 16653
" />
<path d="M8125 15482
L7820 15482
" />
<path d="M8125 15462
L8125 15482
" />
<path d="M8273 15354
L8125 15462
" />
<path d="M8381 15354
L8273 15354
" />
</g>
<g style="fill:#008484; fill-opacity:0.0; 
stroke:#008484; stroke-width:47.2441; stroke-opacity:1; 
stroke-linecap:round; stroke-linejoin:round;">
<path d="M23027 30954
L23303 30954
" />
<path d="M23303 31427
L23027 31427
" />
<path d="M18578 31427
L18303 31427
" />
<path d="M18303 30954
L18578 30954
" />
<path d="M13578 30954
L13854 30954
" />
<path d="M13854 31427
L13578 31427
" />
<path d="M9110 31427
L8834 31427
" />
<path d="M8834 30954
L9110 30954
" />
<path d="M25251 27805
L24976 27805
" />
<path d="M24976 27332
L25251 27332
" />
<path d="M20251 27332
L20527 27332
" />
<path d="M20527 27805
L20251 27805
" />
<path d="M15803 27805
L15527 27805
" />
<path d="M15527 27332
L15803 27332
" />
<path d="M10803 27332
L11078 27332
" />
<path d="M11078 27805
L10803 27805
" />
<path d="M6354 27805
L6078 27805
" />
<path d="M6078 27332
L6354 27332
" />
<path d="M28027 31427
L27751 31427
" />
<path d="M27751 30954
L28027 30954
" />
<path d="M6334 36466
L6059 36466
" />
<path d="M6059 35994
L6334 35994
" />
<path d="M10783 35994
L11059 35994
" />
<path d="M11059 36466
L10783 36466
" />
<path d="M15783 36466
L15507 36466
" />
<path d="M15507 35994
L15783 35994
" />
<path d="M20232 35994
L20507 35994
" />
<path d="M20507 36466
L20232 36466
" />
<path d="M20881 17293
L20881 16899
" />
<path d="M20212 16899
L20212 17293
" />
<path d="M23962 17746
L23962 17352
" />
<path d="M23293 17352
L23293 17746
" />
<path d="M17801 13474
L17407 13474
" />
<path d="M17407 14143
L17801 14143
" />
<path d="M24102 4679
L24102 5072
" />
<path d="M24771 5072
L24771 4679
" />
<path d="M17948 5620
L17948 5226
" />
<path d="M17279 5226
L17279 5620
" />
<path d="M18106 5226
L18106 5620
" />
<path d="M18775 5620
L18775 5226
" />
<path d="M19602 5620
L19602 5226
" />
<path d="M18933 5226
L18933 5620
" />
<path d="M17377 2952
L16984 2952
" />
<path d="M16984 3622
L17377 3622
" />
<path d="M16984 2874
L17377 2874
" />
<path d="M17377 2204
L16984 2204
" />
<path d="M21098 2411
L21098 2805
" />
<path d="M21767 2805
L21767 2411
" />
<path d="M7023 7687
L7417 7687
" />
<path d="M7417 7017
L7023 7017
" />
<path d="M29421 3998
L29027 3998
" />
<path d="M29027 4667
L29421 4667
" />
<path d="M29366 6161
L29759 6161
" />
<path d="M29759 5492
L29366 5492
" />
<path d="M30960 15561
L30488 15561
" />
<path d="M32515 15561
L33401 15561
" />
<path d="M32515 15364
L33401 15364
" />
<path d="M31885 14340
L31885 13946
" />
<path d="M32515 14340
L31885 14340
" />
<path d="M32515 13946
L32515 14340
" />
<path d="M31885 13946
L32515 13946
" />
<path d="M31885 15364
L31885 15757
" />
<path d="M32515 15364
L31885 15364
" />
<path d="M32515 15757
L32515 15364
" />
<path d="M31885 15757
L32515 15757
" />
<path d="M30960 13651
L30960 14005
" />
<path d="M30960 16053
L30960 15698
" />
<path d="M30960 14005
L30960 14143
" />
<path d="M30330 14005
L30960 14005
" />
<path d="M30330 13651
L30330 14005
" />
<path d="M33401 13651
L30330 13651
" />
<path d="M33401 16053
L33401 13651
" />
<path d="M30330 16053
L33401 16053
" />
<path d="M30330 15698
L30330 16053
" />
<path d="M30960 15698
L30330 15698
" />
<path d="M30960 15561
L30960 15698
" />
<path d="M31688 14655
L33401 14655
" />
<path d="M31688 15049
L31688 14655
" />
<path d="M33401 15049
L31688 15049
" />
</g>
<g style="fill:#008484; fill-opacity:0.0; 
stroke:#008484; stroke-width:59.0551; stroke-opacity:1; 
stroke-linecap:round; stroke-linejoin:round;">
<path d="M18834 16072
L19139 16072
" />
<path d="M18834 14379
L19139 14379
" />
<path d="M20527 14379
L20222 14379
" />
<path d="M20527 16072
L20222 16072
" />
<path d="M18834 14379
L18834 14685
" />
<path d="M20527 14379
L20527 14685
" />
<path d="M18834 16072
L18834 15767
" />
<path d="M26776 16402
L26776 16097
" />
<path d="M25083 16402
L25083 16097
" />
<path d="M25083 14709
L25083 15014
" />
<path d="M26776 14709
L26776 15014
" />
<path d="M25083 16402
L25388 16402
" />
<path d="M25083 14709
L25388 14709
" />
<path d="M26776 16402
L26471 16402
" />
<path d="M20826 4564
L20826 4357
" />
<path d="M18759 4564
L18759 4357
" />
<path d="M18759 2497
L18759 2703
" />
<path d="M20826 2497
L20826 2703
" />
<path d="M18759 4564
L18966 4564
" />
<path d="M18759 2497
L18966 2497
" />
<path d="M20826 4564
L20619 4564
" />
</g>
<g style="fill:#008484; fill-opacity:0.0; 
stroke:#008484; stroke-width:47.2441; stroke-opacity:1; 
stroke-linecap:round; stroke-linejoin:round;">
<path d="M16421 5659
L16421 5187
" />
<path d="M17114 5187
L17114 5659
" />
<path d="M21059 16643
L23539 16643
" />
<path d="M21059 14202
L23539 14202
" />
<path d="M31433 16309
L32535 16309
" />
<path d="M31433 16860
L32535 16860
" />
<path d="M31433 16309
L31433 16860
" />
</g>
<g style="fill:#008484; fill-opacity:0.0; 
stroke:#008484; stroke-width:59.0551; stroke-opacity:1; 
stroke-linecap:round; stroke-linejoin:round;">
<path d="M15566 1344
L15566 6068
" />
<path d="M10645 1344
L10645 6068
" />
<path d="M15566 1344
L10645 1344
" />
<path d="M14287 557
L11925 557
" />
<path d="M14287 557
L14287 1344
" />
<path d="M11925 557
L11925 1344
" />
<path d="M15566 6068
L10645 6068
" />
<path d="M6613 13605
L6613 13805
" />
<path d="M6113 13605
L6613 13605
" />
<path d="M6113 13805
L6113 13605
" />
<path d="M7313 13805
L5513 13805
" />
<path d="M7313 11805
L7313 13805
" />
<path d="M5513 11805
L7313 11805
" />
<path d="M5513 13805
L5513 11805
" />
</g>
<g style="fill:#008484; fill-opacity:0.0; 
stroke:#008484; stroke-width:39.3701; stroke-opacity:1; 
stroke-linecap:round; stroke-linejoin:round;">
<path d="M22840 1919
L22732 1919
" />
<path d="M22732 1919
L22584 2027
" />
<path d="M22584 2027
L22584 2047
" />
<path d="M22584 2047
L22279 2047
" />
<path d="M22771 3218
L22584 3218
" />
<path d="M22584 3218
L22584 3080
" />
<path d="M23234 3129
L23234 3080
" />
<path d="M23234 3100
L23234 3218
" />
<path d="M23234 3218
L23057 3218
" />
<path d="M23086 1919
L23234 1919
" />
<path d="M23234 1919
L23234 2037
" />
<path d="M26846 4330
L26846 4448
" />
<path d="M26698 4330
L26846 4330
" />
<path d="M26846 5629
L26669 5629
" />
<path d="M26846 5511
L26846 5629
" />
<path d="M26846 5541
L26846 5492
" />
<path d="M26196 5629
L26196 5492
" />
<path d="M26383 5629
L26196 5629
" />
<path d="M26196 4458
L25891 4458
" />
<path d="M26196 4438
L26196 4458
" />
<path d="M26344 4330
L26196 4438
" />
<path d="M26452 4330
L26344 4330
" />
</g>
<g style="fill:#008484; fill-opacity:0.0; 
stroke:#008484; stroke-width:47.2441; stroke-opacity:1; 
stroke-linecap:round; stroke-linejoin:round;">
<path d="M31757 1712
L32860 1712
" />
<path d="M31757 2263
L32860 2263
" />
<path d="M31757 1712
L31757 2263
" />
<path d="M28996 4738
L29468 4738
" />
<path d="M29468 5431
L28996 5431
" />
<path d="M31433 17017
L32535 17017
" />
<path d="M31433 17568
L32535 17568
" />
<path d="M31433 17017
L31433 17568
" />
<path d="M31305 2344
L30832 2344
" />
<path d="M30832 1651
L31305 1651
" />
<path d="M6021 15708
L6021 16181
" />
<path d="M5328 16181
L5328 15708
" />
<path d="M22799 4627
L22326 4627
" />
<path d="M22326 3935
L22799 3935
" />
<path d="M25527 6210
L24523 6210
" />
<path d="M25527 5541
L24523 5541
" />
<path d="M25527 6210
L25527 5541
" />
<path d="M6177 13994
L6649 13994
" />
<path d="M6649 14687
L6177 14687
" />
<path d="M27751 39616
L28027 39616
" />
<path d="M28027 40088
L27751 40088
" />
<path d="M24996 35994
L25271 35994
" />
<path d="M25271 36466
L24996 36466
" />
<path d="M8854 39616
L9129 39616
" />
<path d="M9129 40088
L8854 40088
" />
<path d="M13854 40088
L13578 40088
" />
<path d="M13578 39616
L13854 39616
" />
<path d="M18303 39616
L18578 39616
" />
<path d="M18578 40088
L18303 40088
" />
<path d="M23303 40088
L23027 40088
" />
<path d="M23027 39616
L23303 39616
" />
<path d="M24476 3915
L24476 4033
" />
<path d="M24826 4033
L24826 3895
" />
<path d="M24826 4033
L24476 4033
" />
<path d="M25019 3029
L26980 3029
" />
<path d="M24476 1360
L24476 2875
" />
<path d="M27523 1360
L24476 1360
" />
<path d="M27523 2875
L27523 1360
" />
<path d="M27523 3915
L27523 4033
" />
<path d="M27523 4033
L27173 4033
" />
<path d="M27173 4033
L27173 3895
" />
<path d="M23834 20549
L24307 20549
" />
<path d="M24307 21242
L23834 21242
" />
<path d="M22803 5458
L22330 5458
" />
<path d="M22330 4765
L22803 4765
" />
</g>
<g style="fill:#008484; fill-opacity:0.0; 
stroke:#008484; stroke-width:59.0551; stroke-opacity:1; 
stroke-linecap:round; stroke-linejoin:round;">
<circle cx="32043.3" cy="4281.5" r="1909.45" /> 
</g>
<g style="fill:#008484; fill-opacity:0.0; 
stroke:#008484; stroke-width:47.2441; stroke-opacity:1; 
stroke-linecap:round; stroke-linejoin:round;">
<path d="M25633 4635
L25633 5108
" />
<path d="M24940 5108
L24940 4635
" />
<path d="M24196 19773
L24196 19301
" />
<path d="M24889 19301
L24889 19773
" />
</g>
<g style="fill:#008484; fill-opacity:0.0; 
stroke:#008484; stroke-width:59.0551; stroke-opacity:1; 
stroke-linecap:round; stroke-linejoin:round;">
<path d="M11826 31053
L12122 31053
" />
<path d="M11826 32037
L11826 31053
" />
<path d="M12122 32037
L11826 32037
" />
<path d="M12811 32037
L12515 32037
" />
<path d="M12811 31053
L12811 32037
" />
<path d="M12515 31053
L12811 31053
" />
<path d="M11826 32037
L11826 31053
" />
<circle cx="11728.3" cy="30954.7" r="49.2126" /> 
<path d="M26984 27706
L26688 27706
" />
<path d="M26984 26722
L26984 27706
" />
<path d="M26688 26722
L26984 26722
" />
<path d="M26000 26722
L26295 26722
" />
<path d="M26000 27706
L26000 26722
" />
<path d="M26295 27706
L26000 27706
" />
<path d="M26984 26722
L26984 27706
" />
<circle cx="27082.7" cy="27805.1" r="49.2126" /> 
<path d="M22259 27706
L21964 27706
" />
<path d="M22259 26722
L22259 27706
" />
<path d="M21964 26722
L22259 26722
" />
<path d="M21275 26722
L21570 26722
" />
<path d="M21275 27706
L21275 26722
" />
<path d="M21570 27706
L21275 27706
" />
<path d="M22259 26722
L22259 27706
" />
<circle cx="22358.3" cy="27805.1" r="49.2126" /> 
<path d="M26000 39714
L26295 39714
" />
<path d="M26000 40698
L26000 39714
" />
<path d="M26295 40698
L26000 40698
" />
<path d="M26984 40698
L26688 40698
" />
<path d="M26984 39714
L26984 40698
" />
<path d="M26688 39714
L26984 39714
" />
<path d="M26000 40698
L26000 39714
" />
<circle cx="25901.6" cy="39616.1" r="49.2126" /> 
<path d="M21275 39714
L21570 39714
" />
<path d="M21275 40698
L21275 39714
" />
<path d="M21570 40698
L21275 40698
" />
<path d="M22259 40698
L21964 40698
" />
<path d="M22259 39714
L22259 40698
" />
<path d="M21964 39714
L22259 39714
" />
<path d="M21275 40698
L21275 39714
" />
<circle cx="21177.2" cy="39616.1" r="49.2126" /> 
<path d="M16551 39714
L16846 39714
" />
<path d="M16551 40698
L16551 39714
" />
<path d="M16846 40698
L16551 40698
" />
<path d="M17535 40698
L17240 40698
" />
<path d="M17535 39714
L17535 40698
" />
<path d="M17240 39714
L17535 39714
" />
<path d="M16551 40698
L16551 39714
" />
<circle cx="16452.8" cy="39616.1" r="49.2126" /> 
<path d="M11826 39714
L12122 39714
" />
<path d="M11826 40698
L11826 39714
" />
<path d="M12122 40698
L11826 40698
" />
<path d="M12811 40698
L12515 40698
" />
<path d="M12811 39714
L12811 40698
" />
<path d="M12515 39714
L12811 39714
" />
<path d="M11826 40698
L11826 39714
" />
<circle cx="11728.3" cy="39616.1" r="49.2126" /> 
<path d="M7102 39714
L7397 39714
" />
<path d="M7102 40698
L7102 39714
" />
<path d="M7397 40698
L7102 40698
" />
<path d="M8086 40698
L7791 40698
" />
<path d="M8086 39714
L8086 40698
" />
<path d="M7791 39714
L8086 39714
" />
<path d="M7102 40698
L7102 39714
" />
<circle cx="7003.94" cy="39616.1" r="49.2126" /> 
<path d="M8086 36368
L7791 36368
" />
<path d="M8086 35383
L8086 36368
" />
<path d="M7791 35383
L8086 35383
" />
<path d="M7102 35383
L7397 35383
" />
<path d="M7102 36368
L7102 35383
" />
<path d="M7397 36368
L7102 36368
" />
<path d="M8086 35383
L8086 36368
" />
<circle cx="8185.04" cy="36466.5" r="49.2126" /> 
<path d="M12811 36368
L12515 36368
" />
<path d="M12811 35383
L12811 36368
" />
<path d="M12515 35383
L12811 35383
" />
<path d="M11826 35383
L12122 35383
" />
<path d="M11826 36368
L11826 35383
" />
<path d="M12122 36368
L11826 36368
" />
<path d="M12811 35383
L12811 36368
" />
<circle cx="12909.4" cy="36466.5" r="49.2126" /> 
<path d="M17535 36368
L17240 36368
" />
<path d="M17535 35383
L17535 36368
" />
<path d="M17240 35383
L17535 35383
" />
<path d="M16551 35383
L16846 35383
" />
<path d="M16551 36368
L16551 35383
" />
<path d="M16846 36368
L16551 36368
" />
<path d="M17535 35383
L17535 36368
" />
<circle cx="17633.9" cy="36466.5" r="49.2126" /> 
<path d="M22259 36368
L21964 36368
" />
<path d="M22259 35383
L22259 36368
" />
<path d="M21964 35383
L22259 35383
" />
<path d="M21275 35383
L21570 35383
" />
<path d="M21275 36368
L21275 35383
" />
<path d="M21570 36368
L21275 36368
" />
<path d="M22259 35383
L22259 36368
" />
<circle cx="22358.3" cy="36466.5" r="49.2126" /> 
<path d="M26984 36368
L26688 36368
" />
<path d="M26984 35383
L26984 36368
" />
<path d="M26688 35383
L26984 35383
" />
<path d="M26000 35383
L26295 35383
" />
<path d="M26000 36368
L26000 35383
" />
<path d="M26295 36368
L26000 36368
" />
<path d="M26984 35383
L26984 36368
" />
<circle cx="27082.7" cy="36466.5" r="49.2126" /> 
<path d="M26000 31053
L26295 31053
" />
<path d="M26000 32037
L26000 31053
" />
<path d="M26295 32037
L26000 32037
" />
<path d="M26984 32037
L26688 32037
" />
<path d="M26984 31053
L26984 32037
" />
<path d="M26688 31053
L26984 31053
" />
<path d="M26000 32037
L26000 31053
" />
<circle cx="25901.6" cy="30954.7" r="49.2126" /> 
<path d="M21275 31053
L21570 31053
" />
<path d="M21275 32037
L21275 31053
" />
<path d="M21570 32037
L21275 32037
" />
<path d="M22259 32037
L21964 32037
" />
<path d="M22259 31053
L22259 32037
" />
<path d="M21964 31053
L22259 31053
" />
<path d="M21275 32037
L21275 31053
" />
<circle cx="21177.2" cy="30954.7" r="49.2126" /> 
<path d="M16551 31053
L16846 31053
" />
<path d="M16551 32037
L16551 31053
" />
<path d="M16846 32037
L16551 32037
" />
<path d="M17535 32037
L17240 32037
" />
<path d="M17535 31053
L17535 32037
" />
<path d="M17240 31053
L17535 31053
" />
<path d="M16551 32037
L16551 31053
" />
<circle cx="16452.8" cy="30954.7" r="49.2126" /> 
<path d="M7102 31053
L7397 31053
" />
<path d="M7102 32037
L7102 31053
" />
<path d="M7397 32037
L7102 32037
" />
<path d="M8086 32037
L7791 32037
" />
<path d="M8086 31053
L8086 32037
" />
<path d="M7791 31053
L8086 31053
" />
<path d="M7102 32037
L7102 31053
" />
<circle cx="7003.94" cy="30954.7" r="49.2126" /> 
<path d="M8086 27706
L7791 27706
" />
<path d="M8086 26722
L8086 27706
" />
<path d="M7791 26722
L8086 26722
" />
<path d="M7102 26722
L7397 26722
" />
<path d="M7102 27706
L7102 26722
" />
<path d="M7397 27706
L7102 27706
" />
<path d="M8086 26722
L8086 27706
" />
<circle cx="8185.04" cy="27805.1" r="49.2126" /> 
<path d="M12811 27706
L12515 27706
" />
<path d="M12811 26722
L12811 27706
" />
<path d="M12515 26722
L12811 26722
" />
<path d="M11826 26722
L12122 26722
" />
<path d="M11826 27706
L11826 26722
" />
<path d="M12122 27706
L11826 27706
" />
<path d="M12811 26722
L12811 27706
" />
<circle cx="12909.4" cy="27805.1" r="49.2126" /> 
<path d="M17535 27706
L17240 27706
" />
<path d="M17535 26722
L17535 27706
" />
<path d="M17240 26722
L17535 26722
" />
<path d="M16551 26722
L16846 26722
" />
<path d="M16551 27706
L16551 26722
" />
<path d="M16846 27706
L16551 27706
" />
<path d="M17535 26722
L17535 27706
" />
<circle cx="17633.9" cy="27805.1" r="49.2126" /> 
</g>
<g style="fill:#008484; fill-opacity:0.0; 
stroke:#008484; stroke-width:47.2441; stroke-opacity:1; 
stroke-linecap:round; stroke-linejoin:round;">
<path d="M17612 15383
L17612 14911
" />
<path d="M18305 14911
L18305 15383
" />
<path d="M27948 14368
L28421 14368
" />
<path d="M28421 15061
L27948 15061
" />
<path d="M29700 15425
L29228 15425
" />
<path d="M29228 14732
L29700 14732
" />
<path d="M27614 5509
L28086 5509
" />
<path d="M28086 6202
L27614 6202
" />
<path d="M18992 17419
L19464 17419
" />
<path d="M19464 18112
L18992 18112
" />
</g>
<g style="fill:#008484; fill-opacity:0.0; 
stroke:#008484; stroke-width:59.0551; stroke-opacity:1; 
stroke-linecap:round; stroke-linejoin:round;">
<circle cx="7200.79" cy="3297.24" r="2755.91" /> 
<path d="M9248.03 3297.24 A2047.24 2047.24 0.0 0 0 5153.54 3297.24 " />
<path d="M5153 3297
L5153 5856
" />
<path d="M9248 3297
L9169 5856
" />
<circle cx="7200.79" cy="3297.24" r="459.13" /> 
</g>
<g style="fill:#008484; fill-opacity:0.0; 
stroke:#008484; stroke-width:47.2441; stroke-opacity:1; 
stroke-linecap:round; stroke-linejoin:round;">
<path d="M27811 40954
L27811 41033
" />
<path d="M27811 43395
L27811 43316
" />
<path d="M25173 43395
L25173 43316
" />
<path d="M25173 40954
L25173 41033
" />
<path d="M25173 41702
L25173 42647
" />
<path d="M27811 41702
L27811 42647
" />
<path d="M27811 40954
L25173 40954
" />
<path d="M25173 43395
L27811 43395
" />
<path d="M20448 43395
L23086 43395
" />
<path d="M23086 40954
L20448 40954
" />
<path d="M23086 41702
L23086 42647
" />
<path d="M20448 41702
L20448 42647
" />
<path d="M20448 40954
L20448 41033
" />
<path d="M20448 43395
L20448 43316
" />
<path d="M23086 43395
L23086 43316
" />
<path d="M23086 40954
L23086 41033
" />
<path d="M18362 40954
L18362 41033
" />
<path d="M18362 43395
L18362 43316
" />
<path d="M15724 43395
L15724 43316
" />
<path d="M15724 40954
L15724 41033
" />
<path d="M15724 41702
L15724 42647
" />
<path d="M18362 41702
L18362 42647
" />
<path d="M18362 40954
L15724 40954
" />
<path d="M15724 43395
L18362 43395
" />
<path d="M11000 43395
L13637 43395
" />
<path d="M13637 40954
L11000 40954
" />
<path d="M13637 41702
L13637 42647
" />
<path d="M11000 41702
L11000 42647
" />
<path d="M11000 40954
L11000 41033
" />
<path d="M11000 43395
L11000 43316
" />
<path d="M13637 43395
L13637 43316
" />
<path d="M13637 40954
L13637 41033
" />
<path d="M15311 17057
L15311 16033
" />
<path d="M15940 17057
L15940 16033
" />
<path d="M15311 17057
L15940 17057
" />
<path d="M17547 14911
L17547 15383
" />
<path d="M16854 15383
L16854 14911
" />
<path d="M27811 27962
L27811 28041
" />
<path d="M27811 30403
L27811 30324
" />
<path d="M25173 30403
L25173 30324
" />
<path d="M25173 27962
L25173 28041
" />
<path d="M25173 28710
L25173 29655
" />
<path d="M27811 28710
L27811 29655
" />
<path d="M27811 27962
L25173 27962
" />
<path d="M25173 30403
L27811 30403
" />
<path d="M29700 14194
L29228 14194
" />
<path d="M29228 13501
L29700 13501
" />
<path d="M18992 16671
L19464 16671
" />
<path d="M19464 17364
L18992 17364
" />
<path d="M26423 17757
L25950 17757
" />
<path d="M25950 17064
L26423 17064
" />
<path d="M24641 16759
L25114 16759
" />
<path d="M25114 17452
L24641 17452
" />
<path d="M9190 13858
L9190 14330
" />
<path d="M8498 14330
L8498 13858
" />
<path d="M5185 15708
L5185 16181
" />
<path d="M4492 16181
L4492 15708
" />
<path d="M28421 14194
L27948 14194
" />
<path d="M27948 13501
L28421 13501
" />
<path d="M10155 13858
L10155 14330
" />
<path d="M9462 14330
L9462 13858
" />
<path d="M11120 13858
L11120 14330
" />
<path d="M10427 14330
L10427 13858
" />
<path d="M1708 9860
L2181 9860
" />
<path d="M2181 10553
L1708 10553
" />
<path d="M11275 17057
L11905 17057
" />
<path d="M11905 17057
L11905 16033
" />
<path d="M11275 17057
L11275 16033
" />
<path d="M8913 40954
L8913 41033
" />
<path d="M8913 43395
L8913 43316
" />
<path d="M6275 43395
L6275 43316
" />
<path d="M6275 40954
L6275 41033
" />
<path d="M6275 41702
L6275 42647
" />
<path d="M8913 41702
L8913 42647
" />
<path d="M8913 40954
L6275 40954
" />
<path d="M6275 43395
L8913 43395
" />
<path d="M27811 36624
L27811 36702
" />
<path d="M27811 39064
L27811 38986
" />
<path d="M25173 39064
L25173 38986
" />
<path d="M25173 36624
L25173 36702
" />
<path d="M25173 37372
L25173 38316
" />
<path d="M27811 37372
L27811 38316
" />
<path d="M27811 36624
L25173 36624
" />
<path d="M25173 39064
L27811 39064
" />
<path d="M23086 36624
L23086 36702
" />
<path d="M23086 39064
L23086 38986
" />
<path d="M20448 39064
L20448 38986
" />
<path d="M20448 36624
L20448 36702
" />
<path d="M20448 37372
L20448 38316
" />
<path d="M23086 37372
L23086 38316
" />
<path d="M23086 36624
L20448 36624
" />
<path d="M20448 39064
L23086 39064
" />
<path d="M18362 36624
L18362 36702
" />
<path d="M18362 39064
L18362 38986
" />
<path d="M15724 39064
L15724 38986
" />
<path d="M15724 36624
L15724 36702
" />
<path d="M15724 37372
L15724 38316
" />
<path d="M18362 37372
L18362 38316
" />
<path d="M18362 36624
L15724 36624
" />
<path d="M15724 39064
L18362 39064
" />
<path d="M13637 36624
L13637 36702
" />
<path d="M13637 39064
L13637 38986
" />
<path d="M11000 39064
L11000 38986
" />
<path d="M11000 36624
L11000 36702
" />
<path d="M11000 37372
L11000 38316
" />
<path d="M13637 37372
L13637 38316
" />
<path d="M13637 36624
L11000 36624
" />
<path d="M11000 39064
L13637 39064
" />
<path d="M8913 36624
L8913 36702
" />
<path d="M8913 39064
L8913 38986
" />
<path d="M6275 39064
L6275 38986
" />
<path d="M6275 36624
L6275 36702
" />
<path d="M6275 37372
L6275 38316
" />
<path d="M8913 37372
L8913 38316
" />
<path d="M8913 36624
L6275 36624
" />
<path d="M6275 39064
L8913 39064
" />
<path d="M27811 32293
L27811 32372
" />
<path d="M27811 34734
L27811 34655
" />
<path d="M25173 34734
L25173 34655
" />
<path d="M25173 32293
L25173 32372
" />
<path d="M25173 33041
L25173 33986
" />
<path d="M27811 33041
L27811 33986
" />
<path d="M27811 32293
L25173 32293
" />
<path d="M25173 34734
L27811 34734
" />
<path d="M23086 32293
L23086 32372
" />
<path d="M23086 34734
L23086 34655
" />
<path d="M20448 34734
L20448 34655
" />
<path d="M20448 32293
L20448 32372
" />
<path d="M20448 33041
L20448 33986
" />
<path d="M23086 33041
L23086 33986
" />
<path d="M23086 32293
L20448 32293
" />
<path d="M20448 34734
L23086 34734
" />
<path d="M18362 32293
L18362 32372
" />
<path d="M18362 34734
L18362 34655
" />
<path d="M15724 34734
L15724 34655
" />
<path d="M15724 32293
L15724 32372
" />
<path d="M15724 33041
L15724 33986
" />
<path d="M18362 33041
L18362 33986
" />
<path d="M18362 32293
L15724 32293
" />
<path d="M15724 34734
L18362 34734
" />
<path d="M13637 32293
L13637 32372
" />
<path d="M13637 34734
L13637 34655
" />
<path d="M11000 34734
L11000 34655
" />
<path d="M11000 32293
L11000 32372
" />
<path d="M11000 33041
L11000 33986
" />
<path d="M13637 33041
L13637 33986
" />
<path d="M13637 32293
L11000 32293
" />
<path d="M11000 34734
L13637 34734
" />
<path d="M8913 32293
L8913 32372
" />
<path d="M8913 34734
L8913 34655
" />
<path d="M6275 34734
L6275 34655
" />
<path d="M6275 32293
L6275 32372
" />
<path d="M6275 33041
L6275 33986
" />
<path d="M8913 33041
L8913 33986
" />
<path d="M8913 32293
L6275 32293
" />
<path d="M6275 34734
L8913 34734
" />
<path d="M23086 27962
L23086 28041
" />
<path d="M23086 30403
L23086 30324
" />
<path d="M20448 30403
L20448 30324
" />
<path d="M20448 27962
L20448 28041
" />
<path d="M20448 28710
L20448 29655
" />
<path d="M23086 28710
L23086 29655
" />
<path d="M23086 27962
L20448 27962
" />
<path d="M20448 30403
L23086 30403
" />
<path d="M18362 27962
L18362 28041
" />
<path d="M18362 30403
L18362 30324
" />
<path d="M15724 30403
L15724 30324
" />
<path d="M15724 27962
L15724 28041
" />
<path d="M15724 28710
L15724 29655
" />
<path d="M18362 28710
L18362 29655
" />
<path d="M18362 27962
L15724 27962
" />
<path d="M15724 30403
L18362 30403
" />
<path d="M13637 27962
L13637 28041
" />
<path d="M13637 30403
L13637 30324
" />
<path d="M11000 30403
L11000 30324
" />
<path d="M11000 27962
L11000 28041
" />
<path d="M11000 28710
L11000 29655
" />
<path d="M13637 28710
L13637 29655
" />
<path d="M13637 27962
L11000 27962
" />
<path d="M11000 30403
L13637 30403
" />
<path d="M8913 27962
L8913 28041
" />
<path d="M8913 30403
L8913 30324
" />
<path d="M6275 30403
L6275 30324
" />
<path d="M6275 27962
L6275 28041
" />
<path d="M6275 28710
L6275 29655
" />
<path d="M8913 28710
L8913 29655
" />
<path d="M8913 27962
L6275 27962
" />
<path d="M6275 30403
L8913 30403
" />
<path d="M14326 17057
L14956 17057
" />
<path d="M14956 17057
L14956 16033
" />
<path d="M14326 17057
L14326 16033
" />
<path d="M13342 17057
L13972 17057
" />
<path d="M13972 17057
L13972 16033
" />
<path d="M13342 17057
L13342 16033
" />
<path d="M12259 17057
L12889 17057
" />
<path d="M12889 17057
L12889 16033
" />
<path d="M12259 17057
L12259 16033
" />
</g>
<g style="fill:#008484; fill-opacity:0.0; 
stroke:#008484; stroke-width:59.0551; stroke-opacity:1; 
stroke-linecap:round; stroke-linejoin:round;">
<path d="M24861 3822
L25142 3822
L25198 3840
L25236 3878
L25254 3934
L25254 3972
" />
<path d="M24992 3465
L25254 3465
" />
<path d="M24842 3559
L25123 3653
L25123 3409
" />
<path d="M2231 4073
L2231 4392
L2250 4429
L2269 4448
L2306 4467
L2381 4467
L2419 4448
L2437 4429
L2456 4392
L2456 4073
" />
<path d="M2606 4073
L2850 4073
L2718 4223
L2775 4223
L2812 4242
L2831 4261
L2850 4298
L2850 4392
L2831 4429
L2812 4448
L2775 4467
L2662 4467
L2625 4448
L2606 4429
" />
<path d="M21093 9548
L21093 9866
L21112 9904
L21131 9923
L21168 9941
L21243 9941
L21281 9923
L21299 9904
L21318 9866
L21318 9548
" />
<path d="M21712 9941
L21487 9941
" />
<path d="M21599 9941
L21599 9548
L21562 9604
L21524 9641
L21487 9660
" />
<path d="M23977 15414
L24202 15414
" />
<path d="M24090 15808
L24090 15414
" />
<path d="M24333 15808
L24333 15414
L24483 15414
L24521 15433
L24540 15451
L24558 15489
L24558 15545
L24540 15583
L24521 15601
L24483 15620
L24333 15620
" />
<path d="M24933 15808
L24708 15808
" />
<path d="M24821 15808
L24821 15414
L24783 15470
L24746 15508
L24708 15526
" />
<path d="M28593 14882
L28818 14882
" />
<path d="M28706 15276
L28706 14882
" />
<path d="M28949 15276
L28949 14882
L29099 14882
L29137 14901
L29156 14920
L29174 14957
L29174 15014
L29156 15051
L29137 15070
L29099 15089
L28949 15089
" />
<path d="M29324 14920
L29343 14901
L29381 14882
L29474 14882
L29512 14901
L29531 14920
L29549 14957
L29549 14995
L29531 15051
L29306 15276
L29549 15276
" />
<path d="M28118 18186
L28137 18204
L28156 18261
L28156 18298
L28137 18354
L28100 18392
L28062 18411
L27987 18429
L27931 18429
L27856 18411
L27818 18392
L27781 18354
L27762 18298
L27762 18261
L27781 18204
L27800 18186
" />
<path d="M27762 18054
L27762 17811
L27912 17942
L27912 17886
L27931 17848
L27950 17829
L27987 17811
L28081 17811
L28118 17829
L28137 17848
L28156 17886
L28156 17998
L28137 18036
L28118 18054
" />
<path d="M27762 17455
L27762 17642
L27950 17661
L27931 17642
L27912 17604
L27912 17511
L27931 17473
L27950 17455
L27987 17436
L28081 17436
L28118 17455
L28137 17473
L28156 17511
L28156 17604
L28137 17642
L28118 17661
" />
<path d="M26376 14609
L26358 14627
L26301 14646
L26264 14646
L26208 14627
L26170 14590
L26151 14552
L26133 14477
L26133 14421
L26151 14346
L26170 14309
L26208 14271
L26264 14252
L26301 14252
L26358 14271
L26376 14290
" />
<path d="M26508 14252
L26751 14252
L26620 14402
L26676 14402
L26714 14421
L26733 14440
L26751 14477
L26751 14571
L26733 14609
L26714 14627
L26676 14646
L26564 14646
L26526 14627
L26508 14609
" />
<path d="M27089 14252
L27014 14252
L26976 14271
L26958 14290
L26920 14346
L26901 14421
L26901 14571
L26920 14609
L26939 14627
L26976 14646
L27051 14646
L27089 14627
L27107 14609
L27126 14571
L27126 14477
L27107 14440
L27089 14421
L27051 14402
L26976 14402
L26939 14421
L26920 14440
L26901 14477
" />
<path d="M21868 16774
L21850 16793
L21793 16811
L21756 16811
L21700 16793
L21662 16755
L21643 16718
L21625 16643
L21625 16586
L21643 16511
L21662 16474
L21700 16437
L21756 16418
L21793 16418
L21850 16437
L21868 16455
" />
<path d="M22018 16455
L22037 16437
L22075 16418
L22168 16418
L22206 16437
L22225 16455
L22243 16493
L22243 16530
L22225 16586
L22000 16811
L22243 16811
" />
<path d="M22393 16455
L22412 16437
L22450 16418
L22543 16418
L22581 16437
L22600 16455
L22618 16493
L22618 16530
L22600 16586
L22375 16811
L22618 16811
" />
<path d="M24825 13408
L24694 13220
" />
<path d="M24600 13408
L24600 13014
L24750 13014
L24788 13033
L24806 13052
L24825 13089
L24825 13145
L24806 13183
L24788 13202
L24750 13220
L24600 13220
" />
<path d="M24956 13014
L25200 13014
L25069 13164
L25125 13164
L25163 13183
L25181 13202
L25200 13239
L25200 13333
L25181 13370
L25163 13389
L25125 13408
L25013 13408
L24975 13389
L24956 13370
" />
<path d="M25444 13014
L25481 13014
L25519 13033
L25538 13052
L25556 13089
L25575 13164
L25575 13258
L25556 13333
L25538 13370
L25519 13389
L25481 13408
L25444 13408
L25406 13389
L25388 13370
L25369 13333
L25350 13258
L25350 13164
L25369 13089
L25388 13052
L25406 13033
L25444 13014
" />
<path d="M5282 17772
L5094 17904
" />
<path d="M5282 17997
L4888 17997
L4888 17847
L4907 17810
L4926 17791
L4963 17772
L5019 17772
L5057 17791
L5076 17810
L5094 17847
L5094 17997
" />
<path d="M4926 17622
L4907 17604
L4888 17566
L4888 17472
L4907 17435
L4926 17416
L4963 17397
L5001 17397
L5057 17416
L5282 17641
L5282 17397
" />
<path d="M4888 17060
L4888 17135
L4907 17172
L4926 17191
L4982 17229
L5057 17247
L5207 17247
L5244 17229
L5263 17210
L5282 17172
L5282 17097
L5263 17060
L5244 17041
L5207 17022
L5113 17022
L5076 17041
L5057 17060
L5038 17097
L5038 17172
L5057 17210
L5076 17229
L5113 17247
" />
<path d="M8993 17743
L8805 17874
" />
<path d="M8993 17968
L8599 17968
L8599 17818
L8618 17780
L8636 17761
L8674 17743
L8730 17743
L8768 17761
L8786 17780
L8805 17818
L8805 17968
" />
<path d="M8636 17593
L8618 17574
L8599 17537
L8599 17443
L8618 17405
L8636 17387
L8674 17368
L8711 17368
L8768 17387
L8993 17612
L8993 17368
" />
<path d="M8599 17237
L8599 16974
L8993 17143
" />
<path d="M7910 16237
L7722 16368
" />
<path d="M7910 16462
L7516 16462
L7516 16312
L7535 16274
L7554 16256
L7591 16237
L7647 16237
L7685 16256
L7704 16274
L7722 16312
L7722 16462
" />
<path d="M7554 16087
L7535 16068
L7516 16031
L7516 15937
L7535 15899
L7554 15881
L7591 15862
L7629 15862
L7685 15881
L7910 16106
L7910 15862
" />
<path d="M7685 15637
L7666 15674
L7647 15693
L7610 15712
L7591 15712
L7554 15693
L7535 15674
L7516 15637
L7516 15562
L7535 15524
L7554 15506
L7591 15487
L7610 15487
L7647 15506
L7666 15524
L7685 15562
L7685 15637
L7704 15674
L7722 15693
L7760 15712
L7835 15712
L7872 15693
L7891 15674
L7910 15637
L7910 15562
L7891 15524
L7872 15506
L7835 15487
L7760 15487
L7722 15506
L7704 15524
L7685 15562
" />
<path d="M10498 16217
L10311 16348
" />
<path d="M10498 16442
L10105 16442
L10105 16292
L10124 16255
L10142 16236
L10180 16217
L10236 16217
L10273 16236
L10292 16255
L10311 16292
L10311 16442
" />
<path d="M10142 16067
L10124 16048
L10105 16011
L10105 15917
L10124 15880
L10142 15861
L10180 15842
L10217 15842
L10273 15861
L10498 16086
L10498 15842
" />
<path d="M10498 15655
L10498 15580
L10480 15542
L10461 15523
L10405 15486
L10330 15467
L10180 15467
L10142 15486
L10124 15505
L10105 15542
L10105 15617
L10124 15655
L10142 15673
L10180 15692
L10273 15692
L10311 15673
L10330 15655
L10348 15617
L10348 15542
L10330 15505
L10311 15486
L10273 15467
" />
<path d="M6887 16406
L6850 16387
L6812 16350
L6756 16294
L6718 16275
L6681 16275
" />
<path d="M6700 16369
L6662 16350
L6625 16312
L6606 16237
L6606 16106
L6625 16031
L6662 15994
L6700 15975
L6775 15975
L6812 15994
L6850 16031
L6868 16106
L6868 16237
L6850 16312
L6812 16350
L6775 16369
L6700 16369
" />
<path d="M7243 16369
L7018 16369
" />
<path d="M7131 16369
L7131 15975
L7093 16031
L7056 16069
L7018 16087
" />
<path d="M8423 14890
L8385 14872
L8348 14834
L8291 14778
L8254 14759
L8216 14759
" />
<path d="M8235 14853
L8198 14834
L8160 14797
L8141 14722
L8141 14590
L8160 14515
L8198 14478
L8235 14459
L8310 14459
L8348 14478
L8385 14515
L8404 14590
L8404 14722
L8385 14797
L8348 14834
L8310 14853
L8235 14853
" />
<path d="M8554 14497
L8573 14478
L8610 14459
L8704 14459
L8741 14478
L8760 14497
L8779 14534
L8779 14572
L8760 14628
L8535 14853
L8779 14853
" />
<path d="M23099 31922
L23080 31940
L23024 31959
L22987 31959
L22931 31940
L22893 31903
L22874 31865
L22856 31790
L22856 31734
L22874 31659
L22893 31622
L22931 31584
L22987 31565
L23024 31565
L23080 31584
L23099 31603
" />
<path d="M23287 31959
L23362 31959
L23399 31940
L23418 31922
L23455 31865
L23474 31790
L23474 31640
L23455 31603
L23437 31584
L23399 31565
L23324 31565
L23287 31584
L23268 31603
L23249 31640
L23249 31734
L23268 31772
L23287 31790
L23324 31809
L23399 31809
L23437 31790
L23455 31772
L23474 31734
" />
<path d="M18375 31922
L18356 31940
L18300 31959
L18262 31959
L18206 31940
L18169 31903
L18150 31865
L18131 31790
L18131 31734
L18150 31659
L18169 31622
L18206 31584
L18262 31565
L18300 31565
L18356 31584
L18375 31603
" />
<path d="M18600 31734
L18562 31715
L18544 31697
L18525 31659
L18525 31640
L18544 31603
L18562 31584
L18600 31565
L18675 31565
L18712 31584
L18731 31603
L18750 31640
L18750 31659
L18731 31697
L18712 31715
L18675 31734
L18600 31734
L18562 31753
L18544 31772
L18525 31809
L18525 31884
L18544 31922
L18562 31940
L18600 31959
L18675 31959
L18712 31940
L18731 31922
L18750 31884
L18750 31809
L18731 31772
L18712 31753
L18675 31734
" />
<path d="M13650 31922
L13632 31940
L13575 31959
L13538 31959
L13482 31940
L13444 31903
L13425 31865
L13407 31790
L13407 31734
L13425 31659
L13444 31622
L13482 31584
L13538 31565
L13575 31565
L13632 31584
L13650 31603
" />
<path d="M13782 31565
L14044 31565
L13875 31959
" />
<path d="M8906 31922
L8888 31940
L8831 31959
L8794 31959
L8738 31940
L8700 31903
L8681 31865
L8663 31790
L8663 31734
L8681 31659
L8700 31622
L8738 31584
L8794 31565
L8831 31565
L8888 31584
L8906 31603
" />
<path d="M9244 31565
L9169 31565
L9131 31584
L9113 31603
L9075 31659
L9056 31734
L9056 31884
L9075 31922
L9094 31940
L9131 31959
L9206 31959
L9244 31940
L9263 31922
L9281 31884
L9281 31790
L9263 31753
L9244 31734
L9206 31715
L9131 31715
L9094 31734
L9075 31753
L9056 31790
" />
<path d="M25048 27118
L25029 27137
L24973 27156
L24936 27156
L24879 27137
L24842 27100
L24823 27062
L24804 26987
L24804 26931
L24823 26856
L24842 26818
L24879 26781
L24936 26762
L24973 26762
L25029 26781
L25048 26800
" />
<path d="M25404 26762
L25217 26762
L25198 26950
L25217 26931
L25254 26912
L25348 26912
L25386 26931
L25404 26950
L25423 26987
L25423 27081
L25404 27118
L25386 27137
L25348 27156
L25254 27156
L25217 27137
L25198 27118
" />
<path d="M20324 27118
L20305 27137
L20249 27156
L20211 27156
L20155 27137
L20117 27100
L20099 27062
L20080 26987
L20080 26931
L20099 26856
L20117 26818
L20155 26781
L20211 26762
L20249 26762
L20305 26781
L20324 26800
" />
<path d="M20661 26893
L20661 27156
" />
<path d="M20567 26744
L20474 27025
L20717 27025
" />
<path d="M15599 27118
L15580 27137
L15524 27156
L15487 27156
L15431 27137
L15393 27100
L15374 27062
L15356 26987
L15356 26931
L15374 26856
L15393 26818
L15431 26781
L15487 26762
L15524 26762
L15580 26781
L15599 26800
" />
<path d="M15730 26762
L15974 26762
L15843 26912
L15899 26912
L15937 26931
L15955 26950
L15974 26987
L15974 27081
L15955 27118
L15937 27137
L15899 27156
L15787 27156
L15749 27137
L15730 27118
" />
<path d="M10875 27118
L10856 27137
L10800 27156
L10762 27156
L10706 27137
L10669 27100
L10650 27062
L10631 26987
L10631 26931
L10650 26856
L10669 26818
L10706 26781
L10762 26762
L10800 26762
L10856 26781
L10875 26800
" />
<path d="M11025 26800
L11044 26781
L11081 26762
L11175 26762
L11212 26781
L11231 26800
L11250 26837
L11250 26875
L11231 26931
L11006 27156
L11250 27156
" />
<path d="M6150 27118
L6132 27137
L6075 27156
L6038 27156
L5982 27137
L5944 27100
L5925 27062
L5907 26987
L5907 26931
L5925 26856
L5944 26818
L5982 26781
L6038 26762
L6075 26762
L6132 26781
L6150 26800
" />
<path d="M6525 27156
L6300 27156
" />
<path d="M6413 27156
L6413 26762
L6375 26818
L6338 26856
L6300 26875
" />
<path d="M27636 31922
L27617 31940
L27561 31959
L27524 31959
L27467 31940
L27430 31903
L27411 31865
L27392 31790
L27392 31734
L27411 31659
L27430 31622
L27467 31584
L27524 31565
L27561 31565
L27617 31584
L27636 31603
" />
<path d="M28011 31959
L27786 31959
" />
<path d="M27899 31959
L27899 31565
L27861 31622
L27824 31659
L27786 31678
" />
<path d="M28255 31565
L28292 31565
L28330 31584
L28349 31603
L28367 31640
L28386 31715
L28386 31809
L28367 31884
L28349 31922
L28330 31940
L28292 31959
L28255 31959
L28217 31940
L28199 31922
L28180 31884
L28161 31809
L28161 31715
L28180 31640
L28199 31603
L28217 31584
L28255 31565
" />
<path d="M5943 35780
L5925 35799
L5868 35817
L5831 35817
L5775 35799
L5737 35761
L5718 35724
L5700 35649
L5700 35592
L5718 35517
L5737 35480
L5775 35442
L5831 35424
L5868 35424
L5925 35442
L5943 35461
" />
<path d="M6318 35817
L6093 35817
" />
<path d="M6206 35817
L6206 35424
L6168 35480
L6131 35517
L6093 35536
" />
<path d="M6693 35817
L6468 35817
" />
<path d="M6581 35817
L6581 35424
L6543 35480
L6506 35517
L6468 35536
" />
<path d="M10668 35780
L10649 35799
L10593 35817
L10555 35817
L10499 35799
L10461 35761
L10443 35724
L10424 35649
L10424 35592
L10443 35517
L10461 35480
L10499 35442
L10555 35424
L10593 35424
L10649 35442
L10668 35461
" />
<path d="M11043 35817
L10818 35817
" />
<path d="M10930 35817
L10930 35424
L10893 35480
L10855 35517
L10818 35536
" />
<path d="M11193 35461
L11211 35442
L11249 35424
L11343 35424
L11380 35442
L11399 35461
L11418 35499
L11418 35536
L11399 35592
L11174 35817
L11418 35817
" />
<path d="M15392 35780
L15373 35799
L15317 35817
L15280 35817
L15223 35799
L15186 35761
L15167 35724
L15148 35649
L15148 35592
L15167 35517
L15186 35480
L15223 35442
L15280 35424
L15317 35424
L15373 35442
L15392 35461
" />
<path d="M15767 35817
L15542 35817
" />
<path d="M15655 35817
L15655 35424
L15617 35480
L15580 35517
L15542 35536
" />
<path d="M15898 35424
L16142 35424
L16011 35574
L16067 35574
L16104 35592
L16123 35611
L16142 35649
L16142 35742
L16123 35780
L16104 35799
L16067 35817
L15955 35817
L15917 35799
L15898 35780
" />
<path d="M20116 35780
L20098 35799
L20041 35817
L20004 35817
L19948 35799
L19910 35761
L19892 35724
L19873 35649
L19873 35592
L19892 35517
L19910 35480
L19948 35442
L20004 35424
L20041 35424
L20098 35442
L20116 35461
" />
<path d="M20491 35817
L20266 35817
" />
<path d="M20379 35817
L20379 35424
L20341 35480
L20304 35517
L20266 35536
" />
<path d="M20829 35555
L20829 35817
" />
<path d="M20735 35405
L20641 35686
L20885 35686
" />
<path d="M20687 18599
L20706 18618
L20725 18674
L20725 18712
L20706 18768
L20669 18805
L20631 18824
L20556 18843
L20500 18843
L20425 18824
L20387 18805
L20350 18768
L20331 18712
L20331 18674
L20350 18618
L20369 18599
" />
<path d="M20369 18449
L20350 18430
L20331 18393
L20331 18299
L20350 18262
L20369 18243
L20406 18224
L20444 18224
L20500 18243
L20725 18468
L20725 18224
" />
<path d="M20725 17849
L20725 18074
" />
<path d="M20725 17962
L20331 17962
L20387 17999
L20425 18037
L20444 18074
" />
<path d="M24447 17821
L24466 17840
L24485 17896
L24485 17934
L24466 17990
L24428 18028
L24391 18046
L24316 18065
L24260 18065
L24185 18046
L24147 18028
L24110 17990
L24091 17934
L24091 17896
L24110 17840
L24128 17821
" />
<path d="M24128 17672
L24110 17653
L24091 17615
L24091 17522
L24110 17484
L24128 17465
L24166 17447
L24203 17447
L24260 17465
L24485 17690
L24485 17447
" />
<path d="M24091 17315
L24091 17072
L24241 17203
L24241 17147
L24260 17109
L24278 17090
L24316 17072
L24410 17072
L24447 17090
L24466 17109
L24485 17147
L24485 17259
L24466 17297
L24447 17315
" />
<path d="M16061 13979
L16043 13997
L15986 14016
L15949 14016
L15893 13997
L15855 13960
L15836 13922
L15818 13847
L15818 13791
L15836 13716
L15855 13679
L15893 13641
L15949 13622
L15986 13622
L16043 13641
L16061 13660
" />
<path d="M16211 13660
L16230 13641
L16268 13622
L16361 13622
L16399 13641
L16418 13660
L16436 13697
L16436 13735
L16418 13791
L16193 14016
L16436 14016
" />
<path d="M16774 13754
L16774 14016
" />
<path d="M16680 13604
L16586 13885
L16830 13885
" />
<path d="M24646 4091
L24627 4110
L24571 4128
L24534 4128
L24477 4110
L24440 4072
L24421 4035
L24402 3960
L24402 3903
L24421 3828
L24440 3791
L24477 3753
L24534 3735
L24571 3735
L24627 3753
L24646 3772
" />
<path d="M24796 3772
L24815 3753
L24852 3735
L24946 3735
L24983 3753
L25002 3772
L25021 3810
L25021 3847
L25002 3903
L24777 4128
L25021 4128
" />
<path d="M25377 3735
L25190 3735
L25171 3922
L25190 3903
L25227 3885
L25321 3885
L25358 3903
L25377 3922
L25396 3960
L25396 4053
L25377 4091
L25358 4110
L25321 4128
L25227 4128
L25190 4110
L25171 4091
" />
<path d="M16859 4618
L16840 4637
L16784 4656
L16746 4656
L16690 4637
L16652 4600
L16634 4562
L16615 4487
L16615 4431
L16634 4356
L16652 4318
L16690 4281
L16746 4262
L16784 4262
L16840 4281
L16859 4300
" />
<path d="M17009 4300
L17027 4281
L17065 4262
L17159 4262
L17196 4281
L17215 4300
L17234 4337
L17234 4375
L17215 4431
L16990 4656
L17234 4656
" />
<path d="M17571 4262
L17496 4262
L17459 4281
L17440 4300
L17402 4356
L17384 4431
L17384 4581
L17402 4618
L17421 4637
L17459 4656
L17534 4656
L17571 4637
L17590 4618
L17609 4581
L17609 4487
L17590 4450
L17571 4431
L17534 4412
L17459 4412
L17421 4431
L17402 4450
L17384 4487
" />
<path d="M17971 4618
L17952 4637
L17896 4656
L17858 4656
L17802 4637
L17765 4600
L17746 4562
L17727 4487
L17727 4431
L17746 4356
L17765 4318
L17802 4281
L17858 4262
L17896 4262
L17952 4281
L17971 4300
" />
<path d="M18121 4300
L18140 4281
L18177 4262
L18271 4262
L18308 4281
L18327 4300
L18346 4337
L18346 4375
L18327 4431
L18102 4656
L18346 4656
" />
<path d="M18477 4262
L18739 4262
L18571 4656
" />
<path d="M20116 5676
L20135 5695
L20154 5751
L20154 5788
L20135 5845
L20098 5882
L20060 5901
L19985 5920
L19929 5920
L19854 5901
L19817 5882
L19779 5845
L19760 5788
L19760 5751
L19779 5695
L19798 5676
" />
<path d="M19798 5526
L19779 5507
L19760 5470
L19760 5376
L19779 5338
L19798 5320
L19835 5301
L19873 5301
L19929 5320
L20154 5545
L20154 5301
" />
<path d="M19929 5076
L19910 5113
L19892 5132
L19854 5151
L19835 5151
L19798 5132
L19779 5113
L19760 5076
L19760 5001
L19779 4963
L19798 4945
L19835 4926
L19854 4926
L19892 4945
L19910 4963
L19929 5001
L19929 5076
L19948 5113
L19967 5132
L20004 5151
L20079 5151
L20116 5132
L20135 5113
L20154 5076
L20154 5001
L20135 4963
L20116 4945
L20079 4926
L20004 4926
L19967 4945
L19948 4963
L19929 5001
" />
<path d="M16918 4146
L16899 4165
L16843 4184
L16805 4184
L16749 4165
L16711 4127
L16693 4090
L16674 4015
L16674 3959
L16693 3884
L16711 3846
L16749 3809
L16805 3790
L16843 3790
L16899 3809
L16918 3827
" />
<path d="M17068 3827
L17086 3809
L17124 3790
L17218 3790
L17255 3809
L17274 3827
L17293 3865
L17293 3902
L17274 3959
L17049 4184
L17293 4184
" />
<path d="M17480 4184
L17555 4184
L17593 4165
L17611 4146
L17649 4090
L17668 4015
L17668 3865
L17649 3827
L17630 3809
L17593 3790
L17518 3790
L17480 3809
L17461 3827
L17443 3865
L17443 3959
L17461 3996
L17480 4015
L17518 4034
L17593 4034
L17630 4015
L17649 3996
L17668 3959
" />
<path d="M16928 2089
L16909 2108
L16853 2126
L16815 2126
L16759 2108
L16721 2070
L16703 2033
L16684 1958
L16684 1901
L16703 1826
L16721 1789
L16759 1751
L16815 1733
L16853 1733
L16909 1751
L16928 1770
" />
<path d="M17059 1733
L17302 1733
L17171 1883
L17227 1883
L17265 1901
L17284 1920
L17302 1958
L17302 2051
L17284 2089
L17265 2108
L17227 2126
L17115 2126
L17077 2108
L17059 2089
" />
<path d="M17546 1733
L17584 1733
L17621 1751
L17640 1770
L17659 1808
L17677 1883
L17677 1976
L17659 2051
L17640 2089
L17621 2108
L17584 2126
L17546 2126
L17509 2108
L17490 2089
L17471 2051
L17452 1976
L17452 1883
L17471 1808
L17490 1770
L17509 1751
L17546 1733
" />
<path d="M21357 3802
L21338 3820
L21282 3839
L21244 3839
L21188 3820
L21150 3783
L21132 3745
L21113 3670
L21113 3614
L21132 3539
L21150 3502
L21188 3464
L21244 3445
L21282 3445
L21338 3464
L21357 3483
" />
<path d="M21488 3445
L21732 3445
L21600 3595
L21657 3595
L21694 3614
L21713 3633
L21732 3670
L21732 3764
L21713 3802
L21694 3820
L21657 3839
L21544 3839
L21507 3820
L21488 3802
" />
<path d="M22107 3839
L21882 3839
" />
<path d="M21994 3839
L21994 3445
L21957 3502
L21919 3539
L21882 3558
" />
<path d="M6898 8201
L6879 8220
L6823 8239
L6785 8239
L6729 8220
L6692 8182
L6673 8145
L6654 8070
L6654 8014
L6673 7939
L6692 7901
L6729 7864
L6785 7845
L6823 7845
L6879 7864
L6898 7882
" />
<path d="M7029 7845
L7273 7845
L7142 7995
L7198 7995
L7235 8014
L7254 8032
L7273 8070
L7273 8164
L7254 8201
L7235 8220
L7198 8239
L7085 8239
L7048 8220
L7029 8201
" />
<path d="M7423 7882
L7442 7864
L7479 7845
L7573 7845
L7610 7864
L7629 7882
L7648 7920
L7648 7957
L7629 8014
L7404 8239
L7648 8239
" />
<path d="M27691 4522
L27673 4541
L27616 4559
L27579 4559
L27523 4541
L27485 4503
L27466 4466
L27448 4391
L27448 4335
L27466 4260
L27485 4222
L27523 4185
L27579 4166
L27616 4166
L27673 4185
L27691 4203
" />
<path d="M27823 4166
L28066 4166
L27935 4316
L27991 4316
L28029 4335
L28047 4353
L28066 4391
L28066 4485
L28047 4522
L28029 4541
L27991 4559
L27879 4559
L27841 4541
L27823 4522
" />
<path d="M28197 4166
L28441 4166
L28310 4316
L28366 4316
L28404 4335
L28422 4353
L28441 4391
L28441 4485
L28422 4522
L28404 4541
L28366 4559
L28254 4559
L28216 4541
L28197 4522
" />
<path d="M30618 5996
L30600 6015
L30543 6034
L30506 6034
L30450 6015
L30412 5978
L30393 5940
L30375 5865
L30375 5809
L30393 5734
L30412 5696
L30450 5659
L30506 5640
L30543 5640
L30600 5659
L30618 5678
" />
<path d="M30750 5640
L30993 5640
L30862 5790
L30918 5790
L30956 5809
L30975 5828
L30993 5865
L30993 5959
L30975 5996
L30956 6015
L30918 6034
L30806 6034
L30768 6015
L30750 5996
" />
<path d="M31331 5771
L31331 6034
" />
<path d="M31237 5621
L31143 5903
L31387 5903
" />
<path d="M33270 16349
L33270 16630
L33251 16686
L33214 16724
L33157 16743
L33120 16743
" />
<path d="M33664 16743
L33439 16743
" />
<path d="M33551 16743
L33551 16349
L33514 16405
L33476 16443
L33439 16461
" />
<path d="M19381 13652
L19381 13971
L19399 14008
L19418 14027
L19456 14046
L19531 14046
L19568 14027
L19587 14008
L19606 13971
L19606 13652
" />
<path d="M19981 13652
L19793 13652
L19774 13839
L19793 13821
L19831 13802
L19924 13802
L19962 13821
L19981 13839
L19999 13877
L19999 13971
L19981 14008
L19962 14027
L19924 14046
L19831 14046
L19793 14027
L19774 14008
" />
<path d="M25631 14046
L25631 14364
L25649 14402
L25668 14421
L25706 14439
L25781 14439
L25818 14421
L25837 14402
L25856 14364
L25856 14046
" />
<path d="M26212 14177
L26212 14439
" />
<path d="M26118 14027
L26024 14308
L26268 14308
" />
<path d="M19509 1821
L19509 2140
L19527 2178
L19546 2196
L19584 2215
L19659 2215
L19696 2196
L19715 2178
L19734 2140
L19734 1821
" />
<path d="M19884 1821
L20146 1821
L19977 2215
" />
<path d="M16207 5508
L16207 5696
L15813 5696
" />
<path d="M15851 5396
L15832 5377
L15813 5339
L15813 5246
L15832 5208
L15851 5189
L15888 5171
L15926 5171
L15982 5189
L16207 5414
L16207 5171
" />
<path d="M22233 14026
L22046 14026
L22046 13632
" />
<path d="M22571 14026
L22346 14026
" />
<path d="M22458 14026
L22458 13632
L22421 13689
L22383 13726
L22346 13745
" />
<path d="M30601 16743
L30601 16349
L30694 16349
L30751 16368
L30788 16405
L30807 16443
L30826 16518
L30826 16574
L30807 16649
L30788 16686
L30751 16724
L30694 16743
L30601 16743
" />
<path d="M30957 16349
L31219 16349
L31051 16743
" />
<path d="M11921 3741
L11921 4022
L11903 4078
L11865 4116
L11809 4134
L11771 4134
" />
<path d="M12090 3778
L12109 3759
L12146 3741
L12240 3741
L12278 3759
L12296 3778
L12315 3816
L12315 3853
L12296 3909
L12071 4134
L12315 4134
" />
<path d="M6113 11231
L6113 11549
L6132 11587
L6150 11606
L6188 11624
L6263 11624
L6300 11606
L6319 11587
L6338 11549
L6338 11231
" />
<path d="M6507 11268
L6525 11250
L6563 11231
L6657 11231
L6694 11250
L6713 11268
L6732 11306
L6732 11343
L6713 11399
L6488 11624
L6732 11624
" />
<path d="M23741 2185
L23741 2504
L23760 2542
L23778 2560
L23816 2579
L23891 2579
L23928 2560
L23947 2542
L23966 2504
L23966 2185
" />
<path d="M24322 2185
L24247 2185
L24210 2204
L24191 2223
L24153 2279
L24135 2354
L24135 2504
L24153 2542
L24172 2560
L24210 2579
L24285 2579
L24322 2560
L24341 2542
L24360 2504
L24360 2410
L24341 2373
L24322 2354
L24285 2335
L24210 2335
L24172 2354
L24153 2373
L24135 2410
" />
<path d="M26240 6132
L26240 5739
L26334 5739
L26390 5757
L26428 5795
L26447 5832
L26465 5907
L26465 5964
L26447 6039
L26428 6076
L26390 6114
L26334 6132
L26240 6132
" />
<path d="M26803 5739
L26728 5739
L26690 5757
L26672 5776
L26634 5832
L26615 5907
L26615 6057
L26634 6095
L26653 6114
L26690 6132
L26765 6132
L26803 6114
L26822 6095
L26840 6057
L26840 5964
L26822 5926
L26803 5907
L26765 5889
L26690 5889
L26653 5907
L26634 5926
L26615 5964
" />
<path d="M32017 2835
L32017 2441
L32111 2441
L32167 2460
L32205 2498
L32224 2535
L32242 2610
L32242 2666
L32224 2741
L32205 2779
L32167 2816
L32111 2835
L32017 2835
" />
<path d="M32617 2835
L32392 2835
" />
<path d="M32505 2835
L32505 2441
L32467 2498
L32430 2535
L32392 2554
" />
<path d="M32861 2441
L32899 2441
L32936 2460
L32955 2479
L32974 2516
L32992 2591
L32992 2685
L32974 2760
L32955 2798
L32936 2816
L32899 2835
L32861 2835
L32824 2816
L32805 2798
L32786 2760
L32767 2685
L32767 2591
L32786 2516
L32805 2479
L32824 2460
L32861 2441
" />
<path d="M27679 5006
L27548 4819
" />
<path d="M27455 5006
L27455 4613
L27604 4613
L27642 4631
L27661 4650
L27679 4688
L27679 4744
L27661 4781
L27642 4800
L27604 4819
L27455 4819
" />
<path d="M27829 4650
L27848 4631
L27886 4613
L27979 4613
L28017 4631
L28036 4650
L28054 4688
L28054 4725
L28036 4781
L27811 5006
L28054 5006
" />
<path d="M28411 4613
L28223 4613
L28204 4800
L28223 4781
L28261 4763
L28354 4763
L28392 4781
L28411 4800
L28429 4838
L28429 4931
L28411 4969
L28392 4988
L28354 5006
L28261 5006
L28223 4988
L28204 4969
" />
<path d="M30620 17471
L30620 17077
L30714 17077
L30770 17096
L30808 17133
L30827 17171
L30845 17246
L30845 17302
L30827 17377
L30808 17415
L30770 17452
L30714 17471
L30620 17471
" />
<path d="M31033 17471
L31108 17471
L31145 17452
L31164 17433
L31202 17377
L31220 17302
L31220 17152
L31202 17115
L31183 17096
L31145 17077
L31070 17077
L31033 17096
L31014 17115
L30995 17152
L30995 17246
L31014 17283
L31033 17302
L31070 17321
L31145 17321
L31183 17302
L31202 17283
L31220 17246
" />
<path d="M30805 2835
L30674 2648
" />
<path d="M30580 2835
L30580 2441
L30730 2441
L30768 2460
L30787 2479
L30805 2516
L30805 2573
L30787 2610
L30768 2629
L30730 2648
L30580 2648
" />
<path d="M30955 2479
L30974 2460
L31012 2441
L31105 2441
L31143 2460
L31162 2479
L31180 2516
L31180 2554
L31162 2610
L30937 2835
L31180 2835
" />
<path d="M31518 2573
L31518 2835
" />
<path d="M31424 2423
L31330 2704
L31574 2704
" />
<path d="M5589 17077
L5458 16890
" />
<path d="M5364 17077
L5364 16684
L5514 16684
L5552 16702
L5571 16721
L5589 16758
L5589 16815
L5571 16852
L5552 16871
L5514 16890
L5364 16890
" />
<path d="M5927 16684
L5852 16684
L5814 16702
L5796 16721
L5758 16777
L5739 16852
L5739 17002
L5758 17040
L5777 17058
L5814 17077
L5889 17077
L5927 17058
L5946 17040
L5964 17002
L5964 16908
L5946 16871
L5927 16852
L5889 16833
L5814 16833
L5777 16852
L5758 16871
L5739 16908
" />
<path d="M21040 4489
L20908 4301
" />
<path d="M20815 4489
L20815 4095
L20965 4095
L21002 4114
L21021 4132
L21040 4170
L21040 4226
L21021 4264
L21002 4282
L20965 4301
L20815 4301
" />
<path d="M21190 4132
L21208 4114
L21246 4095
L21340 4095
L21377 4114
L21396 4132
L21415 4170
L21415 4207
L21396 4264
L21171 4489
L21415 4489
" />
<path d="M21546 4095
L21790 4095
L21658 4245
L21715 4245
L21752 4264
L21771 4282
L21790 4320
L21790 4414
L21771 4451
L21752 4470
L21715 4489
L21602 4489
L21565 4470
L21546 4451
" />
<path d="M9195 24017
L9251 24036
L9345 24036
L9383 24017
L9401 23998
L9420 23961
L9420 23923
L9401 23886
L9383 23867
L9345 23848
L9270 23830
L9233 23811
L9214 23792
L9195 23755
L9195 23717
L9214 23680
L9233 23661
L9270 23642
L9364 23642
L9420 23661
" />
<path d="M9551 23642
L9645 24036
L9720 23755
L9795 24036
L9889 23642
" />
<path d="M10245 24036
L10020 24036
" />
<path d="M10132 24036
L10132 23642
L10095 23698
L10057 23736
L10020 23755
" />
<path d="M23398 23988
L23454 24006
L23548 24006
L23585 23988
L23604 23969
L23623 23931
L23623 23894
L23604 23856
L23585 23838
L23548 23819
L23473 23800
L23435 23781
L23417 23763
L23398 23725
L23398 23688
L23417 23650
L23435 23631
L23473 23613
L23567 23613
L23623 23631
" />
<path d="M23754 23613
L23848 24006
L23923 23725
L23998 24006
L24091 23613
" />
<path d="M24204 23613
L24448 23613
L24316 23763
L24373 23763
L24410 23781
L24429 23800
L24448 23838
L24448 23931
L24429 23969
L24410 23988
L24373 24006
L24260 24006
L24223 23988
L24204 23969
" />
<path d="M16282 23988
L16338 24006
L16432 24006
L16469 23988
L16488 23969
L16507 23931
L16507 23894
L16488 23856
L16469 23838
L16432 23819
L16357 23800
L16319 23781
L16300 23763
L16282 23725
L16282 23688
L16300 23650
L16319 23631
L16357 23613
L16450 23613
L16507 23631
" />
<path d="M16638 23613
L16732 24006
L16807 23725
L16882 24006
L16975 23613
" />
<path d="M17107 23650
L17125 23631
L17163 23613
L17257 23613
L17294 23631
L17313 23650
L17332 23688
L17332 23725
L17313 23781
L17088 24006
L17332 24006
" />
<path d="M30445 24027
L30501 24046
L30595 24046
L30633 24027
L30651 24008
L30670 23971
L30670 23933
L30651 23896
L30633 23877
L30595 23858
L30520 23839
L30483 23821
L30464 23802
L30445 23764
L30445 23727
L30464 23690
L30483 23671
L30520 23652
L30614 23652
L30670 23671
" />
<path d="M30801 23652
L30895 24046
L30970 23764
L31045 24046
L31139 23652
" />
<path d="M31457 23783
L31457 24046
" />
<path d="M31364 23633
L31270 23914
L31514 23914
" />
<path d="M25689 5758
L25689 5365
L25783 5365
L25839 5383
L25877 5421
L25895 5458
L25914 5533
L25914 5590
L25895 5665
L25877 5702
L25839 5740
L25783 5758
L25689 5758
" />
<path d="M26139 5533
L26102 5515
L26083 5496
L26064 5458
L26064 5440
L26083 5402
L26102 5383
L26139 5365
L26214 5365
L26252 5383
L26270 5402
L26289 5440
L26289 5458
L26270 5496
L26252 5515
L26214 5533
L26139 5533
L26102 5552
L26083 5571
L26064 5608
L26064 5683
L26083 5721
L26102 5740
L26139 5758
L26214 5758
L26252 5740
L26270 5721
L26289 5683
L26289 5608
L26270 5571
L26252 5552
L26214 5533
" />
<path d="M7489 14548
L7358 14360
" />
<path d="M7264 14548
L7264 14154
L7414 14154
L7452 14173
L7470 14191
L7489 14229
L7489 14285
L7470 14323
L7452 14341
L7414 14360
L7264 14360
" />
<path d="M7864 14548
L7639 14548
" />
<path d="M7751 14548
L7751 14154
L7714 14210
L7676 14248
L7639 14266
" />
<path d="M27636 40583
L27617 40602
L27561 40621
L27524 40621
L27467 40602
L27430 40564
L27411 40527
L27392 40452
L27392 40396
L27411 40321
L27430 40283
L27467 40246
L27524 40227
L27561 40227
L27617 40246
L27636 40264
" />
<path d="M27786 40264
L27805 40246
L27842 40227
L27936 40227
L27974 40246
L27992 40264
L28011 40302
L28011 40339
L27992 40396
L27767 40621
L28011 40621
" />
<path d="M28255 40227
L28292 40227
L28330 40246
L28349 40264
L28367 40302
L28386 40377
L28386 40471
L28367 40546
L28349 40583
L28330 40602
L28292 40621
L28255 40621
L28217 40602
L28199 40583
L28180 40546
L28161 40471
L28161 40377
L28180 40302
L28199 40264
L28217 40246
L28255 40227
" />
<path d="M24880 35780
L24862 35799
L24805 35817
L24768 35817
L24712 35799
L24674 35761
L24655 35724
L24637 35649
L24637 35592
L24655 35517
L24674 35480
L24712 35442
L24768 35424
L24805 35424
L24862 35442
L24880 35461
" />
<path d="M25255 35817
L25030 35817
" />
<path d="M25143 35817
L25143 35424
L25105 35480
L25068 35517
L25030 35536
" />
<path d="M25611 35424
L25424 35424
L25405 35611
L25424 35592
L25461 35574
L25555 35574
L25593 35592
L25611 35611
L25630 35649
L25630 35742
L25611 35780
L25593 35799
L25555 35817
L25461 35817
L25424 35799
L25405 35780
" />
<path d="M8739 40583
L8720 40602
L8664 40621
L8626 40621
L8570 40602
L8532 40564
L8514 40527
L8495 40452
L8495 40396
L8514 40321
L8532 40283
L8570 40246
L8626 40227
L8664 40227
L8720 40246
L8739 40264
" />
<path d="M9113 40621
L8889 40621
" />
<path d="M9001 40621
L9001 40227
L8964 40283
L8926 40321
L8889 40339
" />
<path d="M9451 40227
L9376 40227
L9338 40246
L9320 40264
L9282 40321
L9263 40396
L9263 40546
L9282 40583
L9301 40602
L9338 40621
L9413 40621
L9451 40602
L9470 40583
L9488 40546
L9488 40452
L9470 40414
L9451 40396
L9413 40377
L9338 40377
L9301 40396
L9282 40414
L9263 40452
" />
<path d="M13463 40583
L13444 40602
L13388 40621
L13350 40621
L13294 40602
L13257 40564
L13238 40527
L13219 40452
L13219 40396
L13238 40321
L13257 40283
L13294 40246
L13350 40227
L13388 40227
L13444 40246
L13463 40264
" />
<path d="M13838 40621
L13613 40621
" />
<path d="M13725 40621
L13725 40227
L13688 40283
L13650 40321
L13613 40339
" />
<path d="M13969 40227
L14232 40227
L14063 40621
" />
<path d="M18187 40583
L18169 40602
L18112 40621
L18075 40621
L18019 40602
L17981 40564
L17962 40527
L17944 40452
L17944 40396
L17962 40321
L17981 40283
L18019 40246
L18075 40227
L18112 40227
L18169 40246
L18187 40264
" />
<path d="M18562 40621
L18337 40621
" />
<path d="M18450 40621
L18450 40227
L18412 40283
L18375 40321
L18337 40339
" />
<path d="M18787 40396
L18750 40377
L18731 40358
L18712 40321
L18712 40302
L18731 40264
L18750 40246
L18787 40227
L18862 40227
L18900 40246
L18919 40264
L18937 40302
L18937 40321
L18919 40358
L18900 40377
L18862 40396
L18787 40396
L18750 40414
L18731 40433
L18712 40471
L18712 40546
L18731 40583
L18750 40602
L18787 40621
L18862 40621
L18900 40602
L18919 40583
L18937 40546
L18937 40471
L18919 40433
L18900 40414
L18862 40396
" />
<path d="M22912 40583
L22893 40602
L22837 40621
L22799 40621
L22743 40602
L22706 40564
L22687 40527
L22668 40452
L22668 40396
L22687 40321
L22706 40283
L22743 40246
L22799 40227
L22837 40227
L22893 40246
L22912 40264
" />
<path d="M23287 40621
L23062 40621
" />
<path d="M23174 40621
L23174 40227
L23137 40283
L23099 40321
L23062 40339
" />
<path d="M23474 40621
L23549 40621
L23587 40602
L23605 40583
L23643 40527
L23662 40452
L23662 40302
L23643 40264
L23624 40246
L23587 40227
L23512 40227
L23474 40246
L23455 40264
L23437 40302
L23437 40396
L23455 40433
L23474 40452
L23512 40471
L23587 40471
L23624 40452
L23643 40433
L23662 40396
" />
<path d="M25475 3555
L25531 3573
L25625 3573
L25662 3555
L25681 3536
L25700 3498
L25700 3461
L25681 3423
L25662 3405
L25625 3386
L25550 3367
L25512 3348
L25493 3330
L25475 3292
L25475 3255
L25493 3217
L25512 3198
L25550 3180
L25643 3180
L25700 3198
" />
<path d="M25831 3180
L25925 3573
L26000 3292
L26074 3573
L26168 3180
" />
<path d="M26506 3180
L26318 3180
L26299 3367
L26318 3348
L26356 3330
L26449 3330
L26487 3348
L26506 3367
L26524 3405
L26524 3498
L26506 3536
L26487 3555
L26449 3573
L26356 3573
L26318 3555
L26299 3536
" />
<path d="M23453 20434
L23322 20246
" />
<path d="M23228 20434
L23228 20040
L23378 20040
L23416 20059
L23434 20077
L23453 20115
L23453 20171
L23434 20209
L23416 20227
L23378 20246
L23228 20246
" />
<path d="M23603 20077
L23622 20059
L23659 20040
L23753 20040
L23791 20059
L23809 20077
L23828 20115
L23828 20152
L23809 20209
L23584 20434
L23828 20434
" />
<path d="M24203 20434
L23978 20434
" />
<path d="M24091 20434
L24091 20040
L24053 20096
L24016 20134
L23978 20152
" />
<path d="M21044 5290
L20912 5102
" />
<path d="M20819 5290
L20819 4896
L20969 4896
L21006 4915
L21025 4934
L21044 4971
L21044 5027
L21025 5065
L21006 5084
L20969 5102
L20819 5102
" />
<path d="M21194 4934
L21212 4915
L21250 4896
L21344 4896
L21381 4915
L21400 4934
L21419 4971
L21419 5009
L21400 5065
L21175 5290
L21419 5290
" />
<path d="M21569 4934
L21587 4915
L21625 4896
L21719 4896
L21756 4915
L21775 4934
L21794 4971
L21794 5009
L21775 5065
L21550 5290
L21794 5290
" />
<path d="M32300 4767
L31906 4767
L32187 4636
L31906 4505
L32300 4505
" />
<path d="M32300 4317
L31906 4317
" />
<path d="M32300 4092
L32075 4261
" />
<path d="M31906 4092
L32131 4317
" />
<path d="M32300 3717
L32300 3942
" />
<path d="M32300 3830
L31906 3830
L31962 3867
L32000 3905
L32018 3942
" />
<path d="M24256 5886
L24125 5699
" />
<path d="M24031 5886
L24031 5493
L24181 5493
L24219 5511
L24238 5530
L24256 5568
L24256 5624
L24238 5661
L24219 5680
L24181 5699
L24031 5699
" />
<path d="M24406 5530
L24425 5511
L24462 5493
L24556 5493
L24594 5511
L24612 5530
L24631 5568
L24631 5605
L24612 5661
L24387 5886
L24631 5886
" />
<path d="M24875 5493
L24912 5493
L24950 5511
L24969 5530
L24987 5568
L25006 5643
L25006 5736
L24987 5811
L24969 5849
L24950 5868
L24912 5886
L24875 5886
L24837 5868
L24819 5849
L24800 5811
L24781 5736
L24781 5643
L24800 5568
L24819 5530
L24837 5511
L24875 5493
" />
<path d="M24032 19613
L23844 19744
" />
<path d="M24032 19838
L23638 19838
L23638 19688
L23657 19650
L23676 19632
L23713 19613
L23769 19613
L23807 19632
L23826 19650
L23844 19688
L23844 19838
" />
<path d="M24032 19238
L24032 19463
" />
<path d="M24032 19350
L23638 19350
L23694 19388
L23732 19425
L23751 19463
" />
<path d="M24032 19050
L24032 18975
L24013 18938
L23994 18919
L23938 18882
L23863 18863
L23713 18863
L23676 18882
L23657 18900
L23638 18938
L23638 19013
L23657 19050
L23676 19069
L23713 19088
L23807 19088
L23844 19069
L23863 19050
L23882 19013
L23882 18938
L23863 18900
L23844 18882
L23807 18863
" />
<path d="M10500 31733
L10312 31733
L10312 31339
" />
<path d="M10631 31526
L10762 31526
" />
<path d="M10819 31733
L10631 31733
L10631 31339
L10819 31339
" />
<path d="M10987 31733
L10987 31339
L11081 31339
L11137 31358
L11175 31395
L11194 31433
L11212 31508
L11212 31564
L11194 31639
L11175 31676
L11137 31714
L11081 31733
L10987 31733
" />
<path d="M11344 31339
L11606 31339
L11437 31733
" />
<path d="M27468 27372
L27281 27372
L27281 26979
" />
<path d="M27600 27166
L27731 27166
" />
<path d="M27787 27372
L27600 27372
L27600 26979
L27787 26979
" />
<path d="M27956 27372
L27956 26979
L28050 26979
L28106 26998
L28143 27035
L28162 27073
L28181 27148
L28181 27204
L28162 27279
L28143 27316
L28106 27354
L28050 27372
L27956 27372
" />
<path d="M28556 27372
L28331 27372
" />
<path d="M28443 27372
L28443 26979
L28406 27035
L28368 27073
L28331 27091
" />
<path d="M22744 27343
L22556 27343
L22556 26949
" />
<path d="M22875 27137
L23006 27137
" />
<path d="M23063 27343
L22875 27343
L22875 26949
L23063 26949
" />
<path d="M23231 27343
L23231 26949
L23325 26949
L23381 26968
L23419 27005
L23438 27043
L23456 27118
L23456 27174
L23438 27249
L23419 27287
L23381 27324
L23325 27343
L23231 27343
" />
<path d="M23606 26987
L23625 26968
L23663 26949
L23756 26949
L23794 26968
L23813 26987
L23831 27024
L23831 27062
L23813 27118
L23588 27343
L23831 27343
" />
<path d="M24279 40424
L24091 40424
L24091 40030
" />
<path d="M24410 40217
L24541 40217
" />
<path d="M24598 40424
L24410 40424
L24410 40030
L24598 40030
" />
<path d="M24766 40424
L24766 40030
L24860 40030
L24916 40049
L24954 40086
L24973 40124
L24991 40199
L24991 40255
L24973 40330
L24954 40367
L24916 40405
L24860 40424
L24766 40424
" />
<path d="M25141 40067
L25160 40049
L25198 40030
L25291 40030
L25329 40049
L25348 40067
L25366 40105
L25366 40142
L25348 40199
L25123 40424
L25366 40424
" />
<path d="M25610 40030
L25648 40030
L25685 40049
L25704 40067
L25723 40105
L25741 40180
L25741 40274
L25723 40349
L25704 40386
L25685 40405
L25648 40424
L25610 40424
L25573 40405
L25554 40386
L25535 40349
L25516 40274
L25516 40180
L25535 40105
L25554 40067
L25573 40049
L25610 40030
" />
<path d="M19564 40394
L19377 40394
L19377 40000
" />
<path d="M19696 40188
L19827 40188
" />
<path d="M19883 40394
L19696 40394
L19696 40000
L19883 40000
" />
<path d="M20052 40394
L20052 40000
L20146 40000
L20202 40019
L20239 40057
L20258 40094
L20277 40169
L20277 40225
L20258 40300
L20239 40338
L20202 40375
L20146 40394
L20052 40394
" />
<path d="M20652 40394
L20427 40394
" />
<path d="M20539 40394
L20539 40000
L20502 40057
L20464 40094
L20427 40113
" />
<path d="M20839 40394
L20914 40394
L20952 40375
L20970 40357
L21008 40300
L21027 40225
L21027 40075
L21008 40038
L20989 40019
L20952 40000
L20877 40000
L20839 40019
L20820 40038
L20802 40075
L20802 40169
L20820 40207
L20839 40225
L20877 40244
L20952 40244
L20989 40225
L21008 40207
L21027 40169
" />
<path d="M14801 40394
L14613 40394
L14613 40000
" />
<path d="M14932 40188
L15063 40188
" />
<path d="M15119 40394
L14932 40394
L14932 40000
L15119 40000
" />
<path d="M15288 40394
L15288 40000
L15382 40000
L15438 40019
L15476 40057
L15494 40094
L15513 40169
L15513 40225
L15494 40300
L15476 40338
L15438 40375
L15382 40394
L15288 40394
" />
<path d="M15888 40394
L15663 40394
" />
<path d="M15775 40394
L15775 40000
L15738 40057
L15700 40094
L15663 40113
" />
<path d="M16113 40169
L16075 40150
L16057 40132
L16038 40094
L16038 40075
L16057 40038
L16075 40019
L16113 40000
L16188 40000
L16225 40019
L16244 40038
L16263 40075
L16263 40094
L16244 40132
L16225 40150
L16188 40169
L16113 40169
L16075 40188
L16057 40207
L16038 40244
L16038 40319
L16057 40357
L16075 40375
L16113 40394
L16188 40394
L16225 40375
L16244 40357
L16263 40319
L16263 40244
L16244 40207
L16225 40188
L16188 40169
" />
<path d="M10106 40414
L9918 40414
L9918 40020
" />
<path d="M10237 40208
L10368 40208
" />
<path d="M10424 40414
L10237 40414
L10237 40020
L10424 40020
" />
<path d="M10593 40414
L10593 40020
L10687 40020
L10743 40039
L10781 40076
L10799 40114
L10818 40189
L10818 40245
L10799 40320
L10781 40358
L10743 40395
L10687 40414
L10593 40414
" />
<path d="M11193 40414
L10968 40414
" />
<path d="M11081 40414
L11081 40020
L11043 40076
L11006 40114
L10968 40133
" />
<path d="M11324 40020
L11587 40020
L11418 40414
" />
<path d="M5312 40374
L5125 40374
L5125 39981
" />
<path d="M5444 40168
L5575 40168
" />
<path d="M5631 40374
L5444 40374
L5444 39981
L5631 39981
" />
<path d="M5800 40374
L5800 39981
L5894 39981
L5950 40000
L5987 40037
L6006 40074
L6025 40149
L6025 40206
L6006 40281
L5987 40318
L5950 40356
L5894 40374
L5800 40374
" />
<path d="M6400 40374
L6175 40374
" />
<path d="M6287 40374
L6287 39981
L6250 40037
L6212 40074
L6175 40093
" />
<path d="M6737 39981
L6662 39981
L6625 40000
L6606 40018
L6568 40074
L6550 40149
L6550 40299
L6568 40337
L6587 40356
L6625 40374
L6700 40374
L6737 40356
L6756 40337
L6775 40299
L6775 40206
L6756 40168
L6737 40149
L6700 40131
L6625 40131
L6587 40149
L6568 40168
L6550 40206
" />
<path d="M8570 36034
L8383 36034
L8383 35640
" />
<path d="M8702 35828
L8833 35828
" />
<path d="M8889 36034
L8702 36034
L8702 35640
L8889 35640
" />
<path d="M9058 36034
L9058 35640
L9151 35640
L9208 35659
L9245 35696
L9264 35734
L9283 35809
L9283 35865
L9264 35940
L9245 35978
L9208 36015
L9151 36034
L9058 36034
" />
<path d="M9658 36034
L9433 36034
" />
<path d="M9545 36034
L9545 35640
L9508 35696
L9470 35734
L9433 35753
" />
<path d="M10014 35640
L9826 35640
L9808 35828
L9826 35809
L9864 35790
L9958 35790
L9995 35809
L10014 35828
L10033 35865
L10033 35959
L10014 35996
L9995 36015
L9958 36034
L9864 36034
L9826 36015
L9808 35996
" />
<path d="M13285 36044
L13097 36044
L13097 35650
" />
<path d="M13416 35838
L13547 35838
" />
<path d="M13604 36044
L13416 36044
L13416 35650
L13604 35650
" />
<path d="M13772 36044
L13772 35650
L13866 35650
L13922 35669
L13960 35706
L13979 35744
L13997 35819
L13997 35875
L13979 35950
L13960 35988
L13922 36025
L13866 36044
L13772 36044
" />
<path d="M14372 36044
L14147 36044
" />
<path d="M14260 36044
L14260 35650
L14222 35706
L14185 35744
L14147 35763
" />
<path d="M14710 35781
L14710 36044
" />
<path d="M14616 35631
L14522 35913
L14766 35913
" />
<path d="M18049 36014
L17861 36014
L17861 35621
" />
<path d="M18180 35808
L18311 35808
" />
<path d="M18367 36014
L18180 36014
L18180 35621
L18367 35621
" />
<path d="M18536 36014
L18536 35621
L18630 35621
L18686 35639
L18724 35677
L18742 35714
L18761 35789
L18761 35845
L18742 35920
L18724 35958
L18686 35995
L18630 36014
L18536 36014
" />
<path d="M19136 36014
L18911 36014
" />
<path d="M19023 36014
L19023 35621
L18986 35677
L18949 35714
L18911 35733
" />
<path d="M19267 35621
L19511 35621
L19380 35770
L19436 35770
L19473 35789
L19492 35808
L19511 35845
L19511 35939
L19492 35977
L19473 35995
L19436 36014
L19323 36014
L19286 35995
L19267 35977
" />
<path d="M22734 36034
L22546 36034
L22546 35640
" />
<path d="M22865 35828
L22996 35828
" />
<path d="M23052 36034
L22865 36034
L22865 35640
L23052 35640
" />
<path d="M23221 36034
L23221 35640
L23315 35640
L23371 35659
L23409 35696
L23427 35734
L23446 35809
L23446 35865
L23427 35940
L23409 35978
L23371 36015
L23315 36034
L23221 36034
" />
<path d="M23821 36034
L23596 36034
" />
<path d="M23709 36034
L23709 35640
L23671 35696
L23634 35734
L23596 35753
" />
<path d="M23971 35678
L23990 35659
L24027 35640
L24121 35640
L24158 35659
L24177 35678
L24196 35715
L24196 35753
L24177 35809
L23952 36034
L24196 36034
" />
<path d="M27468 36054
L27280 36054
L27280 35660
" />
<path d="M27599 35847
L27730 35847
" />
<path d="M27787 36054
L27599 36054
L27599 35660
L27787 35660
" />
<path d="M27955 36054
L27955 35660
L28049 35660
L28105 35679
L28143 35716
L28162 35754
L28180 35829
L28180 35885
L28162 35960
L28143 35997
L28105 36035
L28049 36054
L27955 36054
" />
<path d="M28555 36054
L28330 36054
" />
<path d="M28443 36054
L28443 35660
L28405 35716
L28368 35754
L28330 35772
" />
<path d="M28930 36054
L28705 36054
" />
<path d="M28818 36054
L28818 35660
L28780 35716
L28743 35754
L28705 35772
" />
<path d="M24279 31723
L24091 31723
L24091 31329
" />
<path d="M24410 31517
L24541 31517
" />
<path d="M24598 31723
L24410 31723
L24410 31329
L24598 31329
" />
<path d="M24766 31723
L24766 31329
L24860 31329
L24916 31348
L24954 31385
L24973 31423
L24991 31498
L24991 31554
L24973 31629
L24954 31667
L24916 31704
L24860 31723
L24766 31723
" />
<path d="M25366 31723
L25141 31723
" />
<path d="M25254 31723
L25254 31329
L25216 31385
L25179 31423
L25141 31442
" />
<path d="M25610 31329
L25648 31329
L25685 31348
L25704 31367
L25723 31404
L25741 31479
L25741 31573
L25723 31648
L25704 31685
L25685 31704
L25648 31723
L25610 31723
L25573 31704
L25554 31685
L25535 31648
L25516 31573
L25516 31479
L25535 31404
L25554 31367
L25573 31348
L25610 31329
" />
<path d="M19860 31733
L19673 31733
L19673 31339
" />
<path d="M19991 31526
L20123 31526
" />
<path d="M20179 31733
L19991 31733
L19991 31339
L20179 31339
" />
<path d="M20348 31733
L20348 31339
L20441 31339
L20498 31358
L20535 31395
L20554 31433
L20573 31508
L20573 31564
L20554 31639
L20535 31676
L20498 31714
L20441 31733
L20348 31733
" />
<path d="M20760 31733
L20835 31733
L20872 31714
L20891 31695
L20929 31639
L20947 31564
L20947 31414
L20929 31377
L20910 31358
L20872 31339
L20797 31339
L20760 31358
L20741 31377
L20723 31414
L20723 31508
L20741 31545
L20760 31564
L20797 31583
L20872 31583
L20910 31564
L20929 31545
L20947 31508
" />
<path d="M15165 31713
L14978 31713
L14978 31319
" />
<path d="M15296 31507
L15428 31507
" />
<path d="M15484 31713
L15296 31713
L15296 31319
L15484 31319
" />
<path d="M15653 31713
L15653 31319
L15746 31319
L15803 31338
L15840 31376
L15859 31413
L15878 31488
L15878 31544
L15859 31619
L15840 31657
L15803 31694
L15746 31713
L15653 31713
" />
<path d="M16103 31488
L16065 31469
L16046 31451
L16028 31413
L16028 31394
L16046 31357
L16065 31338
L16103 31319
L16178 31319
L16215 31338
L16234 31357
L16253 31394
L16253 31413
L16234 31451
L16215 31469
L16178 31488
L16103 31488
L16065 31507
L16046 31526
L16028 31563
L16028 31638
L16046 31676
L16065 31694
L16103 31713
L16178 31713
L16215 31694
L16234 31676
L16253 31638
L16253 31563
L16234 31526
L16215 31507
L16178 31488
" />
<path d="M5687 31693
L5499 31693
L5499 31300
" />
<path d="M5818 31487
L5949 31487
" />
<path d="M6006 31693
L5818 31693
L5818 31300
L6006 31300
" />
<path d="M6174 31693
L6174 31300
L6268 31300
L6324 31318
L6362 31356
L6381 31393
L6399 31468
L6399 31525
L6381 31600
L6362 31637
L6324 31675
L6268 31693
L6174 31693
" />
<path d="M6737 31300
L6662 31300
L6624 31318
L6606 31337
L6568 31393
L6549 31468
L6549 31618
L6568 31656
L6587 31675
L6624 31693
L6699 31693
L6737 31675
L6755 31656
L6774 31618
L6774 31525
L6755 31487
L6737 31468
L6699 31450
L6624 31450
L6587 31468
L6568 31487
L6549 31525
" />
<path d="M8571 27343
L8383 27343
L8383 26949
" />
<path d="M8702 27137
L8833 27137
" />
<path d="M8889 27343
L8702 27343
L8702 26949
L8889 26949
" />
<path d="M9058 27343
L9058 26949
L9152 26949
L9208 26968
L9246 27005
L9264 27043
L9283 27118
L9283 27174
L9264 27249
L9246 27287
L9208 27324
L9152 27343
L9058 27343
" />
<path d="M9639 26949
L9452 26949
L9433 27137
L9452 27118
L9489 27099
L9583 27099
L9621 27118
L9639 27137
L9658 27174
L9658 27268
L9639 27305
L9621 27324
L9583 27343
L9489 27343
L9452 27324
L9433 27305
" />
<path d="M13295 27382
L13108 27382
L13108 26989
" />
<path d="M13426 27176
L13558 27176
" />
<path d="M13614 27382
L13426 27382
L13426 26989
L13614 26989
" />
<path d="M13783 27382
L13783 26989
L13876 26989
L13933 27007
L13970 27045
L13989 27082
L14008 27157
L14008 27214
L13989 27289
L13970 27326
L13933 27364
L13876 27382
L13783 27382
" />
<path d="M14345 27120
L14345 27382
" />
<path d="M14251 26970
L14158 27251
L14401 27251
" />
<path d="M18010 27343
L17822 27343
L17822 26949
" />
<path d="M18141 27137
L18272 27137
" />
<path d="M18328 27343
L18141 27343
L18141 26949
L18328 26949
" />
<path d="M18497 27343
L18497 26949
L18591 26949
L18647 26968
L18685 27005
L18703 27043
L18722 27118
L18722 27174
L18703 27249
L18685 27287
L18647 27324
L18591 27343
L18497 27343
" />
<path d="M18853 26949
L19097 26949
L18966 27099
L19022 27099
L19060 27118
L19078 27137
L19097 27174
L19097 27268
L19078 27305
L19060 27324
L19022 27343
L18910 27343
L18872 27324
L18853 27305
" />
<path d="M18136 16709
L17949 16841
" />
<path d="M18136 16934
L17743 16934
L17743 16784
L17761 16747
L17780 16728
L17818 16709
L17874 16709
L17911 16728
L17930 16747
L17949 16784
L17949 16934
" />
<path d="M18136 16334
L18136 16559
" />
<path d="M18136 16447
L17743 16447
L17799 16484
L17836 16522
L17855 16559
" />
<path d="M17743 15978
L17743 16166
L17930 16184
L17911 16166
L17893 16128
L17893 16034
L17911 15997
L17930 15978
L17968 15959
L18061 15959
L18099 15978
L18118 15997
L18136 16034
L18136 16128
L18118 16166
L18099 16184
" />
<path d="M27931 15660
L27800 15472
" />
<path d="M27706 15660
L27706 15266
L27856 15266
L27894 15285
L27913 15304
L27931 15341
L27931 15397
L27913 15435
L27894 15454
L27856 15472
L27706 15472
" />
<path d="M28306 15660
L28081 15660
" />
<path d="M28194 15660
L28194 15266
L28156 15322
L28119 15360
L28081 15379
" />
<path d="M28644 15266
L28569 15266
L28531 15285
L28513 15304
L28475 15360
L28456 15435
L28456 15585
L28475 15622
L28494 15641
L28531 15660
L28606 15660
L28644 15641
L28663 15622
L28681 15585
L28681 15491
L28663 15454
L28644 15435
L28606 15416
L28531 15416
L28494 15435
L28475 15454
L28456 15491
" />
<path d="M29211 16014
L29080 15827
" />
<path d="M28986 16014
L28986 15621
L29136 15621
L29173 15639
L29192 15658
L29211 15696
L29211 15752
L29192 15789
L29173 15808
L29136 15827
L28986 15827
" />
<path d="M29586 16014
L29361 16014
" />
<path d="M29473 16014
L29473 15621
L29436 15677
L29398 15714
L29361 15733
" />
<path d="M29717 15621
L29980 15621
L29811 16014
" />
<path d="M27597 5434
L27466 5246
" />
<path d="M27372 5434
L27372 5040
L27522 5040
L27559 5059
L27578 5077
L27597 5115
L27597 5171
L27578 5209
L27559 5227
L27522 5246
L27372 5246
" />
<path d="M27972 5434
L27747 5434
" />
<path d="M27859 5434
L27859 5040
L27822 5096
L27784 5134
L27747 5152
" />
<path d="M28197 5209
L28159 5190
L28140 5171
L28122 5134
L28122 5115
L28140 5077
L28159 5059
L28197 5040
L28272 5040
L28309 5059
L28328 5077
L28347 5115
L28347 5134
L28328 5171
L28309 5190
L28272 5209
L28197 5209
L28159 5227
L28140 5246
L28122 5284
L28122 5359
L28140 5396
L28159 5415
L28197 5434
L28272 5434
L28309 5415
L28328 5396
L28347 5359
L28347 5284
L28328 5246
L28309 5227
L28272 5209
" />
<path d="M17744 18091
L17613 17904
" />
<path d="M17519 18091
L17519 17697
L17669 17697
L17707 17716
L17726 17735
L17744 17772
L17744 17829
L17726 17866
L17707 17885
L17669 17904
L17519 17904
" />
<path d="M18119 18091
L17894 18091
" />
<path d="M18007 18091
L18007 17697
L17969 17754
L17932 17791
L17894 17810
" />
<path d="M18457 17829
L18457 18091
" />
<path d="M18363 17679
L18269 17960
L18513 17960
" />
<path d="M6990 5365
L6858 5177
" />
<path d="M6765 5365
L6765 4971
L6915 4971
L6952 4990
L6971 5008
L6990 5046
L6990 5102
L6971 5140
L6952 5158
L6915 5177
L6765 5177
" />
<path d="M7102 4971
L7233 5365
L7365 4971
" />
<path d="M7702 5365
L7477 5365
" />
<path d="M7589 5365
L7589 4971
L7552 5027
L7514 5065
L7477 5083
" />
<path d="M24006 42344
L24062 42363
L24156 42363
L24194 42344
L24212 42325
L24231 42288
L24231 42250
L24212 42213
L24194 42194
L24156 42175
L24081 42156
L24044 42138
L24025 42119
L24006 42081
L24006 42044
L24025 42006
L24044 41988
L24081 41969
L24175 41969
L24231 41988
" />
<path d="M24381 42006
L24400 41988
L24437 41969
L24531 41969
L24569 41988
L24587 42006
L24606 42044
L24606 42081
L24587 42138
L24362 42363
L24606 42363
" />
<path d="M24850 41969
L24887 41969
L24925 41988
L24944 42006
L24962 42044
L24981 42119
L24981 42213
L24962 42288
L24944 42325
L24925 42344
L24887 42363
L24850 42363
L24812 42344
L24794 42325
L24775 42288
L24756 42213
L24756 42119
L24775 42044
L24794 42006
L24812 41988
L24850 41969
" />
<path d="M19272 42344
L19328 42363
L19422 42363
L19459 42344
L19478 42325
L19497 42288
L19497 42250
L19478 42213
L19459 42194
L19422 42175
L19347 42156
L19309 42138
L19291 42119
L19272 42081
L19272 42044
L19291 42006
L19309 41988
L19347 41969
L19441 41969
L19497 41988
" />
<path d="M19872 42363
L19647 42363
" />
<path d="M19759 42363
L19759 41969
L19722 42025
L19684 42063
L19647 42081
" />
<path d="M20059 42363
L20134 42363
L20172 42344
L20191 42325
L20228 42269
L20247 42194
L20247 42044
L20228 42006
L20209 41988
L20172 41969
L20097 41969
L20059 41988
L20041 42006
L20022 42044
L20022 42138
L20041 42175
L20059 42194
L20097 42213
L20172 42213
L20209 42194
L20228 42175
L20247 42138
" />
<path d="M14508 42344
L14564 42363
L14658 42363
L14696 42344
L14714 42325
L14733 42288
L14733 42250
L14714 42213
L14696 42194
L14658 42175
L14583 42156
L14546 42138
L14527 42119
L14508 42081
L14508 42044
L14527 42006
L14546 41988
L14583 41969
L14677 41969
L14733 41988
" />
<path d="M15108 42363
L14883 42363
" />
<path d="M14996 42363
L14996 41969
L14958 42025
L14921 42063
L14883 42081
" />
<path d="M15333 42138
L15296 42119
L15277 42100
L15258 42063
L15258 42044
L15277 42006
L15296 41988
L15333 41969
L15408 41969
L15446 41988
L15464 42006
L15483 42044
L15483 42063
L15464 42100
L15446 42119
L15408 42138
L15333 42138
L15296 42156
L15277 42175
L15258 42213
L15258 42288
L15277 42325
L15296 42344
L15333 42363
L15408 42363
L15446 42344
L15464 42325
L15483 42288
L15483 42213
L15464 42175
L15446 42156
L15408 42138
" />
<path d="M9794 42344
L9850 42363
L9944 42363
L9981 42344
L10000 42325
L10019 42288
L10019 42250
L10000 42213
L9981 42194
L9944 42175
L9869 42156
L9831 42138
L9812 42119
L9794 42081
L9794 42044
L9812 42006
L9831 41988
L9869 41969
L9962 41969
L10019 41988
" />
<path d="M10393 42363
L10169 42363
" />
<path d="M10281 42363
L10281 41969
L10244 42025
L10206 42063
L10169 42081
" />
<path d="M10525 41969
L10787 41969
L10618 42363
" />
<path d="M15374 17609
L15374 17215
L15468 17215
L15524 17234
L15562 17271
L15580 17309
L15599 17384
L15599 17440
L15580 17515
L15562 17552
L15524 17590
L15468 17609
L15374 17609
" />
<path d="M15955 17215
L15768 17215
L15749 17402
L15768 17384
L15805 17365
L15899 17365
L15937 17384
L15955 17402
L15974 17440
L15974 17534
L15955 17571
L15937 17590
L15899 17609
L15805 17609
L15768 17590
L15749 17571
" />
<path d="M17437 16709
L17250 16841
" />
<path d="M17437 16934
L17044 16934
L17044 16784
L17062 16747
L17081 16728
L17119 16709
L17175 16709
L17212 16728
L17231 16747
L17250 16784
L17250 16934
" />
<path d="M17437 16334
L17437 16559
" />
<path d="M17437 16447
L17044 16447
L17100 16484
L17137 16522
L17156 16559
" />
<path d="M17044 16203
L17044 15959
L17194 16091
L17194 16034
L17212 15997
L17231 15978
L17269 15959
L17362 15959
L17400 15978
L17419 15997
L17437 16034
L17437 16147
L17419 16184
L17400 16203
" />
<path d="M24292 29342
L24348 29361
L24442 29361
L24480 29342
L24498 29323
L24517 29286
L24517 29248
L24498 29211
L24480 29192
L24442 29173
L24367 29154
L24330 29136
L24311 29117
L24292 29079
L24292 29042
L24311 29004
L24330 28986
L24367 28967
L24461 28967
L24517 28986
" />
<path d="M24873 28967
L24686 28967
L24667 29154
L24686 29136
L24723 29117
L24817 29117
L24854 29136
L24873 29154
L24892 29192
L24892 29286
L24873 29323
L24854 29342
L24817 29361
L24723 29361
L24686 29342
L24667 29323
" />
<path d="M29723 13465
L29592 13278
" />
<path d="M29498 13465
L29498 13071
L29648 13071
L29686 13090
L29705 13109
L29723 13146
L29723 13203
L29705 13240
L29686 13259
L29648 13278
L29498 13278
" />
<path d="M29911 13465
L29986 13465
L30023 13446
L30042 13428
L30079 13371
L30098 13296
L30098 13146
L30079 13109
L30061 13090
L30023 13071
L29948 13071
L29911 13090
L29892 13109
L29873 13146
L29873 13240
L29892 13278
L29911 13296
L29948 13315
L30023 13315
L30061 13296
L30079 13278
L30098 13240
" />
<path d="M17744 17510
L17613 17323
" />
<path d="M17519 17510
L17519 17117
L17669 17117
L17707 17135
L17726 17154
L17744 17192
L17744 17248
L17726 17285
L17707 17304
L17669 17323
L17519 17323
" />
<path d="M18119 17510
L17894 17510
" />
<path d="M18007 17510
L18007 17117
L17969 17173
L17932 17210
L17894 17229
" />
<path d="M18363 17117
L18401 17117
L18438 17135
L18457 17154
L18476 17192
L18494 17267
L18494 17360
L18476 17435
L18457 17473
L18438 17492
L18401 17510
L18363 17510
L18326 17492
L18307 17473
L18288 17435
L18269 17360
L18269 17267
L18288 17192
L18307 17154
L18326 17135
L18363 17117
" />
<path d="M25904 18248
L25773 18061
" />
<path d="M25679 18248
L25679 17855
L25829 17855
L25866 17874
L25885 17892
L25904 17930
L25904 17986
L25885 18023
L25866 18042
L25829 18061
L25679 18061
" />
<path d="M26279 18248
L26054 18248
" />
<path d="M26166 18248
L26166 17855
L26129 17911
L26091 17949
L26054 17967
" />
<path d="M26654 18248
L26429 18248
" />
<path d="M26541 18248
L26541 17855
L26504 17911
L26466 17949
L26429 17967
" />
<path d="M24644 17953
L24513 17766
" />
<path d="M24419 17953
L24419 17559
L24569 17559
L24607 17578
L24625 17597
L24644 17634
L24644 17691
L24625 17728
L24607 17747
L24569 17766
L24419 17766
" />
<path d="M25019 17953
L24794 17953
" />
<path d="M24907 17953
L24907 17559
L24869 17616
L24832 17653
L24794 17672
" />
<path d="M25169 17597
L25188 17578
L25225 17559
L25319 17559
L25356 17578
L25375 17597
L25394 17634
L25394 17672
L25375 17728
L25150 17953
L25394 17953
" />
<path d="M8788 15227
L8657 15039
" />
<path d="M8563 15227
L8563 14833
L8713 14833
L8751 14852
L8769 14871
L8788 14908
L8788 14964
L8769 15002
L8751 15021
L8713 15039
L8563 15039
" />
<path d="M9144 14833
L8957 14833
L8938 15021
L8957 15002
L8994 14983
L9088 14983
L9126 15002
L9144 15021
L9163 15058
L9163 15152
L9144 15189
L9126 15208
L9088 15227
L8994 15227
L8957 15208
L8938 15189
" />
<path d="M4772 17097
L4641 16909
" />
<path d="M4547 17097
L4547 16703
L4697 16703
L4735 16722
L4754 16741
L4772 16778
L4772 16834
L4754 16872
L4735 16891
L4697 16909
L4547 16909
" />
<path d="M4904 16703
L5166 16703
L4997 17097
" />
<path d="M27066 13928
L26935 13740
" />
<path d="M26841 13928
L26841 13534
L26991 13534
L27028 13553
L27047 13571
L27066 13609
L27066 13665
L27047 13703
L27028 13721
L26991 13740
L26841 13740
" />
<path d="M27291 13703
L27253 13684
L27235 13665
L27216 13628
L27216 13609
L27235 13571
L27253 13553
L27291 13534
L27366 13534
L27403 13553
L27422 13571
L27441 13609
L27441 13628
L27422 13665
L27403 13684
L27366 13703
L27291 13703
L27253 13721
L27235 13740
L27216 13778
L27216 13853
L27235 13890
L27253 13909
L27291 13928
L27366 13928
L27403 13909
L27422 13890
L27441 13853
L27441 13778
L27422 13740
L27403 13721
L27366 13703
" />
<path d="M9753 15227
L9622 15039
" />
<path d="M9528 15227
L9528 14833
L9678 14833
L9715 14852
L9734 14871
L9753 14908
L9753 14964
L9734 15002
L9715 15021
L9678 15039
L9528 15039
" />
<path d="M10090 14964
L10090 15227
" />
<path d="M9997 14814
L9903 15096
L10146 15096
" />
<path d="M10708 15227
L10576 15039
" />
<path d="M10483 15227
L10483 14833
L10633 14833
L10670 14852
L10689 14871
L10708 14908
L10708 14964
L10689 15002
L10670 15021
L10633 15039
L10483 15039
" />
<path d="M10839 14833
L11082 14833
L10951 14983
L11007 14983
L11045 15002
L11064 15021
L11082 15058
L11082 15152
L11064 15189
L11045 15208
L11007 15227
L10895 15227
L10857 15208
L10839 15189
" />
<path d="M1879 11034
L1748 10846
" />
<path d="M1654 11034
L1654 10640
L1804 10640
L1841 10659
L1860 10678
L1879 10715
L1879 10771
L1860 10809
L1841 10828
L1804 10846
L1654 10846
" />
<path d="M2029 10678
L2047 10659
L2085 10640
L2179 10640
L2216 10659
L2235 10678
L2254 10715
L2254 10753
L2235 10809
L2010 11034
L2254 11034
" />
<path d="M11290 17609
L11290 17215
L11383 17215
L11440 17234
L11477 17271
L11496 17309
L11515 17384
L11515 17440
L11496 17515
L11477 17552
L11440 17590
L11383 17609
L11290 17609
" />
<path d="M11890 17609
L11665 17609
" />
<path d="M11777 17609
L11777 17215
L11740 17271
L11702 17309
L11665 17327
" />
<path d="M5089 42324
L5145 42343
L5239 42343
L5276 42324
L5295 42305
L5314 42268
L5314 42230
L5295 42193
L5276 42174
L5239 42155
L5164 42137
L5126 42118
L5108 42099
L5089 42062
L5089 42024
L5108 41987
L5126 41968
L5164 41949
L5258 41949
L5314 41968
" />
<path d="M5689 42343
L5464 42343
" />
<path d="M5576 42343
L5576 41949
L5539 42005
L5501 42043
L5464 42062
" />
<path d="M6026 41949
L5951 41949
L5914 41968
L5895 41987
L5857 42043
L5839 42118
L5839 42268
L5857 42305
L5876 42324
L5914 42343
L5989 42343
L6026 42324
L6045 42305
L6064 42268
L6064 42174
L6045 42137
L6026 42118
L5989 42099
L5914 42099
L5876 42118
L5857 42137
L5839 42174
" />
<path d="M24016 38013
L24072 38032
L24166 38032
L24203 38013
L24222 37994
L24241 37957
L24241 37919
L24222 37882
L24203 37863
L24166 37844
L24091 37826
L24053 37807
L24035 37788
L24016 37751
L24016 37713
L24035 37676
L24053 37657
L24091 37638
L24185 37638
L24241 37657
" />
<path d="M24616 38032
L24391 38032
" />
<path d="M24503 38032
L24503 37638
L24466 37694
L24428 37732
L24391 37751
" />
<path d="M24972 37638
L24785 37638
L24766 37826
L24785 37807
L24822 37788
L24916 37788
L24953 37807
L24972 37826
L24991 37863
L24991 37957
L24972 37994
L24953 38013
L24916 38032
L24822 38032
L24785 38013
L24766 37994
" />
<path d="M19262 38043
L19318 38061
L19412 38061
L19450 38043
L19468 38024
L19487 37986
L19487 37949
L19468 37911
L19450 37893
L19412 37874
L19337 37855
L19300 37836
L19281 37818
L19262 37780
L19262 37743
L19281 37705
L19300 37687
L19337 37668
L19431 37668
L19487 37687
" />
<path d="M19862 38061
L19637 38061
" />
<path d="M19750 38061
L19750 37668
L19712 37724
L19675 37761
L19637 37780
" />
<path d="M20199 37799
L20199 38061
" />
<path d="M20106 37649
L20012 37930
L20256 37930
" />
<path d="M14518 38003
L14574 38022
L14668 38022
L14705 38003
L14724 37985
L14743 37947
L14743 37910
L14724 37872
L14705 37853
L14668 37835
L14593 37816
L14555 37797
L14537 37778
L14518 37741
L14518 37703
L14537 37666
L14555 37647
L14593 37628
L14687 37628
L14743 37647
" />
<path d="M15118 38022
L14893 38022
" />
<path d="M15005 38022
L15005 37628
L14968 37685
L14930 37722
L14893 37741
" />
<path d="M15249 37628
L15493 37628
L15362 37778
L15418 37778
L15455 37797
L15474 37816
L15493 37853
L15493 37947
L15474 37985
L15455 38003
L15418 38022
L15305 38022
L15268 38003
L15249 37985
" />
<path d="M9823 38023
L9879 38042
L9973 38042
L10011 38023
L10029 38004
L10048 37967
L10048 37929
L10029 37892
L10011 37873
L9973 37854
L9898 37836
L9861 37817
L9842 37798
L9823 37761
L9823 37723
L9842 37686
L9861 37667
L9898 37648
L9992 37648
L10048 37667
" />
<path d="M10423 38042
L10198 38042
" />
<path d="M10311 38042
L10311 37648
L10273 37704
L10236 37742
L10198 37761
" />
<path d="M10573 37686
L10592 37667
L10629 37648
L10723 37648
L10760 37667
L10779 37686
L10798 37723
L10798 37761
L10779 37817
L10554 38042
L10798 38042
" />
<path d="M5118 38033
L5175 38052
L5268 38052
L5306 38033
L5325 38014
L5343 37977
L5343 37939
L5325 37902
L5306 37883
L5268 37864
L5193 37845
L5156 37827
L5137 37808
L5118 37770
L5118 37733
L5137 37695
L5156 37677
L5193 37658
L5287 37658
L5343 37677
" />
<path d="M5718 38052
L5493 38052
" />
<path d="M5606 38052
L5606 37658
L5568 37714
L5531 37752
L5493 37770
" />
<path d="M6093 38052
L5868 38052
" />
<path d="M5981 38052
L5981 37658
L5943 37714
L5906 37752
L5868 37770
" />
<path d="M23986 33673
L24043 33691
L24136 33691
L24174 33673
L24193 33654
L24211 33616
L24211 33579
L24193 33541
L24174 33523
L24136 33504
L24061 33485
L24024 33466
L24005 33448
L23986 33410
L23986 33373
L24005 33335
L24024 33316
L24061 33298
L24155 33298
L24211 33316
" />
<path d="M24586 33691
L24361 33691
" />
<path d="M24474 33691
L24474 33298
L24436 33354
L24399 33391
L24361 33410
" />
<path d="M24830 33298
L24868 33298
L24905 33316
L24924 33335
L24943 33373
L24961 33448
L24961 33541
L24943 33616
L24924 33654
L24905 33673
L24868 33691
L24830 33691
L24793 33673
L24774 33654
L24755 33616
L24736 33541
L24736 33448
L24755 33373
L24774 33335
L24793 33316
L24830 33298
" />
<path d="M19548 33682
L19604 33701
L19698 33701
L19735 33682
L19754 33664
L19773 33626
L19773 33589
L19754 33551
L19735 33532
L19698 33514
L19623 33495
L19585 33476
L19567 33458
L19548 33420
L19548 33383
L19567 33345
L19585 33326
L19623 33308
L19717 33308
L19773 33326
" />
<path d="M19960 33701
L20035 33701
L20073 33682
L20092 33664
L20129 33607
L20148 33532
L20148 33383
L20129 33345
L20110 33326
L20073 33308
L19998 33308
L19960 33326
L19942 33345
L19923 33383
L19923 33476
L19942 33514
L19960 33532
L19998 33551
L20073 33551
L20110 33532
L20129 33514
L20148 33476
" />
<path d="M14824 33712
L14880 33731
L14974 33731
L15011 33712
L15030 33693
L15049 33656
L15049 33618
L15030 33581
L15011 33562
L14974 33543
L14899 33525
L14861 33506
L14842 33487
L14824 33450
L14824 33412
L14842 33375
L14861 33356
L14899 33337
L14992 33337
L15049 33356
" />
<path d="M15273 33506
L15236 33487
L15217 33468
L15199 33431
L15199 33412
L15217 33375
L15236 33356
L15273 33337
L15348 33337
L15386 33356
L15405 33375
L15423 33412
L15423 33431
L15405 33468
L15386 33487
L15348 33506
L15273 33506
L15236 33525
L15217 33543
L15199 33581
L15199 33656
L15217 33693
L15236 33712
L15273 33731
L15348 33731
L15386 33712
L15405 33693
L15423 33656
L15423 33581
L15405 33543
L15386 33525
L15348 33506
" />
<path d="M10129 33712
L10185 33731
L10279 33731
L10316 33712
L10335 33693
L10354 33656
L10354 33618
L10335 33581
L10316 33562
L10279 33543
L10204 33525
L10166 33506
L10147 33487
L10129 33450
L10129 33412
L10147 33375
L10166 33356
L10204 33337
L10297 33337
L10354 33356
" />
<path d="M10485 33337
L10747 33337
L10579 33731
" />
<path d="M5375 33663
L5431 33682
L5525 33682
L5562 33663
L5581 33644
L5600 33607
L5600 33569
L5581 33532
L5562 33513
L5525 33494
L5450 33475
L5412 33457
L5393 33438
L5375 33400
L5375 33363
L5393 33325
L5412 33307
L5450 33288
L5543 33288
L5600 33307
" />
<path d="M5937 33288
L5862 33288
L5825 33307
L5806 33325
L5768 33382
L5750 33457
L5750 33607
L5768 33644
L5787 33663
L5825 33682
L5900 33682
L5937 33663
L5956 33644
L5975 33607
L5975 33513
L5956 33475
L5937 33457
L5900 33438
L5825 33438
L5787 33457
L5768 33475
L5750 33513
" />
<path d="M19568 29381
L19624 29400
L19718 29400
L19755 29381
L19774 29363
L19793 29325
L19793 29288
L19774 29250
L19755 29231
L19718 29213
L19643 29194
L19605 29175
L19586 29156
L19568 29119
L19568 29081
L19586 29044
L19605 29025
L19643 29006
L19736 29006
L19793 29025
" />
<path d="M20130 29138
L20130 29400
" />
<path d="M20036 28988
L19943 29269
L20186 29269
" />
<path d="M14833 29381
L14890 29400
L14983 29400
L15021 29381
L15040 29363
L15058 29325
L15058 29288
L15040 29250
L15021 29231
L14983 29213
L14908 29194
L14871 29175
L14852 29156
L14833 29119
L14833 29081
L14852 29044
L14871 29025
L14908 29006
L15002 29006
L15058 29025
" />
<path d="M15190 29006
L15433 29006
L15302 29156
L15358 29156
L15396 29175
L15415 29194
L15433 29231
L15433 29325
L15415 29363
L15396 29381
L15358 29400
L15246 29400
L15208 29381
L15190 29363
" />
<path d="M10089 29381
L10146 29400
L10239 29400
L10277 29381
L10296 29363
L10314 29325
L10314 29288
L10296 29250
L10277 29231
L10239 29213
L10164 29194
L10127 29175
L10108 29156
L10089 29119
L10089 29081
L10108 29044
L10127 29025
L10164 29006
L10258 29006
L10314 29025
" />
<path d="M10464 29044
L10483 29025
L10520 29006
L10614 29006
L10652 29025
L10670 29044
L10689 29081
L10689 29119
L10670 29175
L10446 29400
L10689 29400
" />
<path d="M5375 29332
L5431 29351
L5525 29351
L5562 29332
L5581 29313
L5600 29276
L5600 29238
L5581 29201
L5562 29182
L5525 29163
L5450 29145
L5412 29126
L5393 29107
L5375 29070
L5375 29032
L5393 28995
L5412 28976
L5450 28957
L5543 28957
L5600 28976
" />
<path d="M5975 29351
L5750 29351
" />
<path d="M5862 29351
L5862 28957
L5825 29013
L5787 29051
L5750 29070
" />
<path d="M14380 17628
L14380 17235
L14474 17235
L14530 17253
L14568 17291
L14586 17328
L14605 17403
L14605 17460
L14586 17535
L14568 17572
L14530 17610
L14474 17628
L14380 17628
" />
<path d="M14943 17366
L14943 17628
" />
<path d="M14849 17216
L14755 17497
L14999 17497
" />
<path d="M13396 17628
L13396 17235
L13490 17235
L13546 17253
L13583 17291
L13602 17328
L13621 17403
L13621 17460
L13602 17535
L13583 17572
L13546 17610
L13490 17628
L13396 17628
" />
<path d="M13752 17235
L13996 17235
L13865 17385
L13921 17385
L13958 17403
L13977 17422
L13996 17460
L13996 17553
L13977 17591
L13958 17610
L13921 17628
L13808 17628
L13771 17610
L13752 17591
" />
<path d="M12303 17628
L12303 17235
L12397 17235
L12453 17253
L12491 17291
L12510 17328
L12528 17403
L12528 17460
L12510 17535
L12491 17572
L12453 17610
L12397 17628
L12303 17628
" />
<path d="M12678 17272
L12697 17253
L12735 17235
L12828 17235
L12866 17253
L12885 17272
L12903 17310
L12903 17347
L12885 17403
L12660 17628
L12903 17628
" />
</g>
<g style="fill:#000000; fill-opacity:0.0; 
stroke:#000000; stroke-width:59.0551; stroke-opacity:1; 
stroke-linecap:round; stroke-linejoin:round;">
</g>
<g style="fill:#C2C200; fill-opacity:0.0; 
stroke:#C2C200; stroke-width:59.0551; stroke-opacity:1; 
stroke-linecap:round; stroke-linejoin:round;">
</g>
<g style="fill:#C2C200; fill-opacity:0.0; 
stroke:#C2C200; stroke-width:78.7402; stroke-opacity:1; 
stroke-linecap:round; stroke-linejoin:round;">
<path d="M2082.68 19143.7 A984.252 984.252 0.0 0 0 1478.51 18235.8 " />
<path d="M39.3705 16978.3 A984.252 984.252 0.0 0 0 643.542 17886.3 " />
<path d="M31985.9 27457.2 A1968.5 1968.5 0.0 0 0 32003.9 27191.2 " />
<path d="M2082.68 27191.2 A1968.5 1968.5 0.0 0 0 2100.73 27457.2 " />
<path d="M32866 1340
L1220 1340
" />
<path d="M31985 27457
L29781 43626
" />
<path d="M39 2521
L39 16978
" />
<path d="M4305 43626
L2100 27457
" />
<path d="M5475 44647
L28610 44647
" />
<path d="M32608.1 18235.8 A984.252 984.252 0.0 0 0 32003.9 19143.7 " />
<path d="M33443.1 17886.3 A984.252 984.252 0.0 0 0 34047.2 16978.3 " />
<path d="M34047 16978
L34047 2521
" />
<path d="M32003 27191
L32003 19143
" />
<path d="M1220.47 1340.55 A1181.1 1181.1 0.0 0 0 39.3705 2521.65 " />
<path d="M2082 27191
L2082 19143
" />
<path d="M34047.2 2521.65 A1181.1 1181.1 0.0 0 0 32866.1 1340.55 " />
<path d="M643 17886
L1478 18235
" />
<path d="M33443 17886
L32608 18235
" />
<path d="M4305.58 43626.1 A1181.1 1181.1 0.0 0 0 5475.86 44647.6 " />
<path d="M28610.8 44647.6 A1181.1 1181.1 0.0 0 0 29781 43626.1 " />
</g> 
</svg>
