G04 #@! TF.GenerationSoftware,KiCad,Pcbnew,(5.0.0-3-g5ebb6b6)*
G04 #@! TF.CreationDate,2018-10-18T19:01:18-06:00*
G04 #@! TF.ProjectId,teensy_beats,7465656E73795F62656174732E6B6963,rev?*
G04 #@! TF.SameCoordinates,Original*
G04 #@! TF.FileFunction,Soldermask,Bot*
G04 #@! TF.FilePolarity,Negative*
%FSLAX46Y46*%
G04 Gerber Fmt 4.6, Leading zero omitted, Abs format (unit mm)*
G04 Created by KiCad (PCBNEW (5.0.0-3-g5ebb6b6)) date Thursday, October 18, 2018 at 07:01:18 PM*
%MOMM*%
%LPD*%
G01*
G04 APERTURE LIST*
%ADD10C,0.100000*%
%ADD11O,1.400000X1.400000*%
%ADD12R,1.400000X1.400000*%
%ADD13C,5.600000*%
%ADD14R,1.924000X1.924000*%
%ADD15C,1.924000*%
%ADD16C,2.000000*%
%ADD17R,2.000000X2.000000*%
%ADD18R,1.600000X2.200000*%
%ADD19R,1.000000X1.950000*%
%ADD20C,1.400000*%
%ADD21O,2.100000X1.600000*%
%ADD22R,2.100000X1.600000*%
%ADD23O,2.900000X2.200000*%
%ADD24O,2.200000X2.900000*%
%ADD25C,1.600000*%
%ADD26O,5.400000X2.800000*%
%ADD27O,1.950000X2.600000*%
%ADD28C,2.450000*%
%ADD29C,2.100000*%
%ADD30C,2.600000*%
%ADD31C,2.200000*%
%ADD32C,2.800000*%
%ADD33C,2.400000*%
G04 APERTURE END LIST*
D10*
G04 #@! TO.C,SW5*
X120393000Y-42500000D02*
G75*
G03X120393000Y-42500000I-1143000J0D01*
G01*
X125889000Y-40000000D02*
G75*
G03X125889000Y-40000000I-889000J0D01*
G01*
X121389000Y-40000000D02*
G75*
G03X121389000Y-40000000I-889000J0D01*
G01*
X127393000Y-42500000D02*
G75*
G03X127393000Y-42500000I-1143000J0D01*
G01*
G04 #@! TD*
D11*
G04 #@! TO.C,J4*
X123370000Y-43250000D03*
D12*
X122100000Y-43250000D03*
G04 #@! TD*
D13*
G04 #@! TO.C,U3*
X130990000Y-40280000D03*
X130990000Y-77000000D03*
X63730000Y-77000000D03*
X63730000Y-40280000D03*
D14*
X58810000Y-42130000D03*
D15*
X58810000Y-72610000D03*
X58810000Y-70070000D03*
X58810000Y-67530000D03*
X58810000Y-64990000D03*
X58810000Y-62450000D03*
X58810000Y-59910000D03*
X58810000Y-57370000D03*
X58810000Y-54830000D03*
X58810000Y-52290000D03*
X58810000Y-49750000D03*
X58810000Y-47210000D03*
X58810000Y-44670000D03*
X58810000Y-75150000D03*
G04 #@! TD*
D16*
G04 #@! TO.C,U1*
X128510000Y-63830000D03*
X131050000Y-63830000D03*
X133590000Y-63830000D03*
X138670000Y-63830000D03*
X141210000Y-66370000D03*
X138670000Y-66370000D03*
X133590000Y-66370000D03*
X131050000Y-66370000D03*
X128510000Y-66370000D03*
X125970000Y-66370000D03*
X123430000Y-66370000D03*
X120890000Y-66370000D03*
X118350000Y-66370000D03*
X115810000Y-66370000D03*
X113270000Y-66370000D03*
X110730000Y-66370000D03*
X108190000Y-66370000D03*
X105650000Y-66370000D03*
X103110000Y-66370000D03*
D17*
X141210000Y-51130000D03*
D16*
X138670000Y-51130000D03*
X136130000Y-51130000D03*
X133590000Y-51130000D03*
X131050000Y-51130000D03*
X128510000Y-51130000D03*
X125970000Y-51130000D03*
X123430000Y-51130000D03*
X120890000Y-51130000D03*
X118350000Y-51130000D03*
X115810000Y-51130000D03*
X113270000Y-51130000D03*
X110730000Y-51130000D03*
X100570000Y-66370000D03*
X98030000Y-66370000D03*
X95490000Y-66370000D03*
X92950000Y-66370000D03*
X90410000Y-66370000D03*
X87870000Y-66370000D03*
X85330000Y-66370000D03*
X82790000Y-66370000D03*
X82790000Y-51130000D03*
X85330000Y-51130000D03*
X87870000Y-51130000D03*
X90410000Y-51130000D03*
X108190000Y-51130000D03*
X105650000Y-51130000D03*
X103110000Y-51130000D03*
X92950000Y-51130000D03*
X95490000Y-51130000D03*
X98030000Y-51130000D03*
X100570000Y-51130000D03*
G04 #@! TD*
D18*
G04 #@! TO.C,J3*
X121050000Y-60237500D03*
X115450000Y-60237500D03*
D19*
X119750000Y-57712500D03*
X118750000Y-57712500D03*
X117750000Y-57712500D03*
X116750000Y-57712500D03*
G04 #@! TD*
D20*
G04 #@! TO.C,TP5*
X134025000Y-86075000D03*
G04 #@! TD*
G04 #@! TO.C,TP4*
X104875000Y-48950000D03*
G04 #@! TD*
G04 #@! TO.C,TP3*
X132250000Y-84075000D03*
G04 #@! TD*
D21*
G04 #@! TO.C,J1*
X135200000Y-70600000D03*
D22*
X135200000Y-72600000D03*
G04 #@! TD*
D23*
G04 #@! TO.C,J2*
X90000000Y-41790000D03*
D24*
X85000000Y-46790000D03*
X95000000Y-46790000D03*
X87500000Y-46790000D03*
X92500000Y-46790000D03*
D25*
X95000000Y-41790000D03*
X95000000Y-39290000D03*
X85000000Y-39290000D03*
X85000000Y-41790000D03*
D26*
X90000000Y-37290000D03*
D25*
X90000000Y-46790000D03*
G04 #@! TD*
D27*
G04 #@! TO.C,SW1*
X73000000Y-86500000D03*
D28*
X73000000Y-91000000D03*
G04 #@! TD*
D27*
G04 #@! TO.C,SW3*
X109000000Y-86500000D03*
D28*
X109000000Y-91000000D03*
G04 #@! TD*
D27*
G04 #@! TO.C,SW2*
X91000000Y-86500000D03*
D28*
X91000000Y-91000000D03*
G04 #@! TD*
D27*
G04 #@! TO.C,SW4*
X127000000Y-86500000D03*
D28*
X127000000Y-91000000D03*
G04 #@! TD*
D29*
G04 #@! TO.C,SW5*
X120500000Y-40000000D03*
X125000000Y-40000000D03*
D30*
X119250000Y-42500000D03*
X126250000Y-42500000D03*
G04 #@! TD*
D31*
G04 #@! TO.C,MK1*
X136100000Y-43500000D03*
X136100000Y-46000000D03*
G04 #@! TD*
D32*
G04 #@! TO.C,RV1*
X80000000Y-39750000D03*
X70000000Y-39750000D03*
D33*
X71000000Y-49750000D03*
X75000000Y-49750000D03*
X79000000Y-49750000D03*
G04 #@! TD*
M02*
