M48
;DRILL file {KiCad (5.0.0-3-g5ebb6b6)} date Thursday, October 18, 2018 at 07:01:20 PM
;FORMAT={-:-/ absolute / inch / decimal}
FMAT,2
INCH,TZ
T1C0.0157
T2C0.0256
T3C0.0295
T4C0.0300
T5C0.0315
T6C0.0394
T7C0.0433
T8C0.0512
T9C0.0551
T10C0.1260
%
G90
G05
M72
T1
X2.3346Y-3.0551
X2.3386Y-1.563
X2.376Y-1.8169
X2.376Y-2.1063
X2.3839Y-1.7756
X2.3839Y-1.8583
X2.4114Y-2.1299
X2.4537Y-2.2146
X2.4656Y-2.2894
X2.498Y-1.8937
X2.502Y-2.7736
X2.5079Y-2.4587
X2.5157Y-4.1161
X2.5197Y-3.2756
X2.5217Y-2.2224
X2.5217Y-2.6122
X2.5315Y-2.5207
X2.5394Y-2.0138
X2.5453Y-2.4094
X2.563Y-4.2717
X2.5669Y-2.2067
X2.5709Y-3.2756
X2.5827Y-4.4803
X2.6024Y-2.3563
X2.6319Y-4.9843
X2.6339Y-3.4469
X2.6417Y-4.1614
X2.6437Y-1.8839
X2.6545Y-2.8415
X2.6673Y-2.1535
X2.6713Y-2.4252
X2.6722Y-3.1722
X2.6732Y-2.7894
X2.6742Y-2.5207
X2.6772Y-2.6378
X2.6969Y-3.3976
X2.7047Y-2.0157
X2.7106Y-5.4902
X2.7382Y-3.1033
X2.75Y-2.5079
X2.752Y-5.0276
X2.7559Y-5.4094
X2.7697Y-3.4921
X2.7697Y-3.5256
X2.7697Y-3.5591
X2.7726Y-2.751
X2.7835Y-4.5669
X2.811Y-2.5846
X2.815Y-2.3071
X2.8169Y-2.1063
X2.8228Y-2.6929
X2.8228Y-3.185
X2.8248Y-4.2717
X2.8248Y-4.7047
X2.8248Y-5.1378
X2.8248Y-5.5709
X2.8297Y-2.8474
X2.8406Y-2.2441
X2.8504Y-1.7205
X2.8622Y-4.2264
X2.8642Y-3.4902
X2.8701Y-2.4055
X2.874Y-2.9104
X2.8898Y-4.3996
X2.8917Y-5.3661
X2.9049Y-2.5892
X2.9055Y-3.8917
X2.9154Y-2.6752
X2.9232Y-4.0945
X2.9232Y-4.9606
X2.9301Y-3.1929
X2.9646Y-1.5591
X2.9665Y-4.252
X2.9843Y-2.2697
X2.9862Y-3.687
X2.9862Y-4.685
X2.9902Y-5.5512
X2.9921Y-5.7323
X2.997Y-3.0394
X2.998Y-2.502
X2.999Y-2.7707
X3.Y-5.124
X3.0059Y-2.1811
X3.0167Y-2.7156
X3.0376Y-2.8363
X3.0571Y-1.7146
X3.061Y-4.4488
X3.061Y-5.315
X3.0669Y-2.2697
X3.0669Y-3.7382
X3.0866Y-3.4213
X3.0965Y-3.1693
X3.1004Y-2.4528
X3.124Y-3.0246
X3.1339Y-2.6614
X3.1423Y-3.4315
X3.1476Y-4.252
X3.1565Y-2.8799
X3.1752Y-2.2087
X3.1791Y-2.0945
X3.189Y-2.313
X3.1929Y-1.9665
X3.1949Y-2.6604
X3.2224Y-5.2579
X3.2244Y-4.3957
X3.2283Y-3.7677
X3.2283Y-3.9213
X3.2283Y-4.8268
X3.2402Y-1.8386
X3.2618Y-1.6004
X3.2756Y-3.4449
X3.2972Y-4.2717
X3.2972Y-4.7047
X3.2972Y-5.1378
X3.2972Y-5.5709
X3.3071Y-2.0906
X3.3081Y-2.6713
X3.3169Y-3.0679
X3.3563Y-2.875
X3.374Y-2.2028
X3.3937Y-2.2854
X3.3957Y-4.0945
X3.3957Y-4.9606
X3.3976Y-3.7283
X3.4154Y-4.252
X3.4183Y-2.8642
X3.4331Y-1.5945
X3.4331Y-1.685
X3.439Y-3.1722
X3.4606Y-3.0689
X3.4646Y-5.1181
X3.4646Y-5.5571
X3.4665Y-4.6909
X3.4843Y-3.4114
X3.4843Y-3.9469
X3.5059Y-1.8937
X3.5118Y-2.7874
X3.5187Y-3.065
X3.5335Y-4.4488
X3.5335Y-5.315
X3.5472Y-2.8898
X3.5512Y-2.5295
X3.565Y-3.0689
X3.565Y-3.1909
X3.5807Y-1.8937
X3.5807Y-3.7146
X3.5827Y-3.9134
X3.6102Y-2.7657
X3.6496Y-1.5945
X3.6988Y-4.2579
X3.6988Y-4.3996
X3.6988Y-4.8268
X3.6988Y-5.2618
X3.7008Y-5.7323
X3.7028Y-2.5335
X3.7087Y-2.7323
X3.7205Y-2.2028
X3.7441Y-2.9764
X3.7697Y-4.7047
X3.7697Y-5.1378
X3.7697Y-5.561
X3.7756Y-3.4213
X3.8071Y-1.5197
X3.8091Y-2.6909
X3.8228Y-1.6555
X3.8268Y-1.8504
X3.8297Y-1.7018
X3.8484Y-3.0787
X3.8543Y-2.8858
X3.8583Y-1.5807
X3.8681Y-4.0945
X3.8681Y-4.9616
X3.878Y-3.0059
X3.9104Y-2.753
X3.9114Y-2.5354
X3.9213Y-1.5118
X3.9311Y-5.1181
X3.9311Y-5.561
X3.9331Y-4.687
X3.937Y-3.7598
X3.937Y-3.9134
X3.9429Y-4.252
X3.9449Y-3.0571
X3.9469Y-2.2008
X3.9646Y-2.0925
X3.9941Y-1.7953
X4.002Y-3.189
X4.002Y-3.2913
X4.0059Y-4.4488
X4.0059Y-5.315
X4.0256Y-2.9449
X4.0394Y-1.6555
X4.0512Y-2.0945
X4.0531Y-3.0571
X4.065Y-1.7343
X4.0689Y-1.7736
X4.0699Y-2.4459
X4.0787Y-2.878
X4.1142Y-4.2618
X4.1358Y-2.9469
X4.1555Y-2.2106
X4.1654Y-4.3996
X4.1673Y-4.8287
X4.1673Y-5.7382
X4.1683Y-2.5344
X4.1695Y-1.5549
X4.1732Y-5.2618
X4.1762Y-2.8317
X4.1762Y-2.8809
X4.1772Y-1.687
X4.178Y-1.6528
X4.178Y-1.7207
X4.1929Y-3.9469
X4.2008Y-2.8563
X4.2067Y-3.3957
X4.2126Y-1.6516
X4.2126Y-1.687
X4.2126Y-1.7205
X4.2254Y-2.8317
X4.2254Y-2.8809
X4.2303Y-2.4203
X4.2303Y-3.1378
X4.2307Y-1.554
X4.2421Y-3.6555
X4.2421Y-4.7047
X4.2421Y-5.1378
X4.2421Y-5.5709
X4.2459Y-1.6528
X4.2459Y-1.7207
X4.2461Y-1.687
X4.2559Y-2.0866
X4.2559Y-2.1831
X4.2657Y-2.7638
X4.27Y-1.5556
X4.2795Y-1.9173
X4.2854Y-3.811
X4.2854Y-3.9291
X4.2894Y-3.1339
X4.2894Y-3.1713
X4.2953Y-2.9587
X4.315Y-1.5138
X4.3169Y-1.5571
X4.3386Y-2.5394
X4.3406Y-4.0945
X4.3406Y-4.9606
X4.3465Y-2.1181
X4.3543Y-2.3415
X4.3622Y-2.2717
X4.3661Y-3.5374
X4.3692Y-1.9115
X4.3937Y-3.1713
X4.4035Y-4.687
X4.4055Y-2.4055
X4.4075Y-4.2559
X4.4094Y-5.1181
X4.4094Y-5.5512
X4.4161Y-1.8455
X4.4199Y-1.7671
X4.4311Y-1.5925
X4.4429Y-3.3898
X4.4449Y-2.5039
X4.4449Y-2.8169
X4.4459Y-3.1673
X4.4469Y-2.9882
X4.4469Y-3.0846
X4.4488Y-1.685
X4.4547Y-2.7736
X4.4783Y-4.4488
X4.4783Y-5.315
X4.4793Y-2.9557
X4.4803Y-1.5197
X4.4811Y-1.9006
X4.4882Y-2.4843
X4.4999Y-2.1003
X4.5059Y-3.1693
X4.5295Y-1.6831
X4.5315Y-2.1575
X4.5394Y-3.4311
X4.5512Y-2.2736
X4.5748Y-3.2146
X4.5827Y-2.4665
X4.5848Y-1.8767
X4.5866Y-4.2618
X4.622Y-3.2657
X4.6339Y-1.6083
X4.6378Y-1.5197
X4.6417Y-3.8386
X4.6417Y-3.9331
X4.6417Y-4.6929
X4.6417Y-4.8307
X4.6417Y-5.2618
X4.6449Y-2.8583
X4.6461Y-1.7402
X4.6575Y-2.8976
X4.6772Y-2.5
X4.685Y-3.2106
X4.687Y-2.7776
X4.6959Y-2.9705
X4.7026Y-2.9127
X4.7146Y-4.7047
X4.7146Y-5.1378
X4.7146Y-5.5709
X4.7185Y-2.1043
X4.7234Y-3.0965
X4.7323Y-3.1673
X4.748Y-2.8169
X4.748Y-2.9724
X4.7992Y-1.9291
X4.8011Y-2.8647
X4.8011Y-2.9139
X4.8012Y-2.4567
X4.8031Y-2.2579
X4.8091Y-2.7776
X4.813Y-4.0945
X4.813Y-4.9606
X4.815Y-2.7343
X4.8189Y-3.7441
X4.8277Y-2.8893
X4.8287Y-1.5315
X4.8503Y-2.8647
X4.8503Y-2.9139
X4.8543Y-2.5
X4.8642Y-3.0167
X4.874Y-3.1693
X4.874Y-4.687
X4.876Y-3.5374
X4.876Y-5.7185
X4.8839Y-3.2244
X4.8839Y-5.1181
X4.8839Y-5.5571
X4.8976Y-3.9528
X4.9016Y-2.9646
X4.9094Y-3.7087
X4.9154Y-3.3878
X4.9203Y-3.0325
X4.935Y-1.8996
X4.9478Y-2.8898
X4.9508Y-4.4488
X4.9508Y-5.315
X4.9587Y-1.7795
X4.9587Y-2.2756
X4.9587Y-3.9291
X4.9626Y-2.0866
X4.9654Y-2.3799
X4.9815Y-2.4272
X4.9843Y-2.7441
X5.0098Y-4.2717
X5.0157Y-2.8543
X5.0213Y-1.8069
X5.0315Y-1.5118
X5.0374Y-2.9469
X5.0453Y-1.8445
X5.0502Y-3.1713
X5.0531Y-2.878
X5.061Y-1.6988
X5.0778Y-3.3868
X5.0787Y-2.3898
X5.0906Y-2.1161
X5.0925Y-3.9508
X5.0984Y-1.9193
X5.1024Y-2.2638
X5.1575Y-5.4705
X5.1732Y-2.3622
X5.1949Y-4.6772
X5.2106Y-3.4587
X5.2343Y-4.876
X5.2362Y-3.1575
X5.2598Y-1.7047
X5.2854Y-4.4488
X5.2874Y-1.9154
X5.2992Y-2.3799
X5.311Y-4.1299
X5.313Y-1.6004
X5.315Y-3.128
X5.3307Y-3.7677
X5.3441Y-2.2177
X5.3484Y-2.1327
X5.3642Y-3.4252
X5.3839Y-3.2677
X5.3839Y-3.3445
X5.3957Y-2.3031
X5.3957Y-2.6407
X5.3957Y-2.7894
X5.3957Y-2.8258
X5.3967Y-2.8642
X5.4321Y-2.8238
X5.4457Y-1.7713
X5.4488Y-1.628
X5.4783Y-2.6811
X5.565Y-1.9035
X5.5681Y-2.3091
X5.5689Y-2.1122
X5.5709Y-2.5197
X5.5787Y-3.0266
X5.5807Y-1.624
X5.5807Y-2.9449
X5.5827Y-2.874
T2
X4.8071Y-1.7028
X4.8571Y-1.7028
T3
X5.3228Y-2.7795
X5.3228Y-2.8583
T4
X2.3154Y-1.6587
X2.3154Y-1.7587
X2.3154Y-1.8587
X2.3154Y-1.9587
X2.3154Y-2.0587
X2.3154Y-2.1587
X2.3154Y-2.2587
X2.3154Y-2.3587
X2.3154Y-2.4587
X2.3154Y-2.5587
X2.3154Y-2.6587
X2.3154Y-2.7587
X2.3154Y-2.8587
X2.3154Y-2.9587
T5
X5.3583Y-1.7126
X5.3583Y-1.811
T6
X4.7441Y-1.5748
X4.9213Y-1.5748
X2.7953Y-1.9587
X2.9528Y-1.9587
X3.1102Y-1.9587
T7
X3.2594Y-2.013
X3.2594Y-2.613
X3.3594Y-2.013
X3.3594Y-2.613
X3.4594Y-2.013
X3.4594Y-2.613
X3.5594Y-2.013
X3.5594Y-2.613
X3.6594Y-2.013
X3.6594Y-2.613
X3.7594Y-2.013
X3.7594Y-2.613
X3.8594Y-2.013
X3.8594Y-2.613
X3.9594Y-2.013
X3.9594Y-2.613
X4.0594Y-2.013
X4.0594Y-2.613
X4.1594Y-2.013
X4.1594Y-2.613
X4.2594Y-2.013
X4.2594Y-2.613
X4.3594Y-2.013
X4.3594Y-2.613
X4.4594Y-2.013
X4.4594Y-2.613
X4.5594Y-2.013
X4.5594Y-2.613
X4.6594Y-2.013
X4.6594Y-2.613
X4.7594Y-2.013
X4.7594Y-2.613
X4.8594Y-2.013
X4.8594Y-2.613
X4.9594Y-2.013
X4.9594Y-2.613
X5.0594Y-2.013
X5.0594Y-2.513
X5.0594Y-2.613
X5.1594Y-2.013
X5.1594Y-2.513
X5.1594Y-2.613
X5.2594Y-2.013
X5.2594Y-2.513
X5.2594Y-2.613
X5.3594Y-2.013
X5.4594Y-2.013
X5.4594Y-2.513
X5.4594Y-2.613
X5.5594Y-2.013
X5.5594Y-2.613
T8
X4.6949Y-1.6732
X4.9705Y-1.6732
T9
X2.7559Y-1.565
X3.1496Y-1.565
T10
X2.5091Y-1.5858
X2.5091Y-3.0315
X5.1571Y-1.5858
X5.1571Y-3.0315
T5
X3.3465Y-1.8283G85X3.3465Y-1.8559
G05
X3.4449Y-1.8283G85X3.4449Y-1.8559
G05
X3.5571Y-1.6453G85X3.5295Y-1.6453
G05
X3.6417Y-1.8283G85X3.6417Y-1.8559
G05
X3.7402Y-1.8283G85X3.7402Y-1.8559
G05
T0
M30
