G04 #@! TF.GenerationSoftware,KiCad,Pcbnew,(5.0.0-3-g5ebb6b6)*
G04 #@! TF.CreationDate,2018-10-18T19:01:18-06:00*
G04 #@! TF.ProjectId,teensy_beats,7465656E73795F62656174732E6B6963,rev?*
G04 #@! TF.SameCoordinates,Original*
G04 #@! TF.FileFunction,Copper,L2,Bot,Signal*
G04 #@! TF.FilePolarity,Positive*
%FSLAX46Y46*%
G04 Gerber Fmt 4.6, Leading zero omitted, Abs format (unit mm)*
G04 Created by KiCad (PCBNEW (5.0.0-3-g5ebb6b6)) date Thursday, October 18, 2018 at 07:01:18 PM*
%MOMM*%
%LPD*%
G01*
G04 APERTURE LIST*
G04 #@! TA.AperFunction,ComponentPad*
%ADD10O,1.000000X1.000000*%
G04 #@! TD*
G04 #@! TA.AperFunction,ComponentPad*
%ADD11R,1.000000X1.000000*%
G04 #@! TD*
G04 #@! TA.AperFunction,ComponentPad*
%ADD12C,5.200000*%
G04 #@! TD*
G04 #@! TA.AperFunction,ComponentPad*
%ADD13R,1.524000X1.524000*%
G04 #@! TD*
G04 #@! TA.AperFunction,ComponentPad*
%ADD14C,1.524000*%
G04 #@! TD*
G04 #@! TA.AperFunction,ComponentPad*
%ADD15C,1.600000*%
G04 #@! TD*
G04 #@! TA.AperFunction,ComponentPad*
%ADD16R,1.600000X1.600000*%
G04 #@! TD*
G04 #@! TA.AperFunction,SMDPad,CuDef*
%ADD17R,1.200000X1.800000*%
G04 #@! TD*
G04 #@! TA.AperFunction,SMDPad,CuDef*
%ADD18R,0.600000X1.550000*%
G04 #@! TD*
G04 #@! TA.AperFunction,BGAPad,CuDef*
%ADD19C,1.000000*%
G04 #@! TD*
G04 #@! TA.AperFunction,ComponentPad*
%ADD20O,1.700000X1.200000*%
G04 #@! TD*
G04 #@! TA.AperFunction,ComponentPad*
%ADD21R,1.700000X1.200000*%
G04 #@! TD*
G04 #@! TA.AperFunction,ComponentPad*
%ADD22O,2.500000X1.800000*%
G04 #@! TD*
G04 #@! TA.AperFunction,ComponentPad*
%ADD23O,1.800000X2.500000*%
G04 #@! TD*
G04 #@! TA.AperFunction,ComponentPad*
%ADD24C,1.700000*%
G04 #@! TD*
G04 #@! TA.AperFunction,ComponentPad*
%ADD25C,2.200000*%
G04 #@! TD*
G04 #@! TA.AperFunction,ComponentPad*
%ADD26C,1.800000*%
G04 #@! TD*
G04 #@! TA.AperFunction,ComponentPad*
%ADD27C,2.400000*%
G04 #@! TD*
G04 #@! TA.AperFunction,ComponentPad*
%ADD28C,2.000000*%
G04 #@! TD*
G04 #@! TA.AperFunction,ViaPad*
%ADD29C,0.800000*%
G04 #@! TD*
G04 #@! TA.AperFunction,Conductor*
%ADD30C,0.250000*%
G04 #@! TD*
G04 #@! TA.AperFunction,Conductor*
%ADD31C,0.500000*%
G04 #@! TD*
G04 #@! TA.AperFunction,Conductor*
%ADD32C,0.254000*%
G04 #@! TD*
G04 APERTURE END LIST*
D10*
G04 #@! TO.P,J4,2*
G04 #@! TO.N,+BATT*
X123370000Y-43250000D03*
D11*
G04 #@! TO.P,J4,1*
G04 #@! TO.N,Net-(D6-Pad3)*
X122100000Y-43250000D03*
G04 #@! TD*
D12*
G04 #@! TO.P,U3,*
G04 #@! TO.N,*
X130990000Y-40280000D03*
X130990000Y-77000000D03*
X63730000Y-77000000D03*
X63730000Y-40280000D03*
D13*
G04 #@! TO.P,U3,1*
G04 #@! TO.N,+5V*
X58810000Y-42130000D03*
D14*
G04 #@! TO.P,U3,13*
G04 #@! TO.N,MISO*
X58810000Y-72610000D03*
G04 #@! TO.P,U3,12*
G04 #@! TO.N,MOSI*
X58810000Y-70070000D03*
G04 #@! TO.P,U3,11*
G04 #@! TO.N,TOUCH_CS*
X58810000Y-67530000D03*
G04 #@! TO.P,U3,10*
G04 #@! TO.N,SCLK*
X58810000Y-64990000D03*
G04 #@! TO.P,U3,9*
G04 #@! TO.N,MISO*
X58810000Y-62450000D03*
G04 #@! TO.P,U3,8*
G04 #@! TO.N,Net-(R2-Pad2)*
X58810000Y-59910000D03*
G04 #@! TO.P,U3,7*
G04 #@! TO.N,SCLK*
X58810000Y-57370000D03*
G04 #@! TO.P,U3,6*
G04 #@! TO.N,MOSI*
X58810000Y-54830000D03*
G04 #@! TO.P,U3,5*
G04 #@! TO.N,TFT_DC*
X58810000Y-52290000D03*
G04 #@! TO.P,U3,4*
G04 #@! TO.N,+3V3*
X58810000Y-49750000D03*
G04 #@! TO.P,U3,3*
G04 #@! TO.N,TFT_CS*
X58810000Y-47210000D03*
G04 #@! TO.P,U3,2*
G04 #@! TO.N,GND*
X58810000Y-44670000D03*
G04 #@! TO.P,U3,14*
G04 #@! TO.N,TOUCH_IRQ*
X58810000Y-75150000D03*
G04 #@! TD*
D15*
G04 #@! TO.P,U1,57*
G04 #@! TO.N,PWR_BTN*
X128510000Y-63830000D03*
G04 #@! TO.P,U1,56*
G04 #@! TO.N,BATT_LEVEL*
X131050000Y-63830000D03*
G04 #@! TO.P,U1,55*
G04 #@! TO.N,Net-(U1-Pad55)*
X133590000Y-63830000D03*
G04 #@! TO.P,U1,54*
G04 #@! TO.N,VBUS*
X138670000Y-63830000D03*
G04 #@! TO.P,U1,53*
G04 #@! TO.N,+5V*
X141210000Y-66370000D03*
G04 #@! TO.P,U1,52*
G04 #@! TO.N,AGND*
X138670000Y-66370000D03*
G04 #@! TO.P,U1,50*
G04 #@! TO.N,LRCLK*
X133590000Y-66370000D03*
G04 #@! TO.P,U1,49*
G04 #@! TO.N,TX*
X131050000Y-66370000D03*
G04 #@! TO.P,U1,48*
G04 #@! TO.N,TFT_CS*
X128510000Y-66370000D03*
G04 #@! TO.P,U1,47*
G04 #@! TO.N,PG*
X125970000Y-66370000D03*
G04 #@! TO.P,U1,46*
G04 #@! TO.N,SCL*
X123430000Y-66370000D03*
G04 #@! TO.P,U1,45*
G04 #@! TO.N,SDA*
X120890000Y-66370000D03*
G04 #@! TO.P,U1,44*
G04 #@! TO.N,E2A*
X118350000Y-66370000D03*
G04 #@! TO.P,U1,43*
G04 #@! TO.N,BATT_STAT2*
X115810000Y-66370000D03*
G04 #@! TO.P,U1,42*
G04 #@! TO.N,BATT_STAT1*
X113270000Y-66370000D03*
G04 #@! TO.P,U1,41*
G04 #@! TO.N,SCLK*
X110730000Y-66370000D03*
G04 #@! TO.P,U1,40*
G04 #@! TO.N,RX*
X108190000Y-66370000D03*
G04 #@! TO.P,U1,39*
G04 #@! TO.N,GND*
X105650000Y-66370000D03*
G04 #@! TO.P,U1,38*
G04 #@! TO.N,Net-(U1-Pad38)*
X103110000Y-66370000D03*
D16*
G04 #@! TO.P,U1,1*
G04 #@! TO.N,GND*
X141210000Y-51130000D03*
D15*
G04 #@! TO.P,U1,2*
G04 #@! TO.N,RGB_CLOCK*
X138670000Y-51130000D03*
G04 #@! TO.P,U1,3*
G04 #@! TO.N,RGB_DATA*
X136130000Y-51130000D03*
G04 #@! TO.P,U1,4*
G04 #@! TO.N,E4B*
X133590000Y-51130000D03*
G04 #@! TO.P,U1,5*
G04 #@! TO.N,E4A*
X131050000Y-51130000D03*
G04 #@! TO.P,U1,6*
G04 #@! TO.N,REC_LED*
X128510000Y-51130000D03*
G04 #@! TO.P,U1,7*
G04 #@! TO.N,PCTL*
X125970000Y-51130000D03*
G04 #@! TO.P,U1,8*
G04 #@! TO.N,CS*
X123430000Y-51130000D03*
G04 #@! TO.P,U1,9*
G04 #@! TO.N,MOSI*
X120890000Y-51130000D03*
G04 #@! TO.P,U1,10*
G04 #@! TO.N,E3B*
X118350000Y-51130000D03*
G04 #@! TO.P,U1,11*
G04 #@! TO.N,BCLK*
X115810000Y-51130000D03*
G04 #@! TO.P,U1,12*
G04 #@! TO.N,TFT_DC*
X113270000Y-51130000D03*
G04 #@! TO.P,U1,13*
G04 #@! TO.N,MCLK*
X110730000Y-51130000D03*
G04 #@! TO.P,U1,37*
G04 #@! TO.N,Net-(U1-Pad37)*
X100570000Y-66370000D03*
G04 #@! TO.P,U1,36*
G04 #@! TO.N,KEYPAD_C4*
X98030000Y-66370000D03*
G04 #@! TO.P,U1,35*
G04 #@! TO.N,KEYPAD_C3*
X95490000Y-66370000D03*
G04 #@! TO.P,U1,34*
G04 #@! TO.N,KEYPAD_C2*
X92950000Y-66370000D03*
G04 #@! TO.P,U1,33*
G04 #@! TO.N,KEYPAD_C1*
X90410000Y-66370000D03*
G04 #@! TO.P,U1,32*
G04 #@! TO.N,KEYPAD_C0*
X87870000Y-66370000D03*
G04 #@! TO.P,U1,31*
G04 #@! TO.N,E2B*
X85330000Y-66370000D03*
G04 #@! TO.P,U1,30*
G04 #@! TO.N,TOUCH_CS*
X82790000Y-66370000D03*
G04 #@! TO.P,U1,24*
G04 #@! TO.N,VOLUME*
X82790000Y-51130000D03*
G04 #@! TO.P,U1,23*
G04 #@! TO.N,KEYPAD_R3*
X85330000Y-51130000D03*
G04 #@! TO.P,U1,22*
G04 #@! TO.N,KEYPAD_R2*
X87870000Y-51130000D03*
G04 #@! TO.P,U1,21*
G04 #@! TO.N,KEYPAD_R1*
X90410000Y-51130000D03*
G04 #@! TO.P,U1,14*
G04 #@! TO.N,MISO*
X108190000Y-51130000D03*
G04 #@! TO.P,U1,15*
G04 #@! TO.N,+3V3*
X105650000Y-51130000D03*
G04 #@! TO.P,U1,16*
G04 #@! TO.N,E3A*
X103110000Y-51130000D03*
G04 #@! TO.P,U1,20*
G04 #@! TO.N,KEYPAD_R0*
X92950000Y-51130000D03*
G04 #@! TO.P,U1,19*
G04 #@! TO.N,KEYPAD_R4*
X95490000Y-51130000D03*
G04 #@! TO.P,U1,18*
G04 #@! TO.N,E1B*
X98030000Y-51130000D03*
G04 #@! TO.P,U1,17*
G04 #@! TO.N,E1A*
X100570000Y-51130000D03*
G04 #@! TD*
D17*
G04 #@! TO.P,J3,*
G04 #@! TO.N,*
X121050000Y-60237500D03*
X115450000Y-60237500D03*
D18*
G04 #@! TO.P,J3,4*
G04 #@! TO.N,GND*
X119750000Y-57712500D03*
G04 #@! TO.P,J3,3*
G04 #@! TO.N,SCL*
X118750000Y-57712500D03*
G04 #@! TO.P,J3,2*
G04 #@! TO.N,SDA*
X117750000Y-57712500D03*
G04 #@! TO.P,J3,1*
G04 #@! TO.N,+3V3*
X116750000Y-57712500D03*
G04 #@! TD*
D19*
G04 #@! TO.P,TP5,1*
G04 #@! TO.N,GND*
X134025000Y-86075000D03*
G04 #@! TD*
G04 #@! TO.P,TP4,1*
G04 #@! TO.N,+3V3*
X104875000Y-48950000D03*
G04 #@! TD*
G04 #@! TO.P,TP3,1*
G04 #@! TO.N,+5V*
X132250000Y-84075000D03*
G04 #@! TD*
D20*
G04 #@! TO.P,J1,2*
G04 #@! TO.N,GND*
X135200000Y-70600000D03*
D21*
G04 #@! TO.P,J1,1*
G04 #@! TO.N,VLIPO*
X135200000Y-72600000D03*
G04 #@! TD*
D22*
G04 #@! TO.P,J2,1*
G04 #@! TO.N,Net-(J2-Pad1)*
X90000000Y-41790000D03*
D23*
G04 #@! TO.P,J2,2*
G04 #@! TO.N,Net-(J2-Pad2)*
X85000000Y-46790000D03*
G04 #@! TO.P,J2,3*
G04 #@! TO.N,Net-(J2-Pad3)*
X95000000Y-46790000D03*
G04 #@! TO.P,J2,*
G04 #@! TO.N,*
X87500000Y-46790000D03*
X92500000Y-46790000D03*
G04 #@! TD*
D24*
G04 #@! TO.P,SW5,1*
G04 #@! TO.N,Net-(D6-Pad1)*
X120500000Y-40000000D03*
G04 #@! TO.P,SW5,2*
G04 #@! TO.N,+BATT*
X125000000Y-40000000D03*
D25*
G04 #@! TO.P,SW5,*
G04 #@! TO.N,*
X119250000Y-42500000D03*
X126250000Y-42500000D03*
G04 #@! TD*
D26*
G04 #@! TO.P,MK1,1*
G04 #@! TO.N,GND*
X136100000Y-43500000D03*
G04 #@! TO.P,MK1,2*
G04 #@! TO.N,Net-(C33-Pad2)*
X136100000Y-46000000D03*
G04 #@! TD*
D27*
G04 #@! TO.P,RV1,*
G04 #@! TO.N,*
X80000000Y-39750000D03*
X70000000Y-39750000D03*
D28*
G04 #@! TO.P,RV1,1*
G04 #@! TO.N,+3V3*
X71000000Y-49750000D03*
G04 #@! TO.P,RV1,2*
G04 #@! TO.N,VOLUME*
X75000000Y-49750000D03*
G04 #@! TO.P,RV1,3*
G04 #@! TO.N,AGND*
X79000000Y-49750000D03*
G04 #@! TD*
D29*
G04 #@! TO.N,Net-(D1-Pad1)*
X71750000Y-141500000D03*
X71750000Y-130500000D03*
X71750000Y-119500000D03*
X71750000Y-108500000D03*
X75850000Y-93650000D03*
G04 #@! TO.N,Net-(D2-Pad1)*
X83750000Y-141500000D03*
X83750000Y-130500000D03*
X83750000Y-119500000D03*
X83750000Y-108500000D03*
X88500000Y-100250000D03*
G04 #@! TO.N,Net-(D3-Pad1)*
X95750000Y-141250000D03*
X95750000Y-130500000D03*
X95750000Y-119500000D03*
X104500000Y-108250000D03*
X106500000Y-100250000D03*
G04 #@! TO.N,Net-(D4-Pad1)*
X107750000Y-141500000D03*
X107750000Y-130500000D03*
X107750000Y-119500000D03*
X116500000Y-108250000D03*
X124400000Y-100400000D03*
X122400000Y-95100000D03*
G04 #@! TO.N,GND*
X141700000Y-76875000D03*
X122650000Y-38900000D03*
X114000000Y-63100000D03*
X118800000Y-63500000D03*
X86250000Y-104000000D03*
X74250000Y-104000000D03*
X98250000Y-104000000D03*
X110250000Y-104000000D03*
X77750000Y-113000000D03*
X89750000Y-113000000D03*
X101750000Y-113000000D03*
X113750000Y-113000000D03*
X122250000Y-104000000D03*
X77750000Y-135000000D03*
X89750000Y-135000000D03*
X101750000Y-135000000D03*
X113750000Y-135000000D03*
X125750000Y-135000000D03*
X86250000Y-126000000D03*
X74250000Y-126000000D03*
X98250000Y-126025000D03*
X110250000Y-126000000D03*
X122250000Y-126000000D03*
X125750000Y-113000000D03*
X106075000Y-71925000D03*
X107325000Y-71925000D03*
X107325000Y-73175000D03*
X106075000Y-73175000D03*
X107846482Y-41980364D03*
X107846482Y-43705364D03*
X106121482Y-41980364D03*
X106121482Y-43705364D03*
X121947452Y-72762787D03*
X121947452Y-74012787D03*
X123197452Y-74012787D03*
X123197452Y-72762787D03*
X87200000Y-42800000D03*
X92700000Y-40500000D03*
X87200000Y-40500000D03*
X75300000Y-39600000D03*
X89050000Y-48100000D03*
X90950000Y-48100000D03*
X96700000Y-38600000D03*
X82000000Y-95700000D03*
X100000000Y-95500000D03*
X117900000Y-97500000D03*
X117900000Y-99900000D03*
X100000000Y-99400000D03*
X82000000Y-99600000D03*
X95900000Y-86900000D03*
X83200000Y-87500000D03*
X115300000Y-87150000D03*
X132350000Y-87850000D03*
X135400000Y-95700000D03*
X134900000Y-104900000D03*
X136750000Y-84950000D03*
X115100000Y-54800000D03*
X135850000Y-54170000D03*
X135740000Y-56330000D03*
X129000000Y-60700000D03*
X141500000Y-64000000D03*
X141450000Y-53650000D03*
X127800000Y-38400000D03*
X117800000Y-38600000D03*
X107000000Y-43700000D03*
X107000000Y-42850000D03*
X107000000Y-41950000D03*
X107850000Y-42850000D03*
X106100000Y-42850000D03*
X109650000Y-39550000D03*
X122622452Y-73387787D03*
X106700000Y-72550000D03*
X141350000Y-48350000D03*
X134300000Y-48650000D03*
X102600000Y-42050000D03*
X59400000Y-39700000D03*
X59300000Y-77600000D03*
X113800000Y-38600000D03*
X109100000Y-75150000D03*
X76150000Y-63550000D03*
X112925000Y-80450000D03*
X114450000Y-80500000D03*
X111600000Y-80550000D03*
X101650000Y-83600000D03*
X106850000Y-86250000D03*
X84250000Y-77925000D03*
X113000000Y-42800000D03*
X115050000Y-42750000D03*
X101450000Y-45600000D03*
X97200000Y-47000000D03*
X76350000Y-55400000D03*
X71550000Y-53500000D03*
X67150000Y-47850000D03*
X128275000Y-80550000D03*
X90550000Y-81050000D03*
X77900000Y-94950000D03*
X73800000Y-98850000D03*
X120600000Y-75500000D03*
X102250000Y-74800000D03*
X99325000Y-69925000D03*
X105050000Y-74850000D03*
X108350000Y-70200000D03*
X105875000Y-64375000D03*
X76175000Y-70375000D03*
X113150000Y-70450000D03*
X112900000Y-71550000D03*
X127950000Y-74850000D03*
X137050000Y-58500000D03*
X141750000Y-74800000D03*
X141800000Y-73000000D03*
X136750000Y-83000000D03*
X136250000Y-87000000D03*
X133000000Y-80200000D03*
X101650000Y-81000000D03*
X100200000Y-77650000D03*
X102950000Y-77650000D03*
X110900000Y-89850000D03*
X107750000Y-92850000D03*
X112850000Y-86100000D03*
X134250000Y-113000000D03*
X131950000Y-118800000D03*
X132950000Y-123850000D03*
X131000000Y-138950000D03*
X123850000Y-145250000D03*
X105850000Y-145750000D03*
X94000000Y-145600000D03*
X76000000Y-145600000D03*
X68850000Y-139450000D03*
X65600000Y-113800000D03*
X65100000Y-108500000D03*
X66900000Y-87550000D03*
X68500000Y-86300000D03*
X90950000Y-94350000D03*
X91000000Y-99400000D03*
X86300000Y-94700000D03*
X88500000Y-86650000D03*
X108850000Y-96800000D03*
X108850000Y-99800000D03*
X75350000Y-108000000D03*
X79950000Y-108000000D03*
X86750000Y-108000000D03*
X93950000Y-108150000D03*
X100150000Y-108000000D03*
X111950000Y-108100000D03*
X105800000Y-111750000D03*
X93950000Y-111750000D03*
X81900000Y-111650000D03*
X73400000Y-111750000D03*
X75850000Y-119000000D03*
X88050000Y-119150000D03*
X99900000Y-119050000D03*
X111850000Y-119050000D03*
X117900000Y-119200000D03*
X123800000Y-119050000D03*
X117900000Y-122700000D03*
X105850000Y-122650000D03*
X93950000Y-122600000D03*
X82000000Y-122600000D03*
X76200000Y-130150000D03*
X88000000Y-130000000D03*
X99850000Y-130000000D03*
X112000000Y-130000000D03*
X124050000Y-130000000D03*
X124050000Y-141150000D03*
X112000000Y-141000000D03*
X99850000Y-141250000D03*
X88000000Y-141150000D03*
X75950000Y-141000000D03*
X73450000Y-136300000D03*
X81850000Y-133550000D03*
X93950000Y-133650000D03*
X106000000Y-133650000D03*
X117900000Y-133650000D03*
X125950000Y-99800000D03*
X129350000Y-100350000D03*
X94050000Y-64350000D03*
X99350000Y-64400000D03*
X128550000Y-43150000D03*
X133600000Y-43300000D03*
X125950000Y-45200000D03*
X117700000Y-40850000D03*
X99600000Y-38400000D03*
X109600000Y-38450000D03*
X112550000Y-40450000D03*
X67425000Y-72175000D03*
X67900000Y-70850000D03*
X63550000Y-70450000D03*
X64050000Y-66350000D03*
X68000000Y-67000000D03*
X67850000Y-61600000D03*
X64650000Y-61200000D03*
X64500000Y-51150000D03*
X72150000Y-57000000D03*
X80650000Y-56100000D03*
X71700000Y-68400000D03*
X74050000Y-67950000D03*
X63450000Y-48100000D03*
X68700000Y-51200000D03*
X77900000Y-57650000D03*
X75800000Y-57650000D03*
X85700000Y-55950000D03*
X100250000Y-55900000D03*
X94500000Y-55950000D03*
X110400000Y-53800000D03*
X105550000Y-56150000D03*
X110800000Y-57700000D03*
X115600000Y-57750000D03*
X125950000Y-57800000D03*
X126050000Y-53000000D03*
X129600000Y-57500000D03*
X72400000Y-43700000D03*
X77650000Y-43550000D03*
X82300000Y-46700000D03*
X82850000Y-40650000D03*
X60350000Y-46150000D03*
X60550000Y-45100000D03*
X60550000Y-47200000D03*
X60350000Y-53500000D03*
X61250000Y-54100000D03*
X67750000Y-54700000D03*
X69550000Y-78825000D03*
X72750000Y-88650000D03*
X63900000Y-104550000D03*
X67100000Y-105700000D03*
X66850000Y-126600000D03*
X123850000Y-89850000D03*
X94200000Y-69400000D03*
X96750000Y-68350000D03*
X91700000Y-70250000D03*
X89200000Y-70800000D03*
X90100000Y-73400000D03*
X95100000Y-75600000D03*
X97900000Y-73300000D03*
X123800000Y-80500000D03*
X120200000Y-80450000D03*
X116200000Y-81650000D03*
X124850000Y-86050000D03*
X141750000Y-41250000D03*
X138400000Y-41350000D03*
X125350000Y-48250000D03*
X134950000Y-40650000D03*
X107450000Y-79700000D03*
X64300000Y-64025000D03*
X67925000Y-64025000D03*
X62625000Y-58150000D03*
X62325000Y-56250000D03*
X119275000Y-75450000D03*
X139150000Y-68100000D03*
X137975000Y-71725000D03*
X137050000Y-70850000D03*
X137075000Y-72750000D03*
X137050000Y-71775000D03*
X85250000Y-73025000D03*
X67875000Y-80575000D03*
X87900000Y-77950000D03*
X87350000Y-80575000D03*
X78750000Y-62300000D03*
X128975000Y-86025000D03*
X112950000Y-75900000D03*
X113775000Y-75075000D03*
X119975000Y-78650000D03*
X124975000Y-77025000D03*
X123550000Y-76625000D03*
X121950000Y-62400000D03*
X123300000Y-63500000D03*
X112900000Y-63600000D03*
X116400000Y-62650000D03*
X122000000Y-57350000D03*
X141430000Y-58650000D03*
X138320000Y-44990000D03*
X118010000Y-44200000D03*
X122300000Y-69450000D03*
X120600000Y-71550000D03*
X119050000Y-70550000D03*
X112950000Y-78350000D03*
X102900000Y-53200000D03*
X100700000Y-53150000D03*
X84000000Y-53100000D03*
X80750000Y-53200000D03*
X81100000Y-49950000D03*
X108100000Y-55450000D03*
X108100000Y-53000000D03*
X119850000Y-53450000D03*
X129300000Y-53750000D03*
X90200000Y-64250000D03*
G04 #@! TO.N,+5V*
X66100000Y-59850000D03*
X108950000Y-80550000D03*
X108950000Y-79600000D03*
X70350000Y-88700000D03*
X70350000Y-89550000D03*
X70350000Y-90400000D03*
X80175000Y-73150000D03*
X76125000Y-77200000D03*
G04 #@! TO.N,+3V3*
X73785000Y-65765000D03*
X73000000Y-73925000D03*
X70425000Y-69875000D03*
X113820000Y-48275000D03*
G04 #@! TO.N,+BATT*
X128350000Y-73100000D03*
G04 #@! TO.N,VBUS*
X126600000Y-69700000D03*
X122150000Y-70550000D03*
X119445336Y-73981946D03*
X125675000Y-73400000D03*
X137050000Y-67075000D03*
G04 #@! TO.N,CS*
X86200000Y-58050000D03*
X76625000Y-68975000D03*
G04 #@! TO.N,MISO*
X63700000Y-62450000D03*
X107449847Y-61475153D03*
G04 #@! TO.N,MOSI*
X69850000Y-63700000D03*
X71500000Y-58600000D03*
G04 #@! TO.N,SCLK*
X71400000Y-65650000D03*
X72900000Y-61100000D03*
G04 #@! TO.N,SDA*
X112170000Y-46875000D03*
G04 #@! TO.N,SCL*
X112265010Y-44885000D03*
G04 #@! TO.N,RX*
X110977653Y-48552347D03*
G04 #@! TO.N,TFT_DC*
X64050000Y-56450000D03*
X111900000Y-61100000D03*
G04 #@! TO.N,TFT_CS*
X65200000Y-56050000D03*
G04 #@! TO.N,TX*
X126120000Y-60450000D03*
X116452653Y-47667347D03*
G04 #@! TO.N,LRCLK*
X108700000Y-48700000D03*
X110600000Y-59475000D03*
G04 #@! TO.N,KEYPAD_R3*
X71875000Y-72325000D03*
G04 #@! TO.N,KEYPAD_R2*
X77155238Y-72043069D03*
G04 #@! TO.N,KEYPAD_R1*
X79600000Y-67600000D03*
G04 #@! TO.N,KEYPAD_R0*
X81150000Y-67575000D03*
G04 #@! TO.N,AGND*
X81000000Y-58750000D03*
G04 #@! TO.N,KEYPAD_R4*
X84025000Y-67850000D03*
G04 #@! TO.N,Net-(D5-Pad1)*
X119750000Y-141500000D03*
X119750000Y-130500000D03*
X119750000Y-119500000D03*
X127250000Y-108500000D03*
X124700000Y-94200000D03*
G04 #@! TO.N,PWR_BTN*
X126530000Y-61650000D03*
X121900000Y-49000000D03*
G04 #@! TO.N,E4B*
X135000000Y-79450000D03*
X134600000Y-60450000D03*
X124050000Y-81900000D03*
G04 #@! TO.N,E4A*
X131400000Y-60000000D03*
G04 #@! TO.N,E3B*
X98500000Y-76350000D03*
X114297842Y-53346763D03*
G04 #@! TO.N,E3A*
X97750000Y-78200000D03*
G04 #@! TO.N,E2B*
X89375000Y-77850000D03*
X86825000Y-72750000D03*
G04 #@! TO.N,E2A*
X90550000Y-77950000D03*
X103375000Y-62125000D03*
X110200000Y-64500000D03*
G04 #@! TO.N,E1B*
X71700000Y-80900000D03*
G04 #@! TO.N,E1A*
X74425000Y-81100000D03*
G04 #@! TO.N,RGB_CLOCK*
X78650000Y-80500000D03*
G04 #@! TO.N,RGB_DATA*
X79350000Y-76825000D03*
G04 #@! TO.N,VLIPO*
X124500000Y-75300000D03*
X127400000Y-72500000D03*
G04 #@! TO.N,BATT_STAT2*
X117400000Y-82950000D03*
X117979999Y-72600000D03*
G04 #@! TO.N,BATT_STAT1*
X118300000Y-73600000D03*
X119000000Y-81550000D03*
G04 #@! TO.N,Net-(D6-Pad3)*
X129500000Y-48750000D03*
X103600000Y-73100000D03*
G04 #@! TO.N,Net-(R4-Pad1)*
X72700000Y-107350000D03*
X79813797Y-87161190D03*
G04 #@! TO.N,Net-(R5-Pad1)*
X70700000Y-116000000D03*
X78400000Y-86900000D03*
G04 #@! TO.N,Net-(R6-Pad1)*
X69900000Y-127700000D03*
X65300000Y-83200000D03*
G04 #@! TO.N,Net-(C34-Pad1)*
X103350000Y-45050000D03*
X128150000Y-46850000D03*
G04 #@! TO.N,Net-(R7-Pad1)*
X70000000Y-137400000D03*
X64000000Y-83200000D03*
G04 #@! TO.N,Net-(J2-Pad1)*
X107458982Y-39471615D03*
X97100000Y-42050000D03*
G04 #@! TO.N,Net-(J2-Pad2)*
X108458163Y-39512127D03*
X97275000Y-43225000D03*
G04 #@! TO.N,Net-(J2-Pad3)*
X98000000Y-40150000D03*
X105904188Y-39494568D03*
G04 #@! TO.N,Net-(C33-Pad1)*
X103250000Y-44050000D03*
X127541729Y-45896183D03*
G04 #@! TD*
D30*
G04 #@! TO.N,Net-(D1-Pad1)*
X71750000Y-141500000D02*
X71750000Y-130500000D01*
X71750000Y-119500000D02*
X71750000Y-130500000D01*
X71750000Y-108500000D02*
X71750000Y-119500000D01*
X71750000Y-108500000D02*
X71750000Y-97800000D01*
X75850000Y-93700000D02*
X75850000Y-93650000D01*
X71750000Y-97800000D02*
X75850000Y-93700000D01*
G04 #@! TO.N,Net-(D2-Pad1)*
X83750000Y-141500000D02*
X83750000Y-130500000D01*
X83750000Y-119500000D02*
X83750000Y-130500000D01*
X83750000Y-108500000D02*
X83750000Y-119500000D01*
X83750000Y-105000000D02*
X88500000Y-100250000D01*
X83750000Y-108500000D02*
X83750000Y-105000000D01*
G04 #@! TO.N,Net-(D3-Pad1)*
X95750000Y-130500000D02*
X95750000Y-141250000D01*
X95750000Y-130500000D02*
X95750000Y-119500000D01*
X95750000Y-117000000D02*
X95750000Y-119500000D01*
X104500000Y-108250000D02*
X95750000Y-117000000D01*
X106500000Y-106250000D02*
X104500000Y-108250000D01*
X106500000Y-100250000D02*
X106500000Y-106250000D01*
G04 #@! TO.N,Net-(D4-Pad1)*
X107750000Y-141500000D02*
X107750000Y-130500000D01*
X107750000Y-119500000D02*
X107750000Y-130500000D01*
X107750000Y-117000000D02*
X107750000Y-119500000D01*
X116500000Y-108250000D02*
X107750000Y-117000000D01*
X116500000Y-108250000D02*
X122550000Y-102200000D01*
X122550000Y-102200000D02*
X122600000Y-102200000D01*
X122600000Y-102200000D02*
X124400000Y-100400000D01*
X124400000Y-100400000D02*
X124400000Y-97100000D01*
X124400000Y-97100000D02*
X122400000Y-95100000D01*
D31*
G04 #@! TO.N,+5V*
X59180000Y-42130000D02*
X58810000Y-42130000D01*
X59330000Y-42650000D02*
X58810000Y-42130000D01*
X59900000Y-42650000D02*
X59330000Y-42650000D01*
X61750000Y-50650000D02*
X61750000Y-44500000D01*
X61750000Y-44500000D02*
X59900000Y-42650000D01*
X66100000Y-55000000D02*
X61750000Y-50650000D01*
X66100000Y-59850000D02*
X66100000Y-55000000D01*
X68100000Y-74450000D02*
X66100000Y-72450000D01*
X66100000Y-72450000D02*
X66100000Y-59850000D01*
X68100000Y-79000000D02*
X68100000Y-74450000D01*
X71350000Y-82250000D02*
X68100000Y-79000000D01*
X70350000Y-83250000D02*
X71350000Y-82250000D01*
X70350000Y-88700000D02*
X70350000Y-83250000D01*
X70350000Y-88700000D02*
X70350000Y-89550000D01*
X70350000Y-89550000D02*
X70350000Y-90400000D01*
X107250000Y-82250000D02*
X108950000Y-80550000D01*
X108950000Y-80550000D02*
X108950000Y-79600000D01*
X108950000Y-80550000D02*
X112400000Y-84000000D01*
X132800000Y-84000000D02*
X112400000Y-84000000D01*
X136150000Y-76550000D02*
X141210000Y-71490000D01*
X136150000Y-80650000D02*
X136150000Y-76550000D01*
X141210000Y-71490000D02*
X141210000Y-66370000D01*
X132800000Y-84000000D02*
X136150000Y-80650000D01*
D30*
X80175000Y-73150000D02*
X76125000Y-77200000D01*
D31*
X71350000Y-82250000D02*
X76475000Y-82250000D01*
D30*
X76125000Y-81275000D02*
X77100000Y-82250000D01*
X76125000Y-81100000D02*
X76125000Y-81275000D01*
D31*
X76475000Y-82250000D02*
X77100000Y-82250000D01*
X77100000Y-82250000D02*
X107250000Y-82250000D01*
D30*
X76125000Y-81100000D02*
X76125000Y-77200000D01*
G04 #@! TO.N,+3V3*
X105650000Y-51130000D02*
X105650000Y-49998630D01*
X108048630Y-47600000D02*
X105650000Y-49998630D01*
X112500000Y-47600000D02*
X108048630Y-47600000D01*
D31*
X71000000Y-49750000D02*
X74050000Y-52800000D01*
X74050000Y-65500000D02*
X73785000Y-65765000D01*
X74050000Y-52800000D02*
X74050000Y-65500000D01*
D30*
X71725000Y-73925000D02*
X70425000Y-72625000D01*
X73000000Y-73925000D02*
X71725000Y-73925000D01*
X70425000Y-72625000D02*
X70425000Y-69875000D01*
X105650000Y-49725000D02*
X105650000Y-51130000D01*
X104875000Y-48950000D02*
X105650000Y-49725000D01*
X114550000Y-49650000D02*
X114550000Y-52150000D01*
X116750000Y-57237500D02*
X116750000Y-57712500D01*
X116200000Y-53800000D02*
X116200000Y-56687500D01*
X116200000Y-56687500D02*
X116750000Y-57237500D01*
X114550000Y-52150000D02*
X116200000Y-53800000D01*
X113820000Y-48275000D02*
X113605000Y-48490000D01*
X113605000Y-48490000D02*
X113390000Y-48490000D01*
X113390000Y-48490000D02*
X114550000Y-49650000D01*
X112500000Y-47600000D02*
X113390000Y-48490000D01*
G04 #@! TO.N,+BATT*
X125000000Y-40000000D02*
X124150001Y-40849999D01*
X124150001Y-40849999D02*
X124150001Y-43350001D01*
X124077106Y-43250000D02*
X123370000Y-43250000D01*
X124150001Y-43322895D02*
X124077106Y-43250000D01*
X124150001Y-43350001D02*
X124150001Y-43322895D01*
X134300000Y-74450000D02*
X132700000Y-72850000D01*
X140250000Y-71225000D02*
X137025000Y-74450000D01*
X139900000Y-67375000D02*
X140250000Y-67725000D01*
X140250000Y-67725000D02*
X140250000Y-71225000D01*
X124150001Y-43350001D02*
X125100000Y-44300000D01*
X139900000Y-49500000D02*
X139900000Y-67375000D01*
X138174999Y-47774999D02*
X139900000Y-49500000D01*
X137025000Y-74450000D02*
X134300000Y-74450000D01*
X134974999Y-47774999D02*
X138174999Y-47774999D01*
X131500000Y-44300000D02*
X134974999Y-47774999D01*
X128600000Y-72850000D02*
X128350000Y-73100000D01*
X132700000Y-72850000D02*
X128600000Y-72850000D01*
X125100000Y-44300000D02*
X131500000Y-44300000D01*
G04 #@! TO.N,VBUS*
X126550000Y-69800000D02*
X126550000Y-70150000D01*
X126400000Y-69650000D02*
X126550000Y-69800000D01*
D31*
X136950000Y-64350000D02*
X136950000Y-66550000D01*
X137470000Y-63830000D02*
X136950000Y-64350000D01*
X138670000Y-63830000D02*
X137470000Y-63830000D01*
X126550000Y-70150000D02*
X126175000Y-70525000D01*
X126175000Y-70525000D02*
X125975000Y-70725000D01*
X125975000Y-70725000D02*
X125975000Y-73100000D01*
X125975000Y-73100000D02*
X125675000Y-73400000D01*
D30*
X136950000Y-66975000D02*
X136950000Y-66550000D01*
X137050000Y-67075000D02*
X136950000Y-66975000D01*
D31*
X132820000Y-70150000D02*
X126550000Y-70150000D01*
X136950000Y-66550000D02*
X135000000Y-68500000D01*
X135000000Y-68500000D02*
X134990000Y-68500000D01*
X134500000Y-68990000D02*
X133980000Y-68990000D01*
X134990000Y-68500000D02*
X134500000Y-68990000D01*
X133980000Y-68990000D02*
X132820000Y-70150000D01*
X119445336Y-73945336D02*
X119445336Y-73981946D01*
X119225000Y-73725000D02*
X119445336Y-73945336D01*
X119225000Y-71650000D02*
X119225000Y-73725000D01*
X120175000Y-70700000D02*
X119225000Y-71650000D01*
X121825000Y-70700000D02*
X120175000Y-70700000D01*
X125900000Y-70650000D02*
X122150000Y-70650000D01*
X125975000Y-70725000D02*
X125900000Y-70650000D01*
D30*
G04 #@! TO.N,CS*
X85100000Y-59150000D02*
X86200000Y-58050000D01*
X84500000Y-61500000D02*
X85100000Y-60900000D01*
X81100000Y-61500000D02*
X84500000Y-61500000D01*
X85100000Y-60900000D02*
X85100000Y-59150000D01*
X77500000Y-65100000D02*
X81100000Y-61500000D01*
X77500000Y-68100000D02*
X76625000Y-68975000D01*
X77500000Y-65100000D02*
X77500000Y-68100000D01*
G04 #@! TO.N,MISO*
X61700000Y-69720000D02*
X58810000Y-72610000D01*
X61700000Y-64450000D02*
X61700000Y-69720000D01*
X63700000Y-62450000D02*
X61700000Y-64450000D01*
X107025010Y-52294990D02*
X107390001Y-51929999D01*
X107390001Y-51929999D02*
X108190000Y-51130000D01*
X107025010Y-61050316D02*
X107025010Y-52294990D01*
X107449847Y-61475153D02*
X107025010Y-61050316D01*
G04 #@! TO.N,MOSI*
X60900000Y-67980000D02*
X58810000Y-70070000D01*
X60900000Y-56920000D02*
X60900000Y-67980000D01*
X60900000Y-56920000D02*
X60900000Y-56900000D01*
X69850000Y-63450000D02*
X69850000Y-63700000D01*
X69850000Y-60250000D02*
X69850000Y-63700000D01*
X71500000Y-58600000D02*
X69850000Y-60250000D01*
X60900000Y-56920000D02*
X60900000Y-55850000D01*
X60900000Y-55850000D02*
X59950000Y-54900000D01*
X59887630Y-54830000D02*
X58810000Y-54830000D01*
X59950000Y-54892370D02*
X59887630Y-54830000D01*
X59950000Y-54900000D02*
X59950000Y-54892370D01*
G04 #@! TO.N,SCLK*
X72250000Y-64800000D02*
X72250000Y-61750000D01*
X71400000Y-65650000D02*
X72250000Y-64800000D01*
X72250000Y-61750000D02*
X72900000Y-61100000D01*
G04 #@! TO.N,SDA*
X120890000Y-65238630D02*
X120890000Y-66370000D01*
X120890000Y-65238630D02*
X120890000Y-64290000D01*
X117750000Y-61150000D02*
X117750000Y-57712500D01*
X120890000Y-64290000D02*
X117750000Y-61150000D01*
X117075000Y-50075000D02*
X113875000Y-46875000D01*
X117075000Y-55025000D02*
X117075000Y-50075000D01*
X113875000Y-46875000D02*
X112170000Y-46875000D01*
X117750000Y-55700000D02*
X117075000Y-55025000D01*
X117750000Y-57712500D02*
X117750000Y-55700000D01*
G04 #@! TO.N,SCL*
X122875000Y-65815000D02*
X123430000Y-66370000D01*
X122875000Y-65475000D02*
X122875000Y-65815000D01*
X118750000Y-61350000D02*
X122875000Y-65475000D01*
X118750000Y-57712500D02*
X118750000Y-61350000D01*
X119075000Y-49600000D02*
X117360000Y-49600000D01*
X119600000Y-52125000D02*
X119600000Y-50125000D01*
X119600000Y-50125000D02*
X119075000Y-49600000D01*
X118750000Y-52975000D02*
X119600000Y-52125000D01*
X118750000Y-57712500D02*
X118750000Y-52975000D01*
X112665009Y-45284999D02*
X112265010Y-44885000D01*
X113044999Y-45284999D02*
X112665009Y-45284999D01*
X117360000Y-49600000D02*
X113044999Y-45284999D01*
G04 #@! TO.N,RX*
X112000000Y-49630000D02*
X112000000Y-49610000D01*
X112000000Y-49630000D02*
X112000000Y-59500000D01*
X112000000Y-49574694D02*
X110977653Y-48552347D01*
X112000000Y-49630000D02*
X112000000Y-49574694D01*
X111000000Y-60500000D02*
X111000000Y-62300000D01*
X112000000Y-59500000D02*
X111000000Y-60500000D01*
X111000000Y-62300000D02*
X110400000Y-62900000D01*
X108190000Y-64410000D02*
X108190000Y-64500000D01*
X109700000Y-62900000D02*
X108190000Y-64410000D01*
X110400000Y-62900000D02*
X109700000Y-62900000D01*
X108190000Y-64500000D02*
X108190000Y-66370000D01*
G04 #@! TO.N,TFT_DC*
X64050000Y-55300000D02*
X64050000Y-56450000D01*
X61040000Y-52290000D02*
X64050000Y-55300000D01*
X58810000Y-52290000D02*
X61040000Y-52290000D01*
X113270000Y-51130000D02*
X113050000Y-51350000D01*
X112500000Y-60500000D02*
X111900000Y-61100000D01*
X112500000Y-51800000D02*
X112500000Y-60500000D01*
X113170000Y-51130000D02*
X112500000Y-51800000D01*
X113270000Y-51130000D02*
X113170000Y-51130000D01*
G04 #@! TO.N,TFT_CS*
X60650000Y-49050000D02*
X58810000Y-47210000D01*
X60650000Y-50884315D02*
X60650000Y-49050000D01*
X65200000Y-55434315D02*
X60650000Y-50884315D01*
X65200000Y-55434315D02*
X65200000Y-56050000D01*
G04 #@! TO.N,TX*
X116790000Y-47330000D02*
X116452653Y-47667347D01*
X122200000Y-47330000D02*
X116790000Y-47330000D01*
X124680000Y-49810000D02*
X122200000Y-47330000D01*
X124680000Y-59000000D02*
X124680000Y-49810000D01*
X125720001Y-60040001D02*
X124680000Y-59000000D01*
X125720001Y-60050001D02*
X125720001Y-60040001D01*
X126120000Y-60450000D02*
X125720001Y-60050001D01*
G04 #@! TO.N,LRCLK*
X111525001Y-58549999D02*
X110999999Y-59075001D01*
X111525001Y-53225001D02*
X111525001Y-58549999D01*
X111000000Y-52700000D02*
X111525001Y-53225001D01*
X110300000Y-52700000D02*
X111000000Y-52700000D01*
X110999999Y-59075001D02*
X110600000Y-59475000D01*
X109500000Y-51900000D02*
X110300000Y-52700000D01*
X109500000Y-49500000D02*
X109500000Y-51900000D01*
X108700000Y-48700000D02*
X109500000Y-49500000D01*
G04 #@! TO.N,KEYPAD_R3*
X78125000Y-69900000D02*
X78125000Y-65325000D01*
X87200000Y-61450000D02*
X87200000Y-53000000D01*
X75700000Y-72325000D02*
X78125000Y-69900000D01*
X86300000Y-62350000D02*
X87200000Y-61450000D01*
X81100000Y-62350000D02*
X86300000Y-62350000D01*
X87200000Y-53000000D02*
X85330000Y-51130000D01*
X78125000Y-65325000D02*
X81100000Y-62350000D01*
X71875000Y-72325000D02*
X75700000Y-72325000D01*
G04 #@! TO.N,KEYPAD_R2*
X81250000Y-63000000D02*
X86600000Y-63000000D01*
X78775000Y-65475000D02*
X81250000Y-63000000D01*
X78775000Y-70325000D02*
X78775000Y-65475000D01*
X87870000Y-61730000D02*
X87870000Y-51130000D01*
X86600000Y-63000000D02*
X87870000Y-61730000D01*
X77100000Y-72000000D02*
X77155238Y-72043069D01*
X77155238Y-72043069D02*
X78775000Y-70325000D01*
G04 #@! TO.N,KEYPAD_R1*
X88550000Y-52990000D02*
X90410000Y-51130000D01*
X88550000Y-61750000D02*
X88550000Y-52990000D01*
X86650000Y-63650000D02*
X88550000Y-61750000D01*
X81500000Y-63650000D02*
X86650000Y-63650000D01*
X79600000Y-65550000D02*
X81500000Y-63650000D01*
X79600000Y-67600000D02*
X79600000Y-65550000D01*
G04 #@! TO.N,KEYPAD_R0*
X89950000Y-52750000D02*
X91330000Y-52750000D01*
X89250000Y-53450000D02*
X89950000Y-52750000D01*
X86800000Y-64300000D02*
X89250000Y-61850000D01*
X89250000Y-61850000D02*
X89250000Y-53450000D01*
X82675000Y-64300000D02*
X86800000Y-64300000D01*
X91330000Y-52750000D02*
X92950000Y-51130000D01*
X81100000Y-67525000D02*
X81100000Y-65875000D01*
X81100000Y-65875000D02*
X82675000Y-64300000D01*
X81150000Y-67575000D02*
X81100000Y-67525000D01*
G04 #@! TO.N,AGND*
X79000000Y-49750000D02*
X79000000Y-56750000D01*
X79000000Y-56750000D02*
X81000000Y-58750000D01*
G04 #@! TO.N,KEYPAD_R4*
X91900000Y-53350000D02*
X92550000Y-52700000D01*
X90200000Y-53350000D02*
X91900000Y-53350000D01*
X89900000Y-53650000D02*
X90200000Y-53350000D01*
X92550000Y-52700000D02*
X93920000Y-52700000D01*
X89900000Y-62000000D02*
X89900000Y-53650000D01*
X87000000Y-64900000D02*
X89900000Y-62000000D01*
X84750000Y-64900000D02*
X87000000Y-64900000D01*
X84025000Y-65625000D02*
X84750000Y-64900000D01*
X93920000Y-52700000D02*
X95490000Y-51130000D01*
X84025000Y-67850000D02*
X84025000Y-65625000D01*
G04 #@! TO.N,Net-(D5-Pad1)*
X119750000Y-141500000D02*
X119750000Y-130500000D01*
X119750000Y-119500000D02*
X119750000Y-130500000D01*
X119750000Y-119250000D02*
X119750000Y-119500000D01*
X127250000Y-108500000D02*
X125250000Y-110500000D01*
X125250000Y-110500000D02*
X124250000Y-110500000D01*
X119750000Y-115000000D02*
X119750000Y-119500000D01*
X124250000Y-110500000D02*
X119750000Y-115000000D01*
X127250000Y-96750000D02*
X124700000Y-94200000D01*
X127250000Y-108500000D02*
X127250000Y-96750000D01*
G04 #@! TO.N,VOLUME*
X82700000Y-51040000D02*
X82790000Y-51130000D01*
G04 #@! TO.N,PWR_BTN*
X122160000Y-50170000D02*
X122160000Y-52010000D01*
X122160000Y-52010000D02*
X122160000Y-52030000D01*
X122160000Y-52030000D02*
X123990000Y-53860000D01*
X123990000Y-53860000D02*
X123990000Y-59730000D01*
X123990000Y-59730000D02*
X123990000Y-59740000D01*
X125900000Y-61650000D02*
X126530000Y-61650000D01*
X123990000Y-59740000D02*
X125900000Y-61650000D01*
X122160000Y-49260000D02*
X121900000Y-49000000D01*
X122160000Y-50170000D02*
X122160000Y-49260000D01*
G04 #@! TO.N,E4B*
X133590000Y-59440000D02*
X133590000Y-51130000D01*
X135000000Y-79450000D02*
X135000000Y-80400000D01*
X133350000Y-82050000D02*
X135000000Y-80400000D01*
X133590000Y-59440000D02*
X134600000Y-60450000D01*
X133350000Y-82050000D02*
X124925000Y-82050000D01*
X124200000Y-82050000D02*
X124050000Y-81900000D01*
X124925000Y-82050000D02*
X124200000Y-82050000D01*
G04 #@! TO.N,E4A*
X131050000Y-59650000D02*
X131400000Y-60000000D01*
X131050000Y-51130000D02*
X131050000Y-59650000D01*
G04 #@! TO.N,E3B*
X106250000Y-68600000D02*
X98500000Y-76350000D01*
X108200000Y-68600000D02*
X106250000Y-68600000D01*
X109450000Y-67350000D02*
X108200000Y-68600000D01*
X110050000Y-63400000D02*
X109450000Y-64000000D01*
X110673002Y-63400000D02*
X110050000Y-63400000D01*
X113000000Y-61073002D02*
X110673002Y-63400000D01*
X109450000Y-64000000D02*
X109450000Y-67350000D01*
X113000000Y-54644605D02*
X113000000Y-61073002D01*
X114297842Y-53346763D02*
X113000000Y-54644605D01*
G04 #@! TO.N,E3A*
X97600000Y-78050000D02*
X97750000Y-78200000D01*
X105325000Y-52850000D02*
X104830000Y-52850000D01*
X106575000Y-62475000D02*
X106575000Y-54100000D01*
X97750000Y-78200000D02*
X97550000Y-78000000D01*
X105900000Y-68000000D02*
X106400000Y-68000000D01*
X106400000Y-68000000D02*
X106950000Y-67450000D01*
X106950000Y-62850000D02*
X106575000Y-62475000D01*
X106950000Y-67450000D02*
X106950000Y-62850000D01*
X97550000Y-75950000D02*
X98100000Y-75400000D01*
X106575000Y-54100000D02*
X105325000Y-52850000D01*
X97550000Y-78000000D02*
X97550000Y-75950000D01*
X98500000Y-75400000D02*
X105900000Y-68000000D01*
X104830000Y-52850000D02*
X103110000Y-51130000D01*
X98100000Y-75400000D02*
X98500000Y-75400000D01*
G04 #@! TO.N,E2B*
X89375000Y-77850000D02*
X89375000Y-77565000D01*
X89375000Y-77850000D02*
X89375000Y-75275000D01*
X86850000Y-72750000D02*
X86825000Y-72750000D01*
X89375000Y-75275000D02*
X86850000Y-72750000D01*
G04 #@! TO.N,E2A*
X90949999Y-69926999D02*
X92851998Y-68025000D01*
X90949999Y-77550001D02*
X90949999Y-69926999D01*
X90550000Y-77950000D02*
X90949999Y-77550001D01*
X92851998Y-68025000D02*
X93575000Y-68025000D01*
X93575000Y-68025000D02*
X94200000Y-67400000D01*
X94200000Y-67400000D02*
X94200000Y-65650000D01*
X94200000Y-65650000D02*
X97725000Y-62125000D01*
X97725000Y-62125000D02*
X103375000Y-62125000D01*
X118350000Y-66075000D02*
X118350000Y-66370000D01*
X110965695Y-64350010D02*
X116625010Y-64350010D01*
X116625010Y-64350010D02*
X118350000Y-66075000D01*
X110940685Y-64325000D02*
X110965695Y-64350010D01*
X110765685Y-64500000D02*
X110940685Y-64325000D01*
X110200000Y-64500000D02*
X110765685Y-64500000D01*
G04 #@! TO.N,E1B*
X95760000Y-53400000D02*
X98030000Y-51130000D01*
X90600000Y-55700000D02*
X92900000Y-53400000D01*
X92900000Y-53400000D02*
X95760000Y-53400000D01*
X89150000Y-63500000D02*
X90600000Y-62050000D01*
X86675000Y-70725000D02*
X89150000Y-68250000D01*
X89150000Y-68250000D02*
X89150000Y-63500000D01*
X79650000Y-70725000D02*
X86675000Y-70725000D01*
X77400000Y-72975000D02*
X79650000Y-70725000D01*
X71700000Y-80900000D02*
X71700000Y-77050000D01*
X90600000Y-62050000D02*
X90600000Y-55700000D01*
X75775000Y-72975000D02*
X77400000Y-72975000D01*
X71700000Y-77050000D02*
X75775000Y-72975000D01*
G04 #@! TO.N,E1A*
X72900000Y-79575000D02*
X74425000Y-81100000D01*
X72900000Y-77175000D02*
X72900000Y-79575000D01*
X76225000Y-73850000D02*
X72900000Y-77175000D01*
X77900000Y-73850000D02*
X76225000Y-73850000D01*
X86725000Y-71575000D02*
X80175000Y-71575000D01*
X91300000Y-64850000D02*
X91700000Y-65250000D01*
X91700000Y-67400000D02*
X90450000Y-68650000D01*
X91700000Y-65250000D02*
X91700000Y-67400000D01*
X100570000Y-51130000D02*
X97600000Y-54100000D01*
X91300000Y-56000000D02*
X91300000Y-64850000D01*
X80175000Y-71575000D02*
X77900000Y-73850000D01*
X90450000Y-68650000D02*
X89650000Y-68650000D01*
X93200000Y-54100000D02*
X91300000Y-56000000D01*
X89650000Y-68650000D02*
X86725000Y-71575000D01*
X97600000Y-54100000D02*
X93200000Y-54100000D01*
G04 #@! TO.N,RGB_CLOCK*
X79815685Y-79900000D02*
X79825000Y-79900000D01*
X78650000Y-80500000D02*
X79215685Y-80500000D01*
X79215685Y-80500000D02*
X79815685Y-79900000D01*
X80165685Y-79550000D02*
X79815685Y-79900000D01*
X134700000Y-67850000D02*
X134700000Y-67860000D01*
X133350000Y-68710000D02*
X118340000Y-68710000D01*
X118340000Y-68710000D02*
X110050000Y-77000000D01*
X133800000Y-68260000D02*
X133350000Y-68710000D01*
X105100000Y-79550000D02*
X80165685Y-79550000D01*
X135960000Y-66590000D02*
X134700000Y-67850000D01*
X134300000Y-68260000D02*
X133800000Y-68260000D01*
X138670000Y-52270000D02*
X139340000Y-52940000D01*
X134700000Y-67860000D02*
X134300000Y-68260000D01*
X139340000Y-60730000D02*
X135960000Y-64110000D01*
X107650000Y-77000000D02*
X105100000Y-79550000D01*
X139340000Y-52940000D02*
X139340000Y-60730000D01*
X135960000Y-64110000D02*
X135960000Y-66590000D01*
X110050000Y-77000000D02*
X107650000Y-77000000D01*
X138670000Y-51130000D02*
X138670000Y-52270000D01*
G04 #@! TO.N,RGB_DATA*
X138810000Y-60540000D02*
X138810000Y-53810000D01*
X133570000Y-67750000D02*
X134040000Y-67750000D01*
X79350000Y-77390685D02*
X80959315Y-79000000D01*
X133120000Y-68200000D02*
X133570000Y-67750000D01*
X79350000Y-76825000D02*
X79350000Y-77390685D01*
X134040000Y-67750000D02*
X135450000Y-66340000D01*
X117800000Y-68200000D02*
X133120000Y-68200000D01*
X109750000Y-76250000D02*
X117800000Y-68200000D01*
X107350000Y-76250000D02*
X109750000Y-76250000D01*
X104600000Y-79000000D02*
X107350000Y-76250000D01*
X80959315Y-79000000D02*
X104600000Y-79000000D01*
X138810000Y-53810000D02*
X136130000Y-51130000D01*
X135450000Y-63900000D02*
X138810000Y-60540000D01*
X135450000Y-66340000D02*
X135450000Y-63900000D01*
D31*
G04 #@! TO.N,VLIPO*
X135200000Y-72600000D02*
X134850000Y-72600000D01*
X134850000Y-72600000D02*
X134350000Y-72100000D01*
X127800000Y-72100000D02*
X127400000Y-72500000D01*
X134350000Y-72100000D02*
X127800000Y-72100000D01*
X127400000Y-73350000D02*
X127400000Y-72500000D01*
X125450000Y-75300000D02*
X127400000Y-73350000D01*
X124500000Y-75300000D02*
X125450000Y-75300000D01*
D30*
G04 #@! TO.N,BATT_STAT2*
X117400000Y-73179999D02*
X117400000Y-74000000D01*
X117979999Y-72600000D02*
X117400000Y-73179999D01*
X117400000Y-82950000D02*
X117400000Y-74000000D01*
G04 #@! TO.N,BATT_STAT1*
X113350000Y-66450000D02*
X113270000Y-66370000D01*
X119000000Y-79200000D02*
X119000000Y-81550000D01*
X118300000Y-78500000D02*
X119000000Y-79200000D01*
X118300000Y-78500000D02*
X118300000Y-73600000D01*
G04 #@! TO.N,Net-(D6-Pad3)*
X130600000Y-49650000D02*
X129700000Y-48750000D01*
X131600000Y-49650000D02*
X130600000Y-49650000D01*
X132350000Y-50400000D02*
X131600000Y-49650000D01*
X132350000Y-60200000D02*
X132350000Y-50400000D01*
X127850000Y-62350000D02*
X130200000Y-62350000D01*
X127200000Y-63000000D02*
X127850000Y-62350000D01*
X129700000Y-48750000D02*
X129500000Y-48750000D01*
X126800000Y-67700000D02*
X127200000Y-67300000D01*
X130200000Y-62350000D02*
X132350000Y-60200000D01*
X117050000Y-65600000D02*
X117050000Y-67050000D01*
X103600000Y-73100000D02*
X103600000Y-72050000D01*
X103600000Y-72050000D02*
X106500000Y-69150000D01*
X112650000Y-64950000D02*
X116400000Y-64950000D01*
X117050000Y-67050000D02*
X117700000Y-67700000D01*
X112000000Y-66750000D02*
X112000000Y-65600000D01*
X112000000Y-65600000D02*
X112650000Y-64950000D01*
X109600000Y-69150000D02*
X112000000Y-66750000D01*
X117700000Y-67700000D02*
X126800000Y-67700000D01*
X116400000Y-64950000D02*
X117050000Y-65600000D01*
X127200000Y-67300000D02*
X127200000Y-63000000D01*
X106500000Y-69150000D02*
X109600000Y-69150000D01*
G04 #@! TO.N,Net-(R4-Pad1)*
X72700000Y-98500000D02*
X79813797Y-91386203D01*
X72700000Y-107350000D02*
X72700000Y-98500000D01*
X79813797Y-91386203D02*
X79813797Y-87161190D01*
G04 #@! TO.N,Net-(R5-Pad1)*
X70700000Y-97200000D02*
X78400000Y-89500000D01*
X70700000Y-116000000D02*
X70700000Y-97200000D01*
X78400000Y-86900000D02*
X78400000Y-89500000D01*
G04 #@! TO.N,Net-(R6-Pad1)*
X69500001Y-127300001D02*
X69500001Y-101800001D01*
X69500001Y-101800001D02*
X65300000Y-97600000D01*
X69900000Y-127700000D02*
X69500001Y-127300001D01*
X65300000Y-83200000D02*
X65300000Y-97600000D01*
G04 #@! TO.N,Net-(C34-Pad1)*
X113430000Y-44160000D02*
X110980000Y-44160000D01*
X114320000Y-45050000D02*
X113430000Y-44160000D01*
X116650000Y-45050000D02*
X114320000Y-45050000D01*
X118290000Y-46690000D02*
X116650000Y-45050000D01*
X127760000Y-46690000D02*
X118290000Y-46690000D01*
X110980000Y-44160000D02*
X110090000Y-45050000D01*
X127920000Y-46850000D02*
X127760000Y-46690000D01*
X110090000Y-45050000D02*
X103350000Y-45050000D01*
X128150000Y-46850000D02*
X127920000Y-46850000D01*
G04 #@! TO.N,Net-(R7-Pad1)*
X68500000Y-102400000D02*
X64000000Y-97900000D01*
X64000000Y-83200000D02*
X64000000Y-97900000D01*
X70000000Y-130300000D02*
X68500000Y-128800000D01*
X70000000Y-137400000D02*
X70000000Y-130300000D01*
X68500000Y-128800000D02*
X68500000Y-102400000D01*
G04 #@! TO.N,Net-(J2-Pad1)*
X107458982Y-40037300D02*
X107200000Y-40296282D01*
X107458982Y-39471615D02*
X107458982Y-40037300D01*
X107200000Y-40296282D02*
X99203718Y-40296282D01*
X99203718Y-40296282D02*
X98150000Y-41350000D01*
X97800000Y-41350000D02*
X97100000Y-42050000D01*
X98150000Y-41350000D02*
X97800000Y-41350000D01*
G04 #@! TO.N,Net-(J2-Pad2)*
X108458163Y-39545436D02*
X108450000Y-39553599D01*
X108458163Y-39512127D02*
X108458163Y-39545436D01*
X107750000Y-40900000D02*
X108458163Y-40191837D01*
X98100000Y-42600000D02*
X98115735Y-42600000D01*
X108458163Y-40191837D02*
X108458163Y-39512127D01*
X98115735Y-42600000D02*
X99815735Y-40900000D01*
X97475000Y-43225000D02*
X98100000Y-42600000D01*
X99815735Y-40900000D02*
X107750000Y-40900000D01*
X97275000Y-43225000D02*
X97475000Y-43225000D01*
G04 #@! TO.N,Net-(J2-Pad3)*
X98655432Y-39494568D02*
X98000000Y-40150000D01*
X105904188Y-39494568D02*
X98655432Y-39494568D01*
G04 #@! TO.N,Net-(C33-Pad1)*
X127541729Y-46108271D02*
X127541729Y-45896183D01*
X126812227Y-46060000D02*
X118510000Y-46060000D01*
X126976044Y-45896183D02*
X126812227Y-46060000D01*
X127541729Y-45896183D02*
X126976044Y-45896183D01*
X118510000Y-46060000D02*
X117050000Y-44600000D01*
X103950000Y-44050000D02*
X103250000Y-44050000D01*
X117000000Y-44550000D02*
X114520000Y-44550000D01*
X109890000Y-44550000D02*
X104450000Y-44550000D01*
X114520000Y-44550000D02*
X113630000Y-43660000D01*
X104450000Y-44550000D02*
X103950000Y-44050000D01*
X110780000Y-43660000D02*
X109890000Y-44550000D01*
X113630000Y-43660000D02*
X110780000Y-43660000D01*
G04 #@! TD*
D32*
G04 #@! TO.N,GND*
G36*
X63290000Y-55614802D02*
X63290000Y-55746289D01*
X63172569Y-55863720D01*
X63015000Y-56244126D01*
X63015000Y-56655874D01*
X63172569Y-57036280D01*
X63463720Y-57327431D01*
X63844126Y-57485000D01*
X64255874Y-57485000D01*
X64636280Y-57327431D01*
X64912515Y-57051196D01*
X64994126Y-57085000D01*
X65215001Y-57085000D01*
X65215000Y-59281993D01*
X65065000Y-59644126D01*
X65065000Y-60055874D01*
X65215001Y-60418009D01*
X65215000Y-72362839D01*
X65197663Y-72450000D01*
X65215000Y-72537161D01*
X65215000Y-72537164D01*
X65266348Y-72795309D01*
X65461951Y-73088049D01*
X65535847Y-73137425D01*
X67215001Y-74816580D01*
X67215000Y-78912839D01*
X67197663Y-79000000D01*
X67215000Y-79087161D01*
X67215000Y-79087164D01*
X67266348Y-79345309D01*
X67461951Y-79638049D01*
X67535847Y-79687425D01*
X70098421Y-82250000D01*
X69785845Y-82562577D01*
X69711952Y-82611951D01*
X69662578Y-82685844D01*
X69662576Y-82685846D01*
X69516348Y-82904691D01*
X69447663Y-83250000D01*
X69465001Y-83337165D01*
X69465000Y-88131993D01*
X69315000Y-88494126D01*
X69315000Y-88905874D01*
X69405765Y-89125000D01*
X69315000Y-89344126D01*
X69315000Y-89755874D01*
X69405765Y-89975000D01*
X69315000Y-90194126D01*
X69315000Y-90605874D01*
X69472569Y-90986280D01*
X69763720Y-91277431D01*
X70144126Y-91435000D01*
X70555874Y-91435000D01*
X70936280Y-91277431D01*
X71227431Y-90986280D01*
X71340000Y-90714514D01*
X71340000Y-91330194D01*
X71592720Y-91940314D01*
X72059686Y-92407280D01*
X72669806Y-92660000D01*
X73330194Y-92660000D01*
X73940314Y-92407280D01*
X74407280Y-91940314D01*
X74660000Y-91330194D01*
X74660000Y-90669806D01*
X74407280Y-90059686D01*
X73940314Y-89592720D01*
X73330194Y-89340000D01*
X72669806Y-89340000D01*
X72059686Y-89592720D01*
X71592720Y-90059686D01*
X71385000Y-90561166D01*
X71385000Y-90194126D01*
X71294235Y-89975000D01*
X71385000Y-89755874D01*
X71385000Y-89344126D01*
X71294235Y-89125000D01*
X71385000Y-88905874D01*
X71385000Y-88494126D01*
X71235000Y-88131993D01*
X71235000Y-86036130D01*
X71590000Y-86036130D01*
X71590000Y-86963869D01*
X71671810Y-87375154D01*
X71983447Y-87841552D01*
X72449845Y-88153190D01*
X73000000Y-88262623D01*
X73550154Y-88153190D01*
X74016552Y-87841553D01*
X74328190Y-87375155D01*
X74410000Y-86963870D01*
X74410000Y-86036131D01*
X74328190Y-85624845D01*
X74016553Y-85158447D01*
X73550155Y-84846810D01*
X73000000Y-84737377D01*
X72449846Y-84846810D01*
X71983448Y-85158447D01*
X71671810Y-85624845D01*
X71590000Y-86036130D01*
X71235000Y-86036130D01*
X71235000Y-83616578D01*
X71716579Y-83135000D01*
X107162839Y-83135000D01*
X107250000Y-83152337D01*
X107337161Y-83135000D01*
X107337165Y-83135000D01*
X107595310Y-83083652D01*
X107888049Y-82888049D01*
X107937425Y-82814153D01*
X108950000Y-81801578D01*
X111712577Y-84564156D01*
X111761951Y-84638049D01*
X111835844Y-84687423D01*
X111835845Y-84687424D01*
X111910605Y-84737377D01*
X112054690Y-84833652D01*
X112312835Y-84885000D01*
X112312839Y-84885000D01*
X112400000Y-84902337D01*
X112487161Y-84885000D01*
X126392691Y-84885000D01*
X125983448Y-85158447D01*
X125671810Y-85624845D01*
X125590000Y-86036130D01*
X125590000Y-86963869D01*
X125671810Y-87375154D01*
X125983447Y-87841552D01*
X126449845Y-88153190D01*
X127000000Y-88262623D01*
X127550154Y-88153190D01*
X128016552Y-87841553D01*
X128328190Y-87375155D01*
X128410000Y-86963870D01*
X128410000Y-86036131D01*
X128328190Y-85624845D01*
X128016553Y-85158447D01*
X127607310Y-84885000D01*
X131454867Y-84885000D01*
X131607074Y-85037207D01*
X132024234Y-85210000D01*
X132475766Y-85210000D01*
X132892926Y-85037207D01*
X133084357Y-84845776D01*
X133145310Y-84833652D01*
X133438049Y-84638049D01*
X133487425Y-84564153D01*
X136714156Y-81337423D01*
X136788049Y-81288049D01*
X136849197Y-81196536D01*
X136953264Y-81040789D01*
X136983652Y-80995310D01*
X137035000Y-80737165D01*
X137035000Y-80737161D01*
X137052337Y-80650001D01*
X137035000Y-80562841D01*
X137035000Y-76916578D01*
X141774156Y-72177423D01*
X141848049Y-72128049D01*
X141898816Y-72052072D01*
X142043652Y-71835310D01*
X142057369Y-71766348D01*
X142095000Y-71577165D01*
X142095000Y-71577161D01*
X142112337Y-71490000D01*
X142095000Y-71402839D01*
X142095000Y-67514396D01*
X142426534Y-67182862D01*
X142455000Y-67114138D01*
X142455000Y-76953769D01*
X142393893Y-77437483D01*
X142231563Y-77847481D01*
X141972371Y-78204228D01*
X141620795Y-78495078D01*
X141342914Y-78640090D01*
X139183994Y-79543889D01*
X139158085Y-79561342D01*
X138820389Y-79737569D01*
X138794790Y-79755333D01*
X138766598Y-79768599D01*
X138691924Y-79822853D01*
X138209070Y-80222306D01*
X138177417Y-80256013D01*
X138141787Y-80285489D01*
X138082951Y-80356609D01*
X137714605Y-80863592D01*
X137692326Y-80904117D01*
X137665147Y-80941526D01*
X137625846Y-81025043D01*
X137395155Y-81607704D01*
X137383654Y-81652497D01*
X137366633Y-81695488D01*
X137349341Y-81786137D01*
X137349336Y-81786155D01*
X137349336Y-81786164D01*
X137274048Y-82382130D01*
X137265001Y-82427612D01*
X137265000Y-102915750D01*
X137222525Y-103541596D01*
X131631327Y-144543723D01*
X131490317Y-145092318D01*
X131246877Y-145555704D01*
X130903366Y-145950657D01*
X130478207Y-146255995D01*
X129994214Y-146455332D01*
X129442629Y-146543532D01*
X129373526Y-146545000D01*
X70661375Y-146545000D01*
X70098755Y-146479405D01*
X69606729Y-146300809D01*
X69168984Y-146013810D01*
X68809003Y-145633807D01*
X68546097Y-145181180D01*
X68384180Y-144646572D01*
X68373386Y-144578287D01*
X62777476Y-103541611D01*
X62735000Y-102915750D01*
X62735000Y-82994126D01*
X62965000Y-82994126D01*
X62965000Y-83405874D01*
X63122569Y-83786280D01*
X63240000Y-83903711D01*
X63240001Y-97825148D01*
X63225112Y-97900000D01*
X63284097Y-98196537D01*
X63363856Y-98315904D01*
X63452072Y-98447929D01*
X63515528Y-98490329D01*
X67740001Y-102714803D01*
X67740000Y-128725153D01*
X67725112Y-128800000D01*
X67740000Y-128874847D01*
X67740000Y-128874851D01*
X67784096Y-129096536D01*
X67952071Y-129347929D01*
X68015530Y-129390331D01*
X69240001Y-130614804D01*
X69240000Y-136696289D01*
X69122569Y-136813720D01*
X68965000Y-137194126D01*
X68965000Y-137605874D01*
X69122569Y-137986280D01*
X69413720Y-138277431D01*
X69794126Y-138435000D01*
X70205874Y-138435000D01*
X70586280Y-138277431D01*
X70877431Y-137986280D01*
X70990000Y-137714513D01*
X70990000Y-140796289D01*
X70872569Y-140913720D01*
X70715000Y-141294126D01*
X70715000Y-141705874D01*
X70872569Y-142086280D01*
X71163720Y-142377431D01*
X71544126Y-142535000D01*
X71955874Y-142535000D01*
X72336280Y-142377431D01*
X72627431Y-142086280D01*
X72785000Y-141705874D01*
X72785000Y-141294126D01*
X72627431Y-140913720D01*
X72510000Y-140796289D01*
X72510000Y-131203711D01*
X72627431Y-131086280D01*
X72785000Y-130705874D01*
X72785000Y-130294126D01*
X72627431Y-129913720D01*
X72510000Y-129796289D01*
X72510000Y-120203711D01*
X72627431Y-120086280D01*
X72785000Y-119705874D01*
X72785000Y-119294126D01*
X72627431Y-118913720D01*
X72510000Y-118796289D01*
X72510000Y-109203711D01*
X72627431Y-109086280D01*
X72785000Y-108705874D01*
X72785000Y-108385000D01*
X72905874Y-108385000D01*
X73125263Y-108294126D01*
X82715000Y-108294126D01*
X82715000Y-108705874D01*
X82872569Y-109086280D01*
X82990000Y-109203711D01*
X82990001Y-118796288D01*
X82872569Y-118913720D01*
X82715000Y-119294126D01*
X82715000Y-119705874D01*
X82872569Y-120086280D01*
X82990000Y-120203711D01*
X82990001Y-129796288D01*
X82872569Y-129913720D01*
X82715000Y-130294126D01*
X82715000Y-130705874D01*
X82872569Y-131086280D01*
X82990001Y-131203712D01*
X82990000Y-140796289D01*
X82872569Y-140913720D01*
X82715000Y-141294126D01*
X82715000Y-141705874D01*
X82872569Y-142086280D01*
X83163720Y-142377431D01*
X83544126Y-142535000D01*
X83955874Y-142535000D01*
X84336280Y-142377431D01*
X84627431Y-142086280D01*
X84785000Y-141705874D01*
X84785000Y-141294126D01*
X84627431Y-140913720D01*
X84510000Y-140796289D01*
X84510000Y-131203711D01*
X84627431Y-131086280D01*
X84785000Y-130705874D01*
X84785000Y-130294126D01*
X84627431Y-129913720D01*
X84510000Y-129796289D01*
X84510000Y-120203711D01*
X84627431Y-120086280D01*
X84785000Y-119705874D01*
X84785000Y-119294126D01*
X94715000Y-119294126D01*
X94715000Y-119705874D01*
X94872569Y-120086280D01*
X94990001Y-120203712D01*
X94990000Y-129796289D01*
X94872569Y-129913720D01*
X94715000Y-130294126D01*
X94715000Y-130705874D01*
X94872569Y-131086280D01*
X94990000Y-131203711D01*
X94990001Y-140546288D01*
X94872569Y-140663720D01*
X94715000Y-141044126D01*
X94715000Y-141455874D01*
X94872569Y-141836280D01*
X95163720Y-142127431D01*
X95544126Y-142285000D01*
X95955874Y-142285000D01*
X96336280Y-142127431D01*
X96627431Y-141836280D01*
X96785000Y-141455874D01*
X96785000Y-141044126D01*
X96627431Y-140663720D01*
X96510000Y-140546289D01*
X96510000Y-131203711D01*
X96627431Y-131086280D01*
X96785000Y-130705874D01*
X96785000Y-130294126D01*
X96627431Y-129913720D01*
X96510000Y-129796289D01*
X96510000Y-120203711D01*
X96627431Y-120086280D01*
X96785000Y-119705874D01*
X96785000Y-119294126D01*
X106715000Y-119294126D01*
X106715000Y-119705874D01*
X106872569Y-120086280D01*
X106990000Y-120203711D01*
X106990001Y-129796288D01*
X106872569Y-129913720D01*
X106715000Y-130294126D01*
X106715000Y-130705874D01*
X106872569Y-131086280D01*
X106990001Y-131203712D01*
X106990000Y-140796289D01*
X106872569Y-140913720D01*
X106715000Y-141294126D01*
X106715000Y-141705874D01*
X106872569Y-142086280D01*
X107163720Y-142377431D01*
X107544126Y-142535000D01*
X107955874Y-142535000D01*
X108336280Y-142377431D01*
X108627431Y-142086280D01*
X108785000Y-141705874D01*
X108785000Y-141294126D01*
X108627431Y-140913720D01*
X108510000Y-140796289D01*
X108510000Y-131203711D01*
X108627431Y-131086280D01*
X108785000Y-130705874D01*
X108785000Y-130294126D01*
X108627431Y-129913720D01*
X108510000Y-129796289D01*
X108510000Y-120203711D01*
X108627431Y-120086280D01*
X108785000Y-119705874D01*
X108785000Y-119294126D01*
X118715000Y-119294126D01*
X118715000Y-119705874D01*
X118872569Y-120086280D01*
X118990000Y-120203711D01*
X118990001Y-129796288D01*
X118872569Y-129913720D01*
X118715000Y-130294126D01*
X118715000Y-130705874D01*
X118872569Y-131086280D01*
X118990001Y-131203712D01*
X118990000Y-140796289D01*
X118872569Y-140913720D01*
X118715000Y-141294126D01*
X118715000Y-141705874D01*
X118872569Y-142086280D01*
X119163720Y-142377431D01*
X119544126Y-142535000D01*
X119955874Y-142535000D01*
X120336280Y-142377431D01*
X120627431Y-142086280D01*
X120785000Y-141705874D01*
X120785000Y-141294126D01*
X120627431Y-140913720D01*
X120510000Y-140796289D01*
X120510000Y-131203711D01*
X120627431Y-131086280D01*
X120785000Y-130705874D01*
X120785000Y-130294126D01*
X120627431Y-129913720D01*
X120510000Y-129796289D01*
X120510000Y-120203711D01*
X120627431Y-120086280D01*
X120785000Y-119705874D01*
X120785000Y-119294126D01*
X120627431Y-118913720D01*
X120510000Y-118796289D01*
X120510000Y-115314801D01*
X124564802Y-111260000D01*
X125175153Y-111260000D01*
X125250000Y-111274888D01*
X125324847Y-111260000D01*
X125324852Y-111260000D01*
X125546537Y-111215904D01*
X125797929Y-111047929D01*
X125840331Y-110984470D01*
X127289802Y-109535000D01*
X127455874Y-109535000D01*
X127836280Y-109377431D01*
X128127431Y-109086280D01*
X128285000Y-108705874D01*
X128285000Y-108294126D01*
X128127431Y-107913720D01*
X128010000Y-107796289D01*
X128010000Y-96824848D01*
X128024888Y-96750000D01*
X128010000Y-96675152D01*
X128010000Y-96675148D01*
X127965904Y-96453463D01*
X127797929Y-96202071D01*
X127734473Y-96159671D01*
X125735000Y-94160199D01*
X125735000Y-93994126D01*
X125577431Y-93613720D01*
X125286280Y-93322569D01*
X124905874Y-93165000D01*
X124494126Y-93165000D01*
X124113720Y-93322569D01*
X123822569Y-93613720D01*
X123665000Y-93994126D01*
X123665000Y-94405874D01*
X123822569Y-94786280D01*
X124113720Y-95077431D01*
X124494126Y-95235000D01*
X124660199Y-95235000D01*
X126490001Y-97064803D01*
X126490000Y-107796289D01*
X126372569Y-107913720D01*
X126215000Y-108294126D01*
X126215000Y-108460198D01*
X124935199Y-109740000D01*
X124324846Y-109740000D01*
X124249999Y-109725112D01*
X124175152Y-109740000D01*
X124175148Y-109740000D01*
X123953463Y-109784096D01*
X123702071Y-109952071D01*
X123659671Y-110015527D01*
X119265530Y-114409669D01*
X119202071Y-114452071D01*
X119034096Y-114703464D01*
X118990000Y-114925149D01*
X118990000Y-114925153D01*
X118975112Y-115000000D01*
X118990000Y-115074847D01*
X118990001Y-118796288D01*
X118872569Y-118913720D01*
X118715000Y-119294126D01*
X108785000Y-119294126D01*
X108627431Y-118913720D01*
X108510000Y-118796289D01*
X108510000Y-117314801D01*
X116539802Y-109285000D01*
X116705874Y-109285000D01*
X117086280Y-109127431D01*
X117377431Y-108836280D01*
X117535000Y-108455874D01*
X117535000Y-108289801D01*
X122933789Y-102891013D01*
X123147929Y-102747929D01*
X123190331Y-102684470D01*
X124439802Y-101435000D01*
X124605874Y-101435000D01*
X124986280Y-101277431D01*
X125277431Y-100986280D01*
X125435000Y-100605874D01*
X125435000Y-100194126D01*
X125277431Y-99813720D01*
X125160000Y-99696289D01*
X125160000Y-97174846D01*
X125174888Y-97099999D01*
X125160000Y-97025152D01*
X125160000Y-97025148D01*
X125115904Y-96803463D01*
X124947929Y-96552071D01*
X124884473Y-96509671D01*
X123435000Y-95060199D01*
X123435000Y-94894126D01*
X123277431Y-94513720D01*
X122986280Y-94222569D01*
X122605874Y-94065000D01*
X122194126Y-94065000D01*
X121813720Y-94222569D01*
X121522569Y-94513720D01*
X121365000Y-94894126D01*
X121365000Y-95305874D01*
X121522569Y-95686280D01*
X121813720Y-95977431D01*
X122194126Y-96135000D01*
X122360199Y-96135000D01*
X123640001Y-97414803D01*
X123640000Y-99696289D01*
X123522569Y-99813720D01*
X123365000Y-100194126D01*
X123365000Y-100360198D01*
X122216213Y-101508985D01*
X122002071Y-101652071D01*
X121959671Y-101715527D01*
X116460199Y-107215000D01*
X116294126Y-107215000D01*
X115913720Y-107372569D01*
X115622569Y-107663720D01*
X115465000Y-108044126D01*
X115465000Y-108210198D01*
X107265530Y-116409669D01*
X107202071Y-116452071D01*
X107034096Y-116703464D01*
X106990000Y-116925149D01*
X106990000Y-116925153D01*
X106975112Y-117000000D01*
X106990000Y-117074847D01*
X106990001Y-118796288D01*
X106872569Y-118913720D01*
X106715000Y-119294126D01*
X96785000Y-119294126D01*
X96627431Y-118913720D01*
X96510000Y-118796289D01*
X96510000Y-117314801D01*
X104539802Y-109285000D01*
X104705874Y-109285000D01*
X105086280Y-109127431D01*
X105377431Y-108836280D01*
X105535000Y-108455874D01*
X105535000Y-108289801D01*
X106984473Y-106840329D01*
X107047929Y-106797929D01*
X107215904Y-106546537D01*
X107260000Y-106324852D01*
X107260000Y-106324848D01*
X107274888Y-106250001D01*
X107260000Y-106175154D01*
X107260000Y-100953711D01*
X107377431Y-100836280D01*
X107535000Y-100455874D01*
X107535000Y-100044126D01*
X107377431Y-99663720D01*
X107086280Y-99372569D01*
X106705874Y-99215000D01*
X106294126Y-99215000D01*
X105913720Y-99372569D01*
X105622569Y-99663720D01*
X105465000Y-100044126D01*
X105465000Y-100455874D01*
X105622569Y-100836280D01*
X105740000Y-100953711D01*
X105740001Y-105935197D01*
X104460199Y-107215000D01*
X104294126Y-107215000D01*
X103913720Y-107372569D01*
X103622569Y-107663720D01*
X103465000Y-108044126D01*
X103465000Y-108210198D01*
X95265530Y-116409669D01*
X95202071Y-116452071D01*
X95034096Y-116703464D01*
X94990000Y-116925149D01*
X94990000Y-116925153D01*
X94975112Y-117000000D01*
X94990000Y-117074847D01*
X94990001Y-118796288D01*
X94872569Y-118913720D01*
X94715000Y-119294126D01*
X84785000Y-119294126D01*
X84627431Y-118913720D01*
X84510000Y-118796289D01*
X84510000Y-109203711D01*
X84627431Y-109086280D01*
X84785000Y-108705874D01*
X84785000Y-108294126D01*
X84627431Y-107913720D01*
X84510000Y-107796289D01*
X84510000Y-105314801D01*
X88539803Y-101285000D01*
X88705874Y-101285000D01*
X89086280Y-101127431D01*
X89377431Y-100836280D01*
X89535000Y-100455874D01*
X89535000Y-100044126D01*
X89377431Y-99663720D01*
X89086280Y-99372569D01*
X88705874Y-99215000D01*
X88294126Y-99215000D01*
X87913720Y-99372569D01*
X87622569Y-99663720D01*
X87465000Y-100044126D01*
X87465000Y-100210197D01*
X83265528Y-104409671D01*
X83202072Y-104452071D01*
X83159672Y-104515527D01*
X83159671Y-104515528D01*
X83034097Y-104703463D01*
X82975112Y-105000000D01*
X82990001Y-105074852D01*
X82990000Y-107796289D01*
X82872569Y-107913720D01*
X82715000Y-108294126D01*
X73125263Y-108294126D01*
X73286280Y-108227431D01*
X73577431Y-107936280D01*
X73735000Y-107555874D01*
X73735000Y-107144126D01*
X73577431Y-106763720D01*
X73460000Y-106646289D01*
X73460000Y-98814801D01*
X80298270Y-91976532D01*
X80361726Y-91934132D01*
X80529701Y-91682740D01*
X80573797Y-91461055D01*
X80573797Y-91461051D01*
X80588685Y-91386204D01*
X80573797Y-91311357D01*
X80573797Y-90669806D01*
X89340000Y-90669806D01*
X89340000Y-91330194D01*
X89592720Y-91940314D01*
X90059686Y-92407280D01*
X90669806Y-92660000D01*
X91330194Y-92660000D01*
X91940314Y-92407280D01*
X92407280Y-91940314D01*
X92660000Y-91330194D01*
X92660000Y-90669806D01*
X107340000Y-90669806D01*
X107340000Y-91330194D01*
X107592720Y-91940314D01*
X108059686Y-92407280D01*
X108669806Y-92660000D01*
X109330194Y-92660000D01*
X109940314Y-92407280D01*
X110407280Y-91940314D01*
X110660000Y-91330194D01*
X110660000Y-90669806D01*
X125340000Y-90669806D01*
X125340000Y-91330194D01*
X125592720Y-91940314D01*
X126059686Y-92407280D01*
X126669806Y-92660000D01*
X127330194Y-92660000D01*
X127940314Y-92407280D01*
X128407280Y-91940314D01*
X128660000Y-91330194D01*
X128660000Y-90669806D01*
X128407280Y-90059686D01*
X127940314Y-89592720D01*
X127330194Y-89340000D01*
X126669806Y-89340000D01*
X126059686Y-89592720D01*
X125592720Y-90059686D01*
X125340000Y-90669806D01*
X110660000Y-90669806D01*
X110407280Y-90059686D01*
X109940314Y-89592720D01*
X109330194Y-89340000D01*
X108669806Y-89340000D01*
X108059686Y-89592720D01*
X107592720Y-90059686D01*
X107340000Y-90669806D01*
X92660000Y-90669806D01*
X92407280Y-90059686D01*
X91940314Y-89592720D01*
X91330194Y-89340000D01*
X90669806Y-89340000D01*
X90059686Y-89592720D01*
X89592720Y-90059686D01*
X89340000Y-90669806D01*
X80573797Y-90669806D01*
X80573797Y-87864901D01*
X80691228Y-87747470D01*
X80848797Y-87367064D01*
X80848797Y-86955316D01*
X80691228Y-86574910D01*
X80400077Y-86283759D01*
X80019671Y-86126190D01*
X79607923Y-86126190D01*
X79241626Y-86277915D01*
X78999841Y-86036130D01*
X89590000Y-86036130D01*
X89590000Y-86963869D01*
X89671810Y-87375154D01*
X89983447Y-87841552D01*
X90449845Y-88153190D01*
X91000000Y-88262623D01*
X91550154Y-88153190D01*
X92016552Y-87841553D01*
X92328190Y-87375155D01*
X92410000Y-86963870D01*
X92410000Y-86036131D01*
X92410000Y-86036130D01*
X107590000Y-86036130D01*
X107590000Y-86963869D01*
X107671810Y-87375154D01*
X107983447Y-87841552D01*
X108449845Y-88153190D01*
X109000000Y-88262623D01*
X109550154Y-88153190D01*
X110016552Y-87841553D01*
X110328190Y-87375155D01*
X110410000Y-86963870D01*
X110410000Y-86036131D01*
X110328190Y-85624845D01*
X110016553Y-85158447D01*
X109550155Y-84846810D01*
X109000000Y-84737377D01*
X108449846Y-84846810D01*
X107983448Y-85158447D01*
X107671810Y-85624845D01*
X107590000Y-86036130D01*
X92410000Y-86036130D01*
X92328190Y-85624845D01*
X92016553Y-85158447D01*
X91550155Y-84846810D01*
X91000000Y-84737377D01*
X90449846Y-84846810D01*
X89983448Y-85158447D01*
X89671810Y-85624845D01*
X89590000Y-86036130D01*
X78999841Y-86036130D01*
X78986280Y-86022569D01*
X78605874Y-85865000D01*
X78194126Y-85865000D01*
X77813720Y-86022569D01*
X77522569Y-86313720D01*
X77365000Y-86694126D01*
X77365000Y-87105874D01*
X77522569Y-87486280D01*
X77640000Y-87603711D01*
X77640001Y-89185196D01*
X70215528Y-96609671D01*
X70152072Y-96652071D01*
X70109672Y-96715527D01*
X70109671Y-96715528D01*
X69984097Y-96903463D01*
X69925112Y-97200000D01*
X69940001Y-97274852D01*
X69940001Y-101165198D01*
X66060000Y-97285199D01*
X66060000Y-83903711D01*
X66177431Y-83786280D01*
X66335000Y-83405874D01*
X66335000Y-82994126D01*
X66177431Y-82613720D01*
X65886280Y-82322569D01*
X65505874Y-82165000D01*
X65094126Y-82165000D01*
X64713720Y-82322569D01*
X64650000Y-82386289D01*
X64586280Y-82322569D01*
X64205874Y-82165000D01*
X63794126Y-82165000D01*
X63413720Y-82322569D01*
X63122569Y-82613720D01*
X62965000Y-82994126D01*
X62735000Y-82994126D01*
X62735000Y-82427612D01*
X62728905Y-82396969D01*
X62696753Y-82017420D01*
X62690252Y-81986947D01*
X62688902Y-81955821D01*
X62667693Y-81865989D01*
X62485686Y-81266336D01*
X62466816Y-81224120D01*
X62453385Y-81179870D01*
X62410502Y-81098135D01*
X62410502Y-81098134D01*
X62410499Y-81098131D01*
X62085085Y-80562583D01*
X62056308Y-80526384D01*
X62032296Y-80486868D01*
X61970433Y-80418364D01*
X61522054Y-79980566D01*
X61485176Y-79952659D01*
X61452093Y-79920357D01*
X61375157Y-79869403D01*
X61375139Y-79869390D01*
X61375129Y-79869386D01*
X60854494Y-79569815D01*
X60816006Y-79543888D01*
X58671080Y-78645949D01*
X58248474Y-78402784D01*
X57932964Y-78094719D01*
X57703980Y-77717871D01*
X57571457Y-77281253D01*
X57545000Y-76968924D01*
X57545000Y-75746558D01*
X57625680Y-75941337D01*
X58018663Y-76334320D01*
X58532119Y-76547000D01*
X59087881Y-76547000D01*
X59547743Y-76356519D01*
X60495000Y-76356519D01*
X60495000Y-77643481D01*
X60987500Y-78832480D01*
X61897520Y-79742500D01*
X63086519Y-80235000D01*
X64373481Y-80235000D01*
X65562480Y-79742500D01*
X66472500Y-78832480D01*
X66965000Y-77643481D01*
X66965000Y-76356519D01*
X66472500Y-75167520D01*
X65562480Y-74257500D01*
X64373481Y-73765000D01*
X63086519Y-73765000D01*
X61897520Y-74257500D01*
X60987500Y-75167520D01*
X60495000Y-76356519D01*
X59547743Y-76356519D01*
X59601337Y-76334320D01*
X59994320Y-75941337D01*
X60207000Y-75427881D01*
X60207000Y-74872119D01*
X59994320Y-74358663D01*
X59601337Y-73965680D01*
X59394487Y-73880000D01*
X59601337Y-73794320D01*
X59994320Y-73401337D01*
X60207000Y-72887881D01*
X60207000Y-72332119D01*
X60194020Y-72300782D01*
X62184473Y-70310329D01*
X62247929Y-70267929D01*
X62415904Y-70016537D01*
X62460000Y-69794852D01*
X62460000Y-69794848D01*
X62474888Y-69720001D01*
X62460000Y-69645154D01*
X62460000Y-64764801D01*
X63739802Y-63485000D01*
X63905874Y-63485000D01*
X64286280Y-63327431D01*
X64577431Y-63036280D01*
X64735000Y-62655874D01*
X64735000Y-62244126D01*
X64577431Y-61863720D01*
X64286280Y-61572569D01*
X63905874Y-61415000D01*
X63494126Y-61415000D01*
X63113720Y-61572569D01*
X62822569Y-61863720D01*
X62665000Y-62244126D01*
X62665000Y-62410198D01*
X61660000Y-63415199D01*
X61660000Y-55924847D01*
X61674888Y-55850000D01*
X61660000Y-55775153D01*
X61660000Y-55775148D01*
X61615904Y-55553463D01*
X61447929Y-55302071D01*
X61384473Y-55259671D01*
X60555694Y-54430893D01*
X60497929Y-54344441D01*
X60460541Y-54319459D01*
X60435559Y-54282071D01*
X60184167Y-54114096D01*
X60011324Y-54079715D01*
X59994320Y-54038663D01*
X59601337Y-53645680D01*
X59394487Y-53560000D01*
X59601337Y-53474320D01*
X59994320Y-53081337D01*
X60007300Y-53050000D01*
X60725199Y-53050000D01*
X63290000Y-55614802D01*
X63290000Y-55614802D01*
G37*
X63290000Y-55614802D02*
X63290000Y-55746289D01*
X63172569Y-55863720D01*
X63015000Y-56244126D01*
X63015000Y-56655874D01*
X63172569Y-57036280D01*
X63463720Y-57327431D01*
X63844126Y-57485000D01*
X64255874Y-57485000D01*
X64636280Y-57327431D01*
X64912515Y-57051196D01*
X64994126Y-57085000D01*
X65215001Y-57085000D01*
X65215000Y-59281993D01*
X65065000Y-59644126D01*
X65065000Y-60055874D01*
X65215001Y-60418009D01*
X65215000Y-72362839D01*
X65197663Y-72450000D01*
X65215000Y-72537161D01*
X65215000Y-72537164D01*
X65266348Y-72795309D01*
X65461951Y-73088049D01*
X65535847Y-73137425D01*
X67215001Y-74816580D01*
X67215000Y-78912839D01*
X67197663Y-79000000D01*
X67215000Y-79087161D01*
X67215000Y-79087164D01*
X67266348Y-79345309D01*
X67461951Y-79638049D01*
X67535847Y-79687425D01*
X70098421Y-82250000D01*
X69785845Y-82562577D01*
X69711952Y-82611951D01*
X69662578Y-82685844D01*
X69662576Y-82685846D01*
X69516348Y-82904691D01*
X69447663Y-83250000D01*
X69465001Y-83337165D01*
X69465000Y-88131993D01*
X69315000Y-88494126D01*
X69315000Y-88905874D01*
X69405765Y-89125000D01*
X69315000Y-89344126D01*
X69315000Y-89755874D01*
X69405765Y-89975000D01*
X69315000Y-90194126D01*
X69315000Y-90605874D01*
X69472569Y-90986280D01*
X69763720Y-91277431D01*
X70144126Y-91435000D01*
X70555874Y-91435000D01*
X70936280Y-91277431D01*
X71227431Y-90986280D01*
X71340000Y-90714514D01*
X71340000Y-91330194D01*
X71592720Y-91940314D01*
X72059686Y-92407280D01*
X72669806Y-92660000D01*
X73330194Y-92660000D01*
X73940314Y-92407280D01*
X74407280Y-91940314D01*
X74660000Y-91330194D01*
X74660000Y-90669806D01*
X74407280Y-90059686D01*
X73940314Y-89592720D01*
X73330194Y-89340000D01*
X72669806Y-89340000D01*
X72059686Y-89592720D01*
X71592720Y-90059686D01*
X71385000Y-90561166D01*
X71385000Y-90194126D01*
X71294235Y-89975000D01*
X71385000Y-89755874D01*
X71385000Y-89344126D01*
X71294235Y-89125000D01*
X71385000Y-88905874D01*
X71385000Y-88494126D01*
X71235000Y-88131993D01*
X71235000Y-86036130D01*
X71590000Y-86036130D01*
X71590000Y-86963869D01*
X71671810Y-87375154D01*
X71983447Y-87841552D01*
X72449845Y-88153190D01*
X73000000Y-88262623D01*
X73550154Y-88153190D01*
X74016552Y-87841553D01*
X74328190Y-87375155D01*
X74410000Y-86963870D01*
X74410000Y-86036131D01*
X74328190Y-85624845D01*
X74016553Y-85158447D01*
X73550155Y-84846810D01*
X73000000Y-84737377D01*
X72449846Y-84846810D01*
X71983448Y-85158447D01*
X71671810Y-85624845D01*
X71590000Y-86036130D01*
X71235000Y-86036130D01*
X71235000Y-83616578D01*
X71716579Y-83135000D01*
X107162839Y-83135000D01*
X107250000Y-83152337D01*
X107337161Y-83135000D01*
X107337165Y-83135000D01*
X107595310Y-83083652D01*
X107888049Y-82888049D01*
X107937425Y-82814153D01*
X108950000Y-81801578D01*
X111712577Y-84564156D01*
X111761951Y-84638049D01*
X111835844Y-84687423D01*
X111835845Y-84687424D01*
X111910605Y-84737377D01*
X112054690Y-84833652D01*
X112312835Y-84885000D01*
X112312839Y-84885000D01*
X112400000Y-84902337D01*
X112487161Y-84885000D01*
X126392691Y-84885000D01*
X125983448Y-85158447D01*
X125671810Y-85624845D01*
X125590000Y-86036130D01*
X125590000Y-86963869D01*
X125671810Y-87375154D01*
X125983447Y-87841552D01*
X126449845Y-88153190D01*
X127000000Y-88262623D01*
X127550154Y-88153190D01*
X128016552Y-87841553D01*
X128328190Y-87375155D01*
X128410000Y-86963870D01*
X128410000Y-86036131D01*
X128328190Y-85624845D01*
X128016553Y-85158447D01*
X127607310Y-84885000D01*
X131454867Y-84885000D01*
X131607074Y-85037207D01*
X132024234Y-85210000D01*
X132475766Y-85210000D01*
X132892926Y-85037207D01*
X133084357Y-84845776D01*
X133145310Y-84833652D01*
X133438049Y-84638049D01*
X133487425Y-84564153D01*
X136714156Y-81337423D01*
X136788049Y-81288049D01*
X136849197Y-81196536D01*
X136953264Y-81040789D01*
X136983652Y-80995310D01*
X137035000Y-80737165D01*
X137035000Y-80737161D01*
X137052337Y-80650001D01*
X137035000Y-80562841D01*
X137035000Y-76916578D01*
X141774156Y-72177423D01*
X141848049Y-72128049D01*
X141898816Y-72052072D01*
X142043652Y-71835310D01*
X142057369Y-71766348D01*
X142095000Y-71577165D01*
X142095000Y-71577161D01*
X142112337Y-71490000D01*
X142095000Y-71402839D01*
X142095000Y-67514396D01*
X142426534Y-67182862D01*
X142455000Y-67114138D01*
X142455000Y-76953769D01*
X142393893Y-77437483D01*
X142231563Y-77847481D01*
X141972371Y-78204228D01*
X141620795Y-78495078D01*
X141342914Y-78640090D01*
X139183994Y-79543889D01*
X139158085Y-79561342D01*
X138820389Y-79737569D01*
X138794790Y-79755333D01*
X138766598Y-79768599D01*
X138691924Y-79822853D01*
X138209070Y-80222306D01*
X138177417Y-80256013D01*
X138141787Y-80285489D01*
X138082951Y-80356609D01*
X137714605Y-80863592D01*
X137692326Y-80904117D01*
X137665147Y-80941526D01*
X137625846Y-81025043D01*
X137395155Y-81607704D01*
X137383654Y-81652497D01*
X137366633Y-81695488D01*
X137349341Y-81786137D01*
X137349336Y-81786155D01*
X137349336Y-81786164D01*
X137274048Y-82382130D01*
X137265001Y-82427612D01*
X137265000Y-102915750D01*
X137222525Y-103541596D01*
X131631327Y-144543723D01*
X131490317Y-145092318D01*
X131246877Y-145555704D01*
X130903366Y-145950657D01*
X130478207Y-146255995D01*
X129994214Y-146455332D01*
X129442629Y-146543532D01*
X129373526Y-146545000D01*
X70661375Y-146545000D01*
X70098755Y-146479405D01*
X69606729Y-146300809D01*
X69168984Y-146013810D01*
X68809003Y-145633807D01*
X68546097Y-145181180D01*
X68384180Y-144646572D01*
X68373386Y-144578287D01*
X62777476Y-103541611D01*
X62735000Y-102915750D01*
X62735000Y-82994126D01*
X62965000Y-82994126D01*
X62965000Y-83405874D01*
X63122569Y-83786280D01*
X63240000Y-83903711D01*
X63240001Y-97825148D01*
X63225112Y-97900000D01*
X63284097Y-98196537D01*
X63363856Y-98315904D01*
X63452072Y-98447929D01*
X63515528Y-98490329D01*
X67740001Y-102714803D01*
X67740000Y-128725153D01*
X67725112Y-128800000D01*
X67740000Y-128874847D01*
X67740000Y-128874851D01*
X67784096Y-129096536D01*
X67952071Y-129347929D01*
X68015530Y-129390331D01*
X69240001Y-130614804D01*
X69240000Y-136696289D01*
X69122569Y-136813720D01*
X68965000Y-137194126D01*
X68965000Y-137605874D01*
X69122569Y-137986280D01*
X69413720Y-138277431D01*
X69794126Y-138435000D01*
X70205874Y-138435000D01*
X70586280Y-138277431D01*
X70877431Y-137986280D01*
X70990000Y-137714513D01*
X70990000Y-140796289D01*
X70872569Y-140913720D01*
X70715000Y-141294126D01*
X70715000Y-141705874D01*
X70872569Y-142086280D01*
X71163720Y-142377431D01*
X71544126Y-142535000D01*
X71955874Y-142535000D01*
X72336280Y-142377431D01*
X72627431Y-142086280D01*
X72785000Y-141705874D01*
X72785000Y-141294126D01*
X72627431Y-140913720D01*
X72510000Y-140796289D01*
X72510000Y-131203711D01*
X72627431Y-131086280D01*
X72785000Y-130705874D01*
X72785000Y-130294126D01*
X72627431Y-129913720D01*
X72510000Y-129796289D01*
X72510000Y-120203711D01*
X72627431Y-120086280D01*
X72785000Y-119705874D01*
X72785000Y-119294126D01*
X72627431Y-118913720D01*
X72510000Y-118796289D01*
X72510000Y-109203711D01*
X72627431Y-109086280D01*
X72785000Y-108705874D01*
X72785000Y-108385000D01*
X72905874Y-108385000D01*
X73125263Y-108294126D01*
X82715000Y-108294126D01*
X82715000Y-108705874D01*
X82872569Y-109086280D01*
X82990000Y-109203711D01*
X82990001Y-118796288D01*
X82872569Y-118913720D01*
X82715000Y-119294126D01*
X82715000Y-119705874D01*
X82872569Y-120086280D01*
X82990000Y-120203711D01*
X82990001Y-129796288D01*
X82872569Y-129913720D01*
X82715000Y-130294126D01*
X82715000Y-130705874D01*
X82872569Y-131086280D01*
X82990001Y-131203712D01*
X82990000Y-140796289D01*
X82872569Y-140913720D01*
X82715000Y-141294126D01*
X82715000Y-141705874D01*
X82872569Y-142086280D01*
X83163720Y-142377431D01*
X83544126Y-142535000D01*
X83955874Y-142535000D01*
X84336280Y-142377431D01*
X84627431Y-142086280D01*
X84785000Y-141705874D01*
X84785000Y-141294126D01*
X84627431Y-140913720D01*
X84510000Y-140796289D01*
X84510000Y-131203711D01*
X84627431Y-131086280D01*
X84785000Y-130705874D01*
X84785000Y-130294126D01*
X84627431Y-129913720D01*
X84510000Y-129796289D01*
X84510000Y-120203711D01*
X84627431Y-120086280D01*
X84785000Y-119705874D01*
X84785000Y-119294126D01*
X94715000Y-119294126D01*
X94715000Y-119705874D01*
X94872569Y-120086280D01*
X94990001Y-120203712D01*
X94990000Y-129796289D01*
X94872569Y-129913720D01*
X94715000Y-130294126D01*
X94715000Y-130705874D01*
X94872569Y-131086280D01*
X94990000Y-131203711D01*
X94990001Y-140546288D01*
X94872569Y-140663720D01*
X94715000Y-141044126D01*
X94715000Y-141455874D01*
X94872569Y-141836280D01*
X95163720Y-142127431D01*
X95544126Y-142285000D01*
X95955874Y-142285000D01*
X96336280Y-142127431D01*
X96627431Y-141836280D01*
X96785000Y-141455874D01*
X96785000Y-141044126D01*
X96627431Y-140663720D01*
X96510000Y-140546289D01*
X96510000Y-131203711D01*
X96627431Y-131086280D01*
X96785000Y-130705874D01*
X96785000Y-130294126D01*
X96627431Y-129913720D01*
X96510000Y-129796289D01*
X96510000Y-120203711D01*
X96627431Y-120086280D01*
X96785000Y-119705874D01*
X96785000Y-119294126D01*
X106715000Y-119294126D01*
X106715000Y-119705874D01*
X106872569Y-120086280D01*
X106990000Y-120203711D01*
X106990001Y-129796288D01*
X106872569Y-129913720D01*
X106715000Y-130294126D01*
X106715000Y-130705874D01*
X106872569Y-131086280D01*
X106990001Y-131203712D01*
X106990000Y-140796289D01*
X106872569Y-140913720D01*
X106715000Y-141294126D01*
X106715000Y-141705874D01*
X106872569Y-142086280D01*
X107163720Y-142377431D01*
X107544126Y-142535000D01*
X107955874Y-142535000D01*
X108336280Y-142377431D01*
X108627431Y-142086280D01*
X108785000Y-141705874D01*
X108785000Y-141294126D01*
X108627431Y-140913720D01*
X108510000Y-140796289D01*
X108510000Y-131203711D01*
X108627431Y-131086280D01*
X108785000Y-130705874D01*
X108785000Y-130294126D01*
X108627431Y-129913720D01*
X108510000Y-129796289D01*
X108510000Y-120203711D01*
X108627431Y-120086280D01*
X108785000Y-119705874D01*
X108785000Y-119294126D01*
X118715000Y-119294126D01*
X118715000Y-119705874D01*
X118872569Y-120086280D01*
X118990000Y-120203711D01*
X118990001Y-129796288D01*
X118872569Y-129913720D01*
X118715000Y-130294126D01*
X118715000Y-130705874D01*
X118872569Y-131086280D01*
X118990001Y-131203712D01*
X118990000Y-140796289D01*
X118872569Y-140913720D01*
X118715000Y-141294126D01*
X118715000Y-141705874D01*
X118872569Y-142086280D01*
X119163720Y-142377431D01*
X119544126Y-142535000D01*
X119955874Y-142535000D01*
X120336280Y-142377431D01*
X120627431Y-142086280D01*
X120785000Y-141705874D01*
X120785000Y-141294126D01*
X120627431Y-140913720D01*
X120510000Y-140796289D01*
X120510000Y-131203711D01*
X120627431Y-131086280D01*
X120785000Y-130705874D01*
X120785000Y-130294126D01*
X120627431Y-129913720D01*
X120510000Y-129796289D01*
X120510000Y-120203711D01*
X120627431Y-120086280D01*
X120785000Y-119705874D01*
X120785000Y-119294126D01*
X120627431Y-118913720D01*
X120510000Y-118796289D01*
X120510000Y-115314801D01*
X124564802Y-111260000D01*
X125175153Y-111260000D01*
X125250000Y-111274888D01*
X125324847Y-111260000D01*
X125324852Y-111260000D01*
X125546537Y-111215904D01*
X125797929Y-111047929D01*
X125840331Y-110984470D01*
X127289802Y-109535000D01*
X127455874Y-109535000D01*
X127836280Y-109377431D01*
X128127431Y-109086280D01*
X128285000Y-108705874D01*
X128285000Y-108294126D01*
X128127431Y-107913720D01*
X128010000Y-107796289D01*
X128010000Y-96824848D01*
X128024888Y-96750000D01*
X128010000Y-96675152D01*
X128010000Y-96675148D01*
X127965904Y-96453463D01*
X127797929Y-96202071D01*
X127734473Y-96159671D01*
X125735000Y-94160199D01*
X125735000Y-93994126D01*
X125577431Y-93613720D01*
X125286280Y-93322569D01*
X124905874Y-93165000D01*
X124494126Y-93165000D01*
X124113720Y-93322569D01*
X123822569Y-93613720D01*
X123665000Y-93994126D01*
X123665000Y-94405874D01*
X123822569Y-94786280D01*
X124113720Y-95077431D01*
X124494126Y-95235000D01*
X124660199Y-95235000D01*
X126490001Y-97064803D01*
X126490000Y-107796289D01*
X126372569Y-107913720D01*
X126215000Y-108294126D01*
X126215000Y-108460198D01*
X124935199Y-109740000D01*
X124324846Y-109740000D01*
X124249999Y-109725112D01*
X124175152Y-109740000D01*
X124175148Y-109740000D01*
X123953463Y-109784096D01*
X123702071Y-109952071D01*
X123659671Y-110015527D01*
X119265530Y-114409669D01*
X119202071Y-114452071D01*
X119034096Y-114703464D01*
X118990000Y-114925149D01*
X118990000Y-114925153D01*
X118975112Y-115000000D01*
X118990000Y-115074847D01*
X118990001Y-118796288D01*
X118872569Y-118913720D01*
X118715000Y-119294126D01*
X108785000Y-119294126D01*
X108627431Y-118913720D01*
X108510000Y-118796289D01*
X108510000Y-117314801D01*
X116539802Y-109285000D01*
X116705874Y-109285000D01*
X117086280Y-109127431D01*
X117377431Y-108836280D01*
X117535000Y-108455874D01*
X117535000Y-108289801D01*
X122933789Y-102891013D01*
X123147929Y-102747929D01*
X123190331Y-102684470D01*
X124439802Y-101435000D01*
X124605874Y-101435000D01*
X124986280Y-101277431D01*
X125277431Y-100986280D01*
X125435000Y-100605874D01*
X125435000Y-100194126D01*
X125277431Y-99813720D01*
X125160000Y-99696289D01*
X125160000Y-97174846D01*
X125174888Y-97099999D01*
X125160000Y-97025152D01*
X125160000Y-97025148D01*
X125115904Y-96803463D01*
X124947929Y-96552071D01*
X124884473Y-96509671D01*
X123435000Y-95060199D01*
X123435000Y-94894126D01*
X123277431Y-94513720D01*
X122986280Y-94222569D01*
X122605874Y-94065000D01*
X122194126Y-94065000D01*
X121813720Y-94222569D01*
X121522569Y-94513720D01*
X121365000Y-94894126D01*
X121365000Y-95305874D01*
X121522569Y-95686280D01*
X121813720Y-95977431D01*
X122194126Y-96135000D01*
X122360199Y-96135000D01*
X123640001Y-97414803D01*
X123640000Y-99696289D01*
X123522569Y-99813720D01*
X123365000Y-100194126D01*
X123365000Y-100360198D01*
X122216213Y-101508985D01*
X122002071Y-101652071D01*
X121959671Y-101715527D01*
X116460199Y-107215000D01*
X116294126Y-107215000D01*
X115913720Y-107372569D01*
X115622569Y-107663720D01*
X115465000Y-108044126D01*
X115465000Y-108210198D01*
X107265530Y-116409669D01*
X107202071Y-116452071D01*
X107034096Y-116703464D01*
X106990000Y-116925149D01*
X106990000Y-116925153D01*
X106975112Y-117000000D01*
X106990000Y-117074847D01*
X106990001Y-118796288D01*
X106872569Y-118913720D01*
X106715000Y-119294126D01*
X96785000Y-119294126D01*
X96627431Y-118913720D01*
X96510000Y-118796289D01*
X96510000Y-117314801D01*
X104539802Y-109285000D01*
X104705874Y-109285000D01*
X105086280Y-109127431D01*
X105377431Y-108836280D01*
X105535000Y-108455874D01*
X105535000Y-108289801D01*
X106984473Y-106840329D01*
X107047929Y-106797929D01*
X107215904Y-106546537D01*
X107260000Y-106324852D01*
X107260000Y-106324848D01*
X107274888Y-106250001D01*
X107260000Y-106175154D01*
X107260000Y-100953711D01*
X107377431Y-100836280D01*
X107535000Y-100455874D01*
X107535000Y-100044126D01*
X107377431Y-99663720D01*
X107086280Y-99372569D01*
X106705874Y-99215000D01*
X106294126Y-99215000D01*
X105913720Y-99372569D01*
X105622569Y-99663720D01*
X105465000Y-100044126D01*
X105465000Y-100455874D01*
X105622569Y-100836280D01*
X105740000Y-100953711D01*
X105740001Y-105935197D01*
X104460199Y-107215000D01*
X104294126Y-107215000D01*
X103913720Y-107372569D01*
X103622569Y-107663720D01*
X103465000Y-108044126D01*
X103465000Y-108210198D01*
X95265530Y-116409669D01*
X95202071Y-116452071D01*
X95034096Y-116703464D01*
X94990000Y-116925149D01*
X94990000Y-116925153D01*
X94975112Y-117000000D01*
X94990000Y-117074847D01*
X94990001Y-118796288D01*
X94872569Y-118913720D01*
X94715000Y-119294126D01*
X84785000Y-119294126D01*
X84627431Y-118913720D01*
X84510000Y-118796289D01*
X84510000Y-109203711D01*
X84627431Y-109086280D01*
X84785000Y-108705874D01*
X84785000Y-108294126D01*
X84627431Y-107913720D01*
X84510000Y-107796289D01*
X84510000Y-105314801D01*
X88539803Y-101285000D01*
X88705874Y-101285000D01*
X89086280Y-101127431D01*
X89377431Y-100836280D01*
X89535000Y-100455874D01*
X89535000Y-100044126D01*
X89377431Y-99663720D01*
X89086280Y-99372569D01*
X88705874Y-99215000D01*
X88294126Y-99215000D01*
X87913720Y-99372569D01*
X87622569Y-99663720D01*
X87465000Y-100044126D01*
X87465000Y-100210197D01*
X83265528Y-104409671D01*
X83202072Y-104452071D01*
X83159672Y-104515527D01*
X83159671Y-104515528D01*
X83034097Y-104703463D01*
X82975112Y-105000000D01*
X82990001Y-105074852D01*
X82990000Y-107796289D01*
X82872569Y-107913720D01*
X82715000Y-108294126D01*
X73125263Y-108294126D01*
X73286280Y-108227431D01*
X73577431Y-107936280D01*
X73735000Y-107555874D01*
X73735000Y-107144126D01*
X73577431Y-106763720D01*
X73460000Y-106646289D01*
X73460000Y-98814801D01*
X80298270Y-91976532D01*
X80361726Y-91934132D01*
X80529701Y-91682740D01*
X80573797Y-91461055D01*
X80573797Y-91461051D01*
X80588685Y-91386204D01*
X80573797Y-91311357D01*
X80573797Y-90669806D01*
X89340000Y-90669806D01*
X89340000Y-91330194D01*
X89592720Y-91940314D01*
X90059686Y-92407280D01*
X90669806Y-92660000D01*
X91330194Y-92660000D01*
X91940314Y-92407280D01*
X92407280Y-91940314D01*
X92660000Y-91330194D01*
X92660000Y-90669806D01*
X107340000Y-90669806D01*
X107340000Y-91330194D01*
X107592720Y-91940314D01*
X108059686Y-92407280D01*
X108669806Y-92660000D01*
X109330194Y-92660000D01*
X109940314Y-92407280D01*
X110407280Y-91940314D01*
X110660000Y-91330194D01*
X110660000Y-90669806D01*
X125340000Y-90669806D01*
X125340000Y-91330194D01*
X125592720Y-91940314D01*
X126059686Y-92407280D01*
X126669806Y-92660000D01*
X127330194Y-92660000D01*
X127940314Y-92407280D01*
X128407280Y-91940314D01*
X128660000Y-91330194D01*
X128660000Y-90669806D01*
X128407280Y-90059686D01*
X127940314Y-89592720D01*
X127330194Y-89340000D01*
X126669806Y-89340000D01*
X126059686Y-89592720D01*
X125592720Y-90059686D01*
X125340000Y-90669806D01*
X110660000Y-90669806D01*
X110407280Y-90059686D01*
X109940314Y-89592720D01*
X109330194Y-89340000D01*
X108669806Y-89340000D01*
X108059686Y-89592720D01*
X107592720Y-90059686D01*
X107340000Y-90669806D01*
X92660000Y-90669806D01*
X92407280Y-90059686D01*
X91940314Y-89592720D01*
X91330194Y-89340000D01*
X90669806Y-89340000D01*
X90059686Y-89592720D01*
X89592720Y-90059686D01*
X89340000Y-90669806D01*
X80573797Y-90669806D01*
X80573797Y-87864901D01*
X80691228Y-87747470D01*
X80848797Y-87367064D01*
X80848797Y-86955316D01*
X80691228Y-86574910D01*
X80400077Y-86283759D01*
X80019671Y-86126190D01*
X79607923Y-86126190D01*
X79241626Y-86277915D01*
X78999841Y-86036130D01*
X89590000Y-86036130D01*
X89590000Y-86963869D01*
X89671810Y-87375154D01*
X89983447Y-87841552D01*
X90449845Y-88153190D01*
X91000000Y-88262623D01*
X91550154Y-88153190D01*
X92016552Y-87841553D01*
X92328190Y-87375155D01*
X92410000Y-86963870D01*
X92410000Y-86036131D01*
X92410000Y-86036130D01*
X107590000Y-86036130D01*
X107590000Y-86963869D01*
X107671810Y-87375154D01*
X107983447Y-87841552D01*
X108449845Y-88153190D01*
X109000000Y-88262623D01*
X109550154Y-88153190D01*
X110016552Y-87841553D01*
X110328190Y-87375155D01*
X110410000Y-86963870D01*
X110410000Y-86036131D01*
X110328190Y-85624845D01*
X110016553Y-85158447D01*
X109550155Y-84846810D01*
X109000000Y-84737377D01*
X108449846Y-84846810D01*
X107983448Y-85158447D01*
X107671810Y-85624845D01*
X107590000Y-86036130D01*
X92410000Y-86036130D01*
X92328190Y-85624845D01*
X92016553Y-85158447D01*
X91550155Y-84846810D01*
X91000000Y-84737377D01*
X90449846Y-84846810D01*
X89983448Y-85158447D01*
X89671810Y-85624845D01*
X89590000Y-86036130D01*
X78999841Y-86036130D01*
X78986280Y-86022569D01*
X78605874Y-85865000D01*
X78194126Y-85865000D01*
X77813720Y-86022569D01*
X77522569Y-86313720D01*
X77365000Y-86694126D01*
X77365000Y-87105874D01*
X77522569Y-87486280D01*
X77640000Y-87603711D01*
X77640001Y-89185196D01*
X70215528Y-96609671D01*
X70152072Y-96652071D01*
X70109672Y-96715527D01*
X70109671Y-96715528D01*
X69984097Y-96903463D01*
X69925112Y-97200000D01*
X69940001Y-97274852D01*
X69940001Y-101165198D01*
X66060000Y-97285199D01*
X66060000Y-83903711D01*
X66177431Y-83786280D01*
X66335000Y-83405874D01*
X66335000Y-82994126D01*
X66177431Y-82613720D01*
X65886280Y-82322569D01*
X65505874Y-82165000D01*
X65094126Y-82165000D01*
X64713720Y-82322569D01*
X64650000Y-82386289D01*
X64586280Y-82322569D01*
X64205874Y-82165000D01*
X63794126Y-82165000D01*
X63413720Y-82322569D01*
X63122569Y-82613720D01*
X62965000Y-82994126D01*
X62735000Y-82994126D01*
X62735000Y-82427612D01*
X62728905Y-82396969D01*
X62696753Y-82017420D01*
X62690252Y-81986947D01*
X62688902Y-81955821D01*
X62667693Y-81865989D01*
X62485686Y-81266336D01*
X62466816Y-81224120D01*
X62453385Y-81179870D01*
X62410502Y-81098135D01*
X62410502Y-81098134D01*
X62410499Y-81098131D01*
X62085085Y-80562583D01*
X62056308Y-80526384D01*
X62032296Y-80486868D01*
X61970433Y-80418364D01*
X61522054Y-79980566D01*
X61485176Y-79952659D01*
X61452093Y-79920357D01*
X61375157Y-79869403D01*
X61375139Y-79869390D01*
X61375129Y-79869386D01*
X60854494Y-79569815D01*
X60816006Y-79543888D01*
X58671080Y-78645949D01*
X58248474Y-78402784D01*
X57932964Y-78094719D01*
X57703980Y-77717871D01*
X57571457Y-77281253D01*
X57545000Y-76968924D01*
X57545000Y-75746558D01*
X57625680Y-75941337D01*
X58018663Y-76334320D01*
X58532119Y-76547000D01*
X59087881Y-76547000D01*
X59547743Y-76356519D01*
X60495000Y-76356519D01*
X60495000Y-77643481D01*
X60987500Y-78832480D01*
X61897520Y-79742500D01*
X63086519Y-80235000D01*
X64373481Y-80235000D01*
X65562480Y-79742500D01*
X66472500Y-78832480D01*
X66965000Y-77643481D01*
X66965000Y-76356519D01*
X66472500Y-75167520D01*
X65562480Y-74257500D01*
X64373481Y-73765000D01*
X63086519Y-73765000D01*
X61897520Y-74257500D01*
X60987500Y-75167520D01*
X60495000Y-76356519D01*
X59547743Y-76356519D01*
X59601337Y-76334320D01*
X59994320Y-75941337D01*
X60207000Y-75427881D01*
X60207000Y-74872119D01*
X59994320Y-74358663D01*
X59601337Y-73965680D01*
X59394487Y-73880000D01*
X59601337Y-73794320D01*
X59994320Y-73401337D01*
X60207000Y-72887881D01*
X60207000Y-72332119D01*
X60194020Y-72300782D01*
X62184473Y-70310329D01*
X62247929Y-70267929D01*
X62415904Y-70016537D01*
X62460000Y-69794852D01*
X62460000Y-69794848D01*
X62474888Y-69720001D01*
X62460000Y-69645154D01*
X62460000Y-64764801D01*
X63739802Y-63485000D01*
X63905874Y-63485000D01*
X64286280Y-63327431D01*
X64577431Y-63036280D01*
X64735000Y-62655874D01*
X64735000Y-62244126D01*
X64577431Y-61863720D01*
X64286280Y-61572569D01*
X63905874Y-61415000D01*
X63494126Y-61415000D01*
X63113720Y-61572569D01*
X62822569Y-61863720D01*
X62665000Y-62244126D01*
X62665000Y-62410198D01*
X61660000Y-63415199D01*
X61660000Y-55924847D01*
X61674888Y-55850000D01*
X61660000Y-55775153D01*
X61660000Y-55775148D01*
X61615904Y-55553463D01*
X61447929Y-55302071D01*
X61384473Y-55259671D01*
X60555694Y-54430893D01*
X60497929Y-54344441D01*
X60460541Y-54319459D01*
X60435559Y-54282071D01*
X60184167Y-54114096D01*
X60011324Y-54079715D01*
X59994320Y-54038663D01*
X59601337Y-53645680D01*
X59394487Y-53560000D01*
X59601337Y-53474320D01*
X59994320Y-53081337D01*
X60007300Y-53050000D01*
X60725199Y-53050000D01*
X63290000Y-55614802D01*
G36*
X125565000Y-69494126D02*
X125565000Y-69765000D01*
X122828711Y-69765000D01*
X122736280Y-69672569D01*
X122355874Y-69515000D01*
X121944126Y-69515000D01*
X121563720Y-69672569D01*
X121421289Y-69815000D01*
X120262161Y-69815000D01*
X120175000Y-69797663D01*
X120087839Y-69815000D01*
X120087835Y-69815000D01*
X119831927Y-69865903D01*
X119829690Y-69866348D01*
X119610845Y-70012576D01*
X119610844Y-70012577D01*
X119536951Y-70061951D01*
X119487577Y-70135844D01*
X118660847Y-70962575D01*
X118586951Y-71011951D01*
X118391348Y-71304691D01*
X118340000Y-71562836D01*
X118340000Y-71562839D01*
X118327871Y-71623817D01*
X118185873Y-71565000D01*
X117774125Y-71565000D01*
X117393719Y-71722569D01*
X117102568Y-72013720D01*
X116944999Y-72394126D01*
X116944999Y-72560199D01*
X116915529Y-72589669D01*
X116852071Y-72632070D01*
X116684096Y-72883463D01*
X116640000Y-73105148D01*
X116640000Y-73105152D01*
X116625112Y-73179999D01*
X116640000Y-73254846D01*
X116640000Y-74074852D01*
X116640001Y-74074857D01*
X116640000Y-82246289D01*
X116522569Y-82363720D01*
X116365000Y-82744126D01*
X116365000Y-83115000D01*
X112766579Y-83115000D01*
X109977431Y-80325853D01*
X109873525Y-80075000D01*
X109985000Y-79805874D01*
X109985000Y-79394126D01*
X109827431Y-79013720D01*
X109536280Y-78722569D01*
X109155874Y-78565000D01*
X108744126Y-78565000D01*
X108363720Y-78722569D01*
X108072569Y-79013720D01*
X107915000Y-79394126D01*
X107915000Y-79805874D01*
X108026475Y-80075000D01*
X107922569Y-80325852D01*
X106883422Y-81365000D01*
X79248711Y-81365000D01*
X79369397Y-81244314D01*
X79512222Y-81215904D01*
X79763614Y-81047929D01*
X79806016Y-80984470D01*
X80281400Y-80509087D01*
X80372929Y-80447929D01*
X80434088Y-80356398D01*
X80480486Y-80310000D01*
X105025153Y-80310000D01*
X105100000Y-80324888D01*
X105174847Y-80310000D01*
X105174852Y-80310000D01*
X105396537Y-80265904D01*
X105647929Y-80097929D01*
X105690331Y-80034470D01*
X107964802Y-77760000D01*
X109975153Y-77760000D01*
X110050000Y-77774888D01*
X110124847Y-77760000D01*
X110124852Y-77760000D01*
X110346537Y-77715904D01*
X110597929Y-77547929D01*
X110640331Y-77484470D01*
X118654803Y-69470000D01*
X125574993Y-69470000D01*
X125565000Y-69494126D01*
X125565000Y-69494126D01*
G37*
X125565000Y-69494126D02*
X125565000Y-69765000D01*
X122828711Y-69765000D01*
X122736280Y-69672569D01*
X122355874Y-69515000D01*
X121944126Y-69515000D01*
X121563720Y-69672569D01*
X121421289Y-69815000D01*
X120262161Y-69815000D01*
X120175000Y-69797663D01*
X120087839Y-69815000D01*
X120087835Y-69815000D01*
X119831927Y-69865903D01*
X119829690Y-69866348D01*
X119610845Y-70012576D01*
X119610844Y-70012577D01*
X119536951Y-70061951D01*
X119487577Y-70135844D01*
X118660847Y-70962575D01*
X118586951Y-71011951D01*
X118391348Y-71304691D01*
X118340000Y-71562836D01*
X118340000Y-71562839D01*
X118327871Y-71623817D01*
X118185873Y-71565000D01*
X117774125Y-71565000D01*
X117393719Y-71722569D01*
X117102568Y-72013720D01*
X116944999Y-72394126D01*
X116944999Y-72560199D01*
X116915529Y-72589669D01*
X116852071Y-72632070D01*
X116684096Y-72883463D01*
X116640000Y-73105148D01*
X116640000Y-73105152D01*
X116625112Y-73179999D01*
X116640000Y-73254846D01*
X116640000Y-74074852D01*
X116640001Y-74074857D01*
X116640000Y-82246289D01*
X116522569Y-82363720D01*
X116365000Y-82744126D01*
X116365000Y-83115000D01*
X112766579Y-83115000D01*
X109977431Y-80325853D01*
X109873525Y-80075000D01*
X109985000Y-79805874D01*
X109985000Y-79394126D01*
X109827431Y-79013720D01*
X109536280Y-78722569D01*
X109155874Y-78565000D01*
X108744126Y-78565000D01*
X108363720Y-78722569D01*
X108072569Y-79013720D01*
X107915000Y-79394126D01*
X107915000Y-79805874D01*
X108026475Y-80075000D01*
X107922569Y-80325852D01*
X106883422Y-81365000D01*
X79248711Y-81365000D01*
X79369397Y-81244314D01*
X79512222Y-81215904D01*
X79763614Y-81047929D01*
X79806016Y-80984470D01*
X80281400Y-80509087D01*
X80372929Y-80447929D01*
X80434088Y-80356398D01*
X80480486Y-80310000D01*
X105025153Y-80310000D01*
X105100000Y-80324888D01*
X105174847Y-80310000D01*
X105174852Y-80310000D01*
X105396537Y-80265904D01*
X105647929Y-80097929D01*
X105690331Y-80034470D01*
X107964802Y-77760000D01*
X109975153Y-77760000D01*
X110050000Y-77774888D01*
X110124847Y-77760000D01*
X110124852Y-77760000D01*
X110346537Y-77715904D01*
X110597929Y-77547929D01*
X110640331Y-77484470D01*
X118654803Y-69470000D01*
X125574993Y-69470000D01*
X125565000Y-69494126D01*
G36*
X125090001Y-72522039D02*
X125088720Y-72522569D01*
X124797569Y-72813720D01*
X124640000Y-73194126D01*
X124640000Y-73605874D01*
X124797569Y-73986280D01*
X125088720Y-74277431D01*
X125182250Y-74316172D01*
X125083422Y-74415000D01*
X125068007Y-74415000D01*
X124705874Y-74265000D01*
X124294126Y-74265000D01*
X123913720Y-74422569D01*
X123622569Y-74713720D01*
X123465000Y-75094126D01*
X123465000Y-75505874D01*
X123622569Y-75886280D01*
X123913720Y-76177431D01*
X124294126Y-76335000D01*
X124705874Y-76335000D01*
X125068007Y-76185000D01*
X125362839Y-76185000D01*
X125450000Y-76202337D01*
X125537161Y-76185000D01*
X125537165Y-76185000D01*
X125795310Y-76133652D01*
X126088049Y-75938049D01*
X126137425Y-75864153D01*
X127947870Y-74053708D01*
X128144126Y-74135000D01*
X128555874Y-74135000D01*
X128936280Y-73977431D01*
X129227431Y-73686280D01*
X129259027Y-73610000D01*
X132385199Y-73610000D01*
X133709671Y-74934473D01*
X133752071Y-74997929D01*
X133815527Y-75040329D01*
X134003462Y-75165904D01*
X134049750Y-75175111D01*
X134225148Y-75210000D01*
X134225152Y-75210000D01*
X134300000Y-75224888D01*
X134374848Y-75210000D01*
X136238422Y-75210000D01*
X135585845Y-75862577D01*
X135511952Y-75911951D01*
X135462578Y-75985844D01*
X135462576Y-75985846D01*
X135316348Y-76204691D01*
X135247663Y-76550000D01*
X135265001Y-76637165D01*
X135265001Y-78439491D01*
X135205874Y-78415000D01*
X134794126Y-78415000D01*
X134413720Y-78572569D01*
X134122569Y-78863720D01*
X133965000Y-79244126D01*
X133965000Y-79655874D01*
X134122569Y-80036280D01*
X134205743Y-80119454D01*
X133035199Y-81290000D01*
X124903711Y-81290000D01*
X124636280Y-81022569D01*
X124255874Y-80865000D01*
X123844126Y-80865000D01*
X123463720Y-81022569D01*
X123172569Y-81313720D01*
X123015000Y-81694126D01*
X123015000Y-82105874D01*
X123172569Y-82486280D01*
X123463720Y-82777431D01*
X123844126Y-82935000D01*
X124255874Y-82935000D01*
X124557651Y-82810000D01*
X132738422Y-82810000D01*
X132569568Y-82978854D01*
X132475766Y-82940000D01*
X132024234Y-82940000D01*
X131607074Y-83112793D01*
X131604867Y-83115000D01*
X118435000Y-83115000D01*
X118435000Y-82744126D01*
X118277431Y-82363720D01*
X118160000Y-82246289D01*
X118160000Y-82173711D01*
X118413720Y-82427431D01*
X118794126Y-82585000D01*
X119205874Y-82585000D01*
X119586280Y-82427431D01*
X119877431Y-82136280D01*
X120035000Y-81755874D01*
X120035000Y-81344126D01*
X119877431Y-80963720D01*
X119760000Y-80846289D01*
X119760000Y-79274846D01*
X119774888Y-79199999D01*
X119760000Y-79125152D01*
X119760000Y-79125148D01*
X119715904Y-78903463D01*
X119640310Y-78790329D01*
X119590329Y-78715526D01*
X119590327Y-78715524D01*
X119547929Y-78652071D01*
X119484476Y-78609673D01*
X119060000Y-78185198D01*
X119060000Y-76356519D01*
X127755000Y-76356519D01*
X127755000Y-77643481D01*
X128247500Y-78832480D01*
X129157520Y-79742500D01*
X130346519Y-80235000D01*
X131633481Y-80235000D01*
X132822480Y-79742500D01*
X133732500Y-78832480D01*
X134225000Y-77643481D01*
X134225000Y-76356519D01*
X133732500Y-75167520D01*
X132822480Y-74257500D01*
X131633481Y-73765000D01*
X130346519Y-73765000D01*
X129157520Y-74257500D01*
X128247500Y-75167520D01*
X127755000Y-76356519D01*
X119060000Y-76356519D01*
X119060000Y-74942611D01*
X119239462Y-75016946D01*
X119651210Y-75016946D01*
X120031616Y-74859377D01*
X120322767Y-74568226D01*
X120480336Y-74187820D01*
X120480336Y-73776072D01*
X120322767Y-73395666D01*
X120110000Y-73182899D01*
X120110000Y-72016578D01*
X120541579Y-71585000D01*
X121912165Y-71585000D01*
X121933757Y-71580705D01*
X121944126Y-71585000D01*
X122355874Y-71585000D01*
X122476585Y-71535000D01*
X125090000Y-71535000D01*
X125090001Y-72522039D01*
X125090001Y-72522039D01*
G37*
X125090001Y-72522039D02*
X125088720Y-72522569D01*
X124797569Y-72813720D01*
X124640000Y-73194126D01*
X124640000Y-73605874D01*
X124797569Y-73986280D01*
X125088720Y-74277431D01*
X125182250Y-74316172D01*
X125083422Y-74415000D01*
X125068007Y-74415000D01*
X124705874Y-74265000D01*
X124294126Y-74265000D01*
X123913720Y-74422569D01*
X123622569Y-74713720D01*
X123465000Y-75094126D01*
X123465000Y-75505874D01*
X123622569Y-75886280D01*
X123913720Y-76177431D01*
X124294126Y-76335000D01*
X124705874Y-76335000D01*
X125068007Y-76185000D01*
X125362839Y-76185000D01*
X125450000Y-76202337D01*
X125537161Y-76185000D01*
X125537165Y-76185000D01*
X125795310Y-76133652D01*
X126088049Y-75938049D01*
X126137425Y-75864153D01*
X127947870Y-74053708D01*
X128144126Y-74135000D01*
X128555874Y-74135000D01*
X128936280Y-73977431D01*
X129227431Y-73686280D01*
X129259027Y-73610000D01*
X132385199Y-73610000D01*
X133709671Y-74934473D01*
X133752071Y-74997929D01*
X133815527Y-75040329D01*
X134003462Y-75165904D01*
X134049750Y-75175111D01*
X134225148Y-75210000D01*
X134225152Y-75210000D01*
X134300000Y-75224888D01*
X134374848Y-75210000D01*
X136238422Y-75210000D01*
X135585845Y-75862577D01*
X135511952Y-75911951D01*
X135462578Y-75985844D01*
X135462576Y-75985846D01*
X135316348Y-76204691D01*
X135247663Y-76550000D01*
X135265001Y-76637165D01*
X135265001Y-78439491D01*
X135205874Y-78415000D01*
X134794126Y-78415000D01*
X134413720Y-78572569D01*
X134122569Y-78863720D01*
X133965000Y-79244126D01*
X133965000Y-79655874D01*
X134122569Y-80036280D01*
X134205743Y-80119454D01*
X133035199Y-81290000D01*
X124903711Y-81290000D01*
X124636280Y-81022569D01*
X124255874Y-80865000D01*
X123844126Y-80865000D01*
X123463720Y-81022569D01*
X123172569Y-81313720D01*
X123015000Y-81694126D01*
X123015000Y-82105874D01*
X123172569Y-82486280D01*
X123463720Y-82777431D01*
X123844126Y-82935000D01*
X124255874Y-82935000D01*
X124557651Y-82810000D01*
X132738422Y-82810000D01*
X132569568Y-82978854D01*
X132475766Y-82940000D01*
X132024234Y-82940000D01*
X131607074Y-83112793D01*
X131604867Y-83115000D01*
X118435000Y-83115000D01*
X118435000Y-82744126D01*
X118277431Y-82363720D01*
X118160000Y-82246289D01*
X118160000Y-82173711D01*
X118413720Y-82427431D01*
X118794126Y-82585000D01*
X119205874Y-82585000D01*
X119586280Y-82427431D01*
X119877431Y-82136280D01*
X120035000Y-81755874D01*
X120035000Y-81344126D01*
X119877431Y-80963720D01*
X119760000Y-80846289D01*
X119760000Y-79274846D01*
X119774888Y-79199999D01*
X119760000Y-79125152D01*
X119760000Y-79125148D01*
X119715904Y-78903463D01*
X119640310Y-78790329D01*
X119590329Y-78715526D01*
X119590327Y-78715524D01*
X119547929Y-78652071D01*
X119484476Y-78609673D01*
X119060000Y-78185198D01*
X119060000Y-76356519D01*
X127755000Y-76356519D01*
X127755000Y-77643481D01*
X128247500Y-78832480D01*
X129157520Y-79742500D01*
X130346519Y-80235000D01*
X131633481Y-80235000D01*
X132822480Y-79742500D01*
X133732500Y-78832480D01*
X134225000Y-77643481D01*
X134225000Y-76356519D01*
X133732500Y-75167520D01*
X132822480Y-74257500D01*
X131633481Y-73765000D01*
X130346519Y-73765000D01*
X129157520Y-74257500D01*
X128247500Y-75167520D01*
X127755000Y-76356519D01*
X119060000Y-76356519D01*
X119060000Y-74942611D01*
X119239462Y-75016946D01*
X119651210Y-75016946D01*
X120031616Y-74859377D01*
X120322767Y-74568226D01*
X120480336Y-74187820D01*
X120480336Y-73776072D01*
X120322767Y-73395666D01*
X120110000Y-73182899D01*
X120110000Y-72016578D01*
X120541579Y-71585000D01*
X121912165Y-71585000D01*
X121933757Y-71580705D01*
X121944126Y-71585000D01*
X122355874Y-71585000D01*
X122476585Y-71535000D01*
X125090000Y-71535000D01*
X125090001Y-72522039D01*
G36*
X85790000Y-72544126D02*
X85790000Y-72955874D01*
X85947569Y-73336280D01*
X86238720Y-73627431D01*
X86619126Y-73785000D01*
X86810199Y-73785000D01*
X88615001Y-75589803D01*
X88615000Y-77146289D01*
X88497569Y-77263720D01*
X88340000Y-77644126D01*
X88340000Y-78055874D01*
X88416267Y-78240000D01*
X81274117Y-78240000D01*
X80291271Y-77257155D01*
X80385000Y-77030874D01*
X80385000Y-76619126D01*
X80227431Y-76238720D01*
X79936280Y-75947569D01*
X79555874Y-75790000D01*
X79144126Y-75790000D01*
X78763720Y-75947569D01*
X78472569Y-76238720D01*
X78315000Y-76619126D01*
X78315000Y-77030874D01*
X78472569Y-77411280D01*
X78605686Y-77544397D01*
X78634096Y-77687222D01*
X78802072Y-77938614D01*
X78865528Y-77981014D01*
X79778907Y-78894393D01*
X79617756Y-79002071D01*
X79575354Y-79065530D01*
X79331215Y-79309669D01*
X79267756Y-79352071D01*
X79225356Y-79415527D01*
X79082155Y-79558728D01*
X78855874Y-79465000D01*
X78444126Y-79465000D01*
X78063720Y-79622569D01*
X77772569Y-79913720D01*
X77615000Y-80294126D01*
X77615000Y-80705874D01*
X77772569Y-81086280D01*
X78051289Y-81365000D01*
X77289802Y-81365000D01*
X76885000Y-80960199D01*
X76885000Y-77903711D01*
X77002431Y-77786280D01*
X77160000Y-77405874D01*
X77160000Y-77239801D01*
X80214802Y-74185000D01*
X80380874Y-74185000D01*
X80761280Y-74027431D01*
X81052431Y-73736280D01*
X81210000Y-73355874D01*
X81210000Y-72944126D01*
X81052431Y-72563720D01*
X80823711Y-72335000D01*
X85876623Y-72335000D01*
X85790000Y-72544126D01*
X85790000Y-72544126D01*
G37*
X85790000Y-72544126D02*
X85790000Y-72955874D01*
X85947569Y-73336280D01*
X86238720Y-73627431D01*
X86619126Y-73785000D01*
X86810199Y-73785000D01*
X88615001Y-75589803D01*
X88615000Y-77146289D01*
X88497569Y-77263720D01*
X88340000Y-77644126D01*
X88340000Y-78055874D01*
X88416267Y-78240000D01*
X81274117Y-78240000D01*
X80291271Y-77257155D01*
X80385000Y-77030874D01*
X80385000Y-76619126D01*
X80227431Y-76238720D01*
X79936280Y-75947569D01*
X79555874Y-75790000D01*
X79144126Y-75790000D01*
X78763720Y-75947569D01*
X78472569Y-76238720D01*
X78315000Y-76619126D01*
X78315000Y-77030874D01*
X78472569Y-77411280D01*
X78605686Y-77544397D01*
X78634096Y-77687222D01*
X78802072Y-77938614D01*
X78865528Y-77981014D01*
X79778907Y-78894393D01*
X79617756Y-79002071D01*
X79575354Y-79065530D01*
X79331215Y-79309669D01*
X79267756Y-79352071D01*
X79225356Y-79415527D01*
X79082155Y-79558728D01*
X78855874Y-79465000D01*
X78444126Y-79465000D01*
X78063720Y-79622569D01*
X77772569Y-79913720D01*
X77615000Y-80294126D01*
X77615000Y-80705874D01*
X77772569Y-81086280D01*
X78051289Y-81365000D01*
X77289802Y-81365000D01*
X76885000Y-80960199D01*
X76885000Y-77903711D01*
X77002431Y-77786280D01*
X77160000Y-77405874D01*
X77160000Y-77239801D01*
X80214802Y-74185000D01*
X80380874Y-74185000D01*
X80761280Y-74027431D01*
X81052431Y-73736280D01*
X81210000Y-73355874D01*
X81210000Y-72944126D01*
X81052431Y-72563720D01*
X80823711Y-72335000D01*
X85876623Y-72335000D01*
X85790000Y-72544126D01*
G36*
X60987500Y-38447520D02*
X60495000Y-39636519D01*
X60495000Y-40923481D01*
X60987500Y-42112480D01*
X61897520Y-43022500D01*
X63086519Y-43515000D01*
X64373481Y-43515000D01*
X65562480Y-43022500D01*
X66472500Y-42112480D01*
X66965000Y-40923481D01*
X66965000Y-39636519D01*
X66472500Y-38447520D01*
X66039980Y-38015000D01*
X69393574Y-38015000D01*
X68960556Y-38194362D01*
X68444362Y-38710556D01*
X68165000Y-39384996D01*
X68165000Y-40115004D01*
X68444362Y-40789444D01*
X68960556Y-41305638D01*
X69634996Y-41585000D01*
X70365004Y-41585000D01*
X71039444Y-41305638D01*
X71555638Y-40789444D01*
X71835000Y-40115004D01*
X71835000Y-39384996D01*
X71555638Y-38710556D01*
X71039444Y-38194362D01*
X70606426Y-38015000D01*
X79393574Y-38015000D01*
X78960556Y-38194362D01*
X78444362Y-38710556D01*
X78165000Y-39384996D01*
X78165000Y-40115004D01*
X78444362Y-40789444D01*
X78960556Y-41305638D01*
X79634996Y-41585000D01*
X80365004Y-41585000D01*
X80463158Y-41544343D01*
X83765000Y-41544343D01*
X83765000Y-42035657D01*
X83953018Y-42489571D01*
X84300429Y-42836982D01*
X84754343Y-43025000D01*
X85245657Y-43025000D01*
X85699571Y-42836982D01*
X86046982Y-42489571D01*
X86235000Y-42035657D01*
X86235000Y-41790000D01*
X88084928Y-41790000D01*
X88204062Y-42388927D01*
X88543327Y-42896673D01*
X89051073Y-43235938D01*
X89498818Y-43325000D01*
X90501182Y-43325000D01*
X90948927Y-43235938D01*
X91456673Y-42896673D01*
X91795938Y-42388927D01*
X91915072Y-41790000D01*
X91866208Y-41544343D01*
X93765000Y-41544343D01*
X93765000Y-42035657D01*
X93953018Y-42489571D01*
X94300429Y-42836982D01*
X94754343Y-43025000D01*
X95245657Y-43025000D01*
X95699571Y-42836982D01*
X96046982Y-42489571D01*
X96104391Y-42350973D01*
X96222569Y-42636280D01*
X96347027Y-42760738D01*
X96240000Y-43019126D01*
X96240000Y-43430874D01*
X96397569Y-43811280D01*
X96688720Y-44102431D01*
X97069126Y-44260000D01*
X97480874Y-44260000D01*
X97861280Y-44102431D01*
X98152431Y-43811280D01*
X98286009Y-43488792D01*
X98552790Y-43222013D01*
X98663664Y-43147929D01*
X98706066Y-43084470D01*
X100130537Y-41660000D01*
X107675153Y-41660000D01*
X107750000Y-41674888D01*
X107824847Y-41660000D01*
X107824852Y-41660000D01*
X108046537Y-41615904D01*
X108297929Y-41447929D01*
X108340331Y-41384470D01*
X108942636Y-40782166D01*
X109006092Y-40739766D01*
X109097167Y-40603463D01*
X109174067Y-40488375D01*
X109198584Y-40365117D01*
X109218163Y-40266689D01*
X109218163Y-40266685D01*
X109230788Y-40203213D01*
X109335594Y-40098407D01*
X109493163Y-39718001D01*
X109493163Y-39306253D01*
X109335594Y-38925847D01*
X109044443Y-38634696D01*
X108664037Y-38477127D01*
X108252289Y-38477127D01*
X108007475Y-38578532D01*
X107664856Y-38436615D01*
X107253108Y-38436615D01*
X106872702Y-38594184D01*
X106670109Y-38796778D01*
X106490468Y-38617137D01*
X106110062Y-38459568D01*
X105698314Y-38459568D01*
X105317908Y-38617137D01*
X105200477Y-38734568D01*
X98730280Y-38734568D01*
X98655432Y-38719680D01*
X98580584Y-38734568D01*
X98580580Y-38734568D01*
X98407037Y-38769088D01*
X98358894Y-38778664D01*
X98171850Y-38903644D01*
X98107503Y-38946639D01*
X98065103Y-39010095D01*
X97960198Y-39115000D01*
X97794126Y-39115000D01*
X97413720Y-39272569D01*
X97122569Y-39563720D01*
X96965000Y-39944126D01*
X96965000Y-40355874D01*
X97122569Y-40736280D01*
X97226552Y-40840263D01*
X97209672Y-40865525D01*
X97060198Y-41015000D01*
X96894126Y-41015000D01*
X96513720Y-41172569D01*
X96222569Y-41463720D01*
X96212087Y-41489026D01*
X96046982Y-41090429D01*
X95699571Y-40743018D01*
X95245657Y-40555000D01*
X94754343Y-40555000D01*
X94300429Y-40743018D01*
X93953018Y-41090429D01*
X93765000Y-41544343D01*
X91866208Y-41544343D01*
X91795938Y-41191073D01*
X91456673Y-40683327D01*
X90948927Y-40344062D01*
X90501182Y-40255000D01*
X89498818Y-40255000D01*
X89051073Y-40344062D01*
X88543327Y-40683327D01*
X88204062Y-41191073D01*
X88084928Y-41790000D01*
X86235000Y-41790000D01*
X86235000Y-41544343D01*
X86046982Y-41090429D01*
X85699571Y-40743018D01*
X85245657Y-40555000D01*
X84754343Y-40555000D01*
X84300429Y-40743018D01*
X83953018Y-41090429D01*
X83765000Y-41544343D01*
X80463158Y-41544343D01*
X81039444Y-41305638D01*
X81555638Y-40789444D01*
X81835000Y-40115004D01*
X81835000Y-39384996D01*
X81693898Y-39044343D01*
X83765000Y-39044343D01*
X83765000Y-39535657D01*
X83953018Y-39989571D01*
X84300429Y-40336982D01*
X84754343Y-40525000D01*
X85245657Y-40525000D01*
X85699571Y-40336982D01*
X86046982Y-39989571D01*
X86235000Y-39535657D01*
X86235000Y-39044343D01*
X86046982Y-38590429D01*
X85699571Y-38243018D01*
X85245657Y-38055000D01*
X84754343Y-38055000D01*
X84300429Y-38243018D01*
X83953018Y-38590429D01*
X83765000Y-39044343D01*
X81693898Y-39044343D01*
X81555638Y-38710556D01*
X81039444Y-38194362D01*
X80606426Y-38015000D01*
X86977495Y-38015000D01*
X87377039Y-38612961D01*
X87984019Y-39018531D01*
X88519273Y-39125000D01*
X91480727Y-39125000D01*
X91886215Y-39044343D01*
X93765000Y-39044343D01*
X93765000Y-39535657D01*
X93953018Y-39989571D01*
X94300429Y-40336982D01*
X94754343Y-40525000D01*
X95245657Y-40525000D01*
X95699571Y-40336982D01*
X96046982Y-39989571D01*
X96235000Y-39535657D01*
X96235000Y-39044343D01*
X96046982Y-38590429D01*
X95699571Y-38243018D01*
X95245657Y-38055000D01*
X94754343Y-38055000D01*
X94300429Y-38243018D01*
X93953018Y-38590429D01*
X93765000Y-39044343D01*
X91886215Y-39044343D01*
X92015981Y-39018531D01*
X92622961Y-38612961D01*
X93022505Y-38015000D01*
X128680020Y-38015000D01*
X128247500Y-38447520D01*
X127755000Y-39636519D01*
X127755000Y-40923481D01*
X128247500Y-42112480D01*
X129157520Y-43022500D01*
X130346519Y-43515000D01*
X131633481Y-43515000D01*
X132250707Y-43259336D01*
X134553542Y-43259336D01*
X134579161Y-43869460D01*
X134763357Y-44314148D01*
X135019841Y-44400554D01*
X135920395Y-43500000D01*
X136279605Y-43500000D01*
X137180159Y-44400554D01*
X137436643Y-44314148D01*
X137646458Y-43740664D01*
X137620839Y-43130540D01*
X137436643Y-42685852D01*
X137180159Y-42599446D01*
X136279605Y-43500000D01*
X135920395Y-43500000D01*
X135019841Y-42599446D01*
X134763357Y-42685852D01*
X134553542Y-43259336D01*
X132250707Y-43259336D01*
X132822480Y-43022500D01*
X133425139Y-42419841D01*
X135199446Y-42419841D01*
X136100000Y-43320395D01*
X137000554Y-42419841D01*
X136914148Y-42163357D01*
X136340664Y-41953542D01*
X135730540Y-41979161D01*
X135285852Y-42163357D01*
X135199446Y-42419841D01*
X133425139Y-42419841D01*
X133732500Y-42112480D01*
X134225000Y-40923481D01*
X134225000Y-39636519D01*
X133732500Y-38447520D01*
X133299980Y-38015000D01*
X140147298Y-38015000D01*
X140709918Y-38080594D01*
X141201944Y-38259191D01*
X141639692Y-38546192D01*
X141999668Y-38926190D01*
X142262576Y-39378821D01*
X142417220Y-39889416D01*
X142455001Y-40312743D01*
X142455001Y-49876975D01*
X142369698Y-49791673D01*
X142136309Y-49695000D01*
X141495750Y-49695000D01*
X141337000Y-49853750D01*
X141337000Y-51003000D01*
X141357000Y-51003000D01*
X141357000Y-51257000D01*
X141337000Y-51257000D01*
X141337000Y-52406250D01*
X141495750Y-52565000D01*
X142136309Y-52565000D01*
X142369698Y-52468327D01*
X142455001Y-52383025D01*
X142455000Y-65625862D01*
X142426534Y-65557138D01*
X142022862Y-65153466D01*
X141495439Y-64935000D01*
X140924561Y-64935000D01*
X140660000Y-65044585D01*
X140660000Y-52565000D01*
X140924250Y-52565000D01*
X141083000Y-52406250D01*
X141083000Y-51257000D01*
X141063000Y-51257000D01*
X141063000Y-51003000D01*
X141083000Y-51003000D01*
X141083000Y-49853750D01*
X140924250Y-49695000D01*
X140660000Y-49695000D01*
X140660000Y-49574848D01*
X140674888Y-49500000D01*
X140660000Y-49425152D01*
X140660000Y-49425148D01*
X140616390Y-49205904D01*
X140615904Y-49203462D01*
X140490329Y-49015527D01*
X140447929Y-48952071D01*
X140384473Y-48909671D01*
X138765330Y-47290529D01*
X138722928Y-47227070D01*
X138471536Y-47059095D01*
X138249851Y-47014999D01*
X138249846Y-47014999D01*
X138174999Y-47000111D01*
X138100152Y-47014999D01*
X137255818Y-47014999D01*
X137401310Y-46869507D01*
X137635000Y-46305330D01*
X137635000Y-45694670D01*
X137401310Y-45130493D01*
X136969507Y-44698690D01*
X136961710Y-44695461D01*
X137000554Y-44580159D01*
X136100000Y-43679605D01*
X135199446Y-44580159D01*
X135238290Y-44695461D01*
X135230493Y-44698690D01*
X134798690Y-45130493D01*
X134565000Y-45694670D01*
X134565000Y-46290198D01*
X132090331Y-43815530D01*
X132047929Y-43752071D01*
X131796537Y-43584096D01*
X131574852Y-43540000D01*
X131574847Y-43540000D01*
X131500000Y-43525112D01*
X131425153Y-43540000D01*
X127663661Y-43540000D01*
X127720862Y-43482799D01*
X127985000Y-42845113D01*
X127985000Y-42154887D01*
X127720862Y-41517201D01*
X127232799Y-41029138D01*
X126595113Y-40765000D01*
X126290479Y-40765000D01*
X126485000Y-40295385D01*
X126485000Y-39704615D01*
X126258922Y-39158815D01*
X125841185Y-38741078D01*
X125295385Y-38515000D01*
X124704615Y-38515000D01*
X124158815Y-38741078D01*
X123741078Y-39158815D01*
X123515000Y-39704615D01*
X123515000Y-40295385D01*
X123550030Y-40379956D01*
X123434097Y-40553463D01*
X123390001Y-40775148D01*
X123390001Y-40775152D01*
X123375113Y-40849999D01*
X123390001Y-40924846D01*
X123390002Y-42115000D01*
X123258217Y-42115000D01*
X122927145Y-42180854D01*
X122909164Y-42192869D01*
X122847765Y-42151843D01*
X122600000Y-42102560D01*
X121600000Y-42102560D01*
X121352235Y-42151843D01*
X121142191Y-42292191D01*
X121001843Y-42502235D01*
X120985000Y-42586911D01*
X120985000Y-42154887D01*
X120720862Y-41517201D01*
X120688661Y-41485000D01*
X120795385Y-41485000D01*
X121341185Y-41258922D01*
X121758922Y-40841185D01*
X121985000Y-40295385D01*
X121985000Y-39704615D01*
X121758922Y-39158815D01*
X121341185Y-38741078D01*
X120795385Y-38515000D01*
X120204615Y-38515000D01*
X119658815Y-38741078D01*
X119241078Y-39158815D01*
X119015000Y-39704615D01*
X119015000Y-40295385D01*
X119209521Y-40765000D01*
X118904887Y-40765000D01*
X118267201Y-41029138D01*
X117779138Y-41517201D01*
X117515000Y-42154887D01*
X117515000Y-42845113D01*
X117779138Y-43482799D01*
X118267201Y-43970862D01*
X118904887Y-44235000D01*
X119595113Y-44235000D01*
X120232799Y-43970862D01*
X120720862Y-43482799D01*
X120952560Y-42923430D01*
X120952560Y-43750000D01*
X121001843Y-43997765D01*
X121142191Y-44207809D01*
X121352235Y-44348157D01*
X121600000Y-44397440D01*
X122600000Y-44397440D01*
X122847765Y-44348157D01*
X122909164Y-44307131D01*
X122927145Y-44319146D01*
X123258217Y-44385000D01*
X123481783Y-44385000D01*
X123812855Y-44319146D01*
X123951623Y-44226424D01*
X124509673Y-44784475D01*
X124552071Y-44847929D01*
X124615524Y-44890327D01*
X124615526Y-44890329D01*
X124740902Y-44974102D01*
X124803463Y-45015904D01*
X125025148Y-45060000D01*
X125025152Y-45060000D01*
X125099999Y-45074888D01*
X125174846Y-45060000D01*
X126914201Y-45060000D01*
X126822332Y-45151869D01*
X126679507Y-45180279D01*
X126500332Y-45300000D01*
X118824802Y-45300000D01*
X117590331Y-44065530D01*
X117547929Y-44002071D01*
X117296537Y-43834096D01*
X117074852Y-43790000D01*
X114834802Y-43790000D01*
X114220331Y-43175530D01*
X114177929Y-43112071D01*
X113926537Y-42944096D01*
X113704852Y-42900000D01*
X113704847Y-42900000D01*
X113630000Y-42885112D01*
X113555153Y-42900000D01*
X110854846Y-42900000D01*
X110779999Y-42885112D01*
X110705152Y-42900000D01*
X110705148Y-42900000D01*
X110483463Y-42944096D01*
X110232071Y-43112071D01*
X110189671Y-43175527D01*
X109575199Y-43790000D01*
X104764802Y-43790000D01*
X104540331Y-43565529D01*
X104497929Y-43502071D01*
X104246537Y-43334096D01*
X104024852Y-43290000D01*
X104024847Y-43290000D01*
X103950000Y-43275112D01*
X103940677Y-43276966D01*
X103836280Y-43172569D01*
X103455874Y-43015000D01*
X103044126Y-43015000D01*
X102663720Y-43172569D01*
X102372569Y-43463720D01*
X102215000Y-43844126D01*
X102215000Y-44255874D01*
X102372569Y-44636280D01*
X102392738Y-44656449D01*
X102315000Y-44844126D01*
X102315000Y-45255874D01*
X102472569Y-45636280D01*
X102763720Y-45927431D01*
X103144126Y-46085000D01*
X103555874Y-46085000D01*
X103936280Y-45927431D01*
X104053711Y-45810000D01*
X110015153Y-45810000D01*
X110090000Y-45824888D01*
X110164847Y-45810000D01*
X110164852Y-45810000D01*
X110386537Y-45765904D01*
X110637929Y-45597929D01*
X110680331Y-45534470D01*
X111230010Y-44984792D01*
X111230010Y-45090874D01*
X111387579Y-45471280D01*
X111678730Y-45762431D01*
X111915062Y-45860323D01*
X111583720Y-45997569D01*
X111292569Y-46288720D01*
X111135000Y-46669126D01*
X111135000Y-46840000D01*
X108123476Y-46840000D01*
X108048629Y-46825112D01*
X107973782Y-46840000D01*
X107973778Y-46840000D01*
X107752093Y-46884096D01*
X107500701Y-47052071D01*
X107458301Y-47115527D01*
X105963018Y-48610810D01*
X105837207Y-48307074D01*
X105517926Y-47987793D01*
X105100766Y-47815000D01*
X104649234Y-47815000D01*
X104232074Y-47987793D01*
X103912793Y-48307074D01*
X103740000Y-48724234D01*
X103740000Y-49175766D01*
X103912793Y-49592926D01*
X104232074Y-49912207D01*
X104649234Y-50085000D01*
X104665604Y-50085000D01*
X104433466Y-50317138D01*
X104380000Y-50446216D01*
X104326534Y-50317138D01*
X103922862Y-49913466D01*
X103395439Y-49695000D01*
X102824561Y-49695000D01*
X102297138Y-49913466D01*
X101893466Y-50317138D01*
X101840000Y-50446216D01*
X101786534Y-50317138D01*
X101382862Y-49913466D01*
X100855439Y-49695000D01*
X100284561Y-49695000D01*
X99757138Y-49913466D01*
X99353466Y-50317138D01*
X99300000Y-50446216D01*
X99246534Y-50317138D01*
X98842862Y-49913466D01*
X98315439Y-49695000D01*
X97744561Y-49695000D01*
X97217138Y-49913466D01*
X96813466Y-50317138D01*
X96760000Y-50446216D01*
X96706534Y-50317138D01*
X96302862Y-49913466D01*
X95775439Y-49695000D01*
X95204561Y-49695000D01*
X94677138Y-49913466D01*
X94273466Y-50317138D01*
X94220000Y-50446216D01*
X94166534Y-50317138D01*
X93762862Y-49913466D01*
X93235439Y-49695000D01*
X92664561Y-49695000D01*
X92137138Y-49913466D01*
X91733466Y-50317138D01*
X91680000Y-50446216D01*
X91626534Y-50317138D01*
X91222862Y-49913466D01*
X90695439Y-49695000D01*
X90124561Y-49695000D01*
X89597138Y-49913466D01*
X89193466Y-50317138D01*
X89140000Y-50446216D01*
X89086534Y-50317138D01*
X88682862Y-49913466D01*
X88155439Y-49695000D01*
X87584561Y-49695000D01*
X87057138Y-49913466D01*
X86653466Y-50317138D01*
X86600000Y-50446216D01*
X86546534Y-50317138D01*
X86142862Y-49913466D01*
X85615439Y-49695000D01*
X85044561Y-49695000D01*
X84517138Y-49913466D01*
X84113466Y-50317138D01*
X84060000Y-50446216D01*
X84006534Y-50317138D01*
X83602862Y-49913466D01*
X83075439Y-49695000D01*
X82504561Y-49695000D01*
X81977138Y-49913466D01*
X81573466Y-50317138D01*
X81355000Y-50844561D01*
X81355000Y-51415439D01*
X81573466Y-51942862D01*
X81977138Y-52346534D01*
X82504561Y-52565000D01*
X83075439Y-52565000D01*
X83602862Y-52346534D01*
X84006534Y-51942862D01*
X84060000Y-51813784D01*
X84113466Y-51942862D01*
X84517138Y-52346534D01*
X85044561Y-52565000D01*
X85615439Y-52565000D01*
X85668302Y-52543104D01*
X86440001Y-53314804D01*
X86440001Y-57029136D01*
X86405874Y-57015000D01*
X85994126Y-57015000D01*
X85613720Y-57172569D01*
X85322569Y-57463720D01*
X85165000Y-57844126D01*
X85165000Y-58010198D01*
X84615528Y-58559671D01*
X84552072Y-58602071D01*
X84509672Y-58665527D01*
X84509671Y-58665528D01*
X84415895Y-58805874D01*
X84384097Y-58853463D01*
X84362160Y-58963750D01*
X84325112Y-59150000D01*
X84340001Y-59224852D01*
X84340000Y-60585198D01*
X84185199Y-60740000D01*
X81174848Y-60740000D01*
X81100000Y-60725112D01*
X81025152Y-60740000D01*
X81025148Y-60740000D01*
X80861413Y-60772569D01*
X80803462Y-60784096D01*
X80719304Y-60840329D01*
X80552071Y-60952071D01*
X80509671Y-61015527D01*
X77015530Y-64509669D01*
X76952071Y-64552071D01*
X76784096Y-64803464D01*
X76740000Y-65025149D01*
X76740000Y-65025153D01*
X76725112Y-65100000D01*
X76740000Y-65174847D01*
X76740001Y-67785197D01*
X76585198Y-67940000D01*
X76419126Y-67940000D01*
X76038720Y-68097569D01*
X75747569Y-68388720D01*
X75590000Y-68769126D01*
X75590000Y-69180874D01*
X75747569Y-69561280D01*
X76038720Y-69852431D01*
X76419126Y-70010000D01*
X76830874Y-70010000D01*
X77017502Y-69932696D01*
X75385199Y-71565000D01*
X72578711Y-71565000D01*
X72461280Y-71447569D01*
X72080874Y-71290000D01*
X71669126Y-71290000D01*
X71288720Y-71447569D01*
X71185000Y-71551289D01*
X71185000Y-70578711D01*
X71302431Y-70461280D01*
X71460000Y-70080874D01*
X71460000Y-69669126D01*
X71302431Y-69288720D01*
X71011280Y-68997569D01*
X70630874Y-68840000D01*
X70219126Y-68840000D01*
X69838720Y-68997569D01*
X69547569Y-69288720D01*
X69390000Y-69669126D01*
X69390000Y-70080874D01*
X69547569Y-70461280D01*
X69665001Y-70578712D01*
X69665000Y-72550153D01*
X69650112Y-72625000D01*
X69665000Y-72699847D01*
X69665000Y-72699851D01*
X69709096Y-72921536D01*
X69877071Y-73172929D01*
X69940530Y-73215331D01*
X71134671Y-74409473D01*
X71177071Y-74472929D01*
X71428463Y-74640904D01*
X71650148Y-74685000D01*
X71650152Y-74685000D01*
X71725000Y-74699888D01*
X71799848Y-74685000D01*
X72296289Y-74685000D01*
X72413720Y-74802431D01*
X72738316Y-74936883D01*
X71215528Y-76459671D01*
X71152072Y-76502071D01*
X71109672Y-76565527D01*
X71109671Y-76565528D01*
X71055961Y-76645911D01*
X70984097Y-76753463D01*
X70971857Y-76815000D01*
X70925112Y-77050000D01*
X70940001Y-77124852D01*
X70940000Y-80196289D01*
X70822569Y-80313720D01*
X70776506Y-80424927D01*
X68985000Y-78633422D01*
X68985000Y-74537159D01*
X69002337Y-74449999D01*
X68985000Y-74362839D01*
X68985000Y-74362835D01*
X68933652Y-74104690D01*
X68840768Y-73965680D01*
X68787424Y-73885845D01*
X68787423Y-73885844D01*
X68738049Y-73811951D01*
X68664156Y-73762577D01*
X66985000Y-72083422D01*
X66985000Y-63494126D01*
X68815000Y-63494126D01*
X68815000Y-63905874D01*
X68972569Y-64286280D01*
X69263720Y-64577431D01*
X69644126Y-64735000D01*
X70055874Y-64735000D01*
X70436280Y-64577431D01*
X70727431Y-64286280D01*
X70885000Y-63905874D01*
X70885000Y-63494126D01*
X70727431Y-63113720D01*
X70610000Y-62996289D01*
X70610000Y-60564801D01*
X71539802Y-59635000D01*
X71705874Y-59635000D01*
X72086280Y-59477431D01*
X72377431Y-59186280D01*
X72535000Y-58805874D01*
X72535000Y-58394126D01*
X72377431Y-58013720D01*
X72086280Y-57722569D01*
X71705874Y-57565000D01*
X71294126Y-57565000D01*
X70913720Y-57722569D01*
X70622569Y-58013720D01*
X70465000Y-58394126D01*
X70465000Y-58560198D01*
X69365530Y-59659669D01*
X69302071Y-59702071D01*
X69134096Y-59953464D01*
X69090000Y-60175149D01*
X69090000Y-60175153D01*
X69075112Y-60250000D01*
X69090000Y-60324847D01*
X69090001Y-62996288D01*
X68972569Y-63113720D01*
X68815000Y-63494126D01*
X66985000Y-63494126D01*
X66985000Y-60418007D01*
X67135000Y-60055874D01*
X67135000Y-59644126D01*
X66985000Y-59281993D01*
X66985000Y-55087161D01*
X67002337Y-55000000D01*
X66985000Y-54912839D01*
X66985000Y-54912835D01*
X66933652Y-54654690D01*
X66899423Y-54603463D01*
X66787424Y-54435845D01*
X66787423Y-54435844D01*
X66738049Y-54361951D01*
X66664156Y-54312577D01*
X62635000Y-50283422D01*
X62635000Y-49424778D01*
X69365000Y-49424778D01*
X69365000Y-50075222D01*
X69613914Y-50676153D01*
X70073847Y-51136086D01*
X70674778Y-51385000D01*
X71325222Y-51385000D01*
X71366375Y-51367954D01*
X73165000Y-53166579D01*
X73165001Y-60089491D01*
X73105874Y-60065000D01*
X72694126Y-60065000D01*
X72313720Y-60222569D01*
X72022569Y-60513720D01*
X71865000Y-60894126D01*
X71865000Y-61060199D01*
X71765528Y-61159671D01*
X71702072Y-61202071D01*
X71659672Y-61265527D01*
X71659671Y-61265528D01*
X71534097Y-61453463D01*
X71475112Y-61750000D01*
X71490001Y-61824851D01*
X71490000Y-64485198D01*
X71360198Y-64615000D01*
X71194126Y-64615000D01*
X70813720Y-64772569D01*
X70522569Y-65063720D01*
X70365000Y-65444126D01*
X70365000Y-65855874D01*
X70522569Y-66236280D01*
X70813720Y-66527431D01*
X71194126Y-66685000D01*
X71605874Y-66685000D01*
X71986280Y-66527431D01*
X72277431Y-66236280D01*
X72435000Y-65855874D01*
X72435000Y-65689802D01*
X72734473Y-65390329D01*
X72797929Y-65347929D01*
X72901988Y-65192194D01*
X72750000Y-65559126D01*
X72750000Y-65970874D01*
X72907569Y-66351280D01*
X73198720Y-66642431D01*
X73579126Y-66800000D01*
X73990874Y-66800000D01*
X74371280Y-66642431D01*
X74662431Y-66351280D01*
X74820000Y-65970874D01*
X74820000Y-65940571D01*
X74883652Y-65845310D01*
X74935000Y-65587165D01*
X74935000Y-65587161D01*
X74952337Y-65500000D01*
X74935000Y-65412839D01*
X74935000Y-52887159D01*
X74952337Y-52799999D01*
X74935000Y-52712839D01*
X74935000Y-52712835D01*
X74883652Y-52454690D01*
X74810260Y-52344852D01*
X74737424Y-52235845D01*
X74737423Y-52235844D01*
X74688049Y-52161951D01*
X74614156Y-52112577D01*
X72617954Y-50116375D01*
X72635000Y-50075222D01*
X72635000Y-49424778D01*
X73365000Y-49424778D01*
X73365000Y-50075222D01*
X73613914Y-50676153D01*
X74073847Y-51136086D01*
X74674778Y-51385000D01*
X75325222Y-51385000D01*
X75926153Y-51136086D01*
X76386086Y-50676153D01*
X76635000Y-50075222D01*
X76635000Y-49424778D01*
X77365000Y-49424778D01*
X77365000Y-50075222D01*
X77613914Y-50676153D01*
X78073847Y-51136086D01*
X78240000Y-51204909D01*
X78240001Y-56675148D01*
X78225112Y-56750000D01*
X78284097Y-57046537D01*
X78397688Y-57216537D01*
X78452072Y-57297929D01*
X78515528Y-57340329D01*
X79965000Y-58789802D01*
X79965000Y-58955874D01*
X80122569Y-59336280D01*
X80413720Y-59627431D01*
X80794126Y-59785000D01*
X81205874Y-59785000D01*
X81586280Y-59627431D01*
X81877431Y-59336280D01*
X82035000Y-58955874D01*
X82035000Y-58544126D01*
X81877431Y-58163720D01*
X81586280Y-57872569D01*
X81205874Y-57715000D01*
X81039802Y-57715000D01*
X79760000Y-56435199D01*
X79760000Y-51204909D01*
X79926153Y-51136086D01*
X80386086Y-50676153D01*
X80635000Y-50075222D01*
X80635000Y-49424778D01*
X80386086Y-48823847D01*
X79926153Y-48363914D01*
X79325222Y-48115000D01*
X78674778Y-48115000D01*
X78073847Y-48363914D01*
X77613914Y-48823847D01*
X77365000Y-49424778D01*
X76635000Y-49424778D01*
X76386086Y-48823847D01*
X75926153Y-48363914D01*
X75325222Y-48115000D01*
X74674778Y-48115000D01*
X74073847Y-48363914D01*
X73613914Y-48823847D01*
X73365000Y-49424778D01*
X72635000Y-49424778D01*
X72386086Y-48823847D01*
X71926153Y-48363914D01*
X71325222Y-48115000D01*
X70674778Y-48115000D01*
X70073847Y-48363914D01*
X69613914Y-48823847D01*
X69365000Y-49424778D01*
X62635000Y-49424778D01*
X62635000Y-46288818D01*
X83465000Y-46288818D01*
X83465000Y-47291181D01*
X83554062Y-47738926D01*
X83893327Y-48246673D01*
X84401073Y-48585938D01*
X85000000Y-48705072D01*
X85598926Y-48585938D01*
X86106673Y-48246673D01*
X86250000Y-48032169D01*
X86393327Y-48246673D01*
X86901073Y-48585938D01*
X87500000Y-48705072D01*
X88098926Y-48585938D01*
X88606673Y-48246673D01*
X88945938Y-47738927D01*
X88988483Y-47525036D01*
X89300429Y-47836982D01*
X89754343Y-48025000D01*
X90245657Y-48025000D01*
X90699571Y-47836982D01*
X91011517Y-47525036D01*
X91054062Y-47738926D01*
X91393327Y-48246673D01*
X91901073Y-48585938D01*
X92500000Y-48705072D01*
X93098926Y-48585938D01*
X93606673Y-48246673D01*
X93750000Y-48032169D01*
X93893327Y-48246673D01*
X94401073Y-48585938D01*
X95000000Y-48705072D01*
X95598926Y-48585938D01*
X96106673Y-48246673D01*
X96445938Y-47738927D01*
X96535000Y-47291182D01*
X96535000Y-46288819D01*
X96445938Y-45841073D01*
X96106673Y-45333327D01*
X95598927Y-44994062D01*
X95000000Y-44874928D01*
X94401074Y-44994062D01*
X93893327Y-45333327D01*
X93750000Y-45547831D01*
X93606673Y-45333327D01*
X93098927Y-44994062D01*
X92500000Y-44874928D01*
X91901074Y-44994062D01*
X91393327Y-45333327D01*
X91054062Y-45841073D01*
X91011517Y-46054964D01*
X90699571Y-45743018D01*
X90245657Y-45555000D01*
X89754343Y-45555000D01*
X89300429Y-45743018D01*
X88988483Y-46054964D01*
X88945938Y-45841073D01*
X88606673Y-45333327D01*
X88098927Y-44994062D01*
X87500000Y-44874928D01*
X86901074Y-44994062D01*
X86393327Y-45333327D01*
X86250000Y-45547831D01*
X86106673Y-45333327D01*
X85598927Y-44994062D01*
X85000000Y-44874928D01*
X84401074Y-44994062D01*
X83893327Y-45333327D01*
X83554062Y-45841073D01*
X83465000Y-46288818D01*
X62635000Y-46288818D01*
X62635000Y-44587159D01*
X62652337Y-44499999D01*
X62635000Y-44412839D01*
X62635000Y-44412835D01*
X62583652Y-44154690D01*
X62470268Y-43985000D01*
X62437424Y-43935845D01*
X62437423Y-43935844D01*
X62388049Y-43861951D01*
X62314156Y-43812577D01*
X60587424Y-42085846D01*
X60538049Y-42011951D01*
X60245310Y-41816348D01*
X60219440Y-41811202D01*
X60219440Y-41368000D01*
X60170157Y-41120235D01*
X60029809Y-40910191D01*
X59819765Y-40769843D01*
X59572000Y-40720560D01*
X58048000Y-40720560D01*
X57800235Y-40769843D01*
X57590191Y-40910191D01*
X57545000Y-40977824D01*
X57545000Y-40322702D01*
X57610594Y-39760082D01*
X57789191Y-39268056D01*
X58076192Y-38830308D01*
X58456190Y-38470332D01*
X58908821Y-38207424D01*
X59419416Y-38052780D01*
X59842732Y-38015000D01*
X61420020Y-38015000D01*
X60987500Y-38447520D01*
X60987500Y-38447520D01*
G37*
X60987500Y-38447520D02*
X60495000Y-39636519D01*
X60495000Y-40923481D01*
X60987500Y-42112480D01*
X61897520Y-43022500D01*
X63086519Y-43515000D01*
X64373481Y-43515000D01*
X65562480Y-43022500D01*
X66472500Y-42112480D01*
X66965000Y-40923481D01*
X66965000Y-39636519D01*
X66472500Y-38447520D01*
X66039980Y-38015000D01*
X69393574Y-38015000D01*
X68960556Y-38194362D01*
X68444362Y-38710556D01*
X68165000Y-39384996D01*
X68165000Y-40115004D01*
X68444362Y-40789444D01*
X68960556Y-41305638D01*
X69634996Y-41585000D01*
X70365004Y-41585000D01*
X71039444Y-41305638D01*
X71555638Y-40789444D01*
X71835000Y-40115004D01*
X71835000Y-39384996D01*
X71555638Y-38710556D01*
X71039444Y-38194362D01*
X70606426Y-38015000D01*
X79393574Y-38015000D01*
X78960556Y-38194362D01*
X78444362Y-38710556D01*
X78165000Y-39384996D01*
X78165000Y-40115004D01*
X78444362Y-40789444D01*
X78960556Y-41305638D01*
X79634996Y-41585000D01*
X80365004Y-41585000D01*
X80463158Y-41544343D01*
X83765000Y-41544343D01*
X83765000Y-42035657D01*
X83953018Y-42489571D01*
X84300429Y-42836982D01*
X84754343Y-43025000D01*
X85245657Y-43025000D01*
X85699571Y-42836982D01*
X86046982Y-42489571D01*
X86235000Y-42035657D01*
X86235000Y-41790000D01*
X88084928Y-41790000D01*
X88204062Y-42388927D01*
X88543327Y-42896673D01*
X89051073Y-43235938D01*
X89498818Y-43325000D01*
X90501182Y-43325000D01*
X90948927Y-43235938D01*
X91456673Y-42896673D01*
X91795938Y-42388927D01*
X91915072Y-41790000D01*
X91866208Y-41544343D01*
X93765000Y-41544343D01*
X93765000Y-42035657D01*
X93953018Y-42489571D01*
X94300429Y-42836982D01*
X94754343Y-43025000D01*
X95245657Y-43025000D01*
X95699571Y-42836982D01*
X96046982Y-42489571D01*
X96104391Y-42350973D01*
X96222569Y-42636280D01*
X96347027Y-42760738D01*
X96240000Y-43019126D01*
X96240000Y-43430874D01*
X96397569Y-43811280D01*
X96688720Y-44102431D01*
X97069126Y-44260000D01*
X97480874Y-44260000D01*
X97861280Y-44102431D01*
X98152431Y-43811280D01*
X98286009Y-43488792D01*
X98552790Y-43222013D01*
X98663664Y-43147929D01*
X98706066Y-43084470D01*
X100130537Y-41660000D01*
X107675153Y-41660000D01*
X107750000Y-41674888D01*
X107824847Y-41660000D01*
X107824852Y-41660000D01*
X108046537Y-41615904D01*
X108297929Y-41447929D01*
X108340331Y-41384470D01*
X108942636Y-40782166D01*
X109006092Y-40739766D01*
X109097167Y-40603463D01*
X109174067Y-40488375D01*
X109198584Y-40365117D01*
X109218163Y-40266689D01*
X109218163Y-40266685D01*
X109230788Y-40203213D01*
X109335594Y-40098407D01*
X109493163Y-39718001D01*
X109493163Y-39306253D01*
X109335594Y-38925847D01*
X109044443Y-38634696D01*
X108664037Y-38477127D01*
X108252289Y-38477127D01*
X108007475Y-38578532D01*
X107664856Y-38436615D01*
X107253108Y-38436615D01*
X106872702Y-38594184D01*
X106670109Y-38796778D01*
X106490468Y-38617137D01*
X106110062Y-38459568D01*
X105698314Y-38459568D01*
X105317908Y-38617137D01*
X105200477Y-38734568D01*
X98730280Y-38734568D01*
X98655432Y-38719680D01*
X98580584Y-38734568D01*
X98580580Y-38734568D01*
X98407037Y-38769088D01*
X98358894Y-38778664D01*
X98171850Y-38903644D01*
X98107503Y-38946639D01*
X98065103Y-39010095D01*
X97960198Y-39115000D01*
X97794126Y-39115000D01*
X97413720Y-39272569D01*
X97122569Y-39563720D01*
X96965000Y-39944126D01*
X96965000Y-40355874D01*
X97122569Y-40736280D01*
X97226552Y-40840263D01*
X97209672Y-40865525D01*
X97060198Y-41015000D01*
X96894126Y-41015000D01*
X96513720Y-41172569D01*
X96222569Y-41463720D01*
X96212087Y-41489026D01*
X96046982Y-41090429D01*
X95699571Y-40743018D01*
X95245657Y-40555000D01*
X94754343Y-40555000D01*
X94300429Y-40743018D01*
X93953018Y-41090429D01*
X93765000Y-41544343D01*
X91866208Y-41544343D01*
X91795938Y-41191073D01*
X91456673Y-40683327D01*
X90948927Y-40344062D01*
X90501182Y-40255000D01*
X89498818Y-40255000D01*
X89051073Y-40344062D01*
X88543327Y-40683327D01*
X88204062Y-41191073D01*
X88084928Y-41790000D01*
X86235000Y-41790000D01*
X86235000Y-41544343D01*
X86046982Y-41090429D01*
X85699571Y-40743018D01*
X85245657Y-40555000D01*
X84754343Y-40555000D01*
X84300429Y-40743018D01*
X83953018Y-41090429D01*
X83765000Y-41544343D01*
X80463158Y-41544343D01*
X81039444Y-41305638D01*
X81555638Y-40789444D01*
X81835000Y-40115004D01*
X81835000Y-39384996D01*
X81693898Y-39044343D01*
X83765000Y-39044343D01*
X83765000Y-39535657D01*
X83953018Y-39989571D01*
X84300429Y-40336982D01*
X84754343Y-40525000D01*
X85245657Y-40525000D01*
X85699571Y-40336982D01*
X86046982Y-39989571D01*
X86235000Y-39535657D01*
X86235000Y-39044343D01*
X86046982Y-38590429D01*
X85699571Y-38243018D01*
X85245657Y-38055000D01*
X84754343Y-38055000D01*
X84300429Y-38243018D01*
X83953018Y-38590429D01*
X83765000Y-39044343D01*
X81693898Y-39044343D01*
X81555638Y-38710556D01*
X81039444Y-38194362D01*
X80606426Y-38015000D01*
X86977495Y-38015000D01*
X87377039Y-38612961D01*
X87984019Y-39018531D01*
X88519273Y-39125000D01*
X91480727Y-39125000D01*
X91886215Y-39044343D01*
X93765000Y-39044343D01*
X93765000Y-39535657D01*
X93953018Y-39989571D01*
X94300429Y-40336982D01*
X94754343Y-40525000D01*
X95245657Y-40525000D01*
X95699571Y-40336982D01*
X96046982Y-39989571D01*
X96235000Y-39535657D01*
X96235000Y-39044343D01*
X96046982Y-38590429D01*
X95699571Y-38243018D01*
X95245657Y-38055000D01*
X94754343Y-38055000D01*
X94300429Y-38243018D01*
X93953018Y-38590429D01*
X93765000Y-39044343D01*
X91886215Y-39044343D01*
X92015981Y-39018531D01*
X92622961Y-38612961D01*
X93022505Y-38015000D01*
X128680020Y-38015000D01*
X128247500Y-38447520D01*
X127755000Y-39636519D01*
X127755000Y-40923481D01*
X128247500Y-42112480D01*
X129157520Y-43022500D01*
X130346519Y-43515000D01*
X131633481Y-43515000D01*
X132250707Y-43259336D01*
X134553542Y-43259336D01*
X134579161Y-43869460D01*
X134763357Y-44314148D01*
X135019841Y-44400554D01*
X135920395Y-43500000D01*
X136279605Y-43500000D01*
X137180159Y-44400554D01*
X137436643Y-44314148D01*
X137646458Y-43740664D01*
X137620839Y-43130540D01*
X137436643Y-42685852D01*
X137180159Y-42599446D01*
X136279605Y-43500000D01*
X135920395Y-43500000D01*
X135019841Y-42599446D01*
X134763357Y-42685852D01*
X134553542Y-43259336D01*
X132250707Y-43259336D01*
X132822480Y-43022500D01*
X133425139Y-42419841D01*
X135199446Y-42419841D01*
X136100000Y-43320395D01*
X137000554Y-42419841D01*
X136914148Y-42163357D01*
X136340664Y-41953542D01*
X135730540Y-41979161D01*
X135285852Y-42163357D01*
X135199446Y-42419841D01*
X133425139Y-42419841D01*
X133732500Y-42112480D01*
X134225000Y-40923481D01*
X134225000Y-39636519D01*
X133732500Y-38447520D01*
X133299980Y-38015000D01*
X140147298Y-38015000D01*
X140709918Y-38080594D01*
X141201944Y-38259191D01*
X141639692Y-38546192D01*
X141999668Y-38926190D01*
X142262576Y-39378821D01*
X142417220Y-39889416D01*
X142455001Y-40312743D01*
X142455001Y-49876975D01*
X142369698Y-49791673D01*
X142136309Y-49695000D01*
X141495750Y-49695000D01*
X141337000Y-49853750D01*
X141337000Y-51003000D01*
X141357000Y-51003000D01*
X141357000Y-51257000D01*
X141337000Y-51257000D01*
X141337000Y-52406250D01*
X141495750Y-52565000D01*
X142136309Y-52565000D01*
X142369698Y-52468327D01*
X142455001Y-52383025D01*
X142455000Y-65625862D01*
X142426534Y-65557138D01*
X142022862Y-65153466D01*
X141495439Y-64935000D01*
X140924561Y-64935000D01*
X140660000Y-65044585D01*
X140660000Y-52565000D01*
X140924250Y-52565000D01*
X141083000Y-52406250D01*
X141083000Y-51257000D01*
X141063000Y-51257000D01*
X141063000Y-51003000D01*
X141083000Y-51003000D01*
X141083000Y-49853750D01*
X140924250Y-49695000D01*
X140660000Y-49695000D01*
X140660000Y-49574848D01*
X140674888Y-49500000D01*
X140660000Y-49425152D01*
X140660000Y-49425148D01*
X140616390Y-49205904D01*
X140615904Y-49203462D01*
X140490329Y-49015527D01*
X140447929Y-48952071D01*
X140384473Y-48909671D01*
X138765330Y-47290529D01*
X138722928Y-47227070D01*
X138471536Y-47059095D01*
X138249851Y-47014999D01*
X138249846Y-47014999D01*
X138174999Y-47000111D01*
X138100152Y-47014999D01*
X137255818Y-47014999D01*
X137401310Y-46869507D01*
X137635000Y-46305330D01*
X137635000Y-45694670D01*
X137401310Y-45130493D01*
X136969507Y-44698690D01*
X136961710Y-44695461D01*
X137000554Y-44580159D01*
X136100000Y-43679605D01*
X135199446Y-44580159D01*
X135238290Y-44695461D01*
X135230493Y-44698690D01*
X134798690Y-45130493D01*
X134565000Y-45694670D01*
X134565000Y-46290198D01*
X132090331Y-43815530D01*
X132047929Y-43752071D01*
X131796537Y-43584096D01*
X131574852Y-43540000D01*
X131574847Y-43540000D01*
X131500000Y-43525112D01*
X131425153Y-43540000D01*
X127663661Y-43540000D01*
X127720862Y-43482799D01*
X127985000Y-42845113D01*
X127985000Y-42154887D01*
X127720862Y-41517201D01*
X127232799Y-41029138D01*
X126595113Y-40765000D01*
X126290479Y-40765000D01*
X126485000Y-40295385D01*
X126485000Y-39704615D01*
X126258922Y-39158815D01*
X125841185Y-38741078D01*
X125295385Y-38515000D01*
X124704615Y-38515000D01*
X124158815Y-38741078D01*
X123741078Y-39158815D01*
X123515000Y-39704615D01*
X123515000Y-40295385D01*
X123550030Y-40379956D01*
X123434097Y-40553463D01*
X123390001Y-40775148D01*
X123390001Y-40775152D01*
X123375113Y-40849999D01*
X123390001Y-40924846D01*
X123390002Y-42115000D01*
X123258217Y-42115000D01*
X122927145Y-42180854D01*
X122909164Y-42192869D01*
X122847765Y-42151843D01*
X122600000Y-42102560D01*
X121600000Y-42102560D01*
X121352235Y-42151843D01*
X121142191Y-42292191D01*
X121001843Y-42502235D01*
X120985000Y-42586911D01*
X120985000Y-42154887D01*
X120720862Y-41517201D01*
X120688661Y-41485000D01*
X120795385Y-41485000D01*
X121341185Y-41258922D01*
X121758922Y-40841185D01*
X121985000Y-40295385D01*
X121985000Y-39704615D01*
X121758922Y-39158815D01*
X121341185Y-38741078D01*
X120795385Y-38515000D01*
X120204615Y-38515000D01*
X119658815Y-38741078D01*
X119241078Y-39158815D01*
X119015000Y-39704615D01*
X119015000Y-40295385D01*
X119209521Y-40765000D01*
X118904887Y-40765000D01*
X118267201Y-41029138D01*
X117779138Y-41517201D01*
X117515000Y-42154887D01*
X117515000Y-42845113D01*
X117779138Y-43482799D01*
X118267201Y-43970862D01*
X118904887Y-44235000D01*
X119595113Y-44235000D01*
X120232799Y-43970862D01*
X120720862Y-43482799D01*
X120952560Y-42923430D01*
X120952560Y-43750000D01*
X121001843Y-43997765D01*
X121142191Y-44207809D01*
X121352235Y-44348157D01*
X121600000Y-44397440D01*
X122600000Y-44397440D01*
X122847765Y-44348157D01*
X122909164Y-44307131D01*
X122927145Y-44319146D01*
X123258217Y-44385000D01*
X123481783Y-44385000D01*
X123812855Y-44319146D01*
X123951623Y-44226424D01*
X124509673Y-44784475D01*
X124552071Y-44847929D01*
X124615524Y-44890327D01*
X124615526Y-44890329D01*
X124740902Y-44974102D01*
X124803463Y-45015904D01*
X125025148Y-45060000D01*
X125025152Y-45060000D01*
X125099999Y-45074888D01*
X125174846Y-45060000D01*
X126914201Y-45060000D01*
X126822332Y-45151869D01*
X126679507Y-45180279D01*
X126500332Y-45300000D01*
X118824802Y-45300000D01*
X117590331Y-44065530D01*
X117547929Y-44002071D01*
X117296537Y-43834096D01*
X117074852Y-43790000D01*
X114834802Y-43790000D01*
X114220331Y-43175530D01*
X114177929Y-43112071D01*
X113926537Y-42944096D01*
X113704852Y-42900000D01*
X113704847Y-42900000D01*
X113630000Y-42885112D01*
X113555153Y-42900000D01*
X110854846Y-42900000D01*
X110779999Y-42885112D01*
X110705152Y-42900000D01*
X110705148Y-42900000D01*
X110483463Y-42944096D01*
X110232071Y-43112071D01*
X110189671Y-43175527D01*
X109575199Y-43790000D01*
X104764802Y-43790000D01*
X104540331Y-43565529D01*
X104497929Y-43502071D01*
X104246537Y-43334096D01*
X104024852Y-43290000D01*
X104024847Y-43290000D01*
X103950000Y-43275112D01*
X103940677Y-43276966D01*
X103836280Y-43172569D01*
X103455874Y-43015000D01*
X103044126Y-43015000D01*
X102663720Y-43172569D01*
X102372569Y-43463720D01*
X102215000Y-43844126D01*
X102215000Y-44255874D01*
X102372569Y-44636280D01*
X102392738Y-44656449D01*
X102315000Y-44844126D01*
X102315000Y-45255874D01*
X102472569Y-45636280D01*
X102763720Y-45927431D01*
X103144126Y-46085000D01*
X103555874Y-46085000D01*
X103936280Y-45927431D01*
X104053711Y-45810000D01*
X110015153Y-45810000D01*
X110090000Y-45824888D01*
X110164847Y-45810000D01*
X110164852Y-45810000D01*
X110386537Y-45765904D01*
X110637929Y-45597929D01*
X110680331Y-45534470D01*
X111230010Y-44984792D01*
X111230010Y-45090874D01*
X111387579Y-45471280D01*
X111678730Y-45762431D01*
X111915062Y-45860323D01*
X111583720Y-45997569D01*
X111292569Y-46288720D01*
X111135000Y-46669126D01*
X111135000Y-46840000D01*
X108123476Y-46840000D01*
X108048629Y-46825112D01*
X107973782Y-46840000D01*
X107973778Y-46840000D01*
X107752093Y-46884096D01*
X107500701Y-47052071D01*
X107458301Y-47115527D01*
X105963018Y-48610810D01*
X105837207Y-48307074D01*
X105517926Y-47987793D01*
X105100766Y-47815000D01*
X104649234Y-47815000D01*
X104232074Y-47987793D01*
X103912793Y-48307074D01*
X103740000Y-48724234D01*
X103740000Y-49175766D01*
X103912793Y-49592926D01*
X104232074Y-49912207D01*
X104649234Y-50085000D01*
X104665604Y-50085000D01*
X104433466Y-50317138D01*
X104380000Y-50446216D01*
X104326534Y-50317138D01*
X103922862Y-49913466D01*
X103395439Y-49695000D01*
X102824561Y-49695000D01*
X102297138Y-49913466D01*
X101893466Y-50317138D01*
X101840000Y-50446216D01*
X101786534Y-50317138D01*
X101382862Y-49913466D01*
X100855439Y-49695000D01*
X100284561Y-49695000D01*
X99757138Y-49913466D01*
X99353466Y-50317138D01*
X99300000Y-50446216D01*
X99246534Y-50317138D01*
X98842862Y-49913466D01*
X98315439Y-49695000D01*
X97744561Y-49695000D01*
X97217138Y-49913466D01*
X96813466Y-50317138D01*
X96760000Y-50446216D01*
X96706534Y-50317138D01*
X96302862Y-49913466D01*
X95775439Y-49695000D01*
X95204561Y-49695000D01*
X94677138Y-49913466D01*
X94273466Y-50317138D01*
X94220000Y-50446216D01*
X94166534Y-50317138D01*
X93762862Y-49913466D01*
X93235439Y-49695000D01*
X92664561Y-49695000D01*
X92137138Y-49913466D01*
X91733466Y-50317138D01*
X91680000Y-50446216D01*
X91626534Y-50317138D01*
X91222862Y-49913466D01*
X90695439Y-49695000D01*
X90124561Y-49695000D01*
X89597138Y-49913466D01*
X89193466Y-50317138D01*
X89140000Y-50446216D01*
X89086534Y-50317138D01*
X88682862Y-49913466D01*
X88155439Y-49695000D01*
X87584561Y-49695000D01*
X87057138Y-49913466D01*
X86653466Y-50317138D01*
X86600000Y-50446216D01*
X86546534Y-50317138D01*
X86142862Y-49913466D01*
X85615439Y-49695000D01*
X85044561Y-49695000D01*
X84517138Y-49913466D01*
X84113466Y-50317138D01*
X84060000Y-50446216D01*
X84006534Y-50317138D01*
X83602862Y-49913466D01*
X83075439Y-49695000D01*
X82504561Y-49695000D01*
X81977138Y-49913466D01*
X81573466Y-50317138D01*
X81355000Y-50844561D01*
X81355000Y-51415439D01*
X81573466Y-51942862D01*
X81977138Y-52346534D01*
X82504561Y-52565000D01*
X83075439Y-52565000D01*
X83602862Y-52346534D01*
X84006534Y-51942862D01*
X84060000Y-51813784D01*
X84113466Y-51942862D01*
X84517138Y-52346534D01*
X85044561Y-52565000D01*
X85615439Y-52565000D01*
X85668302Y-52543104D01*
X86440001Y-53314804D01*
X86440001Y-57029136D01*
X86405874Y-57015000D01*
X85994126Y-57015000D01*
X85613720Y-57172569D01*
X85322569Y-57463720D01*
X85165000Y-57844126D01*
X85165000Y-58010198D01*
X84615528Y-58559671D01*
X84552072Y-58602071D01*
X84509672Y-58665527D01*
X84509671Y-58665528D01*
X84415895Y-58805874D01*
X84384097Y-58853463D01*
X84362160Y-58963750D01*
X84325112Y-59150000D01*
X84340001Y-59224852D01*
X84340000Y-60585198D01*
X84185199Y-60740000D01*
X81174848Y-60740000D01*
X81100000Y-60725112D01*
X81025152Y-60740000D01*
X81025148Y-60740000D01*
X80861413Y-60772569D01*
X80803462Y-60784096D01*
X80719304Y-60840329D01*
X80552071Y-60952071D01*
X80509671Y-61015527D01*
X77015530Y-64509669D01*
X76952071Y-64552071D01*
X76784096Y-64803464D01*
X76740000Y-65025149D01*
X76740000Y-65025153D01*
X76725112Y-65100000D01*
X76740000Y-65174847D01*
X76740001Y-67785197D01*
X76585198Y-67940000D01*
X76419126Y-67940000D01*
X76038720Y-68097569D01*
X75747569Y-68388720D01*
X75590000Y-68769126D01*
X75590000Y-69180874D01*
X75747569Y-69561280D01*
X76038720Y-69852431D01*
X76419126Y-70010000D01*
X76830874Y-70010000D01*
X77017502Y-69932696D01*
X75385199Y-71565000D01*
X72578711Y-71565000D01*
X72461280Y-71447569D01*
X72080874Y-71290000D01*
X71669126Y-71290000D01*
X71288720Y-71447569D01*
X71185000Y-71551289D01*
X71185000Y-70578711D01*
X71302431Y-70461280D01*
X71460000Y-70080874D01*
X71460000Y-69669126D01*
X71302431Y-69288720D01*
X71011280Y-68997569D01*
X70630874Y-68840000D01*
X70219126Y-68840000D01*
X69838720Y-68997569D01*
X69547569Y-69288720D01*
X69390000Y-69669126D01*
X69390000Y-70080874D01*
X69547569Y-70461280D01*
X69665001Y-70578712D01*
X69665000Y-72550153D01*
X69650112Y-72625000D01*
X69665000Y-72699847D01*
X69665000Y-72699851D01*
X69709096Y-72921536D01*
X69877071Y-73172929D01*
X69940530Y-73215331D01*
X71134671Y-74409473D01*
X71177071Y-74472929D01*
X71428463Y-74640904D01*
X71650148Y-74685000D01*
X71650152Y-74685000D01*
X71725000Y-74699888D01*
X71799848Y-74685000D01*
X72296289Y-74685000D01*
X72413720Y-74802431D01*
X72738316Y-74936883D01*
X71215528Y-76459671D01*
X71152072Y-76502071D01*
X71109672Y-76565527D01*
X71109671Y-76565528D01*
X71055961Y-76645911D01*
X70984097Y-76753463D01*
X70971857Y-76815000D01*
X70925112Y-77050000D01*
X70940001Y-77124852D01*
X70940000Y-80196289D01*
X70822569Y-80313720D01*
X70776506Y-80424927D01*
X68985000Y-78633422D01*
X68985000Y-74537159D01*
X69002337Y-74449999D01*
X68985000Y-74362839D01*
X68985000Y-74362835D01*
X68933652Y-74104690D01*
X68840768Y-73965680D01*
X68787424Y-73885845D01*
X68787423Y-73885844D01*
X68738049Y-73811951D01*
X68664156Y-73762577D01*
X66985000Y-72083422D01*
X66985000Y-63494126D01*
X68815000Y-63494126D01*
X68815000Y-63905874D01*
X68972569Y-64286280D01*
X69263720Y-64577431D01*
X69644126Y-64735000D01*
X70055874Y-64735000D01*
X70436280Y-64577431D01*
X70727431Y-64286280D01*
X70885000Y-63905874D01*
X70885000Y-63494126D01*
X70727431Y-63113720D01*
X70610000Y-62996289D01*
X70610000Y-60564801D01*
X71539802Y-59635000D01*
X71705874Y-59635000D01*
X72086280Y-59477431D01*
X72377431Y-59186280D01*
X72535000Y-58805874D01*
X72535000Y-58394126D01*
X72377431Y-58013720D01*
X72086280Y-57722569D01*
X71705874Y-57565000D01*
X71294126Y-57565000D01*
X70913720Y-57722569D01*
X70622569Y-58013720D01*
X70465000Y-58394126D01*
X70465000Y-58560198D01*
X69365530Y-59659669D01*
X69302071Y-59702071D01*
X69134096Y-59953464D01*
X69090000Y-60175149D01*
X69090000Y-60175153D01*
X69075112Y-60250000D01*
X69090000Y-60324847D01*
X69090001Y-62996288D01*
X68972569Y-63113720D01*
X68815000Y-63494126D01*
X66985000Y-63494126D01*
X66985000Y-60418007D01*
X67135000Y-60055874D01*
X67135000Y-59644126D01*
X66985000Y-59281993D01*
X66985000Y-55087161D01*
X67002337Y-55000000D01*
X66985000Y-54912839D01*
X66985000Y-54912835D01*
X66933652Y-54654690D01*
X66899423Y-54603463D01*
X66787424Y-54435845D01*
X66787423Y-54435844D01*
X66738049Y-54361951D01*
X66664156Y-54312577D01*
X62635000Y-50283422D01*
X62635000Y-49424778D01*
X69365000Y-49424778D01*
X69365000Y-50075222D01*
X69613914Y-50676153D01*
X70073847Y-51136086D01*
X70674778Y-51385000D01*
X71325222Y-51385000D01*
X71366375Y-51367954D01*
X73165000Y-53166579D01*
X73165001Y-60089491D01*
X73105874Y-60065000D01*
X72694126Y-60065000D01*
X72313720Y-60222569D01*
X72022569Y-60513720D01*
X71865000Y-60894126D01*
X71865000Y-61060199D01*
X71765528Y-61159671D01*
X71702072Y-61202071D01*
X71659672Y-61265527D01*
X71659671Y-61265528D01*
X71534097Y-61453463D01*
X71475112Y-61750000D01*
X71490001Y-61824851D01*
X71490000Y-64485198D01*
X71360198Y-64615000D01*
X71194126Y-64615000D01*
X70813720Y-64772569D01*
X70522569Y-65063720D01*
X70365000Y-65444126D01*
X70365000Y-65855874D01*
X70522569Y-66236280D01*
X70813720Y-66527431D01*
X71194126Y-66685000D01*
X71605874Y-66685000D01*
X71986280Y-66527431D01*
X72277431Y-66236280D01*
X72435000Y-65855874D01*
X72435000Y-65689802D01*
X72734473Y-65390329D01*
X72797929Y-65347929D01*
X72901988Y-65192194D01*
X72750000Y-65559126D01*
X72750000Y-65970874D01*
X72907569Y-66351280D01*
X73198720Y-66642431D01*
X73579126Y-66800000D01*
X73990874Y-66800000D01*
X74371280Y-66642431D01*
X74662431Y-66351280D01*
X74820000Y-65970874D01*
X74820000Y-65940571D01*
X74883652Y-65845310D01*
X74935000Y-65587165D01*
X74935000Y-65587161D01*
X74952337Y-65500000D01*
X74935000Y-65412839D01*
X74935000Y-52887159D01*
X74952337Y-52799999D01*
X74935000Y-52712839D01*
X74935000Y-52712835D01*
X74883652Y-52454690D01*
X74810260Y-52344852D01*
X74737424Y-52235845D01*
X74737423Y-52235844D01*
X74688049Y-52161951D01*
X74614156Y-52112577D01*
X72617954Y-50116375D01*
X72635000Y-50075222D01*
X72635000Y-49424778D01*
X73365000Y-49424778D01*
X73365000Y-50075222D01*
X73613914Y-50676153D01*
X74073847Y-51136086D01*
X74674778Y-51385000D01*
X75325222Y-51385000D01*
X75926153Y-51136086D01*
X76386086Y-50676153D01*
X76635000Y-50075222D01*
X76635000Y-49424778D01*
X77365000Y-49424778D01*
X77365000Y-50075222D01*
X77613914Y-50676153D01*
X78073847Y-51136086D01*
X78240000Y-51204909D01*
X78240001Y-56675148D01*
X78225112Y-56750000D01*
X78284097Y-57046537D01*
X78397688Y-57216537D01*
X78452072Y-57297929D01*
X78515528Y-57340329D01*
X79965000Y-58789802D01*
X79965000Y-58955874D01*
X80122569Y-59336280D01*
X80413720Y-59627431D01*
X80794126Y-59785000D01*
X81205874Y-59785000D01*
X81586280Y-59627431D01*
X81877431Y-59336280D01*
X82035000Y-58955874D01*
X82035000Y-58544126D01*
X81877431Y-58163720D01*
X81586280Y-57872569D01*
X81205874Y-57715000D01*
X81039802Y-57715000D01*
X79760000Y-56435199D01*
X79760000Y-51204909D01*
X79926153Y-51136086D01*
X80386086Y-50676153D01*
X80635000Y-50075222D01*
X80635000Y-49424778D01*
X80386086Y-48823847D01*
X79926153Y-48363914D01*
X79325222Y-48115000D01*
X78674778Y-48115000D01*
X78073847Y-48363914D01*
X77613914Y-48823847D01*
X77365000Y-49424778D01*
X76635000Y-49424778D01*
X76386086Y-48823847D01*
X75926153Y-48363914D01*
X75325222Y-48115000D01*
X74674778Y-48115000D01*
X74073847Y-48363914D01*
X73613914Y-48823847D01*
X73365000Y-49424778D01*
X72635000Y-49424778D01*
X72386086Y-48823847D01*
X71926153Y-48363914D01*
X71325222Y-48115000D01*
X70674778Y-48115000D01*
X70073847Y-48363914D01*
X69613914Y-48823847D01*
X69365000Y-49424778D01*
X62635000Y-49424778D01*
X62635000Y-46288818D01*
X83465000Y-46288818D01*
X83465000Y-47291181D01*
X83554062Y-47738926D01*
X83893327Y-48246673D01*
X84401073Y-48585938D01*
X85000000Y-48705072D01*
X85598926Y-48585938D01*
X86106673Y-48246673D01*
X86250000Y-48032169D01*
X86393327Y-48246673D01*
X86901073Y-48585938D01*
X87500000Y-48705072D01*
X88098926Y-48585938D01*
X88606673Y-48246673D01*
X88945938Y-47738927D01*
X88988483Y-47525036D01*
X89300429Y-47836982D01*
X89754343Y-48025000D01*
X90245657Y-48025000D01*
X90699571Y-47836982D01*
X91011517Y-47525036D01*
X91054062Y-47738926D01*
X91393327Y-48246673D01*
X91901073Y-48585938D01*
X92500000Y-48705072D01*
X93098926Y-48585938D01*
X93606673Y-48246673D01*
X93750000Y-48032169D01*
X93893327Y-48246673D01*
X94401073Y-48585938D01*
X95000000Y-48705072D01*
X95598926Y-48585938D01*
X96106673Y-48246673D01*
X96445938Y-47738927D01*
X96535000Y-47291182D01*
X96535000Y-46288819D01*
X96445938Y-45841073D01*
X96106673Y-45333327D01*
X95598927Y-44994062D01*
X95000000Y-44874928D01*
X94401074Y-44994062D01*
X93893327Y-45333327D01*
X93750000Y-45547831D01*
X93606673Y-45333327D01*
X93098927Y-44994062D01*
X92500000Y-44874928D01*
X91901074Y-44994062D01*
X91393327Y-45333327D01*
X91054062Y-45841073D01*
X91011517Y-46054964D01*
X90699571Y-45743018D01*
X90245657Y-45555000D01*
X89754343Y-45555000D01*
X89300429Y-45743018D01*
X88988483Y-46054964D01*
X88945938Y-45841073D01*
X88606673Y-45333327D01*
X88098927Y-44994062D01*
X87500000Y-44874928D01*
X86901074Y-44994062D01*
X86393327Y-45333327D01*
X86250000Y-45547831D01*
X86106673Y-45333327D01*
X85598927Y-44994062D01*
X85000000Y-44874928D01*
X84401074Y-44994062D01*
X83893327Y-45333327D01*
X83554062Y-45841073D01*
X83465000Y-46288818D01*
X62635000Y-46288818D01*
X62635000Y-44587159D01*
X62652337Y-44499999D01*
X62635000Y-44412839D01*
X62635000Y-44412835D01*
X62583652Y-44154690D01*
X62470268Y-43985000D01*
X62437424Y-43935845D01*
X62437423Y-43935844D01*
X62388049Y-43861951D01*
X62314156Y-43812577D01*
X60587424Y-42085846D01*
X60538049Y-42011951D01*
X60245310Y-41816348D01*
X60219440Y-41811202D01*
X60219440Y-41368000D01*
X60170157Y-41120235D01*
X60029809Y-40910191D01*
X59819765Y-40769843D01*
X59572000Y-40720560D01*
X58048000Y-40720560D01*
X57800235Y-40769843D01*
X57590191Y-40910191D01*
X57545000Y-40977824D01*
X57545000Y-40322702D01*
X57610594Y-39760082D01*
X57789191Y-39268056D01*
X58076192Y-38830308D01*
X58456190Y-38470332D01*
X58908821Y-38207424D01*
X59419416Y-38052780D01*
X59842732Y-38015000D01*
X61420020Y-38015000D01*
X60987500Y-38447520D01*
G36*
X101893466Y-51942862D02*
X102297138Y-52346534D01*
X102824561Y-52565000D01*
X103395439Y-52565000D01*
X103448302Y-52543104D01*
X104239673Y-53334476D01*
X104282071Y-53397929D01*
X104345524Y-53440327D01*
X104345526Y-53440329D01*
X104467065Y-53521538D01*
X104533463Y-53565904D01*
X104755148Y-53610000D01*
X104755152Y-53610000D01*
X104829999Y-53624888D01*
X104904846Y-53610000D01*
X105010199Y-53610000D01*
X105815001Y-54414803D01*
X105815000Y-62400153D01*
X105800112Y-62475000D01*
X105815000Y-62549847D01*
X105815000Y-62549851D01*
X105859096Y-62771536D01*
X106027071Y-63022929D01*
X106090530Y-63065331D01*
X106190001Y-63164802D01*
X106190001Y-65039214D01*
X105866777Y-64923035D01*
X105296546Y-64950222D01*
X104895995Y-65116136D01*
X104821861Y-65362255D01*
X105650000Y-66190395D01*
X105664142Y-66176252D01*
X105843748Y-66355858D01*
X105829605Y-66370000D01*
X105843748Y-66384143D01*
X105664142Y-66563748D01*
X105650000Y-66549605D01*
X104821861Y-67377745D01*
X104895995Y-67623864D01*
X105120601Y-67704596D01*
X98185199Y-74640000D01*
X98174846Y-74640000D01*
X98099999Y-74625112D01*
X98025152Y-74640000D01*
X98025148Y-74640000D01*
X97803463Y-74684096D01*
X97779829Y-74699888D01*
X97615526Y-74809671D01*
X97615524Y-74809673D01*
X97552071Y-74852071D01*
X97509672Y-74915525D01*
X97065527Y-75359672D01*
X97002072Y-75402071D01*
X96959672Y-75465527D01*
X96959671Y-75465528D01*
X96834097Y-75653463D01*
X96775112Y-75950000D01*
X96790001Y-76024852D01*
X96790000Y-77813059D01*
X96715000Y-77994126D01*
X96715000Y-78240000D01*
X91550154Y-78240000D01*
X91585000Y-78155874D01*
X91585000Y-77967618D01*
X91665903Y-77846538D01*
X91709999Y-77624853D01*
X91709999Y-77624849D01*
X91724887Y-77550002D01*
X91709999Y-77475155D01*
X91709999Y-70241800D01*
X93166800Y-68785000D01*
X93500153Y-68785000D01*
X93575000Y-68799888D01*
X93649847Y-68785000D01*
X93649852Y-68785000D01*
X93871537Y-68740904D01*
X94122929Y-68572929D01*
X94165330Y-68509471D01*
X94684476Y-67990327D01*
X94747929Y-67947929D01*
X94790327Y-67884476D01*
X94790329Y-67884474D01*
X94894572Y-67728463D01*
X94915904Y-67696537D01*
X94917944Y-67686279D01*
X95204561Y-67805000D01*
X95775439Y-67805000D01*
X96302862Y-67586534D01*
X96706534Y-67182862D01*
X96760000Y-67053784D01*
X96813466Y-67182862D01*
X97217138Y-67586534D01*
X97744561Y-67805000D01*
X98315439Y-67805000D01*
X98842862Y-67586534D01*
X99246534Y-67182862D01*
X99300000Y-67053784D01*
X99353466Y-67182862D01*
X99757138Y-67586534D01*
X100284561Y-67805000D01*
X100855439Y-67805000D01*
X101382862Y-67586534D01*
X101786534Y-67182862D01*
X101840000Y-67053784D01*
X101893466Y-67182862D01*
X102297138Y-67586534D01*
X102824561Y-67805000D01*
X103395439Y-67805000D01*
X103922862Y-67586534D01*
X104326534Y-67182862D01*
X104373525Y-67069417D01*
X104396136Y-67124005D01*
X104642255Y-67198139D01*
X105470395Y-66370000D01*
X104642255Y-65541861D01*
X104396136Y-65615995D01*
X104375126Y-65674448D01*
X104326534Y-65557138D01*
X103922862Y-65153466D01*
X103395439Y-64935000D01*
X102824561Y-64935000D01*
X102297138Y-65153466D01*
X101893466Y-65557138D01*
X101840000Y-65686216D01*
X101786534Y-65557138D01*
X101382862Y-65153466D01*
X100855439Y-64935000D01*
X100284561Y-64935000D01*
X99757138Y-65153466D01*
X99353466Y-65557138D01*
X99300000Y-65686216D01*
X99246534Y-65557138D01*
X98842862Y-65153466D01*
X98315439Y-64935000D01*
X97744561Y-64935000D01*
X97217138Y-65153466D01*
X96813466Y-65557138D01*
X96760000Y-65686216D01*
X96706534Y-65557138D01*
X96302862Y-65153466D01*
X95927016Y-64997785D01*
X98039802Y-62885000D01*
X102671289Y-62885000D01*
X102788720Y-63002431D01*
X103169126Y-63160000D01*
X103580874Y-63160000D01*
X103961280Y-63002431D01*
X104252431Y-62711280D01*
X104410000Y-62330874D01*
X104410000Y-61919126D01*
X104252431Y-61538720D01*
X103961280Y-61247569D01*
X103580874Y-61090000D01*
X103169126Y-61090000D01*
X102788720Y-61247569D01*
X102671289Y-61365000D01*
X97799848Y-61365000D01*
X97725000Y-61350112D01*
X97650152Y-61365000D01*
X97650148Y-61365000D01*
X97491596Y-61396538D01*
X97428462Y-61409096D01*
X97289316Y-61502071D01*
X97177071Y-61577071D01*
X97134671Y-61640527D01*
X93715528Y-65059671D01*
X93652072Y-65102071D01*
X93649191Y-65106382D01*
X93235439Y-64935000D01*
X92664561Y-64935000D01*
X92431439Y-65031562D01*
X92415904Y-64953463D01*
X92247929Y-64702071D01*
X92184473Y-64659671D01*
X92060000Y-64535198D01*
X92060000Y-56314801D01*
X93514802Y-54860000D01*
X97525153Y-54860000D01*
X97600000Y-54874888D01*
X97674847Y-54860000D01*
X97674852Y-54860000D01*
X97896537Y-54815904D01*
X98147929Y-54647929D01*
X98190331Y-54584470D01*
X100231698Y-52543103D01*
X100284561Y-52565000D01*
X100855439Y-52565000D01*
X101382862Y-52346534D01*
X101786534Y-51942862D01*
X101840000Y-51813784D01*
X101893466Y-51942862D01*
X101893466Y-51942862D01*
G37*
X101893466Y-51942862D02*
X102297138Y-52346534D01*
X102824561Y-52565000D01*
X103395439Y-52565000D01*
X103448302Y-52543104D01*
X104239673Y-53334476D01*
X104282071Y-53397929D01*
X104345524Y-53440327D01*
X104345526Y-53440329D01*
X104467065Y-53521538D01*
X104533463Y-53565904D01*
X104755148Y-53610000D01*
X104755152Y-53610000D01*
X104829999Y-53624888D01*
X104904846Y-53610000D01*
X105010199Y-53610000D01*
X105815001Y-54414803D01*
X105815000Y-62400153D01*
X105800112Y-62475000D01*
X105815000Y-62549847D01*
X105815000Y-62549851D01*
X105859096Y-62771536D01*
X106027071Y-63022929D01*
X106090530Y-63065331D01*
X106190001Y-63164802D01*
X106190001Y-65039214D01*
X105866777Y-64923035D01*
X105296546Y-64950222D01*
X104895995Y-65116136D01*
X104821861Y-65362255D01*
X105650000Y-66190395D01*
X105664142Y-66176252D01*
X105843748Y-66355858D01*
X105829605Y-66370000D01*
X105843748Y-66384143D01*
X105664142Y-66563748D01*
X105650000Y-66549605D01*
X104821861Y-67377745D01*
X104895995Y-67623864D01*
X105120601Y-67704596D01*
X98185199Y-74640000D01*
X98174846Y-74640000D01*
X98099999Y-74625112D01*
X98025152Y-74640000D01*
X98025148Y-74640000D01*
X97803463Y-74684096D01*
X97779829Y-74699888D01*
X97615526Y-74809671D01*
X97615524Y-74809673D01*
X97552071Y-74852071D01*
X97509672Y-74915525D01*
X97065527Y-75359672D01*
X97002072Y-75402071D01*
X96959672Y-75465527D01*
X96959671Y-75465528D01*
X96834097Y-75653463D01*
X96775112Y-75950000D01*
X96790001Y-76024852D01*
X96790000Y-77813059D01*
X96715000Y-77994126D01*
X96715000Y-78240000D01*
X91550154Y-78240000D01*
X91585000Y-78155874D01*
X91585000Y-77967618D01*
X91665903Y-77846538D01*
X91709999Y-77624853D01*
X91709999Y-77624849D01*
X91724887Y-77550002D01*
X91709999Y-77475155D01*
X91709999Y-70241800D01*
X93166800Y-68785000D01*
X93500153Y-68785000D01*
X93575000Y-68799888D01*
X93649847Y-68785000D01*
X93649852Y-68785000D01*
X93871537Y-68740904D01*
X94122929Y-68572929D01*
X94165330Y-68509471D01*
X94684476Y-67990327D01*
X94747929Y-67947929D01*
X94790327Y-67884476D01*
X94790329Y-67884474D01*
X94894572Y-67728463D01*
X94915904Y-67696537D01*
X94917944Y-67686279D01*
X95204561Y-67805000D01*
X95775439Y-67805000D01*
X96302862Y-67586534D01*
X96706534Y-67182862D01*
X96760000Y-67053784D01*
X96813466Y-67182862D01*
X97217138Y-67586534D01*
X97744561Y-67805000D01*
X98315439Y-67805000D01*
X98842862Y-67586534D01*
X99246534Y-67182862D01*
X99300000Y-67053784D01*
X99353466Y-67182862D01*
X99757138Y-67586534D01*
X100284561Y-67805000D01*
X100855439Y-67805000D01*
X101382862Y-67586534D01*
X101786534Y-67182862D01*
X101840000Y-67053784D01*
X101893466Y-67182862D01*
X102297138Y-67586534D01*
X102824561Y-67805000D01*
X103395439Y-67805000D01*
X103922862Y-67586534D01*
X104326534Y-67182862D01*
X104373525Y-67069417D01*
X104396136Y-67124005D01*
X104642255Y-67198139D01*
X105470395Y-66370000D01*
X104642255Y-65541861D01*
X104396136Y-65615995D01*
X104375126Y-65674448D01*
X104326534Y-65557138D01*
X103922862Y-65153466D01*
X103395439Y-64935000D01*
X102824561Y-64935000D01*
X102297138Y-65153466D01*
X101893466Y-65557138D01*
X101840000Y-65686216D01*
X101786534Y-65557138D01*
X101382862Y-65153466D01*
X100855439Y-64935000D01*
X100284561Y-64935000D01*
X99757138Y-65153466D01*
X99353466Y-65557138D01*
X99300000Y-65686216D01*
X99246534Y-65557138D01*
X98842862Y-65153466D01*
X98315439Y-64935000D01*
X97744561Y-64935000D01*
X97217138Y-65153466D01*
X96813466Y-65557138D01*
X96760000Y-65686216D01*
X96706534Y-65557138D01*
X96302862Y-65153466D01*
X95927016Y-64997785D01*
X98039802Y-62885000D01*
X102671289Y-62885000D01*
X102788720Y-63002431D01*
X103169126Y-63160000D01*
X103580874Y-63160000D01*
X103961280Y-63002431D01*
X104252431Y-62711280D01*
X104410000Y-62330874D01*
X104410000Y-61919126D01*
X104252431Y-61538720D01*
X103961280Y-61247569D01*
X103580874Y-61090000D01*
X103169126Y-61090000D01*
X102788720Y-61247569D01*
X102671289Y-61365000D01*
X97799848Y-61365000D01*
X97725000Y-61350112D01*
X97650152Y-61365000D01*
X97650148Y-61365000D01*
X97491596Y-61396538D01*
X97428462Y-61409096D01*
X97289316Y-61502071D01*
X97177071Y-61577071D01*
X97134671Y-61640527D01*
X93715528Y-65059671D01*
X93652072Y-65102071D01*
X93649191Y-65106382D01*
X93235439Y-64935000D01*
X92664561Y-64935000D01*
X92431439Y-65031562D01*
X92415904Y-64953463D01*
X92247929Y-64702071D01*
X92184473Y-64659671D01*
X92060000Y-64535198D01*
X92060000Y-56314801D01*
X93514802Y-54860000D01*
X97525153Y-54860000D01*
X97600000Y-54874888D01*
X97674847Y-54860000D01*
X97674852Y-54860000D01*
X97896537Y-54815904D01*
X98147929Y-54647929D01*
X98190331Y-54584470D01*
X100231698Y-52543103D01*
X100284561Y-52565000D01*
X100855439Y-52565000D01*
X101382862Y-52346534D01*
X101786534Y-51942862D01*
X101840000Y-51813784D01*
X101893466Y-51942862D01*
G36*
X114593466Y-67182862D02*
X114997138Y-67586534D01*
X115524561Y-67805000D01*
X116095439Y-67805000D01*
X116537769Y-67621781D01*
X116565528Y-67640329D01*
X116925198Y-68000000D01*
X109435199Y-75490000D01*
X107424846Y-75490000D01*
X107349999Y-75475112D01*
X107275152Y-75490000D01*
X107275148Y-75490000D01*
X107053463Y-75534096D01*
X107053461Y-75534097D01*
X107053462Y-75534097D01*
X106865526Y-75659671D01*
X106865524Y-75659673D01*
X106802071Y-75702071D01*
X106759673Y-75765524D01*
X104285199Y-78240000D01*
X98785000Y-78240000D01*
X98785000Y-77994126D01*
X98627431Y-77613720D01*
X98398711Y-77385000D01*
X98705874Y-77385000D01*
X99086280Y-77227431D01*
X99377431Y-76936280D01*
X99535000Y-76555874D01*
X99535000Y-76389801D01*
X102580795Y-73344006D01*
X102722569Y-73686280D01*
X103013720Y-73977431D01*
X103394126Y-74135000D01*
X103805874Y-74135000D01*
X104186280Y-73977431D01*
X104477431Y-73686280D01*
X104635000Y-73305874D01*
X104635000Y-72894126D01*
X104477431Y-72513720D01*
X104360000Y-72396289D01*
X104360000Y-72364801D01*
X106814803Y-69910000D01*
X109525153Y-69910000D01*
X109600000Y-69924888D01*
X109674847Y-69910000D01*
X109674852Y-69910000D01*
X109896537Y-69865904D01*
X110147929Y-69697929D01*
X110190331Y-69634470D01*
X112347703Y-67477099D01*
X112457138Y-67586534D01*
X112984561Y-67805000D01*
X113555439Y-67805000D01*
X114082862Y-67586534D01*
X114486534Y-67182862D01*
X114540000Y-67053784D01*
X114593466Y-67182862D01*
X114593466Y-67182862D01*
G37*
X114593466Y-67182862D02*
X114997138Y-67586534D01*
X115524561Y-67805000D01*
X116095439Y-67805000D01*
X116537769Y-67621781D01*
X116565528Y-67640329D01*
X116925198Y-68000000D01*
X109435199Y-75490000D01*
X107424846Y-75490000D01*
X107349999Y-75475112D01*
X107275152Y-75490000D01*
X107275148Y-75490000D01*
X107053463Y-75534096D01*
X107053461Y-75534097D01*
X107053462Y-75534097D01*
X106865526Y-75659671D01*
X106865524Y-75659673D01*
X106802071Y-75702071D01*
X106759673Y-75765524D01*
X104285199Y-78240000D01*
X98785000Y-78240000D01*
X98785000Y-77994126D01*
X98627431Y-77613720D01*
X98398711Y-77385000D01*
X98705874Y-77385000D01*
X99086280Y-77227431D01*
X99377431Y-76936280D01*
X99535000Y-76555874D01*
X99535000Y-76389801D01*
X102580795Y-73344006D01*
X102722569Y-73686280D01*
X103013720Y-73977431D01*
X103394126Y-74135000D01*
X103805874Y-74135000D01*
X104186280Y-73977431D01*
X104477431Y-73686280D01*
X104635000Y-73305874D01*
X104635000Y-72894126D01*
X104477431Y-72513720D01*
X104360000Y-72396289D01*
X104360000Y-72364801D01*
X106814803Y-69910000D01*
X109525153Y-69910000D01*
X109600000Y-69924888D01*
X109674847Y-69910000D01*
X109674852Y-69910000D01*
X109896537Y-69865904D01*
X110147929Y-69697929D01*
X110190331Y-69634470D01*
X112347703Y-67477099D01*
X112457138Y-67586534D01*
X112984561Y-67805000D01*
X113555439Y-67805000D01*
X114082862Y-67586534D01*
X114486534Y-67182862D01*
X114540000Y-67053784D01*
X114593466Y-67182862D01*
G36*
X90380671Y-69411098D02*
X90359671Y-69442526D01*
X90359670Y-69442527D01*
X90234096Y-69630462D01*
X90175111Y-69926999D01*
X90190000Y-70001851D01*
X90189999Y-76978841D01*
X90135000Y-77001623D01*
X90135000Y-75349846D01*
X90149888Y-75274999D01*
X90135000Y-75200152D01*
X90135000Y-75200148D01*
X90090904Y-74978463D01*
X89922929Y-74727071D01*
X89859473Y-74684671D01*
X87860000Y-72685199D01*
X87860000Y-72544126D01*
X87702431Y-72163720D01*
X87456756Y-71918045D01*
X89964802Y-69410000D01*
X90375153Y-69410000D01*
X90380671Y-69411098D01*
X90380671Y-69411098D01*
G37*
X90380671Y-69411098D02*
X90359671Y-69442526D01*
X90359670Y-69442527D01*
X90234096Y-69630462D01*
X90175111Y-69926999D01*
X90190000Y-70001851D01*
X90189999Y-76978841D01*
X90135000Y-77001623D01*
X90135000Y-75349846D01*
X90149888Y-75274999D01*
X90135000Y-75200152D01*
X90135000Y-75200148D01*
X90090904Y-74978463D01*
X89922929Y-74727071D01*
X89859473Y-74684671D01*
X87860000Y-72685199D01*
X87860000Y-72544126D01*
X87702431Y-72163720D01*
X87456756Y-71918045D01*
X89964802Y-69410000D01*
X90375153Y-69410000D01*
X90380671Y-69411098D01*
G36*
X138384561Y-67805000D02*
X138955439Y-67805000D01*
X139204376Y-67701887D01*
X139301959Y-67847929D01*
X139352072Y-67922929D01*
X139415528Y-67965329D01*
X139490000Y-68039801D01*
X139490001Y-70910197D01*
X136710199Y-73690000D01*
X136459632Y-73690000D01*
X136507809Y-73657809D01*
X136648157Y-73447765D01*
X136697440Y-73200000D01*
X136697440Y-72000000D01*
X136648157Y-71752235D01*
X136507809Y-71542191D01*
X136361601Y-71444497D01*
X136381933Y-71429125D01*
X136628286Y-71009376D01*
X136643462Y-70917609D01*
X136518731Y-70727000D01*
X135327000Y-70727000D01*
X135327000Y-70747000D01*
X135073000Y-70747000D01*
X135073000Y-70727000D01*
X133881269Y-70727000D01*
X133756538Y-70917609D01*
X133771714Y-71009376D01*
X133892396Y-71215000D01*
X127887159Y-71215000D01*
X127799999Y-71197663D01*
X127712839Y-71215000D01*
X127712835Y-71215000D01*
X127454690Y-71266348D01*
X127161951Y-71461951D01*
X127146821Y-71484594D01*
X126860000Y-71603399D01*
X126860000Y-71091578D01*
X126916578Y-71035000D01*
X132732839Y-71035000D01*
X132820000Y-71052337D01*
X132907161Y-71035000D01*
X132907165Y-71035000D01*
X133165310Y-70983652D01*
X133458049Y-70788049D01*
X133507425Y-70714153D01*
X133828784Y-70392794D01*
X133881269Y-70473000D01*
X135073000Y-70473000D01*
X135073000Y-70453000D01*
X135327000Y-70453000D01*
X135327000Y-70473000D01*
X136518731Y-70473000D01*
X136643462Y-70282391D01*
X136628286Y-70190624D01*
X136381933Y-69770875D01*
X135993701Y-69477353D01*
X135522696Y-69354744D01*
X135327002Y-69517451D01*
X135327002Y-69414576D01*
X135534016Y-69207562D01*
X135638049Y-69138049D01*
X135687425Y-69064153D01*
X136700903Y-68050675D01*
X136844126Y-68110000D01*
X137255874Y-68110000D01*
X137636280Y-67952431D01*
X137927431Y-67661280D01*
X137943563Y-67622333D01*
X138384561Y-67805000D01*
X138384561Y-67805000D01*
G37*
X138384561Y-67805000D02*
X138955439Y-67805000D01*
X139204376Y-67701887D01*
X139301959Y-67847929D01*
X139352072Y-67922929D01*
X139415528Y-67965329D01*
X139490000Y-68039801D01*
X139490001Y-70910197D01*
X136710199Y-73690000D01*
X136459632Y-73690000D01*
X136507809Y-73657809D01*
X136648157Y-73447765D01*
X136697440Y-73200000D01*
X136697440Y-72000000D01*
X136648157Y-71752235D01*
X136507809Y-71542191D01*
X136361601Y-71444497D01*
X136381933Y-71429125D01*
X136628286Y-71009376D01*
X136643462Y-70917609D01*
X136518731Y-70727000D01*
X135327000Y-70727000D01*
X135327000Y-70747000D01*
X135073000Y-70747000D01*
X135073000Y-70727000D01*
X133881269Y-70727000D01*
X133756538Y-70917609D01*
X133771714Y-71009376D01*
X133892396Y-71215000D01*
X127887159Y-71215000D01*
X127799999Y-71197663D01*
X127712839Y-71215000D01*
X127712835Y-71215000D01*
X127454690Y-71266348D01*
X127161951Y-71461951D01*
X127146821Y-71484594D01*
X126860000Y-71603399D01*
X126860000Y-71091578D01*
X126916578Y-71035000D01*
X132732839Y-71035000D01*
X132820000Y-71052337D01*
X132907161Y-71035000D01*
X132907165Y-71035000D01*
X133165310Y-70983652D01*
X133458049Y-70788049D01*
X133507425Y-70714153D01*
X133828784Y-70392794D01*
X133881269Y-70473000D01*
X135073000Y-70473000D01*
X135073000Y-70453000D01*
X135327000Y-70453000D01*
X135327000Y-70473000D01*
X136518731Y-70473000D01*
X136643462Y-70282391D01*
X136628286Y-70190624D01*
X136381933Y-69770875D01*
X135993701Y-69477353D01*
X135522696Y-69354744D01*
X135327002Y-69517451D01*
X135327002Y-69414576D01*
X135534016Y-69207562D01*
X135638049Y-69138049D01*
X135687425Y-69064153D01*
X136700903Y-68050675D01*
X136844126Y-68110000D01*
X137255874Y-68110000D01*
X137636280Y-67952431D01*
X137927431Y-67661280D01*
X137943563Y-67622333D01*
X138384561Y-67805000D01*
G36*
X121612071Y-52577929D02*
X121675529Y-52620330D01*
X123230000Y-54174802D01*
X123230001Y-59655144D01*
X123230000Y-59655149D01*
X123230000Y-59665153D01*
X123215112Y-59740000D01*
X123230000Y-59814847D01*
X123230000Y-59814852D01*
X123274096Y-60036537D01*
X123442071Y-60287929D01*
X123505529Y-60330330D01*
X125309671Y-62134473D01*
X125352071Y-62197929D01*
X125603463Y-62365904D01*
X125825148Y-62410000D01*
X125825153Y-62410000D01*
X125826571Y-62410282D01*
X125943720Y-62527431D01*
X126324126Y-62685000D01*
X126496434Y-62685000D01*
X126484097Y-62703463D01*
X126425112Y-63000000D01*
X126440001Y-63074852D01*
X126440001Y-65011448D01*
X126255439Y-64935000D01*
X125684561Y-64935000D01*
X125157138Y-65153466D01*
X124753466Y-65557138D01*
X124700000Y-65686216D01*
X124646534Y-65557138D01*
X124242862Y-65153466D01*
X123715439Y-64935000D01*
X123428227Y-64935000D01*
X123422929Y-64927071D01*
X123359473Y-64884671D01*
X120212500Y-61737699D01*
X120450000Y-61784940D01*
X121650000Y-61784940D01*
X121897765Y-61735657D01*
X122107809Y-61595309D01*
X122248157Y-61385265D01*
X122297440Y-61137500D01*
X122297440Y-59337500D01*
X122248157Y-59089735D01*
X122107809Y-58879691D01*
X121897765Y-58739343D01*
X121650000Y-58690060D01*
X120653416Y-58690060D01*
X120685000Y-58613810D01*
X120685000Y-57998250D01*
X120526250Y-57839500D01*
X119877000Y-57839500D01*
X119877000Y-58963750D01*
X119912382Y-58999132D01*
X119851843Y-59089735D01*
X119802560Y-59337500D01*
X119802560Y-61137500D01*
X119849801Y-61375000D01*
X119510000Y-61035199D01*
X119510000Y-59076750D01*
X119623000Y-58963750D01*
X119623000Y-58772915D01*
X119648157Y-58735265D01*
X119697440Y-58487500D01*
X119697440Y-56937500D01*
X119648157Y-56689735D01*
X119623000Y-56652085D01*
X119623000Y-56461250D01*
X119877000Y-56461250D01*
X119877000Y-57585500D01*
X120526250Y-57585500D01*
X120685000Y-57426750D01*
X120685000Y-56811190D01*
X120588327Y-56577801D01*
X120409698Y-56399173D01*
X120176309Y-56302500D01*
X120035750Y-56302500D01*
X119877000Y-56461250D01*
X119623000Y-56461250D01*
X119510000Y-56348250D01*
X119510000Y-53289801D01*
X120084473Y-52715329D01*
X120147929Y-52672929D01*
X120303398Y-52440254D01*
X120604561Y-52565000D01*
X121175439Y-52565000D01*
X121510655Y-52426149D01*
X121612071Y-52577929D01*
X121612071Y-52577929D01*
G37*
X121612071Y-52577929D02*
X121675529Y-52620330D01*
X123230000Y-54174802D01*
X123230001Y-59655144D01*
X123230000Y-59655149D01*
X123230000Y-59665153D01*
X123215112Y-59740000D01*
X123230000Y-59814847D01*
X123230000Y-59814852D01*
X123274096Y-60036537D01*
X123442071Y-60287929D01*
X123505529Y-60330330D01*
X125309671Y-62134473D01*
X125352071Y-62197929D01*
X125603463Y-62365904D01*
X125825148Y-62410000D01*
X125825153Y-62410000D01*
X125826571Y-62410282D01*
X125943720Y-62527431D01*
X126324126Y-62685000D01*
X126496434Y-62685000D01*
X126484097Y-62703463D01*
X126425112Y-63000000D01*
X126440001Y-63074852D01*
X126440001Y-65011448D01*
X126255439Y-64935000D01*
X125684561Y-64935000D01*
X125157138Y-65153466D01*
X124753466Y-65557138D01*
X124700000Y-65686216D01*
X124646534Y-65557138D01*
X124242862Y-65153466D01*
X123715439Y-64935000D01*
X123428227Y-64935000D01*
X123422929Y-64927071D01*
X123359473Y-64884671D01*
X120212500Y-61737699D01*
X120450000Y-61784940D01*
X121650000Y-61784940D01*
X121897765Y-61735657D01*
X122107809Y-61595309D01*
X122248157Y-61385265D01*
X122297440Y-61137500D01*
X122297440Y-59337500D01*
X122248157Y-59089735D01*
X122107809Y-58879691D01*
X121897765Y-58739343D01*
X121650000Y-58690060D01*
X120653416Y-58690060D01*
X120685000Y-58613810D01*
X120685000Y-57998250D01*
X120526250Y-57839500D01*
X119877000Y-57839500D01*
X119877000Y-58963750D01*
X119912382Y-58999132D01*
X119851843Y-59089735D01*
X119802560Y-59337500D01*
X119802560Y-61137500D01*
X119849801Y-61375000D01*
X119510000Y-61035199D01*
X119510000Y-59076750D01*
X119623000Y-58963750D01*
X119623000Y-58772915D01*
X119648157Y-58735265D01*
X119697440Y-58487500D01*
X119697440Y-56937500D01*
X119648157Y-56689735D01*
X119623000Y-56652085D01*
X119623000Y-56461250D01*
X119877000Y-56461250D01*
X119877000Y-57585500D01*
X120526250Y-57585500D01*
X120685000Y-57426750D01*
X120685000Y-56811190D01*
X120588327Y-56577801D01*
X120409698Y-56399173D01*
X120176309Y-56302500D01*
X120035750Y-56302500D01*
X119877000Y-56461250D01*
X119623000Y-56461250D01*
X119510000Y-56348250D01*
X119510000Y-53289801D01*
X120084473Y-52715329D01*
X120147929Y-52672929D01*
X120303398Y-52440254D01*
X120604561Y-52565000D01*
X121175439Y-52565000D01*
X121510655Y-52426149D01*
X121612071Y-52577929D01*
G36*
X115440000Y-54114803D02*
X115440001Y-56612648D01*
X115425112Y-56687500D01*
X115484097Y-56984037D01*
X115605617Y-57165904D01*
X115652072Y-57235429D01*
X115715527Y-57277828D01*
X115802560Y-57364862D01*
X115802560Y-58487500D01*
X115842851Y-58690060D01*
X114850000Y-58690060D01*
X114602235Y-58739343D01*
X114392191Y-58879691D01*
X114251843Y-59089735D01*
X114202560Y-59337500D01*
X114202560Y-61137500D01*
X114251843Y-61385265D01*
X114392191Y-61595309D01*
X114602235Y-61735657D01*
X114850000Y-61784940D01*
X116050000Y-61784940D01*
X116297765Y-61735657D01*
X116507809Y-61595309D01*
X116648157Y-61385265D01*
X116697440Y-61137500D01*
X116697440Y-59337500D01*
X116657149Y-59134940D01*
X116990001Y-59134940D01*
X116990000Y-61075153D01*
X116975112Y-61150000D01*
X116990000Y-61224847D01*
X116990000Y-61224851D01*
X117034096Y-61446536D01*
X117202071Y-61697929D01*
X117265530Y-61740331D01*
X120130001Y-64604803D01*
X120130000Y-65131570D01*
X120077138Y-65153466D01*
X119673466Y-65557138D01*
X119620000Y-65686216D01*
X119566534Y-65557138D01*
X119162862Y-65153466D01*
X118635439Y-64935000D01*
X118284802Y-64935000D01*
X117215341Y-63865540D01*
X117172939Y-63802081D01*
X116921547Y-63634106D01*
X116699862Y-63590010D01*
X116699857Y-63590010D01*
X116625010Y-63575122D01*
X116550163Y-63590010D01*
X111557793Y-63590010D01*
X113484473Y-61663331D01*
X113547929Y-61620931D01*
X113715904Y-61369539D01*
X113760000Y-61147854D01*
X113760000Y-61147850D01*
X113774888Y-61073003D01*
X113760000Y-60998156D01*
X113760000Y-54959406D01*
X114337644Y-54381763D01*
X114503716Y-54381763D01*
X114884122Y-54224194D01*
X115175273Y-53933043D01*
X115199574Y-53874376D01*
X115440000Y-54114803D01*
X115440000Y-54114803D01*
G37*
X115440000Y-54114803D02*
X115440001Y-56612648D01*
X115425112Y-56687500D01*
X115484097Y-56984037D01*
X115605617Y-57165904D01*
X115652072Y-57235429D01*
X115715527Y-57277828D01*
X115802560Y-57364862D01*
X115802560Y-58487500D01*
X115842851Y-58690060D01*
X114850000Y-58690060D01*
X114602235Y-58739343D01*
X114392191Y-58879691D01*
X114251843Y-59089735D01*
X114202560Y-59337500D01*
X114202560Y-61137500D01*
X114251843Y-61385265D01*
X114392191Y-61595309D01*
X114602235Y-61735657D01*
X114850000Y-61784940D01*
X116050000Y-61784940D01*
X116297765Y-61735657D01*
X116507809Y-61595309D01*
X116648157Y-61385265D01*
X116697440Y-61137500D01*
X116697440Y-59337500D01*
X116657149Y-59134940D01*
X116990001Y-59134940D01*
X116990000Y-61075153D01*
X116975112Y-61150000D01*
X116990000Y-61224847D01*
X116990000Y-61224851D01*
X117034096Y-61446536D01*
X117202071Y-61697929D01*
X117265530Y-61740331D01*
X120130001Y-64604803D01*
X120130000Y-65131570D01*
X120077138Y-65153466D01*
X119673466Y-65557138D01*
X119620000Y-65686216D01*
X119566534Y-65557138D01*
X119162862Y-65153466D01*
X118635439Y-64935000D01*
X118284802Y-64935000D01*
X117215341Y-63865540D01*
X117172939Y-63802081D01*
X116921547Y-63634106D01*
X116699862Y-63590010D01*
X116699857Y-63590010D01*
X116625010Y-63575122D01*
X116550163Y-63590010D01*
X111557793Y-63590010D01*
X113484473Y-61663331D01*
X113547929Y-61620931D01*
X113715904Y-61369539D01*
X113760000Y-61147854D01*
X113760000Y-61147850D01*
X113774888Y-61073003D01*
X113760000Y-60998156D01*
X113760000Y-54959406D01*
X114337644Y-54381763D01*
X114503716Y-54381763D01*
X114884122Y-54224194D01*
X115175273Y-53933043D01*
X115199574Y-53874376D01*
X115440000Y-54114803D01*
G36*
X90540001Y-64775148D02*
X90525112Y-64850000D01*
X90540001Y-64924852D01*
X90542020Y-64935000D01*
X90124561Y-64935000D01*
X89910000Y-65023874D01*
X89910000Y-63814801D01*
X90540001Y-63184801D01*
X90540001Y-64775148D01*
X90540001Y-64775148D01*
G37*
X90540001Y-64775148D02*
X90525112Y-64850000D01*
X90540001Y-64924852D01*
X90542020Y-64935000D01*
X90124561Y-64935000D01*
X89910000Y-65023874D01*
X89910000Y-63814801D01*
X90540001Y-63184801D01*
X90540001Y-64775148D01*
G36*
X108952072Y-52447929D02*
X109015528Y-52490329D01*
X109709670Y-53184472D01*
X109752071Y-53247929D01*
X109815527Y-53290329D01*
X110003462Y-53415904D01*
X110051605Y-53425480D01*
X110225148Y-53460000D01*
X110225152Y-53460000D01*
X110300000Y-53474888D01*
X110374848Y-53460000D01*
X110685199Y-53460000D01*
X110765001Y-53539803D01*
X110765002Y-58235197D01*
X110560199Y-58440000D01*
X110394126Y-58440000D01*
X110013720Y-58597569D01*
X109722569Y-58888720D01*
X109565000Y-59269126D01*
X109565000Y-59680874D01*
X109722569Y-60061280D01*
X110013720Y-60352431D01*
X110236140Y-60444560D01*
X110225112Y-60500000D01*
X110240000Y-60574847D01*
X110240001Y-61985198D01*
X110085199Y-62140000D01*
X109774846Y-62140000D01*
X109699999Y-62125112D01*
X109625152Y-62140000D01*
X109625148Y-62140000D01*
X109403463Y-62184096D01*
X109358001Y-62214473D01*
X109215526Y-62309671D01*
X109215524Y-62309673D01*
X109152071Y-62352071D01*
X109109673Y-62415524D01*
X107710000Y-63815199D01*
X107710000Y-62924846D01*
X107724888Y-62849999D01*
X107710000Y-62775152D01*
X107710000Y-62775148D01*
X107665904Y-62553463D01*
X107636965Y-62510153D01*
X107655721Y-62510153D01*
X108036127Y-62352584D01*
X108327278Y-62061433D01*
X108484847Y-61681027D01*
X108484847Y-61269279D01*
X108327278Y-60888873D01*
X108036127Y-60597722D01*
X107785010Y-60493706D01*
X107785010Y-52609791D01*
X107851698Y-52543103D01*
X107904561Y-52565000D01*
X108475439Y-52565000D01*
X108910018Y-52384991D01*
X108952072Y-52447929D01*
X108952072Y-52447929D01*
G37*
X108952072Y-52447929D02*
X109015528Y-52490329D01*
X109709670Y-53184472D01*
X109752071Y-53247929D01*
X109815527Y-53290329D01*
X110003462Y-53415904D01*
X110051605Y-53425480D01*
X110225148Y-53460000D01*
X110225152Y-53460000D01*
X110300000Y-53474888D01*
X110374848Y-53460000D01*
X110685199Y-53460000D01*
X110765001Y-53539803D01*
X110765002Y-58235197D01*
X110560199Y-58440000D01*
X110394126Y-58440000D01*
X110013720Y-58597569D01*
X109722569Y-58888720D01*
X109565000Y-59269126D01*
X109565000Y-59680874D01*
X109722569Y-60061280D01*
X110013720Y-60352431D01*
X110236140Y-60444560D01*
X110225112Y-60500000D01*
X110240000Y-60574847D01*
X110240001Y-61985198D01*
X110085199Y-62140000D01*
X109774846Y-62140000D01*
X109699999Y-62125112D01*
X109625152Y-62140000D01*
X109625148Y-62140000D01*
X109403463Y-62184096D01*
X109358001Y-62214473D01*
X109215526Y-62309671D01*
X109215524Y-62309673D01*
X109152071Y-62352071D01*
X109109673Y-62415524D01*
X107710000Y-63815199D01*
X107710000Y-62924846D01*
X107724888Y-62849999D01*
X107710000Y-62775152D01*
X107710000Y-62775148D01*
X107665904Y-62553463D01*
X107636965Y-62510153D01*
X107655721Y-62510153D01*
X108036127Y-62352584D01*
X108327278Y-62061433D01*
X108484847Y-61681027D01*
X108484847Y-61269279D01*
X108327278Y-60888873D01*
X108036127Y-60597722D01*
X107785010Y-60493706D01*
X107785010Y-52609791D01*
X107851698Y-52543103D01*
X107904561Y-52565000D01*
X108475439Y-52565000D01*
X108910018Y-52384991D01*
X108952072Y-52447929D01*
G36*
X134913466Y-51942862D02*
X135317138Y-52346534D01*
X135844561Y-52565000D01*
X136415439Y-52565000D01*
X136468302Y-52543103D01*
X138050001Y-54124804D01*
X138050000Y-60225198D01*
X134965528Y-63309671D01*
X134935904Y-63329465D01*
X134806534Y-63017138D01*
X134402862Y-62613466D01*
X133875439Y-62395000D01*
X133304561Y-62395000D01*
X132777138Y-62613466D01*
X132373466Y-63017138D01*
X132320000Y-63146216D01*
X132266534Y-63017138D01*
X131862862Y-62613466D01*
X131335439Y-62395000D01*
X131229801Y-62395000D01*
X132834473Y-60790329D01*
X132897929Y-60747929D01*
X133065904Y-60496537D01*
X133110000Y-60274852D01*
X133110000Y-60274848D01*
X133124888Y-60200001D01*
X133110000Y-60125154D01*
X133110000Y-60034801D01*
X133565000Y-60489802D01*
X133565000Y-60655874D01*
X133722569Y-61036280D01*
X134013720Y-61327431D01*
X134394126Y-61485000D01*
X134805874Y-61485000D01*
X135186280Y-61327431D01*
X135477431Y-61036280D01*
X135635000Y-60655874D01*
X135635000Y-60244126D01*
X135477431Y-59863720D01*
X135186280Y-59572569D01*
X134805874Y-59415000D01*
X134639802Y-59415000D01*
X134350000Y-59125199D01*
X134350000Y-52368430D01*
X134402862Y-52346534D01*
X134806534Y-51942862D01*
X134860000Y-51813784D01*
X134913466Y-51942862D01*
X134913466Y-51942862D01*
G37*
X134913466Y-51942862D02*
X135317138Y-52346534D01*
X135844561Y-52565000D01*
X136415439Y-52565000D01*
X136468302Y-52543103D01*
X138050001Y-54124804D01*
X138050000Y-60225198D01*
X134965528Y-63309671D01*
X134935904Y-63329465D01*
X134806534Y-63017138D01*
X134402862Y-62613466D01*
X133875439Y-62395000D01*
X133304561Y-62395000D01*
X132777138Y-62613466D01*
X132373466Y-63017138D01*
X132320000Y-63146216D01*
X132266534Y-63017138D01*
X131862862Y-62613466D01*
X131335439Y-62395000D01*
X131229801Y-62395000D01*
X132834473Y-60790329D01*
X132897929Y-60747929D01*
X133065904Y-60496537D01*
X133110000Y-60274852D01*
X133110000Y-60274848D01*
X133124888Y-60200001D01*
X133110000Y-60125154D01*
X133110000Y-60034801D01*
X133565000Y-60489802D01*
X133565000Y-60655874D01*
X133722569Y-61036280D01*
X134013720Y-61327431D01*
X134394126Y-61485000D01*
X134805874Y-61485000D01*
X135186280Y-61327431D01*
X135477431Y-61036280D01*
X135635000Y-60655874D01*
X135635000Y-60244126D01*
X135477431Y-59863720D01*
X135186280Y-59572569D01*
X134805874Y-59415000D01*
X134639802Y-59415000D01*
X134350000Y-59125199D01*
X134350000Y-52368430D01*
X134402862Y-52346534D01*
X134806534Y-51942862D01*
X134860000Y-51813784D01*
X134913466Y-51942862D01*
G36*
X129833466Y-51942862D02*
X130237138Y-52346534D01*
X130290000Y-52368430D01*
X130290001Y-59575148D01*
X130275112Y-59650000D01*
X130290001Y-59724852D01*
X130304260Y-59796537D01*
X130334097Y-59946537D01*
X130365000Y-59992787D01*
X130365000Y-60205874D01*
X130522569Y-60586280D01*
X130705744Y-60769455D01*
X129885199Y-61590000D01*
X127924848Y-61590000D01*
X127850000Y-61575112D01*
X127775152Y-61590000D01*
X127775148Y-61590000D01*
X127619648Y-61620931D01*
X127565000Y-61631801D01*
X127565000Y-61444126D01*
X127407431Y-61063720D01*
X127116280Y-60772569D01*
X127108072Y-60769169D01*
X127155000Y-60655874D01*
X127155000Y-60244126D01*
X126997431Y-59863720D01*
X126706280Y-59572569D01*
X126325874Y-59415000D01*
X126169802Y-59415000D01*
X125440000Y-58685199D01*
X125440000Y-52463699D01*
X125684561Y-52565000D01*
X126255439Y-52565000D01*
X126782862Y-52346534D01*
X127186534Y-51942862D01*
X127240000Y-51813784D01*
X127293466Y-51942862D01*
X127697138Y-52346534D01*
X128224561Y-52565000D01*
X128795439Y-52565000D01*
X129322862Y-52346534D01*
X129726534Y-51942862D01*
X129780000Y-51813784D01*
X129833466Y-51942862D01*
X129833466Y-51942862D01*
G37*
X129833466Y-51942862D02*
X130237138Y-52346534D01*
X130290000Y-52368430D01*
X130290001Y-59575148D01*
X130275112Y-59650000D01*
X130290001Y-59724852D01*
X130304260Y-59796537D01*
X130334097Y-59946537D01*
X130365000Y-59992787D01*
X130365000Y-60205874D01*
X130522569Y-60586280D01*
X130705744Y-60769455D01*
X129885199Y-61590000D01*
X127924848Y-61590000D01*
X127850000Y-61575112D01*
X127775152Y-61590000D01*
X127775148Y-61590000D01*
X127619648Y-61620931D01*
X127565000Y-61631801D01*
X127565000Y-61444126D01*
X127407431Y-61063720D01*
X127116280Y-60772569D01*
X127108072Y-60769169D01*
X127155000Y-60655874D01*
X127155000Y-60244126D01*
X126997431Y-59863720D01*
X126706280Y-59572569D01*
X126325874Y-59415000D01*
X126169802Y-59415000D01*
X125440000Y-58685199D01*
X125440000Y-52463699D01*
X125684561Y-52565000D01*
X126255439Y-52565000D01*
X126782862Y-52346534D01*
X127186534Y-51942862D01*
X127240000Y-51813784D01*
X127293466Y-51942862D01*
X127697138Y-52346534D01*
X128224561Y-52565000D01*
X128795439Y-52565000D01*
X129322862Y-52346534D01*
X129726534Y-51942862D01*
X129780000Y-51813784D01*
X129833466Y-51942862D01*
G36*
X134384669Y-48259471D02*
X134427070Y-48322928D01*
X134490526Y-48365328D01*
X134678461Y-48490903D01*
X134726604Y-48500479D01*
X134900147Y-48534999D01*
X134900151Y-48534999D01*
X134974999Y-48549887D01*
X135049847Y-48534999D01*
X137860198Y-48534999D01*
X139065990Y-49740792D01*
X138955439Y-49695000D01*
X138384561Y-49695000D01*
X137857138Y-49913466D01*
X137453466Y-50317138D01*
X137400000Y-50446216D01*
X137346534Y-50317138D01*
X136942862Y-49913466D01*
X136415439Y-49695000D01*
X135844561Y-49695000D01*
X135317138Y-49913466D01*
X134913466Y-50317138D01*
X134860000Y-50446216D01*
X134806534Y-50317138D01*
X134402862Y-49913466D01*
X133875439Y-49695000D01*
X133304561Y-49695000D01*
X132903875Y-49860970D01*
X132897929Y-49852071D01*
X132834473Y-49809671D01*
X132190331Y-49165530D01*
X132147929Y-49102071D01*
X131896537Y-48934096D01*
X131674852Y-48890000D01*
X131674847Y-48890000D01*
X131600000Y-48875112D01*
X131525153Y-48890000D01*
X130914802Y-48890000D01*
X130511010Y-48486209D01*
X130377431Y-48163720D01*
X130086280Y-47872569D01*
X129705874Y-47715000D01*
X129294126Y-47715000D01*
X128913720Y-47872569D01*
X128622569Y-48163720D01*
X128465000Y-48544126D01*
X128465000Y-48955874D01*
X128622569Y-49336280D01*
X128913720Y-49627431D01*
X129294126Y-49785000D01*
X129660198Y-49785000D01*
X130009670Y-50134472D01*
X130012259Y-50138345D01*
X129833466Y-50317138D01*
X129780000Y-50446216D01*
X129726534Y-50317138D01*
X129322862Y-49913466D01*
X128795439Y-49695000D01*
X128224561Y-49695000D01*
X127697138Y-49913466D01*
X127293466Y-50317138D01*
X127240000Y-50446216D01*
X127186534Y-50317138D01*
X126782862Y-49913466D01*
X126255439Y-49695000D01*
X125684561Y-49695000D01*
X125451237Y-49791646D01*
X125440000Y-49735152D01*
X125440000Y-49735148D01*
X125395904Y-49513463D01*
X125227929Y-49262071D01*
X125164473Y-49219671D01*
X123394801Y-47450000D01*
X127286289Y-47450000D01*
X127563720Y-47727431D01*
X127944126Y-47885000D01*
X128355874Y-47885000D01*
X128736280Y-47727431D01*
X129027431Y-47436280D01*
X129185000Y-47055874D01*
X129185000Y-46644126D01*
X129027431Y-46263720D01*
X128736280Y-45972569D01*
X128576729Y-45906481D01*
X128576729Y-45690309D01*
X128419160Y-45309903D01*
X128169257Y-45060000D01*
X131185199Y-45060000D01*
X134384669Y-48259471D01*
X134384669Y-48259471D01*
G37*
X134384669Y-48259471D02*
X134427070Y-48322928D01*
X134490526Y-48365328D01*
X134678461Y-48490903D01*
X134726604Y-48500479D01*
X134900147Y-48534999D01*
X134900151Y-48534999D01*
X134974999Y-48549887D01*
X135049847Y-48534999D01*
X137860198Y-48534999D01*
X139065990Y-49740792D01*
X138955439Y-49695000D01*
X138384561Y-49695000D01*
X137857138Y-49913466D01*
X137453466Y-50317138D01*
X137400000Y-50446216D01*
X137346534Y-50317138D01*
X136942862Y-49913466D01*
X136415439Y-49695000D01*
X135844561Y-49695000D01*
X135317138Y-49913466D01*
X134913466Y-50317138D01*
X134860000Y-50446216D01*
X134806534Y-50317138D01*
X134402862Y-49913466D01*
X133875439Y-49695000D01*
X133304561Y-49695000D01*
X132903875Y-49860970D01*
X132897929Y-49852071D01*
X132834473Y-49809671D01*
X132190331Y-49165530D01*
X132147929Y-49102071D01*
X131896537Y-48934096D01*
X131674852Y-48890000D01*
X131674847Y-48890000D01*
X131600000Y-48875112D01*
X131525153Y-48890000D01*
X130914802Y-48890000D01*
X130511010Y-48486209D01*
X130377431Y-48163720D01*
X130086280Y-47872569D01*
X129705874Y-47715000D01*
X129294126Y-47715000D01*
X128913720Y-47872569D01*
X128622569Y-48163720D01*
X128465000Y-48544126D01*
X128465000Y-48955874D01*
X128622569Y-49336280D01*
X128913720Y-49627431D01*
X129294126Y-49785000D01*
X129660198Y-49785000D01*
X130009670Y-50134472D01*
X130012259Y-50138345D01*
X129833466Y-50317138D01*
X129780000Y-50446216D01*
X129726534Y-50317138D01*
X129322862Y-49913466D01*
X128795439Y-49695000D01*
X128224561Y-49695000D01*
X127697138Y-49913466D01*
X127293466Y-50317138D01*
X127240000Y-50446216D01*
X127186534Y-50317138D01*
X126782862Y-49913466D01*
X126255439Y-49695000D01*
X125684561Y-49695000D01*
X125451237Y-49791646D01*
X125440000Y-49735152D01*
X125440000Y-49735148D01*
X125395904Y-49513463D01*
X125227929Y-49262071D01*
X125164473Y-49219671D01*
X123394801Y-47450000D01*
X127286289Y-47450000D01*
X127563720Y-47727431D01*
X127944126Y-47885000D01*
X128355874Y-47885000D01*
X128736280Y-47727431D01*
X129027431Y-47436280D01*
X129185000Y-47055874D01*
X129185000Y-46644126D01*
X129027431Y-46263720D01*
X128736280Y-45972569D01*
X128576729Y-45906481D01*
X128576729Y-45690309D01*
X128419160Y-45309903D01*
X128169257Y-45060000D01*
X131185199Y-45060000D01*
X134384669Y-48259471D01*
G36*
X57590191Y-43349809D02*
X57800235Y-43490157D01*
X58048000Y-43539440D01*
X58052516Y-43539440D01*
X58009392Y-43689787D01*
X58810000Y-44490395D01*
X58824143Y-44476253D01*
X59003748Y-44655858D01*
X58989605Y-44670000D01*
X59790213Y-45470608D01*
X60032397Y-45401143D01*
X60219144Y-44877698D01*
X60191362Y-44322632D01*
X60099656Y-44101234D01*
X60865001Y-44866580D01*
X60865000Y-48190199D01*
X60194020Y-47519218D01*
X60207000Y-47487881D01*
X60207000Y-46932119D01*
X59994320Y-46418663D01*
X59601337Y-46025680D01*
X59410353Y-45946572D01*
X59541143Y-45892397D01*
X59610608Y-45650213D01*
X58810000Y-44849605D01*
X58009392Y-45650213D01*
X58078857Y-45892397D01*
X58219393Y-45942535D01*
X58018663Y-46025680D01*
X57625680Y-46418663D01*
X57545000Y-46613442D01*
X57545000Y-45298290D01*
X57587603Y-45401143D01*
X57829787Y-45470608D01*
X58630395Y-44670000D01*
X57829787Y-43869392D01*
X57587603Y-43938857D01*
X57545000Y-44058272D01*
X57545000Y-43282176D01*
X57590191Y-43349809D01*
X57590191Y-43349809D01*
G37*
X57590191Y-43349809D02*
X57800235Y-43490157D01*
X58048000Y-43539440D01*
X58052516Y-43539440D01*
X58009392Y-43689787D01*
X58810000Y-44490395D01*
X58824143Y-44476253D01*
X59003748Y-44655858D01*
X58989605Y-44670000D01*
X59790213Y-45470608D01*
X60032397Y-45401143D01*
X60219144Y-44877698D01*
X60191362Y-44322632D01*
X60099656Y-44101234D01*
X60865001Y-44866580D01*
X60865000Y-48190199D01*
X60194020Y-47519218D01*
X60207000Y-47487881D01*
X60207000Y-46932119D01*
X59994320Y-46418663D01*
X59601337Y-46025680D01*
X59410353Y-45946572D01*
X59541143Y-45892397D01*
X59610608Y-45650213D01*
X58810000Y-44849605D01*
X58009392Y-45650213D01*
X58078857Y-45892397D01*
X58219393Y-45942535D01*
X58018663Y-46025680D01*
X57625680Y-46418663D01*
X57545000Y-46613442D01*
X57545000Y-45298290D01*
X57587603Y-45401143D01*
X57829787Y-45470608D01*
X58630395Y-44670000D01*
X57829787Y-43869392D01*
X57587603Y-43938857D01*
X57545000Y-44058272D01*
X57545000Y-43282176D01*
X57590191Y-43349809D01*
G04 #@! TD*
M02*
