G04 #@! TF.GenerationSoftware,KiCad,Pcbnew,(5.0.0-3-g5ebb6b6)*
G04 #@! TF.CreationDate,2018-10-17T11:41:48-06:00*
G04 #@! TF.ProjectId,teensy_beats,7465656E73795F62656174732E6B6963,rev?*
G04 #@! TF.SameCoordinates,Original*
G04 #@! TF.FileFunction,Legend,Bot*
G04 #@! TF.FilePolarity,Positive*
%FSLAX46Y46*%
G04 Gerber Fmt 4.6, Leading zero omitted, Abs format (unit mm)*
G04 Created by KiCad (PCBNEW (5.0.0-3-g5ebb6b6)) date Wednesday, October 17, 2018 at 11:41:48 AM*
%MOMM*%
%LPD*%
G01*
G04 APERTURE LIST*
%ADD10C,0.300000*%
%ADD11C,0.120000*%
%ADD12C,0.010000*%
%ADD13C,0.150000*%
G04 APERTURE END LIST*
D10*
X111564285Y-137988571D02*
X110707142Y-137988571D01*
X111135714Y-139488571D02*
X111135714Y-137988571D01*
X109635714Y-139417142D02*
X109778571Y-139488571D01*
X110064285Y-139488571D01*
X110207142Y-139417142D01*
X110278571Y-139274285D01*
X110278571Y-138702857D01*
X110207142Y-138560000D01*
X110064285Y-138488571D01*
X109778571Y-138488571D01*
X109635714Y-138560000D01*
X109564285Y-138702857D01*
X109564285Y-138845714D01*
X110278571Y-138988571D01*
X108350000Y-139417142D02*
X108492857Y-139488571D01*
X108778571Y-139488571D01*
X108921428Y-139417142D01*
X108992857Y-139274285D01*
X108992857Y-138702857D01*
X108921428Y-138560000D01*
X108778571Y-138488571D01*
X108492857Y-138488571D01*
X108350000Y-138560000D01*
X108278571Y-138702857D01*
X108278571Y-138845714D01*
X108992857Y-138988571D01*
X107635714Y-138488571D02*
X107635714Y-139488571D01*
X107635714Y-138631428D02*
X107564285Y-138560000D01*
X107421428Y-138488571D01*
X107207142Y-138488571D01*
X107064285Y-138560000D01*
X106992857Y-138702857D01*
X106992857Y-139488571D01*
X106349999Y-139417142D02*
X106207142Y-139488571D01*
X105921428Y-139488571D01*
X105778571Y-139417142D01*
X105707142Y-139274285D01*
X105707142Y-139202857D01*
X105778571Y-139060000D01*
X105921428Y-138988571D01*
X106135714Y-138988571D01*
X106278571Y-138917142D01*
X106349999Y-138774285D01*
X106349999Y-138702857D01*
X106278571Y-138560000D01*
X106135714Y-138488571D01*
X105921428Y-138488571D01*
X105778571Y-138560000D01*
X105207142Y-138488571D02*
X104850000Y-139488571D01*
X104492857Y-138488571D02*
X104850000Y-139488571D01*
X104992857Y-139845714D01*
X105064285Y-139917142D01*
X105207142Y-139988571D01*
X102278571Y-138702857D02*
X102064285Y-138774285D01*
X101992857Y-138845714D01*
X101921428Y-138988571D01*
X101921428Y-139202857D01*
X101992857Y-139345714D01*
X102064285Y-139417142D01*
X102207142Y-139488571D01*
X102778571Y-139488571D01*
X102778571Y-137988571D01*
X102278571Y-137988571D01*
X102135714Y-138060000D01*
X102064285Y-138131428D01*
X101992857Y-138274285D01*
X101992857Y-138417142D01*
X102064285Y-138560000D01*
X102135714Y-138631428D01*
X102278571Y-138702857D01*
X102778571Y-138702857D01*
X100707142Y-139417142D02*
X100850000Y-139488571D01*
X101135714Y-139488571D01*
X101278571Y-139417142D01*
X101350000Y-139274285D01*
X101350000Y-138702857D01*
X101278571Y-138560000D01*
X101135714Y-138488571D01*
X100850000Y-138488571D01*
X100707142Y-138560000D01*
X100635714Y-138702857D01*
X100635714Y-138845714D01*
X101350000Y-138988571D01*
X99350000Y-139488571D02*
X99350000Y-138702857D01*
X99421428Y-138560000D01*
X99564285Y-138488571D01*
X99850000Y-138488571D01*
X99992857Y-138560000D01*
X99350000Y-139417142D02*
X99492857Y-139488571D01*
X99850000Y-139488571D01*
X99992857Y-139417142D01*
X100064285Y-139274285D01*
X100064285Y-139131428D01*
X99992857Y-138988571D01*
X99850000Y-138917142D01*
X99492857Y-138917142D01*
X99350000Y-138845714D01*
X98850000Y-138488571D02*
X98278571Y-138488571D01*
X98635714Y-137988571D02*
X98635714Y-139274285D01*
X98564285Y-139417142D01*
X98421428Y-139488571D01*
X98278571Y-139488571D01*
X97850000Y-139417142D02*
X97707142Y-139488571D01*
X97421428Y-139488571D01*
X97278571Y-139417142D01*
X97207142Y-139274285D01*
X97207142Y-139202857D01*
X97278571Y-139060000D01*
X97421428Y-138988571D01*
X97635714Y-138988571D01*
X97778571Y-138917142D01*
X97850000Y-138774285D01*
X97850000Y-138702857D01*
X97778571Y-138560000D01*
X97635714Y-138488571D01*
X97421428Y-138488571D01*
X97278571Y-138560000D01*
X95492857Y-139417142D02*
X95278571Y-139488571D01*
X94921428Y-139488571D01*
X94778571Y-139417142D01*
X94707142Y-139345714D01*
X94635714Y-139202857D01*
X94635714Y-139060000D01*
X94707142Y-138917142D01*
X94778571Y-138845714D01*
X94921428Y-138774285D01*
X95207142Y-138702857D01*
X95350000Y-138631428D01*
X95421428Y-138560000D01*
X95492857Y-138417142D01*
X95492857Y-138274285D01*
X95421428Y-138131428D01*
X95350000Y-138060000D01*
X95207142Y-137988571D01*
X94850000Y-137988571D01*
X94635714Y-138060000D01*
X93992857Y-139488571D02*
X93992857Y-137988571D01*
X93350000Y-139488571D02*
X93350000Y-138702857D01*
X93421428Y-138560000D01*
X93564285Y-138488571D01*
X93778571Y-138488571D01*
X93921428Y-138560000D01*
X93992857Y-138631428D01*
X92635714Y-139488571D02*
X92635714Y-138488571D01*
X92635714Y-137988571D02*
X92707142Y-138060000D01*
X92635714Y-138131428D01*
X92564285Y-138060000D01*
X92635714Y-137988571D01*
X92635714Y-138131428D01*
X91350000Y-139417142D02*
X91492857Y-139488571D01*
X91778571Y-139488571D01*
X91921428Y-139417142D01*
X91992857Y-139274285D01*
X91992857Y-138702857D01*
X91921428Y-138560000D01*
X91778571Y-138488571D01*
X91492857Y-138488571D01*
X91350000Y-138560000D01*
X91278571Y-138702857D01*
X91278571Y-138845714D01*
X91992857Y-138988571D01*
X90421428Y-139488571D02*
X90564285Y-139417142D01*
X90635714Y-139274285D01*
X90635714Y-137988571D01*
X89207142Y-139488571D02*
X89207142Y-137988571D01*
X89207142Y-139417142D02*
X89350000Y-139488571D01*
X89635714Y-139488571D01*
X89778571Y-139417142D01*
X89850000Y-139345714D01*
X89921428Y-139202857D01*
X89921428Y-138774285D01*
X89850000Y-138631428D01*
X89778571Y-138560000D01*
X89635714Y-138488571D01*
X89350000Y-138488571D01*
X89207142Y-138560000D01*
X87064285Y-137988571D02*
X86921428Y-137988571D01*
X86778571Y-138060000D01*
X86707142Y-138131428D01*
X86635714Y-138274285D01*
X86564285Y-138560000D01*
X86564285Y-138917142D01*
X86635714Y-139202857D01*
X86707142Y-139345714D01*
X86778571Y-139417142D01*
X86921428Y-139488571D01*
X87064285Y-139488571D01*
X87207142Y-139417142D01*
X87278571Y-139345714D01*
X87350000Y-139202857D01*
X87421428Y-138917142D01*
X87421428Y-138560000D01*
X87350000Y-138274285D01*
X87278571Y-138131428D01*
X87207142Y-138060000D01*
X87064285Y-137988571D01*
X85921428Y-139345714D02*
X85850000Y-139417142D01*
X85921428Y-139488571D01*
X85992857Y-139417142D01*
X85921428Y-139345714D01*
X85921428Y-139488571D01*
X85135714Y-139488571D02*
X84850000Y-139488571D01*
X84707142Y-139417142D01*
X84635714Y-139345714D01*
X84492857Y-139131428D01*
X84421428Y-138845714D01*
X84421428Y-138274285D01*
X84492857Y-138131428D01*
X84564285Y-138060000D01*
X84707142Y-137988571D01*
X84992857Y-137988571D01*
X85135714Y-138060000D01*
X85207142Y-138131428D01*
X85278571Y-138274285D01*
X85278571Y-138631428D01*
X85207142Y-138774285D01*
X85135714Y-138845714D01*
X84992857Y-138917142D01*
X84707142Y-138917142D01*
X84564285Y-138845714D01*
X84492857Y-138774285D01*
X84421428Y-138631428D01*
X83778571Y-139345714D02*
X83707142Y-139417142D01*
X83778571Y-139488571D01*
X83850000Y-139417142D01*
X83778571Y-139345714D01*
X83778571Y-139488571D01*
X82278571Y-139488571D02*
X83135714Y-139488571D01*
X82707142Y-139488571D02*
X82707142Y-137988571D01*
X82850000Y-138202857D01*
X82992857Y-138345714D01*
X83135714Y-138417142D01*
X108860000Y-144520000D02*
X108931428Y-144448571D01*
X109074285Y-144234285D01*
X109145714Y-144091428D01*
X109217142Y-143877142D01*
X109288571Y-143520000D01*
X109288571Y-143234285D01*
X109217142Y-142877142D01*
X109145714Y-142662857D01*
X109074285Y-142520000D01*
X108931428Y-142305714D01*
X108860000Y-142234285D01*
X107431428Y-143805714D02*
X107502857Y-143877142D01*
X107717142Y-143948571D01*
X107860000Y-143948571D01*
X108074285Y-143877142D01*
X108217142Y-143734285D01*
X108288571Y-143591428D01*
X108360000Y-143305714D01*
X108360000Y-143091428D01*
X108288571Y-142805714D01*
X108217142Y-142662857D01*
X108074285Y-142520000D01*
X107860000Y-142448571D01*
X107717142Y-142448571D01*
X107502857Y-142520000D01*
X107431428Y-142591428D01*
X106931428Y-144520000D02*
X106860000Y-144448571D01*
X106717142Y-144234285D01*
X106645714Y-144091428D01*
X106574285Y-143877142D01*
X106502857Y-143520000D01*
X106502857Y-143234285D01*
X106574285Y-142877142D01*
X106645714Y-142662857D01*
X106717142Y-142520000D01*
X106860000Y-142305714D01*
X106931428Y-142234285D01*
X104717142Y-142591428D02*
X104645714Y-142520000D01*
X104502857Y-142448571D01*
X104145714Y-142448571D01*
X104002857Y-142520000D01*
X103931428Y-142591428D01*
X103860000Y-142734285D01*
X103860000Y-142877142D01*
X103931428Y-143091428D01*
X104788571Y-143948571D01*
X103860000Y-143948571D01*
X102931428Y-142448571D02*
X102788571Y-142448571D01*
X102645714Y-142520000D01*
X102574285Y-142591428D01*
X102502857Y-142734285D01*
X102431428Y-143020000D01*
X102431428Y-143377142D01*
X102502857Y-143662857D01*
X102574285Y-143805714D01*
X102645714Y-143877142D01*
X102788571Y-143948571D01*
X102931428Y-143948571D01*
X103074285Y-143877142D01*
X103145714Y-143805714D01*
X103217142Y-143662857D01*
X103288571Y-143377142D01*
X103288571Y-143020000D01*
X103217142Y-142734285D01*
X103145714Y-142591428D01*
X103074285Y-142520000D01*
X102931428Y-142448571D01*
X101002857Y-143948571D02*
X101860000Y-143948571D01*
X101431428Y-143948571D02*
X101431428Y-142448571D01*
X101574285Y-142662857D01*
X101717142Y-142805714D01*
X101860000Y-142877142D01*
X100145714Y-143091428D02*
X100288571Y-143020000D01*
X100360000Y-142948571D01*
X100431428Y-142805714D01*
X100431428Y-142734285D01*
X100360000Y-142591428D01*
X100288571Y-142520000D01*
X100145714Y-142448571D01*
X99860000Y-142448571D01*
X99717142Y-142520000D01*
X99645714Y-142591428D01*
X99574285Y-142734285D01*
X99574285Y-142805714D01*
X99645714Y-142948571D01*
X99717142Y-143020000D01*
X99860000Y-143091428D01*
X100145714Y-143091428D01*
X100288571Y-143162857D01*
X100360000Y-143234285D01*
X100431428Y-143377142D01*
X100431428Y-143662857D01*
X100360000Y-143805714D01*
X100288571Y-143877142D01*
X100145714Y-143948571D01*
X99860000Y-143948571D01*
X99717142Y-143877142D01*
X99645714Y-143805714D01*
X99574285Y-143662857D01*
X99574285Y-143377142D01*
X99645714Y-143234285D01*
X99717142Y-143162857D01*
X99860000Y-143091428D01*
X96931428Y-143805714D02*
X97002857Y-143877142D01*
X97217142Y-143948571D01*
X97360000Y-143948571D01*
X97574285Y-143877142D01*
X97717142Y-143734285D01*
X97788571Y-143591428D01*
X97860000Y-143305714D01*
X97860000Y-143091428D01*
X97788571Y-142805714D01*
X97717142Y-142662857D01*
X97574285Y-142520000D01*
X97360000Y-142448571D01*
X97217142Y-142448571D01*
X97002857Y-142520000D01*
X96931428Y-142591428D01*
X96288571Y-143948571D02*
X96288571Y-142448571D01*
X95645714Y-143948571D02*
X95645714Y-143162857D01*
X95717142Y-143020000D01*
X95860000Y-142948571D01*
X96074285Y-142948571D01*
X96217142Y-143020000D01*
X96288571Y-143091428D01*
X94931428Y-143948571D02*
X94931428Y-142948571D01*
X94931428Y-143234285D02*
X94860000Y-143091428D01*
X94788571Y-143020000D01*
X94645714Y-142948571D01*
X94502857Y-142948571D01*
X94002857Y-143948571D02*
X94002857Y-142948571D01*
X94002857Y-142448571D02*
X94074285Y-142520000D01*
X94002857Y-142591428D01*
X93931428Y-142520000D01*
X94002857Y-142448571D01*
X94002857Y-142591428D01*
X93360000Y-143877142D02*
X93217142Y-143948571D01*
X92931428Y-143948571D01*
X92788571Y-143877142D01*
X92717142Y-143734285D01*
X92717142Y-143662857D01*
X92788571Y-143520000D01*
X92931428Y-143448571D01*
X93145714Y-143448571D01*
X93288571Y-143377142D01*
X93360000Y-143234285D01*
X93360000Y-143162857D01*
X93288571Y-143020000D01*
X93145714Y-142948571D01*
X92931428Y-142948571D01*
X92788571Y-143020000D01*
X90931428Y-143948571D02*
X90931428Y-142448571D01*
X90431428Y-143520000D01*
X89931428Y-142448571D01*
X89931428Y-143948571D01*
X89217142Y-143948571D02*
X89217142Y-142948571D01*
X89217142Y-142448571D02*
X89288571Y-142520000D01*
X89217142Y-142591428D01*
X89145714Y-142520000D01*
X89217142Y-142448571D01*
X89217142Y-142591428D01*
X88288571Y-143948571D02*
X88431428Y-143877142D01*
X88502857Y-143734285D01*
X88502857Y-142448571D01*
X87502857Y-143948571D02*
X87645714Y-143877142D01*
X87717142Y-143734285D01*
X87717142Y-142448571D01*
X86360000Y-143877142D02*
X86502857Y-143948571D01*
X86788571Y-143948571D01*
X86931428Y-143877142D01*
X87002857Y-143734285D01*
X87002857Y-143162857D01*
X86931428Y-143020000D01*
X86788571Y-142948571D01*
X86502857Y-142948571D01*
X86360000Y-143020000D01*
X86288571Y-143162857D01*
X86288571Y-143305714D01*
X87002857Y-143448571D01*
X85645714Y-143948571D02*
X85645714Y-142948571D01*
X85645714Y-143234285D02*
X85574285Y-143091428D01*
X85502857Y-143020000D01*
X85360000Y-142948571D01*
X85217142Y-142948571D01*
D11*
G04 #@! TO.C,J3*
X119750000Y-60037500D02*
X119750000Y-59837500D01*
X118750000Y-60037500D02*
X118750000Y-59837500D01*
X117750000Y-60037500D02*
X117750000Y-59837500D01*
X116750000Y-60037500D02*
X116750000Y-59837500D01*
X120150000Y-58787500D02*
X120150000Y-59437500D01*
X116350000Y-58787500D02*
X120150000Y-58787500D01*
X116350000Y-59437500D02*
X116350000Y-58787500D01*
X120150000Y-60537500D02*
X120150000Y-60037500D01*
X116350000Y-60537500D02*
X120150000Y-60537500D01*
X116350000Y-60037500D02*
X116350000Y-60537500D01*
X121250000Y-58637500D02*
X120750000Y-58637500D01*
X121250000Y-58637500D02*
X121250000Y-58637500D01*
X120750000Y-58637500D02*
X121250000Y-58637500D01*
X120750000Y-58637500D02*
X120750000Y-58637500D01*
X120750000Y-58037500D02*
X120750000Y-58037500D01*
X120750000Y-59037500D02*
X120750000Y-58037500D01*
X120750000Y-59037500D02*
X120750000Y-59037500D01*
X120750000Y-58037500D02*
X120750000Y-59037500D01*
X121250000Y-58037500D02*
X120350000Y-58037500D01*
X121250000Y-59037500D02*
X121250000Y-58037500D01*
X115250000Y-58637500D02*
X115750000Y-58637500D01*
X115250000Y-58637500D02*
X115250000Y-58637500D01*
X115750000Y-58637500D02*
X115250000Y-58637500D01*
X115750000Y-58637500D02*
X115750000Y-58637500D01*
X115750000Y-58037500D02*
X115750000Y-58037500D01*
X115750000Y-59037500D02*
X115750000Y-58037500D01*
X115750000Y-59037500D02*
X115750000Y-59037500D01*
X115750000Y-58037500D02*
X115750000Y-59037500D01*
X115250000Y-58037500D02*
X116150000Y-58037500D01*
X115250000Y-59037500D02*
X115250000Y-58037500D01*
X116350000Y-60937500D02*
X120150000Y-60937500D01*
X116000000Y-57387500D02*
G75*
G03X116000000Y-57387500I-250000J0D01*
G01*
D12*
G04 #@! TO.C,REF\002A\002A\002A*
G36*
X118530256Y-143059918D02*
X118474799Y-143087568D01*
X118425852Y-143138480D01*
X118412371Y-143157338D01*
X118397686Y-143182015D01*
X118388158Y-143208816D01*
X118382707Y-143244587D01*
X118380253Y-143296169D01*
X118379714Y-143364267D01*
X118382148Y-143457588D01*
X118390606Y-143527657D01*
X118406826Y-143579931D01*
X118432546Y-143619869D01*
X118469503Y-143652929D01*
X118472218Y-143654886D01*
X118508640Y-143674908D01*
X118552498Y-143684815D01*
X118608276Y-143687257D01*
X118698952Y-143687257D01*
X118698990Y-143775283D01*
X118699834Y-143824308D01*
X118704976Y-143853065D01*
X118718413Y-143870311D01*
X118744142Y-143884808D01*
X118750321Y-143887769D01*
X118779236Y-143901648D01*
X118801624Y-143910414D01*
X118818271Y-143911171D01*
X118829964Y-143901023D01*
X118837490Y-143877073D01*
X118841634Y-143836426D01*
X118843185Y-143776186D01*
X118842929Y-143693455D01*
X118841651Y-143585339D01*
X118841252Y-143553000D01*
X118839815Y-143441524D01*
X118838528Y-143368603D01*
X118699029Y-143368603D01*
X118698245Y-143430499D01*
X118694760Y-143470997D01*
X118686876Y-143497708D01*
X118672895Y-143518244D01*
X118663403Y-143528260D01*
X118624596Y-143557567D01*
X118590237Y-143559952D01*
X118554784Y-143535750D01*
X118553886Y-143534857D01*
X118539461Y-143516153D01*
X118530687Y-143490732D01*
X118526261Y-143451584D01*
X118524882Y-143391697D01*
X118524857Y-143378430D01*
X118528188Y-143295901D01*
X118539031Y-143238691D01*
X118558660Y-143203766D01*
X118588350Y-143188094D01*
X118605509Y-143186514D01*
X118646234Y-143193926D01*
X118674168Y-143218330D01*
X118690983Y-143262980D01*
X118698350Y-143331130D01*
X118699029Y-143368603D01*
X118838528Y-143368603D01*
X118838292Y-143355245D01*
X118836323Y-143290333D01*
X118833550Y-143242958D01*
X118829612Y-143209290D01*
X118824151Y-143185498D01*
X118816808Y-143167753D01*
X118807223Y-143152224D01*
X118803113Y-143146381D01*
X118748595Y-143091185D01*
X118679664Y-143059890D01*
X118599928Y-143051165D01*
X118530256Y-143059918D01*
X118530256Y-143059918D01*
G37*
X118530256Y-143059918D02*
X118474799Y-143087568D01*
X118425852Y-143138480D01*
X118412371Y-143157338D01*
X118397686Y-143182015D01*
X118388158Y-143208816D01*
X118382707Y-143244587D01*
X118380253Y-143296169D01*
X118379714Y-143364267D01*
X118382148Y-143457588D01*
X118390606Y-143527657D01*
X118406826Y-143579931D01*
X118432546Y-143619869D01*
X118469503Y-143652929D01*
X118472218Y-143654886D01*
X118508640Y-143674908D01*
X118552498Y-143684815D01*
X118608276Y-143687257D01*
X118698952Y-143687257D01*
X118698990Y-143775283D01*
X118699834Y-143824308D01*
X118704976Y-143853065D01*
X118718413Y-143870311D01*
X118744142Y-143884808D01*
X118750321Y-143887769D01*
X118779236Y-143901648D01*
X118801624Y-143910414D01*
X118818271Y-143911171D01*
X118829964Y-143901023D01*
X118837490Y-143877073D01*
X118841634Y-143836426D01*
X118843185Y-143776186D01*
X118842929Y-143693455D01*
X118841651Y-143585339D01*
X118841252Y-143553000D01*
X118839815Y-143441524D01*
X118838528Y-143368603D01*
X118699029Y-143368603D01*
X118698245Y-143430499D01*
X118694760Y-143470997D01*
X118686876Y-143497708D01*
X118672895Y-143518244D01*
X118663403Y-143528260D01*
X118624596Y-143557567D01*
X118590237Y-143559952D01*
X118554784Y-143535750D01*
X118553886Y-143534857D01*
X118539461Y-143516153D01*
X118530687Y-143490732D01*
X118526261Y-143451584D01*
X118524882Y-143391697D01*
X118524857Y-143378430D01*
X118528188Y-143295901D01*
X118539031Y-143238691D01*
X118558660Y-143203766D01*
X118588350Y-143188094D01*
X118605509Y-143186514D01*
X118646234Y-143193926D01*
X118674168Y-143218330D01*
X118690983Y-143262980D01*
X118698350Y-143331130D01*
X118699029Y-143368603D01*
X118838528Y-143368603D01*
X118838292Y-143355245D01*
X118836323Y-143290333D01*
X118833550Y-143242958D01*
X118829612Y-143209290D01*
X118824151Y-143185498D01*
X118816808Y-143167753D01*
X118807223Y-143152224D01*
X118803113Y-143146381D01*
X118748595Y-143091185D01*
X118679664Y-143059890D01*
X118599928Y-143051165D01*
X118530256Y-143059918D01*
G36*
X117413907Y-143067780D02*
X117367328Y-143094723D01*
X117334943Y-143121466D01*
X117311258Y-143149484D01*
X117294941Y-143183748D01*
X117284661Y-143229227D01*
X117279086Y-143290892D01*
X117276884Y-143373711D01*
X117276629Y-143433246D01*
X117276629Y-143652391D01*
X117338314Y-143680044D01*
X117400000Y-143707697D01*
X117407257Y-143467670D01*
X117410256Y-143378028D01*
X117413402Y-143312962D01*
X117417299Y-143268026D01*
X117422553Y-143238770D01*
X117429769Y-143220748D01*
X117439550Y-143209511D01*
X117442688Y-143207079D01*
X117490239Y-143188083D01*
X117538303Y-143195600D01*
X117566914Y-143215543D01*
X117578553Y-143229675D01*
X117586609Y-143248220D01*
X117591729Y-143276334D01*
X117594559Y-143319173D01*
X117595744Y-143381895D01*
X117595943Y-143447261D01*
X117595982Y-143529268D01*
X117597386Y-143587316D01*
X117602086Y-143626465D01*
X117612013Y-143651780D01*
X117629097Y-143668323D01*
X117655268Y-143681156D01*
X117690225Y-143694491D01*
X117728404Y-143709007D01*
X117723859Y-143451389D01*
X117722029Y-143358519D01*
X117719888Y-143289889D01*
X117716819Y-143240711D01*
X117712206Y-143206198D01*
X117705432Y-143181562D01*
X117695881Y-143162016D01*
X117684366Y-143144770D01*
X117628810Y-143089680D01*
X117561020Y-143057822D01*
X117487287Y-143050191D01*
X117413907Y-143067780D01*
X117413907Y-143067780D01*
G37*
X117413907Y-143067780D02*
X117367328Y-143094723D01*
X117334943Y-143121466D01*
X117311258Y-143149484D01*
X117294941Y-143183748D01*
X117284661Y-143229227D01*
X117279086Y-143290892D01*
X117276884Y-143373711D01*
X117276629Y-143433246D01*
X117276629Y-143652391D01*
X117338314Y-143680044D01*
X117400000Y-143707697D01*
X117407257Y-143467670D01*
X117410256Y-143378028D01*
X117413402Y-143312962D01*
X117417299Y-143268026D01*
X117422553Y-143238770D01*
X117429769Y-143220748D01*
X117439550Y-143209511D01*
X117442688Y-143207079D01*
X117490239Y-143188083D01*
X117538303Y-143195600D01*
X117566914Y-143215543D01*
X117578553Y-143229675D01*
X117586609Y-143248220D01*
X117591729Y-143276334D01*
X117594559Y-143319173D01*
X117595744Y-143381895D01*
X117595943Y-143447261D01*
X117595982Y-143529268D01*
X117597386Y-143587316D01*
X117602086Y-143626465D01*
X117612013Y-143651780D01*
X117629097Y-143668323D01*
X117655268Y-143681156D01*
X117690225Y-143694491D01*
X117728404Y-143709007D01*
X117723859Y-143451389D01*
X117722029Y-143358519D01*
X117719888Y-143289889D01*
X117716819Y-143240711D01*
X117712206Y-143206198D01*
X117705432Y-143181562D01*
X117695881Y-143162016D01*
X117684366Y-143144770D01*
X117628810Y-143089680D01*
X117561020Y-143057822D01*
X117487287Y-143050191D01*
X117413907Y-143067780D01*
G36*
X119088885Y-143061962D02*
X119020855Y-143097733D01*
X118970649Y-143155301D01*
X118952815Y-143192312D01*
X118938937Y-143247882D01*
X118931833Y-143318096D01*
X118931160Y-143394727D01*
X118936573Y-143469552D01*
X118947730Y-143534342D01*
X118964286Y-143580873D01*
X118969374Y-143588887D01*
X119029645Y-143648707D01*
X119101231Y-143684535D01*
X119178908Y-143695020D01*
X119257452Y-143678810D01*
X119279311Y-143669092D01*
X119321878Y-143639143D01*
X119359237Y-143599433D01*
X119362768Y-143594397D01*
X119377119Y-143570124D01*
X119386606Y-143544178D01*
X119392210Y-143510022D01*
X119394914Y-143461119D01*
X119395701Y-143390935D01*
X119395714Y-143375200D01*
X119395678Y-143370192D01*
X119250571Y-143370192D01*
X119249727Y-143436430D01*
X119246404Y-143480386D01*
X119239417Y-143508779D01*
X119227584Y-143528325D01*
X119221543Y-143534857D01*
X119186814Y-143559680D01*
X119153097Y-143558548D01*
X119119005Y-143537016D01*
X119098671Y-143514029D01*
X119086629Y-143480478D01*
X119079866Y-143427569D01*
X119079402Y-143421399D01*
X119078248Y-143325513D01*
X119090312Y-143254299D01*
X119115430Y-143208194D01*
X119153440Y-143187635D01*
X119167008Y-143186514D01*
X119202636Y-143192152D01*
X119227006Y-143211686D01*
X119241907Y-143249042D01*
X119249125Y-143308150D01*
X119250571Y-143370192D01*
X119395678Y-143370192D01*
X119395174Y-143300413D01*
X119392904Y-143248159D01*
X119387932Y-143211949D01*
X119379287Y-143185299D01*
X119365995Y-143161722D01*
X119363057Y-143157338D01*
X119313687Y-143098249D01*
X119259891Y-143063947D01*
X119194398Y-143050331D01*
X119172158Y-143049665D01*
X119088885Y-143061962D01*
X119088885Y-143061962D01*
G37*
X119088885Y-143061962D02*
X119020855Y-143097733D01*
X118970649Y-143155301D01*
X118952815Y-143192312D01*
X118938937Y-143247882D01*
X118931833Y-143318096D01*
X118931160Y-143394727D01*
X118936573Y-143469552D01*
X118947730Y-143534342D01*
X118964286Y-143580873D01*
X118969374Y-143588887D01*
X119029645Y-143648707D01*
X119101231Y-143684535D01*
X119178908Y-143695020D01*
X119257452Y-143678810D01*
X119279311Y-143669092D01*
X119321878Y-143639143D01*
X119359237Y-143599433D01*
X119362768Y-143594397D01*
X119377119Y-143570124D01*
X119386606Y-143544178D01*
X119392210Y-143510022D01*
X119394914Y-143461119D01*
X119395701Y-143390935D01*
X119395714Y-143375200D01*
X119395678Y-143370192D01*
X119250571Y-143370192D01*
X119249727Y-143436430D01*
X119246404Y-143480386D01*
X119239417Y-143508779D01*
X119227584Y-143528325D01*
X119221543Y-143534857D01*
X119186814Y-143559680D01*
X119153097Y-143558548D01*
X119119005Y-143537016D01*
X119098671Y-143514029D01*
X119086629Y-143480478D01*
X119079866Y-143427569D01*
X119079402Y-143421399D01*
X119078248Y-143325513D01*
X119090312Y-143254299D01*
X119115430Y-143208194D01*
X119153440Y-143187635D01*
X119167008Y-143186514D01*
X119202636Y-143192152D01*
X119227006Y-143211686D01*
X119241907Y-143249042D01*
X119249125Y-143308150D01*
X119250571Y-143370192D01*
X119395678Y-143370192D01*
X119395174Y-143300413D01*
X119392904Y-143248159D01*
X119387932Y-143211949D01*
X119379287Y-143185299D01*
X119365995Y-143161722D01*
X119363057Y-143157338D01*
X119313687Y-143098249D01*
X119259891Y-143063947D01*
X119194398Y-143050331D01*
X119172158Y-143049665D01*
X119088885Y-143061962D01*
G36*
X117961697Y-143071239D02*
X117904473Y-143109735D01*
X117860251Y-143165335D01*
X117833833Y-143236086D01*
X117828490Y-143288162D01*
X117829097Y-143309893D01*
X117834178Y-143326531D01*
X117848145Y-143341437D01*
X117875411Y-143357973D01*
X117920388Y-143379498D01*
X117987489Y-143409374D01*
X117987829Y-143409524D01*
X118049593Y-143437813D01*
X118100241Y-143462933D01*
X118134596Y-143482179D01*
X118147482Y-143492848D01*
X118147486Y-143492934D01*
X118136128Y-143516166D01*
X118109569Y-143541774D01*
X118079077Y-143560221D01*
X118063630Y-143563886D01*
X118021485Y-143551212D01*
X117985192Y-143519471D01*
X117967483Y-143484572D01*
X117950448Y-143458845D01*
X117917078Y-143429546D01*
X117877851Y-143404235D01*
X117843244Y-143390471D01*
X117836007Y-143389714D01*
X117827861Y-143402160D01*
X117827370Y-143433972D01*
X117833357Y-143476866D01*
X117844643Y-143522558D01*
X117860050Y-143562761D01*
X117860829Y-143564322D01*
X117907196Y-143629062D01*
X117967289Y-143673097D01*
X118035535Y-143694711D01*
X118106362Y-143692185D01*
X118174196Y-143663804D01*
X118177212Y-143661808D01*
X118230573Y-143613448D01*
X118265660Y-143550352D01*
X118285078Y-143467387D01*
X118287684Y-143444078D01*
X118292299Y-143334055D01*
X118286767Y-143282748D01*
X118147486Y-143282748D01*
X118145676Y-143314753D01*
X118135778Y-143324093D01*
X118111102Y-143317105D01*
X118072205Y-143300587D01*
X118028725Y-143279881D01*
X118027644Y-143279333D01*
X117990791Y-143259949D01*
X117976000Y-143247013D01*
X117979647Y-143233451D01*
X117995005Y-143215632D01*
X118034077Y-143189845D01*
X118076154Y-143187950D01*
X118113897Y-143206717D01*
X118139966Y-143242915D01*
X118147486Y-143282748D01*
X118286767Y-143282748D01*
X118282806Y-143246027D01*
X118258450Y-143176212D01*
X118224544Y-143127302D01*
X118163347Y-143077878D01*
X118095937Y-143053359D01*
X118027120Y-143051797D01*
X117961697Y-143071239D01*
X117961697Y-143071239D01*
G37*
X117961697Y-143071239D02*
X117904473Y-143109735D01*
X117860251Y-143165335D01*
X117833833Y-143236086D01*
X117828490Y-143288162D01*
X117829097Y-143309893D01*
X117834178Y-143326531D01*
X117848145Y-143341437D01*
X117875411Y-143357973D01*
X117920388Y-143379498D01*
X117987489Y-143409374D01*
X117987829Y-143409524D01*
X118049593Y-143437813D01*
X118100241Y-143462933D01*
X118134596Y-143482179D01*
X118147482Y-143492848D01*
X118147486Y-143492934D01*
X118136128Y-143516166D01*
X118109569Y-143541774D01*
X118079077Y-143560221D01*
X118063630Y-143563886D01*
X118021485Y-143551212D01*
X117985192Y-143519471D01*
X117967483Y-143484572D01*
X117950448Y-143458845D01*
X117917078Y-143429546D01*
X117877851Y-143404235D01*
X117843244Y-143390471D01*
X117836007Y-143389714D01*
X117827861Y-143402160D01*
X117827370Y-143433972D01*
X117833357Y-143476866D01*
X117844643Y-143522558D01*
X117860050Y-143562761D01*
X117860829Y-143564322D01*
X117907196Y-143629062D01*
X117967289Y-143673097D01*
X118035535Y-143694711D01*
X118106362Y-143692185D01*
X118174196Y-143663804D01*
X118177212Y-143661808D01*
X118230573Y-143613448D01*
X118265660Y-143550352D01*
X118285078Y-143467387D01*
X118287684Y-143444078D01*
X118292299Y-143334055D01*
X118286767Y-143282748D01*
X118147486Y-143282748D01*
X118145676Y-143314753D01*
X118135778Y-143324093D01*
X118111102Y-143317105D01*
X118072205Y-143300587D01*
X118028725Y-143279881D01*
X118027644Y-143279333D01*
X117990791Y-143259949D01*
X117976000Y-143247013D01*
X117979647Y-143233451D01*
X117995005Y-143215632D01*
X118034077Y-143189845D01*
X118076154Y-143187950D01*
X118113897Y-143206717D01*
X118139966Y-143242915D01*
X118147486Y-143282748D01*
X118286767Y-143282748D01*
X118282806Y-143246027D01*
X118258450Y-143176212D01*
X118224544Y-143127302D01*
X118163347Y-143077878D01*
X118095937Y-143053359D01*
X118027120Y-143051797D01*
X117961697Y-143071239D01*
G36*
X116754114Y-142991289D02*
X116749861Y-143050613D01*
X116744975Y-143085572D01*
X116738205Y-143100820D01*
X116728298Y-143101015D01*
X116725086Y-143099195D01*
X116682356Y-143086015D01*
X116626773Y-143086785D01*
X116570263Y-143100333D01*
X116534918Y-143117861D01*
X116498679Y-143145861D01*
X116472187Y-143177549D01*
X116454001Y-143217813D01*
X116442678Y-143271543D01*
X116436778Y-143343626D01*
X116434857Y-143438951D01*
X116434823Y-143457237D01*
X116434800Y-143662646D01*
X116480509Y-143678580D01*
X116512973Y-143689420D01*
X116530785Y-143694468D01*
X116531309Y-143694514D01*
X116533063Y-143680828D01*
X116534556Y-143643076D01*
X116535674Y-143586224D01*
X116536303Y-143515234D01*
X116536400Y-143472073D01*
X116536602Y-143386973D01*
X116537642Y-143325981D01*
X116540169Y-143284177D01*
X116544836Y-143256642D01*
X116552293Y-143238456D01*
X116563189Y-143224698D01*
X116569993Y-143218073D01*
X116616728Y-143191375D01*
X116667728Y-143189375D01*
X116713999Y-143211955D01*
X116722556Y-143220107D01*
X116735107Y-143235436D01*
X116743812Y-143253618D01*
X116749369Y-143279909D01*
X116752474Y-143319562D01*
X116753824Y-143377832D01*
X116754114Y-143458173D01*
X116754114Y-143662646D01*
X116799823Y-143678580D01*
X116832287Y-143689420D01*
X116850099Y-143694468D01*
X116850623Y-143694514D01*
X116851963Y-143680623D01*
X116853172Y-143641439D01*
X116854199Y-143580700D01*
X116854998Y-143502141D01*
X116855519Y-143409498D01*
X116855714Y-143306509D01*
X116855714Y-142909342D01*
X116808543Y-142889444D01*
X116761371Y-142869547D01*
X116754114Y-142991289D01*
X116754114Y-142991289D01*
G37*
X116754114Y-142991289D02*
X116749861Y-143050613D01*
X116744975Y-143085572D01*
X116738205Y-143100820D01*
X116728298Y-143101015D01*
X116725086Y-143099195D01*
X116682356Y-143086015D01*
X116626773Y-143086785D01*
X116570263Y-143100333D01*
X116534918Y-143117861D01*
X116498679Y-143145861D01*
X116472187Y-143177549D01*
X116454001Y-143217813D01*
X116442678Y-143271543D01*
X116436778Y-143343626D01*
X116434857Y-143438951D01*
X116434823Y-143457237D01*
X116434800Y-143662646D01*
X116480509Y-143678580D01*
X116512973Y-143689420D01*
X116530785Y-143694468D01*
X116531309Y-143694514D01*
X116533063Y-143680828D01*
X116534556Y-143643076D01*
X116535674Y-143586224D01*
X116536303Y-143515234D01*
X116536400Y-143472073D01*
X116536602Y-143386973D01*
X116537642Y-143325981D01*
X116540169Y-143284177D01*
X116544836Y-143256642D01*
X116552293Y-143238456D01*
X116563189Y-143224698D01*
X116569993Y-143218073D01*
X116616728Y-143191375D01*
X116667728Y-143189375D01*
X116713999Y-143211955D01*
X116722556Y-143220107D01*
X116735107Y-143235436D01*
X116743812Y-143253618D01*
X116749369Y-143279909D01*
X116752474Y-143319562D01*
X116753824Y-143377832D01*
X116754114Y-143458173D01*
X116754114Y-143662646D01*
X116799823Y-143678580D01*
X116832287Y-143689420D01*
X116850099Y-143694468D01*
X116850623Y-143694514D01*
X116851963Y-143680623D01*
X116853172Y-143641439D01*
X116854199Y-143580700D01*
X116854998Y-143502141D01*
X116855519Y-143409498D01*
X116855714Y-143306509D01*
X116855714Y-142909342D01*
X116808543Y-142889444D01*
X116761371Y-142869547D01*
X116754114Y-142991289D01*
G36*
X116090256Y-143090968D02*
X116033384Y-143112087D01*
X116032733Y-143112493D01*
X115997560Y-143138380D01*
X115971593Y-143168633D01*
X115953330Y-143208058D01*
X115941268Y-143261462D01*
X115933904Y-143333651D01*
X115929736Y-143429432D01*
X115929371Y-143443078D01*
X115924124Y-143648842D01*
X115968284Y-143671678D01*
X116000237Y-143687110D01*
X116019530Y-143694423D01*
X116020422Y-143694514D01*
X116023761Y-143681022D01*
X116026413Y-143644626D01*
X116028044Y-143591452D01*
X116028400Y-143548393D01*
X116028408Y-143478641D01*
X116031597Y-143434837D01*
X116042712Y-143413944D01*
X116066499Y-143412925D01*
X116107704Y-143428741D01*
X116169914Y-143457815D01*
X116215659Y-143481963D01*
X116239187Y-143502913D01*
X116246104Y-143525747D01*
X116246114Y-143526877D01*
X116234701Y-143566212D01*
X116200908Y-143587462D01*
X116149191Y-143590539D01*
X116111939Y-143590006D01*
X116092297Y-143600735D01*
X116080048Y-143626505D01*
X116072998Y-143659337D01*
X116083158Y-143677966D01*
X116086983Y-143680632D01*
X116122999Y-143691340D01*
X116173434Y-143692856D01*
X116225374Y-143685759D01*
X116262178Y-143672788D01*
X116313062Y-143629585D01*
X116341986Y-143569446D01*
X116347714Y-143522462D01*
X116343343Y-143480082D01*
X116327525Y-143445488D01*
X116296203Y-143414763D01*
X116245322Y-143383990D01*
X116170824Y-143349252D01*
X116166286Y-143347288D01*
X116099179Y-143316287D01*
X116057768Y-143290862D01*
X116040019Y-143268014D01*
X116043893Y-143244745D01*
X116067357Y-143218056D01*
X116074373Y-143211914D01*
X116121370Y-143188100D01*
X116170067Y-143189103D01*
X116212478Y-143212451D01*
X116240616Y-143255675D01*
X116243231Y-143264160D01*
X116268692Y-143305308D01*
X116300999Y-143325128D01*
X116347714Y-143344770D01*
X116347714Y-143293950D01*
X116333504Y-143220082D01*
X116291325Y-143152327D01*
X116269376Y-143129661D01*
X116219483Y-143100569D01*
X116156033Y-143087400D01*
X116090256Y-143090968D01*
X116090256Y-143090968D01*
G37*
X116090256Y-143090968D02*
X116033384Y-143112087D01*
X116032733Y-143112493D01*
X115997560Y-143138380D01*
X115971593Y-143168633D01*
X115953330Y-143208058D01*
X115941268Y-143261462D01*
X115933904Y-143333651D01*
X115929736Y-143429432D01*
X115929371Y-143443078D01*
X115924124Y-143648842D01*
X115968284Y-143671678D01*
X116000237Y-143687110D01*
X116019530Y-143694423D01*
X116020422Y-143694514D01*
X116023761Y-143681022D01*
X116026413Y-143644626D01*
X116028044Y-143591452D01*
X116028400Y-143548393D01*
X116028408Y-143478641D01*
X116031597Y-143434837D01*
X116042712Y-143413944D01*
X116066499Y-143412925D01*
X116107704Y-143428741D01*
X116169914Y-143457815D01*
X116215659Y-143481963D01*
X116239187Y-143502913D01*
X116246104Y-143525747D01*
X116246114Y-143526877D01*
X116234701Y-143566212D01*
X116200908Y-143587462D01*
X116149191Y-143590539D01*
X116111939Y-143590006D01*
X116092297Y-143600735D01*
X116080048Y-143626505D01*
X116072998Y-143659337D01*
X116083158Y-143677966D01*
X116086983Y-143680632D01*
X116122999Y-143691340D01*
X116173434Y-143692856D01*
X116225374Y-143685759D01*
X116262178Y-143672788D01*
X116313062Y-143629585D01*
X116341986Y-143569446D01*
X116347714Y-143522462D01*
X116343343Y-143480082D01*
X116327525Y-143445488D01*
X116296203Y-143414763D01*
X116245322Y-143383990D01*
X116170824Y-143349252D01*
X116166286Y-143347288D01*
X116099179Y-143316287D01*
X116057768Y-143290862D01*
X116040019Y-143268014D01*
X116043893Y-143244745D01*
X116067357Y-143218056D01*
X116074373Y-143211914D01*
X116121370Y-143188100D01*
X116170067Y-143189103D01*
X116212478Y-143212451D01*
X116240616Y-143255675D01*
X116243231Y-143264160D01*
X116268692Y-143305308D01*
X116300999Y-143325128D01*
X116347714Y-143344770D01*
X116347714Y-143293950D01*
X116333504Y-143220082D01*
X116291325Y-143152327D01*
X116269376Y-143129661D01*
X116219483Y-143100569D01*
X116156033Y-143087400D01*
X116090256Y-143090968D01*
G36*
X115600074Y-143089755D02*
X115534142Y-143114084D01*
X115480727Y-143157117D01*
X115459836Y-143187409D01*
X115437061Y-143242994D01*
X115437534Y-143283186D01*
X115461438Y-143310217D01*
X115470283Y-143314813D01*
X115508470Y-143329144D01*
X115527972Y-143325472D01*
X115534578Y-143301407D01*
X115534914Y-143288114D01*
X115547008Y-143239210D01*
X115578529Y-143204999D01*
X115622341Y-143188476D01*
X115671305Y-143192634D01*
X115711106Y-143214227D01*
X115724550Y-143226544D01*
X115734079Y-143241487D01*
X115740515Y-143264075D01*
X115744683Y-143299328D01*
X115747403Y-143352266D01*
X115749498Y-143427907D01*
X115750040Y-143451857D01*
X115752019Y-143533790D01*
X115754269Y-143591455D01*
X115757643Y-143629608D01*
X115762994Y-143653004D01*
X115771176Y-143666398D01*
X115783041Y-143674545D01*
X115790638Y-143678144D01*
X115822898Y-143690452D01*
X115841889Y-143694514D01*
X115848164Y-143680948D01*
X115851994Y-143639934D01*
X115853400Y-143570999D01*
X115852402Y-143473669D01*
X115852092Y-143458657D01*
X115849899Y-143369859D01*
X115847307Y-143305019D01*
X115843618Y-143259067D01*
X115838136Y-143226935D01*
X115830165Y-143203553D01*
X115819007Y-143183852D01*
X115813170Y-143175410D01*
X115779704Y-143138057D01*
X115742273Y-143109003D01*
X115737691Y-143106467D01*
X115670574Y-143086443D01*
X115600074Y-143089755D01*
X115600074Y-143089755D01*
G37*
X115600074Y-143089755D02*
X115534142Y-143114084D01*
X115480727Y-143157117D01*
X115459836Y-143187409D01*
X115437061Y-143242994D01*
X115437534Y-143283186D01*
X115461438Y-143310217D01*
X115470283Y-143314813D01*
X115508470Y-143329144D01*
X115527972Y-143325472D01*
X115534578Y-143301407D01*
X115534914Y-143288114D01*
X115547008Y-143239210D01*
X115578529Y-143204999D01*
X115622341Y-143188476D01*
X115671305Y-143192634D01*
X115711106Y-143214227D01*
X115724550Y-143226544D01*
X115734079Y-143241487D01*
X115740515Y-143264075D01*
X115744683Y-143299328D01*
X115747403Y-143352266D01*
X115749498Y-143427907D01*
X115750040Y-143451857D01*
X115752019Y-143533790D01*
X115754269Y-143591455D01*
X115757643Y-143629608D01*
X115762994Y-143653004D01*
X115771176Y-143666398D01*
X115783041Y-143674545D01*
X115790638Y-143678144D01*
X115822898Y-143690452D01*
X115841889Y-143694514D01*
X115848164Y-143680948D01*
X115851994Y-143639934D01*
X115853400Y-143570999D01*
X115852402Y-143473669D01*
X115852092Y-143458657D01*
X115849899Y-143369859D01*
X115847307Y-143305019D01*
X115843618Y-143259067D01*
X115838136Y-143226935D01*
X115830165Y-143203553D01*
X115819007Y-143183852D01*
X115813170Y-143175410D01*
X115779704Y-143138057D01*
X115742273Y-143109003D01*
X115737691Y-143106467D01*
X115670574Y-143086443D01*
X115600074Y-143089755D01*
G36*
X114939883Y-143205358D02*
X114940067Y-143313837D01*
X114940781Y-143397287D01*
X114942325Y-143459704D01*
X114944999Y-143505085D01*
X114949106Y-143537429D01*
X114954945Y-143560733D01*
X114962818Y-143578995D01*
X114968779Y-143589418D01*
X115018145Y-143645945D01*
X115080736Y-143681377D01*
X115149987Y-143694090D01*
X115219332Y-143682463D01*
X115260625Y-143661568D01*
X115303975Y-143625422D01*
X115333519Y-143581276D01*
X115351345Y-143523462D01*
X115359537Y-143446313D01*
X115360698Y-143389714D01*
X115360542Y-143385647D01*
X115259143Y-143385647D01*
X115258524Y-143450550D01*
X115255686Y-143493514D01*
X115249160Y-143521622D01*
X115237477Y-143541953D01*
X115223517Y-143557288D01*
X115176635Y-143586890D01*
X115126299Y-143589419D01*
X115078724Y-143564705D01*
X115075021Y-143561356D01*
X115059217Y-143543935D01*
X115049307Y-143523209D01*
X115043942Y-143492362D01*
X115041772Y-143444577D01*
X115041429Y-143391748D01*
X115042173Y-143325381D01*
X115045252Y-143281106D01*
X115051939Y-143252009D01*
X115063504Y-143231173D01*
X115072987Y-143220107D01*
X115117040Y-143192198D01*
X115167776Y-143188843D01*
X115216204Y-143210159D01*
X115225550Y-143218073D01*
X115241460Y-143235647D01*
X115251390Y-143256587D01*
X115256722Y-143287782D01*
X115258837Y-143336122D01*
X115259143Y-143385647D01*
X115360542Y-143385647D01*
X115357190Y-143298568D01*
X115345274Y-143230086D01*
X115322865Y-143178600D01*
X115287876Y-143138443D01*
X115260625Y-143117861D01*
X115211093Y-143095625D01*
X115153684Y-143085304D01*
X115100318Y-143088067D01*
X115070457Y-143099212D01*
X115058739Y-143102383D01*
X115050963Y-143090557D01*
X115045535Y-143058866D01*
X115041429Y-143010593D01*
X115036933Y-142956829D01*
X115030687Y-142924482D01*
X115019324Y-142905985D01*
X114999472Y-142893770D01*
X114987000Y-142888362D01*
X114939829Y-142868601D01*
X114939883Y-143205358D01*
X114939883Y-143205358D01*
G37*
X114939883Y-143205358D02*
X114940067Y-143313837D01*
X114940781Y-143397287D01*
X114942325Y-143459704D01*
X114944999Y-143505085D01*
X114949106Y-143537429D01*
X114954945Y-143560733D01*
X114962818Y-143578995D01*
X114968779Y-143589418D01*
X115018145Y-143645945D01*
X115080736Y-143681377D01*
X115149987Y-143694090D01*
X115219332Y-143682463D01*
X115260625Y-143661568D01*
X115303975Y-143625422D01*
X115333519Y-143581276D01*
X115351345Y-143523462D01*
X115359537Y-143446313D01*
X115360698Y-143389714D01*
X115360542Y-143385647D01*
X115259143Y-143385647D01*
X115258524Y-143450550D01*
X115255686Y-143493514D01*
X115249160Y-143521622D01*
X115237477Y-143541953D01*
X115223517Y-143557288D01*
X115176635Y-143586890D01*
X115126299Y-143589419D01*
X115078724Y-143564705D01*
X115075021Y-143561356D01*
X115059217Y-143543935D01*
X115049307Y-143523209D01*
X115043942Y-143492362D01*
X115041772Y-143444577D01*
X115041429Y-143391748D01*
X115042173Y-143325381D01*
X115045252Y-143281106D01*
X115051939Y-143252009D01*
X115063504Y-143231173D01*
X115072987Y-143220107D01*
X115117040Y-143192198D01*
X115167776Y-143188843D01*
X115216204Y-143210159D01*
X115225550Y-143218073D01*
X115241460Y-143235647D01*
X115251390Y-143256587D01*
X115256722Y-143287782D01*
X115258837Y-143336122D01*
X115259143Y-143385647D01*
X115360542Y-143385647D01*
X115357190Y-143298568D01*
X115345274Y-143230086D01*
X115322865Y-143178600D01*
X115287876Y-143138443D01*
X115260625Y-143117861D01*
X115211093Y-143095625D01*
X115153684Y-143085304D01*
X115100318Y-143088067D01*
X115070457Y-143099212D01*
X115058739Y-143102383D01*
X115050963Y-143090557D01*
X115045535Y-143058866D01*
X115041429Y-143010593D01*
X115036933Y-142956829D01*
X115030687Y-142924482D01*
X115019324Y-142905985D01*
X114999472Y-142893770D01*
X114987000Y-142888362D01*
X114939829Y-142868601D01*
X114939883Y-143205358D01*
G36*
X114350167Y-143098663D02*
X114347952Y-143136850D01*
X114346216Y-143194886D01*
X114345101Y-143268180D01*
X114344743Y-143345055D01*
X114344743Y-143605196D01*
X114390674Y-143651127D01*
X114422325Y-143679429D01*
X114450110Y-143690893D01*
X114488085Y-143690168D01*
X114503160Y-143688321D01*
X114550274Y-143682948D01*
X114589244Y-143679869D01*
X114598743Y-143679585D01*
X114630767Y-143681445D01*
X114676568Y-143686114D01*
X114694326Y-143688321D01*
X114737943Y-143691735D01*
X114767255Y-143684320D01*
X114796320Y-143661427D01*
X114806812Y-143651127D01*
X114852743Y-143605196D01*
X114852743Y-143118602D01*
X114815774Y-143101758D01*
X114783941Y-143089282D01*
X114765317Y-143084914D01*
X114760542Y-143098718D01*
X114756079Y-143137286D01*
X114752225Y-143196356D01*
X114749278Y-143271663D01*
X114747857Y-143335286D01*
X114743886Y-143585657D01*
X114709241Y-143590556D01*
X114677732Y-143587131D01*
X114662292Y-143576041D01*
X114657977Y-143555308D01*
X114654292Y-143511145D01*
X114651531Y-143449146D01*
X114649988Y-143374909D01*
X114649765Y-143336706D01*
X114649543Y-143116783D01*
X114603834Y-143100849D01*
X114571482Y-143090015D01*
X114553885Y-143084962D01*
X114553377Y-143084914D01*
X114551612Y-143098648D01*
X114549671Y-143136730D01*
X114547718Y-143194482D01*
X114545916Y-143267227D01*
X114544657Y-143335286D01*
X114540686Y-143585657D01*
X114453600Y-143585657D01*
X114449604Y-143357240D01*
X114445608Y-143128822D01*
X114403153Y-143106868D01*
X114371808Y-143091793D01*
X114353256Y-143084951D01*
X114352721Y-143084914D01*
X114350167Y-143098663D01*
X114350167Y-143098663D01*
G37*
X114350167Y-143098663D02*
X114347952Y-143136850D01*
X114346216Y-143194886D01*
X114345101Y-143268180D01*
X114344743Y-143345055D01*
X114344743Y-143605196D01*
X114390674Y-143651127D01*
X114422325Y-143679429D01*
X114450110Y-143690893D01*
X114488085Y-143690168D01*
X114503160Y-143688321D01*
X114550274Y-143682948D01*
X114589244Y-143679869D01*
X114598743Y-143679585D01*
X114630767Y-143681445D01*
X114676568Y-143686114D01*
X114694326Y-143688321D01*
X114737943Y-143691735D01*
X114767255Y-143684320D01*
X114796320Y-143661427D01*
X114806812Y-143651127D01*
X114852743Y-143605196D01*
X114852743Y-143118602D01*
X114815774Y-143101758D01*
X114783941Y-143089282D01*
X114765317Y-143084914D01*
X114760542Y-143098718D01*
X114756079Y-143137286D01*
X114752225Y-143196356D01*
X114749278Y-143271663D01*
X114747857Y-143335286D01*
X114743886Y-143585657D01*
X114709241Y-143590556D01*
X114677732Y-143587131D01*
X114662292Y-143576041D01*
X114657977Y-143555308D01*
X114654292Y-143511145D01*
X114651531Y-143449146D01*
X114649988Y-143374909D01*
X114649765Y-143336706D01*
X114649543Y-143116783D01*
X114603834Y-143100849D01*
X114571482Y-143090015D01*
X114553885Y-143084962D01*
X114553377Y-143084914D01*
X114551612Y-143098648D01*
X114549671Y-143136730D01*
X114547718Y-143194482D01*
X114545916Y-143267227D01*
X114544657Y-143335286D01*
X114540686Y-143585657D01*
X114453600Y-143585657D01*
X114449604Y-143357240D01*
X114445608Y-143128822D01*
X114403153Y-143106868D01*
X114371808Y-143091793D01*
X114353256Y-143084951D01*
X114352721Y-143084914D01*
X114350167Y-143098663D01*
G36*
X113985124Y-143096335D02*
X113943333Y-143115344D01*
X113910531Y-143138378D01*
X113886497Y-143164133D01*
X113869903Y-143197358D01*
X113859423Y-143242800D01*
X113853729Y-143305207D01*
X113851493Y-143389327D01*
X113851257Y-143444721D01*
X113851257Y-143660826D01*
X113888226Y-143677670D01*
X113917344Y-143689981D01*
X113931769Y-143694514D01*
X113934528Y-143681025D01*
X113936718Y-143644653D01*
X113938058Y-143591542D01*
X113938343Y-143549372D01*
X113939566Y-143488447D01*
X113942864Y-143440115D01*
X113947679Y-143410518D01*
X113951504Y-143404229D01*
X113977217Y-143410652D01*
X114017582Y-143427125D01*
X114064321Y-143449458D01*
X114109155Y-143473457D01*
X114143807Y-143494930D01*
X114159998Y-143509685D01*
X114160062Y-143509845D01*
X114158670Y-143537152D01*
X114146182Y-143563219D01*
X114124257Y-143584392D01*
X114092257Y-143591474D01*
X114064908Y-143590649D01*
X114026174Y-143590042D01*
X114005842Y-143599116D01*
X113993631Y-143623092D01*
X113992091Y-143627613D01*
X113986797Y-143661806D01*
X114000953Y-143682568D01*
X114037852Y-143692462D01*
X114077711Y-143694292D01*
X114149438Y-143680727D01*
X114186568Y-143661355D01*
X114232424Y-143615845D01*
X114256744Y-143559983D01*
X114258927Y-143500957D01*
X114238371Y-143445953D01*
X114207451Y-143411486D01*
X114176580Y-143392189D01*
X114128058Y-143367759D01*
X114071515Y-143342985D01*
X114062090Y-143339199D01*
X113999981Y-143311791D01*
X113964178Y-143287634D01*
X113952663Y-143263619D01*
X113963420Y-143236635D01*
X113981886Y-143215543D01*
X114025531Y-143189572D01*
X114073554Y-143187624D01*
X114117594Y-143207637D01*
X114149291Y-143247551D01*
X114153451Y-143257848D01*
X114177673Y-143295724D01*
X114213035Y-143323842D01*
X114257657Y-143346917D01*
X114257657Y-143281485D01*
X114255031Y-143241506D01*
X114243770Y-143209997D01*
X114218801Y-143176378D01*
X114194831Y-143150484D01*
X114157559Y-143113817D01*
X114128599Y-143094121D01*
X114097495Y-143086220D01*
X114062287Y-143084914D01*
X113985124Y-143096335D01*
X113985124Y-143096335D01*
G37*
X113985124Y-143096335D02*
X113943333Y-143115344D01*
X113910531Y-143138378D01*
X113886497Y-143164133D01*
X113869903Y-143197358D01*
X113859423Y-143242800D01*
X113853729Y-143305207D01*
X113851493Y-143389327D01*
X113851257Y-143444721D01*
X113851257Y-143660826D01*
X113888226Y-143677670D01*
X113917344Y-143689981D01*
X113931769Y-143694514D01*
X113934528Y-143681025D01*
X113936718Y-143644653D01*
X113938058Y-143591542D01*
X113938343Y-143549372D01*
X113939566Y-143488447D01*
X113942864Y-143440115D01*
X113947679Y-143410518D01*
X113951504Y-143404229D01*
X113977217Y-143410652D01*
X114017582Y-143427125D01*
X114064321Y-143449458D01*
X114109155Y-143473457D01*
X114143807Y-143494930D01*
X114159998Y-143509685D01*
X114160062Y-143509845D01*
X114158670Y-143537152D01*
X114146182Y-143563219D01*
X114124257Y-143584392D01*
X114092257Y-143591474D01*
X114064908Y-143590649D01*
X114026174Y-143590042D01*
X114005842Y-143599116D01*
X113993631Y-143623092D01*
X113992091Y-143627613D01*
X113986797Y-143661806D01*
X114000953Y-143682568D01*
X114037852Y-143692462D01*
X114077711Y-143694292D01*
X114149438Y-143680727D01*
X114186568Y-143661355D01*
X114232424Y-143615845D01*
X114256744Y-143559983D01*
X114258927Y-143500957D01*
X114238371Y-143445953D01*
X114207451Y-143411486D01*
X114176580Y-143392189D01*
X114128058Y-143367759D01*
X114071515Y-143342985D01*
X114062090Y-143339199D01*
X113999981Y-143311791D01*
X113964178Y-143287634D01*
X113952663Y-143263619D01*
X113963420Y-143236635D01*
X113981886Y-143215543D01*
X114025531Y-143189572D01*
X114073554Y-143187624D01*
X114117594Y-143207637D01*
X114149291Y-143247551D01*
X114153451Y-143257848D01*
X114177673Y-143295724D01*
X114213035Y-143323842D01*
X114257657Y-143346917D01*
X114257657Y-143281485D01*
X114255031Y-143241506D01*
X114243770Y-143209997D01*
X114218801Y-143176378D01*
X114194831Y-143150484D01*
X114157559Y-143113817D01*
X114128599Y-143094121D01*
X114097495Y-143086220D01*
X114062287Y-143084914D01*
X113985124Y-143096335D01*
G36*
X113477400Y-143098752D02*
X113460052Y-143106334D01*
X113418644Y-143139128D01*
X113383235Y-143186547D01*
X113361336Y-143237151D01*
X113357771Y-143262098D01*
X113369721Y-143296927D01*
X113395933Y-143315357D01*
X113424036Y-143326516D01*
X113436905Y-143328572D01*
X113443171Y-143313649D01*
X113455544Y-143281175D01*
X113460972Y-143266502D01*
X113491410Y-143215744D01*
X113535480Y-143190427D01*
X113591990Y-143191206D01*
X113596175Y-143192203D01*
X113626345Y-143206507D01*
X113648524Y-143234393D01*
X113663673Y-143279287D01*
X113672750Y-143344615D01*
X113676714Y-143433804D01*
X113677086Y-143481261D01*
X113677270Y-143556071D01*
X113678478Y-143607069D01*
X113681691Y-143639471D01*
X113687891Y-143658495D01*
X113698060Y-143669356D01*
X113713181Y-143677272D01*
X113714054Y-143677670D01*
X113743172Y-143689981D01*
X113757597Y-143694514D01*
X113759814Y-143680809D01*
X113761711Y-143642925D01*
X113763153Y-143585715D01*
X113764002Y-143514027D01*
X113764171Y-143461565D01*
X113763308Y-143360047D01*
X113759930Y-143283032D01*
X113752858Y-143226023D01*
X113740912Y-143184526D01*
X113722910Y-143154043D01*
X113697673Y-143130080D01*
X113672753Y-143113355D01*
X113612829Y-143091097D01*
X113543089Y-143086076D01*
X113477400Y-143098752D01*
X113477400Y-143098752D01*
G37*
X113477400Y-143098752D02*
X113460052Y-143106334D01*
X113418644Y-143139128D01*
X113383235Y-143186547D01*
X113361336Y-143237151D01*
X113357771Y-143262098D01*
X113369721Y-143296927D01*
X113395933Y-143315357D01*
X113424036Y-143326516D01*
X113436905Y-143328572D01*
X113443171Y-143313649D01*
X113455544Y-143281175D01*
X113460972Y-143266502D01*
X113491410Y-143215744D01*
X113535480Y-143190427D01*
X113591990Y-143191206D01*
X113596175Y-143192203D01*
X113626345Y-143206507D01*
X113648524Y-143234393D01*
X113663673Y-143279287D01*
X113672750Y-143344615D01*
X113676714Y-143433804D01*
X113677086Y-143481261D01*
X113677270Y-143556071D01*
X113678478Y-143607069D01*
X113681691Y-143639471D01*
X113687891Y-143658495D01*
X113698060Y-143669356D01*
X113713181Y-143677272D01*
X113714054Y-143677670D01*
X113743172Y-143689981D01*
X113757597Y-143694514D01*
X113759814Y-143680809D01*
X113761711Y-143642925D01*
X113763153Y-143585715D01*
X113764002Y-143514027D01*
X113764171Y-143461565D01*
X113763308Y-143360047D01*
X113759930Y-143283032D01*
X113752858Y-143226023D01*
X113740912Y-143184526D01*
X113722910Y-143154043D01*
X113697673Y-143130080D01*
X113672753Y-143113355D01*
X113612829Y-143091097D01*
X113543089Y-143086076D01*
X113477400Y-143098752D01*
G36*
X112976405Y-143106966D02*
X112918979Y-143144497D01*
X112891281Y-143178096D01*
X112869338Y-143239064D01*
X112867595Y-143287308D01*
X112871543Y-143351816D01*
X113020314Y-143416934D01*
X113092651Y-143450202D01*
X113139916Y-143476964D01*
X113164493Y-143500144D01*
X113168763Y-143522667D01*
X113155111Y-143547455D01*
X113140057Y-143563886D01*
X113096254Y-143590235D01*
X113048611Y-143592081D01*
X113004855Y-143571546D01*
X112972711Y-143530752D01*
X112966962Y-143516347D01*
X112939424Y-143471356D01*
X112907742Y-143452182D01*
X112864286Y-143435779D01*
X112864286Y-143497966D01*
X112868128Y-143540283D01*
X112883177Y-143575969D01*
X112914720Y-143616943D01*
X112919408Y-143622267D01*
X112954494Y-143658720D01*
X112984653Y-143678283D01*
X113022385Y-143687283D01*
X113053665Y-143690230D01*
X113109615Y-143690965D01*
X113149445Y-143681660D01*
X113174292Y-143667846D01*
X113213344Y-143637467D01*
X113240375Y-143604613D01*
X113257483Y-143563294D01*
X113266762Y-143507521D01*
X113270307Y-143431305D01*
X113270590Y-143392622D01*
X113269628Y-143346247D01*
X113181993Y-143346247D01*
X113180977Y-143371126D01*
X113178444Y-143375200D01*
X113161726Y-143369665D01*
X113125751Y-143355017D01*
X113077669Y-143334190D01*
X113067614Y-143329714D01*
X113006848Y-143298814D01*
X112973368Y-143271657D01*
X112966010Y-143246220D01*
X112983609Y-143220481D01*
X112998144Y-143209109D01*
X113050590Y-143186364D01*
X113099678Y-143190122D01*
X113140773Y-143217884D01*
X113169242Y-143267152D01*
X113178369Y-143306257D01*
X113181993Y-143346247D01*
X113269628Y-143346247D01*
X113268715Y-143302249D01*
X113261804Y-143235384D01*
X113248116Y-143186695D01*
X113225904Y-143150849D01*
X113193426Y-143122513D01*
X113179267Y-143113355D01*
X113114947Y-143089507D01*
X113044527Y-143088006D01*
X112976405Y-143106966D01*
X112976405Y-143106966D01*
G37*
X112976405Y-143106966D02*
X112918979Y-143144497D01*
X112891281Y-143178096D01*
X112869338Y-143239064D01*
X112867595Y-143287308D01*
X112871543Y-143351816D01*
X113020314Y-143416934D01*
X113092651Y-143450202D01*
X113139916Y-143476964D01*
X113164493Y-143500144D01*
X113168763Y-143522667D01*
X113155111Y-143547455D01*
X113140057Y-143563886D01*
X113096254Y-143590235D01*
X113048611Y-143592081D01*
X113004855Y-143571546D01*
X112972711Y-143530752D01*
X112966962Y-143516347D01*
X112939424Y-143471356D01*
X112907742Y-143452182D01*
X112864286Y-143435779D01*
X112864286Y-143497966D01*
X112868128Y-143540283D01*
X112883177Y-143575969D01*
X112914720Y-143616943D01*
X112919408Y-143622267D01*
X112954494Y-143658720D01*
X112984653Y-143678283D01*
X113022385Y-143687283D01*
X113053665Y-143690230D01*
X113109615Y-143690965D01*
X113149445Y-143681660D01*
X113174292Y-143667846D01*
X113213344Y-143637467D01*
X113240375Y-143604613D01*
X113257483Y-143563294D01*
X113266762Y-143507521D01*
X113270307Y-143431305D01*
X113270590Y-143392622D01*
X113269628Y-143346247D01*
X113181993Y-143346247D01*
X113180977Y-143371126D01*
X113178444Y-143375200D01*
X113161726Y-143369665D01*
X113125751Y-143355017D01*
X113077669Y-143334190D01*
X113067614Y-143329714D01*
X113006848Y-143298814D01*
X112973368Y-143271657D01*
X112966010Y-143246220D01*
X112983609Y-143220481D01*
X112998144Y-143209109D01*
X113050590Y-143186364D01*
X113099678Y-143190122D01*
X113140773Y-143217884D01*
X113169242Y-143267152D01*
X113178369Y-143306257D01*
X113181993Y-143346247D01*
X113269628Y-143346247D01*
X113268715Y-143302249D01*
X113261804Y-143235384D01*
X113248116Y-143186695D01*
X113225904Y-143150849D01*
X113193426Y-143122513D01*
X113179267Y-143113355D01*
X113114947Y-143089507D01*
X113044527Y-143088006D01*
X112976405Y-143106966D01*
G36*
X116026090Y-138382348D02*
X115947546Y-138382778D01*
X115890702Y-138383942D01*
X115851895Y-138386207D01*
X115827462Y-138389940D01*
X115813738Y-138395506D01*
X115807060Y-138403273D01*
X115803764Y-138413605D01*
X115803444Y-138414943D01*
X115798438Y-138439079D01*
X115789171Y-138486701D01*
X115776608Y-138552741D01*
X115761713Y-138632128D01*
X115745449Y-138719796D01*
X115744881Y-138722875D01*
X115728590Y-138808789D01*
X115713348Y-138884696D01*
X115700139Y-138946045D01*
X115689946Y-138988282D01*
X115683752Y-139006855D01*
X115683457Y-139007184D01*
X115665212Y-139016253D01*
X115627595Y-139031367D01*
X115578729Y-139049262D01*
X115578457Y-139049358D01*
X115516907Y-139072493D01*
X115444343Y-139101965D01*
X115375943Y-139131597D01*
X115372706Y-139133062D01*
X115261298Y-139183626D01*
X115014601Y-139015160D01*
X114938923Y-138963803D01*
X114870369Y-138917889D01*
X114812912Y-138880030D01*
X114770524Y-138852837D01*
X114747175Y-138838921D01*
X114744958Y-138837889D01*
X114727990Y-138842484D01*
X114696299Y-138864655D01*
X114648648Y-138905447D01*
X114583802Y-138965905D01*
X114517603Y-139030227D01*
X114453786Y-139093612D01*
X114396671Y-139151451D01*
X114349695Y-139200175D01*
X114316297Y-139236210D01*
X114299915Y-139255984D01*
X114299306Y-139257002D01*
X114297495Y-139270572D01*
X114304317Y-139292733D01*
X114321460Y-139326478D01*
X114350607Y-139374800D01*
X114393445Y-139440692D01*
X114450552Y-139525517D01*
X114501234Y-139600177D01*
X114546539Y-139667140D01*
X114583850Y-139722516D01*
X114610548Y-139762420D01*
X114624015Y-139782962D01*
X114624863Y-139784356D01*
X114623219Y-139804038D01*
X114610755Y-139842293D01*
X114589952Y-139891889D01*
X114582538Y-139907728D01*
X114550186Y-139978290D01*
X114515672Y-140058353D01*
X114487635Y-140127629D01*
X114467432Y-140179045D01*
X114451385Y-140218119D01*
X114442112Y-140238541D01*
X114440959Y-140240114D01*
X114423904Y-140242721D01*
X114383702Y-140249863D01*
X114325698Y-140260523D01*
X114255237Y-140273685D01*
X114177665Y-140288333D01*
X114098328Y-140303449D01*
X114022569Y-140318018D01*
X113955736Y-140331022D01*
X113903172Y-140341445D01*
X113870224Y-140348270D01*
X113862143Y-140350199D01*
X113853795Y-140354962D01*
X113847494Y-140365718D01*
X113842955Y-140386098D01*
X113839896Y-140419734D01*
X113838033Y-140470255D01*
X113837082Y-140541292D01*
X113836760Y-140636476D01*
X113836743Y-140675492D01*
X113836743Y-140992799D01*
X113912943Y-141007839D01*
X113955337Y-141015995D01*
X114018600Y-141027899D01*
X114095038Y-141042116D01*
X114176957Y-141057210D01*
X114199600Y-141061355D01*
X114275194Y-141076053D01*
X114341047Y-141090505D01*
X114391634Y-141103375D01*
X114421426Y-141113322D01*
X114426388Y-141116287D01*
X114438574Y-141137283D01*
X114456047Y-141177967D01*
X114475423Y-141230322D01*
X114479266Y-141241600D01*
X114504661Y-141311523D01*
X114536183Y-141390418D01*
X114567031Y-141461266D01*
X114567183Y-141461595D01*
X114618553Y-141572733D01*
X114449601Y-141821253D01*
X114280648Y-142069772D01*
X114497571Y-142287058D01*
X114563181Y-142351726D01*
X114623021Y-142408733D01*
X114673733Y-142455033D01*
X114711954Y-142487584D01*
X114734325Y-142503343D01*
X114737534Y-142504343D01*
X114756374Y-142496469D01*
X114794820Y-142474578D01*
X114848670Y-142441267D01*
X114913724Y-142399131D01*
X114984060Y-142351943D01*
X115055445Y-142303810D01*
X115119092Y-142261928D01*
X115170959Y-142228871D01*
X115207005Y-142207218D01*
X115223133Y-142199543D01*
X115242811Y-142206037D01*
X115280125Y-142223150D01*
X115327379Y-142247326D01*
X115332388Y-142250013D01*
X115396023Y-142281927D01*
X115439659Y-142297579D01*
X115466798Y-142297745D01*
X115480943Y-142283204D01*
X115481025Y-142283000D01*
X115488095Y-142265779D01*
X115504958Y-142224899D01*
X115530305Y-142163525D01*
X115562829Y-142084819D01*
X115601222Y-141991947D01*
X115644178Y-141888072D01*
X115685778Y-141787502D01*
X115731496Y-141676516D01*
X115773474Y-141573703D01*
X115810452Y-141482215D01*
X115841173Y-141405201D01*
X115864378Y-141345815D01*
X115878810Y-141307209D01*
X115883257Y-141292800D01*
X115872104Y-141276272D01*
X115842931Y-141249930D01*
X115804029Y-141220887D01*
X115693243Y-141129039D01*
X115606649Y-141023759D01*
X115545284Y-140907266D01*
X115510185Y-140781776D01*
X115502392Y-140649507D01*
X115508057Y-140588457D01*
X115538922Y-140461795D01*
X115592080Y-140349941D01*
X115664233Y-140254001D01*
X115752083Y-140175076D01*
X115852335Y-140114270D01*
X115961690Y-140072687D01*
X116076853Y-140051428D01*
X116194525Y-140051599D01*
X116311410Y-140074301D01*
X116424211Y-140120638D01*
X116529631Y-140191713D01*
X116573632Y-140231911D01*
X116658021Y-140335129D01*
X116716778Y-140447925D01*
X116750296Y-140567010D01*
X116758965Y-140689095D01*
X116743177Y-140810893D01*
X116703322Y-140929116D01*
X116639793Y-141040475D01*
X116552979Y-141141684D01*
X116455971Y-141220887D01*
X116415563Y-141251162D01*
X116387018Y-141277219D01*
X116376743Y-141292825D01*
X116382123Y-141309843D01*
X116397425Y-141350500D01*
X116421388Y-141411642D01*
X116452756Y-141490119D01*
X116490268Y-141582780D01*
X116532667Y-141686472D01*
X116574337Y-141787526D01*
X116620310Y-141898607D01*
X116662893Y-142001541D01*
X116700779Y-142093165D01*
X116732660Y-142170316D01*
X116757229Y-142229831D01*
X116773180Y-142268544D01*
X116779090Y-142283000D01*
X116793052Y-142297685D01*
X116820060Y-142297642D01*
X116863587Y-142282099D01*
X116927110Y-142250284D01*
X116927612Y-142250013D01*
X116975440Y-142225323D01*
X117014103Y-142207338D01*
X117035905Y-142199614D01*
X117036867Y-142199543D01*
X117053279Y-142207378D01*
X117089513Y-142229165D01*
X117141526Y-142262328D01*
X117205275Y-142304291D01*
X117275940Y-142351943D01*
X117347884Y-142400191D01*
X117412726Y-142442151D01*
X117466265Y-142475227D01*
X117504303Y-142496821D01*
X117522467Y-142504343D01*
X117539192Y-142494457D01*
X117572820Y-142466826D01*
X117619990Y-142424495D01*
X117677342Y-142370505D01*
X117741516Y-142307899D01*
X117762503Y-142286983D01*
X117979501Y-142069623D01*
X117814332Y-141827220D01*
X117764136Y-141752781D01*
X117720081Y-141685972D01*
X117684638Y-141630665D01*
X117660281Y-141590729D01*
X117649478Y-141570036D01*
X117649162Y-141568563D01*
X117654857Y-141549058D01*
X117670174Y-141509822D01*
X117692463Y-141457430D01*
X117708107Y-141422355D01*
X117737359Y-141355201D01*
X117764906Y-141287358D01*
X117786263Y-141230034D01*
X117792065Y-141212572D01*
X117808548Y-141165938D01*
X117824660Y-141129905D01*
X117833510Y-141116287D01*
X117853040Y-141107952D01*
X117895666Y-141096137D01*
X117955855Y-141082181D01*
X118028078Y-141067422D01*
X118060400Y-141061355D01*
X118142478Y-141046273D01*
X118221205Y-141031669D01*
X118288891Y-141018980D01*
X118337840Y-141009642D01*
X118347057Y-141007839D01*
X118423257Y-140992799D01*
X118423257Y-140675492D01*
X118423086Y-140571154D01*
X118422384Y-140492213D01*
X118420866Y-140435038D01*
X118418251Y-140395999D01*
X118414254Y-140371465D01*
X118408591Y-140357805D01*
X118400980Y-140351389D01*
X118397857Y-140350199D01*
X118379022Y-140345980D01*
X118337412Y-140337562D01*
X118278370Y-140325961D01*
X118207243Y-140312195D01*
X118129375Y-140297280D01*
X118050113Y-140282232D01*
X117974802Y-140268069D01*
X117908787Y-140255806D01*
X117857413Y-140246461D01*
X117826025Y-140241050D01*
X117819041Y-140240114D01*
X117812715Y-140227596D01*
X117798710Y-140194246D01*
X117779645Y-140146377D01*
X117772366Y-140127629D01*
X117743004Y-140055195D01*
X117708429Y-139975170D01*
X117677463Y-139907728D01*
X117654677Y-139856159D01*
X117639518Y-139813785D01*
X117634458Y-139787834D01*
X117635264Y-139784356D01*
X117645959Y-139767936D01*
X117670380Y-139731417D01*
X117705905Y-139678687D01*
X117749913Y-139613635D01*
X117799783Y-139540151D01*
X117809644Y-139525645D01*
X117867508Y-139439704D01*
X117910044Y-139374261D01*
X117938946Y-139326304D01*
X117955910Y-139292820D01*
X117962633Y-139270795D01*
X117960810Y-139257217D01*
X117960764Y-139257131D01*
X117946414Y-139239297D01*
X117914677Y-139204817D01*
X117868990Y-139157268D01*
X117812796Y-139100222D01*
X117749532Y-139037255D01*
X117742398Y-139030227D01*
X117662670Y-138953020D01*
X117601143Y-138896330D01*
X117556579Y-138859110D01*
X117527743Y-138840315D01*
X117515042Y-138837889D01*
X117496506Y-138848471D01*
X117458039Y-138872916D01*
X117403614Y-138908612D01*
X117337202Y-138952947D01*
X117262775Y-139003311D01*
X117245399Y-139015160D01*
X116998703Y-139183626D01*
X116887294Y-139133062D01*
X116819543Y-139103595D01*
X116746817Y-139073959D01*
X116684297Y-139050330D01*
X116681543Y-139049358D01*
X116632640Y-139031457D01*
X116594943Y-139016320D01*
X116576575Y-139007210D01*
X116576544Y-139007184D01*
X116570715Y-138990717D01*
X116560808Y-138950219D01*
X116547805Y-138890242D01*
X116532691Y-138815340D01*
X116516448Y-138730064D01*
X116515119Y-138722875D01*
X116498825Y-138635014D01*
X116483867Y-138555260D01*
X116471209Y-138488681D01*
X116461814Y-138440347D01*
X116456646Y-138415325D01*
X116456556Y-138414943D01*
X116453411Y-138404299D01*
X116447296Y-138396262D01*
X116434547Y-138390467D01*
X116411500Y-138386547D01*
X116374491Y-138384135D01*
X116319856Y-138382865D01*
X116243933Y-138382371D01*
X116143056Y-138382286D01*
X116130000Y-138382286D01*
X116026090Y-138382348D01*
X116026090Y-138382348D01*
G37*
X116026090Y-138382348D02*
X115947546Y-138382778D01*
X115890702Y-138383942D01*
X115851895Y-138386207D01*
X115827462Y-138389940D01*
X115813738Y-138395506D01*
X115807060Y-138403273D01*
X115803764Y-138413605D01*
X115803444Y-138414943D01*
X115798438Y-138439079D01*
X115789171Y-138486701D01*
X115776608Y-138552741D01*
X115761713Y-138632128D01*
X115745449Y-138719796D01*
X115744881Y-138722875D01*
X115728590Y-138808789D01*
X115713348Y-138884696D01*
X115700139Y-138946045D01*
X115689946Y-138988282D01*
X115683752Y-139006855D01*
X115683457Y-139007184D01*
X115665212Y-139016253D01*
X115627595Y-139031367D01*
X115578729Y-139049262D01*
X115578457Y-139049358D01*
X115516907Y-139072493D01*
X115444343Y-139101965D01*
X115375943Y-139131597D01*
X115372706Y-139133062D01*
X115261298Y-139183626D01*
X115014601Y-139015160D01*
X114938923Y-138963803D01*
X114870369Y-138917889D01*
X114812912Y-138880030D01*
X114770524Y-138852837D01*
X114747175Y-138838921D01*
X114744958Y-138837889D01*
X114727990Y-138842484D01*
X114696299Y-138864655D01*
X114648648Y-138905447D01*
X114583802Y-138965905D01*
X114517603Y-139030227D01*
X114453786Y-139093612D01*
X114396671Y-139151451D01*
X114349695Y-139200175D01*
X114316297Y-139236210D01*
X114299915Y-139255984D01*
X114299306Y-139257002D01*
X114297495Y-139270572D01*
X114304317Y-139292733D01*
X114321460Y-139326478D01*
X114350607Y-139374800D01*
X114393445Y-139440692D01*
X114450552Y-139525517D01*
X114501234Y-139600177D01*
X114546539Y-139667140D01*
X114583850Y-139722516D01*
X114610548Y-139762420D01*
X114624015Y-139782962D01*
X114624863Y-139784356D01*
X114623219Y-139804038D01*
X114610755Y-139842293D01*
X114589952Y-139891889D01*
X114582538Y-139907728D01*
X114550186Y-139978290D01*
X114515672Y-140058353D01*
X114487635Y-140127629D01*
X114467432Y-140179045D01*
X114451385Y-140218119D01*
X114442112Y-140238541D01*
X114440959Y-140240114D01*
X114423904Y-140242721D01*
X114383702Y-140249863D01*
X114325698Y-140260523D01*
X114255237Y-140273685D01*
X114177665Y-140288333D01*
X114098328Y-140303449D01*
X114022569Y-140318018D01*
X113955736Y-140331022D01*
X113903172Y-140341445D01*
X113870224Y-140348270D01*
X113862143Y-140350199D01*
X113853795Y-140354962D01*
X113847494Y-140365718D01*
X113842955Y-140386098D01*
X113839896Y-140419734D01*
X113838033Y-140470255D01*
X113837082Y-140541292D01*
X113836760Y-140636476D01*
X113836743Y-140675492D01*
X113836743Y-140992799D01*
X113912943Y-141007839D01*
X113955337Y-141015995D01*
X114018600Y-141027899D01*
X114095038Y-141042116D01*
X114176957Y-141057210D01*
X114199600Y-141061355D01*
X114275194Y-141076053D01*
X114341047Y-141090505D01*
X114391634Y-141103375D01*
X114421426Y-141113322D01*
X114426388Y-141116287D01*
X114438574Y-141137283D01*
X114456047Y-141177967D01*
X114475423Y-141230322D01*
X114479266Y-141241600D01*
X114504661Y-141311523D01*
X114536183Y-141390418D01*
X114567031Y-141461266D01*
X114567183Y-141461595D01*
X114618553Y-141572733D01*
X114449601Y-141821253D01*
X114280648Y-142069772D01*
X114497571Y-142287058D01*
X114563181Y-142351726D01*
X114623021Y-142408733D01*
X114673733Y-142455033D01*
X114711954Y-142487584D01*
X114734325Y-142503343D01*
X114737534Y-142504343D01*
X114756374Y-142496469D01*
X114794820Y-142474578D01*
X114848670Y-142441267D01*
X114913724Y-142399131D01*
X114984060Y-142351943D01*
X115055445Y-142303810D01*
X115119092Y-142261928D01*
X115170959Y-142228871D01*
X115207005Y-142207218D01*
X115223133Y-142199543D01*
X115242811Y-142206037D01*
X115280125Y-142223150D01*
X115327379Y-142247326D01*
X115332388Y-142250013D01*
X115396023Y-142281927D01*
X115439659Y-142297579D01*
X115466798Y-142297745D01*
X115480943Y-142283204D01*
X115481025Y-142283000D01*
X115488095Y-142265779D01*
X115504958Y-142224899D01*
X115530305Y-142163525D01*
X115562829Y-142084819D01*
X115601222Y-141991947D01*
X115644178Y-141888072D01*
X115685778Y-141787502D01*
X115731496Y-141676516D01*
X115773474Y-141573703D01*
X115810452Y-141482215D01*
X115841173Y-141405201D01*
X115864378Y-141345815D01*
X115878810Y-141307209D01*
X115883257Y-141292800D01*
X115872104Y-141276272D01*
X115842931Y-141249930D01*
X115804029Y-141220887D01*
X115693243Y-141129039D01*
X115606649Y-141023759D01*
X115545284Y-140907266D01*
X115510185Y-140781776D01*
X115502392Y-140649507D01*
X115508057Y-140588457D01*
X115538922Y-140461795D01*
X115592080Y-140349941D01*
X115664233Y-140254001D01*
X115752083Y-140175076D01*
X115852335Y-140114270D01*
X115961690Y-140072687D01*
X116076853Y-140051428D01*
X116194525Y-140051599D01*
X116311410Y-140074301D01*
X116424211Y-140120638D01*
X116529631Y-140191713D01*
X116573632Y-140231911D01*
X116658021Y-140335129D01*
X116716778Y-140447925D01*
X116750296Y-140567010D01*
X116758965Y-140689095D01*
X116743177Y-140810893D01*
X116703322Y-140929116D01*
X116639793Y-141040475D01*
X116552979Y-141141684D01*
X116455971Y-141220887D01*
X116415563Y-141251162D01*
X116387018Y-141277219D01*
X116376743Y-141292825D01*
X116382123Y-141309843D01*
X116397425Y-141350500D01*
X116421388Y-141411642D01*
X116452756Y-141490119D01*
X116490268Y-141582780D01*
X116532667Y-141686472D01*
X116574337Y-141787526D01*
X116620310Y-141898607D01*
X116662893Y-142001541D01*
X116700779Y-142093165D01*
X116732660Y-142170316D01*
X116757229Y-142229831D01*
X116773180Y-142268544D01*
X116779090Y-142283000D01*
X116793052Y-142297685D01*
X116820060Y-142297642D01*
X116863587Y-142282099D01*
X116927110Y-142250284D01*
X116927612Y-142250013D01*
X116975440Y-142225323D01*
X117014103Y-142207338D01*
X117035905Y-142199614D01*
X117036867Y-142199543D01*
X117053279Y-142207378D01*
X117089513Y-142229165D01*
X117141526Y-142262328D01*
X117205275Y-142304291D01*
X117275940Y-142351943D01*
X117347884Y-142400191D01*
X117412726Y-142442151D01*
X117466265Y-142475227D01*
X117504303Y-142496821D01*
X117522467Y-142504343D01*
X117539192Y-142494457D01*
X117572820Y-142466826D01*
X117619990Y-142424495D01*
X117677342Y-142370505D01*
X117741516Y-142307899D01*
X117762503Y-142286983D01*
X117979501Y-142069623D01*
X117814332Y-141827220D01*
X117764136Y-141752781D01*
X117720081Y-141685972D01*
X117684638Y-141630665D01*
X117660281Y-141590729D01*
X117649478Y-141570036D01*
X117649162Y-141568563D01*
X117654857Y-141549058D01*
X117670174Y-141509822D01*
X117692463Y-141457430D01*
X117708107Y-141422355D01*
X117737359Y-141355201D01*
X117764906Y-141287358D01*
X117786263Y-141230034D01*
X117792065Y-141212572D01*
X117808548Y-141165938D01*
X117824660Y-141129905D01*
X117833510Y-141116287D01*
X117853040Y-141107952D01*
X117895666Y-141096137D01*
X117955855Y-141082181D01*
X118028078Y-141067422D01*
X118060400Y-141061355D01*
X118142478Y-141046273D01*
X118221205Y-141031669D01*
X118288891Y-141018980D01*
X118337840Y-141009642D01*
X118347057Y-141007839D01*
X118423257Y-140992799D01*
X118423257Y-140675492D01*
X118423086Y-140571154D01*
X118422384Y-140492213D01*
X118420866Y-140435038D01*
X118418251Y-140395999D01*
X118414254Y-140371465D01*
X118408591Y-140357805D01*
X118400980Y-140351389D01*
X118397857Y-140350199D01*
X118379022Y-140345980D01*
X118337412Y-140337562D01*
X118278370Y-140325961D01*
X118207243Y-140312195D01*
X118129375Y-140297280D01*
X118050113Y-140282232D01*
X117974802Y-140268069D01*
X117908787Y-140255806D01*
X117857413Y-140246461D01*
X117826025Y-140241050D01*
X117819041Y-140240114D01*
X117812715Y-140227596D01*
X117798710Y-140194246D01*
X117779645Y-140146377D01*
X117772366Y-140127629D01*
X117743004Y-140055195D01*
X117708429Y-139975170D01*
X117677463Y-139907728D01*
X117654677Y-139856159D01*
X117639518Y-139813785D01*
X117634458Y-139787834D01*
X117635264Y-139784356D01*
X117645959Y-139767936D01*
X117670380Y-139731417D01*
X117705905Y-139678687D01*
X117749913Y-139613635D01*
X117799783Y-139540151D01*
X117809644Y-139525645D01*
X117867508Y-139439704D01*
X117910044Y-139374261D01*
X117938946Y-139326304D01*
X117955910Y-139292820D01*
X117962633Y-139270795D01*
X117960810Y-139257217D01*
X117960764Y-139257131D01*
X117946414Y-139239297D01*
X117914677Y-139204817D01*
X117868990Y-139157268D01*
X117812796Y-139100222D01*
X117749532Y-139037255D01*
X117742398Y-139030227D01*
X117662670Y-138953020D01*
X117601143Y-138896330D01*
X117556579Y-138859110D01*
X117527743Y-138840315D01*
X117515042Y-138837889D01*
X117496506Y-138848471D01*
X117458039Y-138872916D01*
X117403614Y-138908612D01*
X117337202Y-138952947D01*
X117262775Y-139003311D01*
X117245399Y-139015160D01*
X116998703Y-139183626D01*
X116887294Y-139133062D01*
X116819543Y-139103595D01*
X116746817Y-139073959D01*
X116684297Y-139050330D01*
X116681543Y-139049358D01*
X116632640Y-139031457D01*
X116594943Y-139016320D01*
X116576575Y-139007210D01*
X116576544Y-139007184D01*
X116570715Y-138990717D01*
X116560808Y-138950219D01*
X116547805Y-138890242D01*
X116532691Y-138815340D01*
X116516448Y-138730064D01*
X116515119Y-138722875D01*
X116498825Y-138635014D01*
X116483867Y-138555260D01*
X116471209Y-138488681D01*
X116461814Y-138440347D01*
X116456646Y-138415325D01*
X116456556Y-138414943D01*
X116453411Y-138404299D01*
X116447296Y-138396262D01*
X116434547Y-138390467D01*
X116411500Y-138386547D01*
X116374491Y-138384135D01*
X116319856Y-138382865D01*
X116243933Y-138382371D01*
X116143056Y-138382286D01*
X116130000Y-138382286D01*
X116026090Y-138382348D01*
G04 #@! TO.C,J3*
D13*
X117083333Y-61927380D02*
X117083333Y-62641666D01*
X117130952Y-62784523D01*
X117226190Y-62879761D01*
X117369047Y-62927380D01*
X117464285Y-62927380D01*
X116702380Y-61927380D02*
X116083333Y-61927380D01*
X116416666Y-62308333D01*
X116273809Y-62308333D01*
X116178571Y-62355952D01*
X116130952Y-62403571D01*
X116083333Y-62498809D01*
X116083333Y-62736904D01*
X116130952Y-62832142D01*
X116178571Y-62879761D01*
X116273809Y-62927380D01*
X116559523Y-62927380D01*
X116654761Y-62879761D01*
X116702380Y-62832142D01*
G04 #@! TO.C,TP5*
X135286904Y-83727380D02*
X134715476Y-83727380D01*
X135001190Y-84727380D02*
X135001190Y-83727380D01*
X134382142Y-84727380D02*
X134382142Y-83727380D01*
X134001190Y-83727380D01*
X133905952Y-83775000D01*
X133858333Y-83822619D01*
X133810714Y-83917857D01*
X133810714Y-84060714D01*
X133858333Y-84155952D01*
X133905952Y-84203571D01*
X134001190Y-84251190D01*
X134382142Y-84251190D01*
X132905952Y-83727380D02*
X133382142Y-83727380D01*
X133429761Y-84203571D01*
X133382142Y-84155952D01*
X133286904Y-84108333D01*
X133048809Y-84108333D01*
X132953571Y-84155952D01*
X132905952Y-84203571D01*
X132858333Y-84298809D01*
X132858333Y-84536904D01*
X132905952Y-84632142D01*
X132953571Y-84679761D01*
X133048809Y-84727380D01*
X133286904Y-84727380D01*
X133382142Y-84679761D01*
X133429761Y-84632142D01*
G04 #@! TO.C,TP4*
X106136904Y-46602380D02*
X105565476Y-46602380D01*
X105851190Y-47602380D02*
X105851190Y-46602380D01*
X105232142Y-47602380D02*
X105232142Y-46602380D01*
X104851190Y-46602380D01*
X104755952Y-46650000D01*
X104708333Y-46697619D01*
X104660714Y-46792857D01*
X104660714Y-46935714D01*
X104708333Y-47030952D01*
X104755952Y-47078571D01*
X104851190Y-47126190D01*
X105232142Y-47126190D01*
X103803571Y-46935714D02*
X103803571Y-47602380D01*
X104041666Y-46554761D02*
X104279761Y-47269047D01*
X103660714Y-47269047D01*
G04 #@! TO.C,TP3*
X133511904Y-81727380D02*
X132940476Y-81727380D01*
X133226190Y-82727380D02*
X133226190Y-81727380D01*
X132607142Y-82727380D02*
X132607142Y-81727380D01*
X132226190Y-81727380D01*
X132130952Y-81775000D01*
X132083333Y-81822619D01*
X132035714Y-81917857D01*
X132035714Y-82060714D01*
X132083333Y-82155952D01*
X132130952Y-82203571D01*
X132226190Y-82251190D01*
X132607142Y-82251190D01*
X131702380Y-81727380D02*
X131083333Y-81727380D01*
X131416666Y-82108333D01*
X131273809Y-82108333D01*
X131178571Y-82155952D01*
X131130952Y-82203571D01*
X131083333Y-82298809D01*
X131083333Y-82536904D01*
X131130952Y-82632142D01*
X131178571Y-82679761D01*
X131273809Y-82727380D01*
X131559523Y-82727380D01*
X131654761Y-82679761D01*
X131702380Y-82632142D01*
G04 #@! TD*
M02*
