<?xml version="1.0" standalone="no"?>
 <!DOCTYPE svg PUBLIC "-//W3C//DTD SVG 1.1//EN" 
 "http://www.w3.org/Graphics/SVG/1.1/DTD/svg11.dtd"> 
<svg xmlns="http://www.w3.org/2000/svg" version="1.1" 
    width="8.70966cm" height="11.3487cm" viewBox="0 0 34290 44680 ">
<title>SVG Picture created as teensy_beats-Edge.Cuts.svg date 2018/10/22 10:31:53 </title>
  <desc>Picture generated by PCBNEW </desc>
<g style="fill:#000000; fill-opacity:1;stroke:#000000; stroke-opacity:1;
stroke-linecap:round; stroke-linejoin:round; "
 transform="translate(0 0) scale(1 1)">
</g>
<g style="fill:#000000; fill-opacity:0.0; 
stroke:#000000; stroke-width:-0.000393701; stroke-opacity:1; 
stroke-linecap:round; stroke-linejoin:round;">
</g>
<g style="fill:#C2C200; fill-opacity:0.0; 
stroke:#C2C200; stroke-width:-0.000393701; stroke-opacity:1; 
stroke-linecap:round; stroke-linejoin:round;">
</g>
<g style="fill:#C2C200; fill-opacity:0.0; 
stroke:#C2C200; stroke-width:78.7402; stroke-opacity:1; 
stroke-linecap:round; stroke-linejoin:round;">
<path d="M2082.68 19143.7 A984.252 984.252 0.0 0 0 1478.51 18235.8 " />
<path d="M39.3705 16978.3 A984.252 984.252 0.0 0 0 643.542 17886.3 " />
<path d="M31985.9 27457.2 A1968.5 1968.5 0.0 0 0 32003.9 27191.2 " />
<path d="M2082.68 27191.2 A1968.5 1968.5 0.0 0 0 2100.73 27457.2 " />
<path d="M32866 1340
L1220 1340
" />
<path d="M31985 27457
L29781 43626
" />
<path d="M39 2521
L39 16978
" />
<path d="M4305 43626
L2100 27457
" />
<path d="M5475 44647
L28610 44647
" />
<path d="M32608.1 18235.8 A984.252 984.252 0.0 0 0 32003.9 19143.7 " />
<path d="M33443.1 17886.3 A984.252 984.252 0.0 0 0 34047.2 16978.3 " />
<path d="M34047 16978
L34047 2521
" />
<path d="M32003 27191
L32003 19143
" />
<path d="M1220.47 1340.55 A1181.1 1181.1 0.0 0 0 39.3705 2521.65 " />
<path d="M2082 27191
L2082 19143
" />
<path d="M34047.2 2521.65 A1181.1 1181.1 0.0 0 0 32866.1 1340.55 " />
<path d="M643 17886
L1478 18235
" />
<path d="M33443 17886
L32608 18235
" />
<path d="M4305.58 43626.1 A1181.1 1181.1 0.0 0 0 5475.86 44647.6 " />
<path d="M28610.8 44647.6 A1181.1 1181.1 0.0 0 0 29781 43626.1 " />
</g> 
</svg>
