G04 #@! TF.GenerationSoftware,KiCad,Pcbnew,(5.1.4-0-10_14)*
G04 #@! TF.CreationDate,2021-01-21T01:13:21-07:00*
G04 #@! TF.ProjectId,power-switching,706f7765-722d-4737-9769-746368696e67,rev?*
G04 #@! TF.SameCoordinates,Original*
G04 #@! TF.FileFunction,Legend,Bot*
G04 #@! TF.FilePolarity,Positive*
%FSLAX46Y46*%
G04 Gerber Fmt 4.6, Leading zero omitted, Abs format (unit mm)*
G04 Created by KiCad (PCBNEW (5.1.4-0-10_14)) date 2021-01-21 01:13:21*
%MOMM*%
%LPD*%
G04 APERTURE LIST*
%ADD10C,0.152400*%
%ADD11C,0.120000*%
%ADD12C,0.200000*%
%ADD13C,0.150000*%
G04 APERTURE END LIST*
D10*
X117883000Y-103000000D02*
G75*
G03X117883000Y-103000000I-381000J0D01*
G01*
D11*
X161475000Y-105715000D02*
X161475000Y-108255000D01*
X167850000Y-105715000D02*
X161475000Y-105715000D01*
X167850000Y-136295000D02*
X167850000Y-105715000D01*
X161475000Y-136295000D02*
X161475000Y-133755000D01*
X167850000Y-136295000D02*
X161475000Y-136295000D01*
X117025000Y-108255000D02*
X129725000Y-108255000D01*
X117025000Y-105715000D02*
X117025000Y-108255000D01*
X110680000Y-105715000D02*
X117025000Y-105715000D01*
X110680000Y-136295000D02*
X110680000Y-105715000D01*
X117025000Y-136295000D02*
X110680000Y-136295000D01*
X117025000Y-133755000D02*
X117025000Y-136295000D01*
X117025000Y-133755000D02*
X129725000Y-133755000D01*
X161475000Y-108255000D02*
X148775000Y-108255000D01*
X129725000Y-136295000D02*
X129725000Y-133755000D01*
X148775000Y-136295000D02*
X129725000Y-136295000D01*
X148775000Y-133755000D02*
X148775000Y-136295000D01*
X161475000Y-133755000D02*
X148775000Y-133755000D01*
X148775000Y-105715000D02*
X148775000Y-108255000D01*
X129725000Y-105715000D02*
X148775000Y-105715000D01*
X129725000Y-108255000D02*
X129725000Y-105715000D01*
X167850000Y-120751000D02*
X110680000Y-120751000D01*
X110680000Y-121259000D02*
X167850000Y-121259000D01*
X148775000Y-131040000D02*
X148775000Y-129770000D01*
X130995000Y-131040000D02*
X148775000Y-131040000D01*
X130995000Y-129770000D02*
X130995000Y-131040000D01*
X129725000Y-129770000D02*
X130995000Y-129770000D01*
X129725000Y-127230000D02*
X129725000Y-129770000D01*
X130995000Y-127230000D02*
X129725000Y-127230000D01*
X130995000Y-125960000D02*
X130995000Y-127230000D01*
X148775000Y-125960000D02*
X130995000Y-125960000D01*
X148775000Y-129770000D02*
X148775000Y-125960000D01*
X147505000Y-110970000D02*
X129725000Y-110970000D01*
X147505000Y-112240000D02*
X147505000Y-110970000D01*
X148775000Y-112240000D02*
X147505000Y-112240000D01*
X148775000Y-114780000D02*
X148775000Y-112240000D01*
X147505000Y-114780000D02*
X148775000Y-114780000D01*
X147505000Y-116050000D02*
X147505000Y-114780000D01*
X129725000Y-116050000D02*
X147505000Y-116050000D01*
X129725000Y-110970000D02*
X129725000Y-116050000D01*
X169120000Y-137565000D02*
X109410000Y-137565000D01*
X109410000Y-137565000D02*
X109410000Y-104445000D01*
X109410000Y-104445000D02*
X169120000Y-104445000D01*
X169120000Y-104445000D02*
X169120000Y-137565000D01*
D12*
X112728571Y-138602857D02*
X112614285Y-138640952D01*
X112576190Y-138679047D01*
X112538095Y-138755238D01*
X112538095Y-138869523D01*
X112576190Y-138945714D01*
X112614285Y-138983809D01*
X112690476Y-139021904D01*
X112995238Y-139021904D01*
X112995238Y-138221904D01*
X112728571Y-138221904D01*
X112652380Y-138260000D01*
X112614285Y-138298095D01*
X112576190Y-138374285D01*
X112576190Y-138450476D01*
X112614285Y-138526666D01*
X112652380Y-138564761D01*
X112728571Y-138602857D01*
X112995238Y-138602857D01*
X112309523Y-138221904D02*
X111852380Y-138221904D01*
X112080952Y-139021904D02*
X112080952Y-138221904D01*
X111166666Y-139021904D02*
X111623809Y-139021904D01*
X111395238Y-139021904D02*
X111395238Y-138221904D01*
X111471428Y-138336190D01*
X111547619Y-138412380D01*
X111623809Y-138450476D01*
D13*
X108861428Y-113617142D02*
X107718571Y-113617142D01*
X108861428Y-128607142D02*
X107718571Y-128607142D01*
X108290000Y-129178571D02*
X108290000Y-128035714D01*
X129026428Y-113617142D02*
X127883571Y-113617142D01*
X150616428Y-113617142D02*
X149473571Y-113617142D01*
X150045000Y-114188571D02*
X150045000Y-113045714D01*
X129026428Y-128607142D02*
X127883571Y-128607142D01*
X128455000Y-129178571D02*
X128455000Y-128035714D01*
X150616428Y-128607142D02*
X149473571Y-128607142D01*
M02*
