M48
; DRILL file {KiCad (5.1.4-0-10_14)} date Thursday, January 21, 2021 at 01:13:23 AM
; FORMAT={-:-/ absolute / inch / decimal}
; #@! TF.CreationDate,2021-01-21T01:13:23-07:00
; #@! TF.GenerationSoftware,Kicad,Pcbnew,(5.1.4-0-10_14)
; #@! TF.FileFunction,Plated,1,4,PTH
FMAT,2
INCH
T1C0.0079
T2C0.0157
T3C0.0236
T4C0.0295
T5C0.0394
T6C0.0402
T7C0.0510
T8C0.0512
%
G90
G05
T1
X4.1614Y-4.4213
X4.2647Y-4.6099
X4.9587Y-4.6476
X4.9587Y-4.7303
X5.0413Y-4.6476
X5.0413Y-4.7303
X5.748Y-4.9252
X5.748Y-4.9685
X5.748Y-5.0118
X5.7913Y-4.9252
X5.7913Y-4.9685
X5.7913Y-5.0118
X5.8346Y-4.9252
X5.8346Y-4.9685
X5.8346Y-5.0118
T2
X4.2756Y-4.5118
X4.2756Y-4.7717
X4.3031Y-4.2953
X4.3051Y-4.3819
X4.622Y-4.9291
X4.6339Y-4.6693
X4.689Y-5.3268
X4.7795Y-4.5
X4.8031Y-5.3228
X4.8346Y-4.9173
X4.8858Y-4.689
X4.9213Y-4.4803
X4.937Y-4.8504
X5.0197Y-4.8071
X5.1177Y-4.6198
X5.1181Y-4.4803
X5.1339Y-4.9055
X5.1929Y-5.248
X5.1929Y-5.3228
X5.2441Y-4.3819
X5.2874Y-4.626
X5.2874Y-4.7047
X5.2874Y-4.7835
X5.3307Y-4.1535
X5.4331Y-4.9173
X5.4803Y-4.1063
X5.4921Y-4.6496
X5.5866Y-5.1969
X5.6299Y-4.6732
X5.6457Y-4.5748
X5.8189Y-5.2323
X5.8307Y-5.063
X5.8583Y-4.1102
X5.8937Y-5.0394
X5.9094Y-5.1693
X5.9094Y-5.2717
X5.9616Y-4.1102
X5.9921Y-5.0315
X6.0079Y-4.748
X6.0315Y-5.2126
X6.0591Y-4.4764
X6.0669Y-4.1102
X6.0827Y-4.9252
X6.0827Y-5.2913
X6.1339Y-5.2126
X6.1378Y-4.4764
X6.1535Y-4.8189
X6.2087Y-4.9449
X6.2126Y-4.8346
X6.2362Y-4.437
X6.3307Y-4.4213
X6.3307Y-4.8346
X6.5709Y-4.4213
X6.5709Y-4.8386
T4
X4.7795Y-4.0472
X4.8583Y-4.0472
T5
X5.1811Y-4.0472
X5.2811Y-4.0472
X5.3811Y-4.0472
X5.4811Y-4.0472
X5.5811Y-4.0472
X5.6811Y-4.0472
X5.7811Y-4.0472
X5.8811Y-4.0472
X6.0811Y-4.0472
X4.2559Y-5.148
X4.2559Y-5.248
X5.9811Y-4.0472
X4.0157Y-5.1102
X4.0157Y-5.2874
T6
X4.4134Y-4.4689
X4.4134Y-5.0591
T7
X4.2961Y-4.0551
X4.4961Y-4.0551
T8
X4.1142Y-5.061
X4.1142Y-5.3366
T3
G00X4.0374Y-4.4709
M15
G01X3.9783Y-4.4709
M16
G05
G00X4.0374Y-4.811
M15
G01X3.9783Y-4.811
M16
G05
G00X4.2386Y-4.4709
M15
G01X4.1992Y-4.4709
M16
G05
G00X4.2386Y-4.811
M15
G01X4.1992Y-4.811
M16
G05
T0
M30
