G04 #@! TF.GenerationSoftware,KiCad,Pcbnew,(5.1.4-0-10_14)*
G04 #@! TF.CreationDate,2021-01-21T01:13:21-07:00*
G04 #@! TF.ProjectId,power-switching,706f7765-722d-4737-9769-746368696e67,rev?*
G04 #@! TF.SameCoordinates,Original*
G04 #@! TF.FileFunction,Copper,L3,Inr*
G04 #@! TF.FilePolarity,Positive*
%FSLAX46Y46*%
G04 Gerber Fmt 4.6, Leading zero omitted, Abs format (unit mm)*
G04 Created by KiCad (PCBNEW (5.1.4-0-10_14)) date 2021-01-21 01:13:21*
%MOMM*%
%LPD*%
G04 APERTURE LIST*
%ADD10C,1.803400*%
%ADD11O,1.200000X1.750000*%
%ADD12C,0.100000*%
%ADD13C,1.200000*%
%ADD14C,1.700000*%
%ADD15C,2.200000*%
%ADD16O,1.700000X1.700000*%
%ADD17R,1.700000X1.700000*%
%ADD18C,0.500000*%
%ADD19C,2.000000*%
%ADD20R,2.000000X2.000000*%
%ADD21O,2.600000X1.300000*%
%ADD22O,2.200000X1.100000*%
%ADD23C,0.800000*%
%ADD24C,0.450000*%
%ADD25C,0.254000*%
G04 APERTURE END LIST*
D10*
X109120000Y-103000000D03*
X114200000Y-103000000D03*
D11*
X121400000Y-102800000D03*
D12*
G36*
X123774505Y-101926204D02*
G01*
X123798773Y-101929804D01*
X123822572Y-101935765D01*
X123845671Y-101944030D01*
X123867850Y-101954520D01*
X123888893Y-101967132D01*
X123908599Y-101981747D01*
X123926777Y-101998223D01*
X123943253Y-102016401D01*
X123957868Y-102036107D01*
X123970480Y-102057150D01*
X123980970Y-102079329D01*
X123989235Y-102102428D01*
X123995196Y-102126227D01*
X123998796Y-102150495D01*
X124000000Y-102174999D01*
X124000000Y-103425001D01*
X123998796Y-103449505D01*
X123995196Y-103473773D01*
X123989235Y-103497572D01*
X123980970Y-103520671D01*
X123970480Y-103542850D01*
X123957868Y-103563893D01*
X123943253Y-103583599D01*
X123926777Y-103601777D01*
X123908599Y-103618253D01*
X123888893Y-103632868D01*
X123867850Y-103645480D01*
X123845671Y-103655970D01*
X123822572Y-103664235D01*
X123798773Y-103670196D01*
X123774505Y-103673796D01*
X123750001Y-103675000D01*
X123049999Y-103675000D01*
X123025495Y-103673796D01*
X123001227Y-103670196D01*
X122977428Y-103664235D01*
X122954329Y-103655970D01*
X122932150Y-103645480D01*
X122911107Y-103632868D01*
X122891401Y-103618253D01*
X122873223Y-103601777D01*
X122856747Y-103583599D01*
X122842132Y-103563893D01*
X122829520Y-103542850D01*
X122819030Y-103520671D01*
X122810765Y-103497572D01*
X122804804Y-103473773D01*
X122801204Y-103449505D01*
X122800000Y-103425001D01*
X122800000Y-102174999D01*
X122801204Y-102150495D01*
X122804804Y-102126227D01*
X122810765Y-102102428D01*
X122819030Y-102079329D01*
X122829520Y-102057150D01*
X122842132Y-102036107D01*
X122856747Y-102016401D01*
X122873223Y-101998223D01*
X122891401Y-101981747D01*
X122911107Y-101967132D01*
X122932150Y-101954520D01*
X122954329Y-101944030D01*
X122977428Y-101935765D01*
X123001227Y-101929804D01*
X123025495Y-101926204D01*
X123049999Y-101925000D01*
X123750001Y-101925000D01*
X123774505Y-101926204D01*
X123774505Y-101926204D01*
G37*
D13*
X123400000Y-102800000D03*
D14*
X102000000Y-134300000D03*
X102000000Y-129800000D03*
D15*
X104500000Y-135550000D03*
X104500000Y-128550000D03*
D16*
X154460000Y-102800000D03*
X151920000Y-102800000D03*
X149380000Y-102800000D03*
X146840000Y-102800000D03*
X144300000Y-102800000D03*
X141760000Y-102800000D03*
X139220000Y-102800000D03*
X136680000Y-102800000D03*
X134140000Y-102800000D03*
D17*
X131600000Y-102800000D03*
D18*
X128050000Y-118050000D03*
X128050000Y-120150000D03*
X125950000Y-118050000D03*
X125950000Y-120150000D03*
X146000000Y-125100000D03*
X147100000Y-125100000D03*
X148200000Y-125100000D03*
X146000000Y-126200000D03*
X147100000Y-126200000D03*
X148200000Y-126200000D03*
X146000000Y-127300000D03*
X147100000Y-127300000D03*
X148200000Y-127300000D03*
D16*
X108100000Y-130760000D03*
D17*
X108100000Y-133300000D03*
D19*
X112100000Y-113510000D03*
D20*
X112100000Y-128500000D03*
D21*
X101800000Y-122200000D03*
X101800000Y-113560000D03*
D22*
X107160000Y-122200000D03*
X107160000Y-113560000D03*
D23*
X133200000Y-111300000D03*
X134300000Y-117500000D03*
X134300000Y-119500000D03*
X134300000Y-121500000D03*
X155900000Y-113700000D03*
X151425000Y-104400000D03*
X148800000Y-104400000D03*
X154100000Y-104400000D03*
X156300000Y-122400000D03*
X157800000Y-122800000D03*
X157700000Y-125600000D03*
X154500000Y-125100000D03*
X148100000Y-128600000D03*
X149700000Y-128000000D03*
X152200000Y-127800000D03*
X130000000Y-113800000D03*
X125000000Y-113800000D03*
X109350000Y-111300000D03*
X135400000Y-105500000D03*
X139200000Y-104300000D03*
X108600000Y-114600000D03*
X108600000Y-121200000D03*
X153900000Y-113700000D03*
X152600000Y-120600000D03*
X158400000Y-112700000D03*
X160800000Y-112300000D03*
X166900000Y-112300000D03*
X166900000Y-122900000D03*
X160800000Y-122800000D03*
X117700000Y-118600000D03*
X109300000Y-109100000D03*
X130400000Y-124600000D03*
X122000000Y-135200000D03*
X131900000Y-135200000D03*
X138000000Y-124900000D03*
X141900000Y-132000000D03*
X147800000Y-132900000D03*
X150100000Y-131300000D03*
X150100000Y-133900000D03*
X153200000Y-132400000D03*
X155800000Y-132400000D03*
X154500000Y-134400000D03*
X143400000Y-116200000D03*
X143000000Y-118700000D03*
X139500000Y-118100000D03*
X122800000Y-124900000D03*
X117400000Y-125200000D03*
X121400000Y-114300000D03*
D24*
X108322122Y-117092432D03*
X105700000Y-112300000D03*
D23*
X119100000Y-135300000D03*
X127500000Y-122100000D03*
X124100000Y-119100000D03*
X129990410Y-117342154D03*
X131900000Y-133300000D03*
X125400000Y-123200000D03*
D25*
G36*
X169340001Y-137340000D02*
G01*
X100660000Y-137340000D01*
X100660000Y-134945445D01*
X100684010Y-135003411D01*
X100846525Y-135246632D01*
X101053368Y-135453475D01*
X101296589Y-135615990D01*
X101566842Y-135727932D01*
X101853740Y-135785000D01*
X102146260Y-135785000D01*
X102433158Y-135727932D01*
X102703411Y-135615990D01*
X102765000Y-135574838D01*
X102765000Y-135720883D01*
X102831675Y-136056081D01*
X102962463Y-136371831D01*
X103152337Y-136655998D01*
X103394002Y-136897663D01*
X103678169Y-137087537D01*
X103993919Y-137218325D01*
X104329117Y-137285000D01*
X104670883Y-137285000D01*
X105006081Y-137218325D01*
X105321831Y-137087537D01*
X105605998Y-136897663D01*
X105847663Y-136655998D01*
X106037537Y-136371831D01*
X106168325Y-136056081D01*
X106235000Y-135720883D01*
X106235000Y-135379117D01*
X106198986Y-135198061D01*
X118065000Y-135198061D01*
X118065000Y-135401939D01*
X118104774Y-135601898D01*
X118182795Y-135790256D01*
X118296063Y-135959774D01*
X118440226Y-136103937D01*
X118609744Y-136217205D01*
X118798102Y-136295226D01*
X118998061Y-136335000D01*
X119201939Y-136335000D01*
X119401898Y-136295226D01*
X119590256Y-136217205D01*
X119759774Y-136103937D01*
X119903937Y-135959774D01*
X120017205Y-135790256D01*
X120095226Y-135601898D01*
X120135000Y-135401939D01*
X120135000Y-135198061D01*
X120115109Y-135098061D01*
X120965000Y-135098061D01*
X120965000Y-135301939D01*
X121004774Y-135501898D01*
X121082795Y-135690256D01*
X121196063Y-135859774D01*
X121340226Y-136003937D01*
X121509744Y-136117205D01*
X121698102Y-136195226D01*
X121898061Y-136235000D01*
X122101939Y-136235000D01*
X122301898Y-136195226D01*
X122490256Y-136117205D01*
X122659774Y-136003937D01*
X122803937Y-135859774D01*
X122917205Y-135690256D01*
X122995226Y-135501898D01*
X123035000Y-135301939D01*
X123035000Y-135098061D01*
X122995226Y-134898102D01*
X122917205Y-134709744D01*
X122803937Y-134540226D01*
X122659774Y-134396063D01*
X122490256Y-134282795D01*
X122301898Y-134204774D01*
X122101939Y-134165000D01*
X121898061Y-134165000D01*
X121698102Y-134204774D01*
X121509744Y-134282795D01*
X121340226Y-134396063D01*
X121196063Y-134540226D01*
X121082795Y-134709744D01*
X121004774Y-134898102D01*
X120965000Y-135098061D01*
X120115109Y-135098061D01*
X120095226Y-134998102D01*
X120017205Y-134809744D01*
X119903937Y-134640226D01*
X119759774Y-134496063D01*
X119590256Y-134382795D01*
X119401898Y-134304774D01*
X119201939Y-134265000D01*
X118998061Y-134265000D01*
X118798102Y-134304774D01*
X118609744Y-134382795D01*
X118440226Y-134496063D01*
X118296063Y-134640226D01*
X118182795Y-134809744D01*
X118104774Y-134998102D01*
X118065000Y-135198061D01*
X106198986Y-135198061D01*
X106168325Y-135043919D01*
X106037537Y-134728169D01*
X105847663Y-134444002D01*
X105605998Y-134202337D01*
X105321831Y-134012463D01*
X105006081Y-133881675D01*
X104670883Y-133815000D01*
X104329117Y-133815000D01*
X103993919Y-133881675D01*
X103678169Y-134012463D01*
X103482857Y-134142966D01*
X103427932Y-133866842D01*
X103315990Y-133596589D01*
X103153475Y-133353368D01*
X102946632Y-133146525D01*
X102703411Y-132984010D01*
X102433158Y-132872068D01*
X102146260Y-132815000D01*
X101853740Y-132815000D01*
X101566842Y-132872068D01*
X101296589Y-132984010D01*
X101053368Y-133146525D01*
X100846525Y-133353368D01*
X100684010Y-133596589D01*
X100660000Y-133654555D01*
X100660000Y-130445445D01*
X100684010Y-130503411D01*
X100846525Y-130746632D01*
X101053368Y-130953475D01*
X101296589Y-131115990D01*
X101566842Y-131227932D01*
X101853740Y-131285000D01*
X102146260Y-131285000D01*
X102433158Y-131227932D01*
X102703411Y-131115990D01*
X102946632Y-130953475D01*
X103140107Y-130760000D01*
X106607815Y-130760000D01*
X106636487Y-131051111D01*
X106721401Y-131331034D01*
X106859294Y-131589014D01*
X107044866Y-131815134D01*
X107074687Y-131839607D01*
X107005820Y-131860498D01*
X106895506Y-131919463D01*
X106798815Y-131998815D01*
X106719463Y-132095506D01*
X106660498Y-132205820D01*
X106624188Y-132325518D01*
X106611928Y-132450000D01*
X106611928Y-134150000D01*
X106624188Y-134274482D01*
X106660498Y-134394180D01*
X106719463Y-134504494D01*
X106798815Y-134601185D01*
X106895506Y-134680537D01*
X107005820Y-134739502D01*
X107125518Y-134775812D01*
X107250000Y-134788072D01*
X108950000Y-134788072D01*
X109074482Y-134775812D01*
X109194180Y-134739502D01*
X109304494Y-134680537D01*
X109401185Y-134601185D01*
X109480537Y-134504494D01*
X109539502Y-134394180D01*
X109575812Y-134274482D01*
X109588072Y-134150000D01*
X109588072Y-133198061D01*
X130865000Y-133198061D01*
X130865000Y-133401939D01*
X130904774Y-133601898D01*
X130982795Y-133790256D01*
X131096063Y-133959774D01*
X131240226Y-134103937D01*
X131409744Y-134217205D01*
X131488918Y-134250000D01*
X131409744Y-134282795D01*
X131240226Y-134396063D01*
X131096063Y-134540226D01*
X130982795Y-134709744D01*
X130904774Y-134898102D01*
X130865000Y-135098061D01*
X130865000Y-135301939D01*
X130904774Y-135501898D01*
X130982795Y-135690256D01*
X131096063Y-135859774D01*
X131240226Y-136003937D01*
X131409744Y-136117205D01*
X131598102Y-136195226D01*
X131798061Y-136235000D01*
X132001939Y-136235000D01*
X132201898Y-136195226D01*
X132390256Y-136117205D01*
X132559774Y-136003937D01*
X132703937Y-135859774D01*
X132817205Y-135690256D01*
X132895226Y-135501898D01*
X132935000Y-135301939D01*
X132935000Y-135098061D01*
X132895226Y-134898102D01*
X132817205Y-134709744D01*
X132703937Y-134540226D01*
X132559774Y-134396063D01*
X132390256Y-134282795D01*
X132311082Y-134250000D01*
X132390256Y-134217205D01*
X132559774Y-134103937D01*
X132703937Y-133959774D01*
X132817205Y-133790256D01*
X132895226Y-133601898D01*
X132935000Y-133401939D01*
X132935000Y-133198061D01*
X132895226Y-132998102D01*
X132817205Y-132809744D01*
X132703937Y-132640226D01*
X132559774Y-132496063D01*
X132390256Y-132382795D01*
X132201898Y-132304774D01*
X132001939Y-132265000D01*
X131798061Y-132265000D01*
X131598102Y-132304774D01*
X131409744Y-132382795D01*
X131240226Y-132496063D01*
X131096063Y-132640226D01*
X130982795Y-132809744D01*
X130904774Y-132998102D01*
X130865000Y-133198061D01*
X109588072Y-133198061D01*
X109588072Y-132450000D01*
X109575812Y-132325518D01*
X109539502Y-132205820D01*
X109480537Y-132095506D01*
X109401185Y-131998815D01*
X109304494Y-131919463D01*
X109264455Y-131898061D01*
X140865000Y-131898061D01*
X140865000Y-132101939D01*
X140904774Y-132301898D01*
X140982795Y-132490256D01*
X141096063Y-132659774D01*
X141240226Y-132803937D01*
X141409744Y-132917205D01*
X141598102Y-132995226D01*
X141798061Y-133035000D01*
X142001939Y-133035000D01*
X142201898Y-132995226D01*
X142390256Y-132917205D01*
X142559774Y-132803937D01*
X142565650Y-132798061D01*
X146765000Y-132798061D01*
X146765000Y-133001939D01*
X146804774Y-133201898D01*
X146882795Y-133390256D01*
X146996063Y-133559774D01*
X147140226Y-133703937D01*
X147309744Y-133817205D01*
X147498102Y-133895226D01*
X147698061Y-133935000D01*
X147901939Y-133935000D01*
X148101898Y-133895226D01*
X148290256Y-133817205D01*
X148318907Y-133798061D01*
X149065000Y-133798061D01*
X149065000Y-134001939D01*
X149104774Y-134201898D01*
X149182795Y-134390256D01*
X149296063Y-134559774D01*
X149440226Y-134703937D01*
X149609744Y-134817205D01*
X149798102Y-134895226D01*
X149998061Y-134935000D01*
X150201939Y-134935000D01*
X150401898Y-134895226D01*
X150590256Y-134817205D01*
X150759774Y-134703937D01*
X150903937Y-134559774D01*
X151017205Y-134390256D01*
X151055393Y-134298061D01*
X153465000Y-134298061D01*
X153465000Y-134501939D01*
X153504774Y-134701898D01*
X153582795Y-134890256D01*
X153696063Y-135059774D01*
X153840226Y-135203937D01*
X154009744Y-135317205D01*
X154198102Y-135395226D01*
X154398061Y-135435000D01*
X154601939Y-135435000D01*
X154801898Y-135395226D01*
X154990256Y-135317205D01*
X155159774Y-135203937D01*
X155303937Y-135059774D01*
X155417205Y-134890256D01*
X155495226Y-134701898D01*
X155535000Y-134501939D01*
X155535000Y-134298061D01*
X155495226Y-134098102D01*
X155417205Y-133909744D01*
X155303937Y-133740226D01*
X155159774Y-133596063D01*
X154990256Y-133482795D01*
X154801898Y-133404774D01*
X154601939Y-133365000D01*
X154398061Y-133365000D01*
X154198102Y-133404774D01*
X154009744Y-133482795D01*
X153840226Y-133596063D01*
X153696063Y-133740226D01*
X153582795Y-133909744D01*
X153504774Y-134098102D01*
X153465000Y-134298061D01*
X151055393Y-134298061D01*
X151095226Y-134201898D01*
X151135000Y-134001939D01*
X151135000Y-133798061D01*
X151095226Y-133598102D01*
X151017205Y-133409744D01*
X150903937Y-133240226D01*
X150759774Y-133096063D01*
X150590256Y-132982795D01*
X150401898Y-132904774D01*
X150201939Y-132865000D01*
X149998061Y-132865000D01*
X149798102Y-132904774D01*
X149609744Y-132982795D01*
X149440226Y-133096063D01*
X149296063Y-133240226D01*
X149182795Y-133409744D01*
X149104774Y-133598102D01*
X149065000Y-133798061D01*
X148318907Y-133798061D01*
X148459774Y-133703937D01*
X148603937Y-133559774D01*
X148717205Y-133390256D01*
X148795226Y-133201898D01*
X148835000Y-133001939D01*
X148835000Y-132798061D01*
X148795226Y-132598102D01*
X148717205Y-132409744D01*
X148603937Y-132240226D01*
X148459774Y-132096063D01*
X148290256Y-131982795D01*
X148101898Y-131904774D01*
X147901939Y-131865000D01*
X147698061Y-131865000D01*
X147498102Y-131904774D01*
X147309744Y-131982795D01*
X147140226Y-132096063D01*
X146996063Y-132240226D01*
X146882795Y-132409744D01*
X146804774Y-132598102D01*
X146765000Y-132798061D01*
X142565650Y-132798061D01*
X142703937Y-132659774D01*
X142817205Y-132490256D01*
X142895226Y-132301898D01*
X142935000Y-132101939D01*
X142935000Y-131898061D01*
X142895226Y-131698102D01*
X142817205Y-131509744D01*
X142703937Y-131340226D01*
X142561772Y-131198061D01*
X149065000Y-131198061D01*
X149065000Y-131401939D01*
X149104774Y-131601898D01*
X149182795Y-131790256D01*
X149296063Y-131959774D01*
X149440226Y-132103937D01*
X149609744Y-132217205D01*
X149798102Y-132295226D01*
X149998061Y-132335000D01*
X150201939Y-132335000D01*
X150387645Y-132298061D01*
X152165000Y-132298061D01*
X152165000Y-132501939D01*
X152204774Y-132701898D01*
X152282795Y-132890256D01*
X152396063Y-133059774D01*
X152540226Y-133203937D01*
X152709744Y-133317205D01*
X152898102Y-133395226D01*
X153098061Y-133435000D01*
X153301939Y-133435000D01*
X153501898Y-133395226D01*
X153690256Y-133317205D01*
X153859774Y-133203937D01*
X154003937Y-133059774D01*
X154117205Y-132890256D01*
X154195226Y-132701898D01*
X154235000Y-132501939D01*
X154235000Y-132298061D01*
X154765000Y-132298061D01*
X154765000Y-132501939D01*
X154804774Y-132701898D01*
X154882795Y-132890256D01*
X154996063Y-133059774D01*
X155140226Y-133203937D01*
X155309744Y-133317205D01*
X155498102Y-133395226D01*
X155698061Y-133435000D01*
X155901939Y-133435000D01*
X156101898Y-133395226D01*
X156290256Y-133317205D01*
X156459774Y-133203937D01*
X156603937Y-133059774D01*
X156717205Y-132890256D01*
X156795226Y-132701898D01*
X156835000Y-132501939D01*
X156835000Y-132298061D01*
X156795226Y-132098102D01*
X156717205Y-131909744D01*
X156603937Y-131740226D01*
X156459774Y-131596063D01*
X156290256Y-131482795D01*
X156101898Y-131404774D01*
X155901939Y-131365000D01*
X155698061Y-131365000D01*
X155498102Y-131404774D01*
X155309744Y-131482795D01*
X155140226Y-131596063D01*
X154996063Y-131740226D01*
X154882795Y-131909744D01*
X154804774Y-132098102D01*
X154765000Y-132298061D01*
X154235000Y-132298061D01*
X154195226Y-132098102D01*
X154117205Y-131909744D01*
X154003937Y-131740226D01*
X153859774Y-131596063D01*
X153690256Y-131482795D01*
X153501898Y-131404774D01*
X153301939Y-131365000D01*
X153098061Y-131365000D01*
X152898102Y-131404774D01*
X152709744Y-131482795D01*
X152540226Y-131596063D01*
X152396063Y-131740226D01*
X152282795Y-131909744D01*
X152204774Y-132098102D01*
X152165000Y-132298061D01*
X150387645Y-132298061D01*
X150401898Y-132295226D01*
X150590256Y-132217205D01*
X150759774Y-132103937D01*
X150903937Y-131959774D01*
X151017205Y-131790256D01*
X151095226Y-131601898D01*
X151135000Y-131401939D01*
X151135000Y-131198061D01*
X151095226Y-130998102D01*
X151017205Y-130809744D01*
X150903937Y-130640226D01*
X150759774Y-130496063D01*
X150590256Y-130382795D01*
X150401898Y-130304774D01*
X150201939Y-130265000D01*
X149998061Y-130265000D01*
X149798102Y-130304774D01*
X149609744Y-130382795D01*
X149440226Y-130496063D01*
X149296063Y-130640226D01*
X149182795Y-130809744D01*
X149104774Y-130998102D01*
X149065000Y-131198061D01*
X142561772Y-131198061D01*
X142559774Y-131196063D01*
X142390256Y-131082795D01*
X142201898Y-131004774D01*
X142001939Y-130965000D01*
X141798061Y-130965000D01*
X141598102Y-131004774D01*
X141409744Y-131082795D01*
X141240226Y-131196063D01*
X141096063Y-131340226D01*
X140982795Y-131509744D01*
X140904774Y-131698102D01*
X140865000Y-131898061D01*
X109264455Y-131898061D01*
X109194180Y-131860498D01*
X109125313Y-131839607D01*
X109155134Y-131815134D01*
X109340706Y-131589014D01*
X109478599Y-131331034D01*
X109563513Y-131051111D01*
X109592185Y-130760000D01*
X109563513Y-130468889D01*
X109478599Y-130188966D01*
X109340706Y-129930986D01*
X109155134Y-129704866D01*
X108929014Y-129519294D01*
X108671034Y-129381401D01*
X108391111Y-129296487D01*
X108172950Y-129275000D01*
X108027050Y-129275000D01*
X107808889Y-129296487D01*
X107528966Y-129381401D01*
X107270986Y-129519294D01*
X107044866Y-129704866D01*
X106859294Y-129930986D01*
X106721401Y-130188966D01*
X106636487Y-130468889D01*
X106607815Y-130760000D01*
X103140107Y-130760000D01*
X103153475Y-130746632D01*
X103315990Y-130503411D01*
X103427932Y-130233158D01*
X103482857Y-129957034D01*
X103678169Y-130087537D01*
X103993919Y-130218325D01*
X104329117Y-130285000D01*
X104670883Y-130285000D01*
X105006081Y-130218325D01*
X105321831Y-130087537D01*
X105605998Y-129897663D01*
X105847663Y-129655998D01*
X106037537Y-129371831D01*
X106168325Y-129056081D01*
X106235000Y-128720883D01*
X106235000Y-128379117D01*
X106168325Y-128043919D01*
X106037537Y-127728169D01*
X105885080Y-127500000D01*
X110461928Y-127500000D01*
X110461928Y-129500000D01*
X110474188Y-129624482D01*
X110510498Y-129744180D01*
X110569463Y-129854494D01*
X110648815Y-129951185D01*
X110745506Y-130030537D01*
X110855820Y-130089502D01*
X110975518Y-130125812D01*
X111100000Y-130138072D01*
X113100000Y-130138072D01*
X113224482Y-130125812D01*
X113344180Y-130089502D01*
X113454494Y-130030537D01*
X113551185Y-129951185D01*
X113630537Y-129854494D01*
X113689502Y-129744180D01*
X113725812Y-129624482D01*
X113738072Y-129500000D01*
X113738072Y-128274947D01*
X136980000Y-128274947D01*
X136980000Y-128725053D01*
X137067811Y-129166510D01*
X137240059Y-129582353D01*
X137490125Y-129956603D01*
X137808397Y-130274875D01*
X138182647Y-130524941D01*
X138598490Y-130697189D01*
X139039947Y-130785000D01*
X139490053Y-130785000D01*
X139931510Y-130697189D01*
X140347353Y-130524941D01*
X140721603Y-130274875D01*
X141039875Y-129956603D01*
X141289941Y-129582353D01*
X141462189Y-129166510D01*
X141550000Y-128725053D01*
X141550000Y-128274947D01*
X141462189Y-127833490D01*
X141289941Y-127417647D01*
X141039875Y-127043397D01*
X140721603Y-126725125D01*
X140347353Y-126475059D01*
X139931510Y-126302811D01*
X139490053Y-126215000D01*
X139039947Y-126215000D01*
X138598490Y-126302811D01*
X138182647Y-126475059D01*
X137808397Y-126725125D01*
X137490125Y-127043397D01*
X137240059Y-127417647D01*
X137067811Y-127833490D01*
X136980000Y-128274947D01*
X113738072Y-128274947D01*
X113738072Y-127500000D01*
X113725812Y-127375518D01*
X113689502Y-127255820D01*
X113630537Y-127145506D01*
X113551185Y-127048815D01*
X113454494Y-126969463D01*
X113344180Y-126910498D01*
X113224482Y-126874188D01*
X113100000Y-126861928D01*
X111100000Y-126861928D01*
X110975518Y-126874188D01*
X110855820Y-126910498D01*
X110745506Y-126969463D01*
X110648815Y-127048815D01*
X110569463Y-127145506D01*
X110510498Y-127255820D01*
X110474188Y-127375518D01*
X110461928Y-127500000D01*
X105885080Y-127500000D01*
X105847663Y-127444002D01*
X105605998Y-127202337D01*
X105321831Y-127012463D01*
X105006081Y-126881675D01*
X104670883Y-126815000D01*
X104329117Y-126815000D01*
X103993919Y-126881675D01*
X103678169Y-127012463D01*
X103394002Y-127202337D01*
X103152337Y-127444002D01*
X102962463Y-127728169D01*
X102831675Y-128043919D01*
X102765000Y-128379117D01*
X102765000Y-128525162D01*
X102703411Y-128484010D01*
X102433158Y-128372068D01*
X102146260Y-128315000D01*
X101853740Y-128315000D01*
X101566842Y-128372068D01*
X101296589Y-128484010D01*
X101053368Y-128646525D01*
X100846525Y-128853368D01*
X100684010Y-129096589D01*
X100660000Y-129154555D01*
X100660000Y-125098061D01*
X116365000Y-125098061D01*
X116365000Y-125301939D01*
X116404774Y-125501898D01*
X116482795Y-125690256D01*
X116596063Y-125859774D01*
X116740226Y-126003937D01*
X116909744Y-126117205D01*
X117098102Y-126195226D01*
X117298061Y-126235000D01*
X117501939Y-126235000D01*
X117701898Y-126195226D01*
X117890256Y-126117205D01*
X118059774Y-126003937D01*
X118203937Y-125859774D01*
X118317205Y-125690256D01*
X118395226Y-125501898D01*
X118435000Y-125301939D01*
X118435000Y-125098061D01*
X118395226Y-124898102D01*
X118353788Y-124798061D01*
X121765000Y-124798061D01*
X121765000Y-125001939D01*
X121804774Y-125201898D01*
X121882795Y-125390256D01*
X121996063Y-125559774D01*
X122140226Y-125703937D01*
X122309744Y-125817205D01*
X122498102Y-125895226D01*
X122698061Y-125935000D01*
X122901939Y-125935000D01*
X123101898Y-125895226D01*
X123290256Y-125817205D01*
X123459774Y-125703937D01*
X123603937Y-125559774D01*
X123717205Y-125390256D01*
X123795226Y-125201898D01*
X123835000Y-125001939D01*
X123835000Y-124798061D01*
X123795226Y-124598102D01*
X123753788Y-124498061D01*
X129365000Y-124498061D01*
X129365000Y-124701939D01*
X129404774Y-124901898D01*
X129482795Y-125090256D01*
X129596063Y-125259774D01*
X129740226Y-125403937D01*
X129909744Y-125517205D01*
X130098102Y-125595226D01*
X130298061Y-125635000D01*
X130501939Y-125635000D01*
X130701898Y-125595226D01*
X130890256Y-125517205D01*
X131059774Y-125403937D01*
X131203937Y-125259774D01*
X131317205Y-125090256D01*
X131395226Y-124901898D01*
X131415880Y-124798061D01*
X136965000Y-124798061D01*
X136965000Y-125001939D01*
X137004774Y-125201898D01*
X137082795Y-125390256D01*
X137196063Y-125559774D01*
X137340226Y-125703937D01*
X137509744Y-125817205D01*
X137698102Y-125895226D01*
X137898061Y-125935000D01*
X138101939Y-125935000D01*
X138301898Y-125895226D01*
X138490256Y-125817205D01*
X138659774Y-125703937D01*
X138803937Y-125559774D01*
X138917205Y-125390256D01*
X138995226Y-125201898D01*
X139032832Y-125012835D01*
X145115000Y-125012835D01*
X145115000Y-125187165D01*
X145149010Y-125358145D01*
X145215723Y-125519205D01*
X145303118Y-125650000D01*
X145215723Y-125780795D01*
X145149010Y-125941855D01*
X145115000Y-126112835D01*
X145115000Y-126287165D01*
X145149010Y-126458145D01*
X145215723Y-126619205D01*
X145303118Y-126750000D01*
X145215723Y-126880795D01*
X145149010Y-127041855D01*
X145115000Y-127212835D01*
X145115000Y-127387165D01*
X145149010Y-127558145D01*
X145215723Y-127719205D01*
X145312576Y-127864155D01*
X145435845Y-127987424D01*
X145580795Y-128084277D01*
X145741855Y-128150990D01*
X145912835Y-128185000D01*
X146087165Y-128185000D01*
X146258145Y-128150990D01*
X146419205Y-128084277D01*
X146550000Y-127996882D01*
X146680795Y-128084277D01*
X146841855Y-128150990D01*
X147012835Y-128185000D01*
X147187165Y-128185000D01*
X147358145Y-128150990D01*
X147519205Y-128084277D01*
X147650000Y-127996882D01*
X147780795Y-128084277D01*
X147941855Y-128150990D01*
X148112835Y-128185000D01*
X148287165Y-128185000D01*
X148458145Y-128150990D01*
X148619205Y-128084277D01*
X148764155Y-127987424D01*
X148887424Y-127864155D01*
X148984277Y-127719205D01*
X149050990Y-127558145D01*
X149085000Y-127387165D01*
X149085000Y-127212835D01*
X149050990Y-127041855D01*
X148984277Y-126880795D01*
X148896882Y-126750000D01*
X148984277Y-126619205D01*
X149050990Y-126458145D01*
X149085000Y-126287165D01*
X149085000Y-126112835D01*
X149050990Y-125941855D01*
X148984277Y-125780795D01*
X148896882Y-125650000D01*
X148984277Y-125519205D01*
X149050990Y-125358145D01*
X149085000Y-125187165D01*
X149085000Y-125012835D01*
X149050990Y-124841855D01*
X148984277Y-124680795D01*
X148887424Y-124535845D01*
X148764155Y-124412576D01*
X148619205Y-124315723D01*
X148458145Y-124249010D01*
X148287165Y-124215000D01*
X148112835Y-124215000D01*
X147941855Y-124249010D01*
X147780795Y-124315723D01*
X147650000Y-124403118D01*
X147519205Y-124315723D01*
X147358145Y-124249010D01*
X147187165Y-124215000D01*
X147012835Y-124215000D01*
X146841855Y-124249010D01*
X146680795Y-124315723D01*
X146550000Y-124403118D01*
X146419205Y-124315723D01*
X146258145Y-124249010D01*
X146087165Y-124215000D01*
X145912835Y-124215000D01*
X145741855Y-124249010D01*
X145580795Y-124315723D01*
X145435845Y-124412576D01*
X145312576Y-124535845D01*
X145215723Y-124680795D01*
X145149010Y-124841855D01*
X145115000Y-125012835D01*
X139032832Y-125012835D01*
X139035000Y-125001939D01*
X139035000Y-124798061D01*
X138995226Y-124598102D01*
X138917205Y-124409744D01*
X138803937Y-124240226D01*
X138659774Y-124096063D01*
X138490256Y-123982795D01*
X138301898Y-123904774D01*
X138101939Y-123865000D01*
X137898061Y-123865000D01*
X137698102Y-123904774D01*
X137509744Y-123982795D01*
X137340226Y-124096063D01*
X137196063Y-124240226D01*
X137082795Y-124409744D01*
X137004774Y-124598102D01*
X136965000Y-124798061D01*
X131415880Y-124798061D01*
X131435000Y-124701939D01*
X131435000Y-124498061D01*
X131395226Y-124298102D01*
X131317205Y-124109744D01*
X131203937Y-123940226D01*
X131059774Y-123796063D01*
X130890256Y-123682795D01*
X130701898Y-123604774D01*
X130501939Y-123565000D01*
X130298061Y-123565000D01*
X130098102Y-123604774D01*
X129909744Y-123682795D01*
X129740226Y-123796063D01*
X129596063Y-123940226D01*
X129482795Y-124109744D01*
X129404774Y-124298102D01*
X129365000Y-124498061D01*
X123753788Y-124498061D01*
X123717205Y-124409744D01*
X123603937Y-124240226D01*
X123459774Y-124096063D01*
X123290256Y-123982795D01*
X123101898Y-123904774D01*
X122901939Y-123865000D01*
X122698061Y-123865000D01*
X122498102Y-123904774D01*
X122309744Y-123982795D01*
X122140226Y-124096063D01*
X121996063Y-124240226D01*
X121882795Y-124409744D01*
X121804774Y-124598102D01*
X121765000Y-124798061D01*
X118353788Y-124798061D01*
X118317205Y-124709744D01*
X118203937Y-124540226D01*
X118059774Y-124396063D01*
X117890256Y-124282795D01*
X117701898Y-124204774D01*
X117501939Y-124165000D01*
X117298061Y-124165000D01*
X117098102Y-124204774D01*
X116909744Y-124282795D01*
X116740226Y-124396063D01*
X116596063Y-124540226D01*
X116482795Y-124709744D01*
X116404774Y-124898102D01*
X116365000Y-125098061D01*
X100660000Y-125098061D01*
X100660000Y-123394181D01*
X100898096Y-123466407D01*
X101086877Y-123485000D01*
X102513123Y-123485000D01*
X102701904Y-123466407D01*
X102944127Y-123392929D01*
X103167362Y-123273608D01*
X103363028Y-123113028D01*
X103523608Y-122917362D01*
X103642929Y-122694127D01*
X103716407Y-122451904D01*
X103741217Y-122200000D01*
X105419267Y-122200000D01*
X105442147Y-122432300D01*
X105509906Y-122655674D01*
X105619942Y-122861536D01*
X105768025Y-123041975D01*
X105948464Y-123190058D01*
X106154326Y-123300094D01*
X106377700Y-123367853D01*
X106551793Y-123385000D01*
X107768207Y-123385000D01*
X107942300Y-123367853D01*
X108165674Y-123300094D01*
X108371536Y-123190058D01*
X108483634Y-123098061D01*
X124365000Y-123098061D01*
X124365000Y-123301939D01*
X124404774Y-123501898D01*
X124482795Y-123690256D01*
X124596063Y-123859774D01*
X124740226Y-124003937D01*
X124909744Y-124117205D01*
X125098102Y-124195226D01*
X125298061Y-124235000D01*
X125501939Y-124235000D01*
X125701898Y-124195226D01*
X125890256Y-124117205D01*
X126059774Y-124003937D01*
X126203937Y-123859774D01*
X126317205Y-123690256D01*
X126395226Y-123501898D01*
X126435000Y-123301939D01*
X126435000Y-123098061D01*
X126395226Y-122898102D01*
X126317205Y-122709744D01*
X126203937Y-122540226D01*
X126059774Y-122396063D01*
X125890256Y-122282795D01*
X125701898Y-122204774D01*
X125501939Y-122165000D01*
X125298061Y-122165000D01*
X125098102Y-122204774D01*
X124909744Y-122282795D01*
X124740226Y-122396063D01*
X124596063Y-122540226D01*
X124482795Y-122709744D01*
X124404774Y-122898102D01*
X124365000Y-123098061D01*
X108483634Y-123098061D01*
X108551975Y-123041975D01*
X108700058Y-122861536D01*
X108810094Y-122655674D01*
X108877853Y-122432300D01*
X108900733Y-122200000D01*
X108900294Y-122195545D01*
X108901898Y-122195226D01*
X109090256Y-122117205D01*
X109259774Y-122003937D01*
X109265650Y-121998061D01*
X126465000Y-121998061D01*
X126465000Y-122201939D01*
X126504774Y-122401898D01*
X126582795Y-122590256D01*
X126696063Y-122759774D01*
X126840226Y-122903937D01*
X127009744Y-123017205D01*
X127198102Y-123095226D01*
X127398061Y-123135000D01*
X127601939Y-123135000D01*
X127801898Y-123095226D01*
X127990256Y-123017205D01*
X128159774Y-122903937D01*
X128303937Y-122759774D01*
X128345172Y-122698061D01*
X159765000Y-122698061D01*
X159765000Y-122901939D01*
X159804774Y-123101898D01*
X159882795Y-123290256D01*
X159996063Y-123459774D01*
X160140226Y-123603937D01*
X160309744Y-123717205D01*
X160498102Y-123795226D01*
X160698061Y-123835000D01*
X160901939Y-123835000D01*
X161101898Y-123795226D01*
X161290256Y-123717205D01*
X161459774Y-123603937D01*
X161603937Y-123459774D01*
X161717205Y-123290256D01*
X161795226Y-123101898D01*
X161835000Y-122901939D01*
X161835000Y-122798061D01*
X165865000Y-122798061D01*
X165865000Y-123001939D01*
X165904774Y-123201898D01*
X165982795Y-123390256D01*
X166096063Y-123559774D01*
X166240226Y-123703937D01*
X166409744Y-123817205D01*
X166598102Y-123895226D01*
X166798061Y-123935000D01*
X167001939Y-123935000D01*
X167201898Y-123895226D01*
X167390256Y-123817205D01*
X167559774Y-123703937D01*
X167703937Y-123559774D01*
X167817205Y-123390256D01*
X167895226Y-123201898D01*
X167935000Y-123001939D01*
X167935000Y-122798061D01*
X167895226Y-122598102D01*
X167817205Y-122409744D01*
X167703937Y-122240226D01*
X167559774Y-122096063D01*
X167390256Y-121982795D01*
X167201898Y-121904774D01*
X167001939Y-121865000D01*
X166798061Y-121865000D01*
X166598102Y-121904774D01*
X166409744Y-121982795D01*
X166240226Y-122096063D01*
X166096063Y-122240226D01*
X165982795Y-122409744D01*
X165904774Y-122598102D01*
X165865000Y-122798061D01*
X161835000Y-122798061D01*
X161835000Y-122698061D01*
X161795226Y-122498102D01*
X161717205Y-122309744D01*
X161603937Y-122140226D01*
X161459774Y-121996063D01*
X161290256Y-121882795D01*
X161101898Y-121804774D01*
X160901939Y-121765000D01*
X160698061Y-121765000D01*
X160498102Y-121804774D01*
X160309744Y-121882795D01*
X160140226Y-121996063D01*
X159996063Y-122140226D01*
X159882795Y-122309744D01*
X159804774Y-122498102D01*
X159765000Y-122698061D01*
X128345172Y-122698061D01*
X128417205Y-122590256D01*
X128495226Y-122401898D01*
X128535000Y-122201939D01*
X128535000Y-121998061D01*
X128495226Y-121798102D01*
X128417205Y-121609744D01*
X128303937Y-121440226D01*
X128159774Y-121296063D01*
X127990256Y-121182795D01*
X127801898Y-121104774D01*
X127601939Y-121065000D01*
X127398061Y-121065000D01*
X127198102Y-121104774D01*
X127009744Y-121182795D01*
X126840226Y-121296063D01*
X126696063Y-121440226D01*
X126582795Y-121609744D01*
X126504774Y-121798102D01*
X126465000Y-121998061D01*
X109265650Y-121998061D01*
X109403937Y-121859774D01*
X109517205Y-121690256D01*
X109595226Y-121501898D01*
X109635000Y-121301939D01*
X109635000Y-121098061D01*
X109595226Y-120898102D01*
X109517205Y-120709744D01*
X109403937Y-120540226D01*
X109259774Y-120396063D01*
X109090256Y-120282795D01*
X108901898Y-120204774D01*
X108701939Y-120165000D01*
X108498061Y-120165000D01*
X108298102Y-120204774D01*
X108109744Y-120282795D01*
X107940226Y-120396063D01*
X107796063Y-120540226D01*
X107682795Y-120709744D01*
X107604774Y-120898102D01*
X107581522Y-121015000D01*
X106551793Y-121015000D01*
X106377700Y-121032147D01*
X106154326Y-121099906D01*
X105948464Y-121209942D01*
X105768025Y-121358025D01*
X105619942Y-121538464D01*
X105509906Y-121744326D01*
X105442147Y-121967700D01*
X105419267Y-122200000D01*
X103741217Y-122200000D01*
X103716407Y-121948096D01*
X103642929Y-121705873D01*
X103523608Y-121482638D01*
X103363028Y-121286972D01*
X103167362Y-121126392D01*
X102944127Y-121007071D01*
X102701904Y-120933593D01*
X102513123Y-120915000D01*
X101086877Y-120915000D01*
X100898096Y-120933593D01*
X100660000Y-121005819D01*
X100660000Y-118498061D01*
X116665000Y-118498061D01*
X116665000Y-118701939D01*
X116704774Y-118901898D01*
X116782795Y-119090256D01*
X116896063Y-119259774D01*
X117040226Y-119403937D01*
X117209744Y-119517205D01*
X117398102Y-119595226D01*
X117598061Y-119635000D01*
X117801939Y-119635000D01*
X118001898Y-119595226D01*
X118190256Y-119517205D01*
X118359774Y-119403937D01*
X118503937Y-119259774D01*
X118617205Y-119090256D01*
X118655393Y-118998061D01*
X123065000Y-118998061D01*
X123065000Y-119201939D01*
X123104774Y-119401898D01*
X123182795Y-119590256D01*
X123296063Y-119759774D01*
X123440226Y-119903937D01*
X123609744Y-120017205D01*
X123798102Y-120095226D01*
X123998061Y-120135000D01*
X124201939Y-120135000D01*
X124401898Y-120095226D01*
X124480096Y-120062835D01*
X125065000Y-120062835D01*
X125065000Y-120237165D01*
X125099010Y-120408145D01*
X125165723Y-120569205D01*
X125262576Y-120714155D01*
X125385845Y-120837424D01*
X125530795Y-120934277D01*
X125691855Y-121000990D01*
X125862835Y-121035000D01*
X126037165Y-121035000D01*
X126208145Y-121000990D01*
X126369205Y-120934277D01*
X126514155Y-120837424D01*
X126637424Y-120714155D01*
X126734277Y-120569205D01*
X126800990Y-120408145D01*
X126835000Y-120237165D01*
X126835000Y-120062835D01*
X127165000Y-120062835D01*
X127165000Y-120237165D01*
X127199010Y-120408145D01*
X127265723Y-120569205D01*
X127362576Y-120714155D01*
X127485845Y-120837424D01*
X127630795Y-120934277D01*
X127791855Y-121000990D01*
X127962835Y-121035000D01*
X128137165Y-121035000D01*
X128308145Y-121000990D01*
X128469205Y-120934277D01*
X128614155Y-120837424D01*
X128737424Y-120714155D01*
X128834277Y-120569205D01*
X128863745Y-120498061D01*
X151565000Y-120498061D01*
X151565000Y-120701939D01*
X151604774Y-120901898D01*
X151682795Y-121090256D01*
X151796063Y-121259774D01*
X151940226Y-121403937D01*
X152109744Y-121517205D01*
X152298102Y-121595226D01*
X152498061Y-121635000D01*
X152701939Y-121635000D01*
X152901898Y-121595226D01*
X153090256Y-121517205D01*
X153259774Y-121403937D01*
X153403937Y-121259774D01*
X153517205Y-121090256D01*
X153595226Y-120901898D01*
X153635000Y-120701939D01*
X153635000Y-120498061D01*
X153595226Y-120298102D01*
X153517205Y-120109744D01*
X153403937Y-119940226D01*
X153377300Y-119913589D01*
X160115000Y-119913589D01*
X160115000Y-120186411D01*
X160168225Y-120453989D01*
X160272629Y-120706043D01*
X160424201Y-120932886D01*
X160617114Y-121125799D01*
X160843957Y-121277371D01*
X161096011Y-121381775D01*
X161363589Y-121435000D01*
X161636411Y-121435000D01*
X161903989Y-121381775D01*
X162156043Y-121277371D01*
X162382886Y-121125799D01*
X162575799Y-120932886D01*
X162727371Y-120706043D01*
X162831775Y-120453989D01*
X162885000Y-120186411D01*
X162885000Y-119913589D01*
X162831775Y-119646011D01*
X162727371Y-119393957D01*
X162575799Y-119167114D01*
X162382886Y-118974201D01*
X162156043Y-118822629D01*
X161903989Y-118718225D01*
X161636411Y-118665000D01*
X161363589Y-118665000D01*
X161096011Y-118718225D01*
X160843957Y-118822629D01*
X160617114Y-118974201D01*
X160424201Y-119167114D01*
X160272629Y-119393957D01*
X160168225Y-119646011D01*
X160115000Y-119913589D01*
X153377300Y-119913589D01*
X153259774Y-119796063D01*
X153090256Y-119682795D01*
X152901898Y-119604774D01*
X152701939Y-119565000D01*
X152498061Y-119565000D01*
X152298102Y-119604774D01*
X152109744Y-119682795D01*
X151940226Y-119796063D01*
X151796063Y-119940226D01*
X151682795Y-120109744D01*
X151604774Y-120298102D01*
X151565000Y-120498061D01*
X128863745Y-120498061D01*
X128900990Y-120408145D01*
X128935000Y-120237165D01*
X128935000Y-120062835D01*
X128900990Y-119891855D01*
X128834277Y-119730795D01*
X128737424Y-119585845D01*
X128614155Y-119462576D01*
X128469205Y-119365723D01*
X128308145Y-119299010D01*
X128137165Y-119265000D01*
X127962835Y-119265000D01*
X127791855Y-119299010D01*
X127630795Y-119365723D01*
X127485845Y-119462576D01*
X127362576Y-119585845D01*
X127265723Y-119730795D01*
X127199010Y-119891855D01*
X127165000Y-120062835D01*
X126835000Y-120062835D01*
X126800990Y-119891855D01*
X126734277Y-119730795D01*
X126637424Y-119585845D01*
X126514155Y-119462576D01*
X126369205Y-119365723D01*
X126208145Y-119299010D01*
X126037165Y-119265000D01*
X125862835Y-119265000D01*
X125691855Y-119299010D01*
X125530795Y-119365723D01*
X125385845Y-119462576D01*
X125262576Y-119585845D01*
X125165723Y-119730795D01*
X125099010Y-119891855D01*
X125065000Y-120062835D01*
X124480096Y-120062835D01*
X124590256Y-120017205D01*
X124759774Y-119903937D01*
X124903937Y-119759774D01*
X125017205Y-119590256D01*
X125095226Y-119401898D01*
X125135000Y-119201939D01*
X125135000Y-118998061D01*
X125095226Y-118798102D01*
X125017205Y-118609744D01*
X124903937Y-118440226D01*
X124759774Y-118296063D01*
X124590256Y-118182795D01*
X124401898Y-118104774D01*
X124201939Y-118065000D01*
X123998061Y-118065000D01*
X123798102Y-118104774D01*
X123609744Y-118182795D01*
X123440226Y-118296063D01*
X123296063Y-118440226D01*
X123182795Y-118609744D01*
X123104774Y-118798102D01*
X123065000Y-118998061D01*
X118655393Y-118998061D01*
X118695226Y-118901898D01*
X118735000Y-118701939D01*
X118735000Y-118498061D01*
X118695226Y-118298102D01*
X118617205Y-118109744D01*
X118519044Y-117962835D01*
X125065000Y-117962835D01*
X125065000Y-118137165D01*
X125099010Y-118308145D01*
X125165723Y-118469205D01*
X125262576Y-118614155D01*
X125385845Y-118737424D01*
X125530795Y-118834277D01*
X125691855Y-118900990D01*
X125862835Y-118935000D01*
X126037165Y-118935000D01*
X126208145Y-118900990D01*
X126369205Y-118834277D01*
X126514155Y-118737424D01*
X126637424Y-118614155D01*
X126734277Y-118469205D01*
X126800990Y-118308145D01*
X126835000Y-118137165D01*
X126835000Y-117962835D01*
X127165000Y-117962835D01*
X127165000Y-118137165D01*
X127199010Y-118308145D01*
X127265723Y-118469205D01*
X127362576Y-118614155D01*
X127485845Y-118737424D01*
X127630795Y-118834277D01*
X127791855Y-118900990D01*
X127962835Y-118935000D01*
X128137165Y-118935000D01*
X128308145Y-118900990D01*
X128469205Y-118834277D01*
X128614155Y-118737424D01*
X128737424Y-118614155D01*
X128834277Y-118469205D01*
X128900990Y-118308145D01*
X128935000Y-118137165D01*
X128935000Y-117962835D01*
X128900990Y-117791855D01*
X128834277Y-117630795D01*
X128737424Y-117485845D01*
X128614155Y-117362576D01*
X128469205Y-117265723D01*
X128407624Y-117240215D01*
X128955410Y-117240215D01*
X128955410Y-117444093D01*
X128995184Y-117644052D01*
X129073205Y-117832410D01*
X129186473Y-118001928D01*
X129330636Y-118146091D01*
X129500154Y-118259359D01*
X129688512Y-118337380D01*
X129888471Y-118377154D01*
X130092349Y-118377154D01*
X130292308Y-118337380D01*
X130480666Y-118259359D01*
X130650184Y-118146091D01*
X130794347Y-118001928D01*
X130796930Y-117998061D01*
X138465000Y-117998061D01*
X138465000Y-118201939D01*
X138504774Y-118401898D01*
X138582795Y-118590256D01*
X138696063Y-118759774D01*
X138840226Y-118903937D01*
X139009744Y-119017205D01*
X139198102Y-119095226D01*
X139398061Y-119135000D01*
X139601939Y-119135000D01*
X139801898Y-119095226D01*
X139990256Y-119017205D01*
X140159774Y-118903937D01*
X140303937Y-118759774D01*
X140411989Y-118598061D01*
X141965000Y-118598061D01*
X141965000Y-118801939D01*
X142004774Y-119001898D01*
X142082795Y-119190256D01*
X142196063Y-119359774D01*
X142340226Y-119503937D01*
X142509744Y-119617205D01*
X142698102Y-119695226D01*
X142898061Y-119735000D01*
X143101939Y-119735000D01*
X143301898Y-119695226D01*
X143490256Y-119617205D01*
X143659774Y-119503937D01*
X143803937Y-119359774D01*
X143917205Y-119190256D01*
X143995226Y-119001898D01*
X144035000Y-118801939D01*
X144035000Y-118598061D01*
X143995226Y-118398102D01*
X143917205Y-118209744D01*
X143803937Y-118040226D01*
X143659774Y-117896063D01*
X143490256Y-117782795D01*
X143301898Y-117704774D01*
X143101939Y-117665000D01*
X142898061Y-117665000D01*
X142698102Y-117704774D01*
X142509744Y-117782795D01*
X142340226Y-117896063D01*
X142196063Y-118040226D01*
X142082795Y-118209744D01*
X142004774Y-118398102D01*
X141965000Y-118598061D01*
X140411989Y-118598061D01*
X140417205Y-118590256D01*
X140495226Y-118401898D01*
X140535000Y-118201939D01*
X140535000Y-117998061D01*
X140495226Y-117798102D01*
X140417205Y-117609744D01*
X140303937Y-117440226D01*
X140159774Y-117296063D01*
X139990256Y-117182795D01*
X139801898Y-117104774D01*
X139601939Y-117065000D01*
X139398061Y-117065000D01*
X139198102Y-117104774D01*
X139009744Y-117182795D01*
X138840226Y-117296063D01*
X138696063Y-117440226D01*
X138582795Y-117609744D01*
X138504774Y-117798102D01*
X138465000Y-117998061D01*
X130796930Y-117998061D01*
X130907615Y-117832410D01*
X130985636Y-117644052D01*
X131025410Y-117444093D01*
X131025410Y-117240215D01*
X130985636Y-117040256D01*
X130907615Y-116851898D01*
X130794347Y-116682380D01*
X130650184Y-116538217D01*
X130480666Y-116424949D01*
X130292308Y-116346928D01*
X130092349Y-116307154D01*
X129888471Y-116307154D01*
X129688512Y-116346928D01*
X129500154Y-116424949D01*
X129330636Y-116538217D01*
X129186473Y-116682380D01*
X129073205Y-116851898D01*
X128995184Y-117040256D01*
X128955410Y-117240215D01*
X128407624Y-117240215D01*
X128308145Y-117199010D01*
X128137165Y-117165000D01*
X127962835Y-117165000D01*
X127791855Y-117199010D01*
X127630795Y-117265723D01*
X127485845Y-117362576D01*
X127362576Y-117485845D01*
X127265723Y-117630795D01*
X127199010Y-117791855D01*
X127165000Y-117962835D01*
X126835000Y-117962835D01*
X126800990Y-117791855D01*
X126734277Y-117630795D01*
X126637424Y-117485845D01*
X126514155Y-117362576D01*
X126369205Y-117265723D01*
X126208145Y-117199010D01*
X126037165Y-117165000D01*
X125862835Y-117165000D01*
X125691855Y-117199010D01*
X125530795Y-117265723D01*
X125385845Y-117362576D01*
X125262576Y-117485845D01*
X125165723Y-117630795D01*
X125099010Y-117791855D01*
X125065000Y-117962835D01*
X118519044Y-117962835D01*
X118503937Y-117940226D01*
X118359774Y-117796063D01*
X118190256Y-117682795D01*
X118001898Y-117604774D01*
X117801939Y-117565000D01*
X117598061Y-117565000D01*
X117398102Y-117604774D01*
X117209744Y-117682795D01*
X117040226Y-117796063D01*
X116896063Y-117940226D01*
X116782795Y-118109744D01*
X116704774Y-118298102D01*
X116665000Y-118498061D01*
X100660000Y-118498061D01*
X100660000Y-117007729D01*
X107462122Y-117007729D01*
X107462122Y-117177135D01*
X107495171Y-117343285D01*
X107560000Y-117499795D01*
X107654117Y-117640650D01*
X107773904Y-117760437D01*
X107914759Y-117854554D01*
X108071269Y-117919383D01*
X108237419Y-117952432D01*
X108406825Y-117952432D01*
X108572975Y-117919383D01*
X108729485Y-117854554D01*
X108870340Y-117760437D01*
X108990127Y-117640650D01*
X109084244Y-117499795D01*
X109149073Y-117343285D01*
X109182122Y-117177135D01*
X109182122Y-117007729D01*
X109149073Y-116841579D01*
X109084244Y-116685069D01*
X108990127Y-116544214D01*
X108870340Y-116424427D01*
X108729485Y-116330310D01*
X108572975Y-116265481D01*
X108406825Y-116232432D01*
X108237419Y-116232432D01*
X108071269Y-116265481D01*
X107914759Y-116330310D01*
X107773904Y-116424427D01*
X107654117Y-116544214D01*
X107560000Y-116685069D01*
X107495171Y-116841579D01*
X107462122Y-117007729D01*
X100660000Y-117007729D01*
X100660000Y-116098061D01*
X142365000Y-116098061D01*
X142365000Y-116301939D01*
X142404774Y-116501898D01*
X142482795Y-116690256D01*
X142596063Y-116859774D01*
X142740226Y-117003937D01*
X142909744Y-117117205D01*
X143098102Y-117195226D01*
X143298061Y-117235000D01*
X143501939Y-117235000D01*
X143701898Y-117195226D01*
X143890256Y-117117205D01*
X144059774Y-117003937D01*
X144203937Y-116859774D01*
X144317205Y-116690256D01*
X144395226Y-116501898D01*
X144435000Y-116301939D01*
X144435000Y-116098061D01*
X144395226Y-115898102D01*
X144317205Y-115709744D01*
X144203937Y-115540226D01*
X144059774Y-115396063D01*
X143890256Y-115282795D01*
X143701898Y-115204774D01*
X143501939Y-115165000D01*
X143298061Y-115165000D01*
X143098102Y-115204774D01*
X142909744Y-115282795D01*
X142740226Y-115396063D01*
X142596063Y-115540226D01*
X142482795Y-115709744D01*
X142404774Y-115898102D01*
X142365000Y-116098061D01*
X100660000Y-116098061D01*
X100660000Y-114754181D01*
X100898096Y-114826407D01*
X101086877Y-114845000D01*
X102513123Y-114845000D01*
X102701904Y-114826407D01*
X102944127Y-114752929D01*
X103167362Y-114633608D01*
X103363028Y-114473028D01*
X103523608Y-114277362D01*
X103642929Y-114054127D01*
X103716407Y-113811904D01*
X103741217Y-113560000D01*
X103716407Y-113308096D01*
X103642929Y-113065873D01*
X103523608Y-112842638D01*
X103363028Y-112646972D01*
X103167362Y-112486392D01*
X102944127Y-112367071D01*
X102701904Y-112293593D01*
X102513123Y-112275000D01*
X101086877Y-112275000D01*
X100898096Y-112293593D01*
X100660000Y-112365819D01*
X100660000Y-112215297D01*
X104840000Y-112215297D01*
X104840000Y-112384703D01*
X104873049Y-112550853D01*
X104937878Y-112707363D01*
X105031995Y-112848218D01*
X105151782Y-112968005D01*
X105292637Y-113062122D01*
X105449147Y-113126951D01*
X105499976Y-113137061D01*
X105442147Y-113327700D01*
X105419267Y-113560000D01*
X105442147Y-113792300D01*
X105509906Y-114015674D01*
X105619942Y-114221536D01*
X105768025Y-114401975D01*
X105948464Y-114550058D01*
X106154326Y-114660094D01*
X106377700Y-114727853D01*
X106551793Y-114745000D01*
X107573565Y-114745000D01*
X107604774Y-114901898D01*
X107682795Y-115090256D01*
X107796063Y-115259774D01*
X107940226Y-115403937D01*
X108109744Y-115517205D01*
X108298102Y-115595226D01*
X108498061Y-115635000D01*
X108701939Y-115635000D01*
X108901898Y-115595226D01*
X109090256Y-115517205D01*
X109259774Y-115403937D01*
X109403937Y-115259774D01*
X109517205Y-115090256D01*
X109595226Y-114901898D01*
X109635000Y-114701939D01*
X109635000Y-114498061D01*
X109595226Y-114298102D01*
X109517205Y-114109744D01*
X109403937Y-113940226D01*
X109259774Y-113796063D01*
X109090256Y-113682795D01*
X108901898Y-113604774D01*
X108896430Y-113603686D01*
X108900733Y-113560000D01*
X108879948Y-113348967D01*
X110465000Y-113348967D01*
X110465000Y-113671033D01*
X110527832Y-113986912D01*
X110651082Y-114284463D01*
X110830013Y-114552252D01*
X111057748Y-114779987D01*
X111325537Y-114958918D01*
X111623088Y-115082168D01*
X111938967Y-115145000D01*
X112261033Y-115145000D01*
X112576912Y-115082168D01*
X112874463Y-114958918D01*
X113142252Y-114779987D01*
X113369987Y-114552252D01*
X113548918Y-114284463D01*
X113584706Y-114198061D01*
X120365000Y-114198061D01*
X120365000Y-114401939D01*
X120404774Y-114601898D01*
X120482795Y-114790256D01*
X120596063Y-114959774D01*
X120740226Y-115103937D01*
X120909744Y-115217205D01*
X121098102Y-115295226D01*
X121298061Y-115335000D01*
X121501939Y-115335000D01*
X121701898Y-115295226D01*
X121890256Y-115217205D01*
X122059774Y-115103937D01*
X122203937Y-114959774D01*
X122317205Y-114790256D01*
X122395226Y-114601898D01*
X122435000Y-114401939D01*
X122435000Y-114198061D01*
X122395226Y-113998102D01*
X122317205Y-113809744D01*
X122242582Y-113698061D01*
X123965000Y-113698061D01*
X123965000Y-113901939D01*
X124004774Y-114101898D01*
X124082795Y-114290256D01*
X124196063Y-114459774D01*
X124340226Y-114603937D01*
X124509744Y-114717205D01*
X124698102Y-114795226D01*
X124898061Y-114835000D01*
X125101939Y-114835000D01*
X125301898Y-114795226D01*
X125490256Y-114717205D01*
X125659774Y-114603937D01*
X125803937Y-114459774D01*
X125917205Y-114290256D01*
X125995226Y-114101898D01*
X126035000Y-113901939D01*
X126035000Y-113698061D01*
X128965000Y-113698061D01*
X128965000Y-113901939D01*
X129004774Y-114101898D01*
X129082795Y-114290256D01*
X129196063Y-114459774D01*
X129340226Y-114603937D01*
X129509744Y-114717205D01*
X129698102Y-114795226D01*
X129898061Y-114835000D01*
X130101939Y-114835000D01*
X130301898Y-114795226D01*
X130490256Y-114717205D01*
X130659774Y-114603937D01*
X130803937Y-114459774D01*
X130917205Y-114290256D01*
X130995226Y-114101898D01*
X131035000Y-113901939D01*
X131035000Y-113698061D01*
X130995226Y-113498102D01*
X130917205Y-113309744D01*
X130900637Y-113284947D01*
X136980000Y-113284947D01*
X136980000Y-113735053D01*
X137067811Y-114176510D01*
X137240059Y-114592353D01*
X137490125Y-114966603D01*
X137808397Y-115284875D01*
X138182647Y-115534941D01*
X138598490Y-115707189D01*
X139039947Y-115795000D01*
X139490053Y-115795000D01*
X139931510Y-115707189D01*
X140347353Y-115534941D01*
X140721603Y-115284875D01*
X140992889Y-115013589D01*
X160115000Y-115013589D01*
X160115000Y-115286411D01*
X160168225Y-115553989D01*
X160272629Y-115806043D01*
X160424201Y-116032886D01*
X160617114Y-116225799D01*
X160843957Y-116377371D01*
X161096011Y-116481775D01*
X161363589Y-116535000D01*
X161636411Y-116535000D01*
X161903989Y-116481775D01*
X162156043Y-116377371D01*
X162382886Y-116225799D01*
X162575799Y-116032886D01*
X162727371Y-115806043D01*
X162831775Y-115553989D01*
X162885000Y-115286411D01*
X162885000Y-115013589D01*
X162831775Y-114746011D01*
X162727371Y-114493957D01*
X162575799Y-114267114D01*
X162382886Y-114074201D01*
X162156043Y-113922629D01*
X161903989Y-113818225D01*
X161636411Y-113765000D01*
X161363589Y-113765000D01*
X161096011Y-113818225D01*
X160843957Y-113922629D01*
X160617114Y-114074201D01*
X160424201Y-114267114D01*
X160272629Y-114493957D01*
X160168225Y-114746011D01*
X160115000Y-115013589D01*
X140992889Y-115013589D01*
X141039875Y-114966603D01*
X141289941Y-114592353D01*
X141462189Y-114176510D01*
X141550000Y-113735053D01*
X141550000Y-113598061D01*
X152865000Y-113598061D01*
X152865000Y-113801939D01*
X152904774Y-114001898D01*
X152982795Y-114190256D01*
X153096063Y-114359774D01*
X153240226Y-114503937D01*
X153409744Y-114617205D01*
X153598102Y-114695226D01*
X153798061Y-114735000D01*
X154001939Y-114735000D01*
X154201898Y-114695226D01*
X154390256Y-114617205D01*
X154559774Y-114503937D01*
X154703937Y-114359774D01*
X154817205Y-114190256D01*
X154895226Y-114001898D01*
X154935000Y-113801939D01*
X154935000Y-113598061D01*
X154895226Y-113398102D01*
X154817205Y-113209744D01*
X154703937Y-113040226D01*
X154559774Y-112896063D01*
X154390256Y-112782795D01*
X154201898Y-112704774D01*
X154001939Y-112665000D01*
X153798061Y-112665000D01*
X153598102Y-112704774D01*
X153409744Y-112782795D01*
X153240226Y-112896063D01*
X153096063Y-113040226D01*
X152982795Y-113209744D01*
X152904774Y-113398102D01*
X152865000Y-113598061D01*
X141550000Y-113598061D01*
X141550000Y-113284947D01*
X141462189Y-112843490D01*
X141360529Y-112598061D01*
X157365000Y-112598061D01*
X157365000Y-112801939D01*
X157404774Y-113001898D01*
X157482795Y-113190256D01*
X157596063Y-113359774D01*
X157740226Y-113503937D01*
X157909744Y-113617205D01*
X158098102Y-113695226D01*
X158298061Y-113735000D01*
X158501939Y-113735000D01*
X158701898Y-113695226D01*
X158890256Y-113617205D01*
X159059774Y-113503937D01*
X159203937Y-113359774D01*
X159317205Y-113190256D01*
X159395226Y-113001898D01*
X159435000Y-112801939D01*
X159435000Y-112598061D01*
X159395226Y-112398102D01*
X159317205Y-112209744D01*
X159309399Y-112198061D01*
X159765000Y-112198061D01*
X159765000Y-112401939D01*
X159804774Y-112601898D01*
X159882795Y-112790256D01*
X159996063Y-112959774D01*
X160140226Y-113103937D01*
X160309744Y-113217205D01*
X160498102Y-113295226D01*
X160698061Y-113335000D01*
X160901939Y-113335000D01*
X161101898Y-113295226D01*
X161290256Y-113217205D01*
X161459774Y-113103937D01*
X161603937Y-112959774D01*
X161717205Y-112790256D01*
X161795226Y-112601898D01*
X161835000Y-112401939D01*
X161835000Y-112198061D01*
X165865000Y-112198061D01*
X165865000Y-112401939D01*
X165904774Y-112601898D01*
X165982795Y-112790256D01*
X166096063Y-112959774D01*
X166240226Y-113103937D01*
X166409744Y-113217205D01*
X166598102Y-113295226D01*
X166798061Y-113335000D01*
X167001939Y-113335000D01*
X167201898Y-113295226D01*
X167390256Y-113217205D01*
X167559774Y-113103937D01*
X167703937Y-112959774D01*
X167817205Y-112790256D01*
X167895226Y-112601898D01*
X167935000Y-112401939D01*
X167935000Y-112198061D01*
X167895226Y-111998102D01*
X167817205Y-111809744D01*
X167703937Y-111640226D01*
X167559774Y-111496063D01*
X167390256Y-111382795D01*
X167201898Y-111304774D01*
X167001939Y-111265000D01*
X166798061Y-111265000D01*
X166598102Y-111304774D01*
X166409744Y-111382795D01*
X166240226Y-111496063D01*
X166096063Y-111640226D01*
X165982795Y-111809744D01*
X165904774Y-111998102D01*
X165865000Y-112198061D01*
X161835000Y-112198061D01*
X161795226Y-111998102D01*
X161717205Y-111809744D01*
X161603937Y-111640226D01*
X161459774Y-111496063D01*
X161290256Y-111382795D01*
X161101898Y-111304774D01*
X160901939Y-111265000D01*
X160698061Y-111265000D01*
X160498102Y-111304774D01*
X160309744Y-111382795D01*
X160140226Y-111496063D01*
X159996063Y-111640226D01*
X159882795Y-111809744D01*
X159804774Y-111998102D01*
X159765000Y-112198061D01*
X159309399Y-112198061D01*
X159203937Y-112040226D01*
X159059774Y-111896063D01*
X158890256Y-111782795D01*
X158701898Y-111704774D01*
X158501939Y-111665000D01*
X158298061Y-111665000D01*
X158098102Y-111704774D01*
X157909744Y-111782795D01*
X157740226Y-111896063D01*
X157596063Y-112040226D01*
X157482795Y-112209744D01*
X157404774Y-112398102D01*
X157365000Y-112598061D01*
X141360529Y-112598061D01*
X141289941Y-112427647D01*
X141039875Y-112053397D01*
X140721603Y-111735125D01*
X140347353Y-111485059D01*
X139931510Y-111312811D01*
X139490053Y-111225000D01*
X139039947Y-111225000D01*
X138598490Y-111312811D01*
X138182647Y-111485059D01*
X137808397Y-111735125D01*
X137490125Y-112053397D01*
X137240059Y-112427647D01*
X137067811Y-112843490D01*
X136980000Y-113284947D01*
X130900637Y-113284947D01*
X130803937Y-113140226D01*
X130659774Y-112996063D01*
X130490256Y-112882795D01*
X130301898Y-112804774D01*
X130101939Y-112765000D01*
X129898061Y-112765000D01*
X129698102Y-112804774D01*
X129509744Y-112882795D01*
X129340226Y-112996063D01*
X129196063Y-113140226D01*
X129082795Y-113309744D01*
X129004774Y-113498102D01*
X128965000Y-113698061D01*
X126035000Y-113698061D01*
X125995226Y-113498102D01*
X125917205Y-113309744D01*
X125803937Y-113140226D01*
X125659774Y-112996063D01*
X125490256Y-112882795D01*
X125301898Y-112804774D01*
X125101939Y-112765000D01*
X124898061Y-112765000D01*
X124698102Y-112804774D01*
X124509744Y-112882795D01*
X124340226Y-112996063D01*
X124196063Y-113140226D01*
X124082795Y-113309744D01*
X124004774Y-113498102D01*
X123965000Y-113698061D01*
X122242582Y-113698061D01*
X122203937Y-113640226D01*
X122059774Y-113496063D01*
X121890256Y-113382795D01*
X121701898Y-113304774D01*
X121501939Y-113265000D01*
X121298061Y-113265000D01*
X121098102Y-113304774D01*
X120909744Y-113382795D01*
X120740226Y-113496063D01*
X120596063Y-113640226D01*
X120482795Y-113809744D01*
X120404774Y-113998102D01*
X120365000Y-114198061D01*
X113584706Y-114198061D01*
X113672168Y-113986912D01*
X113735000Y-113671033D01*
X113735000Y-113348967D01*
X113672168Y-113033088D01*
X113548918Y-112735537D01*
X113369987Y-112467748D01*
X113142252Y-112240013D01*
X112874463Y-112061082D01*
X112576912Y-111937832D01*
X112261033Y-111875000D01*
X111938967Y-111875000D01*
X111623088Y-111937832D01*
X111325537Y-112061082D01*
X111057748Y-112240013D01*
X110830013Y-112467748D01*
X110651082Y-112735537D01*
X110527832Y-113033088D01*
X110465000Y-113348967D01*
X108879948Y-113348967D01*
X108877853Y-113327700D01*
X108810094Y-113104326D01*
X108700058Y-112898464D01*
X108551975Y-112718025D01*
X108371536Y-112569942D01*
X108165674Y-112459906D01*
X107942300Y-112392147D01*
X107768207Y-112375000D01*
X106560000Y-112375000D01*
X106560000Y-112215297D01*
X106526951Y-112049147D01*
X106462122Y-111892637D01*
X106368005Y-111751782D01*
X106248218Y-111631995D01*
X106107363Y-111537878D01*
X105950853Y-111473049D01*
X105784703Y-111440000D01*
X105615297Y-111440000D01*
X105449147Y-111473049D01*
X105292637Y-111537878D01*
X105151782Y-111631995D01*
X105031995Y-111751782D01*
X104937878Y-111892637D01*
X104873049Y-112049147D01*
X104840000Y-112215297D01*
X100660000Y-112215297D01*
X100660000Y-111198061D01*
X108315000Y-111198061D01*
X108315000Y-111401939D01*
X108354774Y-111601898D01*
X108432795Y-111790256D01*
X108546063Y-111959774D01*
X108690226Y-112103937D01*
X108859744Y-112217205D01*
X109048102Y-112295226D01*
X109248061Y-112335000D01*
X109451939Y-112335000D01*
X109651898Y-112295226D01*
X109840256Y-112217205D01*
X110009774Y-112103937D01*
X110153937Y-111959774D01*
X110267205Y-111790256D01*
X110345226Y-111601898D01*
X110385000Y-111401939D01*
X110385000Y-111198061D01*
X132165000Y-111198061D01*
X132165000Y-111401939D01*
X132204774Y-111601898D01*
X132282795Y-111790256D01*
X132396063Y-111959774D01*
X132540226Y-112103937D01*
X132709744Y-112217205D01*
X132898102Y-112295226D01*
X133098061Y-112335000D01*
X133301939Y-112335000D01*
X133501898Y-112295226D01*
X133690256Y-112217205D01*
X133859774Y-112103937D01*
X134003937Y-111959774D01*
X134117205Y-111790256D01*
X134195226Y-111601898D01*
X134235000Y-111401939D01*
X134235000Y-111198061D01*
X134195226Y-110998102D01*
X134117205Y-110809744D01*
X134003937Y-110640226D01*
X133859774Y-110496063D01*
X133690256Y-110382795D01*
X133501898Y-110304774D01*
X133301939Y-110265000D01*
X133098061Y-110265000D01*
X132898102Y-110304774D01*
X132709744Y-110382795D01*
X132540226Y-110496063D01*
X132396063Y-110640226D01*
X132282795Y-110809744D01*
X132204774Y-110998102D01*
X132165000Y-111198061D01*
X110385000Y-111198061D01*
X110345226Y-110998102D01*
X110267205Y-110809744D01*
X110153937Y-110640226D01*
X110009774Y-110496063D01*
X109840256Y-110382795D01*
X109651898Y-110304774D01*
X109451939Y-110265000D01*
X109248061Y-110265000D01*
X109048102Y-110304774D01*
X108859744Y-110382795D01*
X108690226Y-110496063D01*
X108546063Y-110640226D01*
X108432795Y-110809744D01*
X108354774Y-110998102D01*
X108315000Y-111198061D01*
X100660000Y-111198061D01*
X100660000Y-108998061D01*
X108265000Y-108998061D01*
X108265000Y-109201939D01*
X108304774Y-109401898D01*
X108382795Y-109590256D01*
X108496063Y-109759774D01*
X108640226Y-109903937D01*
X108809744Y-110017205D01*
X108998102Y-110095226D01*
X109198061Y-110135000D01*
X109401939Y-110135000D01*
X109601898Y-110095226D01*
X109790256Y-110017205D01*
X109959774Y-109903937D01*
X110103937Y-109759774D01*
X110217205Y-109590256D01*
X110295226Y-109401898D01*
X110335000Y-109201939D01*
X110335000Y-108998061D01*
X110295226Y-108798102D01*
X110217205Y-108609744D01*
X110103937Y-108440226D01*
X109959774Y-108296063D01*
X109790256Y-108182795D01*
X109601898Y-108104774D01*
X109401939Y-108065000D01*
X109198061Y-108065000D01*
X108998102Y-108104774D01*
X108809744Y-108182795D01*
X108640226Y-108296063D01*
X108496063Y-108440226D01*
X108382795Y-108609744D01*
X108304774Y-108798102D01*
X108265000Y-108998061D01*
X100660000Y-108998061D01*
X100660000Y-105398061D01*
X134365000Y-105398061D01*
X134365000Y-105601939D01*
X134404774Y-105801898D01*
X134482795Y-105990256D01*
X134596063Y-106159774D01*
X134740226Y-106303937D01*
X134909744Y-106417205D01*
X135098102Y-106495226D01*
X135298061Y-106535000D01*
X135501939Y-106535000D01*
X135701898Y-106495226D01*
X135890256Y-106417205D01*
X136059774Y-106303937D01*
X136203937Y-106159774D01*
X136317205Y-105990256D01*
X136395226Y-105801898D01*
X136435000Y-105601939D01*
X136435000Y-105398061D01*
X136395226Y-105198102D01*
X136317205Y-105009744D01*
X136203937Y-104840226D01*
X136059774Y-104696063D01*
X135890256Y-104582795D01*
X135701898Y-104504774D01*
X135501939Y-104465000D01*
X135298061Y-104465000D01*
X135098102Y-104504774D01*
X134909744Y-104582795D01*
X134740226Y-104696063D01*
X134596063Y-104840226D01*
X134482795Y-105009744D01*
X134404774Y-105198102D01*
X134365000Y-105398061D01*
X100660000Y-105398061D01*
X100660000Y-102848648D01*
X107583300Y-102848648D01*
X107583300Y-103151352D01*
X107642355Y-103448239D01*
X107758195Y-103727900D01*
X107926368Y-103979589D01*
X108140411Y-104193632D01*
X108392100Y-104361805D01*
X108671761Y-104477645D01*
X108968648Y-104536700D01*
X109271352Y-104536700D01*
X109568239Y-104477645D01*
X109847900Y-104361805D01*
X110099589Y-104193632D01*
X110313632Y-103979589D01*
X110481805Y-103727900D01*
X110597645Y-103448239D01*
X110656700Y-103151352D01*
X110656700Y-102848648D01*
X112663300Y-102848648D01*
X112663300Y-103151352D01*
X112722355Y-103448239D01*
X112838195Y-103727900D01*
X113006368Y-103979589D01*
X113220411Y-104193632D01*
X113472100Y-104361805D01*
X113751761Y-104477645D01*
X114048648Y-104536700D01*
X114351352Y-104536700D01*
X114648239Y-104477645D01*
X114927900Y-104361805D01*
X115179589Y-104193632D01*
X115393632Y-103979589D01*
X115561805Y-103727900D01*
X115677645Y-103448239D01*
X115736700Y-103151352D01*
X115736700Y-102848648D01*
X115677645Y-102551761D01*
X115641432Y-102464335D01*
X120165000Y-102464335D01*
X120165000Y-103135664D01*
X120182870Y-103317101D01*
X120253489Y-103549900D01*
X120368167Y-103764448D01*
X120522498Y-103952502D01*
X120710551Y-104106833D01*
X120925099Y-104221511D01*
X121157898Y-104292130D01*
X121400000Y-104315975D01*
X121642101Y-104292130D01*
X121874900Y-104221511D01*
X122089448Y-104106833D01*
X122277502Y-103952502D01*
X122309191Y-103913889D01*
X122311595Y-103918387D01*
X122422038Y-104052962D01*
X122556613Y-104163405D01*
X122710149Y-104245472D01*
X122876745Y-104296008D01*
X123049999Y-104313072D01*
X123750001Y-104313072D01*
X123923255Y-104296008D01*
X124089851Y-104245472D01*
X124243387Y-104163405D01*
X124377962Y-104052962D01*
X124488405Y-103918387D01*
X124570472Y-103764851D01*
X124605311Y-103650000D01*
X130111928Y-103650000D01*
X130124188Y-103774482D01*
X130160498Y-103894180D01*
X130219463Y-104004494D01*
X130298815Y-104101185D01*
X130395506Y-104180537D01*
X130505820Y-104239502D01*
X130625518Y-104275812D01*
X130750000Y-104288072D01*
X131314250Y-104285000D01*
X131473000Y-104126250D01*
X131473000Y-102927000D01*
X130273750Y-102927000D01*
X130115000Y-103085750D01*
X130111928Y-103650000D01*
X124605311Y-103650000D01*
X124621008Y-103598255D01*
X124638072Y-103425001D01*
X124638072Y-102174999D01*
X124621008Y-102001745D01*
X124605312Y-101950000D01*
X130111928Y-101950000D01*
X130115000Y-102514250D01*
X130273750Y-102673000D01*
X131473000Y-102673000D01*
X131473000Y-101473750D01*
X131727000Y-101473750D01*
X131727000Y-102673000D01*
X131747000Y-102673000D01*
X131747000Y-102927000D01*
X131727000Y-102927000D01*
X131727000Y-104126250D01*
X131885750Y-104285000D01*
X132450000Y-104288072D01*
X132574482Y-104275812D01*
X132694180Y-104239502D01*
X132804494Y-104180537D01*
X132901185Y-104101185D01*
X132980537Y-104004494D01*
X133039502Y-103894180D01*
X133060393Y-103825313D01*
X133084866Y-103855134D01*
X133310986Y-104040706D01*
X133568966Y-104178599D01*
X133848889Y-104263513D01*
X134067050Y-104285000D01*
X134212950Y-104285000D01*
X134431111Y-104263513D01*
X134711034Y-104178599D01*
X134969014Y-104040706D01*
X135195134Y-103855134D01*
X135380706Y-103629014D01*
X135410000Y-103574209D01*
X135439294Y-103629014D01*
X135624866Y-103855134D01*
X135850986Y-104040706D01*
X136108966Y-104178599D01*
X136388889Y-104263513D01*
X136607050Y-104285000D01*
X136752950Y-104285000D01*
X136971111Y-104263513D01*
X137251034Y-104178599D01*
X137509014Y-104040706D01*
X137735134Y-103855134D01*
X137920706Y-103629014D01*
X137950000Y-103574209D01*
X137979294Y-103629014D01*
X138164866Y-103855134D01*
X138238845Y-103915847D01*
X138204774Y-103998102D01*
X138165000Y-104198061D01*
X138165000Y-104401939D01*
X138204774Y-104601898D01*
X138282795Y-104790256D01*
X138396063Y-104959774D01*
X138540226Y-105103937D01*
X138709744Y-105217205D01*
X138898102Y-105295226D01*
X139098061Y-105335000D01*
X139301939Y-105335000D01*
X139501898Y-105295226D01*
X139690256Y-105217205D01*
X139859774Y-105103937D01*
X140003937Y-104959774D01*
X140117205Y-104790256D01*
X140195226Y-104601898D01*
X140235000Y-104401939D01*
X140235000Y-104198061D01*
X140195226Y-103998102D01*
X140171303Y-103940346D01*
X140275134Y-103855134D01*
X140460706Y-103629014D01*
X140490000Y-103574209D01*
X140519294Y-103629014D01*
X140704866Y-103855134D01*
X140930986Y-104040706D01*
X141188966Y-104178599D01*
X141468889Y-104263513D01*
X141687050Y-104285000D01*
X141832950Y-104285000D01*
X142051111Y-104263513D01*
X142331034Y-104178599D01*
X142589014Y-104040706D01*
X142815134Y-103855134D01*
X143000706Y-103629014D01*
X143030000Y-103574209D01*
X143059294Y-103629014D01*
X143244866Y-103855134D01*
X143470986Y-104040706D01*
X143728966Y-104178599D01*
X144008889Y-104263513D01*
X144227050Y-104285000D01*
X144372950Y-104285000D01*
X144591111Y-104263513D01*
X144871034Y-104178599D01*
X145129014Y-104040706D01*
X145355134Y-103855134D01*
X145540706Y-103629014D01*
X145570000Y-103574209D01*
X145599294Y-103629014D01*
X145784866Y-103855134D01*
X146010986Y-104040706D01*
X146268966Y-104178599D01*
X146548889Y-104263513D01*
X146767050Y-104285000D01*
X146912950Y-104285000D01*
X147131111Y-104263513D01*
X147411034Y-104178599D01*
X147669014Y-104040706D01*
X147895134Y-103855134D01*
X148080706Y-103629014D01*
X148110000Y-103574209D01*
X148139294Y-103629014D01*
X148324866Y-103855134D01*
X148550986Y-104040706D01*
X148808966Y-104178599D01*
X149088889Y-104263513D01*
X149307050Y-104285000D01*
X149452950Y-104285000D01*
X149671111Y-104263513D01*
X149951034Y-104178599D01*
X150209014Y-104040706D01*
X150435134Y-103855134D01*
X150620706Y-103629014D01*
X150650000Y-103574209D01*
X150679294Y-103629014D01*
X150864866Y-103855134D01*
X151090986Y-104040706D01*
X151348966Y-104178599D01*
X151628889Y-104263513D01*
X151847050Y-104285000D01*
X151992950Y-104285000D01*
X152211111Y-104263513D01*
X152491034Y-104178599D01*
X152749014Y-104040706D01*
X152975134Y-103855134D01*
X153160706Y-103629014D01*
X153190000Y-103574209D01*
X153219294Y-103629014D01*
X153404866Y-103855134D01*
X153630986Y-104040706D01*
X153888966Y-104178599D01*
X154168889Y-104263513D01*
X154387050Y-104285000D01*
X154532950Y-104285000D01*
X154751111Y-104263513D01*
X155031034Y-104178599D01*
X155289014Y-104040706D01*
X155515134Y-103855134D01*
X155700706Y-103629014D01*
X155838599Y-103371034D01*
X155923513Y-103091111D01*
X155952185Y-102800000D01*
X155923513Y-102508889D01*
X155838599Y-102228966D01*
X155700706Y-101970986D01*
X155515134Y-101744866D01*
X155289014Y-101559294D01*
X155031034Y-101421401D01*
X154751111Y-101336487D01*
X154532950Y-101315000D01*
X154387050Y-101315000D01*
X154168889Y-101336487D01*
X153888966Y-101421401D01*
X153630986Y-101559294D01*
X153404866Y-101744866D01*
X153219294Y-101970986D01*
X153190000Y-102025791D01*
X153160706Y-101970986D01*
X152975134Y-101744866D01*
X152749014Y-101559294D01*
X152491034Y-101421401D01*
X152211111Y-101336487D01*
X151992950Y-101315000D01*
X151847050Y-101315000D01*
X151628889Y-101336487D01*
X151348966Y-101421401D01*
X151090986Y-101559294D01*
X150864866Y-101744866D01*
X150679294Y-101970986D01*
X150650000Y-102025791D01*
X150620706Y-101970986D01*
X150435134Y-101744866D01*
X150209014Y-101559294D01*
X149951034Y-101421401D01*
X149671111Y-101336487D01*
X149452950Y-101315000D01*
X149307050Y-101315000D01*
X149088889Y-101336487D01*
X148808966Y-101421401D01*
X148550986Y-101559294D01*
X148324866Y-101744866D01*
X148139294Y-101970986D01*
X148110000Y-102025791D01*
X148080706Y-101970986D01*
X147895134Y-101744866D01*
X147669014Y-101559294D01*
X147411034Y-101421401D01*
X147131111Y-101336487D01*
X146912950Y-101315000D01*
X146767050Y-101315000D01*
X146548889Y-101336487D01*
X146268966Y-101421401D01*
X146010986Y-101559294D01*
X145784866Y-101744866D01*
X145599294Y-101970986D01*
X145570000Y-102025791D01*
X145540706Y-101970986D01*
X145355134Y-101744866D01*
X145129014Y-101559294D01*
X144871034Y-101421401D01*
X144591111Y-101336487D01*
X144372950Y-101315000D01*
X144227050Y-101315000D01*
X144008889Y-101336487D01*
X143728966Y-101421401D01*
X143470986Y-101559294D01*
X143244866Y-101744866D01*
X143059294Y-101970986D01*
X143030000Y-102025791D01*
X143000706Y-101970986D01*
X142815134Y-101744866D01*
X142589014Y-101559294D01*
X142331034Y-101421401D01*
X142051111Y-101336487D01*
X141832950Y-101315000D01*
X141687050Y-101315000D01*
X141468889Y-101336487D01*
X141188966Y-101421401D01*
X140930986Y-101559294D01*
X140704866Y-101744866D01*
X140519294Y-101970986D01*
X140490000Y-102025791D01*
X140460706Y-101970986D01*
X140275134Y-101744866D01*
X140049014Y-101559294D01*
X139791034Y-101421401D01*
X139511111Y-101336487D01*
X139292950Y-101315000D01*
X139147050Y-101315000D01*
X138928889Y-101336487D01*
X138648966Y-101421401D01*
X138390986Y-101559294D01*
X138164866Y-101744866D01*
X137979294Y-101970986D01*
X137950000Y-102025791D01*
X137920706Y-101970986D01*
X137735134Y-101744866D01*
X137509014Y-101559294D01*
X137251034Y-101421401D01*
X136971111Y-101336487D01*
X136752950Y-101315000D01*
X136607050Y-101315000D01*
X136388889Y-101336487D01*
X136108966Y-101421401D01*
X135850986Y-101559294D01*
X135624866Y-101744866D01*
X135439294Y-101970986D01*
X135410000Y-102025791D01*
X135380706Y-101970986D01*
X135195134Y-101744866D01*
X134969014Y-101559294D01*
X134711034Y-101421401D01*
X134431111Y-101336487D01*
X134212950Y-101315000D01*
X134067050Y-101315000D01*
X133848889Y-101336487D01*
X133568966Y-101421401D01*
X133310986Y-101559294D01*
X133084866Y-101744866D01*
X133060393Y-101774687D01*
X133039502Y-101705820D01*
X132980537Y-101595506D01*
X132901185Y-101498815D01*
X132804494Y-101419463D01*
X132694180Y-101360498D01*
X132574482Y-101324188D01*
X132450000Y-101311928D01*
X131885750Y-101315000D01*
X131727000Y-101473750D01*
X131473000Y-101473750D01*
X131314250Y-101315000D01*
X130750000Y-101311928D01*
X130625518Y-101324188D01*
X130505820Y-101360498D01*
X130395506Y-101419463D01*
X130298815Y-101498815D01*
X130219463Y-101595506D01*
X130160498Y-101705820D01*
X130124188Y-101825518D01*
X130111928Y-101950000D01*
X124605312Y-101950000D01*
X124570472Y-101835149D01*
X124488405Y-101681613D01*
X124377962Y-101547038D01*
X124243387Y-101436595D01*
X124089851Y-101354528D01*
X123923255Y-101303992D01*
X123750001Y-101286928D01*
X123049999Y-101286928D01*
X122876745Y-101303992D01*
X122710149Y-101354528D01*
X122556613Y-101436595D01*
X122422038Y-101547038D01*
X122311595Y-101681613D01*
X122309191Y-101686111D01*
X122277502Y-101647498D01*
X122089449Y-101493167D01*
X121874901Y-101378489D01*
X121642102Y-101307870D01*
X121400000Y-101284025D01*
X121157899Y-101307870D01*
X120925100Y-101378489D01*
X120710552Y-101493167D01*
X120522499Y-101647498D01*
X120368168Y-101835551D01*
X120253489Y-102050099D01*
X120182870Y-102282898D01*
X120165000Y-102464335D01*
X115641432Y-102464335D01*
X115561805Y-102272100D01*
X115393632Y-102020411D01*
X115179589Y-101806368D01*
X114927900Y-101638195D01*
X114648239Y-101522355D01*
X114351352Y-101463300D01*
X114048648Y-101463300D01*
X113751761Y-101522355D01*
X113472100Y-101638195D01*
X113220411Y-101806368D01*
X113006368Y-102020411D01*
X112838195Y-102272100D01*
X112722355Y-102551761D01*
X112663300Y-102848648D01*
X110656700Y-102848648D01*
X110597645Y-102551761D01*
X110481805Y-102272100D01*
X110313632Y-102020411D01*
X110099589Y-101806368D01*
X109847900Y-101638195D01*
X109568239Y-101522355D01*
X109271352Y-101463300D01*
X108968648Y-101463300D01*
X108671761Y-101522355D01*
X108392100Y-101638195D01*
X108140411Y-101806368D01*
X107926368Y-102020411D01*
X107758195Y-102272100D01*
X107642355Y-102551761D01*
X107583300Y-102848648D01*
X100660000Y-102848648D01*
X100660000Y-100660000D01*
X169340000Y-100660000D01*
X169340001Y-137340000D01*
X169340001Y-137340000D01*
G37*
X169340001Y-137340000D02*
X100660000Y-137340000D01*
X100660000Y-134945445D01*
X100684010Y-135003411D01*
X100846525Y-135246632D01*
X101053368Y-135453475D01*
X101296589Y-135615990D01*
X101566842Y-135727932D01*
X101853740Y-135785000D01*
X102146260Y-135785000D01*
X102433158Y-135727932D01*
X102703411Y-135615990D01*
X102765000Y-135574838D01*
X102765000Y-135720883D01*
X102831675Y-136056081D01*
X102962463Y-136371831D01*
X103152337Y-136655998D01*
X103394002Y-136897663D01*
X103678169Y-137087537D01*
X103993919Y-137218325D01*
X104329117Y-137285000D01*
X104670883Y-137285000D01*
X105006081Y-137218325D01*
X105321831Y-137087537D01*
X105605998Y-136897663D01*
X105847663Y-136655998D01*
X106037537Y-136371831D01*
X106168325Y-136056081D01*
X106235000Y-135720883D01*
X106235000Y-135379117D01*
X106198986Y-135198061D01*
X118065000Y-135198061D01*
X118065000Y-135401939D01*
X118104774Y-135601898D01*
X118182795Y-135790256D01*
X118296063Y-135959774D01*
X118440226Y-136103937D01*
X118609744Y-136217205D01*
X118798102Y-136295226D01*
X118998061Y-136335000D01*
X119201939Y-136335000D01*
X119401898Y-136295226D01*
X119590256Y-136217205D01*
X119759774Y-136103937D01*
X119903937Y-135959774D01*
X120017205Y-135790256D01*
X120095226Y-135601898D01*
X120135000Y-135401939D01*
X120135000Y-135198061D01*
X120115109Y-135098061D01*
X120965000Y-135098061D01*
X120965000Y-135301939D01*
X121004774Y-135501898D01*
X121082795Y-135690256D01*
X121196063Y-135859774D01*
X121340226Y-136003937D01*
X121509744Y-136117205D01*
X121698102Y-136195226D01*
X121898061Y-136235000D01*
X122101939Y-136235000D01*
X122301898Y-136195226D01*
X122490256Y-136117205D01*
X122659774Y-136003937D01*
X122803937Y-135859774D01*
X122917205Y-135690256D01*
X122995226Y-135501898D01*
X123035000Y-135301939D01*
X123035000Y-135098061D01*
X122995226Y-134898102D01*
X122917205Y-134709744D01*
X122803937Y-134540226D01*
X122659774Y-134396063D01*
X122490256Y-134282795D01*
X122301898Y-134204774D01*
X122101939Y-134165000D01*
X121898061Y-134165000D01*
X121698102Y-134204774D01*
X121509744Y-134282795D01*
X121340226Y-134396063D01*
X121196063Y-134540226D01*
X121082795Y-134709744D01*
X121004774Y-134898102D01*
X120965000Y-135098061D01*
X120115109Y-135098061D01*
X120095226Y-134998102D01*
X120017205Y-134809744D01*
X119903937Y-134640226D01*
X119759774Y-134496063D01*
X119590256Y-134382795D01*
X119401898Y-134304774D01*
X119201939Y-134265000D01*
X118998061Y-134265000D01*
X118798102Y-134304774D01*
X118609744Y-134382795D01*
X118440226Y-134496063D01*
X118296063Y-134640226D01*
X118182795Y-134809744D01*
X118104774Y-134998102D01*
X118065000Y-135198061D01*
X106198986Y-135198061D01*
X106168325Y-135043919D01*
X106037537Y-134728169D01*
X105847663Y-134444002D01*
X105605998Y-134202337D01*
X105321831Y-134012463D01*
X105006081Y-133881675D01*
X104670883Y-133815000D01*
X104329117Y-133815000D01*
X103993919Y-133881675D01*
X103678169Y-134012463D01*
X103482857Y-134142966D01*
X103427932Y-133866842D01*
X103315990Y-133596589D01*
X103153475Y-133353368D01*
X102946632Y-133146525D01*
X102703411Y-132984010D01*
X102433158Y-132872068D01*
X102146260Y-132815000D01*
X101853740Y-132815000D01*
X101566842Y-132872068D01*
X101296589Y-132984010D01*
X101053368Y-133146525D01*
X100846525Y-133353368D01*
X100684010Y-133596589D01*
X100660000Y-133654555D01*
X100660000Y-130445445D01*
X100684010Y-130503411D01*
X100846525Y-130746632D01*
X101053368Y-130953475D01*
X101296589Y-131115990D01*
X101566842Y-131227932D01*
X101853740Y-131285000D01*
X102146260Y-131285000D01*
X102433158Y-131227932D01*
X102703411Y-131115990D01*
X102946632Y-130953475D01*
X103140107Y-130760000D01*
X106607815Y-130760000D01*
X106636487Y-131051111D01*
X106721401Y-131331034D01*
X106859294Y-131589014D01*
X107044866Y-131815134D01*
X107074687Y-131839607D01*
X107005820Y-131860498D01*
X106895506Y-131919463D01*
X106798815Y-131998815D01*
X106719463Y-132095506D01*
X106660498Y-132205820D01*
X106624188Y-132325518D01*
X106611928Y-132450000D01*
X106611928Y-134150000D01*
X106624188Y-134274482D01*
X106660498Y-134394180D01*
X106719463Y-134504494D01*
X106798815Y-134601185D01*
X106895506Y-134680537D01*
X107005820Y-134739502D01*
X107125518Y-134775812D01*
X107250000Y-134788072D01*
X108950000Y-134788072D01*
X109074482Y-134775812D01*
X109194180Y-134739502D01*
X109304494Y-134680537D01*
X109401185Y-134601185D01*
X109480537Y-134504494D01*
X109539502Y-134394180D01*
X109575812Y-134274482D01*
X109588072Y-134150000D01*
X109588072Y-133198061D01*
X130865000Y-133198061D01*
X130865000Y-133401939D01*
X130904774Y-133601898D01*
X130982795Y-133790256D01*
X131096063Y-133959774D01*
X131240226Y-134103937D01*
X131409744Y-134217205D01*
X131488918Y-134250000D01*
X131409744Y-134282795D01*
X131240226Y-134396063D01*
X131096063Y-134540226D01*
X130982795Y-134709744D01*
X130904774Y-134898102D01*
X130865000Y-135098061D01*
X130865000Y-135301939D01*
X130904774Y-135501898D01*
X130982795Y-135690256D01*
X131096063Y-135859774D01*
X131240226Y-136003937D01*
X131409744Y-136117205D01*
X131598102Y-136195226D01*
X131798061Y-136235000D01*
X132001939Y-136235000D01*
X132201898Y-136195226D01*
X132390256Y-136117205D01*
X132559774Y-136003937D01*
X132703937Y-135859774D01*
X132817205Y-135690256D01*
X132895226Y-135501898D01*
X132935000Y-135301939D01*
X132935000Y-135098061D01*
X132895226Y-134898102D01*
X132817205Y-134709744D01*
X132703937Y-134540226D01*
X132559774Y-134396063D01*
X132390256Y-134282795D01*
X132311082Y-134250000D01*
X132390256Y-134217205D01*
X132559774Y-134103937D01*
X132703937Y-133959774D01*
X132817205Y-133790256D01*
X132895226Y-133601898D01*
X132935000Y-133401939D01*
X132935000Y-133198061D01*
X132895226Y-132998102D01*
X132817205Y-132809744D01*
X132703937Y-132640226D01*
X132559774Y-132496063D01*
X132390256Y-132382795D01*
X132201898Y-132304774D01*
X132001939Y-132265000D01*
X131798061Y-132265000D01*
X131598102Y-132304774D01*
X131409744Y-132382795D01*
X131240226Y-132496063D01*
X131096063Y-132640226D01*
X130982795Y-132809744D01*
X130904774Y-132998102D01*
X130865000Y-133198061D01*
X109588072Y-133198061D01*
X109588072Y-132450000D01*
X109575812Y-132325518D01*
X109539502Y-132205820D01*
X109480537Y-132095506D01*
X109401185Y-131998815D01*
X109304494Y-131919463D01*
X109264455Y-131898061D01*
X140865000Y-131898061D01*
X140865000Y-132101939D01*
X140904774Y-132301898D01*
X140982795Y-132490256D01*
X141096063Y-132659774D01*
X141240226Y-132803937D01*
X141409744Y-132917205D01*
X141598102Y-132995226D01*
X141798061Y-133035000D01*
X142001939Y-133035000D01*
X142201898Y-132995226D01*
X142390256Y-132917205D01*
X142559774Y-132803937D01*
X142565650Y-132798061D01*
X146765000Y-132798061D01*
X146765000Y-133001939D01*
X146804774Y-133201898D01*
X146882795Y-133390256D01*
X146996063Y-133559774D01*
X147140226Y-133703937D01*
X147309744Y-133817205D01*
X147498102Y-133895226D01*
X147698061Y-133935000D01*
X147901939Y-133935000D01*
X148101898Y-133895226D01*
X148290256Y-133817205D01*
X148318907Y-133798061D01*
X149065000Y-133798061D01*
X149065000Y-134001939D01*
X149104774Y-134201898D01*
X149182795Y-134390256D01*
X149296063Y-134559774D01*
X149440226Y-134703937D01*
X149609744Y-134817205D01*
X149798102Y-134895226D01*
X149998061Y-134935000D01*
X150201939Y-134935000D01*
X150401898Y-134895226D01*
X150590256Y-134817205D01*
X150759774Y-134703937D01*
X150903937Y-134559774D01*
X151017205Y-134390256D01*
X151055393Y-134298061D01*
X153465000Y-134298061D01*
X153465000Y-134501939D01*
X153504774Y-134701898D01*
X153582795Y-134890256D01*
X153696063Y-135059774D01*
X153840226Y-135203937D01*
X154009744Y-135317205D01*
X154198102Y-135395226D01*
X154398061Y-135435000D01*
X154601939Y-135435000D01*
X154801898Y-135395226D01*
X154990256Y-135317205D01*
X155159774Y-135203937D01*
X155303937Y-135059774D01*
X155417205Y-134890256D01*
X155495226Y-134701898D01*
X155535000Y-134501939D01*
X155535000Y-134298061D01*
X155495226Y-134098102D01*
X155417205Y-133909744D01*
X155303937Y-133740226D01*
X155159774Y-133596063D01*
X154990256Y-133482795D01*
X154801898Y-133404774D01*
X154601939Y-133365000D01*
X154398061Y-133365000D01*
X154198102Y-133404774D01*
X154009744Y-133482795D01*
X153840226Y-133596063D01*
X153696063Y-133740226D01*
X153582795Y-133909744D01*
X153504774Y-134098102D01*
X153465000Y-134298061D01*
X151055393Y-134298061D01*
X151095226Y-134201898D01*
X151135000Y-134001939D01*
X151135000Y-133798061D01*
X151095226Y-133598102D01*
X151017205Y-133409744D01*
X150903937Y-133240226D01*
X150759774Y-133096063D01*
X150590256Y-132982795D01*
X150401898Y-132904774D01*
X150201939Y-132865000D01*
X149998061Y-132865000D01*
X149798102Y-132904774D01*
X149609744Y-132982795D01*
X149440226Y-133096063D01*
X149296063Y-133240226D01*
X149182795Y-133409744D01*
X149104774Y-133598102D01*
X149065000Y-133798061D01*
X148318907Y-133798061D01*
X148459774Y-133703937D01*
X148603937Y-133559774D01*
X148717205Y-133390256D01*
X148795226Y-133201898D01*
X148835000Y-133001939D01*
X148835000Y-132798061D01*
X148795226Y-132598102D01*
X148717205Y-132409744D01*
X148603937Y-132240226D01*
X148459774Y-132096063D01*
X148290256Y-131982795D01*
X148101898Y-131904774D01*
X147901939Y-131865000D01*
X147698061Y-131865000D01*
X147498102Y-131904774D01*
X147309744Y-131982795D01*
X147140226Y-132096063D01*
X146996063Y-132240226D01*
X146882795Y-132409744D01*
X146804774Y-132598102D01*
X146765000Y-132798061D01*
X142565650Y-132798061D01*
X142703937Y-132659774D01*
X142817205Y-132490256D01*
X142895226Y-132301898D01*
X142935000Y-132101939D01*
X142935000Y-131898061D01*
X142895226Y-131698102D01*
X142817205Y-131509744D01*
X142703937Y-131340226D01*
X142561772Y-131198061D01*
X149065000Y-131198061D01*
X149065000Y-131401939D01*
X149104774Y-131601898D01*
X149182795Y-131790256D01*
X149296063Y-131959774D01*
X149440226Y-132103937D01*
X149609744Y-132217205D01*
X149798102Y-132295226D01*
X149998061Y-132335000D01*
X150201939Y-132335000D01*
X150387645Y-132298061D01*
X152165000Y-132298061D01*
X152165000Y-132501939D01*
X152204774Y-132701898D01*
X152282795Y-132890256D01*
X152396063Y-133059774D01*
X152540226Y-133203937D01*
X152709744Y-133317205D01*
X152898102Y-133395226D01*
X153098061Y-133435000D01*
X153301939Y-133435000D01*
X153501898Y-133395226D01*
X153690256Y-133317205D01*
X153859774Y-133203937D01*
X154003937Y-133059774D01*
X154117205Y-132890256D01*
X154195226Y-132701898D01*
X154235000Y-132501939D01*
X154235000Y-132298061D01*
X154765000Y-132298061D01*
X154765000Y-132501939D01*
X154804774Y-132701898D01*
X154882795Y-132890256D01*
X154996063Y-133059774D01*
X155140226Y-133203937D01*
X155309744Y-133317205D01*
X155498102Y-133395226D01*
X155698061Y-133435000D01*
X155901939Y-133435000D01*
X156101898Y-133395226D01*
X156290256Y-133317205D01*
X156459774Y-133203937D01*
X156603937Y-133059774D01*
X156717205Y-132890256D01*
X156795226Y-132701898D01*
X156835000Y-132501939D01*
X156835000Y-132298061D01*
X156795226Y-132098102D01*
X156717205Y-131909744D01*
X156603937Y-131740226D01*
X156459774Y-131596063D01*
X156290256Y-131482795D01*
X156101898Y-131404774D01*
X155901939Y-131365000D01*
X155698061Y-131365000D01*
X155498102Y-131404774D01*
X155309744Y-131482795D01*
X155140226Y-131596063D01*
X154996063Y-131740226D01*
X154882795Y-131909744D01*
X154804774Y-132098102D01*
X154765000Y-132298061D01*
X154235000Y-132298061D01*
X154195226Y-132098102D01*
X154117205Y-131909744D01*
X154003937Y-131740226D01*
X153859774Y-131596063D01*
X153690256Y-131482795D01*
X153501898Y-131404774D01*
X153301939Y-131365000D01*
X153098061Y-131365000D01*
X152898102Y-131404774D01*
X152709744Y-131482795D01*
X152540226Y-131596063D01*
X152396063Y-131740226D01*
X152282795Y-131909744D01*
X152204774Y-132098102D01*
X152165000Y-132298061D01*
X150387645Y-132298061D01*
X150401898Y-132295226D01*
X150590256Y-132217205D01*
X150759774Y-132103937D01*
X150903937Y-131959774D01*
X151017205Y-131790256D01*
X151095226Y-131601898D01*
X151135000Y-131401939D01*
X151135000Y-131198061D01*
X151095226Y-130998102D01*
X151017205Y-130809744D01*
X150903937Y-130640226D01*
X150759774Y-130496063D01*
X150590256Y-130382795D01*
X150401898Y-130304774D01*
X150201939Y-130265000D01*
X149998061Y-130265000D01*
X149798102Y-130304774D01*
X149609744Y-130382795D01*
X149440226Y-130496063D01*
X149296063Y-130640226D01*
X149182795Y-130809744D01*
X149104774Y-130998102D01*
X149065000Y-131198061D01*
X142561772Y-131198061D01*
X142559774Y-131196063D01*
X142390256Y-131082795D01*
X142201898Y-131004774D01*
X142001939Y-130965000D01*
X141798061Y-130965000D01*
X141598102Y-131004774D01*
X141409744Y-131082795D01*
X141240226Y-131196063D01*
X141096063Y-131340226D01*
X140982795Y-131509744D01*
X140904774Y-131698102D01*
X140865000Y-131898061D01*
X109264455Y-131898061D01*
X109194180Y-131860498D01*
X109125313Y-131839607D01*
X109155134Y-131815134D01*
X109340706Y-131589014D01*
X109478599Y-131331034D01*
X109563513Y-131051111D01*
X109592185Y-130760000D01*
X109563513Y-130468889D01*
X109478599Y-130188966D01*
X109340706Y-129930986D01*
X109155134Y-129704866D01*
X108929014Y-129519294D01*
X108671034Y-129381401D01*
X108391111Y-129296487D01*
X108172950Y-129275000D01*
X108027050Y-129275000D01*
X107808889Y-129296487D01*
X107528966Y-129381401D01*
X107270986Y-129519294D01*
X107044866Y-129704866D01*
X106859294Y-129930986D01*
X106721401Y-130188966D01*
X106636487Y-130468889D01*
X106607815Y-130760000D01*
X103140107Y-130760000D01*
X103153475Y-130746632D01*
X103315990Y-130503411D01*
X103427932Y-130233158D01*
X103482857Y-129957034D01*
X103678169Y-130087537D01*
X103993919Y-130218325D01*
X104329117Y-130285000D01*
X104670883Y-130285000D01*
X105006081Y-130218325D01*
X105321831Y-130087537D01*
X105605998Y-129897663D01*
X105847663Y-129655998D01*
X106037537Y-129371831D01*
X106168325Y-129056081D01*
X106235000Y-128720883D01*
X106235000Y-128379117D01*
X106168325Y-128043919D01*
X106037537Y-127728169D01*
X105885080Y-127500000D01*
X110461928Y-127500000D01*
X110461928Y-129500000D01*
X110474188Y-129624482D01*
X110510498Y-129744180D01*
X110569463Y-129854494D01*
X110648815Y-129951185D01*
X110745506Y-130030537D01*
X110855820Y-130089502D01*
X110975518Y-130125812D01*
X111100000Y-130138072D01*
X113100000Y-130138072D01*
X113224482Y-130125812D01*
X113344180Y-130089502D01*
X113454494Y-130030537D01*
X113551185Y-129951185D01*
X113630537Y-129854494D01*
X113689502Y-129744180D01*
X113725812Y-129624482D01*
X113738072Y-129500000D01*
X113738072Y-128274947D01*
X136980000Y-128274947D01*
X136980000Y-128725053D01*
X137067811Y-129166510D01*
X137240059Y-129582353D01*
X137490125Y-129956603D01*
X137808397Y-130274875D01*
X138182647Y-130524941D01*
X138598490Y-130697189D01*
X139039947Y-130785000D01*
X139490053Y-130785000D01*
X139931510Y-130697189D01*
X140347353Y-130524941D01*
X140721603Y-130274875D01*
X141039875Y-129956603D01*
X141289941Y-129582353D01*
X141462189Y-129166510D01*
X141550000Y-128725053D01*
X141550000Y-128274947D01*
X141462189Y-127833490D01*
X141289941Y-127417647D01*
X141039875Y-127043397D01*
X140721603Y-126725125D01*
X140347353Y-126475059D01*
X139931510Y-126302811D01*
X139490053Y-126215000D01*
X139039947Y-126215000D01*
X138598490Y-126302811D01*
X138182647Y-126475059D01*
X137808397Y-126725125D01*
X137490125Y-127043397D01*
X137240059Y-127417647D01*
X137067811Y-127833490D01*
X136980000Y-128274947D01*
X113738072Y-128274947D01*
X113738072Y-127500000D01*
X113725812Y-127375518D01*
X113689502Y-127255820D01*
X113630537Y-127145506D01*
X113551185Y-127048815D01*
X113454494Y-126969463D01*
X113344180Y-126910498D01*
X113224482Y-126874188D01*
X113100000Y-126861928D01*
X111100000Y-126861928D01*
X110975518Y-126874188D01*
X110855820Y-126910498D01*
X110745506Y-126969463D01*
X110648815Y-127048815D01*
X110569463Y-127145506D01*
X110510498Y-127255820D01*
X110474188Y-127375518D01*
X110461928Y-127500000D01*
X105885080Y-127500000D01*
X105847663Y-127444002D01*
X105605998Y-127202337D01*
X105321831Y-127012463D01*
X105006081Y-126881675D01*
X104670883Y-126815000D01*
X104329117Y-126815000D01*
X103993919Y-126881675D01*
X103678169Y-127012463D01*
X103394002Y-127202337D01*
X103152337Y-127444002D01*
X102962463Y-127728169D01*
X102831675Y-128043919D01*
X102765000Y-128379117D01*
X102765000Y-128525162D01*
X102703411Y-128484010D01*
X102433158Y-128372068D01*
X102146260Y-128315000D01*
X101853740Y-128315000D01*
X101566842Y-128372068D01*
X101296589Y-128484010D01*
X101053368Y-128646525D01*
X100846525Y-128853368D01*
X100684010Y-129096589D01*
X100660000Y-129154555D01*
X100660000Y-125098061D01*
X116365000Y-125098061D01*
X116365000Y-125301939D01*
X116404774Y-125501898D01*
X116482795Y-125690256D01*
X116596063Y-125859774D01*
X116740226Y-126003937D01*
X116909744Y-126117205D01*
X117098102Y-126195226D01*
X117298061Y-126235000D01*
X117501939Y-126235000D01*
X117701898Y-126195226D01*
X117890256Y-126117205D01*
X118059774Y-126003937D01*
X118203937Y-125859774D01*
X118317205Y-125690256D01*
X118395226Y-125501898D01*
X118435000Y-125301939D01*
X118435000Y-125098061D01*
X118395226Y-124898102D01*
X118353788Y-124798061D01*
X121765000Y-124798061D01*
X121765000Y-125001939D01*
X121804774Y-125201898D01*
X121882795Y-125390256D01*
X121996063Y-125559774D01*
X122140226Y-125703937D01*
X122309744Y-125817205D01*
X122498102Y-125895226D01*
X122698061Y-125935000D01*
X122901939Y-125935000D01*
X123101898Y-125895226D01*
X123290256Y-125817205D01*
X123459774Y-125703937D01*
X123603937Y-125559774D01*
X123717205Y-125390256D01*
X123795226Y-125201898D01*
X123835000Y-125001939D01*
X123835000Y-124798061D01*
X123795226Y-124598102D01*
X123753788Y-124498061D01*
X129365000Y-124498061D01*
X129365000Y-124701939D01*
X129404774Y-124901898D01*
X129482795Y-125090256D01*
X129596063Y-125259774D01*
X129740226Y-125403937D01*
X129909744Y-125517205D01*
X130098102Y-125595226D01*
X130298061Y-125635000D01*
X130501939Y-125635000D01*
X130701898Y-125595226D01*
X130890256Y-125517205D01*
X131059774Y-125403937D01*
X131203937Y-125259774D01*
X131317205Y-125090256D01*
X131395226Y-124901898D01*
X131415880Y-124798061D01*
X136965000Y-124798061D01*
X136965000Y-125001939D01*
X137004774Y-125201898D01*
X137082795Y-125390256D01*
X137196063Y-125559774D01*
X137340226Y-125703937D01*
X137509744Y-125817205D01*
X137698102Y-125895226D01*
X137898061Y-125935000D01*
X138101939Y-125935000D01*
X138301898Y-125895226D01*
X138490256Y-125817205D01*
X138659774Y-125703937D01*
X138803937Y-125559774D01*
X138917205Y-125390256D01*
X138995226Y-125201898D01*
X139032832Y-125012835D01*
X145115000Y-125012835D01*
X145115000Y-125187165D01*
X145149010Y-125358145D01*
X145215723Y-125519205D01*
X145303118Y-125650000D01*
X145215723Y-125780795D01*
X145149010Y-125941855D01*
X145115000Y-126112835D01*
X145115000Y-126287165D01*
X145149010Y-126458145D01*
X145215723Y-126619205D01*
X145303118Y-126750000D01*
X145215723Y-126880795D01*
X145149010Y-127041855D01*
X145115000Y-127212835D01*
X145115000Y-127387165D01*
X145149010Y-127558145D01*
X145215723Y-127719205D01*
X145312576Y-127864155D01*
X145435845Y-127987424D01*
X145580795Y-128084277D01*
X145741855Y-128150990D01*
X145912835Y-128185000D01*
X146087165Y-128185000D01*
X146258145Y-128150990D01*
X146419205Y-128084277D01*
X146550000Y-127996882D01*
X146680795Y-128084277D01*
X146841855Y-128150990D01*
X147012835Y-128185000D01*
X147187165Y-128185000D01*
X147358145Y-128150990D01*
X147519205Y-128084277D01*
X147650000Y-127996882D01*
X147780795Y-128084277D01*
X147941855Y-128150990D01*
X148112835Y-128185000D01*
X148287165Y-128185000D01*
X148458145Y-128150990D01*
X148619205Y-128084277D01*
X148764155Y-127987424D01*
X148887424Y-127864155D01*
X148984277Y-127719205D01*
X149050990Y-127558145D01*
X149085000Y-127387165D01*
X149085000Y-127212835D01*
X149050990Y-127041855D01*
X148984277Y-126880795D01*
X148896882Y-126750000D01*
X148984277Y-126619205D01*
X149050990Y-126458145D01*
X149085000Y-126287165D01*
X149085000Y-126112835D01*
X149050990Y-125941855D01*
X148984277Y-125780795D01*
X148896882Y-125650000D01*
X148984277Y-125519205D01*
X149050990Y-125358145D01*
X149085000Y-125187165D01*
X149085000Y-125012835D01*
X149050990Y-124841855D01*
X148984277Y-124680795D01*
X148887424Y-124535845D01*
X148764155Y-124412576D01*
X148619205Y-124315723D01*
X148458145Y-124249010D01*
X148287165Y-124215000D01*
X148112835Y-124215000D01*
X147941855Y-124249010D01*
X147780795Y-124315723D01*
X147650000Y-124403118D01*
X147519205Y-124315723D01*
X147358145Y-124249010D01*
X147187165Y-124215000D01*
X147012835Y-124215000D01*
X146841855Y-124249010D01*
X146680795Y-124315723D01*
X146550000Y-124403118D01*
X146419205Y-124315723D01*
X146258145Y-124249010D01*
X146087165Y-124215000D01*
X145912835Y-124215000D01*
X145741855Y-124249010D01*
X145580795Y-124315723D01*
X145435845Y-124412576D01*
X145312576Y-124535845D01*
X145215723Y-124680795D01*
X145149010Y-124841855D01*
X145115000Y-125012835D01*
X139032832Y-125012835D01*
X139035000Y-125001939D01*
X139035000Y-124798061D01*
X138995226Y-124598102D01*
X138917205Y-124409744D01*
X138803937Y-124240226D01*
X138659774Y-124096063D01*
X138490256Y-123982795D01*
X138301898Y-123904774D01*
X138101939Y-123865000D01*
X137898061Y-123865000D01*
X137698102Y-123904774D01*
X137509744Y-123982795D01*
X137340226Y-124096063D01*
X137196063Y-124240226D01*
X137082795Y-124409744D01*
X137004774Y-124598102D01*
X136965000Y-124798061D01*
X131415880Y-124798061D01*
X131435000Y-124701939D01*
X131435000Y-124498061D01*
X131395226Y-124298102D01*
X131317205Y-124109744D01*
X131203937Y-123940226D01*
X131059774Y-123796063D01*
X130890256Y-123682795D01*
X130701898Y-123604774D01*
X130501939Y-123565000D01*
X130298061Y-123565000D01*
X130098102Y-123604774D01*
X129909744Y-123682795D01*
X129740226Y-123796063D01*
X129596063Y-123940226D01*
X129482795Y-124109744D01*
X129404774Y-124298102D01*
X129365000Y-124498061D01*
X123753788Y-124498061D01*
X123717205Y-124409744D01*
X123603937Y-124240226D01*
X123459774Y-124096063D01*
X123290256Y-123982795D01*
X123101898Y-123904774D01*
X122901939Y-123865000D01*
X122698061Y-123865000D01*
X122498102Y-123904774D01*
X122309744Y-123982795D01*
X122140226Y-124096063D01*
X121996063Y-124240226D01*
X121882795Y-124409744D01*
X121804774Y-124598102D01*
X121765000Y-124798061D01*
X118353788Y-124798061D01*
X118317205Y-124709744D01*
X118203937Y-124540226D01*
X118059774Y-124396063D01*
X117890256Y-124282795D01*
X117701898Y-124204774D01*
X117501939Y-124165000D01*
X117298061Y-124165000D01*
X117098102Y-124204774D01*
X116909744Y-124282795D01*
X116740226Y-124396063D01*
X116596063Y-124540226D01*
X116482795Y-124709744D01*
X116404774Y-124898102D01*
X116365000Y-125098061D01*
X100660000Y-125098061D01*
X100660000Y-123394181D01*
X100898096Y-123466407D01*
X101086877Y-123485000D01*
X102513123Y-123485000D01*
X102701904Y-123466407D01*
X102944127Y-123392929D01*
X103167362Y-123273608D01*
X103363028Y-123113028D01*
X103523608Y-122917362D01*
X103642929Y-122694127D01*
X103716407Y-122451904D01*
X103741217Y-122200000D01*
X105419267Y-122200000D01*
X105442147Y-122432300D01*
X105509906Y-122655674D01*
X105619942Y-122861536D01*
X105768025Y-123041975D01*
X105948464Y-123190058D01*
X106154326Y-123300094D01*
X106377700Y-123367853D01*
X106551793Y-123385000D01*
X107768207Y-123385000D01*
X107942300Y-123367853D01*
X108165674Y-123300094D01*
X108371536Y-123190058D01*
X108483634Y-123098061D01*
X124365000Y-123098061D01*
X124365000Y-123301939D01*
X124404774Y-123501898D01*
X124482795Y-123690256D01*
X124596063Y-123859774D01*
X124740226Y-124003937D01*
X124909744Y-124117205D01*
X125098102Y-124195226D01*
X125298061Y-124235000D01*
X125501939Y-124235000D01*
X125701898Y-124195226D01*
X125890256Y-124117205D01*
X126059774Y-124003937D01*
X126203937Y-123859774D01*
X126317205Y-123690256D01*
X126395226Y-123501898D01*
X126435000Y-123301939D01*
X126435000Y-123098061D01*
X126395226Y-122898102D01*
X126317205Y-122709744D01*
X126203937Y-122540226D01*
X126059774Y-122396063D01*
X125890256Y-122282795D01*
X125701898Y-122204774D01*
X125501939Y-122165000D01*
X125298061Y-122165000D01*
X125098102Y-122204774D01*
X124909744Y-122282795D01*
X124740226Y-122396063D01*
X124596063Y-122540226D01*
X124482795Y-122709744D01*
X124404774Y-122898102D01*
X124365000Y-123098061D01*
X108483634Y-123098061D01*
X108551975Y-123041975D01*
X108700058Y-122861536D01*
X108810094Y-122655674D01*
X108877853Y-122432300D01*
X108900733Y-122200000D01*
X108900294Y-122195545D01*
X108901898Y-122195226D01*
X109090256Y-122117205D01*
X109259774Y-122003937D01*
X109265650Y-121998061D01*
X126465000Y-121998061D01*
X126465000Y-122201939D01*
X126504774Y-122401898D01*
X126582795Y-122590256D01*
X126696063Y-122759774D01*
X126840226Y-122903937D01*
X127009744Y-123017205D01*
X127198102Y-123095226D01*
X127398061Y-123135000D01*
X127601939Y-123135000D01*
X127801898Y-123095226D01*
X127990256Y-123017205D01*
X128159774Y-122903937D01*
X128303937Y-122759774D01*
X128345172Y-122698061D01*
X159765000Y-122698061D01*
X159765000Y-122901939D01*
X159804774Y-123101898D01*
X159882795Y-123290256D01*
X159996063Y-123459774D01*
X160140226Y-123603937D01*
X160309744Y-123717205D01*
X160498102Y-123795226D01*
X160698061Y-123835000D01*
X160901939Y-123835000D01*
X161101898Y-123795226D01*
X161290256Y-123717205D01*
X161459774Y-123603937D01*
X161603937Y-123459774D01*
X161717205Y-123290256D01*
X161795226Y-123101898D01*
X161835000Y-122901939D01*
X161835000Y-122798061D01*
X165865000Y-122798061D01*
X165865000Y-123001939D01*
X165904774Y-123201898D01*
X165982795Y-123390256D01*
X166096063Y-123559774D01*
X166240226Y-123703937D01*
X166409744Y-123817205D01*
X166598102Y-123895226D01*
X166798061Y-123935000D01*
X167001939Y-123935000D01*
X167201898Y-123895226D01*
X167390256Y-123817205D01*
X167559774Y-123703937D01*
X167703937Y-123559774D01*
X167817205Y-123390256D01*
X167895226Y-123201898D01*
X167935000Y-123001939D01*
X167935000Y-122798061D01*
X167895226Y-122598102D01*
X167817205Y-122409744D01*
X167703937Y-122240226D01*
X167559774Y-122096063D01*
X167390256Y-121982795D01*
X167201898Y-121904774D01*
X167001939Y-121865000D01*
X166798061Y-121865000D01*
X166598102Y-121904774D01*
X166409744Y-121982795D01*
X166240226Y-122096063D01*
X166096063Y-122240226D01*
X165982795Y-122409744D01*
X165904774Y-122598102D01*
X165865000Y-122798061D01*
X161835000Y-122798061D01*
X161835000Y-122698061D01*
X161795226Y-122498102D01*
X161717205Y-122309744D01*
X161603937Y-122140226D01*
X161459774Y-121996063D01*
X161290256Y-121882795D01*
X161101898Y-121804774D01*
X160901939Y-121765000D01*
X160698061Y-121765000D01*
X160498102Y-121804774D01*
X160309744Y-121882795D01*
X160140226Y-121996063D01*
X159996063Y-122140226D01*
X159882795Y-122309744D01*
X159804774Y-122498102D01*
X159765000Y-122698061D01*
X128345172Y-122698061D01*
X128417205Y-122590256D01*
X128495226Y-122401898D01*
X128535000Y-122201939D01*
X128535000Y-121998061D01*
X128495226Y-121798102D01*
X128417205Y-121609744D01*
X128303937Y-121440226D01*
X128159774Y-121296063D01*
X127990256Y-121182795D01*
X127801898Y-121104774D01*
X127601939Y-121065000D01*
X127398061Y-121065000D01*
X127198102Y-121104774D01*
X127009744Y-121182795D01*
X126840226Y-121296063D01*
X126696063Y-121440226D01*
X126582795Y-121609744D01*
X126504774Y-121798102D01*
X126465000Y-121998061D01*
X109265650Y-121998061D01*
X109403937Y-121859774D01*
X109517205Y-121690256D01*
X109595226Y-121501898D01*
X109635000Y-121301939D01*
X109635000Y-121098061D01*
X109595226Y-120898102D01*
X109517205Y-120709744D01*
X109403937Y-120540226D01*
X109259774Y-120396063D01*
X109090256Y-120282795D01*
X108901898Y-120204774D01*
X108701939Y-120165000D01*
X108498061Y-120165000D01*
X108298102Y-120204774D01*
X108109744Y-120282795D01*
X107940226Y-120396063D01*
X107796063Y-120540226D01*
X107682795Y-120709744D01*
X107604774Y-120898102D01*
X107581522Y-121015000D01*
X106551793Y-121015000D01*
X106377700Y-121032147D01*
X106154326Y-121099906D01*
X105948464Y-121209942D01*
X105768025Y-121358025D01*
X105619942Y-121538464D01*
X105509906Y-121744326D01*
X105442147Y-121967700D01*
X105419267Y-122200000D01*
X103741217Y-122200000D01*
X103716407Y-121948096D01*
X103642929Y-121705873D01*
X103523608Y-121482638D01*
X103363028Y-121286972D01*
X103167362Y-121126392D01*
X102944127Y-121007071D01*
X102701904Y-120933593D01*
X102513123Y-120915000D01*
X101086877Y-120915000D01*
X100898096Y-120933593D01*
X100660000Y-121005819D01*
X100660000Y-118498061D01*
X116665000Y-118498061D01*
X116665000Y-118701939D01*
X116704774Y-118901898D01*
X116782795Y-119090256D01*
X116896063Y-119259774D01*
X117040226Y-119403937D01*
X117209744Y-119517205D01*
X117398102Y-119595226D01*
X117598061Y-119635000D01*
X117801939Y-119635000D01*
X118001898Y-119595226D01*
X118190256Y-119517205D01*
X118359774Y-119403937D01*
X118503937Y-119259774D01*
X118617205Y-119090256D01*
X118655393Y-118998061D01*
X123065000Y-118998061D01*
X123065000Y-119201939D01*
X123104774Y-119401898D01*
X123182795Y-119590256D01*
X123296063Y-119759774D01*
X123440226Y-119903937D01*
X123609744Y-120017205D01*
X123798102Y-120095226D01*
X123998061Y-120135000D01*
X124201939Y-120135000D01*
X124401898Y-120095226D01*
X124480096Y-120062835D01*
X125065000Y-120062835D01*
X125065000Y-120237165D01*
X125099010Y-120408145D01*
X125165723Y-120569205D01*
X125262576Y-120714155D01*
X125385845Y-120837424D01*
X125530795Y-120934277D01*
X125691855Y-121000990D01*
X125862835Y-121035000D01*
X126037165Y-121035000D01*
X126208145Y-121000990D01*
X126369205Y-120934277D01*
X126514155Y-120837424D01*
X126637424Y-120714155D01*
X126734277Y-120569205D01*
X126800990Y-120408145D01*
X126835000Y-120237165D01*
X126835000Y-120062835D01*
X127165000Y-120062835D01*
X127165000Y-120237165D01*
X127199010Y-120408145D01*
X127265723Y-120569205D01*
X127362576Y-120714155D01*
X127485845Y-120837424D01*
X127630795Y-120934277D01*
X127791855Y-121000990D01*
X127962835Y-121035000D01*
X128137165Y-121035000D01*
X128308145Y-121000990D01*
X128469205Y-120934277D01*
X128614155Y-120837424D01*
X128737424Y-120714155D01*
X128834277Y-120569205D01*
X128863745Y-120498061D01*
X151565000Y-120498061D01*
X151565000Y-120701939D01*
X151604774Y-120901898D01*
X151682795Y-121090256D01*
X151796063Y-121259774D01*
X151940226Y-121403937D01*
X152109744Y-121517205D01*
X152298102Y-121595226D01*
X152498061Y-121635000D01*
X152701939Y-121635000D01*
X152901898Y-121595226D01*
X153090256Y-121517205D01*
X153259774Y-121403937D01*
X153403937Y-121259774D01*
X153517205Y-121090256D01*
X153595226Y-120901898D01*
X153635000Y-120701939D01*
X153635000Y-120498061D01*
X153595226Y-120298102D01*
X153517205Y-120109744D01*
X153403937Y-119940226D01*
X153377300Y-119913589D01*
X160115000Y-119913589D01*
X160115000Y-120186411D01*
X160168225Y-120453989D01*
X160272629Y-120706043D01*
X160424201Y-120932886D01*
X160617114Y-121125799D01*
X160843957Y-121277371D01*
X161096011Y-121381775D01*
X161363589Y-121435000D01*
X161636411Y-121435000D01*
X161903989Y-121381775D01*
X162156043Y-121277371D01*
X162382886Y-121125799D01*
X162575799Y-120932886D01*
X162727371Y-120706043D01*
X162831775Y-120453989D01*
X162885000Y-120186411D01*
X162885000Y-119913589D01*
X162831775Y-119646011D01*
X162727371Y-119393957D01*
X162575799Y-119167114D01*
X162382886Y-118974201D01*
X162156043Y-118822629D01*
X161903989Y-118718225D01*
X161636411Y-118665000D01*
X161363589Y-118665000D01*
X161096011Y-118718225D01*
X160843957Y-118822629D01*
X160617114Y-118974201D01*
X160424201Y-119167114D01*
X160272629Y-119393957D01*
X160168225Y-119646011D01*
X160115000Y-119913589D01*
X153377300Y-119913589D01*
X153259774Y-119796063D01*
X153090256Y-119682795D01*
X152901898Y-119604774D01*
X152701939Y-119565000D01*
X152498061Y-119565000D01*
X152298102Y-119604774D01*
X152109744Y-119682795D01*
X151940226Y-119796063D01*
X151796063Y-119940226D01*
X151682795Y-120109744D01*
X151604774Y-120298102D01*
X151565000Y-120498061D01*
X128863745Y-120498061D01*
X128900990Y-120408145D01*
X128935000Y-120237165D01*
X128935000Y-120062835D01*
X128900990Y-119891855D01*
X128834277Y-119730795D01*
X128737424Y-119585845D01*
X128614155Y-119462576D01*
X128469205Y-119365723D01*
X128308145Y-119299010D01*
X128137165Y-119265000D01*
X127962835Y-119265000D01*
X127791855Y-119299010D01*
X127630795Y-119365723D01*
X127485845Y-119462576D01*
X127362576Y-119585845D01*
X127265723Y-119730795D01*
X127199010Y-119891855D01*
X127165000Y-120062835D01*
X126835000Y-120062835D01*
X126800990Y-119891855D01*
X126734277Y-119730795D01*
X126637424Y-119585845D01*
X126514155Y-119462576D01*
X126369205Y-119365723D01*
X126208145Y-119299010D01*
X126037165Y-119265000D01*
X125862835Y-119265000D01*
X125691855Y-119299010D01*
X125530795Y-119365723D01*
X125385845Y-119462576D01*
X125262576Y-119585845D01*
X125165723Y-119730795D01*
X125099010Y-119891855D01*
X125065000Y-120062835D01*
X124480096Y-120062835D01*
X124590256Y-120017205D01*
X124759774Y-119903937D01*
X124903937Y-119759774D01*
X125017205Y-119590256D01*
X125095226Y-119401898D01*
X125135000Y-119201939D01*
X125135000Y-118998061D01*
X125095226Y-118798102D01*
X125017205Y-118609744D01*
X124903937Y-118440226D01*
X124759774Y-118296063D01*
X124590256Y-118182795D01*
X124401898Y-118104774D01*
X124201939Y-118065000D01*
X123998061Y-118065000D01*
X123798102Y-118104774D01*
X123609744Y-118182795D01*
X123440226Y-118296063D01*
X123296063Y-118440226D01*
X123182795Y-118609744D01*
X123104774Y-118798102D01*
X123065000Y-118998061D01*
X118655393Y-118998061D01*
X118695226Y-118901898D01*
X118735000Y-118701939D01*
X118735000Y-118498061D01*
X118695226Y-118298102D01*
X118617205Y-118109744D01*
X118519044Y-117962835D01*
X125065000Y-117962835D01*
X125065000Y-118137165D01*
X125099010Y-118308145D01*
X125165723Y-118469205D01*
X125262576Y-118614155D01*
X125385845Y-118737424D01*
X125530795Y-118834277D01*
X125691855Y-118900990D01*
X125862835Y-118935000D01*
X126037165Y-118935000D01*
X126208145Y-118900990D01*
X126369205Y-118834277D01*
X126514155Y-118737424D01*
X126637424Y-118614155D01*
X126734277Y-118469205D01*
X126800990Y-118308145D01*
X126835000Y-118137165D01*
X126835000Y-117962835D01*
X127165000Y-117962835D01*
X127165000Y-118137165D01*
X127199010Y-118308145D01*
X127265723Y-118469205D01*
X127362576Y-118614155D01*
X127485845Y-118737424D01*
X127630795Y-118834277D01*
X127791855Y-118900990D01*
X127962835Y-118935000D01*
X128137165Y-118935000D01*
X128308145Y-118900990D01*
X128469205Y-118834277D01*
X128614155Y-118737424D01*
X128737424Y-118614155D01*
X128834277Y-118469205D01*
X128900990Y-118308145D01*
X128935000Y-118137165D01*
X128935000Y-117962835D01*
X128900990Y-117791855D01*
X128834277Y-117630795D01*
X128737424Y-117485845D01*
X128614155Y-117362576D01*
X128469205Y-117265723D01*
X128407624Y-117240215D01*
X128955410Y-117240215D01*
X128955410Y-117444093D01*
X128995184Y-117644052D01*
X129073205Y-117832410D01*
X129186473Y-118001928D01*
X129330636Y-118146091D01*
X129500154Y-118259359D01*
X129688512Y-118337380D01*
X129888471Y-118377154D01*
X130092349Y-118377154D01*
X130292308Y-118337380D01*
X130480666Y-118259359D01*
X130650184Y-118146091D01*
X130794347Y-118001928D01*
X130796930Y-117998061D01*
X138465000Y-117998061D01*
X138465000Y-118201939D01*
X138504774Y-118401898D01*
X138582795Y-118590256D01*
X138696063Y-118759774D01*
X138840226Y-118903937D01*
X139009744Y-119017205D01*
X139198102Y-119095226D01*
X139398061Y-119135000D01*
X139601939Y-119135000D01*
X139801898Y-119095226D01*
X139990256Y-119017205D01*
X140159774Y-118903937D01*
X140303937Y-118759774D01*
X140411989Y-118598061D01*
X141965000Y-118598061D01*
X141965000Y-118801939D01*
X142004774Y-119001898D01*
X142082795Y-119190256D01*
X142196063Y-119359774D01*
X142340226Y-119503937D01*
X142509744Y-119617205D01*
X142698102Y-119695226D01*
X142898061Y-119735000D01*
X143101939Y-119735000D01*
X143301898Y-119695226D01*
X143490256Y-119617205D01*
X143659774Y-119503937D01*
X143803937Y-119359774D01*
X143917205Y-119190256D01*
X143995226Y-119001898D01*
X144035000Y-118801939D01*
X144035000Y-118598061D01*
X143995226Y-118398102D01*
X143917205Y-118209744D01*
X143803937Y-118040226D01*
X143659774Y-117896063D01*
X143490256Y-117782795D01*
X143301898Y-117704774D01*
X143101939Y-117665000D01*
X142898061Y-117665000D01*
X142698102Y-117704774D01*
X142509744Y-117782795D01*
X142340226Y-117896063D01*
X142196063Y-118040226D01*
X142082795Y-118209744D01*
X142004774Y-118398102D01*
X141965000Y-118598061D01*
X140411989Y-118598061D01*
X140417205Y-118590256D01*
X140495226Y-118401898D01*
X140535000Y-118201939D01*
X140535000Y-117998061D01*
X140495226Y-117798102D01*
X140417205Y-117609744D01*
X140303937Y-117440226D01*
X140159774Y-117296063D01*
X139990256Y-117182795D01*
X139801898Y-117104774D01*
X139601939Y-117065000D01*
X139398061Y-117065000D01*
X139198102Y-117104774D01*
X139009744Y-117182795D01*
X138840226Y-117296063D01*
X138696063Y-117440226D01*
X138582795Y-117609744D01*
X138504774Y-117798102D01*
X138465000Y-117998061D01*
X130796930Y-117998061D01*
X130907615Y-117832410D01*
X130985636Y-117644052D01*
X131025410Y-117444093D01*
X131025410Y-117240215D01*
X130985636Y-117040256D01*
X130907615Y-116851898D01*
X130794347Y-116682380D01*
X130650184Y-116538217D01*
X130480666Y-116424949D01*
X130292308Y-116346928D01*
X130092349Y-116307154D01*
X129888471Y-116307154D01*
X129688512Y-116346928D01*
X129500154Y-116424949D01*
X129330636Y-116538217D01*
X129186473Y-116682380D01*
X129073205Y-116851898D01*
X128995184Y-117040256D01*
X128955410Y-117240215D01*
X128407624Y-117240215D01*
X128308145Y-117199010D01*
X128137165Y-117165000D01*
X127962835Y-117165000D01*
X127791855Y-117199010D01*
X127630795Y-117265723D01*
X127485845Y-117362576D01*
X127362576Y-117485845D01*
X127265723Y-117630795D01*
X127199010Y-117791855D01*
X127165000Y-117962835D01*
X126835000Y-117962835D01*
X126800990Y-117791855D01*
X126734277Y-117630795D01*
X126637424Y-117485845D01*
X126514155Y-117362576D01*
X126369205Y-117265723D01*
X126208145Y-117199010D01*
X126037165Y-117165000D01*
X125862835Y-117165000D01*
X125691855Y-117199010D01*
X125530795Y-117265723D01*
X125385845Y-117362576D01*
X125262576Y-117485845D01*
X125165723Y-117630795D01*
X125099010Y-117791855D01*
X125065000Y-117962835D01*
X118519044Y-117962835D01*
X118503937Y-117940226D01*
X118359774Y-117796063D01*
X118190256Y-117682795D01*
X118001898Y-117604774D01*
X117801939Y-117565000D01*
X117598061Y-117565000D01*
X117398102Y-117604774D01*
X117209744Y-117682795D01*
X117040226Y-117796063D01*
X116896063Y-117940226D01*
X116782795Y-118109744D01*
X116704774Y-118298102D01*
X116665000Y-118498061D01*
X100660000Y-118498061D01*
X100660000Y-117007729D01*
X107462122Y-117007729D01*
X107462122Y-117177135D01*
X107495171Y-117343285D01*
X107560000Y-117499795D01*
X107654117Y-117640650D01*
X107773904Y-117760437D01*
X107914759Y-117854554D01*
X108071269Y-117919383D01*
X108237419Y-117952432D01*
X108406825Y-117952432D01*
X108572975Y-117919383D01*
X108729485Y-117854554D01*
X108870340Y-117760437D01*
X108990127Y-117640650D01*
X109084244Y-117499795D01*
X109149073Y-117343285D01*
X109182122Y-117177135D01*
X109182122Y-117007729D01*
X109149073Y-116841579D01*
X109084244Y-116685069D01*
X108990127Y-116544214D01*
X108870340Y-116424427D01*
X108729485Y-116330310D01*
X108572975Y-116265481D01*
X108406825Y-116232432D01*
X108237419Y-116232432D01*
X108071269Y-116265481D01*
X107914759Y-116330310D01*
X107773904Y-116424427D01*
X107654117Y-116544214D01*
X107560000Y-116685069D01*
X107495171Y-116841579D01*
X107462122Y-117007729D01*
X100660000Y-117007729D01*
X100660000Y-116098061D01*
X142365000Y-116098061D01*
X142365000Y-116301939D01*
X142404774Y-116501898D01*
X142482795Y-116690256D01*
X142596063Y-116859774D01*
X142740226Y-117003937D01*
X142909744Y-117117205D01*
X143098102Y-117195226D01*
X143298061Y-117235000D01*
X143501939Y-117235000D01*
X143701898Y-117195226D01*
X143890256Y-117117205D01*
X144059774Y-117003937D01*
X144203937Y-116859774D01*
X144317205Y-116690256D01*
X144395226Y-116501898D01*
X144435000Y-116301939D01*
X144435000Y-116098061D01*
X144395226Y-115898102D01*
X144317205Y-115709744D01*
X144203937Y-115540226D01*
X144059774Y-115396063D01*
X143890256Y-115282795D01*
X143701898Y-115204774D01*
X143501939Y-115165000D01*
X143298061Y-115165000D01*
X143098102Y-115204774D01*
X142909744Y-115282795D01*
X142740226Y-115396063D01*
X142596063Y-115540226D01*
X142482795Y-115709744D01*
X142404774Y-115898102D01*
X142365000Y-116098061D01*
X100660000Y-116098061D01*
X100660000Y-114754181D01*
X100898096Y-114826407D01*
X101086877Y-114845000D01*
X102513123Y-114845000D01*
X102701904Y-114826407D01*
X102944127Y-114752929D01*
X103167362Y-114633608D01*
X103363028Y-114473028D01*
X103523608Y-114277362D01*
X103642929Y-114054127D01*
X103716407Y-113811904D01*
X103741217Y-113560000D01*
X103716407Y-113308096D01*
X103642929Y-113065873D01*
X103523608Y-112842638D01*
X103363028Y-112646972D01*
X103167362Y-112486392D01*
X102944127Y-112367071D01*
X102701904Y-112293593D01*
X102513123Y-112275000D01*
X101086877Y-112275000D01*
X100898096Y-112293593D01*
X100660000Y-112365819D01*
X100660000Y-112215297D01*
X104840000Y-112215297D01*
X104840000Y-112384703D01*
X104873049Y-112550853D01*
X104937878Y-112707363D01*
X105031995Y-112848218D01*
X105151782Y-112968005D01*
X105292637Y-113062122D01*
X105449147Y-113126951D01*
X105499976Y-113137061D01*
X105442147Y-113327700D01*
X105419267Y-113560000D01*
X105442147Y-113792300D01*
X105509906Y-114015674D01*
X105619942Y-114221536D01*
X105768025Y-114401975D01*
X105948464Y-114550058D01*
X106154326Y-114660094D01*
X106377700Y-114727853D01*
X106551793Y-114745000D01*
X107573565Y-114745000D01*
X107604774Y-114901898D01*
X107682795Y-115090256D01*
X107796063Y-115259774D01*
X107940226Y-115403937D01*
X108109744Y-115517205D01*
X108298102Y-115595226D01*
X108498061Y-115635000D01*
X108701939Y-115635000D01*
X108901898Y-115595226D01*
X109090256Y-115517205D01*
X109259774Y-115403937D01*
X109403937Y-115259774D01*
X109517205Y-115090256D01*
X109595226Y-114901898D01*
X109635000Y-114701939D01*
X109635000Y-114498061D01*
X109595226Y-114298102D01*
X109517205Y-114109744D01*
X109403937Y-113940226D01*
X109259774Y-113796063D01*
X109090256Y-113682795D01*
X108901898Y-113604774D01*
X108896430Y-113603686D01*
X108900733Y-113560000D01*
X108879948Y-113348967D01*
X110465000Y-113348967D01*
X110465000Y-113671033D01*
X110527832Y-113986912D01*
X110651082Y-114284463D01*
X110830013Y-114552252D01*
X111057748Y-114779987D01*
X111325537Y-114958918D01*
X111623088Y-115082168D01*
X111938967Y-115145000D01*
X112261033Y-115145000D01*
X112576912Y-115082168D01*
X112874463Y-114958918D01*
X113142252Y-114779987D01*
X113369987Y-114552252D01*
X113548918Y-114284463D01*
X113584706Y-114198061D01*
X120365000Y-114198061D01*
X120365000Y-114401939D01*
X120404774Y-114601898D01*
X120482795Y-114790256D01*
X120596063Y-114959774D01*
X120740226Y-115103937D01*
X120909744Y-115217205D01*
X121098102Y-115295226D01*
X121298061Y-115335000D01*
X121501939Y-115335000D01*
X121701898Y-115295226D01*
X121890256Y-115217205D01*
X122059774Y-115103937D01*
X122203937Y-114959774D01*
X122317205Y-114790256D01*
X122395226Y-114601898D01*
X122435000Y-114401939D01*
X122435000Y-114198061D01*
X122395226Y-113998102D01*
X122317205Y-113809744D01*
X122242582Y-113698061D01*
X123965000Y-113698061D01*
X123965000Y-113901939D01*
X124004774Y-114101898D01*
X124082795Y-114290256D01*
X124196063Y-114459774D01*
X124340226Y-114603937D01*
X124509744Y-114717205D01*
X124698102Y-114795226D01*
X124898061Y-114835000D01*
X125101939Y-114835000D01*
X125301898Y-114795226D01*
X125490256Y-114717205D01*
X125659774Y-114603937D01*
X125803937Y-114459774D01*
X125917205Y-114290256D01*
X125995226Y-114101898D01*
X126035000Y-113901939D01*
X126035000Y-113698061D01*
X128965000Y-113698061D01*
X128965000Y-113901939D01*
X129004774Y-114101898D01*
X129082795Y-114290256D01*
X129196063Y-114459774D01*
X129340226Y-114603937D01*
X129509744Y-114717205D01*
X129698102Y-114795226D01*
X129898061Y-114835000D01*
X130101939Y-114835000D01*
X130301898Y-114795226D01*
X130490256Y-114717205D01*
X130659774Y-114603937D01*
X130803937Y-114459774D01*
X130917205Y-114290256D01*
X130995226Y-114101898D01*
X131035000Y-113901939D01*
X131035000Y-113698061D01*
X130995226Y-113498102D01*
X130917205Y-113309744D01*
X130900637Y-113284947D01*
X136980000Y-113284947D01*
X136980000Y-113735053D01*
X137067811Y-114176510D01*
X137240059Y-114592353D01*
X137490125Y-114966603D01*
X137808397Y-115284875D01*
X138182647Y-115534941D01*
X138598490Y-115707189D01*
X139039947Y-115795000D01*
X139490053Y-115795000D01*
X139931510Y-115707189D01*
X140347353Y-115534941D01*
X140721603Y-115284875D01*
X140992889Y-115013589D01*
X160115000Y-115013589D01*
X160115000Y-115286411D01*
X160168225Y-115553989D01*
X160272629Y-115806043D01*
X160424201Y-116032886D01*
X160617114Y-116225799D01*
X160843957Y-116377371D01*
X161096011Y-116481775D01*
X161363589Y-116535000D01*
X161636411Y-116535000D01*
X161903989Y-116481775D01*
X162156043Y-116377371D01*
X162382886Y-116225799D01*
X162575799Y-116032886D01*
X162727371Y-115806043D01*
X162831775Y-115553989D01*
X162885000Y-115286411D01*
X162885000Y-115013589D01*
X162831775Y-114746011D01*
X162727371Y-114493957D01*
X162575799Y-114267114D01*
X162382886Y-114074201D01*
X162156043Y-113922629D01*
X161903989Y-113818225D01*
X161636411Y-113765000D01*
X161363589Y-113765000D01*
X161096011Y-113818225D01*
X160843957Y-113922629D01*
X160617114Y-114074201D01*
X160424201Y-114267114D01*
X160272629Y-114493957D01*
X160168225Y-114746011D01*
X160115000Y-115013589D01*
X140992889Y-115013589D01*
X141039875Y-114966603D01*
X141289941Y-114592353D01*
X141462189Y-114176510D01*
X141550000Y-113735053D01*
X141550000Y-113598061D01*
X152865000Y-113598061D01*
X152865000Y-113801939D01*
X152904774Y-114001898D01*
X152982795Y-114190256D01*
X153096063Y-114359774D01*
X153240226Y-114503937D01*
X153409744Y-114617205D01*
X153598102Y-114695226D01*
X153798061Y-114735000D01*
X154001939Y-114735000D01*
X154201898Y-114695226D01*
X154390256Y-114617205D01*
X154559774Y-114503937D01*
X154703937Y-114359774D01*
X154817205Y-114190256D01*
X154895226Y-114001898D01*
X154935000Y-113801939D01*
X154935000Y-113598061D01*
X154895226Y-113398102D01*
X154817205Y-113209744D01*
X154703937Y-113040226D01*
X154559774Y-112896063D01*
X154390256Y-112782795D01*
X154201898Y-112704774D01*
X154001939Y-112665000D01*
X153798061Y-112665000D01*
X153598102Y-112704774D01*
X153409744Y-112782795D01*
X153240226Y-112896063D01*
X153096063Y-113040226D01*
X152982795Y-113209744D01*
X152904774Y-113398102D01*
X152865000Y-113598061D01*
X141550000Y-113598061D01*
X141550000Y-113284947D01*
X141462189Y-112843490D01*
X141360529Y-112598061D01*
X157365000Y-112598061D01*
X157365000Y-112801939D01*
X157404774Y-113001898D01*
X157482795Y-113190256D01*
X157596063Y-113359774D01*
X157740226Y-113503937D01*
X157909744Y-113617205D01*
X158098102Y-113695226D01*
X158298061Y-113735000D01*
X158501939Y-113735000D01*
X158701898Y-113695226D01*
X158890256Y-113617205D01*
X159059774Y-113503937D01*
X159203937Y-113359774D01*
X159317205Y-113190256D01*
X159395226Y-113001898D01*
X159435000Y-112801939D01*
X159435000Y-112598061D01*
X159395226Y-112398102D01*
X159317205Y-112209744D01*
X159309399Y-112198061D01*
X159765000Y-112198061D01*
X159765000Y-112401939D01*
X159804774Y-112601898D01*
X159882795Y-112790256D01*
X159996063Y-112959774D01*
X160140226Y-113103937D01*
X160309744Y-113217205D01*
X160498102Y-113295226D01*
X160698061Y-113335000D01*
X160901939Y-113335000D01*
X161101898Y-113295226D01*
X161290256Y-113217205D01*
X161459774Y-113103937D01*
X161603937Y-112959774D01*
X161717205Y-112790256D01*
X161795226Y-112601898D01*
X161835000Y-112401939D01*
X161835000Y-112198061D01*
X165865000Y-112198061D01*
X165865000Y-112401939D01*
X165904774Y-112601898D01*
X165982795Y-112790256D01*
X166096063Y-112959774D01*
X166240226Y-113103937D01*
X166409744Y-113217205D01*
X166598102Y-113295226D01*
X166798061Y-113335000D01*
X167001939Y-113335000D01*
X167201898Y-113295226D01*
X167390256Y-113217205D01*
X167559774Y-113103937D01*
X167703937Y-112959774D01*
X167817205Y-112790256D01*
X167895226Y-112601898D01*
X167935000Y-112401939D01*
X167935000Y-112198061D01*
X167895226Y-111998102D01*
X167817205Y-111809744D01*
X167703937Y-111640226D01*
X167559774Y-111496063D01*
X167390256Y-111382795D01*
X167201898Y-111304774D01*
X167001939Y-111265000D01*
X166798061Y-111265000D01*
X166598102Y-111304774D01*
X166409744Y-111382795D01*
X166240226Y-111496063D01*
X166096063Y-111640226D01*
X165982795Y-111809744D01*
X165904774Y-111998102D01*
X165865000Y-112198061D01*
X161835000Y-112198061D01*
X161795226Y-111998102D01*
X161717205Y-111809744D01*
X161603937Y-111640226D01*
X161459774Y-111496063D01*
X161290256Y-111382795D01*
X161101898Y-111304774D01*
X160901939Y-111265000D01*
X160698061Y-111265000D01*
X160498102Y-111304774D01*
X160309744Y-111382795D01*
X160140226Y-111496063D01*
X159996063Y-111640226D01*
X159882795Y-111809744D01*
X159804774Y-111998102D01*
X159765000Y-112198061D01*
X159309399Y-112198061D01*
X159203937Y-112040226D01*
X159059774Y-111896063D01*
X158890256Y-111782795D01*
X158701898Y-111704774D01*
X158501939Y-111665000D01*
X158298061Y-111665000D01*
X158098102Y-111704774D01*
X157909744Y-111782795D01*
X157740226Y-111896063D01*
X157596063Y-112040226D01*
X157482795Y-112209744D01*
X157404774Y-112398102D01*
X157365000Y-112598061D01*
X141360529Y-112598061D01*
X141289941Y-112427647D01*
X141039875Y-112053397D01*
X140721603Y-111735125D01*
X140347353Y-111485059D01*
X139931510Y-111312811D01*
X139490053Y-111225000D01*
X139039947Y-111225000D01*
X138598490Y-111312811D01*
X138182647Y-111485059D01*
X137808397Y-111735125D01*
X137490125Y-112053397D01*
X137240059Y-112427647D01*
X137067811Y-112843490D01*
X136980000Y-113284947D01*
X130900637Y-113284947D01*
X130803937Y-113140226D01*
X130659774Y-112996063D01*
X130490256Y-112882795D01*
X130301898Y-112804774D01*
X130101939Y-112765000D01*
X129898061Y-112765000D01*
X129698102Y-112804774D01*
X129509744Y-112882795D01*
X129340226Y-112996063D01*
X129196063Y-113140226D01*
X129082795Y-113309744D01*
X129004774Y-113498102D01*
X128965000Y-113698061D01*
X126035000Y-113698061D01*
X125995226Y-113498102D01*
X125917205Y-113309744D01*
X125803937Y-113140226D01*
X125659774Y-112996063D01*
X125490256Y-112882795D01*
X125301898Y-112804774D01*
X125101939Y-112765000D01*
X124898061Y-112765000D01*
X124698102Y-112804774D01*
X124509744Y-112882795D01*
X124340226Y-112996063D01*
X124196063Y-113140226D01*
X124082795Y-113309744D01*
X124004774Y-113498102D01*
X123965000Y-113698061D01*
X122242582Y-113698061D01*
X122203937Y-113640226D01*
X122059774Y-113496063D01*
X121890256Y-113382795D01*
X121701898Y-113304774D01*
X121501939Y-113265000D01*
X121298061Y-113265000D01*
X121098102Y-113304774D01*
X120909744Y-113382795D01*
X120740226Y-113496063D01*
X120596063Y-113640226D01*
X120482795Y-113809744D01*
X120404774Y-113998102D01*
X120365000Y-114198061D01*
X113584706Y-114198061D01*
X113672168Y-113986912D01*
X113735000Y-113671033D01*
X113735000Y-113348967D01*
X113672168Y-113033088D01*
X113548918Y-112735537D01*
X113369987Y-112467748D01*
X113142252Y-112240013D01*
X112874463Y-112061082D01*
X112576912Y-111937832D01*
X112261033Y-111875000D01*
X111938967Y-111875000D01*
X111623088Y-111937832D01*
X111325537Y-112061082D01*
X111057748Y-112240013D01*
X110830013Y-112467748D01*
X110651082Y-112735537D01*
X110527832Y-113033088D01*
X110465000Y-113348967D01*
X108879948Y-113348967D01*
X108877853Y-113327700D01*
X108810094Y-113104326D01*
X108700058Y-112898464D01*
X108551975Y-112718025D01*
X108371536Y-112569942D01*
X108165674Y-112459906D01*
X107942300Y-112392147D01*
X107768207Y-112375000D01*
X106560000Y-112375000D01*
X106560000Y-112215297D01*
X106526951Y-112049147D01*
X106462122Y-111892637D01*
X106368005Y-111751782D01*
X106248218Y-111631995D01*
X106107363Y-111537878D01*
X105950853Y-111473049D01*
X105784703Y-111440000D01*
X105615297Y-111440000D01*
X105449147Y-111473049D01*
X105292637Y-111537878D01*
X105151782Y-111631995D01*
X105031995Y-111751782D01*
X104937878Y-111892637D01*
X104873049Y-112049147D01*
X104840000Y-112215297D01*
X100660000Y-112215297D01*
X100660000Y-111198061D01*
X108315000Y-111198061D01*
X108315000Y-111401939D01*
X108354774Y-111601898D01*
X108432795Y-111790256D01*
X108546063Y-111959774D01*
X108690226Y-112103937D01*
X108859744Y-112217205D01*
X109048102Y-112295226D01*
X109248061Y-112335000D01*
X109451939Y-112335000D01*
X109651898Y-112295226D01*
X109840256Y-112217205D01*
X110009774Y-112103937D01*
X110153937Y-111959774D01*
X110267205Y-111790256D01*
X110345226Y-111601898D01*
X110385000Y-111401939D01*
X110385000Y-111198061D01*
X132165000Y-111198061D01*
X132165000Y-111401939D01*
X132204774Y-111601898D01*
X132282795Y-111790256D01*
X132396063Y-111959774D01*
X132540226Y-112103937D01*
X132709744Y-112217205D01*
X132898102Y-112295226D01*
X133098061Y-112335000D01*
X133301939Y-112335000D01*
X133501898Y-112295226D01*
X133690256Y-112217205D01*
X133859774Y-112103937D01*
X134003937Y-111959774D01*
X134117205Y-111790256D01*
X134195226Y-111601898D01*
X134235000Y-111401939D01*
X134235000Y-111198061D01*
X134195226Y-110998102D01*
X134117205Y-110809744D01*
X134003937Y-110640226D01*
X133859774Y-110496063D01*
X133690256Y-110382795D01*
X133501898Y-110304774D01*
X133301939Y-110265000D01*
X133098061Y-110265000D01*
X132898102Y-110304774D01*
X132709744Y-110382795D01*
X132540226Y-110496063D01*
X132396063Y-110640226D01*
X132282795Y-110809744D01*
X132204774Y-110998102D01*
X132165000Y-111198061D01*
X110385000Y-111198061D01*
X110345226Y-110998102D01*
X110267205Y-110809744D01*
X110153937Y-110640226D01*
X110009774Y-110496063D01*
X109840256Y-110382795D01*
X109651898Y-110304774D01*
X109451939Y-110265000D01*
X109248061Y-110265000D01*
X109048102Y-110304774D01*
X108859744Y-110382795D01*
X108690226Y-110496063D01*
X108546063Y-110640226D01*
X108432795Y-110809744D01*
X108354774Y-110998102D01*
X108315000Y-111198061D01*
X100660000Y-111198061D01*
X100660000Y-108998061D01*
X108265000Y-108998061D01*
X108265000Y-109201939D01*
X108304774Y-109401898D01*
X108382795Y-109590256D01*
X108496063Y-109759774D01*
X108640226Y-109903937D01*
X108809744Y-110017205D01*
X108998102Y-110095226D01*
X109198061Y-110135000D01*
X109401939Y-110135000D01*
X109601898Y-110095226D01*
X109790256Y-110017205D01*
X109959774Y-109903937D01*
X110103937Y-109759774D01*
X110217205Y-109590256D01*
X110295226Y-109401898D01*
X110335000Y-109201939D01*
X110335000Y-108998061D01*
X110295226Y-108798102D01*
X110217205Y-108609744D01*
X110103937Y-108440226D01*
X109959774Y-108296063D01*
X109790256Y-108182795D01*
X109601898Y-108104774D01*
X109401939Y-108065000D01*
X109198061Y-108065000D01*
X108998102Y-108104774D01*
X108809744Y-108182795D01*
X108640226Y-108296063D01*
X108496063Y-108440226D01*
X108382795Y-108609744D01*
X108304774Y-108798102D01*
X108265000Y-108998061D01*
X100660000Y-108998061D01*
X100660000Y-105398061D01*
X134365000Y-105398061D01*
X134365000Y-105601939D01*
X134404774Y-105801898D01*
X134482795Y-105990256D01*
X134596063Y-106159774D01*
X134740226Y-106303937D01*
X134909744Y-106417205D01*
X135098102Y-106495226D01*
X135298061Y-106535000D01*
X135501939Y-106535000D01*
X135701898Y-106495226D01*
X135890256Y-106417205D01*
X136059774Y-106303937D01*
X136203937Y-106159774D01*
X136317205Y-105990256D01*
X136395226Y-105801898D01*
X136435000Y-105601939D01*
X136435000Y-105398061D01*
X136395226Y-105198102D01*
X136317205Y-105009744D01*
X136203937Y-104840226D01*
X136059774Y-104696063D01*
X135890256Y-104582795D01*
X135701898Y-104504774D01*
X135501939Y-104465000D01*
X135298061Y-104465000D01*
X135098102Y-104504774D01*
X134909744Y-104582795D01*
X134740226Y-104696063D01*
X134596063Y-104840226D01*
X134482795Y-105009744D01*
X134404774Y-105198102D01*
X134365000Y-105398061D01*
X100660000Y-105398061D01*
X100660000Y-102848648D01*
X107583300Y-102848648D01*
X107583300Y-103151352D01*
X107642355Y-103448239D01*
X107758195Y-103727900D01*
X107926368Y-103979589D01*
X108140411Y-104193632D01*
X108392100Y-104361805D01*
X108671761Y-104477645D01*
X108968648Y-104536700D01*
X109271352Y-104536700D01*
X109568239Y-104477645D01*
X109847900Y-104361805D01*
X110099589Y-104193632D01*
X110313632Y-103979589D01*
X110481805Y-103727900D01*
X110597645Y-103448239D01*
X110656700Y-103151352D01*
X110656700Y-102848648D01*
X112663300Y-102848648D01*
X112663300Y-103151352D01*
X112722355Y-103448239D01*
X112838195Y-103727900D01*
X113006368Y-103979589D01*
X113220411Y-104193632D01*
X113472100Y-104361805D01*
X113751761Y-104477645D01*
X114048648Y-104536700D01*
X114351352Y-104536700D01*
X114648239Y-104477645D01*
X114927900Y-104361805D01*
X115179589Y-104193632D01*
X115393632Y-103979589D01*
X115561805Y-103727900D01*
X115677645Y-103448239D01*
X115736700Y-103151352D01*
X115736700Y-102848648D01*
X115677645Y-102551761D01*
X115641432Y-102464335D01*
X120165000Y-102464335D01*
X120165000Y-103135664D01*
X120182870Y-103317101D01*
X120253489Y-103549900D01*
X120368167Y-103764448D01*
X120522498Y-103952502D01*
X120710551Y-104106833D01*
X120925099Y-104221511D01*
X121157898Y-104292130D01*
X121400000Y-104315975D01*
X121642101Y-104292130D01*
X121874900Y-104221511D01*
X122089448Y-104106833D01*
X122277502Y-103952502D01*
X122309191Y-103913889D01*
X122311595Y-103918387D01*
X122422038Y-104052962D01*
X122556613Y-104163405D01*
X122710149Y-104245472D01*
X122876745Y-104296008D01*
X123049999Y-104313072D01*
X123750001Y-104313072D01*
X123923255Y-104296008D01*
X124089851Y-104245472D01*
X124243387Y-104163405D01*
X124377962Y-104052962D01*
X124488405Y-103918387D01*
X124570472Y-103764851D01*
X124605311Y-103650000D01*
X130111928Y-103650000D01*
X130124188Y-103774482D01*
X130160498Y-103894180D01*
X130219463Y-104004494D01*
X130298815Y-104101185D01*
X130395506Y-104180537D01*
X130505820Y-104239502D01*
X130625518Y-104275812D01*
X130750000Y-104288072D01*
X131314250Y-104285000D01*
X131473000Y-104126250D01*
X131473000Y-102927000D01*
X130273750Y-102927000D01*
X130115000Y-103085750D01*
X130111928Y-103650000D01*
X124605311Y-103650000D01*
X124621008Y-103598255D01*
X124638072Y-103425001D01*
X124638072Y-102174999D01*
X124621008Y-102001745D01*
X124605312Y-101950000D01*
X130111928Y-101950000D01*
X130115000Y-102514250D01*
X130273750Y-102673000D01*
X131473000Y-102673000D01*
X131473000Y-101473750D01*
X131727000Y-101473750D01*
X131727000Y-102673000D01*
X131747000Y-102673000D01*
X131747000Y-102927000D01*
X131727000Y-102927000D01*
X131727000Y-104126250D01*
X131885750Y-104285000D01*
X132450000Y-104288072D01*
X132574482Y-104275812D01*
X132694180Y-104239502D01*
X132804494Y-104180537D01*
X132901185Y-104101185D01*
X132980537Y-104004494D01*
X133039502Y-103894180D01*
X133060393Y-103825313D01*
X133084866Y-103855134D01*
X133310986Y-104040706D01*
X133568966Y-104178599D01*
X133848889Y-104263513D01*
X134067050Y-104285000D01*
X134212950Y-104285000D01*
X134431111Y-104263513D01*
X134711034Y-104178599D01*
X134969014Y-104040706D01*
X135195134Y-103855134D01*
X135380706Y-103629014D01*
X135410000Y-103574209D01*
X135439294Y-103629014D01*
X135624866Y-103855134D01*
X135850986Y-104040706D01*
X136108966Y-104178599D01*
X136388889Y-104263513D01*
X136607050Y-104285000D01*
X136752950Y-104285000D01*
X136971111Y-104263513D01*
X137251034Y-104178599D01*
X137509014Y-104040706D01*
X137735134Y-103855134D01*
X137920706Y-103629014D01*
X137950000Y-103574209D01*
X137979294Y-103629014D01*
X138164866Y-103855134D01*
X138238845Y-103915847D01*
X138204774Y-103998102D01*
X138165000Y-104198061D01*
X138165000Y-104401939D01*
X138204774Y-104601898D01*
X138282795Y-104790256D01*
X138396063Y-104959774D01*
X138540226Y-105103937D01*
X138709744Y-105217205D01*
X138898102Y-105295226D01*
X139098061Y-105335000D01*
X139301939Y-105335000D01*
X139501898Y-105295226D01*
X139690256Y-105217205D01*
X139859774Y-105103937D01*
X140003937Y-104959774D01*
X140117205Y-104790256D01*
X140195226Y-104601898D01*
X140235000Y-104401939D01*
X140235000Y-104198061D01*
X140195226Y-103998102D01*
X140171303Y-103940346D01*
X140275134Y-103855134D01*
X140460706Y-103629014D01*
X140490000Y-103574209D01*
X140519294Y-103629014D01*
X140704866Y-103855134D01*
X140930986Y-104040706D01*
X141188966Y-104178599D01*
X141468889Y-104263513D01*
X141687050Y-104285000D01*
X141832950Y-104285000D01*
X142051111Y-104263513D01*
X142331034Y-104178599D01*
X142589014Y-104040706D01*
X142815134Y-103855134D01*
X143000706Y-103629014D01*
X143030000Y-103574209D01*
X143059294Y-103629014D01*
X143244866Y-103855134D01*
X143470986Y-104040706D01*
X143728966Y-104178599D01*
X144008889Y-104263513D01*
X144227050Y-104285000D01*
X144372950Y-104285000D01*
X144591111Y-104263513D01*
X144871034Y-104178599D01*
X145129014Y-104040706D01*
X145355134Y-103855134D01*
X145540706Y-103629014D01*
X145570000Y-103574209D01*
X145599294Y-103629014D01*
X145784866Y-103855134D01*
X146010986Y-104040706D01*
X146268966Y-104178599D01*
X146548889Y-104263513D01*
X146767050Y-104285000D01*
X146912950Y-104285000D01*
X147131111Y-104263513D01*
X147411034Y-104178599D01*
X147669014Y-104040706D01*
X147895134Y-103855134D01*
X148080706Y-103629014D01*
X148110000Y-103574209D01*
X148139294Y-103629014D01*
X148324866Y-103855134D01*
X148550986Y-104040706D01*
X148808966Y-104178599D01*
X149088889Y-104263513D01*
X149307050Y-104285000D01*
X149452950Y-104285000D01*
X149671111Y-104263513D01*
X149951034Y-104178599D01*
X150209014Y-104040706D01*
X150435134Y-103855134D01*
X150620706Y-103629014D01*
X150650000Y-103574209D01*
X150679294Y-103629014D01*
X150864866Y-103855134D01*
X151090986Y-104040706D01*
X151348966Y-104178599D01*
X151628889Y-104263513D01*
X151847050Y-104285000D01*
X151992950Y-104285000D01*
X152211111Y-104263513D01*
X152491034Y-104178599D01*
X152749014Y-104040706D01*
X152975134Y-103855134D01*
X153160706Y-103629014D01*
X153190000Y-103574209D01*
X153219294Y-103629014D01*
X153404866Y-103855134D01*
X153630986Y-104040706D01*
X153888966Y-104178599D01*
X154168889Y-104263513D01*
X154387050Y-104285000D01*
X154532950Y-104285000D01*
X154751111Y-104263513D01*
X155031034Y-104178599D01*
X155289014Y-104040706D01*
X155515134Y-103855134D01*
X155700706Y-103629014D01*
X155838599Y-103371034D01*
X155923513Y-103091111D01*
X155952185Y-102800000D01*
X155923513Y-102508889D01*
X155838599Y-102228966D01*
X155700706Y-101970986D01*
X155515134Y-101744866D01*
X155289014Y-101559294D01*
X155031034Y-101421401D01*
X154751111Y-101336487D01*
X154532950Y-101315000D01*
X154387050Y-101315000D01*
X154168889Y-101336487D01*
X153888966Y-101421401D01*
X153630986Y-101559294D01*
X153404866Y-101744866D01*
X153219294Y-101970986D01*
X153190000Y-102025791D01*
X153160706Y-101970986D01*
X152975134Y-101744866D01*
X152749014Y-101559294D01*
X152491034Y-101421401D01*
X152211111Y-101336487D01*
X151992950Y-101315000D01*
X151847050Y-101315000D01*
X151628889Y-101336487D01*
X151348966Y-101421401D01*
X151090986Y-101559294D01*
X150864866Y-101744866D01*
X150679294Y-101970986D01*
X150650000Y-102025791D01*
X150620706Y-101970986D01*
X150435134Y-101744866D01*
X150209014Y-101559294D01*
X149951034Y-101421401D01*
X149671111Y-101336487D01*
X149452950Y-101315000D01*
X149307050Y-101315000D01*
X149088889Y-101336487D01*
X148808966Y-101421401D01*
X148550986Y-101559294D01*
X148324866Y-101744866D01*
X148139294Y-101970986D01*
X148110000Y-102025791D01*
X148080706Y-101970986D01*
X147895134Y-101744866D01*
X147669014Y-101559294D01*
X147411034Y-101421401D01*
X147131111Y-101336487D01*
X146912950Y-101315000D01*
X146767050Y-101315000D01*
X146548889Y-101336487D01*
X146268966Y-101421401D01*
X146010986Y-101559294D01*
X145784866Y-101744866D01*
X145599294Y-101970986D01*
X145570000Y-102025791D01*
X145540706Y-101970986D01*
X145355134Y-101744866D01*
X145129014Y-101559294D01*
X144871034Y-101421401D01*
X144591111Y-101336487D01*
X144372950Y-101315000D01*
X144227050Y-101315000D01*
X144008889Y-101336487D01*
X143728966Y-101421401D01*
X143470986Y-101559294D01*
X143244866Y-101744866D01*
X143059294Y-101970986D01*
X143030000Y-102025791D01*
X143000706Y-101970986D01*
X142815134Y-101744866D01*
X142589014Y-101559294D01*
X142331034Y-101421401D01*
X142051111Y-101336487D01*
X141832950Y-101315000D01*
X141687050Y-101315000D01*
X141468889Y-101336487D01*
X141188966Y-101421401D01*
X140930986Y-101559294D01*
X140704866Y-101744866D01*
X140519294Y-101970986D01*
X140490000Y-102025791D01*
X140460706Y-101970986D01*
X140275134Y-101744866D01*
X140049014Y-101559294D01*
X139791034Y-101421401D01*
X139511111Y-101336487D01*
X139292950Y-101315000D01*
X139147050Y-101315000D01*
X138928889Y-101336487D01*
X138648966Y-101421401D01*
X138390986Y-101559294D01*
X138164866Y-101744866D01*
X137979294Y-101970986D01*
X137950000Y-102025791D01*
X137920706Y-101970986D01*
X137735134Y-101744866D01*
X137509014Y-101559294D01*
X137251034Y-101421401D01*
X136971111Y-101336487D01*
X136752950Y-101315000D01*
X136607050Y-101315000D01*
X136388889Y-101336487D01*
X136108966Y-101421401D01*
X135850986Y-101559294D01*
X135624866Y-101744866D01*
X135439294Y-101970986D01*
X135410000Y-102025791D01*
X135380706Y-101970986D01*
X135195134Y-101744866D01*
X134969014Y-101559294D01*
X134711034Y-101421401D01*
X134431111Y-101336487D01*
X134212950Y-101315000D01*
X134067050Y-101315000D01*
X133848889Y-101336487D01*
X133568966Y-101421401D01*
X133310986Y-101559294D01*
X133084866Y-101744866D01*
X133060393Y-101774687D01*
X133039502Y-101705820D01*
X132980537Y-101595506D01*
X132901185Y-101498815D01*
X132804494Y-101419463D01*
X132694180Y-101360498D01*
X132574482Y-101324188D01*
X132450000Y-101311928D01*
X131885750Y-101315000D01*
X131727000Y-101473750D01*
X131473000Y-101473750D01*
X131314250Y-101315000D01*
X130750000Y-101311928D01*
X130625518Y-101324188D01*
X130505820Y-101360498D01*
X130395506Y-101419463D01*
X130298815Y-101498815D01*
X130219463Y-101595506D01*
X130160498Y-101705820D01*
X130124188Y-101825518D01*
X130111928Y-101950000D01*
X124605312Y-101950000D01*
X124570472Y-101835149D01*
X124488405Y-101681613D01*
X124377962Y-101547038D01*
X124243387Y-101436595D01*
X124089851Y-101354528D01*
X123923255Y-101303992D01*
X123750001Y-101286928D01*
X123049999Y-101286928D01*
X122876745Y-101303992D01*
X122710149Y-101354528D01*
X122556613Y-101436595D01*
X122422038Y-101547038D01*
X122311595Y-101681613D01*
X122309191Y-101686111D01*
X122277502Y-101647498D01*
X122089449Y-101493167D01*
X121874901Y-101378489D01*
X121642102Y-101307870D01*
X121400000Y-101284025D01*
X121157899Y-101307870D01*
X120925100Y-101378489D01*
X120710552Y-101493167D01*
X120522499Y-101647498D01*
X120368168Y-101835551D01*
X120253489Y-102050099D01*
X120182870Y-102282898D01*
X120165000Y-102464335D01*
X115641432Y-102464335D01*
X115561805Y-102272100D01*
X115393632Y-102020411D01*
X115179589Y-101806368D01*
X114927900Y-101638195D01*
X114648239Y-101522355D01*
X114351352Y-101463300D01*
X114048648Y-101463300D01*
X113751761Y-101522355D01*
X113472100Y-101638195D01*
X113220411Y-101806368D01*
X113006368Y-102020411D01*
X112838195Y-102272100D01*
X112722355Y-102551761D01*
X112663300Y-102848648D01*
X110656700Y-102848648D01*
X110597645Y-102551761D01*
X110481805Y-102272100D01*
X110313632Y-102020411D01*
X110099589Y-101806368D01*
X109847900Y-101638195D01*
X109568239Y-101522355D01*
X109271352Y-101463300D01*
X108968648Y-101463300D01*
X108671761Y-101522355D01*
X108392100Y-101638195D01*
X108140411Y-101806368D01*
X107926368Y-102020411D01*
X107758195Y-102272100D01*
X107642355Y-102551761D01*
X107583300Y-102848648D01*
X100660000Y-102848648D01*
X100660000Y-100660000D01*
X169340000Y-100660000D01*
X169340001Y-137340000D01*
M02*
