G04 #@! TF.GenerationSoftware,KiCad,Pcbnew,(5.1.4-0-10_14)*
G04 #@! TF.CreationDate,2021-01-21T01:13:21-07:00*
G04 #@! TF.ProjectId,power-switching,706f7765-722d-4737-9769-746368696e67,rev?*
G04 #@! TF.SameCoordinates,Original*
G04 #@! TF.FileFunction,Soldermask,Bot*
G04 #@! TF.FilePolarity,Negative*
%FSLAX46Y46*%
G04 Gerber Fmt 4.6, Leading zero omitted, Abs format (unit mm)*
G04 Created by KiCad (PCBNEW (5.1.4-0-10_14)) date 2021-01-21 01:13:21*
%MOMM*%
%LPD*%
G04 APERTURE LIST*
%ADD10C,0.100000*%
G04 APERTURE END LIST*
D10*
X105643000Y-135550000D02*
G75*
G03X105643000Y-135550000I-1143000J0D01*
G01*
X102889000Y-129800000D02*
G75*
G03X102889000Y-129800000I-889000J0D01*
G01*
X102889000Y-134300000D02*
G75*
G03X102889000Y-134300000I-889000J0D01*
G01*
X105643000Y-128550000D02*
G75*
G03X105643000Y-128550000I-1143000J0D01*
G01*
G36*
X104835443Y-134444194D02*
G01*
X105044729Y-134530884D01*
X105233082Y-134656737D01*
X105393263Y-134816918D01*
X105519116Y-135005271D01*
X105605806Y-135214557D01*
X105650000Y-135436735D01*
X105650000Y-135663265D01*
X105605806Y-135885443D01*
X105519116Y-136094729D01*
X105393263Y-136283082D01*
X105233082Y-136443263D01*
X105044729Y-136569116D01*
X104835443Y-136655806D01*
X104613265Y-136700000D01*
X104386735Y-136700000D01*
X104164557Y-136655806D01*
X103955271Y-136569116D01*
X103766918Y-136443263D01*
X103606737Y-136283082D01*
X103480884Y-136094729D01*
X103394194Y-135885443D01*
X103350000Y-135663265D01*
X103350000Y-135436735D01*
X103394194Y-135214557D01*
X103480884Y-135005271D01*
X103606737Y-134816918D01*
X103766918Y-134656737D01*
X103955271Y-134530884D01*
X104164557Y-134444194D01*
X104386735Y-134400000D01*
X104613265Y-134400000D01*
X104835443Y-134444194D01*
X104835443Y-134444194D01*
G37*
G36*
X102262520Y-133434586D02*
G01*
X102426310Y-133502430D01*
X102573717Y-133600924D01*
X102699076Y-133726283D01*
X102797570Y-133873690D01*
X102865414Y-134037480D01*
X102900000Y-134211358D01*
X102900000Y-134388642D01*
X102865414Y-134562520D01*
X102797570Y-134726310D01*
X102699076Y-134873717D01*
X102573717Y-134999076D01*
X102426310Y-135097570D01*
X102262520Y-135165414D01*
X102088642Y-135200000D01*
X101911358Y-135200000D01*
X101737480Y-135165414D01*
X101573690Y-135097570D01*
X101426283Y-134999076D01*
X101300924Y-134873717D01*
X101202430Y-134726310D01*
X101134586Y-134562520D01*
X101100000Y-134388642D01*
X101100000Y-134211358D01*
X101134586Y-134037480D01*
X101202430Y-133873690D01*
X101300924Y-133726283D01*
X101426283Y-133600924D01*
X101573690Y-133502430D01*
X101737480Y-133434586D01*
X101911358Y-133400000D01*
X102088642Y-133400000D01*
X102262520Y-133434586D01*
X102262520Y-133434586D01*
G37*
G36*
X109000000Y-134200000D02*
G01*
X107200000Y-134200000D01*
X107200000Y-132400000D01*
X109000000Y-132400000D01*
X109000000Y-134200000D01*
X109000000Y-134200000D01*
G37*
G36*
X108276431Y-129873023D02*
G01*
X108422216Y-129917247D01*
X108446085Y-129924487D01*
X108557046Y-129983798D01*
X108602432Y-130008057D01*
X108668797Y-130062521D01*
X108739475Y-130120525D01*
X108851942Y-130257567D01*
X108935513Y-130413915D01*
X108935514Y-130413919D01*
X108986977Y-130583569D01*
X109004354Y-130760000D01*
X108986977Y-130936431D01*
X108942753Y-131082216D01*
X108935513Y-131106085D01*
X108876202Y-131217046D01*
X108851943Y-131262432D01*
X108739475Y-131399475D01*
X108602432Y-131511943D01*
X108557046Y-131536202D01*
X108446085Y-131595513D01*
X108422216Y-131602753D01*
X108276431Y-131646977D01*
X108144207Y-131660000D01*
X108055793Y-131660000D01*
X107923569Y-131646977D01*
X107777784Y-131602753D01*
X107753915Y-131595513D01*
X107642954Y-131536202D01*
X107597568Y-131511943D01*
X107460525Y-131399475D01*
X107348057Y-131262432D01*
X107323798Y-131217046D01*
X107264487Y-131106085D01*
X107257247Y-131082216D01*
X107213023Y-130936431D01*
X107195646Y-130760000D01*
X107213023Y-130583569D01*
X107264486Y-130413919D01*
X107264487Y-130413915D01*
X107348058Y-130257567D01*
X107460525Y-130120525D01*
X107531203Y-130062521D01*
X107597568Y-130008057D01*
X107642954Y-129983798D01*
X107753915Y-129924487D01*
X107777784Y-129917247D01*
X107923569Y-129873023D01*
X108055793Y-129860000D01*
X108144207Y-129860000D01*
X108276431Y-129873023D01*
X108276431Y-129873023D01*
G37*
G36*
X102262520Y-128934586D02*
G01*
X102426310Y-129002430D01*
X102573717Y-129100924D01*
X102699076Y-129226283D01*
X102797570Y-129373690D01*
X102865414Y-129537480D01*
X102900000Y-129711358D01*
X102900000Y-129888642D01*
X102865414Y-130062520D01*
X102797570Y-130226310D01*
X102699076Y-130373717D01*
X102573717Y-130499076D01*
X102426310Y-130597570D01*
X102262520Y-130665414D01*
X102088642Y-130700000D01*
X101911358Y-130700000D01*
X101737480Y-130665414D01*
X101573690Y-130597570D01*
X101426283Y-130499076D01*
X101300924Y-130373717D01*
X101202430Y-130226310D01*
X101134586Y-130062520D01*
X101100000Y-129888642D01*
X101100000Y-129711358D01*
X101134586Y-129537480D01*
X101202430Y-129373690D01*
X101300924Y-129226283D01*
X101426283Y-129100924D01*
X101573690Y-129002430D01*
X101737480Y-128934586D01*
X101911358Y-128900000D01*
X102088642Y-128900000D01*
X102262520Y-128934586D01*
X102262520Y-128934586D01*
G37*
G36*
X139596653Y-126832665D02*
G01*
X139760873Y-126865330D01*
X140070252Y-126993479D01*
X140348688Y-127179524D01*
X140585476Y-127416312D01*
X140771521Y-127694748D01*
X140899670Y-128004127D01*
X140932335Y-128168347D01*
X140965000Y-128332565D01*
X140965000Y-128667435D01*
X140899670Y-128995872D01*
X140771521Y-129305252D01*
X140585477Y-129583687D01*
X140348687Y-129820477D01*
X140193026Y-129924486D01*
X140070252Y-130006521D01*
X139760873Y-130134670D01*
X139432435Y-130200000D01*
X139097565Y-130200000D01*
X138769127Y-130134670D01*
X138459748Y-130006521D01*
X138336974Y-129924486D01*
X138181313Y-129820477D01*
X137944523Y-129583687D01*
X137758479Y-129305252D01*
X137630330Y-128995872D01*
X137565000Y-128667435D01*
X137565000Y-128332565D01*
X137597665Y-128168347D01*
X137630330Y-128004127D01*
X137758479Y-127694748D01*
X137944524Y-127416312D01*
X138181312Y-127179524D01*
X138459748Y-126993479D01*
X138769127Y-126865330D01*
X138933347Y-126832665D01*
X139097565Y-126800000D01*
X139432435Y-126800000D01*
X139596653Y-126832665D01*
X139596653Y-126832665D01*
G37*
G36*
X104835443Y-127444194D02*
G01*
X105044729Y-127530884D01*
X105233082Y-127656737D01*
X105393263Y-127816918D01*
X105519116Y-128005271D01*
X105605806Y-128214557D01*
X105650000Y-128436735D01*
X105650000Y-128663265D01*
X105605806Y-128885443D01*
X105519116Y-129094729D01*
X105393263Y-129283082D01*
X105233082Y-129443263D01*
X105044729Y-129569116D01*
X104835443Y-129655806D01*
X104613265Y-129700000D01*
X104386735Y-129700000D01*
X104164557Y-129655806D01*
X103955271Y-129569116D01*
X103766918Y-129443263D01*
X103606737Y-129283082D01*
X103480884Y-129094729D01*
X103394194Y-128885443D01*
X103350000Y-128663265D01*
X103350000Y-128436735D01*
X103394194Y-128214557D01*
X103480884Y-128005271D01*
X103606737Y-127816918D01*
X103766918Y-127656737D01*
X103955271Y-127530884D01*
X104164557Y-127444194D01*
X104386735Y-127400000D01*
X104613265Y-127400000D01*
X104835443Y-127444194D01*
X104835443Y-127444194D01*
G37*
G36*
X113150000Y-129550000D02*
G01*
X111050000Y-129550000D01*
X111050000Y-127450000D01*
X113150000Y-127450000D01*
X113150000Y-129550000D01*
X113150000Y-129550000D01*
G37*
G36*
X102587224Y-121510128D02*
G01*
X102719175Y-121550155D01*
X102840781Y-121615155D01*
X102947370Y-121702630D01*
X103034845Y-121809219D01*
X103099845Y-121930825D01*
X103139872Y-122062776D01*
X103153387Y-122200000D01*
X103139872Y-122337224D01*
X103099845Y-122469175D01*
X103034845Y-122590781D01*
X102947370Y-122697370D01*
X102840781Y-122784845D01*
X102719175Y-122849845D01*
X102587224Y-122889872D01*
X102484390Y-122900000D01*
X101115610Y-122900000D01*
X101012776Y-122889872D01*
X100880825Y-122849845D01*
X100759219Y-122784845D01*
X100652630Y-122697370D01*
X100565155Y-122590781D01*
X100500155Y-122469175D01*
X100460128Y-122337224D01*
X100446613Y-122200000D01*
X100460128Y-122062776D01*
X100500155Y-121930825D01*
X100565155Y-121809219D01*
X100652630Y-121702630D01*
X100759219Y-121615155D01*
X100880825Y-121550155D01*
X101012776Y-121510128D01*
X101115610Y-121500000D01*
X102484390Y-121500000D01*
X102587224Y-121510128D01*
X102587224Y-121510128D01*
G37*
G36*
X107827621Y-121608682D02*
G01*
X107940721Y-121642990D01*
X108044955Y-121698704D01*
X108044956Y-121698705D01*
X108044958Y-121698706D01*
X108136317Y-121773683D01*
X108211296Y-121865045D01*
X108267010Y-121969279D01*
X108301318Y-122082379D01*
X108312903Y-122200000D01*
X108301318Y-122317621D01*
X108295372Y-122337224D01*
X108267009Y-122430723D01*
X108211294Y-122534958D01*
X108136317Y-122626317D01*
X108044958Y-122701294D01*
X108044956Y-122701295D01*
X108044955Y-122701296D01*
X107940721Y-122757010D01*
X107827621Y-122791318D01*
X107739474Y-122800000D01*
X106580526Y-122800000D01*
X106492379Y-122791318D01*
X106379279Y-122757010D01*
X106275045Y-122701296D01*
X106275044Y-122701295D01*
X106275042Y-122701294D01*
X106183683Y-122626317D01*
X106108706Y-122534958D01*
X106052991Y-122430723D01*
X106024629Y-122337224D01*
X106018682Y-122317621D01*
X106007097Y-122200000D01*
X106018682Y-122082379D01*
X106052990Y-121969279D01*
X106108704Y-121865045D01*
X106183683Y-121773683D01*
X106275042Y-121698706D01*
X106275044Y-121698705D01*
X106275045Y-121698704D01*
X106379279Y-121642990D01*
X106492379Y-121608682D01*
X106580526Y-121600000D01*
X107739474Y-121600000D01*
X107827621Y-121608682D01*
X107827621Y-121608682D01*
G37*
G36*
X161733351Y-119280743D02*
G01*
X161878942Y-119341049D01*
X162009970Y-119428599D01*
X162121401Y-119540030D01*
X162208951Y-119671058D01*
X162269257Y-119816649D01*
X162300000Y-119971207D01*
X162300000Y-120128793D01*
X162269257Y-120283351D01*
X162208951Y-120428942D01*
X162121401Y-120559970D01*
X162009970Y-120671401D01*
X161878942Y-120758951D01*
X161733351Y-120819257D01*
X161578793Y-120850000D01*
X161421207Y-120850000D01*
X161266649Y-120819257D01*
X161121058Y-120758951D01*
X160990030Y-120671401D01*
X160878599Y-120559970D01*
X160791049Y-120428942D01*
X160730743Y-120283351D01*
X160700000Y-120128793D01*
X160700000Y-119971207D01*
X160730743Y-119816649D01*
X160791049Y-119671058D01*
X160878599Y-119540030D01*
X160990030Y-119428599D01*
X161121058Y-119341049D01*
X161266649Y-119280743D01*
X161421207Y-119250000D01*
X161578793Y-119250000D01*
X161733351Y-119280743D01*
X161733351Y-119280743D01*
G37*
G36*
X161733351Y-114380743D02*
G01*
X161878942Y-114441049D01*
X162009970Y-114528599D01*
X162121401Y-114640030D01*
X162208951Y-114771058D01*
X162269257Y-114916649D01*
X162300000Y-115071207D01*
X162300000Y-115228793D01*
X162269257Y-115383351D01*
X162208951Y-115528942D01*
X162121401Y-115659970D01*
X162009970Y-115771401D01*
X161878942Y-115858951D01*
X161733351Y-115919257D01*
X161578793Y-115950000D01*
X161421207Y-115950000D01*
X161266649Y-115919257D01*
X161121058Y-115858951D01*
X160990030Y-115771401D01*
X160878599Y-115659970D01*
X160791049Y-115528942D01*
X160730743Y-115383351D01*
X160700000Y-115228793D01*
X160700000Y-115071207D01*
X160730743Y-114916649D01*
X160791049Y-114771058D01*
X160878599Y-114640030D01*
X160990030Y-114528599D01*
X161121058Y-114441049D01*
X161266649Y-114380743D01*
X161421207Y-114350000D01*
X161578793Y-114350000D01*
X161733351Y-114380743D01*
X161733351Y-114380743D01*
G37*
G36*
X139596653Y-111842665D02*
G01*
X139760873Y-111875330D01*
X140070252Y-112003479D01*
X140348688Y-112189524D01*
X140585476Y-112426312D01*
X140771521Y-112704748D01*
X140899670Y-113014127D01*
X140965000Y-113342566D01*
X140965000Y-113677434D01*
X140899670Y-114005873D01*
X140835828Y-114160000D01*
X140771521Y-114315252D01*
X140585477Y-114593687D01*
X140348687Y-114830477D01*
X140219721Y-114916649D01*
X140070252Y-115016521D01*
X139760873Y-115144670D01*
X139596653Y-115177335D01*
X139432435Y-115210000D01*
X139097565Y-115210000D01*
X138933347Y-115177335D01*
X138769127Y-115144670D01*
X138459748Y-115016521D01*
X138310279Y-114916649D01*
X138181313Y-114830477D01*
X137944523Y-114593687D01*
X137758479Y-114315252D01*
X137694172Y-114160000D01*
X137630330Y-114005873D01*
X137565000Y-113677434D01*
X137565000Y-113342566D01*
X137630330Y-113014127D01*
X137758479Y-112704748D01*
X137944524Y-112426312D01*
X138181312Y-112189524D01*
X138459748Y-112003479D01*
X138769127Y-111875330D01*
X138933347Y-111842665D01*
X139097565Y-111810000D01*
X139432435Y-111810000D01*
X139596653Y-111842665D01*
X139596653Y-111842665D01*
G37*
G36*
X112406274Y-112500350D02*
G01*
X112597362Y-112579502D01*
X112769336Y-112694411D01*
X112915589Y-112840664D01*
X113030498Y-113012638D01*
X113109650Y-113203726D01*
X113150000Y-113406584D01*
X113150000Y-113613416D01*
X113109650Y-113816274D01*
X113030498Y-114007362D01*
X112915589Y-114179336D01*
X112769336Y-114325589D01*
X112597362Y-114440498D01*
X112406274Y-114519650D01*
X112203416Y-114560000D01*
X111996584Y-114560000D01*
X111793726Y-114519650D01*
X111602638Y-114440498D01*
X111430664Y-114325589D01*
X111284411Y-114179336D01*
X111169502Y-114007362D01*
X111090350Y-113816274D01*
X111050000Y-113613416D01*
X111050000Y-113406584D01*
X111090350Y-113203726D01*
X111169502Y-113012638D01*
X111284411Y-112840664D01*
X111430664Y-112694411D01*
X111602638Y-112579502D01*
X111793726Y-112500350D01*
X111996584Y-112460000D01*
X112203416Y-112460000D01*
X112406274Y-112500350D01*
X112406274Y-112500350D01*
G37*
G36*
X102587224Y-112870128D02*
G01*
X102719175Y-112910155D01*
X102840781Y-112975155D01*
X102947370Y-113062630D01*
X103034845Y-113169219D01*
X103099845Y-113290825D01*
X103139872Y-113422776D01*
X103153387Y-113560000D01*
X103139872Y-113697224D01*
X103099845Y-113829175D01*
X103034845Y-113950781D01*
X102947370Y-114057370D01*
X102840781Y-114144845D01*
X102719175Y-114209845D01*
X102587224Y-114249872D01*
X102484390Y-114260000D01*
X101115610Y-114260000D01*
X101012776Y-114249872D01*
X100880825Y-114209845D01*
X100759219Y-114144845D01*
X100652630Y-114057370D01*
X100565155Y-113950781D01*
X100500155Y-113829175D01*
X100460128Y-113697224D01*
X100446613Y-113560000D01*
X100460128Y-113422776D01*
X100500155Y-113290825D01*
X100565155Y-113169219D01*
X100652630Y-113062630D01*
X100759219Y-112975155D01*
X100880825Y-112910155D01*
X101012776Y-112870128D01*
X101115610Y-112860000D01*
X102484390Y-112860000D01*
X102587224Y-112870128D01*
X102587224Y-112870128D01*
G37*
G36*
X107827621Y-112968682D02*
G01*
X107940721Y-113002990D01*
X108044955Y-113058704D01*
X108044956Y-113058705D01*
X108044958Y-113058706D01*
X108136317Y-113133683D01*
X108211296Y-113225045D01*
X108267010Y-113329279D01*
X108301318Y-113442379D01*
X108312903Y-113560000D01*
X108301318Y-113677621D01*
X108295372Y-113697224D01*
X108267009Y-113790723D01*
X108211294Y-113894958D01*
X108136317Y-113986317D01*
X108044958Y-114061294D01*
X108044956Y-114061295D01*
X108044955Y-114061296D01*
X107940721Y-114117010D01*
X107827621Y-114151318D01*
X107739474Y-114160000D01*
X106580526Y-114160000D01*
X106492379Y-114151318D01*
X106379279Y-114117010D01*
X106275045Y-114061296D01*
X106275044Y-114061295D01*
X106275042Y-114061294D01*
X106183683Y-113986317D01*
X106108706Y-113894958D01*
X106052991Y-113790723D01*
X106024629Y-113697224D01*
X106018682Y-113677621D01*
X106007097Y-113560000D01*
X106018682Y-113442379D01*
X106052990Y-113329279D01*
X106108704Y-113225045D01*
X106183683Y-113133683D01*
X106275042Y-113058706D01*
X106275044Y-113058705D01*
X106275045Y-113058704D01*
X106379279Y-113002990D01*
X106492379Y-112968682D01*
X106580526Y-112960000D01*
X107739474Y-112960000D01*
X107827621Y-112968682D01*
X107827621Y-112968682D01*
G37*
G36*
X114477601Y-102084873D02*
G01*
X114650799Y-102156614D01*
X114806673Y-102260766D01*
X114939234Y-102393327D01*
X115043386Y-102549201D01*
X115115127Y-102722399D01*
X115151700Y-102906266D01*
X115151700Y-103093734D01*
X115115127Y-103277601D01*
X115043386Y-103450799D01*
X114939234Y-103606673D01*
X114806673Y-103739234D01*
X114650799Y-103843386D01*
X114477601Y-103915127D01*
X114293734Y-103951700D01*
X114106266Y-103951700D01*
X113922399Y-103915127D01*
X113749201Y-103843386D01*
X113593327Y-103739234D01*
X113460766Y-103606673D01*
X113356614Y-103450799D01*
X113284873Y-103277601D01*
X113248300Y-103093734D01*
X113248300Y-102906266D01*
X113284873Y-102722399D01*
X113356614Y-102549201D01*
X113460766Y-102393327D01*
X113593327Y-102260766D01*
X113749201Y-102156614D01*
X113922399Y-102084873D01*
X114106266Y-102048300D01*
X114293734Y-102048300D01*
X114477601Y-102084873D01*
X114477601Y-102084873D01*
G37*
G36*
X109397601Y-102084873D02*
G01*
X109570799Y-102156614D01*
X109726673Y-102260766D01*
X109859234Y-102393327D01*
X109963386Y-102549201D01*
X110035127Y-102722399D01*
X110071700Y-102906266D01*
X110071700Y-103093734D01*
X110035127Y-103277601D01*
X109963386Y-103450799D01*
X109859234Y-103606673D01*
X109726673Y-103739234D01*
X109570799Y-103843386D01*
X109397601Y-103915127D01*
X109213734Y-103951700D01*
X109026266Y-103951700D01*
X108842399Y-103915127D01*
X108669201Y-103843386D01*
X108513327Y-103739234D01*
X108380766Y-103606673D01*
X108276614Y-103450799D01*
X108204873Y-103277601D01*
X108168300Y-103093734D01*
X108168300Y-102906266D01*
X108204873Y-102722399D01*
X108276614Y-102549201D01*
X108380766Y-102393327D01*
X108513327Y-102260766D01*
X108669201Y-102156614D01*
X108842399Y-102084873D01*
X109026266Y-102048300D01*
X109213734Y-102048300D01*
X109397601Y-102084873D01*
X109397601Y-102084873D01*
G37*
G36*
X121527422Y-101884405D02*
G01*
X121649948Y-101921573D01*
X121649951Y-101921575D01*
X121649952Y-101921575D01*
X121762869Y-101981930D01*
X121861844Y-102063156D01*
X121943070Y-102162131D01*
X121995791Y-102260766D01*
X122003427Y-102275052D01*
X122040595Y-102397578D01*
X122050000Y-102493068D01*
X122050000Y-103106932D01*
X122040595Y-103202422D01*
X122003427Y-103324948D01*
X122003425Y-103324951D01*
X122003425Y-103324952D01*
X121943070Y-103437869D01*
X121861843Y-103536844D01*
X121762868Y-103618070D01*
X121649951Y-103678425D01*
X121649947Y-103678427D01*
X121527421Y-103715595D01*
X121400000Y-103728145D01*
X121272578Y-103715595D01*
X121150052Y-103678427D01*
X121150048Y-103678425D01*
X121037131Y-103618070D01*
X120938156Y-103536843D01*
X120856930Y-103437868D01*
X120796575Y-103324951D01*
X120796574Y-103324948D01*
X120796573Y-103324947D01*
X120759405Y-103202421D01*
X120750000Y-103106931D01*
X120750000Y-102493068D01*
X120759405Y-102397578D01*
X120796573Y-102275052D01*
X120804209Y-102260766D01*
X120856930Y-102162131D01*
X120938157Y-102063156D01*
X121037132Y-101981930D01*
X121150049Y-101921575D01*
X121150050Y-101921575D01*
X121150053Y-101921573D01*
X121272579Y-101884405D01*
X121400000Y-101871855D01*
X121527422Y-101884405D01*
X121527422Y-101884405D01*
G37*
G36*
X123843722Y-101880043D02*
G01*
X123891766Y-101894617D01*
X123936049Y-101918287D01*
X123974861Y-101950139D01*
X124006713Y-101988951D01*
X124030383Y-102033234D01*
X124044957Y-102081278D01*
X124050000Y-102132482D01*
X124050000Y-103467518D01*
X124044957Y-103518722D01*
X124030383Y-103566766D01*
X124006713Y-103611049D01*
X123974861Y-103649861D01*
X123936049Y-103681713D01*
X123891766Y-103705383D01*
X123843722Y-103719957D01*
X123792518Y-103725000D01*
X123007482Y-103725000D01*
X122956278Y-103719957D01*
X122908234Y-103705383D01*
X122863951Y-103681713D01*
X122825139Y-103649861D01*
X122793287Y-103611049D01*
X122769617Y-103566766D01*
X122755043Y-103518722D01*
X122750000Y-103467518D01*
X122750000Y-102132482D01*
X122755043Y-102081278D01*
X122769617Y-102033234D01*
X122793287Y-101988951D01*
X122825139Y-101950139D01*
X122863951Y-101918287D01*
X122908234Y-101894617D01*
X122956278Y-101880043D01*
X123007482Y-101875000D01*
X123792518Y-101875000D01*
X123843722Y-101880043D01*
X123843722Y-101880043D01*
G37*
G36*
X132500000Y-103700000D02*
G01*
X130700000Y-103700000D01*
X130700000Y-101900000D01*
X132500000Y-101900000D01*
X132500000Y-103700000D01*
X132500000Y-103700000D01*
G37*
G36*
X134316431Y-101913023D02*
G01*
X134438785Y-101950139D01*
X134486085Y-101964487D01*
X134597046Y-102023798D01*
X134642432Y-102048057D01*
X134779475Y-102160525D01*
X134873465Y-102275052D01*
X134891942Y-102297567D01*
X134975513Y-102453915D01*
X134975514Y-102453919D01*
X135026977Y-102623569D01*
X135044354Y-102800000D01*
X135026977Y-102976431D01*
X134987391Y-103106927D01*
X134975513Y-103146085D01*
X134916202Y-103257046D01*
X134891943Y-103302432D01*
X134779475Y-103439475D01*
X134642432Y-103551943D01*
X134614700Y-103566766D01*
X134486085Y-103635513D01*
X134462216Y-103642753D01*
X134316431Y-103686977D01*
X134184207Y-103700000D01*
X134095793Y-103700000D01*
X133963569Y-103686977D01*
X133817784Y-103642753D01*
X133793915Y-103635513D01*
X133665300Y-103566766D01*
X133637568Y-103551943D01*
X133500525Y-103439475D01*
X133388057Y-103302432D01*
X133363798Y-103257046D01*
X133304487Y-103146085D01*
X133292609Y-103106927D01*
X133253023Y-102976431D01*
X133235646Y-102800000D01*
X133253023Y-102623569D01*
X133304486Y-102453919D01*
X133304487Y-102453915D01*
X133388058Y-102297567D01*
X133406536Y-102275052D01*
X133500525Y-102160525D01*
X133637568Y-102048057D01*
X133682954Y-102023798D01*
X133793915Y-101964487D01*
X133841215Y-101950139D01*
X133963569Y-101913023D01*
X134095793Y-101900000D01*
X134184207Y-101900000D01*
X134316431Y-101913023D01*
X134316431Y-101913023D01*
G37*
G36*
X136856431Y-101913023D02*
G01*
X136978785Y-101950139D01*
X137026085Y-101964487D01*
X137137046Y-102023798D01*
X137182432Y-102048057D01*
X137319475Y-102160525D01*
X137413465Y-102275052D01*
X137431942Y-102297567D01*
X137515513Y-102453915D01*
X137515514Y-102453919D01*
X137566977Y-102623569D01*
X137584354Y-102800000D01*
X137566977Y-102976431D01*
X137527391Y-103106927D01*
X137515513Y-103146085D01*
X137456202Y-103257046D01*
X137431943Y-103302432D01*
X137319475Y-103439475D01*
X137182432Y-103551943D01*
X137154700Y-103566766D01*
X137026085Y-103635513D01*
X137002216Y-103642753D01*
X136856431Y-103686977D01*
X136724207Y-103700000D01*
X136635793Y-103700000D01*
X136503569Y-103686977D01*
X136357784Y-103642753D01*
X136333915Y-103635513D01*
X136205300Y-103566766D01*
X136177568Y-103551943D01*
X136040525Y-103439475D01*
X135928057Y-103302432D01*
X135903798Y-103257046D01*
X135844487Y-103146085D01*
X135832609Y-103106927D01*
X135793023Y-102976431D01*
X135775646Y-102800000D01*
X135793023Y-102623569D01*
X135844486Y-102453919D01*
X135844487Y-102453915D01*
X135928058Y-102297567D01*
X135946536Y-102275052D01*
X136040525Y-102160525D01*
X136177568Y-102048057D01*
X136222954Y-102023798D01*
X136333915Y-101964487D01*
X136381215Y-101950139D01*
X136503569Y-101913023D01*
X136635793Y-101900000D01*
X136724207Y-101900000D01*
X136856431Y-101913023D01*
X136856431Y-101913023D01*
G37*
G36*
X139396431Y-101913023D02*
G01*
X139518785Y-101950139D01*
X139566085Y-101964487D01*
X139677046Y-102023798D01*
X139722432Y-102048057D01*
X139859475Y-102160525D01*
X139953465Y-102275052D01*
X139971942Y-102297567D01*
X140055513Y-102453915D01*
X140055514Y-102453919D01*
X140106977Y-102623569D01*
X140124354Y-102800000D01*
X140106977Y-102976431D01*
X140067391Y-103106927D01*
X140055513Y-103146085D01*
X139996202Y-103257046D01*
X139971943Y-103302432D01*
X139859475Y-103439475D01*
X139722432Y-103551943D01*
X139694700Y-103566766D01*
X139566085Y-103635513D01*
X139542216Y-103642753D01*
X139396431Y-103686977D01*
X139264207Y-103700000D01*
X139175793Y-103700000D01*
X139043569Y-103686977D01*
X138897784Y-103642753D01*
X138873915Y-103635513D01*
X138745300Y-103566766D01*
X138717568Y-103551943D01*
X138580525Y-103439475D01*
X138468057Y-103302432D01*
X138443798Y-103257046D01*
X138384487Y-103146085D01*
X138372609Y-103106927D01*
X138333023Y-102976431D01*
X138315646Y-102800000D01*
X138333023Y-102623569D01*
X138384486Y-102453919D01*
X138384487Y-102453915D01*
X138468058Y-102297567D01*
X138486536Y-102275052D01*
X138580525Y-102160525D01*
X138717568Y-102048057D01*
X138762954Y-102023798D01*
X138873915Y-101964487D01*
X138921215Y-101950139D01*
X139043569Y-101913023D01*
X139175793Y-101900000D01*
X139264207Y-101900000D01*
X139396431Y-101913023D01*
X139396431Y-101913023D01*
G37*
G36*
X154636431Y-101913023D02*
G01*
X154758785Y-101950139D01*
X154806085Y-101964487D01*
X154917046Y-102023798D01*
X154962432Y-102048057D01*
X155099475Y-102160525D01*
X155193465Y-102275052D01*
X155211942Y-102297567D01*
X155295513Y-102453915D01*
X155295514Y-102453919D01*
X155346977Y-102623569D01*
X155364354Y-102800000D01*
X155346977Y-102976431D01*
X155307391Y-103106927D01*
X155295513Y-103146085D01*
X155236202Y-103257046D01*
X155211943Y-103302432D01*
X155099475Y-103439475D01*
X154962432Y-103551943D01*
X154934700Y-103566766D01*
X154806085Y-103635513D01*
X154782216Y-103642753D01*
X154636431Y-103686977D01*
X154504207Y-103700000D01*
X154415793Y-103700000D01*
X154283569Y-103686977D01*
X154137784Y-103642753D01*
X154113915Y-103635513D01*
X153985300Y-103566766D01*
X153957568Y-103551943D01*
X153820525Y-103439475D01*
X153708057Y-103302432D01*
X153683798Y-103257046D01*
X153624487Y-103146085D01*
X153612609Y-103106927D01*
X153573023Y-102976431D01*
X153555646Y-102800000D01*
X153573023Y-102623569D01*
X153624486Y-102453919D01*
X153624487Y-102453915D01*
X153708058Y-102297567D01*
X153726536Y-102275052D01*
X153820525Y-102160525D01*
X153957568Y-102048057D01*
X154002954Y-102023798D01*
X154113915Y-101964487D01*
X154161215Y-101950139D01*
X154283569Y-101913023D01*
X154415793Y-101900000D01*
X154504207Y-101900000D01*
X154636431Y-101913023D01*
X154636431Y-101913023D01*
G37*
G36*
X152096431Y-101913023D02*
G01*
X152218785Y-101950139D01*
X152266085Y-101964487D01*
X152377046Y-102023798D01*
X152422432Y-102048057D01*
X152559475Y-102160525D01*
X152653465Y-102275052D01*
X152671942Y-102297567D01*
X152755513Y-102453915D01*
X152755514Y-102453919D01*
X152806977Y-102623569D01*
X152824354Y-102800000D01*
X152806977Y-102976431D01*
X152767391Y-103106927D01*
X152755513Y-103146085D01*
X152696202Y-103257046D01*
X152671943Y-103302432D01*
X152559475Y-103439475D01*
X152422432Y-103551943D01*
X152394700Y-103566766D01*
X152266085Y-103635513D01*
X152242216Y-103642753D01*
X152096431Y-103686977D01*
X151964207Y-103700000D01*
X151875793Y-103700000D01*
X151743569Y-103686977D01*
X151597784Y-103642753D01*
X151573915Y-103635513D01*
X151445300Y-103566766D01*
X151417568Y-103551943D01*
X151280525Y-103439475D01*
X151168057Y-103302432D01*
X151143798Y-103257046D01*
X151084487Y-103146085D01*
X151072609Y-103106927D01*
X151033023Y-102976431D01*
X151015646Y-102800000D01*
X151033023Y-102623569D01*
X151084486Y-102453919D01*
X151084487Y-102453915D01*
X151168058Y-102297567D01*
X151186536Y-102275052D01*
X151280525Y-102160525D01*
X151417568Y-102048057D01*
X151462954Y-102023798D01*
X151573915Y-101964487D01*
X151621215Y-101950139D01*
X151743569Y-101913023D01*
X151875793Y-101900000D01*
X151964207Y-101900000D01*
X152096431Y-101913023D01*
X152096431Y-101913023D01*
G37*
G36*
X149556431Y-101913023D02*
G01*
X149678785Y-101950139D01*
X149726085Y-101964487D01*
X149837046Y-102023798D01*
X149882432Y-102048057D01*
X150019475Y-102160525D01*
X150113465Y-102275052D01*
X150131942Y-102297567D01*
X150215513Y-102453915D01*
X150215514Y-102453919D01*
X150266977Y-102623569D01*
X150284354Y-102800000D01*
X150266977Y-102976431D01*
X150227391Y-103106927D01*
X150215513Y-103146085D01*
X150156202Y-103257046D01*
X150131943Y-103302432D01*
X150019475Y-103439475D01*
X149882432Y-103551943D01*
X149854700Y-103566766D01*
X149726085Y-103635513D01*
X149702216Y-103642753D01*
X149556431Y-103686977D01*
X149424207Y-103700000D01*
X149335793Y-103700000D01*
X149203569Y-103686977D01*
X149057784Y-103642753D01*
X149033915Y-103635513D01*
X148905300Y-103566766D01*
X148877568Y-103551943D01*
X148740525Y-103439475D01*
X148628057Y-103302432D01*
X148603798Y-103257046D01*
X148544487Y-103146085D01*
X148532609Y-103106927D01*
X148493023Y-102976431D01*
X148475646Y-102800000D01*
X148493023Y-102623569D01*
X148544486Y-102453919D01*
X148544487Y-102453915D01*
X148628058Y-102297567D01*
X148646536Y-102275052D01*
X148740525Y-102160525D01*
X148877568Y-102048057D01*
X148922954Y-102023798D01*
X149033915Y-101964487D01*
X149081215Y-101950139D01*
X149203569Y-101913023D01*
X149335793Y-101900000D01*
X149424207Y-101900000D01*
X149556431Y-101913023D01*
X149556431Y-101913023D01*
G37*
G36*
X147016431Y-101913023D02*
G01*
X147138785Y-101950139D01*
X147186085Y-101964487D01*
X147297046Y-102023798D01*
X147342432Y-102048057D01*
X147479475Y-102160525D01*
X147573465Y-102275052D01*
X147591942Y-102297567D01*
X147675513Y-102453915D01*
X147675514Y-102453919D01*
X147726977Y-102623569D01*
X147744354Y-102800000D01*
X147726977Y-102976431D01*
X147687391Y-103106927D01*
X147675513Y-103146085D01*
X147616202Y-103257046D01*
X147591943Y-103302432D01*
X147479475Y-103439475D01*
X147342432Y-103551943D01*
X147314700Y-103566766D01*
X147186085Y-103635513D01*
X147162216Y-103642753D01*
X147016431Y-103686977D01*
X146884207Y-103700000D01*
X146795793Y-103700000D01*
X146663569Y-103686977D01*
X146517784Y-103642753D01*
X146493915Y-103635513D01*
X146365300Y-103566766D01*
X146337568Y-103551943D01*
X146200525Y-103439475D01*
X146088057Y-103302432D01*
X146063798Y-103257046D01*
X146004487Y-103146085D01*
X145992609Y-103106927D01*
X145953023Y-102976431D01*
X145935646Y-102800000D01*
X145953023Y-102623569D01*
X146004486Y-102453919D01*
X146004487Y-102453915D01*
X146088058Y-102297567D01*
X146106536Y-102275052D01*
X146200525Y-102160525D01*
X146337568Y-102048057D01*
X146382954Y-102023798D01*
X146493915Y-101964487D01*
X146541215Y-101950139D01*
X146663569Y-101913023D01*
X146795793Y-101900000D01*
X146884207Y-101900000D01*
X147016431Y-101913023D01*
X147016431Y-101913023D01*
G37*
G36*
X144476431Y-101913023D02*
G01*
X144598785Y-101950139D01*
X144646085Y-101964487D01*
X144757046Y-102023798D01*
X144802432Y-102048057D01*
X144939475Y-102160525D01*
X145033465Y-102275052D01*
X145051942Y-102297567D01*
X145135513Y-102453915D01*
X145135514Y-102453919D01*
X145186977Y-102623569D01*
X145204354Y-102800000D01*
X145186977Y-102976431D01*
X145147391Y-103106927D01*
X145135513Y-103146085D01*
X145076202Y-103257046D01*
X145051943Y-103302432D01*
X144939475Y-103439475D01*
X144802432Y-103551943D01*
X144774700Y-103566766D01*
X144646085Y-103635513D01*
X144622216Y-103642753D01*
X144476431Y-103686977D01*
X144344207Y-103700000D01*
X144255793Y-103700000D01*
X144123569Y-103686977D01*
X143977784Y-103642753D01*
X143953915Y-103635513D01*
X143825300Y-103566766D01*
X143797568Y-103551943D01*
X143660525Y-103439475D01*
X143548057Y-103302432D01*
X143523798Y-103257046D01*
X143464487Y-103146085D01*
X143452609Y-103106927D01*
X143413023Y-102976431D01*
X143395646Y-102800000D01*
X143413023Y-102623569D01*
X143464486Y-102453919D01*
X143464487Y-102453915D01*
X143548058Y-102297567D01*
X143566536Y-102275052D01*
X143660525Y-102160525D01*
X143797568Y-102048057D01*
X143842954Y-102023798D01*
X143953915Y-101964487D01*
X144001215Y-101950139D01*
X144123569Y-101913023D01*
X144255793Y-101900000D01*
X144344207Y-101900000D01*
X144476431Y-101913023D01*
X144476431Y-101913023D01*
G37*
G36*
X141936431Y-101913023D02*
G01*
X142058785Y-101950139D01*
X142106085Y-101964487D01*
X142217046Y-102023798D01*
X142262432Y-102048057D01*
X142399475Y-102160525D01*
X142493465Y-102275052D01*
X142511942Y-102297567D01*
X142595513Y-102453915D01*
X142595514Y-102453919D01*
X142646977Y-102623569D01*
X142664354Y-102800000D01*
X142646977Y-102976431D01*
X142607391Y-103106927D01*
X142595513Y-103146085D01*
X142536202Y-103257046D01*
X142511943Y-103302432D01*
X142399475Y-103439475D01*
X142262432Y-103551943D01*
X142234700Y-103566766D01*
X142106085Y-103635513D01*
X142082216Y-103642753D01*
X141936431Y-103686977D01*
X141804207Y-103700000D01*
X141715793Y-103700000D01*
X141583569Y-103686977D01*
X141437784Y-103642753D01*
X141413915Y-103635513D01*
X141285300Y-103566766D01*
X141257568Y-103551943D01*
X141120525Y-103439475D01*
X141008057Y-103302432D01*
X140983798Y-103257046D01*
X140924487Y-103146085D01*
X140912609Y-103106927D01*
X140873023Y-102976431D01*
X140855646Y-102800000D01*
X140873023Y-102623569D01*
X140924486Y-102453919D01*
X140924487Y-102453915D01*
X141008058Y-102297567D01*
X141026536Y-102275052D01*
X141120525Y-102160525D01*
X141257568Y-102048057D01*
X141302954Y-102023798D01*
X141413915Y-101964487D01*
X141461215Y-101950139D01*
X141583569Y-101913023D01*
X141715793Y-101900000D01*
X141804207Y-101900000D01*
X141936431Y-101913023D01*
X141936431Y-101913023D01*
G37*
M02*
