G04 #@! TF.GenerationSoftware,KiCad,Pcbnew,(5.1.4-0-10_14)*
G04 #@! TF.CreationDate,2021-01-21T01:13:21-07:00*
G04 #@! TF.ProjectId,power-switching,706f7765-722d-4737-9769-746368696e67,rev?*
G04 #@! TF.SameCoordinates,Original*
G04 #@! TF.FileFunction,Copper,L2,Inr*
G04 #@! TF.FilePolarity,Positive*
%FSLAX46Y46*%
G04 Gerber Fmt 4.6, Leading zero omitted, Abs format (unit mm)*
G04 Created by KiCad (PCBNEW (5.1.4-0-10_14)) date 2021-01-21 01:13:21*
%MOMM*%
%LPD*%
G04 APERTURE LIST*
%ADD10C,1.803400*%
%ADD11O,1.200000X1.750000*%
%ADD12C,0.100000*%
%ADD13C,1.200000*%
%ADD14C,1.700000*%
%ADD15C,2.200000*%
%ADD16O,1.700000X1.700000*%
%ADD17R,1.700000X1.700000*%
%ADD18C,0.500000*%
%ADD19C,2.000000*%
%ADD20R,2.000000X2.000000*%
%ADD21O,2.600000X1.300000*%
%ADD22O,2.200000X1.100000*%
%ADD23C,0.800000*%
%ADD24C,0.450000*%
%ADD25C,0.254000*%
G04 APERTURE END LIST*
D10*
X109120000Y-103000000D03*
X114200000Y-103000000D03*
D11*
X121400000Y-102800000D03*
D12*
G36*
X123774505Y-101926204D02*
G01*
X123798773Y-101929804D01*
X123822572Y-101935765D01*
X123845671Y-101944030D01*
X123867850Y-101954520D01*
X123888893Y-101967132D01*
X123908599Y-101981747D01*
X123926777Y-101998223D01*
X123943253Y-102016401D01*
X123957868Y-102036107D01*
X123970480Y-102057150D01*
X123980970Y-102079329D01*
X123989235Y-102102428D01*
X123995196Y-102126227D01*
X123998796Y-102150495D01*
X124000000Y-102174999D01*
X124000000Y-103425001D01*
X123998796Y-103449505D01*
X123995196Y-103473773D01*
X123989235Y-103497572D01*
X123980970Y-103520671D01*
X123970480Y-103542850D01*
X123957868Y-103563893D01*
X123943253Y-103583599D01*
X123926777Y-103601777D01*
X123908599Y-103618253D01*
X123888893Y-103632868D01*
X123867850Y-103645480D01*
X123845671Y-103655970D01*
X123822572Y-103664235D01*
X123798773Y-103670196D01*
X123774505Y-103673796D01*
X123750001Y-103675000D01*
X123049999Y-103675000D01*
X123025495Y-103673796D01*
X123001227Y-103670196D01*
X122977428Y-103664235D01*
X122954329Y-103655970D01*
X122932150Y-103645480D01*
X122911107Y-103632868D01*
X122891401Y-103618253D01*
X122873223Y-103601777D01*
X122856747Y-103583599D01*
X122842132Y-103563893D01*
X122829520Y-103542850D01*
X122819030Y-103520671D01*
X122810765Y-103497572D01*
X122804804Y-103473773D01*
X122801204Y-103449505D01*
X122800000Y-103425001D01*
X122800000Y-102174999D01*
X122801204Y-102150495D01*
X122804804Y-102126227D01*
X122810765Y-102102428D01*
X122819030Y-102079329D01*
X122829520Y-102057150D01*
X122842132Y-102036107D01*
X122856747Y-102016401D01*
X122873223Y-101998223D01*
X122891401Y-101981747D01*
X122911107Y-101967132D01*
X122932150Y-101954520D01*
X122954329Y-101944030D01*
X122977428Y-101935765D01*
X123001227Y-101929804D01*
X123025495Y-101926204D01*
X123049999Y-101925000D01*
X123750001Y-101925000D01*
X123774505Y-101926204D01*
X123774505Y-101926204D01*
G37*
D13*
X123400000Y-102800000D03*
D14*
X102000000Y-134300000D03*
X102000000Y-129800000D03*
D15*
X104500000Y-135550000D03*
X104500000Y-128550000D03*
D16*
X154460000Y-102800000D03*
X151920000Y-102800000D03*
X149380000Y-102800000D03*
X146840000Y-102800000D03*
X144300000Y-102800000D03*
X141760000Y-102800000D03*
X139220000Y-102800000D03*
X136680000Y-102800000D03*
X134140000Y-102800000D03*
D17*
X131600000Y-102800000D03*
D18*
X128050000Y-118050000D03*
X128050000Y-120150000D03*
X125950000Y-118050000D03*
X125950000Y-120150000D03*
X146000000Y-125100000D03*
X147100000Y-125100000D03*
X148200000Y-125100000D03*
X146000000Y-126200000D03*
X147100000Y-126200000D03*
X148200000Y-126200000D03*
X146000000Y-127300000D03*
X147100000Y-127300000D03*
X148200000Y-127300000D03*
D16*
X108100000Y-130760000D03*
D17*
X108100000Y-133300000D03*
D19*
X112100000Y-113510000D03*
D20*
X112100000Y-128500000D03*
D21*
X101800000Y-122200000D03*
X101800000Y-113560000D03*
D22*
X107160000Y-122200000D03*
X107160000Y-113560000D03*
D23*
X133200000Y-111300000D03*
X134300000Y-117500000D03*
X134300000Y-119500000D03*
X134300000Y-121500000D03*
X155900000Y-113700000D03*
X151425000Y-104400000D03*
X148800000Y-104400000D03*
X154100000Y-104400000D03*
X156300000Y-122400000D03*
X157800000Y-122800000D03*
X157700000Y-125600000D03*
X154500000Y-125100000D03*
X148100000Y-128600000D03*
X149700000Y-128000000D03*
X152200000Y-127800000D03*
X130000000Y-113800000D03*
X125000000Y-113800000D03*
X109350000Y-111300000D03*
X135400000Y-105500000D03*
X139200000Y-104300000D03*
X108600000Y-114600000D03*
X108600000Y-121200000D03*
X153900000Y-113700000D03*
X152600000Y-120600000D03*
X158400000Y-112700000D03*
X160800000Y-112300000D03*
X166900000Y-112300000D03*
X166900000Y-122900000D03*
X160800000Y-122800000D03*
X117700000Y-118600000D03*
X109300000Y-109100000D03*
X130400000Y-124600000D03*
X122000000Y-135200000D03*
X131900000Y-135200000D03*
X138000000Y-124900000D03*
X141900000Y-132000000D03*
X147800000Y-132900000D03*
X150100000Y-131300000D03*
X150100000Y-133900000D03*
X153200000Y-132400000D03*
X155800000Y-132400000D03*
X154500000Y-134400000D03*
X143400000Y-116200000D03*
X143000000Y-118700000D03*
X139500000Y-118100000D03*
X122800000Y-124900000D03*
X117400000Y-125200000D03*
X121400000Y-114300000D03*
D24*
X108322122Y-117092432D03*
X105700000Y-112300000D03*
D23*
X119100000Y-135300000D03*
X127500000Y-122100000D03*
X124100000Y-119100000D03*
X129990410Y-117342154D03*
X131900000Y-133300000D03*
X125400000Y-123200000D03*
D25*
G36*
X169594001Y-137594000D02*
G01*
X100406000Y-137594000D01*
X100406000Y-134178757D01*
X100769000Y-134178757D01*
X100769000Y-134421243D01*
X100816307Y-134659069D01*
X100909102Y-134883097D01*
X101043820Y-135084717D01*
X101215283Y-135256180D01*
X101416903Y-135390898D01*
X101640931Y-135483693D01*
X101878757Y-135531000D01*
X102121243Y-135531000D01*
X102359069Y-135483693D01*
X102551142Y-135404134D01*
X103019000Y-135404134D01*
X103019000Y-135695866D01*
X103075914Y-135981992D01*
X103187555Y-136251517D01*
X103349632Y-136494083D01*
X103555917Y-136700368D01*
X103798483Y-136862445D01*
X104068008Y-136974086D01*
X104354134Y-137031000D01*
X104645866Y-137031000D01*
X104931992Y-136974086D01*
X105201517Y-136862445D01*
X105444083Y-136700368D01*
X105650368Y-136494083D01*
X105812445Y-136251517D01*
X105924086Y-135981992D01*
X105981000Y-135695866D01*
X105981000Y-135404134D01*
X105944986Y-135223078D01*
X118319000Y-135223078D01*
X118319000Y-135376922D01*
X118349013Y-135527809D01*
X118407887Y-135669942D01*
X118493358Y-135797859D01*
X118602141Y-135906642D01*
X118730058Y-135992113D01*
X118872191Y-136050987D01*
X119023078Y-136081000D01*
X119176922Y-136081000D01*
X119327809Y-136050987D01*
X119469942Y-135992113D01*
X119597859Y-135906642D01*
X119706642Y-135797859D01*
X119792113Y-135669942D01*
X119850987Y-135527809D01*
X119881000Y-135376922D01*
X119881000Y-135223078D01*
X119850987Y-135072191D01*
X119792113Y-134930058D01*
X119706642Y-134802141D01*
X119597859Y-134693358D01*
X119469942Y-134607887D01*
X119327809Y-134549013D01*
X119176922Y-134519000D01*
X119023078Y-134519000D01*
X118872191Y-134549013D01*
X118730058Y-134607887D01*
X118602141Y-134693358D01*
X118493358Y-134802141D01*
X118407887Y-134930058D01*
X118349013Y-135072191D01*
X118319000Y-135223078D01*
X105944986Y-135223078D01*
X105924086Y-135118008D01*
X105812445Y-134848483D01*
X105650368Y-134605917D01*
X105444083Y-134399632D01*
X105201517Y-134237555D01*
X104931992Y-134125914D01*
X104645866Y-134069000D01*
X104354134Y-134069000D01*
X104068008Y-134125914D01*
X103798483Y-134237555D01*
X103555917Y-134399632D01*
X103349632Y-134605917D01*
X103187555Y-134848483D01*
X103075914Y-135118008D01*
X103019000Y-135404134D01*
X102551142Y-135404134D01*
X102583097Y-135390898D01*
X102784717Y-135256180D01*
X102956180Y-135084717D01*
X103090898Y-134883097D01*
X103183693Y-134659069D01*
X103231000Y-134421243D01*
X103231000Y-134178757D01*
X103183693Y-133940931D01*
X103090898Y-133716903D01*
X102956180Y-133515283D01*
X102784717Y-133343820D01*
X102583097Y-133209102D01*
X102359069Y-133116307D01*
X102121243Y-133069000D01*
X101878757Y-133069000D01*
X101640931Y-133116307D01*
X101416903Y-133209102D01*
X101215283Y-133343820D01*
X101043820Y-133515283D01*
X100909102Y-133716903D01*
X100816307Y-133940931D01*
X100769000Y-134178757D01*
X100406000Y-134178757D01*
X100406000Y-132450000D01*
X106867157Y-132450000D01*
X106867157Y-134150000D01*
X106874513Y-134224689D01*
X106896299Y-134296508D01*
X106931678Y-134362696D01*
X106979289Y-134420711D01*
X107037304Y-134468322D01*
X107103492Y-134503701D01*
X107175311Y-134525487D01*
X107250000Y-134532843D01*
X108950000Y-134532843D01*
X109024689Y-134525487D01*
X109096508Y-134503701D01*
X109162696Y-134468322D01*
X109220711Y-134420711D01*
X109268322Y-134362696D01*
X109303701Y-134296508D01*
X109325487Y-134224689D01*
X109332843Y-134150000D01*
X109332843Y-133223078D01*
X131119000Y-133223078D01*
X131119000Y-133376922D01*
X131149013Y-133527809D01*
X131207887Y-133669942D01*
X131293358Y-133797859D01*
X131402141Y-133906642D01*
X131530058Y-133992113D01*
X131672191Y-134050987D01*
X131823078Y-134081000D01*
X131976922Y-134081000D01*
X132127809Y-134050987D01*
X132269942Y-133992113D01*
X132397859Y-133906642D01*
X132506642Y-133797859D01*
X132592113Y-133669942D01*
X132650987Y-133527809D01*
X132681000Y-133376922D01*
X132681000Y-133223078D01*
X132650987Y-133072191D01*
X132592113Y-132930058D01*
X132506642Y-132802141D01*
X132397859Y-132693358D01*
X132269942Y-132607887D01*
X132127809Y-132549013D01*
X131976922Y-132519000D01*
X131823078Y-132519000D01*
X131672191Y-132549013D01*
X131530058Y-132607887D01*
X131402141Y-132693358D01*
X131293358Y-132802141D01*
X131207887Y-132930058D01*
X131149013Y-133072191D01*
X131119000Y-133223078D01*
X109332843Y-133223078D01*
X109332843Y-132450000D01*
X109325487Y-132375311D01*
X109303701Y-132303492D01*
X109268322Y-132237304D01*
X109220711Y-132179289D01*
X109162696Y-132131678D01*
X109096508Y-132096299D01*
X109024689Y-132074513D01*
X108950000Y-132067157D01*
X107250000Y-132067157D01*
X107175311Y-132074513D01*
X107103492Y-132096299D01*
X107037304Y-132131678D01*
X106979289Y-132179289D01*
X106931678Y-132237304D01*
X106896299Y-132303492D01*
X106874513Y-132375311D01*
X106867157Y-132450000D01*
X100406000Y-132450000D01*
X100406000Y-129678757D01*
X100769000Y-129678757D01*
X100769000Y-129921243D01*
X100816307Y-130159069D01*
X100909102Y-130383097D01*
X101043820Y-130584717D01*
X101215283Y-130756180D01*
X101416903Y-130890898D01*
X101640931Y-130983693D01*
X101878757Y-131031000D01*
X102121243Y-131031000D01*
X102359069Y-130983693D01*
X102583097Y-130890898D01*
X102778999Y-130760000D01*
X106863044Y-130760000D01*
X106886812Y-131001318D01*
X106957202Y-131233363D01*
X107071509Y-131447216D01*
X107225340Y-131634660D01*
X107412784Y-131788491D01*
X107626637Y-131902798D01*
X107858682Y-131973188D01*
X108039528Y-131991000D01*
X108160472Y-131991000D01*
X108341318Y-131973188D01*
X108573363Y-131902798D01*
X108787216Y-131788491D01*
X108974660Y-131634660D01*
X109128491Y-131447216D01*
X109242798Y-131233363D01*
X109313188Y-131001318D01*
X109336956Y-130760000D01*
X109313188Y-130518682D01*
X109242798Y-130286637D01*
X109128491Y-130072784D01*
X108974660Y-129885340D01*
X108787216Y-129731509D01*
X108573363Y-129617202D01*
X108341318Y-129546812D01*
X108160472Y-129529000D01*
X108039528Y-129529000D01*
X107858682Y-129546812D01*
X107626637Y-129617202D01*
X107412784Y-129731509D01*
X107225340Y-129885340D01*
X107071509Y-130072784D01*
X106957202Y-130286637D01*
X106886812Y-130518682D01*
X106863044Y-130760000D01*
X102778999Y-130760000D01*
X102784717Y-130756180D01*
X102956180Y-130584717D01*
X103090898Y-130383097D01*
X103183693Y-130159069D01*
X103231000Y-129921243D01*
X103231000Y-129678757D01*
X103183693Y-129440931D01*
X103090898Y-129216903D01*
X102956180Y-129015283D01*
X102784717Y-128843820D01*
X102583097Y-128709102D01*
X102359069Y-128616307D01*
X102121243Y-128569000D01*
X101878757Y-128569000D01*
X101640931Y-128616307D01*
X101416903Y-128709102D01*
X101215283Y-128843820D01*
X101043820Y-129015283D01*
X100909102Y-129216903D01*
X100816307Y-129440931D01*
X100769000Y-129678757D01*
X100406000Y-129678757D01*
X100406000Y-128404134D01*
X103019000Y-128404134D01*
X103019000Y-128695866D01*
X103075914Y-128981992D01*
X103187555Y-129251517D01*
X103349632Y-129494083D01*
X103555917Y-129700368D01*
X103798483Y-129862445D01*
X104068008Y-129974086D01*
X104354134Y-130031000D01*
X104645866Y-130031000D01*
X104931992Y-129974086D01*
X105201517Y-129862445D01*
X105444083Y-129700368D01*
X105650368Y-129494083D01*
X105812445Y-129251517D01*
X105924086Y-128981992D01*
X105981000Y-128695866D01*
X105981000Y-128404134D01*
X105924086Y-128118008D01*
X105812445Y-127848483D01*
X105650368Y-127605917D01*
X105544451Y-127500000D01*
X110717157Y-127500000D01*
X110717157Y-129500000D01*
X110724513Y-129574689D01*
X110746299Y-129646508D01*
X110781678Y-129712696D01*
X110829289Y-129770711D01*
X110887304Y-129818322D01*
X110953492Y-129853701D01*
X111025311Y-129875487D01*
X111100000Y-129882843D01*
X113100000Y-129882843D01*
X113174689Y-129875487D01*
X113246508Y-129853701D01*
X113312696Y-129818322D01*
X113370711Y-129770711D01*
X113418322Y-129712696D01*
X113453701Y-129646508D01*
X113475487Y-129574689D01*
X113482843Y-129500000D01*
X113482843Y-128299964D01*
X137234000Y-128299964D01*
X137234000Y-128700036D01*
X137312050Y-129092421D01*
X137465151Y-129462039D01*
X137687419Y-129794687D01*
X137970313Y-130077581D01*
X138302961Y-130299849D01*
X138672579Y-130452950D01*
X139064964Y-130531000D01*
X139465036Y-130531000D01*
X139857421Y-130452950D01*
X140227039Y-130299849D01*
X140559687Y-130077581D01*
X140842581Y-129794687D01*
X141064849Y-129462039D01*
X141217950Y-129092421D01*
X141296000Y-128700036D01*
X141296000Y-128299964D01*
X141217950Y-127907579D01*
X141213222Y-127896164D01*
X145577784Y-127896164D01*
X145581826Y-128084827D01*
X145742974Y-128151328D01*
X145913998Y-128185113D01*
X146088328Y-128184884D01*
X146259264Y-128150649D01*
X146418174Y-128084827D01*
X146422216Y-127896164D01*
X146000000Y-127473948D01*
X145577784Y-127896164D01*
X141213222Y-127896164D01*
X141064849Y-127537961D01*
X140848385Y-127213998D01*
X145114887Y-127213998D01*
X145115116Y-127388328D01*
X145149351Y-127559264D01*
X145215173Y-127718174D01*
X145403836Y-127722216D01*
X145826052Y-127300000D01*
X145403836Y-126877784D01*
X145215173Y-126881826D01*
X145148672Y-127042974D01*
X145114887Y-127213998D01*
X140848385Y-127213998D01*
X140842581Y-127205313D01*
X140559687Y-126922419D01*
X140227039Y-126700151D01*
X139857421Y-126547050D01*
X139465036Y-126469000D01*
X139064964Y-126469000D01*
X138672579Y-126547050D01*
X138302961Y-126700151D01*
X137970313Y-126922419D01*
X137687419Y-127205313D01*
X137465151Y-127537961D01*
X137312050Y-127907579D01*
X137234000Y-128299964D01*
X113482843Y-128299964D01*
X113482843Y-127500000D01*
X113475487Y-127425311D01*
X113453701Y-127353492D01*
X113418322Y-127287304D01*
X113370711Y-127229289D01*
X113312696Y-127181678D01*
X113246508Y-127146299D01*
X113174689Y-127124513D01*
X113100000Y-127117157D01*
X111100000Y-127117157D01*
X111025311Y-127124513D01*
X110953492Y-127146299D01*
X110887304Y-127181678D01*
X110829289Y-127229289D01*
X110781678Y-127287304D01*
X110746299Y-127353492D01*
X110724513Y-127425311D01*
X110717157Y-127500000D01*
X105544451Y-127500000D01*
X105444083Y-127399632D01*
X105201517Y-127237555D01*
X104931992Y-127125914D01*
X104645866Y-127069000D01*
X104354134Y-127069000D01*
X104068008Y-127125914D01*
X103798483Y-127237555D01*
X103555917Y-127399632D01*
X103349632Y-127605917D01*
X103187555Y-127848483D01*
X103075914Y-128118008D01*
X103019000Y-128404134D01*
X100406000Y-128404134D01*
X100406000Y-126113998D01*
X145114887Y-126113998D01*
X145115116Y-126288328D01*
X145149351Y-126459264D01*
X145215173Y-126618174D01*
X145403836Y-126622216D01*
X145826052Y-126200000D01*
X145403836Y-125777784D01*
X145215173Y-125781826D01*
X145148672Y-125942974D01*
X145114887Y-126113998D01*
X100406000Y-126113998D01*
X100406000Y-125603836D01*
X145577784Y-125603836D01*
X145623948Y-125650000D01*
X145577784Y-125696164D01*
X145581826Y-125884827D01*
X145742974Y-125951328D01*
X145913998Y-125985113D01*
X145959002Y-125985054D01*
X146000000Y-126026052D01*
X146041106Y-125984946D01*
X146088328Y-125984884D01*
X146246657Y-125953174D01*
X146214887Y-126113998D01*
X146214946Y-126159002D01*
X146173948Y-126200000D01*
X146215054Y-126241106D01*
X146215116Y-126288328D01*
X146246826Y-126446657D01*
X146086002Y-126414887D01*
X146040998Y-126414946D01*
X146000000Y-126373948D01*
X145958894Y-126415054D01*
X145911672Y-126415116D01*
X145740736Y-126449351D01*
X145581826Y-126515173D01*
X145577784Y-126703836D01*
X145623948Y-126750000D01*
X145577784Y-126796164D01*
X145581826Y-126984827D01*
X145742974Y-127051328D01*
X145913998Y-127085113D01*
X145959002Y-127085054D01*
X146000000Y-127126052D01*
X146041106Y-127084946D01*
X146088328Y-127084884D01*
X146246657Y-127053174D01*
X146214887Y-127213998D01*
X146214946Y-127259002D01*
X146173948Y-127300000D01*
X146215054Y-127341106D01*
X146215116Y-127388328D01*
X146249351Y-127559264D01*
X146315173Y-127718174D01*
X146503836Y-127722216D01*
X146550000Y-127676052D01*
X146596164Y-127722216D01*
X146784827Y-127718174D01*
X146851328Y-127557026D01*
X146885113Y-127386002D01*
X146885054Y-127340998D01*
X146926052Y-127300000D01*
X146884946Y-127258894D01*
X146884884Y-127211672D01*
X146853174Y-127053343D01*
X147013998Y-127085113D01*
X147059002Y-127085054D01*
X147100000Y-127126052D01*
X147141106Y-127084946D01*
X147188328Y-127084884D01*
X147346657Y-127053174D01*
X147314887Y-127213998D01*
X147314946Y-127259002D01*
X147273948Y-127300000D01*
X147290919Y-127316971D01*
X147116971Y-127490919D01*
X147100000Y-127473948D01*
X146677784Y-127896164D01*
X146681826Y-128084827D01*
X146842974Y-128151328D01*
X147013998Y-128185113D01*
X147188328Y-128184884D01*
X147359264Y-128150649D01*
X147505367Y-128090132D01*
X147493358Y-128102141D01*
X147407887Y-128230058D01*
X147349013Y-128372191D01*
X147319000Y-128523078D01*
X147319000Y-128676922D01*
X147349013Y-128827809D01*
X147407887Y-128969942D01*
X147493358Y-129097859D01*
X147602141Y-129206642D01*
X147730058Y-129292113D01*
X147872191Y-129350987D01*
X148023078Y-129381000D01*
X148176922Y-129381000D01*
X148327809Y-129350987D01*
X148469942Y-129292113D01*
X148597859Y-129206642D01*
X148706642Y-129097859D01*
X148792113Y-128969942D01*
X148850987Y-128827809D01*
X148881000Y-128676922D01*
X148881000Y-128523078D01*
X148850987Y-128372191D01*
X148792113Y-128230058D01*
X148706642Y-128102141D01*
X148619666Y-128015165D01*
X148622216Y-127896164D01*
X148200000Y-127473948D01*
X147791519Y-127882429D01*
X147762187Y-127894579D01*
X147818187Y-127838579D01*
X147701705Y-127722097D01*
X147884827Y-127718174D01*
X147951328Y-127557026D01*
X147985113Y-127386002D01*
X147985054Y-127340998D01*
X148026052Y-127300000D01*
X148373948Y-127300000D01*
X148796164Y-127722216D01*
X148971267Y-127718465D01*
X148949013Y-127772191D01*
X148919000Y-127923078D01*
X148919000Y-128076922D01*
X148949013Y-128227809D01*
X149007887Y-128369942D01*
X149093358Y-128497859D01*
X149202141Y-128606642D01*
X149330058Y-128692113D01*
X149472191Y-128750987D01*
X149623078Y-128781000D01*
X149776922Y-128781000D01*
X149927809Y-128750987D01*
X150069942Y-128692113D01*
X150197859Y-128606642D01*
X150306642Y-128497859D01*
X150392113Y-128369942D01*
X150450987Y-128227809D01*
X150481000Y-128076922D01*
X150481000Y-127923078D01*
X150450987Y-127772191D01*
X150430644Y-127723078D01*
X151419000Y-127723078D01*
X151419000Y-127876922D01*
X151449013Y-128027809D01*
X151507887Y-128169942D01*
X151593358Y-128297859D01*
X151702141Y-128406642D01*
X151830058Y-128492113D01*
X151972191Y-128550987D01*
X152123078Y-128581000D01*
X152276922Y-128581000D01*
X152427809Y-128550987D01*
X152569942Y-128492113D01*
X152697859Y-128406642D01*
X152806642Y-128297859D01*
X152892113Y-128169942D01*
X152950987Y-128027809D01*
X152981000Y-127876922D01*
X152981000Y-127723078D01*
X152950987Y-127572191D01*
X152892113Y-127430058D01*
X152806642Y-127302141D01*
X152697859Y-127193358D01*
X152569942Y-127107887D01*
X152427809Y-127049013D01*
X152276922Y-127019000D01*
X152123078Y-127019000D01*
X151972191Y-127049013D01*
X151830058Y-127107887D01*
X151702141Y-127193358D01*
X151593358Y-127302141D01*
X151507887Y-127430058D01*
X151449013Y-127572191D01*
X151419000Y-127723078D01*
X150430644Y-127723078D01*
X150392113Y-127630058D01*
X150306642Y-127502141D01*
X150197859Y-127393358D01*
X150069942Y-127307887D01*
X149927809Y-127249013D01*
X149776922Y-127219000D01*
X149623078Y-127219000D01*
X149472191Y-127249013D01*
X149330058Y-127307887D01*
X149202141Y-127393358D01*
X149093358Y-127502141D01*
X149042676Y-127577993D01*
X149051328Y-127557026D01*
X149085113Y-127386002D01*
X149084884Y-127211672D01*
X149050649Y-127040736D01*
X148984827Y-126881826D01*
X148796164Y-126877784D01*
X148373948Y-127300000D01*
X148026052Y-127300000D01*
X147984946Y-127258894D01*
X147984884Y-127211672D01*
X147953174Y-127053343D01*
X148113998Y-127085113D01*
X148159002Y-127085054D01*
X148200000Y-127126052D01*
X148241106Y-127084946D01*
X148288328Y-127084884D01*
X148459264Y-127050649D01*
X148618174Y-126984827D01*
X148622216Y-126796164D01*
X148576052Y-126750000D01*
X148622216Y-126703836D01*
X148618174Y-126515173D01*
X148457026Y-126448672D01*
X148286002Y-126414887D01*
X148240998Y-126414946D01*
X148200000Y-126373948D01*
X148158894Y-126415054D01*
X148111672Y-126415116D01*
X147953343Y-126446826D01*
X147985113Y-126286002D01*
X147985054Y-126240998D01*
X148026052Y-126200000D01*
X148373948Y-126200000D01*
X148796164Y-126622216D01*
X148984827Y-126618174D01*
X149051328Y-126457026D01*
X149085113Y-126286002D01*
X149084884Y-126111672D01*
X149050649Y-125940736D01*
X148984827Y-125781826D01*
X148796164Y-125777784D01*
X148373948Y-126200000D01*
X148026052Y-126200000D01*
X147984946Y-126158894D01*
X147984884Y-126111672D01*
X147953174Y-125953343D01*
X148113998Y-125985113D01*
X148159002Y-125985054D01*
X148200000Y-126026052D01*
X148241106Y-125984946D01*
X148288328Y-125984884D01*
X148459264Y-125950649D01*
X148618174Y-125884827D01*
X148622216Y-125696164D01*
X148576052Y-125650000D01*
X148622216Y-125603836D01*
X148618174Y-125415173D01*
X148457026Y-125348672D01*
X148286002Y-125314887D01*
X148240998Y-125314946D01*
X148200000Y-125273948D01*
X148158894Y-125315054D01*
X148111672Y-125315116D01*
X147953343Y-125346826D01*
X147985113Y-125186002D01*
X147985054Y-125140998D01*
X148026052Y-125100000D01*
X148373948Y-125100000D01*
X148796164Y-125522216D01*
X148984827Y-125518174D01*
X149051328Y-125357026D01*
X149085113Y-125186002D01*
X149084899Y-125023078D01*
X153719000Y-125023078D01*
X153719000Y-125176922D01*
X153749013Y-125327809D01*
X153807887Y-125469942D01*
X153893358Y-125597859D01*
X154002141Y-125706642D01*
X154130058Y-125792113D01*
X154272191Y-125850987D01*
X154423078Y-125881000D01*
X154576922Y-125881000D01*
X154727809Y-125850987D01*
X154869942Y-125792113D01*
X154997859Y-125706642D01*
X155106642Y-125597859D01*
X155156608Y-125523078D01*
X156919000Y-125523078D01*
X156919000Y-125676922D01*
X156949013Y-125827809D01*
X157007887Y-125969942D01*
X157093358Y-126097859D01*
X157202141Y-126206642D01*
X157330058Y-126292113D01*
X157472191Y-126350987D01*
X157623078Y-126381000D01*
X157776922Y-126381000D01*
X157927809Y-126350987D01*
X158069942Y-126292113D01*
X158197859Y-126206642D01*
X158306642Y-126097859D01*
X158392113Y-125969942D01*
X158450987Y-125827809D01*
X158481000Y-125676922D01*
X158481000Y-125523078D01*
X158450987Y-125372191D01*
X158392113Y-125230058D01*
X158306642Y-125102141D01*
X158197859Y-124993358D01*
X158069942Y-124907887D01*
X157927809Y-124849013D01*
X157776922Y-124819000D01*
X157623078Y-124819000D01*
X157472191Y-124849013D01*
X157330058Y-124907887D01*
X157202141Y-124993358D01*
X157093358Y-125102141D01*
X157007887Y-125230058D01*
X156949013Y-125372191D01*
X156919000Y-125523078D01*
X155156608Y-125523078D01*
X155192113Y-125469942D01*
X155250987Y-125327809D01*
X155281000Y-125176922D01*
X155281000Y-125023078D01*
X155250987Y-124872191D01*
X155192113Y-124730058D01*
X155106642Y-124602141D01*
X154997859Y-124493358D01*
X154869942Y-124407887D01*
X154727809Y-124349013D01*
X154576922Y-124319000D01*
X154423078Y-124319000D01*
X154272191Y-124349013D01*
X154130058Y-124407887D01*
X154002141Y-124493358D01*
X153893358Y-124602141D01*
X153807887Y-124730058D01*
X153749013Y-124872191D01*
X153719000Y-125023078D01*
X149084899Y-125023078D01*
X149084884Y-125011672D01*
X149050649Y-124840736D01*
X148984827Y-124681826D01*
X148796164Y-124677784D01*
X148373948Y-125100000D01*
X148026052Y-125100000D01*
X147984946Y-125058894D01*
X147984884Y-125011672D01*
X147950649Y-124840736D01*
X147884827Y-124681826D01*
X147696164Y-124677784D01*
X147650000Y-124723948D01*
X147603836Y-124677784D01*
X147415173Y-124681826D01*
X147348672Y-124842974D01*
X147314887Y-125013998D01*
X147314946Y-125059002D01*
X147273948Y-125100000D01*
X147315054Y-125141106D01*
X147315116Y-125188328D01*
X147346826Y-125346657D01*
X147186002Y-125314887D01*
X147140998Y-125314946D01*
X147100000Y-125273948D01*
X147058894Y-125315054D01*
X147011672Y-125315116D01*
X146853343Y-125346826D01*
X146885113Y-125186002D01*
X146885054Y-125140998D01*
X146926052Y-125100000D01*
X146884946Y-125058894D01*
X146884884Y-125011672D01*
X146850649Y-124840736D01*
X146784827Y-124681826D01*
X146596164Y-124677784D01*
X146550000Y-124723948D01*
X146503836Y-124677784D01*
X146315173Y-124681826D01*
X146248672Y-124842974D01*
X146214887Y-125013998D01*
X146214946Y-125059002D01*
X146173948Y-125100000D01*
X146215054Y-125141106D01*
X146215116Y-125188328D01*
X146246826Y-125346657D01*
X146086002Y-125314887D01*
X146040998Y-125314946D01*
X146000000Y-125273948D01*
X145958894Y-125315054D01*
X145911672Y-125315116D01*
X145740736Y-125349351D01*
X145581826Y-125415173D01*
X145577784Y-125603836D01*
X100406000Y-125603836D01*
X100406000Y-125013998D01*
X145114887Y-125013998D01*
X145115116Y-125188328D01*
X145149351Y-125359264D01*
X145215173Y-125518174D01*
X145403836Y-125522216D01*
X145826052Y-125100000D01*
X145403836Y-124677784D01*
X145215173Y-124681826D01*
X145148672Y-124842974D01*
X145114887Y-125013998D01*
X100406000Y-125013998D01*
X100406000Y-124503836D01*
X145577784Y-124503836D01*
X146000000Y-124926052D01*
X146422216Y-124503836D01*
X146677784Y-124503836D01*
X147100000Y-124926052D01*
X147522216Y-124503836D01*
X147777784Y-124503836D01*
X148200000Y-124926052D01*
X148622216Y-124503836D01*
X148618174Y-124315173D01*
X148457026Y-124248672D01*
X148286002Y-124214887D01*
X148111672Y-124215116D01*
X147940736Y-124249351D01*
X147781826Y-124315173D01*
X147777784Y-124503836D01*
X147522216Y-124503836D01*
X147518174Y-124315173D01*
X147357026Y-124248672D01*
X147186002Y-124214887D01*
X147011672Y-124215116D01*
X146840736Y-124249351D01*
X146681826Y-124315173D01*
X146677784Y-124503836D01*
X146422216Y-124503836D01*
X146418174Y-124315173D01*
X146257026Y-124248672D01*
X146086002Y-124214887D01*
X145911672Y-124215116D01*
X145740736Y-124249351D01*
X145581826Y-124315173D01*
X145577784Y-124503836D01*
X100406000Y-124503836D01*
X100406000Y-122918607D01*
X100417446Y-122932554D01*
X100574436Y-123061393D01*
X100753545Y-123157128D01*
X100947889Y-123216082D01*
X101099355Y-123231000D01*
X102500645Y-123231000D01*
X102652111Y-123216082D01*
X102846455Y-123157128D01*
X103025564Y-123061393D01*
X103182554Y-122932554D01*
X103311393Y-122775564D01*
X103407128Y-122596455D01*
X103466082Y-122402111D01*
X103485988Y-122200000D01*
X105674496Y-122200000D01*
X105692471Y-122382508D01*
X105745707Y-122558002D01*
X105832157Y-122719738D01*
X105948499Y-122861501D01*
X106090262Y-122977843D01*
X106251998Y-123064293D01*
X106427492Y-123117529D01*
X106564269Y-123131000D01*
X107755731Y-123131000D01*
X107836166Y-123123078D01*
X124619000Y-123123078D01*
X124619000Y-123276922D01*
X124649013Y-123427809D01*
X124707887Y-123569942D01*
X124793358Y-123697859D01*
X124902141Y-123806642D01*
X125030058Y-123892113D01*
X125172191Y-123950987D01*
X125323078Y-123981000D01*
X125476922Y-123981000D01*
X125627809Y-123950987D01*
X125769942Y-123892113D01*
X125897859Y-123806642D01*
X126006642Y-123697859D01*
X126092113Y-123569942D01*
X126150987Y-123427809D01*
X126181000Y-123276922D01*
X126181000Y-123123078D01*
X126150987Y-122972191D01*
X126092113Y-122830058D01*
X126006642Y-122702141D01*
X125897859Y-122593358D01*
X125769942Y-122507887D01*
X125627809Y-122449013D01*
X125476922Y-122419000D01*
X125323078Y-122419000D01*
X125172191Y-122449013D01*
X125030058Y-122507887D01*
X124902141Y-122593358D01*
X124793358Y-122702141D01*
X124707887Y-122830058D01*
X124649013Y-122972191D01*
X124619000Y-123123078D01*
X107836166Y-123123078D01*
X107892508Y-123117529D01*
X108068002Y-123064293D01*
X108229738Y-122977843D01*
X108371501Y-122861501D01*
X108487843Y-122719738D01*
X108574293Y-122558002D01*
X108627529Y-122382508D01*
X108645504Y-122200000D01*
X108628080Y-122023078D01*
X126719000Y-122023078D01*
X126719000Y-122176922D01*
X126749013Y-122327809D01*
X126807887Y-122469942D01*
X126893358Y-122597859D01*
X127002141Y-122706642D01*
X127130058Y-122792113D01*
X127272191Y-122850987D01*
X127423078Y-122881000D01*
X127576922Y-122881000D01*
X127727809Y-122850987D01*
X127869942Y-122792113D01*
X127997859Y-122706642D01*
X128106642Y-122597859D01*
X128192113Y-122469942D01*
X128250987Y-122327809D01*
X128251928Y-122323078D01*
X155519000Y-122323078D01*
X155519000Y-122476922D01*
X155549013Y-122627809D01*
X155607887Y-122769942D01*
X155693358Y-122897859D01*
X155802141Y-123006642D01*
X155930058Y-123092113D01*
X156072191Y-123150987D01*
X156223078Y-123181000D01*
X156376922Y-123181000D01*
X156527809Y-123150987D01*
X156669942Y-123092113D01*
X156797859Y-123006642D01*
X156906642Y-122897859D01*
X156992113Y-122769942D01*
X157025906Y-122688360D01*
X157019000Y-122723078D01*
X157019000Y-122876922D01*
X157049013Y-123027809D01*
X157107887Y-123169942D01*
X157193358Y-123297859D01*
X157302141Y-123406642D01*
X157430058Y-123492113D01*
X157572191Y-123550987D01*
X157723078Y-123581000D01*
X157876922Y-123581000D01*
X158027809Y-123550987D01*
X158169942Y-123492113D01*
X158297859Y-123406642D01*
X158406642Y-123297859D01*
X158492113Y-123169942D01*
X158550987Y-123027809D01*
X158581000Y-122876922D01*
X158581000Y-122723078D01*
X158550987Y-122572191D01*
X158492113Y-122430058D01*
X158406642Y-122302141D01*
X158297859Y-122193358D01*
X158169942Y-122107887D01*
X158027809Y-122049013D01*
X157876922Y-122019000D01*
X157723078Y-122019000D01*
X157572191Y-122049013D01*
X157430058Y-122107887D01*
X157302141Y-122193358D01*
X157193358Y-122302141D01*
X157107887Y-122430058D01*
X157074094Y-122511640D01*
X157081000Y-122476922D01*
X157081000Y-122323078D01*
X157050987Y-122172191D01*
X156992113Y-122030058D01*
X156906642Y-121902141D01*
X156797859Y-121793358D01*
X156669942Y-121707887D01*
X156527809Y-121649013D01*
X156376922Y-121619000D01*
X156223078Y-121619000D01*
X156072191Y-121649013D01*
X155930058Y-121707887D01*
X155802141Y-121793358D01*
X155693358Y-121902141D01*
X155607887Y-122030058D01*
X155549013Y-122172191D01*
X155519000Y-122323078D01*
X128251928Y-122323078D01*
X128281000Y-122176922D01*
X128281000Y-122023078D01*
X128250987Y-121872191D01*
X128192113Y-121730058D01*
X128106642Y-121602141D01*
X127997859Y-121493358D01*
X127892678Y-121423078D01*
X133519000Y-121423078D01*
X133519000Y-121576922D01*
X133549013Y-121727809D01*
X133607887Y-121869942D01*
X133693358Y-121997859D01*
X133802141Y-122106642D01*
X133930058Y-122192113D01*
X134072191Y-122250987D01*
X134223078Y-122281000D01*
X134376922Y-122281000D01*
X134527809Y-122250987D01*
X134669942Y-122192113D01*
X134797859Y-122106642D01*
X134906642Y-121997859D01*
X134992113Y-121869942D01*
X135050987Y-121727809D01*
X135081000Y-121576922D01*
X135081000Y-121423078D01*
X135050987Y-121272191D01*
X134992113Y-121130058D01*
X134906642Y-121002141D01*
X134797859Y-120893358D01*
X134669942Y-120807887D01*
X134527809Y-120749013D01*
X134376922Y-120719000D01*
X134223078Y-120719000D01*
X134072191Y-120749013D01*
X133930058Y-120807887D01*
X133802141Y-120893358D01*
X133693358Y-121002141D01*
X133607887Y-121130058D01*
X133549013Y-121272191D01*
X133519000Y-121423078D01*
X127892678Y-121423078D01*
X127869942Y-121407887D01*
X127727809Y-121349013D01*
X127576922Y-121319000D01*
X127423078Y-121319000D01*
X127272191Y-121349013D01*
X127130058Y-121407887D01*
X127002141Y-121493358D01*
X126893358Y-121602141D01*
X126807887Y-121730058D01*
X126749013Y-121872191D01*
X126719000Y-122023078D01*
X108628080Y-122023078D01*
X108627529Y-122017492D01*
X108574293Y-121841998D01*
X108487843Y-121680262D01*
X108371501Y-121538499D01*
X108229738Y-121422157D01*
X108068002Y-121335707D01*
X107892508Y-121282471D01*
X107755731Y-121269000D01*
X106564269Y-121269000D01*
X106427492Y-121282471D01*
X106251998Y-121335707D01*
X106090262Y-121422157D01*
X105948499Y-121538499D01*
X105832157Y-121680262D01*
X105745707Y-121841998D01*
X105692471Y-122017492D01*
X105674496Y-122200000D01*
X103485988Y-122200000D01*
X103466082Y-121997889D01*
X103407128Y-121803545D01*
X103311393Y-121624436D01*
X103182554Y-121467446D01*
X103025564Y-121338607D01*
X102846455Y-121242872D01*
X102652111Y-121183918D01*
X102500645Y-121169000D01*
X101099355Y-121169000D01*
X100947889Y-121183918D01*
X100753545Y-121242872D01*
X100574436Y-121338607D01*
X100417446Y-121467446D01*
X100406000Y-121481393D01*
X100406000Y-120746164D01*
X125527784Y-120746164D01*
X125531826Y-120934827D01*
X125692974Y-121001328D01*
X125863998Y-121035113D01*
X126038328Y-121034884D01*
X126209264Y-121000649D01*
X126368174Y-120934827D01*
X126372216Y-120746164D01*
X127627784Y-120746164D01*
X127631826Y-120934827D01*
X127792974Y-121001328D01*
X127963998Y-121035113D01*
X128138328Y-121034884D01*
X128309264Y-121000649D01*
X128468174Y-120934827D01*
X128472216Y-120746164D01*
X128050000Y-120323948D01*
X127627784Y-120746164D01*
X126372216Y-120746164D01*
X125950000Y-120323948D01*
X125527784Y-120746164D01*
X100406000Y-120746164D01*
X100406000Y-120063998D01*
X125064887Y-120063998D01*
X125065116Y-120238328D01*
X125099351Y-120409264D01*
X125165173Y-120568174D01*
X125353836Y-120572216D01*
X125776052Y-120150000D01*
X126123948Y-120150000D01*
X126546164Y-120572216D01*
X126734827Y-120568174D01*
X126801328Y-120407026D01*
X126835113Y-120236002D01*
X126834888Y-120063998D01*
X127164887Y-120063998D01*
X127165116Y-120238328D01*
X127199351Y-120409264D01*
X127265173Y-120568174D01*
X127453836Y-120572216D01*
X127876052Y-120150000D01*
X128223948Y-120150000D01*
X128646164Y-120572216D01*
X128834827Y-120568174D01*
X128901328Y-120407026D01*
X128935113Y-120236002D01*
X128934884Y-120061672D01*
X128900649Y-119890736D01*
X128834827Y-119731826D01*
X128646164Y-119727784D01*
X128223948Y-120150000D01*
X127876052Y-120150000D01*
X127453836Y-119727784D01*
X127265173Y-119731826D01*
X127198672Y-119892974D01*
X127164887Y-120063998D01*
X126834888Y-120063998D01*
X126834884Y-120061672D01*
X126800649Y-119890736D01*
X126734827Y-119731826D01*
X126546164Y-119727784D01*
X126123948Y-120150000D01*
X125776052Y-120150000D01*
X125353836Y-119727784D01*
X125165173Y-119731826D01*
X125098672Y-119892974D01*
X125064887Y-120063998D01*
X100406000Y-120063998D01*
X100406000Y-119023078D01*
X123319000Y-119023078D01*
X123319000Y-119176922D01*
X123349013Y-119327809D01*
X123407887Y-119469942D01*
X123493358Y-119597859D01*
X123602141Y-119706642D01*
X123730058Y-119792113D01*
X123872191Y-119850987D01*
X124023078Y-119881000D01*
X124176922Y-119881000D01*
X124327809Y-119850987D01*
X124469942Y-119792113D01*
X124597859Y-119706642D01*
X124706642Y-119597859D01*
X124736057Y-119553836D01*
X125527784Y-119553836D01*
X125950000Y-119976052D01*
X126372216Y-119553836D01*
X127627784Y-119553836D01*
X128050000Y-119976052D01*
X128472216Y-119553836D01*
X128469415Y-119423078D01*
X133519000Y-119423078D01*
X133519000Y-119576922D01*
X133549013Y-119727809D01*
X133607887Y-119869942D01*
X133693358Y-119997859D01*
X133802141Y-120106642D01*
X133930058Y-120192113D01*
X134072191Y-120250987D01*
X134223078Y-120281000D01*
X134376922Y-120281000D01*
X134527809Y-120250987D01*
X134669942Y-120192113D01*
X134797859Y-120106642D01*
X134906642Y-119997859D01*
X134946233Y-119938606D01*
X160369000Y-119938606D01*
X160369000Y-120161394D01*
X160412464Y-120379900D01*
X160497721Y-120585729D01*
X160621495Y-120770970D01*
X160779030Y-120928505D01*
X160964271Y-121052279D01*
X161170100Y-121137536D01*
X161388606Y-121181000D01*
X161611394Y-121181000D01*
X161829900Y-121137536D01*
X162035729Y-121052279D01*
X162220970Y-120928505D01*
X162378505Y-120770970D01*
X162502279Y-120585729D01*
X162587536Y-120379900D01*
X162631000Y-120161394D01*
X162631000Y-119938606D01*
X162587536Y-119720100D01*
X162502279Y-119514271D01*
X162378505Y-119329030D01*
X162220970Y-119171495D01*
X162035729Y-119047721D01*
X161829900Y-118962464D01*
X161611394Y-118919000D01*
X161388606Y-118919000D01*
X161170100Y-118962464D01*
X160964271Y-119047721D01*
X160779030Y-119171495D01*
X160621495Y-119329030D01*
X160497721Y-119514271D01*
X160412464Y-119720100D01*
X160369000Y-119938606D01*
X134946233Y-119938606D01*
X134992113Y-119869942D01*
X135050987Y-119727809D01*
X135081000Y-119576922D01*
X135081000Y-119423078D01*
X135050987Y-119272191D01*
X134992113Y-119130058D01*
X134906642Y-119002141D01*
X134797859Y-118893358D01*
X134669942Y-118807887D01*
X134527809Y-118749013D01*
X134376922Y-118719000D01*
X134223078Y-118719000D01*
X134072191Y-118749013D01*
X133930058Y-118807887D01*
X133802141Y-118893358D01*
X133693358Y-119002141D01*
X133607887Y-119130058D01*
X133549013Y-119272191D01*
X133519000Y-119423078D01*
X128469415Y-119423078D01*
X128468174Y-119365173D01*
X128307026Y-119298672D01*
X128136002Y-119264887D01*
X127961672Y-119265116D01*
X127790736Y-119299351D01*
X127631826Y-119365173D01*
X127627784Y-119553836D01*
X126372216Y-119553836D01*
X126368174Y-119365173D01*
X126207026Y-119298672D01*
X126036002Y-119264887D01*
X125861672Y-119265116D01*
X125690736Y-119299351D01*
X125531826Y-119365173D01*
X125527784Y-119553836D01*
X124736057Y-119553836D01*
X124792113Y-119469942D01*
X124850987Y-119327809D01*
X124881000Y-119176922D01*
X124881000Y-119023078D01*
X124850987Y-118872191D01*
X124792113Y-118730058D01*
X124736058Y-118646164D01*
X125527784Y-118646164D01*
X125531826Y-118834827D01*
X125692974Y-118901328D01*
X125863998Y-118935113D01*
X126038328Y-118934884D01*
X126209264Y-118900649D01*
X126368174Y-118834827D01*
X126372216Y-118646164D01*
X127627784Y-118646164D01*
X127631826Y-118834827D01*
X127792974Y-118901328D01*
X127963998Y-118935113D01*
X128138328Y-118934884D01*
X128309264Y-118900649D01*
X128468174Y-118834827D01*
X128472216Y-118646164D01*
X128050000Y-118223948D01*
X127627784Y-118646164D01*
X126372216Y-118646164D01*
X125950000Y-118223948D01*
X125527784Y-118646164D01*
X124736058Y-118646164D01*
X124706642Y-118602141D01*
X124597859Y-118493358D01*
X124469942Y-118407887D01*
X124327809Y-118349013D01*
X124176922Y-118319000D01*
X124023078Y-118319000D01*
X123872191Y-118349013D01*
X123730058Y-118407887D01*
X123602141Y-118493358D01*
X123493358Y-118602141D01*
X123407887Y-118730058D01*
X123349013Y-118872191D01*
X123319000Y-119023078D01*
X100406000Y-119023078D01*
X100406000Y-117963998D01*
X125064887Y-117963998D01*
X125065116Y-118138328D01*
X125099351Y-118309264D01*
X125165173Y-118468174D01*
X125353836Y-118472216D01*
X125776052Y-118050000D01*
X126123948Y-118050000D01*
X126546164Y-118472216D01*
X126734827Y-118468174D01*
X126801328Y-118307026D01*
X126835113Y-118136002D01*
X126834888Y-117963998D01*
X127164887Y-117963998D01*
X127165116Y-118138328D01*
X127199351Y-118309264D01*
X127265173Y-118468174D01*
X127453836Y-118472216D01*
X127876052Y-118050000D01*
X128223948Y-118050000D01*
X128646164Y-118472216D01*
X128834827Y-118468174D01*
X128901328Y-118307026D01*
X128935113Y-118136002D01*
X128934884Y-117961672D01*
X128900649Y-117790736D01*
X128834827Y-117631826D01*
X128646164Y-117627784D01*
X128223948Y-118050000D01*
X127876052Y-118050000D01*
X127453836Y-117627784D01*
X127265173Y-117631826D01*
X127198672Y-117792974D01*
X127164887Y-117963998D01*
X126834888Y-117963998D01*
X126834884Y-117961672D01*
X126800649Y-117790736D01*
X126734827Y-117631826D01*
X126546164Y-117627784D01*
X126123948Y-118050000D01*
X125776052Y-118050000D01*
X125353836Y-117627784D01*
X125165173Y-117631826D01*
X125098672Y-117792974D01*
X125064887Y-117963998D01*
X100406000Y-117963998D01*
X100406000Y-117032746D01*
X107716122Y-117032746D01*
X107716122Y-117152118D01*
X107739410Y-117269196D01*
X107785092Y-117379481D01*
X107851411Y-117478734D01*
X107935820Y-117563143D01*
X108035073Y-117629462D01*
X108145358Y-117675144D01*
X108262436Y-117698432D01*
X108381808Y-117698432D01*
X108498886Y-117675144D01*
X108609171Y-117629462D01*
X108708424Y-117563143D01*
X108792833Y-117478734D01*
X108809469Y-117453836D01*
X125527784Y-117453836D01*
X125950000Y-117876052D01*
X126372216Y-117453836D01*
X127627784Y-117453836D01*
X128050000Y-117876052D01*
X128472216Y-117453836D01*
X128468176Y-117265232D01*
X129209410Y-117265232D01*
X129209410Y-117419076D01*
X129239423Y-117569963D01*
X129298297Y-117712096D01*
X129383768Y-117840013D01*
X129492551Y-117948796D01*
X129620468Y-118034267D01*
X129762601Y-118093141D01*
X129913488Y-118123154D01*
X130067332Y-118123154D01*
X130218219Y-118093141D01*
X130360352Y-118034267D01*
X130488269Y-117948796D01*
X130597052Y-117840013D01*
X130682523Y-117712096D01*
X130741397Y-117569963D01*
X130770613Y-117423078D01*
X133519000Y-117423078D01*
X133519000Y-117576922D01*
X133549013Y-117727809D01*
X133607887Y-117869942D01*
X133693358Y-117997859D01*
X133802141Y-118106642D01*
X133930058Y-118192113D01*
X134072191Y-118250987D01*
X134223078Y-118281000D01*
X134376922Y-118281000D01*
X134527809Y-118250987D01*
X134669942Y-118192113D01*
X134797859Y-118106642D01*
X134906642Y-117997859D01*
X134992113Y-117869942D01*
X135050987Y-117727809D01*
X135081000Y-117576922D01*
X135081000Y-117423078D01*
X135050987Y-117272191D01*
X134992113Y-117130058D01*
X134906642Y-117002141D01*
X134797859Y-116893358D01*
X134669942Y-116807887D01*
X134527809Y-116749013D01*
X134376922Y-116719000D01*
X134223078Y-116719000D01*
X134072191Y-116749013D01*
X133930058Y-116807887D01*
X133802141Y-116893358D01*
X133693358Y-117002141D01*
X133607887Y-117130058D01*
X133549013Y-117272191D01*
X133519000Y-117423078D01*
X130770613Y-117423078D01*
X130771410Y-117419076D01*
X130771410Y-117265232D01*
X130741397Y-117114345D01*
X130682523Y-116972212D01*
X130597052Y-116844295D01*
X130488269Y-116735512D01*
X130360352Y-116650041D01*
X130218219Y-116591167D01*
X130067332Y-116561154D01*
X129913488Y-116561154D01*
X129762601Y-116591167D01*
X129620468Y-116650041D01*
X129492551Y-116735512D01*
X129383768Y-116844295D01*
X129298297Y-116972212D01*
X129239423Y-117114345D01*
X129209410Y-117265232D01*
X128468176Y-117265232D01*
X128468174Y-117265173D01*
X128307026Y-117198672D01*
X128136002Y-117164887D01*
X127961672Y-117165116D01*
X127790736Y-117199351D01*
X127631826Y-117265173D01*
X127627784Y-117453836D01*
X126372216Y-117453836D01*
X126368174Y-117265173D01*
X126207026Y-117198672D01*
X126036002Y-117164887D01*
X125861672Y-117165116D01*
X125690736Y-117199351D01*
X125531826Y-117265173D01*
X125527784Y-117453836D01*
X108809469Y-117453836D01*
X108859152Y-117379481D01*
X108904834Y-117269196D01*
X108928122Y-117152118D01*
X108928122Y-117032746D01*
X108904834Y-116915668D01*
X108859152Y-116805383D01*
X108792833Y-116706130D01*
X108708424Y-116621721D01*
X108609171Y-116555402D01*
X108498886Y-116509720D01*
X108381808Y-116486432D01*
X108262436Y-116486432D01*
X108145358Y-116509720D01*
X108035073Y-116555402D01*
X107935820Y-116621721D01*
X107851411Y-116706130D01*
X107785092Y-116805383D01*
X107739410Y-116915668D01*
X107716122Y-117032746D01*
X100406000Y-117032746D01*
X100406000Y-114645413D01*
X111144192Y-114645413D01*
X111239956Y-114909814D01*
X111529571Y-115050704D01*
X111841108Y-115132384D01*
X112162595Y-115151718D01*
X112481675Y-115107961D01*
X112786088Y-115002795D01*
X112960044Y-114909814D01*
X113055808Y-114645413D01*
X112100000Y-113689605D01*
X111144192Y-114645413D01*
X100406000Y-114645413D01*
X100406000Y-114278607D01*
X100417446Y-114292554D01*
X100574436Y-114421393D01*
X100753545Y-114517128D01*
X100947889Y-114576082D01*
X101099355Y-114591000D01*
X102500645Y-114591000D01*
X102652111Y-114576082D01*
X102846455Y-114517128D01*
X103025564Y-114421393D01*
X103182554Y-114292554D01*
X103311393Y-114135564D01*
X103407128Y-113956455D01*
X103466082Y-113762111D01*
X103485988Y-113560000D01*
X105674496Y-113560000D01*
X105692471Y-113742508D01*
X105745707Y-113918002D01*
X105832157Y-114079738D01*
X105948499Y-114221501D01*
X106090262Y-114337843D01*
X106251998Y-114424293D01*
X106427492Y-114477529D01*
X106564269Y-114491000D01*
X107755731Y-114491000D01*
X107892508Y-114477529D01*
X108068002Y-114424293D01*
X108229738Y-114337843D01*
X108371501Y-114221501D01*
X108487843Y-114079738D01*
X108574293Y-113918002D01*
X108627529Y-113742508D01*
X108644263Y-113572595D01*
X110458282Y-113572595D01*
X110502039Y-113891675D01*
X110607205Y-114196088D01*
X110700186Y-114370044D01*
X110964587Y-114465808D01*
X111920395Y-113510000D01*
X112279605Y-113510000D01*
X113235413Y-114465808D01*
X113499814Y-114370044D01*
X113640704Y-114080429D01*
X113722384Y-113768892D01*
X113741718Y-113447405D01*
X113722871Y-113309964D01*
X137234000Y-113309964D01*
X137234000Y-113710036D01*
X137312050Y-114102421D01*
X137465151Y-114472039D01*
X137687419Y-114804687D01*
X137970313Y-115087581D01*
X138302961Y-115309849D01*
X138672579Y-115462950D01*
X139064964Y-115541000D01*
X139465036Y-115541000D01*
X139857421Y-115462950D01*
X140227039Y-115309849D01*
X140559687Y-115087581D01*
X140608662Y-115038606D01*
X160369000Y-115038606D01*
X160369000Y-115261394D01*
X160412464Y-115479900D01*
X160497721Y-115685729D01*
X160621495Y-115870970D01*
X160779030Y-116028505D01*
X160964271Y-116152279D01*
X161170100Y-116237536D01*
X161388606Y-116281000D01*
X161611394Y-116281000D01*
X161829900Y-116237536D01*
X162035729Y-116152279D01*
X162220970Y-116028505D01*
X162378505Y-115870970D01*
X162502279Y-115685729D01*
X162587536Y-115479900D01*
X162631000Y-115261394D01*
X162631000Y-115038606D01*
X162587536Y-114820100D01*
X162502279Y-114614271D01*
X162378505Y-114429030D01*
X162220970Y-114271495D01*
X162035729Y-114147721D01*
X161829900Y-114062464D01*
X161611394Y-114019000D01*
X161388606Y-114019000D01*
X161170100Y-114062464D01*
X160964271Y-114147721D01*
X160779030Y-114271495D01*
X160621495Y-114429030D01*
X160497721Y-114614271D01*
X160412464Y-114820100D01*
X160369000Y-115038606D01*
X140608662Y-115038606D01*
X140842581Y-114804687D01*
X141064849Y-114472039D01*
X141217950Y-114102421D01*
X141296000Y-113710036D01*
X141296000Y-113623078D01*
X155119000Y-113623078D01*
X155119000Y-113776922D01*
X155149013Y-113927809D01*
X155207887Y-114069942D01*
X155293358Y-114197859D01*
X155402141Y-114306642D01*
X155530058Y-114392113D01*
X155672191Y-114450987D01*
X155823078Y-114481000D01*
X155976922Y-114481000D01*
X156127809Y-114450987D01*
X156269942Y-114392113D01*
X156397859Y-114306642D01*
X156506642Y-114197859D01*
X156592113Y-114069942D01*
X156650987Y-113927809D01*
X156681000Y-113776922D01*
X156681000Y-113623078D01*
X156650987Y-113472191D01*
X156592113Y-113330058D01*
X156506642Y-113202141D01*
X156397859Y-113093358D01*
X156269942Y-113007887D01*
X156127809Y-112949013D01*
X155976922Y-112919000D01*
X155823078Y-112919000D01*
X155672191Y-112949013D01*
X155530058Y-113007887D01*
X155402141Y-113093358D01*
X155293358Y-113202141D01*
X155207887Y-113330058D01*
X155149013Y-113472191D01*
X155119000Y-113623078D01*
X141296000Y-113623078D01*
X141296000Y-113309964D01*
X141217950Y-112917579D01*
X141064849Y-112547961D01*
X140842581Y-112215313D01*
X140559687Y-111932419D01*
X140227039Y-111710151D01*
X139857421Y-111557050D01*
X139465036Y-111479000D01*
X139064964Y-111479000D01*
X138672579Y-111557050D01*
X138302961Y-111710151D01*
X137970313Y-111932419D01*
X137687419Y-112215313D01*
X137465151Y-112547961D01*
X137312050Y-112917579D01*
X137234000Y-113309964D01*
X113722871Y-113309964D01*
X113697961Y-113128325D01*
X113592795Y-112823912D01*
X113499814Y-112649956D01*
X113235413Y-112554192D01*
X112279605Y-113510000D01*
X111920395Y-113510000D01*
X110964587Y-112554192D01*
X110700186Y-112649956D01*
X110559296Y-112939571D01*
X110477616Y-113251108D01*
X110458282Y-113572595D01*
X108644263Y-113572595D01*
X108645504Y-113560000D01*
X108627529Y-113377492D01*
X108574293Y-113201998D01*
X108487843Y-113040262D01*
X108371501Y-112898499D01*
X108229738Y-112782157D01*
X108068002Y-112695707D01*
X107892508Y-112642471D01*
X107755731Y-112629000D01*
X106564269Y-112629000D01*
X106427492Y-112642471D01*
X106251998Y-112695707D01*
X106090262Y-112782157D01*
X105948499Y-112898499D01*
X105832157Y-113040262D01*
X105745707Y-113201998D01*
X105692471Y-113377492D01*
X105674496Y-113560000D01*
X103485988Y-113560000D01*
X103466082Y-113357889D01*
X103407128Y-113163545D01*
X103311393Y-112984436D01*
X103182554Y-112827446D01*
X103025564Y-112698607D01*
X102846455Y-112602872D01*
X102652111Y-112543918D01*
X102500645Y-112529000D01*
X101099355Y-112529000D01*
X100947889Y-112543918D01*
X100753545Y-112602872D01*
X100574436Y-112698607D01*
X100417446Y-112827446D01*
X100406000Y-112841393D01*
X100406000Y-112240314D01*
X105094000Y-112240314D01*
X105094000Y-112359686D01*
X105117288Y-112476764D01*
X105162970Y-112587049D01*
X105229289Y-112686302D01*
X105313698Y-112770711D01*
X105412951Y-112837030D01*
X105523236Y-112882712D01*
X105640314Y-112906000D01*
X105759686Y-112906000D01*
X105876764Y-112882712D01*
X105987049Y-112837030D01*
X106086302Y-112770711D01*
X106170711Y-112686302D01*
X106237030Y-112587049D01*
X106282712Y-112476764D01*
X106303036Y-112374587D01*
X111144192Y-112374587D01*
X112100000Y-113330395D01*
X113055808Y-112374587D01*
X112960044Y-112110186D01*
X112670429Y-111969296D01*
X112358892Y-111887616D01*
X112037405Y-111868282D01*
X111718325Y-111912039D01*
X111413912Y-112017205D01*
X111239956Y-112110186D01*
X111144192Y-112374587D01*
X106303036Y-112374587D01*
X106306000Y-112359686D01*
X106306000Y-112240314D01*
X106282712Y-112123236D01*
X106237030Y-112012951D01*
X106170711Y-111913698D01*
X106086302Y-111829289D01*
X105987049Y-111762970D01*
X105876764Y-111717288D01*
X105759686Y-111694000D01*
X105640314Y-111694000D01*
X105523236Y-111717288D01*
X105412951Y-111762970D01*
X105313698Y-111829289D01*
X105229289Y-111913698D01*
X105162970Y-112012951D01*
X105117288Y-112123236D01*
X105094000Y-112240314D01*
X100406000Y-112240314D01*
X100406000Y-111223078D01*
X132419000Y-111223078D01*
X132419000Y-111376922D01*
X132449013Y-111527809D01*
X132507887Y-111669942D01*
X132593358Y-111797859D01*
X132702141Y-111906642D01*
X132830058Y-111992113D01*
X132972191Y-112050987D01*
X133123078Y-112081000D01*
X133276922Y-112081000D01*
X133427809Y-112050987D01*
X133569942Y-111992113D01*
X133697859Y-111906642D01*
X133806642Y-111797859D01*
X133892113Y-111669942D01*
X133950987Y-111527809D01*
X133981000Y-111376922D01*
X133981000Y-111223078D01*
X133950987Y-111072191D01*
X133892113Y-110930058D01*
X133806642Y-110802141D01*
X133697859Y-110693358D01*
X133569942Y-110607887D01*
X133427809Y-110549013D01*
X133276922Y-110519000D01*
X133123078Y-110519000D01*
X132972191Y-110549013D01*
X132830058Y-110607887D01*
X132702141Y-110693358D01*
X132593358Y-110802141D01*
X132507887Y-110930058D01*
X132449013Y-111072191D01*
X132419000Y-111223078D01*
X100406000Y-111223078D01*
X100406000Y-104065293D01*
X108234312Y-104065293D01*
X108318201Y-104319647D01*
X108591058Y-104450714D01*
X108884241Y-104526030D01*
X109186486Y-104542703D01*
X109486175Y-104500090D01*
X109771792Y-104399829D01*
X109915380Y-104323078D01*
X148019000Y-104323078D01*
X148019000Y-104476922D01*
X148049013Y-104627809D01*
X148107887Y-104769942D01*
X148193358Y-104897859D01*
X148302141Y-105006642D01*
X148430058Y-105092113D01*
X148572191Y-105150987D01*
X148723078Y-105181000D01*
X148876922Y-105181000D01*
X149027809Y-105150987D01*
X149169942Y-105092113D01*
X149297859Y-105006642D01*
X149406642Y-104897859D01*
X149492113Y-104769942D01*
X149550987Y-104627809D01*
X149581000Y-104476922D01*
X149581000Y-104323078D01*
X150644000Y-104323078D01*
X150644000Y-104476922D01*
X150674013Y-104627809D01*
X150732887Y-104769942D01*
X150818358Y-104897859D01*
X150927141Y-105006642D01*
X151055058Y-105092113D01*
X151197191Y-105150987D01*
X151348078Y-105181000D01*
X151501922Y-105181000D01*
X151652809Y-105150987D01*
X151794942Y-105092113D01*
X151922859Y-105006642D01*
X152031642Y-104897859D01*
X152117113Y-104769942D01*
X152175987Y-104627809D01*
X152206000Y-104476922D01*
X152206000Y-104323078D01*
X152175987Y-104172191D01*
X152117113Y-104030058D01*
X152109266Y-104018315D01*
X152161318Y-104013188D01*
X152393363Y-103942798D01*
X152607216Y-103828491D01*
X152794660Y-103674660D01*
X152948491Y-103487216D01*
X153062798Y-103273363D01*
X153133188Y-103041318D01*
X153156956Y-102800000D01*
X153223044Y-102800000D01*
X153246812Y-103041318D01*
X153317202Y-103273363D01*
X153431509Y-103487216D01*
X153585340Y-103674660D01*
X153672605Y-103746276D01*
X153602141Y-103793358D01*
X153493358Y-103902141D01*
X153407887Y-104030058D01*
X153349013Y-104172191D01*
X153319000Y-104323078D01*
X153319000Y-104476922D01*
X153349013Y-104627809D01*
X153407887Y-104769942D01*
X153493358Y-104897859D01*
X153602141Y-105006642D01*
X153730058Y-105092113D01*
X153872191Y-105150987D01*
X154023078Y-105181000D01*
X154176922Y-105181000D01*
X154327809Y-105150987D01*
X154469942Y-105092113D01*
X154597859Y-105006642D01*
X154706642Y-104897859D01*
X154792113Y-104769942D01*
X154850987Y-104627809D01*
X154881000Y-104476922D01*
X154881000Y-104323078D01*
X154850987Y-104172191D01*
X154792113Y-104030058D01*
X154767439Y-103993130D01*
X154933363Y-103942798D01*
X155147216Y-103828491D01*
X155334660Y-103674660D01*
X155488491Y-103487216D01*
X155602798Y-103273363D01*
X155673188Y-103041318D01*
X155696956Y-102800000D01*
X155673188Y-102558682D01*
X155602798Y-102326637D01*
X155488491Y-102112784D01*
X155334660Y-101925340D01*
X155147216Y-101771509D01*
X154933363Y-101657202D01*
X154701318Y-101586812D01*
X154520472Y-101569000D01*
X154399528Y-101569000D01*
X154218682Y-101586812D01*
X153986637Y-101657202D01*
X153772784Y-101771509D01*
X153585340Y-101925340D01*
X153431509Y-102112784D01*
X153317202Y-102326637D01*
X153246812Y-102558682D01*
X153223044Y-102800000D01*
X153156956Y-102800000D01*
X153133188Y-102558682D01*
X153062798Y-102326637D01*
X152948491Y-102112784D01*
X152794660Y-101925340D01*
X152607216Y-101771509D01*
X152393363Y-101657202D01*
X152161318Y-101586812D01*
X151980472Y-101569000D01*
X151859528Y-101569000D01*
X151678682Y-101586812D01*
X151446637Y-101657202D01*
X151232784Y-101771509D01*
X151045340Y-101925340D01*
X150891509Y-102112784D01*
X150777202Y-102326637D01*
X150706812Y-102558682D01*
X150683044Y-102800000D01*
X150706812Y-103041318D01*
X150777202Y-103273363D01*
X150891509Y-103487216D01*
X151045340Y-103674660D01*
X151075506Y-103699417D01*
X151055058Y-103707887D01*
X150927141Y-103793358D01*
X150818358Y-103902141D01*
X150732887Y-104030058D01*
X150674013Y-104172191D01*
X150644000Y-104323078D01*
X149581000Y-104323078D01*
X149550987Y-104172191D01*
X149492113Y-104030058D01*
X149489515Y-104026170D01*
X149621318Y-104013188D01*
X149853363Y-103942798D01*
X150067216Y-103828491D01*
X150254660Y-103674660D01*
X150408491Y-103487216D01*
X150522798Y-103273363D01*
X150593188Y-103041318D01*
X150616956Y-102800000D01*
X150593188Y-102558682D01*
X150522798Y-102326637D01*
X150408491Y-102112784D01*
X150254660Y-101925340D01*
X150067216Y-101771509D01*
X149853363Y-101657202D01*
X149621318Y-101586812D01*
X149440472Y-101569000D01*
X149319528Y-101569000D01*
X149138682Y-101586812D01*
X148906637Y-101657202D01*
X148692784Y-101771509D01*
X148505340Y-101925340D01*
X148351509Y-102112784D01*
X148237202Y-102326637D01*
X148166812Y-102558682D01*
X148143044Y-102800000D01*
X148166812Y-103041318D01*
X148237202Y-103273363D01*
X148351509Y-103487216D01*
X148505340Y-103674660D01*
X148506995Y-103676018D01*
X148430058Y-103707887D01*
X148302141Y-103793358D01*
X148193358Y-103902141D01*
X148107887Y-104030058D01*
X148049013Y-104172191D01*
X148019000Y-104323078D01*
X109915380Y-104323078D01*
X109921799Y-104319647D01*
X110005688Y-104065293D01*
X109120000Y-103179605D01*
X108234312Y-104065293D01*
X100406000Y-104065293D01*
X100406000Y-103066486D01*
X107577297Y-103066486D01*
X107619910Y-103366175D01*
X107720171Y-103651792D01*
X107800353Y-103801799D01*
X108054707Y-103885688D01*
X108940395Y-103000000D01*
X109299605Y-103000000D01*
X110185293Y-103885688D01*
X110439647Y-103801799D01*
X110570714Y-103528942D01*
X110646030Y-103235759D01*
X110662703Y-102933514D01*
X110654194Y-102873665D01*
X112917300Y-102873665D01*
X112917300Y-103126335D01*
X112966594Y-103374150D01*
X113063286Y-103607586D01*
X113203662Y-103817673D01*
X113382327Y-103996338D01*
X113592414Y-104136714D01*
X113825850Y-104233406D01*
X114073665Y-104282700D01*
X114326335Y-104282700D01*
X114574150Y-104233406D01*
X114807586Y-104136714D01*
X115017673Y-103996338D01*
X115196338Y-103817673D01*
X115336714Y-103607586D01*
X115433406Y-103374150D01*
X115482700Y-103126335D01*
X115482700Y-102927000D01*
X120165000Y-102927000D01*
X120165000Y-103202000D01*
X120213507Y-103440496D01*
X120307610Y-103664946D01*
X120443693Y-103866725D01*
X120616526Y-104038078D01*
X120819467Y-104172421D01*
X121044718Y-104264591D01*
X121082391Y-104268462D01*
X121273000Y-104143731D01*
X121273000Y-102927000D01*
X120165000Y-102927000D01*
X115482700Y-102927000D01*
X115482700Y-102873665D01*
X115433406Y-102625850D01*
X115339028Y-102398000D01*
X120165000Y-102398000D01*
X120165000Y-102673000D01*
X121273000Y-102673000D01*
X121273000Y-101456269D01*
X121527000Y-101456269D01*
X121527000Y-102673000D01*
X121547000Y-102673000D01*
X121547000Y-102927000D01*
X121527000Y-102927000D01*
X121527000Y-104143731D01*
X121717609Y-104268462D01*
X121755282Y-104264591D01*
X121980533Y-104172421D01*
X122183474Y-104038078D01*
X122356307Y-103866725D01*
X122476628Y-103688318D01*
X122523810Y-103776589D01*
X122602512Y-103872488D01*
X122698411Y-103951190D01*
X122807821Y-104009671D01*
X122926538Y-104045683D01*
X123049999Y-104057843D01*
X123750001Y-104057843D01*
X123873462Y-104045683D01*
X123992179Y-104009671D01*
X124101589Y-103951190D01*
X124197488Y-103872488D01*
X124276190Y-103776589D01*
X124334671Y-103667179D01*
X124370683Y-103548462D01*
X124382843Y-103425001D01*
X124382843Y-102174999D01*
X124370683Y-102051538D01*
X124339883Y-101950000D01*
X130367157Y-101950000D01*
X130367157Y-103650000D01*
X130374513Y-103724689D01*
X130396299Y-103796508D01*
X130431678Y-103862696D01*
X130479289Y-103920711D01*
X130537304Y-103968322D01*
X130603492Y-104003701D01*
X130675311Y-104025487D01*
X130750000Y-104032843D01*
X132450000Y-104032843D01*
X132524689Y-104025487D01*
X132596508Y-104003701D01*
X132662696Y-103968322D01*
X132720711Y-103920711D01*
X132768322Y-103862696D01*
X132803701Y-103796508D01*
X132825487Y-103724689D01*
X132832843Y-103650000D01*
X132832843Y-103493367D01*
X132944822Y-103681355D01*
X133139731Y-103897588D01*
X133373080Y-104071641D01*
X133635901Y-104196825D01*
X133783110Y-104241476D01*
X134013000Y-104120155D01*
X134013000Y-102927000D01*
X133993000Y-102927000D01*
X133993000Y-102673000D01*
X134013000Y-102673000D01*
X134013000Y-101479845D01*
X134267000Y-101479845D01*
X134267000Y-102673000D01*
X134287000Y-102673000D01*
X134287000Y-102927000D01*
X134267000Y-102927000D01*
X134267000Y-104120155D01*
X134496890Y-104241476D01*
X134644099Y-104196825D01*
X134906920Y-104071641D01*
X135140269Y-103897588D01*
X135335178Y-103681355D01*
X135484157Y-103431252D01*
X135538983Y-103276695D01*
X135651509Y-103487216D01*
X135805340Y-103674660D01*
X135992784Y-103828491D01*
X136206637Y-103942798D01*
X136438682Y-104013188D01*
X136619528Y-104031000D01*
X136740472Y-104031000D01*
X136921318Y-104013188D01*
X137153363Y-103942798D01*
X137367216Y-103828491D01*
X137554660Y-103674660D01*
X137708491Y-103487216D01*
X137822798Y-103273363D01*
X137893188Y-103041318D01*
X137916956Y-102800000D01*
X137983044Y-102800000D01*
X138006812Y-103041318D01*
X138077202Y-103273363D01*
X138191509Y-103487216D01*
X138345340Y-103674660D01*
X138532784Y-103828491D01*
X138746637Y-103942798D01*
X138978682Y-104013188D01*
X139159528Y-104031000D01*
X139280472Y-104031000D01*
X139461318Y-104013188D01*
X139693363Y-103942798D01*
X139907216Y-103828491D01*
X140094660Y-103674660D01*
X140248491Y-103487216D01*
X140362798Y-103273363D01*
X140433188Y-103041318D01*
X140456956Y-102800000D01*
X140523044Y-102800000D01*
X140546812Y-103041318D01*
X140617202Y-103273363D01*
X140731509Y-103487216D01*
X140885340Y-103674660D01*
X141072784Y-103828491D01*
X141286637Y-103942798D01*
X141518682Y-104013188D01*
X141699528Y-104031000D01*
X141820472Y-104031000D01*
X142001318Y-104013188D01*
X142233363Y-103942798D01*
X142447216Y-103828491D01*
X142634660Y-103674660D01*
X142788491Y-103487216D01*
X142902798Y-103273363D01*
X142973188Y-103041318D01*
X142996956Y-102800000D01*
X143063044Y-102800000D01*
X143086812Y-103041318D01*
X143157202Y-103273363D01*
X143271509Y-103487216D01*
X143425340Y-103674660D01*
X143612784Y-103828491D01*
X143826637Y-103942798D01*
X144058682Y-104013188D01*
X144239528Y-104031000D01*
X144360472Y-104031000D01*
X144541318Y-104013188D01*
X144773363Y-103942798D01*
X144987216Y-103828491D01*
X145174660Y-103674660D01*
X145328491Y-103487216D01*
X145442798Y-103273363D01*
X145513188Y-103041318D01*
X145536956Y-102800000D01*
X145603044Y-102800000D01*
X145626812Y-103041318D01*
X145697202Y-103273363D01*
X145811509Y-103487216D01*
X145965340Y-103674660D01*
X146152784Y-103828491D01*
X146366637Y-103942798D01*
X146598682Y-104013188D01*
X146779528Y-104031000D01*
X146900472Y-104031000D01*
X147081318Y-104013188D01*
X147313363Y-103942798D01*
X147527216Y-103828491D01*
X147714660Y-103674660D01*
X147868491Y-103487216D01*
X147982798Y-103273363D01*
X148053188Y-103041318D01*
X148076956Y-102800000D01*
X148053188Y-102558682D01*
X147982798Y-102326637D01*
X147868491Y-102112784D01*
X147714660Y-101925340D01*
X147527216Y-101771509D01*
X147313363Y-101657202D01*
X147081318Y-101586812D01*
X146900472Y-101569000D01*
X146779528Y-101569000D01*
X146598682Y-101586812D01*
X146366637Y-101657202D01*
X146152784Y-101771509D01*
X145965340Y-101925340D01*
X145811509Y-102112784D01*
X145697202Y-102326637D01*
X145626812Y-102558682D01*
X145603044Y-102800000D01*
X145536956Y-102800000D01*
X145513188Y-102558682D01*
X145442798Y-102326637D01*
X145328491Y-102112784D01*
X145174660Y-101925340D01*
X144987216Y-101771509D01*
X144773363Y-101657202D01*
X144541318Y-101586812D01*
X144360472Y-101569000D01*
X144239528Y-101569000D01*
X144058682Y-101586812D01*
X143826637Y-101657202D01*
X143612784Y-101771509D01*
X143425340Y-101925340D01*
X143271509Y-102112784D01*
X143157202Y-102326637D01*
X143086812Y-102558682D01*
X143063044Y-102800000D01*
X142996956Y-102800000D01*
X142973188Y-102558682D01*
X142902798Y-102326637D01*
X142788491Y-102112784D01*
X142634660Y-101925340D01*
X142447216Y-101771509D01*
X142233363Y-101657202D01*
X142001318Y-101586812D01*
X141820472Y-101569000D01*
X141699528Y-101569000D01*
X141518682Y-101586812D01*
X141286637Y-101657202D01*
X141072784Y-101771509D01*
X140885340Y-101925340D01*
X140731509Y-102112784D01*
X140617202Y-102326637D01*
X140546812Y-102558682D01*
X140523044Y-102800000D01*
X140456956Y-102800000D01*
X140433188Y-102558682D01*
X140362798Y-102326637D01*
X140248491Y-102112784D01*
X140094660Y-101925340D01*
X139907216Y-101771509D01*
X139693363Y-101657202D01*
X139461318Y-101586812D01*
X139280472Y-101569000D01*
X139159528Y-101569000D01*
X138978682Y-101586812D01*
X138746637Y-101657202D01*
X138532784Y-101771509D01*
X138345340Y-101925340D01*
X138191509Y-102112784D01*
X138077202Y-102326637D01*
X138006812Y-102558682D01*
X137983044Y-102800000D01*
X137916956Y-102800000D01*
X137893188Y-102558682D01*
X137822798Y-102326637D01*
X137708491Y-102112784D01*
X137554660Y-101925340D01*
X137367216Y-101771509D01*
X137153363Y-101657202D01*
X136921318Y-101586812D01*
X136740472Y-101569000D01*
X136619528Y-101569000D01*
X136438682Y-101586812D01*
X136206637Y-101657202D01*
X135992784Y-101771509D01*
X135805340Y-101925340D01*
X135651509Y-102112784D01*
X135538983Y-102323305D01*
X135484157Y-102168748D01*
X135335178Y-101918645D01*
X135140269Y-101702412D01*
X134906920Y-101528359D01*
X134644099Y-101403175D01*
X134496890Y-101358524D01*
X134267000Y-101479845D01*
X134013000Y-101479845D01*
X133783110Y-101358524D01*
X133635901Y-101403175D01*
X133373080Y-101528359D01*
X133139731Y-101702412D01*
X132944822Y-101918645D01*
X132832843Y-102106633D01*
X132832843Y-101950000D01*
X132825487Y-101875311D01*
X132803701Y-101803492D01*
X132768322Y-101737304D01*
X132720711Y-101679289D01*
X132662696Y-101631678D01*
X132596508Y-101596299D01*
X132524689Y-101574513D01*
X132450000Y-101567157D01*
X130750000Y-101567157D01*
X130675311Y-101574513D01*
X130603492Y-101596299D01*
X130537304Y-101631678D01*
X130479289Y-101679289D01*
X130431678Y-101737304D01*
X130396299Y-101803492D01*
X130374513Y-101875311D01*
X130367157Y-101950000D01*
X124339883Y-101950000D01*
X124334671Y-101932821D01*
X124276190Y-101823411D01*
X124197488Y-101727512D01*
X124101589Y-101648810D01*
X123992179Y-101590329D01*
X123873462Y-101554317D01*
X123750001Y-101542157D01*
X123049999Y-101542157D01*
X122926538Y-101554317D01*
X122807821Y-101590329D01*
X122698411Y-101648810D01*
X122602512Y-101727512D01*
X122523810Y-101823411D01*
X122476628Y-101911682D01*
X122356307Y-101733275D01*
X122183474Y-101561922D01*
X121980533Y-101427579D01*
X121755282Y-101335409D01*
X121717609Y-101331538D01*
X121527000Y-101456269D01*
X121273000Y-101456269D01*
X121082391Y-101331538D01*
X121044718Y-101335409D01*
X120819467Y-101427579D01*
X120616526Y-101561922D01*
X120443693Y-101733275D01*
X120307610Y-101935054D01*
X120213507Y-102159504D01*
X120165000Y-102398000D01*
X115339028Y-102398000D01*
X115336714Y-102392414D01*
X115196338Y-102182327D01*
X115017673Y-102003662D01*
X114807586Y-101863286D01*
X114574150Y-101766594D01*
X114326335Y-101717300D01*
X114073665Y-101717300D01*
X113825850Y-101766594D01*
X113592414Y-101863286D01*
X113382327Y-102003662D01*
X113203662Y-102182327D01*
X113063286Y-102392414D01*
X112966594Y-102625850D01*
X112917300Y-102873665D01*
X110654194Y-102873665D01*
X110620090Y-102633825D01*
X110519829Y-102348208D01*
X110439647Y-102198201D01*
X110185293Y-102114312D01*
X109299605Y-103000000D01*
X108940395Y-103000000D01*
X108054707Y-102114312D01*
X107800353Y-102198201D01*
X107669286Y-102471058D01*
X107593970Y-102764241D01*
X107577297Y-103066486D01*
X100406000Y-103066486D01*
X100406000Y-101934707D01*
X108234312Y-101934707D01*
X109120000Y-102820395D01*
X110005688Y-101934707D01*
X109921799Y-101680353D01*
X109648942Y-101549286D01*
X109355759Y-101473970D01*
X109053514Y-101457297D01*
X108753825Y-101499910D01*
X108468208Y-101600171D01*
X108318201Y-101680353D01*
X108234312Y-101934707D01*
X100406000Y-101934707D01*
X100406000Y-100406000D01*
X169594000Y-100406000D01*
X169594001Y-137594000D01*
X169594001Y-137594000D01*
G37*
X169594001Y-137594000D02*
X100406000Y-137594000D01*
X100406000Y-134178757D01*
X100769000Y-134178757D01*
X100769000Y-134421243D01*
X100816307Y-134659069D01*
X100909102Y-134883097D01*
X101043820Y-135084717D01*
X101215283Y-135256180D01*
X101416903Y-135390898D01*
X101640931Y-135483693D01*
X101878757Y-135531000D01*
X102121243Y-135531000D01*
X102359069Y-135483693D01*
X102551142Y-135404134D01*
X103019000Y-135404134D01*
X103019000Y-135695866D01*
X103075914Y-135981992D01*
X103187555Y-136251517D01*
X103349632Y-136494083D01*
X103555917Y-136700368D01*
X103798483Y-136862445D01*
X104068008Y-136974086D01*
X104354134Y-137031000D01*
X104645866Y-137031000D01*
X104931992Y-136974086D01*
X105201517Y-136862445D01*
X105444083Y-136700368D01*
X105650368Y-136494083D01*
X105812445Y-136251517D01*
X105924086Y-135981992D01*
X105981000Y-135695866D01*
X105981000Y-135404134D01*
X105944986Y-135223078D01*
X118319000Y-135223078D01*
X118319000Y-135376922D01*
X118349013Y-135527809D01*
X118407887Y-135669942D01*
X118493358Y-135797859D01*
X118602141Y-135906642D01*
X118730058Y-135992113D01*
X118872191Y-136050987D01*
X119023078Y-136081000D01*
X119176922Y-136081000D01*
X119327809Y-136050987D01*
X119469942Y-135992113D01*
X119597859Y-135906642D01*
X119706642Y-135797859D01*
X119792113Y-135669942D01*
X119850987Y-135527809D01*
X119881000Y-135376922D01*
X119881000Y-135223078D01*
X119850987Y-135072191D01*
X119792113Y-134930058D01*
X119706642Y-134802141D01*
X119597859Y-134693358D01*
X119469942Y-134607887D01*
X119327809Y-134549013D01*
X119176922Y-134519000D01*
X119023078Y-134519000D01*
X118872191Y-134549013D01*
X118730058Y-134607887D01*
X118602141Y-134693358D01*
X118493358Y-134802141D01*
X118407887Y-134930058D01*
X118349013Y-135072191D01*
X118319000Y-135223078D01*
X105944986Y-135223078D01*
X105924086Y-135118008D01*
X105812445Y-134848483D01*
X105650368Y-134605917D01*
X105444083Y-134399632D01*
X105201517Y-134237555D01*
X104931992Y-134125914D01*
X104645866Y-134069000D01*
X104354134Y-134069000D01*
X104068008Y-134125914D01*
X103798483Y-134237555D01*
X103555917Y-134399632D01*
X103349632Y-134605917D01*
X103187555Y-134848483D01*
X103075914Y-135118008D01*
X103019000Y-135404134D01*
X102551142Y-135404134D01*
X102583097Y-135390898D01*
X102784717Y-135256180D01*
X102956180Y-135084717D01*
X103090898Y-134883097D01*
X103183693Y-134659069D01*
X103231000Y-134421243D01*
X103231000Y-134178757D01*
X103183693Y-133940931D01*
X103090898Y-133716903D01*
X102956180Y-133515283D01*
X102784717Y-133343820D01*
X102583097Y-133209102D01*
X102359069Y-133116307D01*
X102121243Y-133069000D01*
X101878757Y-133069000D01*
X101640931Y-133116307D01*
X101416903Y-133209102D01*
X101215283Y-133343820D01*
X101043820Y-133515283D01*
X100909102Y-133716903D01*
X100816307Y-133940931D01*
X100769000Y-134178757D01*
X100406000Y-134178757D01*
X100406000Y-132450000D01*
X106867157Y-132450000D01*
X106867157Y-134150000D01*
X106874513Y-134224689D01*
X106896299Y-134296508D01*
X106931678Y-134362696D01*
X106979289Y-134420711D01*
X107037304Y-134468322D01*
X107103492Y-134503701D01*
X107175311Y-134525487D01*
X107250000Y-134532843D01*
X108950000Y-134532843D01*
X109024689Y-134525487D01*
X109096508Y-134503701D01*
X109162696Y-134468322D01*
X109220711Y-134420711D01*
X109268322Y-134362696D01*
X109303701Y-134296508D01*
X109325487Y-134224689D01*
X109332843Y-134150000D01*
X109332843Y-133223078D01*
X131119000Y-133223078D01*
X131119000Y-133376922D01*
X131149013Y-133527809D01*
X131207887Y-133669942D01*
X131293358Y-133797859D01*
X131402141Y-133906642D01*
X131530058Y-133992113D01*
X131672191Y-134050987D01*
X131823078Y-134081000D01*
X131976922Y-134081000D01*
X132127809Y-134050987D01*
X132269942Y-133992113D01*
X132397859Y-133906642D01*
X132506642Y-133797859D01*
X132592113Y-133669942D01*
X132650987Y-133527809D01*
X132681000Y-133376922D01*
X132681000Y-133223078D01*
X132650987Y-133072191D01*
X132592113Y-132930058D01*
X132506642Y-132802141D01*
X132397859Y-132693358D01*
X132269942Y-132607887D01*
X132127809Y-132549013D01*
X131976922Y-132519000D01*
X131823078Y-132519000D01*
X131672191Y-132549013D01*
X131530058Y-132607887D01*
X131402141Y-132693358D01*
X131293358Y-132802141D01*
X131207887Y-132930058D01*
X131149013Y-133072191D01*
X131119000Y-133223078D01*
X109332843Y-133223078D01*
X109332843Y-132450000D01*
X109325487Y-132375311D01*
X109303701Y-132303492D01*
X109268322Y-132237304D01*
X109220711Y-132179289D01*
X109162696Y-132131678D01*
X109096508Y-132096299D01*
X109024689Y-132074513D01*
X108950000Y-132067157D01*
X107250000Y-132067157D01*
X107175311Y-132074513D01*
X107103492Y-132096299D01*
X107037304Y-132131678D01*
X106979289Y-132179289D01*
X106931678Y-132237304D01*
X106896299Y-132303492D01*
X106874513Y-132375311D01*
X106867157Y-132450000D01*
X100406000Y-132450000D01*
X100406000Y-129678757D01*
X100769000Y-129678757D01*
X100769000Y-129921243D01*
X100816307Y-130159069D01*
X100909102Y-130383097D01*
X101043820Y-130584717D01*
X101215283Y-130756180D01*
X101416903Y-130890898D01*
X101640931Y-130983693D01*
X101878757Y-131031000D01*
X102121243Y-131031000D01*
X102359069Y-130983693D01*
X102583097Y-130890898D01*
X102778999Y-130760000D01*
X106863044Y-130760000D01*
X106886812Y-131001318D01*
X106957202Y-131233363D01*
X107071509Y-131447216D01*
X107225340Y-131634660D01*
X107412784Y-131788491D01*
X107626637Y-131902798D01*
X107858682Y-131973188D01*
X108039528Y-131991000D01*
X108160472Y-131991000D01*
X108341318Y-131973188D01*
X108573363Y-131902798D01*
X108787216Y-131788491D01*
X108974660Y-131634660D01*
X109128491Y-131447216D01*
X109242798Y-131233363D01*
X109313188Y-131001318D01*
X109336956Y-130760000D01*
X109313188Y-130518682D01*
X109242798Y-130286637D01*
X109128491Y-130072784D01*
X108974660Y-129885340D01*
X108787216Y-129731509D01*
X108573363Y-129617202D01*
X108341318Y-129546812D01*
X108160472Y-129529000D01*
X108039528Y-129529000D01*
X107858682Y-129546812D01*
X107626637Y-129617202D01*
X107412784Y-129731509D01*
X107225340Y-129885340D01*
X107071509Y-130072784D01*
X106957202Y-130286637D01*
X106886812Y-130518682D01*
X106863044Y-130760000D01*
X102778999Y-130760000D01*
X102784717Y-130756180D01*
X102956180Y-130584717D01*
X103090898Y-130383097D01*
X103183693Y-130159069D01*
X103231000Y-129921243D01*
X103231000Y-129678757D01*
X103183693Y-129440931D01*
X103090898Y-129216903D01*
X102956180Y-129015283D01*
X102784717Y-128843820D01*
X102583097Y-128709102D01*
X102359069Y-128616307D01*
X102121243Y-128569000D01*
X101878757Y-128569000D01*
X101640931Y-128616307D01*
X101416903Y-128709102D01*
X101215283Y-128843820D01*
X101043820Y-129015283D01*
X100909102Y-129216903D01*
X100816307Y-129440931D01*
X100769000Y-129678757D01*
X100406000Y-129678757D01*
X100406000Y-128404134D01*
X103019000Y-128404134D01*
X103019000Y-128695866D01*
X103075914Y-128981992D01*
X103187555Y-129251517D01*
X103349632Y-129494083D01*
X103555917Y-129700368D01*
X103798483Y-129862445D01*
X104068008Y-129974086D01*
X104354134Y-130031000D01*
X104645866Y-130031000D01*
X104931992Y-129974086D01*
X105201517Y-129862445D01*
X105444083Y-129700368D01*
X105650368Y-129494083D01*
X105812445Y-129251517D01*
X105924086Y-128981992D01*
X105981000Y-128695866D01*
X105981000Y-128404134D01*
X105924086Y-128118008D01*
X105812445Y-127848483D01*
X105650368Y-127605917D01*
X105544451Y-127500000D01*
X110717157Y-127500000D01*
X110717157Y-129500000D01*
X110724513Y-129574689D01*
X110746299Y-129646508D01*
X110781678Y-129712696D01*
X110829289Y-129770711D01*
X110887304Y-129818322D01*
X110953492Y-129853701D01*
X111025311Y-129875487D01*
X111100000Y-129882843D01*
X113100000Y-129882843D01*
X113174689Y-129875487D01*
X113246508Y-129853701D01*
X113312696Y-129818322D01*
X113370711Y-129770711D01*
X113418322Y-129712696D01*
X113453701Y-129646508D01*
X113475487Y-129574689D01*
X113482843Y-129500000D01*
X113482843Y-128299964D01*
X137234000Y-128299964D01*
X137234000Y-128700036D01*
X137312050Y-129092421D01*
X137465151Y-129462039D01*
X137687419Y-129794687D01*
X137970313Y-130077581D01*
X138302961Y-130299849D01*
X138672579Y-130452950D01*
X139064964Y-130531000D01*
X139465036Y-130531000D01*
X139857421Y-130452950D01*
X140227039Y-130299849D01*
X140559687Y-130077581D01*
X140842581Y-129794687D01*
X141064849Y-129462039D01*
X141217950Y-129092421D01*
X141296000Y-128700036D01*
X141296000Y-128299964D01*
X141217950Y-127907579D01*
X141213222Y-127896164D01*
X145577784Y-127896164D01*
X145581826Y-128084827D01*
X145742974Y-128151328D01*
X145913998Y-128185113D01*
X146088328Y-128184884D01*
X146259264Y-128150649D01*
X146418174Y-128084827D01*
X146422216Y-127896164D01*
X146000000Y-127473948D01*
X145577784Y-127896164D01*
X141213222Y-127896164D01*
X141064849Y-127537961D01*
X140848385Y-127213998D01*
X145114887Y-127213998D01*
X145115116Y-127388328D01*
X145149351Y-127559264D01*
X145215173Y-127718174D01*
X145403836Y-127722216D01*
X145826052Y-127300000D01*
X145403836Y-126877784D01*
X145215173Y-126881826D01*
X145148672Y-127042974D01*
X145114887Y-127213998D01*
X140848385Y-127213998D01*
X140842581Y-127205313D01*
X140559687Y-126922419D01*
X140227039Y-126700151D01*
X139857421Y-126547050D01*
X139465036Y-126469000D01*
X139064964Y-126469000D01*
X138672579Y-126547050D01*
X138302961Y-126700151D01*
X137970313Y-126922419D01*
X137687419Y-127205313D01*
X137465151Y-127537961D01*
X137312050Y-127907579D01*
X137234000Y-128299964D01*
X113482843Y-128299964D01*
X113482843Y-127500000D01*
X113475487Y-127425311D01*
X113453701Y-127353492D01*
X113418322Y-127287304D01*
X113370711Y-127229289D01*
X113312696Y-127181678D01*
X113246508Y-127146299D01*
X113174689Y-127124513D01*
X113100000Y-127117157D01*
X111100000Y-127117157D01*
X111025311Y-127124513D01*
X110953492Y-127146299D01*
X110887304Y-127181678D01*
X110829289Y-127229289D01*
X110781678Y-127287304D01*
X110746299Y-127353492D01*
X110724513Y-127425311D01*
X110717157Y-127500000D01*
X105544451Y-127500000D01*
X105444083Y-127399632D01*
X105201517Y-127237555D01*
X104931992Y-127125914D01*
X104645866Y-127069000D01*
X104354134Y-127069000D01*
X104068008Y-127125914D01*
X103798483Y-127237555D01*
X103555917Y-127399632D01*
X103349632Y-127605917D01*
X103187555Y-127848483D01*
X103075914Y-128118008D01*
X103019000Y-128404134D01*
X100406000Y-128404134D01*
X100406000Y-126113998D01*
X145114887Y-126113998D01*
X145115116Y-126288328D01*
X145149351Y-126459264D01*
X145215173Y-126618174D01*
X145403836Y-126622216D01*
X145826052Y-126200000D01*
X145403836Y-125777784D01*
X145215173Y-125781826D01*
X145148672Y-125942974D01*
X145114887Y-126113998D01*
X100406000Y-126113998D01*
X100406000Y-125603836D01*
X145577784Y-125603836D01*
X145623948Y-125650000D01*
X145577784Y-125696164D01*
X145581826Y-125884827D01*
X145742974Y-125951328D01*
X145913998Y-125985113D01*
X145959002Y-125985054D01*
X146000000Y-126026052D01*
X146041106Y-125984946D01*
X146088328Y-125984884D01*
X146246657Y-125953174D01*
X146214887Y-126113998D01*
X146214946Y-126159002D01*
X146173948Y-126200000D01*
X146215054Y-126241106D01*
X146215116Y-126288328D01*
X146246826Y-126446657D01*
X146086002Y-126414887D01*
X146040998Y-126414946D01*
X146000000Y-126373948D01*
X145958894Y-126415054D01*
X145911672Y-126415116D01*
X145740736Y-126449351D01*
X145581826Y-126515173D01*
X145577784Y-126703836D01*
X145623948Y-126750000D01*
X145577784Y-126796164D01*
X145581826Y-126984827D01*
X145742974Y-127051328D01*
X145913998Y-127085113D01*
X145959002Y-127085054D01*
X146000000Y-127126052D01*
X146041106Y-127084946D01*
X146088328Y-127084884D01*
X146246657Y-127053174D01*
X146214887Y-127213998D01*
X146214946Y-127259002D01*
X146173948Y-127300000D01*
X146215054Y-127341106D01*
X146215116Y-127388328D01*
X146249351Y-127559264D01*
X146315173Y-127718174D01*
X146503836Y-127722216D01*
X146550000Y-127676052D01*
X146596164Y-127722216D01*
X146784827Y-127718174D01*
X146851328Y-127557026D01*
X146885113Y-127386002D01*
X146885054Y-127340998D01*
X146926052Y-127300000D01*
X146884946Y-127258894D01*
X146884884Y-127211672D01*
X146853174Y-127053343D01*
X147013998Y-127085113D01*
X147059002Y-127085054D01*
X147100000Y-127126052D01*
X147141106Y-127084946D01*
X147188328Y-127084884D01*
X147346657Y-127053174D01*
X147314887Y-127213998D01*
X147314946Y-127259002D01*
X147273948Y-127300000D01*
X147290919Y-127316971D01*
X147116971Y-127490919D01*
X147100000Y-127473948D01*
X146677784Y-127896164D01*
X146681826Y-128084827D01*
X146842974Y-128151328D01*
X147013998Y-128185113D01*
X147188328Y-128184884D01*
X147359264Y-128150649D01*
X147505367Y-128090132D01*
X147493358Y-128102141D01*
X147407887Y-128230058D01*
X147349013Y-128372191D01*
X147319000Y-128523078D01*
X147319000Y-128676922D01*
X147349013Y-128827809D01*
X147407887Y-128969942D01*
X147493358Y-129097859D01*
X147602141Y-129206642D01*
X147730058Y-129292113D01*
X147872191Y-129350987D01*
X148023078Y-129381000D01*
X148176922Y-129381000D01*
X148327809Y-129350987D01*
X148469942Y-129292113D01*
X148597859Y-129206642D01*
X148706642Y-129097859D01*
X148792113Y-128969942D01*
X148850987Y-128827809D01*
X148881000Y-128676922D01*
X148881000Y-128523078D01*
X148850987Y-128372191D01*
X148792113Y-128230058D01*
X148706642Y-128102141D01*
X148619666Y-128015165D01*
X148622216Y-127896164D01*
X148200000Y-127473948D01*
X147791519Y-127882429D01*
X147762187Y-127894579D01*
X147818187Y-127838579D01*
X147701705Y-127722097D01*
X147884827Y-127718174D01*
X147951328Y-127557026D01*
X147985113Y-127386002D01*
X147985054Y-127340998D01*
X148026052Y-127300000D01*
X148373948Y-127300000D01*
X148796164Y-127722216D01*
X148971267Y-127718465D01*
X148949013Y-127772191D01*
X148919000Y-127923078D01*
X148919000Y-128076922D01*
X148949013Y-128227809D01*
X149007887Y-128369942D01*
X149093358Y-128497859D01*
X149202141Y-128606642D01*
X149330058Y-128692113D01*
X149472191Y-128750987D01*
X149623078Y-128781000D01*
X149776922Y-128781000D01*
X149927809Y-128750987D01*
X150069942Y-128692113D01*
X150197859Y-128606642D01*
X150306642Y-128497859D01*
X150392113Y-128369942D01*
X150450987Y-128227809D01*
X150481000Y-128076922D01*
X150481000Y-127923078D01*
X150450987Y-127772191D01*
X150430644Y-127723078D01*
X151419000Y-127723078D01*
X151419000Y-127876922D01*
X151449013Y-128027809D01*
X151507887Y-128169942D01*
X151593358Y-128297859D01*
X151702141Y-128406642D01*
X151830058Y-128492113D01*
X151972191Y-128550987D01*
X152123078Y-128581000D01*
X152276922Y-128581000D01*
X152427809Y-128550987D01*
X152569942Y-128492113D01*
X152697859Y-128406642D01*
X152806642Y-128297859D01*
X152892113Y-128169942D01*
X152950987Y-128027809D01*
X152981000Y-127876922D01*
X152981000Y-127723078D01*
X152950987Y-127572191D01*
X152892113Y-127430058D01*
X152806642Y-127302141D01*
X152697859Y-127193358D01*
X152569942Y-127107887D01*
X152427809Y-127049013D01*
X152276922Y-127019000D01*
X152123078Y-127019000D01*
X151972191Y-127049013D01*
X151830058Y-127107887D01*
X151702141Y-127193358D01*
X151593358Y-127302141D01*
X151507887Y-127430058D01*
X151449013Y-127572191D01*
X151419000Y-127723078D01*
X150430644Y-127723078D01*
X150392113Y-127630058D01*
X150306642Y-127502141D01*
X150197859Y-127393358D01*
X150069942Y-127307887D01*
X149927809Y-127249013D01*
X149776922Y-127219000D01*
X149623078Y-127219000D01*
X149472191Y-127249013D01*
X149330058Y-127307887D01*
X149202141Y-127393358D01*
X149093358Y-127502141D01*
X149042676Y-127577993D01*
X149051328Y-127557026D01*
X149085113Y-127386002D01*
X149084884Y-127211672D01*
X149050649Y-127040736D01*
X148984827Y-126881826D01*
X148796164Y-126877784D01*
X148373948Y-127300000D01*
X148026052Y-127300000D01*
X147984946Y-127258894D01*
X147984884Y-127211672D01*
X147953174Y-127053343D01*
X148113998Y-127085113D01*
X148159002Y-127085054D01*
X148200000Y-127126052D01*
X148241106Y-127084946D01*
X148288328Y-127084884D01*
X148459264Y-127050649D01*
X148618174Y-126984827D01*
X148622216Y-126796164D01*
X148576052Y-126750000D01*
X148622216Y-126703836D01*
X148618174Y-126515173D01*
X148457026Y-126448672D01*
X148286002Y-126414887D01*
X148240998Y-126414946D01*
X148200000Y-126373948D01*
X148158894Y-126415054D01*
X148111672Y-126415116D01*
X147953343Y-126446826D01*
X147985113Y-126286002D01*
X147985054Y-126240998D01*
X148026052Y-126200000D01*
X148373948Y-126200000D01*
X148796164Y-126622216D01*
X148984827Y-126618174D01*
X149051328Y-126457026D01*
X149085113Y-126286002D01*
X149084884Y-126111672D01*
X149050649Y-125940736D01*
X148984827Y-125781826D01*
X148796164Y-125777784D01*
X148373948Y-126200000D01*
X148026052Y-126200000D01*
X147984946Y-126158894D01*
X147984884Y-126111672D01*
X147953174Y-125953343D01*
X148113998Y-125985113D01*
X148159002Y-125985054D01*
X148200000Y-126026052D01*
X148241106Y-125984946D01*
X148288328Y-125984884D01*
X148459264Y-125950649D01*
X148618174Y-125884827D01*
X148622216Y-125696164D01*
X148576052Y-125650000D01*
X148622216Y-125603836D01*
X148618174Y-125415173D01*
X148457026Y-125348672D01*
X148286002Y-125314887D01*
X148240998Y-125314946D01*
X148200000Y-125273948D01*
X148158894Y-125315054D01*
X148111672Y-125315116D01*
X147953343Y-125346826D01*
X147985113Y-125186002D01*
X147985054Y-125140998D01*
X148026052Y-125100000D01*
X148373948Y-125100000D01*
X148796164Y-125522216D01*
X148984827Y-125518174D01*
X149051328Y-125357026D01*
X149085113Y-125186002D01*
X149084899Y-125023078D01*
X153719000Y-125023078D01*
X153719000Y-125176922D01*
X153749013Y-125327809D01*
X153807887Y-125469942D01*
X153893358Y-125597859D01*
X154002141Y-125706642D01*
X154130058Y-125792113D01*
X154272191Y-125850987D01*
X154423078Y-125881000D01*
X154576922Y-125881000D01*
X154727809Y-125850987D01*
X154869942Y-125792113D01*
X154997859Y-125706642D01*
X155106642Y-125597859D01*
X155156608Y-125523078D01*
X156919000Y-125523078D01*
X156919000Y-125676922D01*
X156949013Y-125827809D01*
X157007887Y-125969942D01*
X157093358Y-126097859D01*
X157202141Y-126206642D01*
X157330058Y-126292113D01*
X157472191Y-126350987D01*
X157623078Y-126381000D01*
X157776922Y-126381000D01*
X157927809Y-126350987D01*
X158069942Y-126292113D01*
X158197859Y-126206642D01*
X158306642Y-126097859D01*
X158392113Y-125969942D01*
X158450987Y-125827809D01*
X158481000Y-125676922D01*
X158481000Y-125523078D01*
X158450987Y-125372191D01*
X158392113Y-125230058D01*
X158306642Y-125102141D01*
X158197859Y-124993358D01*
X158069942Y-124907887D01*
X157927809Y-124849013D01*
X157776922Y-124819000D01*
X157623078Y-124819000D01*
X157472191Y-124849013D01*
X157330058Y-124907887D01*
X157202141Y-124993358D01*
X157093358Y-125102141D01*
X157007887Y-125230058D01*
X156949013Y-125372191D01*
X156919000Y-125523078D01*
X155156608Y-125523078D01*
X155192113Y-125469942D01*
X155250987Y-125327809D01*
X155281000Y-125176922D01*
X155281000Y-125023078D01*
X155250987Y-124872191D01*
X155192113Y-124730058D01*
X155106642Y-124602141D01*
X154997859Y-124493358D01*
X154869942Y-124407887D01*
X154727809Y-124349013D01*
X154576922Y-124319000D01*
X154423078Y-124319000D01*
X154272191Y-124349013D01*
X154130058Y-124407887D01*
X154002141Y-124493358D01*
X153893358Y-124602141D01*
X153807887Y-124730058D01*
X153749013Y-124872191D01*
X153719000Y-125023078D01*
X149084899Y-125023078D01*
X149084884Y-125011672D01*
X149050649Y-124840736D01*
X148984827Y-124681826D01*
X148796164Y-124677784D01*
X148373948Y-125100000D01*
X148026052Y-125100000D01*
X147984946Y-125058894D01*
X147984884Y-125011672D01*
X147950649Y-124840736D01*
X147884827Y-124681826D01*
X147696164Y-124677784D01*
X147650000Y-124723948D01*
X147603836Y-124677784D01*
X147415173Y-124681826D01*
X147348672Y-124842974D01*
X147314887Y-125013998D01*
X147314946Y-125059002D01*
X147273948Y-125100000D01*
X147315054Y-125141106D01*
X147315116Y-125188328D01*
X147346826Y-125346657D01*
X147186002Y-125314887D01*
X147140998Y-125314946D01*
X147100000Y-125273948D01*
X147058894Y-125315054D01*
X147011672Y-125315116D01*
X146853343Y-125346826D01*
X146885113Y-125186002D01*
X146885054Y-125140998D01*
X146926052Y-125100000D01*
X146884946Y-125058894D01*
X146884884Y-125011672D01*
X146850649Y-124840736D01*
X146784827Y-124681826D01*
X146596164Y-124677784D01*
X146550000Y-124723948D01*
X146503836Y-124677784D01*
X146315173Y-124681826D01*
X146248672Y-124842974D01*
X146214887Y-125013998D01*
X146214946Y-125059002D01*
X146173948Y-125100000D01*
X146215054Y-125141106D01*
X146215116Y-125188328D01*
X146246826Y-125346657D01*
X146086002Y-125314887D01*
X146040998Y-125314946D01*
X146000000Y-125273948D01*
X145958894Y-125315054D01*
X145911672Y-125315116D01*
X145740736Y-125349351D01*
X145581826Y-125415173D01*
X145577784Y-125603836D01*
X100406000Y-125603836D01*
X100406000Y-125013998D01*
X145114887Y-125013998D01*
X145115116Y-125188328D01*
X145149351Y-125359264D01*
X145215173Y-125518174D01*
X145403836Y-125522216D01*
X145826052Y-125100000D01*
X145403836Y-124677784D01*
X145215173Y-124681826D01*
X145148672Y-124842974D01*
X145114887Y-125013998D01*
X100406000Y-125013998D01*
X100406000Y-124503836D01*
X145577784Y-124503836D01*
X146000000Y-124926052D01*
X146422216Y-124503836D01*
X146677784Y-124503836D01*
X147100000Y-124926052D01*
X147522216Y-124503836D01*
X147777784Y-124503836D01*
X148200000Y-124926052D01*
X148622216Y-124503836D01*
X148618174Y-124315173D01*
X148457026Y-124248672D01*
X148286002Y-124214887D01*
X148111672Y-124215116D01*
X147940736Y-124249351D01*
X147781826Y-124315173D01*
X147777784Y-124503836D01*
X147522216Y-124503836D01*
X147518174Y-124315173D01*
X147357026Y-124248672D01*
X147186002Y-124214887D01*
X147011672Y-124215116D01*
X146840736Y-124249351D01*
X146681826Y-124315173D01*
X146677784Y-124503836D01*
X146422216Y-124503836D01*
X146418174Y-124315173D01*
X146257026Y-124248672D01*
X146086002Y-124214887D01*
X145911672Y-124215116D01*
X145740736Y-124249351D01*
X145581826Y-124315173D01*
X145577784Y-124503836D01*
X100406000Y-124503836D01*
X100406000Y-122918607D01*
X100417446Y-122932554D01*
X100574436Y-123061393D01*
X100753545Y-123157128D01*
X100947889Y-123216082D01*
X101099355Y-123231000D01*
X102500645Y-123231000D01*
X102652111Y-123216082D01*
X102846455Y-123157128D01*
X103025564Y-123061393D01*
X103182554Y-122932554D01*
X103311393Y-122775564D01*
X103407128Y-122596455D01*
X103466082Y-122402111D01*
X103485988Y-122200000D01*
X105674496Y-122200000D01*
X105692471Y-122382508D01*
X105745707Y-122558002D01*
X105832157Y-122719738D01*
X105948499Y-122861501D01*
X106090262Y-122977843D01*
X106251998Y-123064293D01*
X106427492Y-123117529D01*
X106564269Y-123131000D01*
X107755731Y-123131000D01*
X107836166Y-123123078D01*
X124619000Y-123123078D01*
X124619000Y-123276922D01*
X124649013Y-123427809D01*
X124707887Y-123569942D01*
X124793358Y-123697859D01*
X124902141Y-123806642D01*
X125030058Y-123892113D01*
X125172191Y-123950987D01*
X125323078Y-123981000D01*
X125476922Y-123981000D01*
X125627809Y-123950987D01*
X125769942Y-123892113D01*
X125897859Y-123806642D01*
X126006642Y-123697859D01*
X126092113Y-123569942D01*
X126150987Y-123427809D01*
X126181000Y-123276922D01*
X126181000Y-123123078D01*
X126150987Y-122972191D01*
X126092113Y-122830058D01*
X126006642Y-122702141D01*
X125897859Y-122593358D01*
X125769942Y-122507887D01*
X125627809Y-122449013D01*
X125476922Y-122419000D01*
X125323078Y-122419000D01*
X125172191Y-122449013D01*
X125030058Y-122507887D01*
X124902141Y-122593358D01*
X124793358Y-122702141D01*
X124707887Y-122830058D01*
X124649013Y-122972191D01*
X124619000Y-123123078D01*
X107836166Y-123123078D01*
X107892508Y-123117529D01*
X108068002Y-123064293D01*
X108229738Y-122977843D01*
X108371501Y-122861501D01*
X108487843Y-122719738D01*
X108574293Y-122558002D01*
X108627529Y-122382508D01*
X108645504Y-122200000D01*
X108628080Y-122023078D01*
X126719000Y-122023078D01*
X126719000Y-122176922D01*
X126749013Y-122327809D01*
X126807887Y-122469942D01*
X126893358Y-122597859D01*
X127002141Y-122706642D01*
X127130058Y-122792113D01*
X127272191Y-122850987D01*
X127423078Y-122881000D01*
X127576922Y-122881000D01*
X127727809Y-122850987D01*
X127869942Y-122792113D01*
X127997859Y-122706642D01*
X128106642Y-122597859D01*
X128192113Y-122469942D01*
X128250987Y-122327809D01*
X128251928Y-122323078D01*
X155519000Y-122323078D01*
X155519000Y-122476922D01*
X155549013Y-122627809D01*
X155607887Y-122769942D01*
X155693358Y-122897859D01*
X155802141Y-123006642D01*
X155930058Y-123092113D01*
X156072191Y-123150987D01*
X156223078Y-123181000D01*
X156376922Y-123181000D01*
X156527809Y-123150987D01*
X156669942Y-123092113D01*
X156797859Y-123006642D01*
X156906642Y-122897859D01*
X156992113Y-122769942D01*
X157025906Y-122688360D01*
X157019000Y-122723078D01*
X157019000Y-122876922D01*
X157049013Y-123027809D01*
X157107887Y-123169942D01*
X157193358Y-123297859D01*
X157302141Y-123406642D01*
X157430058Y-123492113D01*
X157572191Y-123550987D01*
X157723078Y-123581000D01*
X157876922Y-123581000D01*
X158027809Y-123550987D01*
X158169942Y-123492113D01*
X158297859Y-123406642D01*
X158406642Y-123297859D01*
X158492113Y-123169942D01*
X158550987Y-123027809D01*
X158581000Y-122876922D01*
X158581000Y-122723078D01*
X158550987Y-122572191D01*
X158492113Y-122430058D01*
X158406642Y-122302141D01*
X158297859Y-122193358D01*
X158169942Y-122107887D01*
X158027809Y-122049013D01*
X157876922Y-122019000D01*
X157723078Y-122019000D01*
X157572191Y-122049013D01*
X157430058Y-122107887D01*
X157302141Y-122193358D01*
X157193358Y-122302141D01*
X157107887Y-122430058D01*
X157074094Y-122511640D01*
X157081000Y-122476922D01*
X157081000Y-122323078D01*
X157050987Y-122172191D01*
X156992113Y-122030058D01*
X156906642Y-121902141D01*
X156797859Y-121793358D01*
X156669942Y-121707887D01*
X156527809Y-121649013D01*
X156376922Y-121619000D01*
X156223078Y-121619000D01*
X156072191Y-121649013D01*
X155930058Y-121707887D01*
X155802141Y-121793358D01*
X155693358Y-121902141D01*
X155607887Y-122030058D01*
X155549013Y-122172191D01*
X155519000Y-122323078D01*
X128251928Y-122323078D01*
X128281000Y-122176922D01*
X128281000Y-122023078D01*
X128250987Y-121872191D01*
X128192113Y-121730058D01*
X128106642Y-121602141D01*
X127997859Y-121493358D01*
X127892678Y-121423078D01*
X133519000Y-121423078D01*
X133519000Y-121576922D01*
X133549013Y-121727809D01*
X133607887Y-121869942D01*
X133693358Y-121997859D01*
X133802141Y-122106642D01*
X133930058Y-122192113D01*
X134072191Y-122250987D01*
X134223078Y-122281000D01*
X134376922Y-122281000D01*
X134527809Y-122250987D01*
X134669942Y-122192113D01*
X134797859Y-122106642D01*
X134906642Y-121997859D01*
X134992113Y-121869942D01*
X135050987Y-121727809D01*
X135081000Y-121576922D01*
X135081000Y-121423078D01*
X135050987Y-121272191D01*
X134992113Y-121130058D01*
X134906642Y-121002141D01*
X134797859Y-120893358D01*
X134669942Y-120807887D01*
X134527809Y-120749013D01*
X134376922Y-120719000D01*
X134223078Y-120719000D01*
X134072191Y-120749013D01*
X133930058Y-120807887D01*
X133802141Y-120893358D01*
X133693358Y-121002141D01*
X133607887Y-121130058D01*
X133549013Y-121272191D01*
X133519000Y-121423078D01*
X127892678Y-121423078D01*
X127869942Y-121407887D01*
X127727809Y-121349013D01*
X127576922Y-121319000D01*
X127423078Y-121319000D01*
X127272191Y-121349013D01*
X127130058Y-121407887D01*
X127002141Y-121493358D01*
X126893358Y-121602141D01*
X126807887Y-121730058D01*
X126749013Y-121872191D01*
X126719000Y-122023078D01*
X108628080Y-122023078D01*
X108627529Y-122017492D01*
X108574293Y-121841998D01*
X108487843Y-121680262D01*
X108371501Y-121538499D01*
X108229738Y-121422157D01*
X108068002Y-121335707D01*
X107892508Y-121282471D01*
X107755731Y-121269000D01*
X106564269Y-121269000D01*
X106427492Y-121282471D01*
X106251998Y-121335707D01*
X106090262Y-121422157D01*
X105948499Y-121538499D01*
X105832157Y-121680262D01*
X105745707Y-121841998D01*
X105692471Y-122017492D01*
X105674496Y-122200000D01*
X103485988Y-122200000D01*
X103466082Y-121997889D01*
X103407128Y-121803545D01*
X103311393Y-121624436D01*
X103182554Y-121467446D01*
X103025564Y-121338607D01*
X102846455Y-121242872D01*
X102652111Y-121183918D01*
X102500645Y-121169000D01*
X101099355Y-121169000D01*
X100947889Y-121183918D01*
X100753545Y-121242872D01*
X100574436Y-121338607D01*
X100417446Y-121467446D01*
X100406000Y-121481393D01*
X100406000Y-120746164D01*
X125527784Y-120746164D01*
X125531826Y-120934827D01*
X125692974Y-121001328D01*
X125863998Y-121035113D01*
X126038328Y-121034884D01*
X126209264Y-121000649D01*
X126368174Y-120934827D01*
X126372216Y-120746164D01*
X127627784Y-120746164D01*
X127631826Y-120934827D01*
X127792974Y-121001328D01*
X127963998Y-121035113D01*
X128138328Y-121034884D01*
X128309264Y-121000649D01*
X128468174Y-120934827D01*
X128472216Y-120746164D01*
X128050000Y-120323948D01*
X127627784Y-120746164D01*
X126372216Y-120746164D01*
X125950000Y-120323948D01*
X125527784Y-120746164D01*
X100406000Y-120746164D01*
X100406000Y-120063998D01*
X125064887Y-120063998D01*
X125065116Y-120238328D01*
X125099351Y-120409264D01*
X125165173Y-120568174D01*
X125353836Y-120572216D01*
X125776052Y-120150000D01*
X126123948Y-120150000D01*
X126546164Y-120572216D01*
X126734827Y-120568174D01*
X126801328Y-120407026D01*
X126835113Y-120236002D01*
X126834888Y-120063998D01*
X127164887Y-120063998D01*
X127165116Y-120238328D01*
X127199351Y-120409264D01*
X127265173Y-120568174D01*
X127453836Y-120572216D01*
X127876052Y-120150000D01*
X128223948Y-120150000D01*
X128646164Y-120572216D01*
X128834827Y-120568174D01*
X128901328Y-120407026D01*
X128935113Y-120236002D01*
X128934884Y-120061672D01*
X128900649Y-119890736D01*
X128834827Y-119731826D01*
X128646164Y-119727784D01*
X128223948Y-120150000D01*
X127876052Y-120150000D01*
X127453836Y-119727784D01*
X127265173Y-119731826D01*
X127198672Y-119892974D01*
X127164887Y-120063998D01*
X126834888Y-120063998D01*
X126834884Y-120061672D01*
X126800649Y-119890736D01*
X126734827Y-119731826D01*
X126546164Y-119727784D01*
X126123948Y-120150000D01*
X125776052Y-120150000D01*
X125353836Y-119727784D01*
X125165173Y-119731826D01*
X125098672Y-119892974D01*
X125064887Y-120063998D01*
X100406000Y-120063998D01*
X100406000Y-119023078D01*
X123319000Y-119023078D01*
X123319000Y-119176922D01*
X123349013Y-119327809D01*
X123407887Y-119469942D01*
X123493358Y-119597859D01*
X123602141Y-119706642D01*
X123730058Y-119792113D01*
X123872191Y-119850987D01*
X124023078Y-119881000D01*
X124176922Y-119881000D01*
X124327809Y-119850987D01*
X124469942Y-119792113D01*
X124597859Y-119706642D01*
X124706642Y-119597859D01*
X124736057Y-119553836D01*
X125527784Y-119553836D01*
X125950000Y-119976052D01*
X126372216Y-119553836D01*
X127627784Y-119553836D01*
X128050000Y-119976052D01*
X128472216Y-119553836D01*
X128469415Y-119423078D01*
X133519000Y-119423078D01*
X133519000Y-119576922D01*
X133549013Y-119727809D01*
X133607887Y-119869942D01*
X133693358Y-119997859D01*
X133802141Y-120106642D01*
X133930058Y-120192113D01*
X134072191Y-120250987D01*
X134223078Y-120281000D01*
X134376922Y-120281000D01*
X134527809Y-120250987D01*
X134669942Y-120192113D01*
X134797859Y-120106642D01*
X134906642Y-119997859D01*
X134946233Y-119938606D01*
X160369000Y-119938606D01*
X160369000Y-120161394D01*
X160412464Y-120379900D01*
X160497721Y-120585729D01*
X160621495Y-120770970D01*
X160779030Y-120928505D01*
X160964271Y-121052279D01*
X161170100Y-121137536D01*
X161388606Y-121181000D01*
X161611394Y-121181000D01*
X161829900Y-121137536D01*
X162035729Y-121052279D01*
X162220970Y-120928505D01*
X162378505Y-120770970D01*
X162502279Y-120585729D01*
X162587536Y-120379900D01*
X162631000Y-120161394D01*
X162631000Y-119938606D01*
X162587536Y-119720100D01*
X162502279Y-119514271D01*
X162378505Y-119329030D01*
X162220970Y-119171495D01*
X162035729Y-119047721D01*
X161829900Y-118962464D01*
X161611394Y-118919000D01*
X161388606Y-118919000D01*
X161170100Y-118962464D01*
X160964271Y-119047721D01*
X160779030Y-119171495D01*
X160621495Y-119329030D01*
X160497721Y-119514271D01*
X160412464Y-119720100D01*
X160369000Y-119938606D01*
X134946233Y-119938606D01*
X134992113Y-119869942D01*
X135050987Y-119727809D01*
X135081000Y-119576922D01*
X135081000Y-119423078D01*
X135050987Y-119272191D01*
X134992113Y-119130058D01*
X134906642Y-119002141D01*
X134797859Y-118893358D01*
X134669942Y-118807887D01*
X134527809Y-118749013D01*
X134376922Y-118719000D01*
X134223078Y-118719000D01*
X134072191Y-118749013D01*
X133930058Y-118807887D01*
X133802141Y-118893358D01*
X133693358Y-119002141D01*
X133607887Y-119130058D01*
X133549013Y-119272191D01*
X133519000Y-119423078D01*
X128469415Y-119423078D01*
X128468174Y-119365173D01*
X128307026Y-119298672D01*
X128136002Y-119264887D01*
X127961672Y-119265116D01*
X127790736Y-119299351D01*
X127631826Y-119365173D01*
X127627784Y-119553836D01*
X126372216Y-119553836D01*
X126368174Y-119365173D01*
X126207026Y-119298672D01*
X126036002Y-119264887D01*
X125861672Y-119265116D01*
X125690736Y-119299351D01*
X125531826Y-119365173D01*
X125527784Y-119553836D01*
X124736057Y-119553836D01*
X124792113Y-119469942D01*
X124850987Y-119327809D01*
X124881000Y-119176922D01*
X124881000Y-119023078D01*
X124850987Y-118872191D01*
X124792113Y-118730058D01*
X124736058Y-118646164D01*
X125527784Y-118646164D01*
X125531826Y-118834827D01*
X125692974Y-118901328D01*
X125863998Y-118935113D01*
X126038328Y-118934884D01*
X126209264Y-118900649D01*
X126368174Y-118834827D01*
X126372216Y-118646164D01*
X127627784Y-118646164D01*
X127631826Y-118834827D01*
X127792974Y-118901328D01*
X127963998Y-118935113D01*
X128138328Y-118934884D01*
X128309264Y-118900649D01*
X128468174Y-118834827D01*
X128472216Y-118646164D01*
X128050000Y-118223948D01*
X127627784Y-118646164D01*
X126372216Y-118646164D01*
X125950000Y-118223948D01*
X125527784Y-118646164D01*
X124736058Y-118646164D01*
X124706642Y-118602141D01*
X124597859Y-118493358D01*
X124469942Y-118407887D01*
X124327809Y-118349013D01*
X124176922Y-118319000D01*
X124023078Y-118319000D01*
X123872191Y-118349013D01*
X123730058Y-118407887D01*
X123602141Y-118493358D01*
X123493358Y-118602141D01*
X123407887Y-118730058D01*
X123349013Y-118872191D01*
X123319000Y-119023078D01*
X100406000Y-119023078D01*
X100406000Y-117963998D01*
X125064887Y-117963998D01*
X125065116Y-118138328D01*
X125099351Y-118309264D01*
X125165173Y-118468174D01*
X125353836Y-118472216D01*
X125776052Y-118050000D01*
X126123948Y-118050000D01*
X126546164Y-118472216D01*
X126734827Y-118468174D01*
X126801328Y-118307026D01*
X126835113Y-118136002D01*
X126834888Y-117963998D01*
X127164887Y-117963998D01*
X127165116Y-118138328D01*
X127199351Y-118309264D01*
X127265173Y-118468174D01*
X127453836Y-118472216D01*
X127876052Y-118050000D01*
X128223948Y-118050000D01*
X128646164Y-118472216D01*
X128834827Y-118468174D01*
X128901328Y-118307026D01*
X128935113Y-118136002D01*
X128934884Y-117961672D01*
X128900649Y-117790736D01*
X128834827Y-117631826D01*
X128646164Y-117627784D01*
X128223948Y-118050000D01*
X127876052Y-118050000D01*
X127453836Y-117627784D01*
X127265173Y-117631826D01*
X127198672Y-117792974D01*
X127164887Y-117963998D01*
X126834888Y-117963998D01*
X126834884Y-117961672D01*
X126800649Y-117790736D01*
X126734827Y-117631826D01*
X126546164Y-117627784D01*
X126123948Y-118050000D01*
X125776052Y-118050000D01*
X125353836Y-117627784D01*
X125165173Y-117631826D01*
X125098672Y-117792974D01*
X125064887Y-117963998D01*
X100406000Y-117963998D01*
X100406000Y-117032746D01*
X107716122Y-117032746D01*
X107716122Y-117152118D01*
X107739410Y-117269196D01*
X107785092Y-117379481D01*
X107851411Y-117478734D01*
X107935820Y-117563143D01*
X108035073Y-117629462D01*
X108145358Y-117675144D01*
X108262436Y-117698432D01*
X108381808Y-117698432D01*
X108498886Y-117675144D01*
X108609171Y-117629462D01*
X108708424Y-117563143D01*
X108792833Y-117478734D01*
X108809469Y-117453836D01*
X125527784Y-117453836D01*
X125950000Y-117876052D01*
X126372216Y-117453836D01*
X127627784Y-117453836D01*
X128050000Y-117876052D01*
X128472216Y-117453836D01*
X128468176Y-117265232D01*
X129209410Y-117265232D01*
X129209410Y-117419076D01*
X129239423Y-117569963D01*
X129298297Y-117712096D01*
X129383768Y-117840013D01*
X129492551Y-117948796D01*
X129620468Y-118034267D01*
X129762601Y-118093141D01*
X129913488Y-118123154D01*
X130067332Y-118123154D01*
X130218219Y-118093141D01*
X130360352Y-118034267D01*
X130488269Y-117948796D01*
X130597052Y-117840013D01*
X130682523Y-117712096D01*
X130741397Y-117569963D01*
X130770613Y-117423078D01*
X133519000Y-117423078D01*
X133519000Y-117576922D01*
X133549013Y-117727809D01*
X133607887Y-117869942D01*
X133693358Y-117997859D01*
X133802141Y-118106642D01*
X133930058Y-118192113D01*
X134072191Y-118250987D01*
X134223078Y-118281000D01*
X134376922Y-118281000D01*
X134527809Y-118250987D01*
X134669942Y-118192113D01*
X134797859Y-118106642D01*
X134906642Y-117997859D01*
X134992113Y-117869942D01*
X135050987Y-117727809D01*
X135081000Y-117576922D01*
X135081000Y-117423078D01*
X135050987Y-117272191D01*
X134992113Y-117130058D01*
X134906642Y-117002141D01*
X134797859Y-116893358D01*
X134669942Y-116807887D01*
X134527809Y-116749013D01*
X134376922Y-116719000D01*
X134223078Y-116719000D01*
X134072191Y-116749013D01*
X133930058Y-116807887D01*
X133802141Y-116893358D01*
X133693358Y-117002141D01*
X133607887Y-117130058D01*
X133549013Y-117272191D01*
X133519000Y-117423078D01*
X130770613Y-117423078D01*
X130771410Y-117419076D01*
X130771410Y-117265232D01*
X130741397Y-117114345D01*
X130682523Y-116972212D01*
X130597052Y-116844295D01*
X130488269Y-116735512D01*
X130360352Y-116650041D01*
X130218219Y-116591167D01*
X130067332Y-116561154D01*
X129913488Y-116561154D01*
X129762601Y-116591167D01*
X129620468Y-116650041D01*
X129492551Y-116735512D01*
X129383768Y-116844295D01*
X129298297Y-116972212D01*
X129239423Y-117114345D01*
X129209410Y-117265232D01*
X128468176Y-117265232D01*
X128468174Y-117265173D01*
X128307026Y-117198672D01*
X128136002Y-117164887D01*
X127961672Y-117165116D01*
X127790736Y-117199351D01*
X127631826Y-117265173D01*
X127627784Y-117453836D01*
X126372216Y-117453836D01*
X126368174Y-117265173D01*
X126207026Y-117198672D01*
X126036002Y-117164887D01*
X125861672Y-117165116D01*
X125690736Y-117199351D01*
X125531826Y-117265173D01*
X125527784Y-117453836D01*
X108809469Y-117453836D01*
X108859152Y-117379481D01*
X108904834Y-117269196D01*
X108928122Y-117152118D01*
X108928122Y-117032746D01*
X108904834Y-116915668D01*
X108859152Y-116805383D01*
X108792833Y-116706130D01*
X108708424Y-116621721D01*
X108609171Y-116555402D01*
X108498886Y-116509720D01*
X108381808Y-116486432D01*
X108262436Y-116486432D01*
X108145358Y-116509720D01*
X108035073Y-116555402D01*
X107935820Y-116621721D01*
X107851411Y-116706130D01*
X107785092Y-116805383D01*
X107739410Y-116915668D01*
X107716122Y-117032746D01*
X100406000Y-117032746D01*
X100406000Y-114645413D01*
X111144192Y-114645413D01*
X111239956Y-114909814D01*
X111529571Y-115050704D01*
X111841108Y-115132384D01*
X112162595Y-115151718D01*
X112481675Y-115107961D01*
X112786088Y-115002795D01*
X112960044Y-114909814D01*
X113055808Y-114645413D01*
X112100000Y-113689605D01*
X111144192Y-114645413D01*
X100406000Y-114645413D01*
X100406000Y-114278607D01*
X100417446Y-114292554D01*
X100574436Y-114421393D01*
X100753545Y-114517128D01*
X100947889Y-114576082D01*
X101099355Y-114591000D01*
X102500645Y-114591000D01*
X102652111Y-114576082D01*
X102846455Y-114517128D01*
X103025564Y-114421393D01*
X103182554Y-114292554D01*
X103311393Y-114135564D01*
X103407128Y-113956455D01*
X103466082Y-113762111D01*
X103485988Y-113560000D01*
X105674496Y-113560000D01*
X105692471Y-113742508D01*
X105745707Y-113918002D01*
X105832157Y-114079738D01*
X105948499Y-114221501D01*
X106090262Y-114337843D01*
X106251998Y-114424293D01*
X106427492Y-114477529D01*
X106564269Y-114491000D01*
X107755731Y-114491000D01*
X107892508Y-114477529D01*
X108068002Y-114424293D01*
X108229738Y-114337843D01*
X108371501Y-114221501D01*
X108487843Y-114079738D01*
X108574293Y-113918002D01*
X108627529Y-113742508D01*
X108644263Y-113572595D01*
X110458282Y-113572595D01*
X110502039Y-113891675D01*
X110607205Y-114196088D01*
X110700186Y-114370044D01*
X110964587Y-114465808D01*
X111920395Y-113510000D01*
X112279605Y-113510000D01*
X113235413Y-114465808D01*
X113499814Y-114370044D01*
X113640704Y-114080429D01*
X113722384Y-113768892D01*
X113741718Y-113447405D01*
X113722871Y-113309964D01*
X137234000Y-113309964D01*
X137234000Y-113710036D01*
X137312050Y-114102421D01*
X137465151Y-114472039D01*
X137687419Y-114804687D01*
X137970313Y-115087581D01*
X138302961Y-115309849D01*
X138672579Y-115462950D01*
X139064964Y-115541000D01*
X139465036Y-115541000D01*
X139857421Y-115462950D01*
X140227039Y-115309849D01*
X140559687Y-115087581D01*
X140608662Y-115038606D01*
X160369000Y-115038606D01*
X160369000Y-115261394D01*
X160412464Y-115479900D01*
X160497721Y-115685729D01*
X160621495Y-115870970D01*
X160779030Y-116028505D01*
X160964271Y-116152279D01*
X161170100Y-116237536D01*
X161388606Y-116281000D01*
X161611394Y-116281000D01*
X161829900Y-116237536D01*
X162035729Y-116152279D01*
X162220970Y-116028505D01*
X162378505Y-115870970D01*
X162502279Y-115685729D01*
X162587536Y-115479900D01*
X162631000Y-115261394D01*
X162631000Y-115038606D01*
X162587536Y-114820100D01*
X162502279Y-114614271D01*
X162378505Y-114429030D01*
X162220970Y-114271495D01*
X162035729Y-114147721D01*
X161829900Y-114062464D01*
X161611394Y-114019000D01*
X161388606Y-114019000D01*
X161170100Y-114062464D01*
X160964271Y-114147721D01*
X160779030Y-114271495D01*
X160621495Y-114429030D01*
X160497721Y-114614271D01*
X160412464Y-114820100D01*
X160369000Y-115038606D01*
X140608662Y-115038606D01*
X140842581Y-114804687D01*
X141064849Y-114472039D01*
X141217950Y-114102421D01*
X141296000Y-113710036D01*
X141296000Y-113623078D01*
X155119000Y-113623078D01*
X155119000Y-113776922D01*
X155149013Y-113927809D01*
X155207887Y-114069942D01*
X155293358Y-114197859D01*
X155402141Y-114306642D01*
X155530058Y-114392113D01*
X155672191Y-114450987D01*
X155823078Y-114481000D01*
X155976922Y-114481000D01*
X156127809Y-114450987D01*
X156269942Y-114392113D01*
X156397859Y-114306642D01*
X156506642Y-114197859D01*
X156592113Y-114069942D01*
X156650987Y-113927809D01*
X156681000Y-113776922D01*
X156681000Y-113623078D01*
X156650987Y-113472191D01*
X156592113Y-113330058D01*
X156506642Y-113202141D01*
X156397859Y-113093358D01*
X156269942Y-113007887D01*
X156127809Y-112949013D01*
X155976922Y-112919000D01*
X155823078Y-112919000D01*
X155672191Y-112949013D01*
X155530058Y-113007887D01*
X155402141Y-113093358D01*
X155293358Y-113202141D01*
X155207887Y-113330058D01*
X155149013Y-113472191D01*
X155119000Y-113623078D01*
X141296000Y-113623078D01*
X141296000Y-113309964D01*
X141217950Y-112917579D01*
X141064849Y-112547961D01*
X140842581Y-112215313D01*
X140559687Y-111932419D01*
X140227039Y-111710151D01*
X139857421Y-111557050D01*
X139465036Y-111479000D01*
X139064964Y-111479000D01*
X138672579Y-111557050D01*
X138302961Y-111710151D01*
X137970313Y-111932419D01*
X137687419Y-112215313D01*
X137465151Y-112547961D01*
X137312050Y-112917579D01*
X137234000Y-113309964D01*
X113722871Y-113309964D01*
X113697961Y-113128325D01*
X113592795Y-112823912D01*
X113499814Y-112649956D01*
X113235413Y-112554192D01*
X112279605Y-113510000D01*
X111920395Y-113510000D01*
X110964587Y-112554192D01*
X110700186Y-112649956D01*
X110559296Y-112939571D01*
X110477616Y-113251108D01*
X110458282Y-113572595D01*
X108644263Y-113572595D01*
X108645504Y-113560000D01*
X108627529Y-113377492D01*
X108574293Y-113201998D01*
X108487843Y-113040262D01*
X108371501Y-112898499D01*
X108229738Y-112782157D01*
X108068002Y-112695707D01*
X107892508Y-112642471D01*
X107755731Y-112629000D01*
X106564269Y-112629000D01*
X106427492Y-112642471D01*
X106251998Y-112695707D01*
X106090262Y-112782157D01*
X105948499Y-112898499D01*
X105832157Y-113040262D01*
X105745707Y-113201998D01*
X105692471Y-113377492D01*
X105674496Y-113560000D01*
X103485988Y-113560000D01*
X103466082Y-113357889D01*
X103407128Y-113163545D01*
X103311393Y-112984436D01*
X103182554Y-112827446D01*
X103025564Y-112698607D01*
X102846455Y-112602872D01*
X102652111Y-112543918D01*
X102500645Y-112529000D01*
X101099355Y-112529000D01*
X100947889Y-112543918D01*
X100753545Y-112602872D01*
X100574436Y-112698607D01*
X100417446Y-112827446D01*
X100406000Y-112841393D01*
X100406000Y-112240314D01*
X105094000Y-112240314D01*
X105094000Y-112359686D01*
X105117288Y-112476764D01*
X105162970Y-112587049D01*
X105229289Y-112686302D01*
X105313698Y-112770711D01*
X105412951Y-112837030D01*
X105523236Y-112882712D01*
X105640314Y-112906000D01*
X105759686Y-112906000D01*
X105876764Y-112882712D01*
X105987049Y-112837030D01*
X106086302Y-112770711D01*
X106170711Y-112686302D01*
X106237030Y-112587049D01*
X106282712Y-112476764D01*
X106303036Y-112374587D01*
X111144192Y-112374587D01*
X112100000Y-113330395D01*
X113055808Y-112374587D01*
X112960044Y-112110186D01*
X112670429Y-111969296D01*
X112358892Y-111887616D01*
X112037405Y-111868282D01*
X111718325Y-111912039D01*
X111413912Y-112017205D01*
X111239956Y-112110186D01*
X111144192Y-112374587D01*
X106303036Y-112374587D01*
X106306000Y-112359686D01*
X106306000Y-112240314D01*
X106282712Y-112123236D01*
X106237030Y-112012951D01*
X106170711Y-111913698D01*
X106086302Y-111829289D01*
X105987049Y-111762970D01*
X105876764Y-111717288D01*
X105759686Y-111694000D01*
X105640314Y-111694000D01*
X105523236Y-111717288D01*
X105412951Y-111762970D01*
X105313698Y-111829289D01*
X105229289Y-111913698D01*
X105162970Y-112012951D01*
X105117288Y-112123236D01*
X105094000Y-112240314D01*
X100406000Y-112240314D01*
X100406000Y-111223078D01*
X132419000Y-111223078D01*
X132419000Y-111376922D01*
X132449013Y-111527809D01*
X132507887Y-111669942D01*
X132593358Y-111797859D01*
X132702141Y-111906642D01*
X132830058Y-111992113D01*
X132972191Y-112050987D01*
X133123078Y-112081000D01*
X133276922Y-112081000D01*
X133427809Y-112050987D01*
X133569942Y-111992113D01*
X133697859Y-111906642D01*
X133806642Y-111797859D01*
X133892113Y-111669942D01*
X133950987Y-111527809D01*
X133981000Y-111376922D01*
X133981000Y-111223078D01*
X133950987Y-111072191D01*
X133892113Y-110930058D01*
X133806642Y-110802141D01*
X133697859Y-110693358D01*
X133569942Y-110607887D01*
X133427809Y-110549013D01*
X133276922Y-110519000D01*
X133123078Y-110519000D01*
X132972191Y-110549013D01*
X132830058Y-110607887D01*
X132702141Y-110693358D01*
X132593358Y-110802141D01*
X132507887Y-110930058D01*
X132449013Y-111072191D01*
X132419000Y-111223078D01*
X100406000Y-111223078D01*
X100406000Y-104065293D01*
X108234312Y-104065293D01*
X108318201Y-104319647D01*
X108591058Y-104450714D01*
X108884241Y-104526030D01*
X109186486Y-104542703D01*
X109486175Y-104500090D01*
X109771792Y-104399829D01*
X109915380Y-104323078D01*
X148019000Y-104323078D01*
X148019000Y-104476922D01*
X148049013Y-104627809D01*
X148107887Y-104769942D01*
X148193358Y-104897859D01*
X148302141Y-105006642D01*
X148430058Y-105092113D01*
X148572191Y-105150987D01*
X148723078Y-105181000D01*
X148876922Y-105181000D01*
X149027809Y-105150987D01*
X149169942Y-105092113D01*
X149297859Y-105006642D01*
X149406642Y-104897859D01*
X149492113Y-104769942D01*
X149550987Y-104627809D01*
X149581000Y-104476922D01*
X149581000Y-104323078D01*
X150644000Y-104323078D01*
X150644000Y-104476922D01*
X150674013Y-104627809D01*
X150732887Y-104769942D01*
X150818358Y-104897859D01*
X150927141Y-105006642D01*
X151055058Y-105092113D01*
X151197191Y-105150987D01*
X151348078Y-105181000D01*
X151501922Y-105181000D01*
X151652809Y-105150987D01*
X151794942Y-105092113D01*
X151922859Y-105006642D01*
X152031642Y-104897859D01*
X152117113Y-104769942D01*
X152175987Y-104627809D01*
X152206000Y-104476922D01*
X152206000Y-104323078D01*
X152175987Y-104172191D01*
X152117113Y-104030058D01*
X152109266Y-104018315D01*
X152161318Y-104013188D01*
X152393363Y-103942798D01*
X152607216Y-103828491D01*
X152794660Y-103674660D01*
X152948491Y-103487216D01*
X153062798Y-103273363D01*
X153133188Y-103041318D01*
X153156956Y-102800000D01*
X153223044Y-102800000D01*
X153246812Y-103041318D01*
X153317202Y-103273363D01*
X153431509Y-103487216D01*
X153585340Y-103674660D01*
X153672605Y-103746276D01*
X153602141Y-103793358D01*
X153493358Y-103902141D01*
X153407887Y-104030058D01*
X153349013Y-104172191D01*
X153319000Y-104323078D01*
X153319000Y-104476922D01*
X153349013Y-104627809D01*
X153407887Y-104769942D01*
X153493358Y-104897859D01*
X153602141Y-105006642D01*
X153730058Y-105092113D01*
X153872191Y-105150987D01*
X154023078Y-105181000D01*
X154176922Y-105181000D01*
X154327809Y-105150987D01*
X154469942Y-105092113D01*
X154597859Y-105006642D01*
X154706642Y-104897859D01*
X154792113Y-104769942D01*
X154850987Y-104627809D01*
X154881000Y-104476922D01*
X154881000Y-104323078D01*
X154850987Y-104172191D01*
X154792113Y-104030058D01*
X154767439Y-103993130D01*
X154933363Y-103942798D01*
X155147216Y-103828491D01*
X155334660Y-103674660D01*
X155488491Y-103487216D01*
X155602798Y-103273363D01*
X155673188Y-103041318D01*
X155696956Y-102800000D01*
X155673188Y-102558682D01*
X155602798Y-102326637D01*
X155488491Y-102112784D01*
X155334660Y-101925340D01*
X155147216Y-101771509D01*
X154933363Y-101657202D01*
X154701318Y-101586812D01*
X154520472Y-101569000D01*
X154399528Y-101569000D01*
X154218682Y-101586812D01*
X153986637Y-101657202D01*
X153772784Y-101771509D01*
X153585340Y-101925340D01*
X153431509Y-102112784D01*
X153317202Y-102326637D01*
X153246812Y-102558682D01*
X153223044Y-102800000D01*
X153156956Y-102800000D01*
X153133188Y-102558682D01*
X153062798Y-102326637D01*
X152948491Y-102112784D01*
X152794660Y-101925340D01*
X152607216Y-101771509D01*
X152393363Y-101657202D01*
X152161318Y-101586812D01*
X151980472Y-101569000D01*
X151859528Y-101569000D01*
X151678682Y-101586812D01*
X151446637Y-101657202D01*
X151232784Y-101771509D01*
X151045340Y-101925340D01*
X150891509Y-102112784D01*
X150777202Y-102326637D01*
X150706812Y-102558682D01*
X150683044Y-102800000D01*
X150706812Y-103041318D01*
X150777202Y-103273363D01*
X150891509Y-103487216D01*
X151045340Y-103674660D01*
X151075506Y-103699417D01*
X151055058Y-103707887D01*
X150927141Y-103793358D01*
X150818358Y-103902141D01*
X150732887Y-104030058D01*
X150674013Y-104172191D01*
X150644000Y-104323078D01*
X149581000Y-104323078D01*
X149550987Y-104172191D01*
X149492113Y-104030058D01*
X149489515Y-104026170D01*
X149621318Y-104013188D01*
X149853363Y-103942798D01*
X150067216Y-103828491D01*
X150254660Y-103674660D01*
X150408491Y-103487216D01*
X150522798Y-103273363D01*
X150593188Y-103041318D01*
X150616956Y-102800000D01*
X150593188Y-102558682D01*
X150522798Y-102326637D01*
X150408491Y-102112784D01*
X150254660Y-101925340D01*
X150067216Y-101771509D01*
X149853363Y-101657202D01*
X149621318Y-101586812D01*
X149440472Y-101569000D01*
X149319528Y-101569000D01*
X149138682Y-101586812D01*
X148906637Y-101657202D01*
X148692784Y-101771509D01*
X148505340Y-101925340D01*
X148351509Y-102112784D01*
X148237202Y-102326637D01*
X148166812Y-102558682D01*
X148143044Y-102800000D01*
X148166812Y-103041318D01*
X148237202Y-103273363D01*
X148351509Y-103487216D01*
X148505340Y-103674660D01*
X148506995Y-103676018D01*
X148430058Y-103707887D01*
X148302141Y-103793358D01*
X148193358Y-103902141D01*
X148107887Y-104030058D01*
X148049013Y-104172191D01*
X148019000Y-104323078D01*
X109915380Y-104323078D01*
X109921799Y-104319647D01*
X110005688Y-104065293D01*
X109120000Y-103179605D01*
X108234312Y-104065293D01*
X100406000Y-104065293D01*
X100406000Y-103066486D01*
X107577297Y-103066486D01*
X107619910Y-103366175D01*
X107720171Y-103651792D01*
X107800353Y-103801799D01*
X108054707Y-103885688D01*
X108940395Y-103000000D01*
X109299605Y-103000000D01*
X110185293Y-103885688D01*
X110439647Y-103801799D01*
X110570714Y-103528942D01*
X110646030Y-103235759D01*
X110662703Y-102933514D01*
X110654194Y-102873665D01*
X112917300Y-102873665D01*
X112917300Y-103126335D01*
X112966594Y-103374150D01*
X113063286Y-103607586D01*
X113203662Y-103817673D01*
X113382327Y-103996338D01*
X113592414Y-104136714D01*
X113825850Y-104233406D01*
X114073665Y-104282700D01*
X114326335Y-104282700D01*
X114574150Y-104233406D01*
X114807586Y-104136714D01*
X115017673Y-103996338D01*
X115196338Y-103817673D01*
X115336714Y-103607586D01*
X115433406Y-103374150D01*
X115482700Y-103126335D01*
X115482700Y-102927000D01*
X120165000Y-102927000D01*
X120165000Y-103202000D01*
X120213507Y-103440496D01*
X120307610Y-103664946D01*
X120443693Y-103866725D01*
X120616526Y-104038078D01*
X120819467Y-104172421D01*
X121044718Y-104264591D01*
X121082391Y-104268462D01*
X121273000Y-104143731D01*
X121273000Y-102927000D01*
X120165000Y-102927000D01*
X115482700Y-102927000D01*
X115482700Y-102873665D01*
X115433406Y-102625850D01*
X115339028Y-102398000D01*
X120165000Y-102398000D01*
X120165000Y-102673000D01*
X121273000Y-102673000D01*
X121273000Y-101456269D01*
X121527000Y-101456269D01*
X121527000Y-102673000D01*
X121547000Y-102673000D01*
X121547000Y-102927000D01*
X121527000Y-102927000D01*
X121527000Y-104143731D01*
X121717609Y-104268462D01*
X121755282Y-104264591D01*
X121980533Y-104172421D01*
X122183474Y-104038078D01*
X122356307Y-103866725D01*
X122476628Y-103688318D01*
X122523810Y-103776589D01*
X122602512Y-103872488D01*
X122698411Y-103951190D01*
X122807821Y-104009671D01*
X122926538Y-104045683D01*
X123049999Y-104057843D01*
X123750001Y-104057843D01*
X123873462Y-104045683D01*
X123992179Y-104009671D01*
X124101589Y-103951190D01*
X124197488Y-103872488D01*
X124276190Y-103776589D01*
X124334671Y-103667179D01*
X124370683Y-103548462D01*
X124382843Y-103425001D01*
X124382843Y-102174999D01*
X124370683Y-102051538D01*
X124339883Y-101950000D01*
X130367157Y-101950000D01*
X130367157Y-103650000D01*
X130374513Y-103724689D01*
X130396299Y-103796508D01*
X130431678Y-103862696D01*
X130479289Y-103920711D01*
X130537304Y-103968322D01*
X130603492Y-104003701D01*
X130675311Y-104025487D01*
X130750000Y-104032843D01*
X132450000Y-104032843D01*
X132524689Y-104025487D01*
X132596508Y-104003701D01*
X132662696Y-103968322D01*
X132720711Y-103920711D01*
X132768322Y-103862696D01*
X132803701Y-103796508D01*
X132825487Y-103724689D01*
X132832843Y-103650000D01*
X132832843Y-103493367D01*
X132944822Y-103681355D01*
X133139731Y-103897588D01*
X133373080Y-104071641D01*
X133635901Y-104196825D01*
X133783110Y-104241476D01*
X134013000Y-104120155D01*
X134013000Y-102927000D01*
X133993000Y-102927000D01*
X133993000Y-102673000D01*
X134013000Y-102673000D01*
X134013000Y-101479845D01*
X134267000Y-101479845D01*
X134267000Y-102673000D01*
X134287000Y-102673000D01*
X134287000Y-102927000D01*
X134267000Y-102927000D01*
X134267000Y-104120155D01*
X134496890Y-104241476D01*
X134644099Y-104196825D01*
X134906920Y-104071641D01*
X135140269Y-103897588D01*
X135335178Y-103681355D01*
X135484157Y-103431252D01*
X135538983Y-103276695D01*
X135651509Y-103487216D01*
X135805340Y-103674660D01*
X135992784Y-103828491D01*
X136206637Y-103942798D01*
X136438682Y-104013188D01*
X136619528Y-104031000D01*
X136740472Y-104031000D01*
X136921318Y-104013188D01*
X137153363Y-103942798D01*
X137367216Y-103828491D01*
X137554660Y-103674660D01*
X137708491Y-103487216D01*
X137822798Y-103273363D01*
X137893188Y-103041318D01*
X137916956Y-102800000D01*
X137983044Y-102800000D01*
X138006812Y-103041318D01*
X138077202Y-103273363D01*
X138191509Y-103487216D01*
X138345340Y-103674660D01*
X138532784Y-103828491D01*
X138746637Y-103942798D01*
X138978682Y-104013188D01*
X139159528Y-104031000D01*
X139280472Y-104031000D01*
X139461318Y-104013188D01*
X139693363Y-103942798D01*
X139907216Y-103828491D01*
X140094660Y-103674660D01*
X140248491Y-103487216D01*
X140362798Y-103273363D01*
X140433188Y-103041318D01*
X140456956Y-102800000D01*
X140523044Y-102800000D01*
X140546812Y-103041318D01*
X140617202Y-103273363D01*
X140731509Y-103487216D01*
X140885340Y-103674660D01*
X141072784Y-103828491D01*
X141286637Y-103942798D01*
X141518682Y-104013188D01*
X141699528Y-104031000D01*
X141820472Y-104031000D01*
X142001318Y-104013188D01*
X142233363Y-103942798D01*
X142447216Y-103828491D01*
X142634660Y-103674660D01*
X142788491Y-103487216D01*
X142902798Y-103273363D01*
X142973188Y-103041318D01*
X142996956Y-102800000D01*
X143063044Y-102800000D01*
X143086812Y-103041318D01*
X143157202Y-103273363D01*
X143271509Y-103487216D01*
X143425340Y-103674660D01*
X143612784Y-103828491D01*
X143826637Y-103942798D01*
X144058682Y-104013188D01*
X144239528Y-104031000D01*
X144360472Y-104031000D01*
X144541318Y-104013188D01*
X144773363Y-103942798D01*
X144987216Y-103828491D01*
X145174660Y-103674660D01*
X145328491Y-103487216D01*
X145442798Y-103273363D01*
X145513188Y-103041318D01*
X145536956Y-102800000D01*
X145603044Y-102800000D01*
X145626812Y-103041318D01*
X145697202Y-103273363D01*
X145811509Y-103487216D01*
X145965340Y-103674660D01*
X146152784Y-103828491D01*
X146366637Y-103942798D01*
X146598682Y-104013188D01*
X146779528Y-104031000D01*
X146900472Y-104031000D01*
X147081318Y-104013188D01*
X147313363Y-103942798D01*
X147527216Y-103828491D01*
X147714660Y-103674660D01*
X147868491Y-103487216D01*
X147982798Y-103273363D01*
X148053188Y-103041318D01*
X148076956Y-102800000D01*
X148053188Y-102558682D01*
X147982798Y-102326637D01*
X147868491Y-102112784D01*
X147714660Y-101925340D01*
X147527216Y-101771509D01*
X147313363Y-101657202D01*
X147081318Y-101586812D01*
X146900472Y-101569000D01*
X146779528Y-101569000D01*
X146598682Y-101586812D01*
X146366637Y-101657202D01*
X146152784Y-101771509D01*
X145965340Y-101925340D01*
X145811509Y-102112784D01*
X145697202Y-102326637D01*
X145626812Y-102558682D01*
X145603044Y-102800000D01*
X145536956Y-102800000D01*
X145513188Y-102558682D01*
X145442798Y-102326637D01*
X145328491Y-102112784D01*
X145174660Y-101925340D01*
X144987216Y-101771509D01*
X144773363Y-101657202D01*
X144541318Y-101586812D01*
X144360472Y-101569000D01*
X144239528Y-101569000D01*
X144058682Y-101586812D01*
X143826637Y-101657202D01*
X143612784Y-101771509D01*
X143425340Y-101925340D01*
X143271509Y-102112784D01*
X143157202Y-102326637D01*
X143086812Y-102558682D01*
X143063044Y-102800000D01*
X142996956Y-102800000D01*
X142973188Y-102558682D01*
X142902798Y-102326637D01*
X142788491Y-102112784D01*
X142634660Y-101925340D01*
X142447216Y-101771509D01*
X142233363Y-101657202D01*
X142001318Y-101586812D01*
X141820472Y-101569000D01*
X141699528Y-101569000D01*
X141518682Y-101586812D01*
X141286637Y-101657202D01*
X141072784Y-101771509D01*
X140885340Y-101925340D01*
X140731509Y-102112784D01*
X140617202Y-102326637D01*
X140546812Y-102558682D01*
X140523044Y-102800000D01*
X140456956Y-102800000D01*
X140433188Y-102558682D01*
X140362798Y-102326637D01*
X140248491Y-102112784D01*
X140094660Y-101925340D01*
X139907216Y-101771509D01*
X139693363Y-101657202D01*
X139461318Y-101586812D01*
X139280472Y-101569000D01*
X139159528Y-101569000D01*
X138978682Y-101586812D01*
X138746637Y-101657202D01*
X138532784Y-101771509D01*
X138345340Y-101925340D01*
X138191509Y-102112784D01*
X138077202Y-102326637D01*
X138006812Y-102558682D01*
X137983044Y-102800000D01*
X137916956Y-102800000D01*
X137893188Y-102558682D01*
X137822798Y-102326637D01*
X137708491Y-102112784D01*
X137554660Y-101925340D01*
X137367216Y-101771509D01*
X137153363Y-101657202D01*
X136921318Y-101586812D01*
X136740472Y-101569000D01*
X136619528Y-101569000D01*
X136438682Y-101586812D01*
X136206637Y-101657202D01*
X135992784Y-101771509D01*
X135805340Y-101925340D01*
X135651509Y-102112784D01*
X135538983Y-102323305D01*
X135484157Y-102168748D01*
X135335178Y-101918645D01*
X135140269Y-101702412D01*
X134906920Y-101528359D01*
X134644099Y-101403175D01*
X134496890Y-101358524D01*
X134267000Y-101479845D01*
X134013000Y-101479845D01*
X133783110Y-101358524D01*
X133635901Y-101403175D01*
X133373080Y-101528359D01*
X133139731Y-101702412D01*
X132944822Y-101918645D01*
X132832843Y-102106633D01*
X132832843Y-101950000D01*
X132825487Y-101875311D01*
X132803701Y-101803492D01*
X132768322Y-101737304D01*
X132720711Y-101679289D01*
X132662696Y-101631678D01*
X132596508Y-101596299D01*
X132524689Y-101574513D01*
X132450000Y-101567157D01*
X130750000Y-101567157D01*
X130675311Y-101574513D01*
X130603492Y-101596299D01*
X130537304Y-101631678D01*
X130479289Y-101679289D01*
X130431678Y-101737304D01*
X130396299Y-101803492D01*
X130374513Y-101875311D01*
X130367157Y-101950000D01*
X124339883Y-101950000D01*
X124334671Y-101932821D01*
X124276190Y-101823411D01*
X124197488Y-101727512D01*
X124101589Y-101648810D01*
X123992179Y-101590329D01*
X123873462Y-101554317D01*
X123750001Y-101542157D01*
X123049999Y-101542157D01*
X122926538Y-101554317D01*
X122807821Y-101590329D01*
X122698411Y-101648810D01*
X122602512Y-101727512D01*
X122523810Y-101823411D01*
X122476628Y-101911682D01*
X122356307Y-101733275D01*
X122183474Y-101561922D01*
X121980533Y-101427579D01*
X121755282Y-101335409D01*
X121717609Y-101331538D01*
X121527000Y-101456269D01*
X121273000Y-101456269D01*
X121082391Y-101331538D01*
X121044718Y-101335409D01*
X120819467Y-101427579D01*
X120616526Y-101561922D01*
X120443693Y-101733275D01*
X120307610Y-101935054D01*
X120213507Y-102159504D01*
X120165000Y-102398000D01*
X115339028Y-102398000D01*
X115336714Y-102392414D01*
X115196338Y-102182327D01*
X115017673Y-102003662D01*
X114807586Y-101863286D01*
X114574150Y-101766594D01*
X114326335Y-101717300D01*
X114073665Y-101717300D01*
X113825850Y-101766594D01*
X113592414Y-101863286D01*
X113382327Y-102003662D01*
X113203662Y-102182327D01*
X113063286Y-102392414D01*
X112966594Y-102625850D01*
X112917300Y-102873665D01*
X110654194Y-102873665D01*
X110620090Y-102633825D01*
X110519829Y-102348208D01*
X110439647Y-102198201D01*
X110185293Y-102114312D01*
X109299605Y-103000000D01*
X108940395Y-103000000D01*
X108054707Y-102114312D01*
X107800353Y-102198201D01*
X107669286Y-102471058D01*
X107593970Y-102764241D01*
X107577297Y-103066486D01*
X100406000Y-103066486D01*
X100406000Y-101934707D01*
X108234312Y-101934707D01*
X109120000Y-102820395D01*
X110005688Y-101934707D01*
X109921799Y-101680353D01*
X109648942Y-101549286D01*
X109355759Y-101473970D01*
X109053514Y-101457297D01*
X108753825Y-101499910D01*
X108468208Y-101600171D01*
X108318201Y-101680353D01*
X108234312Y-101934707D01*
X100406000Y-101934707D01*
X100406000Y-100406000D01*
X169594000Y-100406000D01*
X169594001Y-137594000D01*
G36*
X147314887Y-126113998D02*
G01*
X147314946Y-126159002D01*
X147273948Y-126200000D01*
X147315054Y-126241106D01*
X147315116Y-126288328D01*
X147346826Y-126446657D01*
X147186002Y-126414887D01*
X147140998Y-126414946D01*
X147100000Y-126373948D01*
X147058894Y-126415054D01*
X147011672Y-126415116D01*
X146853343Y-126446826D01*
X146885113Y-126286002D01*
X146885054Y-126240998D01*
X146926052Y-126200000D01*
X146884946Y-126158894D01*
X146884884Y-126111672D01*
X146853174Y-125953343D01*
X147013998Y-125985113D01*
X147059002Y-125985054D01*
X147100000Y-126026052D01*
X147141106Y-125984946D01*
X147188328Y-125984884D01*
X147346657Y-125953174D01*
X147314887Y-126113998D01*
X147314887Y-126113998D01*
G37*
X147314887Y-126113998D02*
X147314946Y-126159002D01*
X147273948Y-126200000D01*
X147315054Y-126241106D01*
X147315116Y-126288328D01*
X147346826Y-126446657D01*
X147186002Y-126414887D01*
X147140998Y-126414946D01*
X147100000Y-126373948D01*
X147058894Y-126415054D01*
X147011672Y-126415116D01*
X146853343Y-126446826D01*
X146885113Y-126286002D01*
X146885054Y-126240998D01*
X146926052Y-126200000D01*
X146884946Y-126158894D01*
X146884884Y-126111672D01*
X146853174Y-125953343D01*
X147013998Y-125985113D01*
X147059002Y-125985054D01*
X147100000Y-126026052D01*
X147141106Y-125984946D01*
X147188328Y-125984884D01*
X147346657Y-125953174D01*
X147314887Y-126113998D01*
M02*
